<?xml version="1.0" encoding="UTF-8"?>
<svg id="Livello_1" xmlns="http://www.w3.org/2000/svg" version="1.1" viewBox="0 0 577.91 1024">
  <!-- Generator: Adobe Illustrator 29.8.1, SVG Export Plug-In . SVG Version: 2.1.1 Build 2)  -->
  <defs>
    <style>
      .st0 {
        fill: #19ff00;
      }

      .st1 {
        fill: #ff00f3;
      }

      .st2 {
        fill: #ffda00;
      }

      .st3 {
        stroke-dasharray: 2 1 0 0;
        stroke-width: .5px;
      }

      .st3, .st4 {
        fill: none;
        stroke: #131211;
        stroke-linecap: round;
        stroke-linejoin: round;
      }

      .st4 {
        stroke-width: 1.2px;
      }
    </style>
  </defs>
  <path class="st2" d="M158.73,646.19c-.3,3.59.68,7.61-1.72,8.9-.13.07-.26.14-.4.19-2.91,1.06-30.16-1.06-43.55,2.09-9.04,2.13-18.87,5.04-24.29,6.71-.38-.35-.79-.67-1.22-.96-5.51-3.7-15.07-22.02-32.5-66.12-13.3-33.63-28.91-77.27-35.57-96.1-2.08-5.88-1.29-12.4,2.15-17.6,8.73-13.24,27.02-40.62,47.91-69.61,29.1-40.41,44.21-69.75,60.76-75.71-18.14,7.82.6,29.23,8.32,58.7,7.98,30.44,12.39,58.16,17.11,130.92,4.73,72.76,6.93,89.29,2.99,118.59Z"/>
  <path class="st1" d="M157.24,688c.08,5.35-6.62,4.33-31.73,5.67-7.45.4-13.06.52-17.25.48-4.24-.03-7.04-.23-8.86-.43-1.8-.21-3.21-1.64-3.4-3.45-.22-2.12-.54-5.25-.88-8.72-.59-5.88-1.84-13.43-6.34-17.47,5.43-1.67,15.25-4.58,24.29-6.71,13.39-3.16,40.63-1.03,43.55-2.09.14-.05.27-.11.4-.19-.8,6.16-.25,19.72.06,27.82.08,2.17.14,3.95.16,5.09Z"/>
  <path class="st0" d="M439.28,396.67c-7.98,30.44-12.39,58.16-17.11,130.92-4.72,72.76-6.93,89.29-2.99,118.59.3,3.59-.68,7.61,1.72,8.9.8,6.16.25,19.72-.06,27.82-25.82-1.15-64.9-2.21-131.88-2.21s-106.06,1.05-131.88,2.21c-.31-8.1-.86-21.66-.06-27.82,2.41-1.3,1.42-5.31,1.72-8.9,3.94-29.3,1.73-45.83-2.99-118.59-4.72-72.76-9.13-100.48-17.11-130.92-7.72-29.48-26.46-50.88-8.32-58.7.02,0,.04-.02.06-.02.03,0,.06-.02.1-.03.56-.23,1.14-.46,1.77-.67,22.47-7.56,49.66-14.7,105.65-33.06,0,0,12.33,22.84,51.08,22.87,38.75-.02,51.08-22.87,51.08-22.87,55.99,18.36,83.18,25.5,105.65,33.06.63.21,1.22.43,1.77.67.05.02.1.03.15.06,18.14,7.82-.6,29.23-8.32,58.7Z"/>
  <path class="st1" d="M489.14,664.07c-4.51,4.03-5.76,11.59-6.34,17.47-.34,3.47-.66,6.59-.88,8.72-.19,1.8-1.6,3.24-3.41,3.45-1.82.21-4.62.4-8.86.43-4.19.04-9.8-.07-17.25-.48-25.11-1.34-31.81-.31-31.73-5.67.02-1.13.08-2.91.16-5.09.31-8.1.86-21.66.06-27.82.13.07.26.14.4.19,2.91,1.06,30.16-1.06,43.55,2.09,9.04,2.13,18.87,5.04,24.29,6.71Z"/>
  <path class="st2" d="M558.42,500.9c-6.66,18.83-22.27,62.47-35.57,96.1-17.43,44.09-26.98,62.41-32.5,66.12-.43.29-.84.6-1.22.96-5.43-1.67-15.25-4.58-24.29-6.71-13.39-3.16-40.63-1.03-43.55-2.09-.14-.05-.27-.11-.4-.19-2.41-1.3-1.42-5.31-1.72-8.9-3.94-29.3-1.73-45.83,2.99-118.59,4.73-72.76,9.13-100.48,17.11-130.92,7.72-29.48,26.46-50.88,8.32-58.7,16.55,5.96,31.66,35.3,60.76,75.71,20.89,28.99,39.18,56.37,47.91,69.61,3.44,5.21,4.23,11.72,2.15,17.6Z"/>
  <path class="st1" d="M467.98,716.47c-.63,2.09-2.63,3.45-4.81,3.34-24.86-1.31-56.33-4.59-174.22-4.59-58.95,0-96.29.82-122,1.8-25.71.98-39.79,2.13-52.22,2.79-2.17.11-4.18-1.25-4.81-3.34-1.58-5.24-1.79-13.49-1.67-22.33,4.19.04,9.8-.07,17.25-.48,25.11-1.34,31.81-.31,31.73-5.67-.02-1.13-.08-2.91-.16-5.09,25.82-1.15,64.9-2.21,131.88-2.21s106.06,1.05,131.88,2.21c-.08,2.17-.14,3.95-.16,5.09-.08,5.35,6.62,4.33,31.73,5.67,7.45.4,13.06.52,17.25.48.12,8.84-.1,17.09-1.67,22.33Z"/>
  <path class="st4" d="M158.73,646.19c-.3,3.59.68,7.61-1.72,8.9-.13.07-.26.14-.4.19-2.91,1.06-30.16-1.06-43.55,2.09-9.04,2.13-18.87,5.04-24.29,6.71-.38-.35-.79-.67-1.22-.96-5.51-3.7-15.07-22.02-32.5-66.12-13.3-33.63-28.91-77.27-35.57-96.1-2.08-5.88-1.29-12.4,2.15-17.6,8.73-13.24,27.02-40.62,47.91-69.61,29.1-40.41,44.21-69.75,60.76-75.71-18.14,7.82.6,29.23,8.32,58.7,7.98,30.44,12.39,58.16,17.11,130.92,4.73,72.76,6.93,89.29,2.99,118.59Z"/>
  <path class="st4" d="M157.24,688c.08,5.35-6.62,4.33-31.73,5.67-7.45.4-13.06.52-17.25.48-4.24-.03-7.04-.23-8.86-.43-1.8-.21-3.21-1.64-3.4-3.45-.22-2.12-.54-5.25-.88-8.72-.59-5.88-1.84-13.43-6.34-17.47,5.43-1.67,15.25-4.58,24.29-6.71,13.39-3.16,40.63-1.03,43.55-2.09.14-.05.27-.11.4-.19-.8,6.16-.25,19.72.06,27.82.08,2.17.14,3.95.16,5.09Z"/>
  <path class="st3" d="M85.68,661.45c5.43-1.67,18.34-5.53,27.38-7.66,13.39-3.16,42.67-1.03,45.58-2.09"/>
  <path class="st4" d="M132.23,337.25c-5.15,12.7-6.65,24.46-3.1,33.13"/>
  <path class="st3" d="M129.43,338.31s-.02.06-.03.08c-2.99,7.89-4.52,15.35-4.25,21.89"/>
  <path class="st4" d="M439.28,396.67c-7.98,30.44-12.39,58.16-17.11,130.92-4.72,72.76-6.93,89.29-2.99,118.59.3,3.59-.68,7.61,1.72,8.9.8,6.16.25,19.72-.06,27.82-25.82-1.15-64.9-2.21-131.88-2.21s-106.06,1.05-131.88,2.21c-.31-8.1-.86-21.66-.06-27.82,2.41-1.3,1.42-5.31,1.72-8.9,3.94-29.3,1.73-45.83-2.99-118.59-4.72-72.76-9.13-100.48-17.11-130.92-7.72-29.48-26.46-50.88-8.32-58.7.02,0,.04-.02.06-.02.03,0,.06-.02.1-.03.56-.23,1.14-.46,1.77-.67,22.47-7.56,49.66-14.7,105.65-33.06,0,0,12.33,22.84,51.08,22.87,38.75-.02,51.08-22.87,51.08-22.87,55.99,18.36,83.18,25.5,105.65,33.06.63.21,1.22.43,1.77.67.05.02.1.03.15.06,18.14,7.82-.6,29.23-8.32,58.7Z"/>
  <path class="st4" d="M489.14,664.07c-4.51,4.03-5.76,11.59-6.34,17.47-.34,3.47-.66,6.59-.88,8.72-.19,1.8-1.6,3.24-3.41,3.45-1.82.21-4.62.4-8.86.43-4.19.04-9.8-.07-17.25-.48-25.11-1.34-31.81-.31-31.73-5.67.02-1.13.08-2.91.16-5.09.31-8.1.86-21.66.06-27.82.13.07.26.14.4.19,2.91,1.06,30.16-1.06,43.55,2.09,9.04,2.13,18.87,5.04,24.29,6.71Z"/>
  <path class="st4" d="M558.42,500.9c-6.66,18.83-22.27,62.47-35.57,96.1-17.43,44.09-26.98,62.41-32.5,66.12-.43.29-.84.6-1.22.96-5.43-1.67-15.25-4.58-24.29-6.71-13.39-3.16-40.63-1.03-43.55-2.09-.14-.05-.27-.11-.4-.19-2.41-1.3-1.42-5.31-1.72-8.9-3.94-29.3-1.73-45.83,2.99-118.59,4.73-72.76,9.13-100.48,17.11-130.92,7.72-29.48,26.46-50.88,8.32-58.7,16.55,5.96,31.66,35.3,60.76,75.71,20.89,28.99,39.18,56.37,47.91,69.61,3.44,5.21,4.23,11.72,2.15,17.6Z"/>
  <path class="st3" d="M419.26,651.7c2.91,1.06,32.2-1.06,45.58,2.09,9.04,2.13,21.96,5.99,27.38,7.66"/>
  <path class="st4" d="M445.68,337.25c5.15,12.7,6.65,24.46,3.1,33.13"/>
  <path class="st3" d="M452.77,360.28c.27-6.54-1.26-14-4.25-21.89,0-.02-.02-.06-.03-.08"/>
  <path class="st4" d="M467.98,716.47c-.63,2.09-2.63,3.45-4.81,3.34-24.86-1.31-56.33-4.59-174.22-4.59-58.95,0-96.29.82-122,1.8-25.71.98-39.79,2.13-52.22,2.79-2.17.11-4.18-1.25-4.81-3.34-1.58-5.24-1.79-13.49-1.67-22.33,4.19.04,9.8-.07,17.25-.48,25.11-1.34,31.81-.31,31.73-5.67-.02-1.13-.08-2.91-.16-5.09,25.82-1.15,64.9-2.21,131.88-2.21s106.06,1.05,131.88,2.21c-.08,2.17-.14,3.95-.16,5.09-.08,5.35,6.62,4.33,31.73,5.67,7.45.4,13.06.52,17.25.48.12,8.84-.1,17.09-1.67,22.33Z"/>
  <path class="st3" d="M420.84,680.21c-25.82-1.15-64.9-2.21-131.88-2.21-66.98,0-106.06,1.05-131.88,2.21"/>
</svg>