<?xml version="1.0" encoding="UTF-8"?>
<svg id="Livello_1" xmlns="http://www.w3.org/2000/svg" version="1.1" viewBox="0 0 284.55 279.39">
  <!-- Generator: Adobe Illustrator 29.8.1, SVG Export Plug-In . SVG Version: 2.1.1 Build 2)  -->
  <defs>
    <style>
      .st0 {
        fill: none;
        stroke: #131211;
        stroke-linecap: round;
        stroke-linejoin: round;
        stroke-width: 1.2px;
      }
    </style>
  </defs>
  <path class="st0" d="M275.17,151.69c-6.01-12.72-4.88-23.2-21.09-62.05-12.02-31.3-31.03-43.32-55.9-60.64-24.87-17.34-43.88-24.04-55.9-24.04s-31.03,6.7-55.9,24.04c-24.87,17.32-43.88,29.34-55.9,60.64-16.21,38.85-15.08,49.33-21.09,62.05-6.01,12.7-6.01,17.17-6.01,21.79h0c0,3.9.9,10.29,22.28,26.83.02.01.03.03.05.04-3.82,4.19-6.68,7.79-6.68,7.79,0,0,9.21,16.57,29.21,33.15,17.1,14.17,42.08,28.33,75.95,32.14,5.1.58,10.4.92,15.9,1,.73.01,1.46.01,2.19.01s1.46,0,2.19-.01c5.5-.08,10.8-.42,15.9-1,33.87-3.81,58.85-17.97,75.95-32.14,20-16.58,29.21-33.15,29.21-33.15,0,0-2.86-3.6-6.68-7.79.02,0,.03-.03.05-.04,21.38-16.54,22.28-22.93,22.28-26.82h0c0-4.63,0-9.1-6.01-21.8Z"/>
  <path class="st0" d="M277.41,173.49c0,4.6-1.8,10.51-36.8,34.82-35.01,24.32-46.98,21.35-81.13,38.95,0,.01-.01.01-.01.01-5.84,5.5-17.19,13.06-17.19,13.06,0,0-11.35-7.56-17.19-13.06,0,0,0,0,0-.01-34.15-17.6-46.12-14.63-81.13-38.95-35-24.31-36.8-30.22-36.8-34.82,0-13.14,16.23-12.02,41.44-11.08,11.76.44,26.96,2.1,41.91,4.09.06.01.13.02.19.03h.01c1.88.24,3.75.5,5.63.76.11.01.23.03.35.04,16.85,2.31,33.42,4.72,45.6,4.72s28.75-2.41,45.6-4.72c.12-.01.24-.03.35-.04,1.88-.26,3.75-.52,5.63-.76h.01c.06-.01.13-.02.19-.03,14.95-1.99,30.15-3.65,41.91-4.09,25.21-.94,41.44-2.06,41.44,11.08Z"/>
</svg>