<?xml version="1.0" encoding="UTF-8"?>
<svg id="Livello_2" xmlns="http://www.w3.org/2000/svg" version="1.1" viewBox="0 0 350 350">
  <!-- Generator: Adobe Illustrator 29.8.1, SVG Export Plug-In . SVG Version: 2.1.1 Build 2)  -->
  <defs>
    <style>
      .st0 {
        fill: red;
      }

      .st1 {
        fill: #131211;
        opacity: .14;
      }

      .st2 {
        fill: none;
        stroke: #131211;
        stroke-linecap: round;
        stroke-linejoin: round;
        stroke-width: 1.2px;
      }
    </style>
  </defs>
  <g>
    <path class="st0" d="M166.18,315.62h0c-.13,0-.24-.11-.24-.24-.03-.55-.12-1.21-.27-1.94v-.05c0-.12.08-.23.2-.25.14-.03.26.06.29.19.16.76.25,1.44.28,2.03,0,.13-.1.25-.24.26h-.01ZM165.68,312.66c-.11,0-.21-.08-.24-.19-.15-.6-.33-1.24-.54-1.91-.01-.03-.01-.05-.01-.08,0-.11.07-.2.17-.24.13-.04.27.04.32.17.21.68.4,1.34.55,1.94.03.13-.05.27-.18.3-.03.01-.05.01-.07.01ZM164.83,309.78c-.11,0-.21-.07-.24-.17-.19-.58-.42-1.19-.67-1.88h-.01s0-.05,0-.08c0-.11.06-.2.16-.24.13-.05.28.02.32.15.24.62.47,1.25.68,1.89.05.13-.02.27-.15.32-.03.01-.05.01-.08.01ZM163.79,306.96c-.1,0-.2-.06-.23-.16-.24-.61-.5-1.23-.75-1.84,0,0-.01,0-.01,0,0-.03-.02-.06-.02-.09,0-.1.06-.19.16-.23.12-.06.27,0,.32.13.28.64.53,1.27.76,1.86.03.06.03.13,0,.19s-.08.11-.14.13c-.03.01-.06.02-.09.02ZM162.64,304.19c-.1,0-.19-.06-.23-.16-.26-.59-.53-1.21-.81-1.82-.02-.03-.03-.07-.02-.11,0-.1.06-.18.14-.22.12-.06.28,0,.33.12.27.59.54,1.19.82,1.84.03.06.03.12,0,.19-.02.06-.07.11-.13.13-.03.02-.07.03-.1.03ZM161.41,301.45c-.1,0-.19-.06-.23-.15-.29-.63-.6-1.26-.86-1.8h0s-.02-.07-.02-.11c0-.1.05-.18.14-.23.11-.05.27,0,.33.12.33.68.61,1.27.86,1.81.06.13,0,.28-.12.33-.03.02-.07.03-.1.03ZM160.11,298.74c-.1,0-.19-.06-.23-.14-.25-.51-.53-1.07-.9-1.79-.01-.03-.02-.08-.02-.12,0-.09.05-.17.13-.21.13-.06.28,0,.34.11.34.66.63,1.24.9,1.79.06.12.01.27-.11.33-.04.02-.08.03-.11.03ZM158.75,296.06c-.1,0-.18-.05-.22-.13-.35-.66-.63-1.21-.93-1.77h0c-.02-.05-.03-.08-.02-.12,0-.1.05-.18.13-.22.11-.07.27-.02.33.1.26.49.61,1.13.94,1.78.03.06.04.12.02.19-.02.06-.07.11-.13.14-.03.02-.07.03-.11.03ZM157.34,293.41c-.09,0-.17-.05-.22-.13-.32-.6-.65-1.19-.96-1.76-.02-.03-.03-.07-.03-.12,0-.09.04-.17.12-.22.12-.06.27-.02.34.09t0,.01s.01.02.01.03c.33.58.65,1.17.95,1.73.03.06.04.12.02.19-.02.06-.06.11-.12.15-.04.02-.08.03-.12.03ZM155.89,290.78c-.09,0-.18-.05-.22-.13-.28-.5-.6-1.05-.99-1.73-.03-.04-.04-.09-.04-.13,0-.09.05-.17.13-.22.12-.06.27-.02.34.1.34.59.68,1.18.99,1.74.04.06.05.12.03.19-.02.06-.06.12-.12.15-.04.02-.08.03-.12.03ZM154.39,288.18c-.09,0-.17-.05-.22-.12-.34-.59-.68-1.16-1.02-1.72h0s-.04-.09-.04-.14c0-.08.05-.16.13-.21.11-.06.26-.03.33.08,0,0,0,0,0,.01,0,0,.01,0,.01.02.4.66.72,1.21,1.01,1.7.07.12.03.27-.09.34-.03.03-.08.04-.12.04ZM152.84,285.6c-.08,0-.16-.04-.21-.12-.32-.52-.66-1.08-1.05-1.7-.02-.04-.04-.09-.04-.13,0-.09.04-.17.12-.22.11-.07.27-.03.34.08.34.54.68,1.1,1.06,1.71.07.12.03.27-.08.34-.04.03-.09.04-.14.04ZM151.26,283.05c-.09,0-.17-.05-.21-.12-.42-.65-.76-1.18-1.08-1.68,0,0,0,0,0,0-.02-.04-.03-.08-.03-.13,0-.08.04-.16.11-.2.11-.08.27-.04.35.07.36.55.72,1.12,1.08,1.68.07.12.04.27-.08.35-.04.02-.08.04-.13.04ZM149.63,280.53c-.08,0-.16-.04-.21-.11-.36-.54-.73-1.1-1.11-1.65h0s-.04-.1-.04-.15c0-.09.04-.16.11-.21.1-.07.27-.04.34.07.37.55.75,1.11,1.12,1.67.04.05.05.12.04.18-.02.07-.06.12-.11.16-.04.03-.09.04-.14.04ZM147.95,278.04c-.08,0-.16-.04-.2-.11-.34-.49-.71-1.01-1.14-1.63h-.01s-.04-.09-.04-.14c-.01-.09.03-.17.1-.21.11-.08.27-.05.35.06.38.53.77,1.09,1.15,1.64.04.05.05.12.04.19,0,.06-.05.12-.11.16-.04.03-.09.04-.14.04ZM146.22,275.59c-.08,0-.15-.04-.2-.11-.41-.57-.8-1.1-1.18-1.61-.03-.04-.05-.09-.05-.15,0-.08.04-.15.1-.2.11-.08.27-.06.35.05.45.6.83,1.13,1.19,1.62.03.05.05.12.04.18,0,.07-.05.13-.1.17-.05.03-.1.05-.15.05ZM144.44,273.17c-.08,0-.15-.03-.2-.1-.39-.52-.8-1.05-1.22-1.57h0s-.06-.1-.06-.16c0-.08.04-.15.1-.2.1-.08.26-.07.34.04h0s.01.02.02.02c.43.56.83,1.07,1.21,1.57.08.11.06.27-.05.35-.05.03-.1.05-.15.05ZM142.59,270.8c-.08,0-.15-.03-.2-.09-.45-.57-.87-1.07-1.26-1.54-.04-.04-.06-.1-.06-.16,0-.07.03-.14.08-.19.1-.09.27-.07.36.03.39.47.81.98,1.27,1.55.09.11.07.26-.03.35-.05.03-.1.05-.16.05ZM140.67,268.5c-.08,0-.14-.03-.19-.09-.43-.5-.88-1-1.33-1.49-.04-.05-.07-.12-.06-.18,0-.07.03-.13.08-.18.1-.08.26-.08.35.02.43.47.88.97,1.34,1.5.04.05.06.12.06.18-.01.07-.04.13-.09.18-.04.04-.1.06-.16.06ZM138.66,266.27c-.07,0-.14-.03-.19-.08-.47-.51-.94-.99-1.39-1.43-.05-.04-.07-.1-.08-.17,0-.07.03-.13.08-.18.09-.1.25-.1.35,0,.48.46.95.95,1.41,1.44.09.09.09.25-.01.35-.05.04-.11.07-.17.07ZM136.53,264.14c-.06,0-.12-.02-.17-.07-.5-.47-.99-.91-1.48-1.32-.05-.04-.08-.1-.09-.17,0-.07.02-.13.06-.18.08-.1.25-.12.35-.03.51.42,1.01.88,1.51,1.34.09.09.1.25,0,.35-.05.05-.12.08-.19.08Z"/>
    <path class="st0" d="M170.03,193.99c-.14,0-.25-.11-.25-.25v-2c0-.14.11-.25.25-.25s.25.11.25.25v2c0,.14-.11.25-.25.25ZM170.03,190.99c-.14,0-.25-.11-.25-.25v-2c0-.14.11-.25.25-.25s.25.11.25.25v2c0,.14-.11.25-.25.25ZM170.03,187.99c-.14,0-.25-.11-.25-.25v-2c0-.14.11-.25.25-.25s.25.11.25.25v2c0,.14-.11.25-.25.25ZM170.03,184.99c-.14,0-.25-.11-.25-.25v-2c0-.14.11-.25.25-.25s.25.11.25.25v2c0,.14-.11.25-.25.25ZM170.03,181.99c-.14,0-.25-.11-.25-.25v-2c0-.14.11-.25.25-.25s.25.11.25.25v2c0,.14-.11.25-.25.25ZM170.03,178.99c-.14,0-.25-.11-.25-.25v-2c0-.14.11-.25.25-.25s.25.11.25.25v2c0,.14-.11.25-.25.25ZM170.03,175.99c-.14,0-.25-.11-.25-.25v-2c0-.14.11-.25.25-.25s.25.11.25.25v2c0,.14-.11.25-.25.25ZM170.03,172.99c-.14,0-.25-.11-.25-.25v-2c0-.14.11-.25.25-.25s.25.11.25.25v2c0,.14-.11.25-.25.25ZM170.03,169.99c-.14,0-.25-.11-.25-.25v-2c0-.14.11-.25.25-.25s.25.11.25.25v2c0,.14-.11.25-.25.25ZM170.03,166.99c-.14,0-.25-.11-.25-.25v-2c0-.14.11-.25.25-.25s.25.11.25.25v2c0,.14-.11.25-.25.25ZM170.03,163.99c-.14,0-.25-.11-.25-.25v-2c0-.14.11-.25.25-.25s.25.11.25.25v2c0,.14-.11.25-.25.25ZM170.03,160.99c-.14,0-.25-.11-.25-.25v-2c0-.14.11-.25.25-.25s.25.11.25.25v2c0,.14-.11.25-.25.25ZM170.03,157.99c-.14,0-.25-.11-.25-.25v-2c0-.14.11-.25.25-.25s.25.11.25.25v2c0,.14-.11.25-.25.25ZM170.03,154.99c-.14,0-.25-.11-.25-.25v-2c0-.14.11-.25.25-.25s.25.11.25.25v2c0,.14-.11.25-.25.25ZM170.03,151.99c-.14,0-.25-.11-.25-.25v-2c0-.14.11-.25.25-.25s.25.11.25.25v2c0,.14-.11.25-.25.25ZM170.03,148.99c-.14,0-.25-.11-.25-.25v-2c0-.14.11-.25.25-.25s.25.11.25.25v2c0,.14-.11.25-.25.25ZM170.03,145.99c-.14,0-.25-.11-.25-.25v-2c0-.14.11-.25.25-.25s.25.11.25.25v2c0,.14-.11.25-.25.25ZM170.03,142.99c-.14,0-.25-.11-.25-.25v-2c0-.14.11-.25.25-.25s.25.11.25.25v2c0,.14-.11.25-.25.25ZM170.03,139.99c-.14,0-.25-.11-.25-.25v-2c0-.14.11-.25.25-.25s.25.11.25.25v2c0,.14-.11.25-.25.25ZM170.03,136.99c-.14,0-.25-.11-.25-.25v-2c0-.14.11-.25.25-.25s.25.11.25.25v2c0,.14-.11.25-.25.25ZM170.03,133.99c-.14,0-.25-.11-.25-.25v-2c0-.14.11-.25.25-.25s.25.11.25.25v2c0,.14-.11.25-.25.25ZM170.03,130.99c-.14,0-.25-.11-.25-.25v-2c0-.14.11-.25.25-.25s.25.11.25.25v2c0,.14-.11.25-.25.25ZM170.03,127.99c-.14,0-.25-.11-.25-.25v-2c0-.14.11-.25.25-.25s.25.11.25.25v2c0,.14-.11.25-.25.25ZM170.03,124.99c-.14,0-.25-.11-.25-.25v-2c0-.14.11-.25.25-.25s.25.11.25.25v2c0,.14-.11.25-.25.25ZM170.03,121.99c-.14,0-.25-.11-.25-.25v-2c0-.14.11-.25.25-.25s.25.11.25.25v2c0,.14-.11.25-.25.25ZM170.03,118.99c-.14,0-.25-.11-.25-.25v-2c0-.14.11-.25.25-.25s.25.11.25.25v2c0,.14-.11.25-.25.25ZM170.03,115.99c-.14,0-.25-.11-.25-.25v-2c0-.14.11-.25.25-.25s.25.11.25.25v2c0,.14-.11.25-.25.25ZM170.03,112.99c-.14,0-.25-.11-.25-.25v-2c0-.14.11-.25.25-.25s.25.11.25.25v2c0,.14-.11.25-.25.25ZM170.03,109.99c-.14,0-.25-.11-.25-.25v-2c0-.14.11-.25.25-.25s.25.11.25.25v2c0,.14-.11.25-.25.25ZM170.03,106.99c-.14,0-.25-.11-.25-.25v-2c0-.14.11-.25.25-.25s.25.11.25.25v2c0,.14-.11.25-.25.25ZM170.03,103.99c-.14,0-.25-.11-.25-.25v-2c0-.14.11-.25.25-.25s.25.11.25.25v2c0,.14-.11.25-.25.25ZM170.03,100.99c-.14,0-.25-.11-.25-.25v-2c0-.14.11-.25.25-.25s.25.11.25.25v2c0,.14-.11.25-.25.25ZM170.03,97.99c-.14,0-.25-.11-.25-.25v-2c0-.14.11-.25.25-.25s.25.11.25.25v2c0,.14-.11.25-.25.25ZM170.03,94.99c-.14,0-.25-.11-.25-.25v-2c0-.14.11-.25.25-.25s.25.11.25.25v2c0,.14-.11.25-.25.25ZM170.03,91.99c-.14,0-.25-.11-.25-.25v-2c0-.14.11-.25.25-.25s.25.11.25.25v2c0,.14-.11.25-.25.25ZM170.03,88.99c-.14,0-.25-.11-.25-.25v-2c0-.14.11-.25.25-.25s.25.11.25.25v2c0,.14-.11.25-.25.25ZM170.03,85.99c-.14,0-.25-.11-.25-.25v-2c0-.14.11-.25.25-.25s.25.11.25.25v2c0,.14-.11.25-.25.25ZM170.03,82.99c-.14,0-.25-.11-.25-.25v-2c0-.14.11-.25.25-.25s.25.11.25.25v2c0,.14-.11.25-.25.25ZM170.03,79.99c-.14,0-.25-.11-.25-.25v-2c0-.14.11-.25.25-.25s.25.11.25.25v2c0,.14-.11.25-.25.25ZM170.03,76.99c-.14,0-.25-.11-.25-.25v-2c0-.14.11-.25.25-.25s.25.11.25.25v2c0,.14-.11.25-.25.25ZM170.03,73.99c-.14,0-.25-.11-.25-.25v-2c0-.14.11-.25.25-.25s.25.11.25.25v2c0,.14-.11.25-.25.25ZM170.03,70.99c-.14,0-.25-.11-.25-.25v-2c0-.14.11-.25.25-.25s.25.11.25.25v2c0,.14-.11.25-.25.25ZM170.03,67.99c-.14,0-.25-.11-.25-.25v-2c0-.14.11-.25.25-.25s.25.11.25.25v2c0,.14-.11.25-.25.25ZM170.03,64.99c-.14,0-.25-.11-.25-.25v-2c0-.14.11-.25.25-.25s.25.11.25.25v2c0,.14-.11.25-.25.25ZM170.03,61.99c-.14,0-.25-.11-.25-.25v-2c0-.14.11-.25.25-.25s.25.11.25.25v2c0,.14-.11.25-.25.25ZM170.03,58.99c-.14,0-.25-.11-.25-.25v-2c0-.14.11-.25.25-.25s.25.11.25.25v2c0,.14-.11.25-.25.25ZM170.03,55.99c-.14,0-.25-.11-.25-.25v-2c0-.14.11-.25.25-.25s.25.11.25.25v2c0,.14-.11.25-.25.25ZM170.03,52.99c-.14,0-.25-.11-.25-.25v-2c0-.14.11-.25.25-.25s.25.11.25.25v2c0,.14-.11.25-.25.25ZM170.03,49.99c-.14,0-.25-.11-.25-.25v-2c0-.14.11-.25.25-.25s.25.11.25.25v2c0,.14-.11.25-.25.25ZM170.03,46.99c-.14,0-.25-.11-.25-.25v-2c0-.14.11-.25.25-.25s.25.11.25.25v2c0,.14-.11.25-.25.25ZM170.03,43.99c-.14,0-.25-.11-.25-.25v-2c0-.14.11-.25.25-.25s.25.11.25.25v2c0,.14-.11.25-.25.25ZM170.03,40.99c-.14,0-.25-.11-.25-.25v-2c0-.14.11-.25.25-.25s.25.11.25.25v2c0,.14-.11.25-.25.25ZM170.03,37.99c-.14,0-.25-.11-.25-.25v-2c0-.14.11-.25.25-.25s.25.11.25.25v2c0,.14-.11.25-.25.25ZM170.03,34.99c-.14,0-.25-.11-.25-.25v-2c0-.14.11-.25.25-.25s.25.11.25.25v2c0,.14-.11.25-.25.25ZM170.03,31.99c-.14,0-.25-.11-.25-.25v-2c0-.14.11-.25.25-.25s.25.11.25.25v2c0,.14-.11.25-.25.25Z"/>
    <path class="st0" d="M185.64,308.4s-.06,0-.08,0c-.07-.03-.12-.07-.15-.13-.02-.06-.03-.13,0-.19.22-.61.46-1.24.72-1.88.05-.13.19-.19.32-.14.13.05.19.2.14.33-.24.6-.48,1.23-.71,1.86-.04.1-.14.16-.24.16ZM186.73,305.61s-.06,0-.09-.02c-.09-.04-.15-.13-.15-.23,0-.03,0-.07,0-.1.26-.62.53-1.24.79-1.84.06-.13.21-.19.33-.13.13.05.19.2.13.33-.28.63-.54,1.25-.78,1.83-.04.09-.13.16-.24.16ZM187.93,302.85s-.07,0-.1-.02c-.09-.04-.15-.14-.15-.24,0-.03,0-.06.02-.09.26-.57.53-1.17.84-1.82.06-.13.21-.18.33-.12.13.05.18.2.12.33-.33.71-.6,1.29-.83,1.81-.04.09-.13.15-.23.15ZM189.19,300.13s-.07,0-.1-.03c-.09-.04-.14-.13-.15-.22,0-.04.01-.07.03-.1h0s0-.02,0-.02c.27-.57.55-1.15.87-1.79.06-.12.22-.17.34-.11.12.06.17.21.11.33-.3.6-.6,1.21-.88,1.8h0c-.04.09-.12.14-.22.14ZM190.52,297.44s-.07,0-.11-.03c-.09-.04-.14-.13-.14-.23,0-.04.01-.07.03-.11.28-.56.58-1.14.92-1.78.06-.12.22-.17.34-.11.12.07.16.22.1.34-.32.61-.63,1.21-.91,1.78-.05.08-.13.14-.23.14ZM191.91,294.77c-.05,0-.09,0-.12-.03-.08-.04-.13-.13-.14-.22,0-.04.01-.08.03-.12.31-.58.63-1.18.95-1.76.07-.12.23-.17.34-.1.12.06.17.21.1.34-.32.59-.64,1.19-.94,1.76-.05.08-.13.13-.22.13ZM193.33,292.13s-.08,0-.11-.03c-.09-.04-.14-.13-.13-.22,0-.04,0-.08.03-.12.33-.6.66-1.19.98-1.75.06-.12.22-.16.34-.09.12.06.16.22.09.34-.31.55-.63,1.12-.98,1.74-.04.08-.13.13-.22.13ZM194.81,289.52s-.09-.02-.12-.04c-.08-.04-.13-.12-.13-.21,0-.04,0-.09.04-.13.31-.56.65-1.14,1-1.73.07-.11.23-.15.34-.08.06.03.1.08.12.15,0,.06,0,.13-.03.19-.36.61-.71,1.21-1,1.72-.05.08-.13.13-.22.13ZM196.32,286.93s-.08,0-.12-.03c-.08-.05-.12-.13-.13-.22,0-.04.02-.09.04-.13.36-.59.72-1.19,1.04-1.71.07-.11.23-.15.34-.08.06.03.1.09.12.15.01.07,0,.13-.03.19-.33.53-.67,1.09-1.04,1.71-.05.08-.13.12-.22.12ZM197.89,284.37s-.09-.02-.13-.04c-.08-.05-.12-.13-.12-.22,0-.04,0-.09.04-.13.38-.6.73-1.16,1.07-1.69.07-.12.23-.15.34-.08.12.08.15.23.08.35-.33.52-.68,1.07-1.07,1.68h0c-.05.08-.12.13-.21.13ZM199.5,281.83s-.1-.02-.14-.04c-.07-.05-.11-.12-.11-.21,0-.05,0-.09.04-.14.4-.61.76-1.16,1.1-1.67.07-.11.23-.15.34-.07.12.07.15.23.07.34-.35.54-.72,1.1-1.09,1.68h0c-.05.07-.12.11-.2.11ZM201.15,279.32s-.1,0-.14-.04c-.07-.05-.11-.13-.11-.21,0-.05.02-.1.04-.14.35-.51.72-1.05,1.13-1.65.08-.11.24-.14.35-.06.12.07.14.23.06.34-.38.56-.76,1.11-1.12,1.65-.05.07-.13.11-.21.11ZM202.85,276.85s-.1-.02-.14-.05c-.07-.04-.11-.12-.11-.2,0-.06.02-.1.05-.14.42-.6.8-1.14,1.16-1.64.08-.1.25-.13.35-.05.11.08.14.24.06.35-.34.47-.75,1.04-1.16,1.62-.05.07-.13.11-.21.11ZM204.61,274.41c-.06,0-.11-.01-.15-.04-.06-.05-.1-.13-.1-.2,0-.06.01-.11.05-.15.47-.64.85-1.15,1.2-1.61.08-.11.25-.13.35-.04.06.03.09.09.1.16,0,.07,0,.13-.05.19-.41.53-.81,1.06-1.2,1.59-.05.07-.12.1-.2.1ZM206.42,272.02s-.11,0-.15-.05c-.06-.05-.1-.12-.1-.2,0-.06.02-.11.06-.15.42-.54.84-1.07,1.25-1.57.08-.1.25-.12.35-.04.11.09.12.25.03.36-.4.49-.82,1.02-1.24,1.56-.05.06-.12.09-.2.09ZM208.31,269.69c-.06,0-.12-.03-.16-.06-.06-.05-.09-.12-.09-.2,0-.05.02-.11.05-.16.44-.52.88-1.03,1.31-1.52.09-.1.25-.11.35-.03.1.09.11.25.02.36-.44.5-.87,1.01-1.29,1.51h0c-.05.06-.12.1-.19.1ZM210.27,267.41c-.06,0-.12-.02-.17-.06-.05-.05-.08-.12-.08-.19,0-.06.02-.12.06-.17.45-.49.91-.98,1.37-1.47.09-.09.26-.1.35,0,.1.09.11.25,0,.35-.44.46-.89.95-1.35,1.46-.05.05-.12.08-.19.08ZM212.33,265.23c-.06,0-.13-.03-.18-.07-.04-.05-.07-.11-.07-.18s.03-.13.07-.18c.49-.48.98-.95,1.45-1.39.1-.09.27-.09.36,0,.04.05.06.12.06.18,0,.07-.03.13-.08.18-.45.41-.94.88-1.43,1.38-.05.04-.11.07-.18.07ZM214.52,263.18c-.07,0-.14-.04-.19-.09-.04-.05-.06-.11-.06-.17,0-.07.03-.14.08-.18.13-.11.28-.24.43-.37.1-.08.26-.07.35.03.09.11.08.27-.03.35-.16.15-.29.26-.42.36h0c-.05.05-.1.07-.16.07Z"/>
    <path class="st0" d="M175.25,320.51h-2c-.14,0-.25-.12-.25-.26,0-.13.11-.24.25-.24h2c.14,0,.25.11.25.25s-.11.25-.25.25h0ZM176.25,320.51c-.14,0-.25-.11-.25-.25s.11-.25.25-.25c.63,0,1.25,0,2-.02.13,0,.25.11.25.24,0,.07-.02.14-.07.18-.05.05-.11.08-.18.08-.73,0-1.39.02-2,.02h0ZM172.25,320.5h-.01c-.62,0-1.28-.02-2-.03-.06,0-.12-.03-.17-.08s-.07-.11-.07-.18c0-.14.11-.24.25-.24.67,0,1.34.02,2,.03.14,0,.25.11.25.25s-.12.25-.25.25ZM179.25,320.47h0c-.14,0-.25-.11-.25-.24,0-.14.11-.25.24-.26.6,0,1.26-.02,2-.04.14,0,.25.11.26.24v.02c0,.13-.11.24-.24.24-.77.02-1.4.03-2.01.04h0ZM169.25,320.44h-.01c-.81-.02-1.42-.03-2-.05-.07,0-.13-.03-.17-.08-.05-.05-.07-.11-.07-.18,0-.13.11-.24.25-.24h0c.66.02,1.33.04,1.99.05.14.01.25.12.25.26s-.12.24-.25.24ZM182.26,320.4h0c-.14,0-.25-.1-.25-.24,0-.07.02-.13.07-.18.04-.05.11-.07.17-.08.63,0,1.32-.04,2-.06h0c.13,0,.24.1.25.23,0,.15-.1.26-.24.27-.72.02-1.38.05-2,.06h0ZM166.25,320.35h-.01c-.6-.02-1.23-.04-2-.08-.07,0-.13-.03-.17-.08-.05-.05-.07-.11-.07-.18,0-.13.12-.24.25-.24h0c.76.04,1.4.06,2,.08.13,0,.24.13.24.26,0,.14-.12.24-.25.24ZM185.26,320.3h0c-.14,0-.25-.11-.25-.24,0-.07.02-.13.06-.18.05-.05.11-.08.18-.08.59-.03,1.24-.06,1.99-.1h.02c.13,0,.24.11.25.24v.02c0,.13-.11.23-.24.24h0c-.72.04-1.37.07-2,.1h0ZM163.25,320.23h-.01c-.63-.03-1.28-.06-2-.11-.14,0-.24-.12-.24-.26,0-.13.12-.24.25-.24h.02c.71.05,1.36.08,1.99.11.14.01.24.12.24.25h0c0,.15-.11.25-.25.25ZM188.26,320.15h0c-.14,0-.25-.1-.25-.23,0-.07,0-.14.06-.19.04-.04.1-.08.17-.08l.32-.02c.56-.03,1.12-.06,1.68-.1.14,0,.25.1.26.24h0c0,.14-.09.25-.22.26h-.15c-.61.05-1.24.09-1.86.12h0ZM160.25,320.07h-.01c-.66-.04-1.33-.09-2-.14-.14,0-.24-.12-.23-.26.01-.14.15-.23.27-.23.73.05,1.38.09,1.99.13h0c.13.01.22.12.22.25h0c0,.14-.11.25-.25.25ZM191.24,319.97c-.13,0-.24-.1-.25-.24-.01-.06.02-.13.06-.18.05-.05.11-.08.17-.08.72-.05,1.38-.1,2-.14.14-.02.26.09.26.23h0c.01.14-.09.25-.22.27-.71.05-1.36.1-2,.14h-.02ZM157.26,319.87s0,0-.02-.01c-.57-.04-1.19-.09-1.99-.15-.14,0-.24-.13-.23-.27,0-.14.12-.23.27-.23.62.05,1.27.1,1.99.16.13,0,.24.12.23.25h0c0,.14-.12.25-.25.25ZM194.23,319.75c-.13,0-.24-.1-.25-.23,0-.07.02-.13.06-.19.05-.05.11-.08.17-.08.67-.05,1.34-.11,1.99-.17.12-.02.26.09.28.23v.02c0,.13-.1.23-.23.25-.7.06-1.37.12-2,.17h-.02ZM154.27,319.62h-.02c-.59-.05-1.22-.1-2-.18-.13,0-.23-.13-.22-.27.01-.14.13-.24.27-.23.67.07,1.33.13,1.99.18.13.02.23.12.23.25v.03c-.01.12-.12.22-.25.22ZM197.24,319.49h-.02c-.13,0-.24-.1-.25-.23,0-.07.02-.13.06-.18.04-.05.1-.09.17-.09.66-.06,1.33-.13,1.99-.2.15-.02.26.09.27.23h0v.02c0,.13-.1.24-.22.25-.6.06-1.3.13-1.99.2h0ZM151.28,319.35h-.02c-.64-.07-1.31-.14-1.99-.21-.07,0-.13-.04-.17-.1-.04-.05-.06-.12-.05-.18.01-.14.13-.24.27-.22.63.07,1.28.14,1.99.21.13,0,.22.12.22.24v.03c0,.13-.12.23-.25.23ZM200.21,319.19c-.13,0-.24-.1-.25-.23,0-.06,0-.13.05-.18.04-.05.1-.08.17-.09.77-.08,1.4-.15,1.99-.22.14,0,.26.08.27.22v.02c.01.13-.09.24-.22.26-.6.06-1.25.14-1.99.22h-.02ZM148.3,319.03s-.02-.01-.03-.01c-.63-.07-1.3-.15-1.99-.23-.06,0-.12-.04-.16-.1-.04-.05-.06-.11-.05-.18,0-.13.14-.23.27-.22.55.07,1.27.16,1.99.24.13,0,.22.12.22.25h0v.02c-.02.13-.12.23-.25.23ZM203.19,318.85c-.13,0-.24-.1-.25-.22,0-.07.01-.14.05-.19.04-.05.1-.08.17-.09.67-.08,1.35-.17,1.98-.25.13,0,.26.08.28.22v.04c0,.11-.09.21-.2.24h-.05c-.53.07-1.23.16-1.95.25h-.03ZM145.32,318.67s-.02,0-.03,0c-.65-.08-1.32-.17-1.99-.26-.13-.02-.23-.15-.21-.28.02-.14.15-.22.28-.22.64.09,1.28.18,1.91.26h.07c.13.02.22.13.22.26v.03c-.02.12-.12.22-.25.22ZM206.16,318.47c-.12,0-.22-.09-.24-.22,0-.07,0-.13.05-.19.04-.05.1-.08.16-.09l.29-.04c.55-.08,1.13-.15,1.69-.24.14,0,.26.08.28.22v.03c0,.13-.09.23-.21.25-.74.1-1.36.19-1.98.28h-.04ZM142.35,318.26h-.04c-.63-.09-1.3-.19-1.97-.29-.14-.02-.23-.15-.21-.28.02-.14.15-.23.28-.21.63.09,1.3.19,1.97.29.12.01.22.12.22.24v.04c-.02.12-.13.21-.25.21ZM209.14,318.05c-.13,0-.24-.1-.25-.22-.02-.13.07-.26.21-.28.76-.12,1.38-.21,1.96-.3h0c.15-.02.27.07.29.2v.04c0,.12-.09.23-.21.25-.67.1-1.33.21-1.98.3,0,0-.02,0-.03,0ZM139.39,317.82h-.04c-.58-.09-1.23-.2-1.97-.32-.13-.02-.23-.15-.2-.28.02-.14.15-.23.29-.21.57.1,1.2.2,1.96.32.12.02.21.12.21.24v.04c-.02.12-.12.21-.25.21ZM212.1,317.58c-.12,0-.23-.09-.25-.21,0-.07,0-.14.05-.19s.09-.09.16-.1c.65-.1,1.31-.22,1.97-.33.14-.02.27.07.29.2v.04c0,.12-.08.23-.2.25-.71.13-1.4.24-1.98.34h-.04ZM136.44,317.34h-.04l-.56-.1c-.47-.08-.94-.17-1.41-.25-.14-.03-.22-.16-.2-.29.02-.14.15-.23.29-.2.64.11,1.3.23,1.96.34.12.02.21.13.21.25v.04c-.02.12-.13.21-.25.21ZM215.06,317.07c-.12,0-.23-.08-.25-.2,0-.07,0-.14.04-.19.04-.06.1-.09.16-.1.61-.11,1.3-.24,1.97-.37.14-.03.27.07.3.2v.05c0,.12-.09.22-.2.24-.58.11-1.2.23-1.98.37h-.04ZM133.5,316.81h-.05c-.54-.1-1.25-.24-1.96-.38-.14-.03-.23-.16-.2-.29.03-.14.16-.23.3-.2.57.11,1.25.25,1.95.38.12.02.2.12.21.24,0,0,0,.03-.01.05-.02.12-.12.2-.24.2ZM218.02,316.52c-.12,0-.23-.09-.25-.2-.03-.14.06-.27.2-.3.78-.15,1.39-.27,1.97-.39.13-.03.26.06.29.19v.05c0,.12-.08.23-.19.25-.71.14-1.35.27-1.98.39,0,0-.02,0-.04,0ZM130.56,316.24s-.03,0-.05-.01c-.69-.14-1.33-.27-1.96-.4-.06-.02-.12-.06-.15-.11-.04-.06-.05-.12-.04-.19.03-.13.17-.22.3-.19.69.15,1.33.28,1.95.4.12.03.2.13.2.25,0,0,0,.03-.01.05-.02.12-.12.2-.24.2ZM220.97,315.92c-.12,0-.22-.08-.25-.2,0-.06,0-.13.04-.19.03-.05.09-.09.15-.11.73-.15,1.37-.29,1.96-.42h.02c.12-.03.25.06.28.19,0,.01,0,.03,0,.05,0,.11-.08.21-.19.24,0,.01-.01.01-.01.01h-.03c-.74.17-1.35.3-1.93.42-.02,0-.04,0-.05,0ZM127.63,315.62s-.04,0-.05-.01c-.58-.12-1.2-.26-1.96-.43-.13-.03-.21-.17-.18-.3.03-.14.16-.23.3-.19.67.16,1.35.31,1.94.44.12.02.2.13.2.24,0,.02,0,.04-.01.05-.02.12-.12.2-.24.2ZM223.91,315.27c-.12,0-.22-.08-.25-.19-.01-.07,0-.13.03-.19.04-.06.09-.1.16-.11.61-.14,1.25-.29,1.95-.46.13-.03.27.06.3.19,0,0,0,.03,0,.05,0,.12-.08.22-.2.25-.6.14-1.24.29-1.95.46h-.05ZM124.71,314.96s-.04,0-.06,0c-.68-.16-1.31-.31-1.94-.47-.07-.02-.12-.06-.16-.12-.03-.05-.04-.12-.02-.18.03-.13.16-.22.3-.18.75.18,1.37.33,1.94.46.11.03.19.13.19.24,0,.02,0,.04-.01.06-.02.12-.13.2-.24.2ZM226.83,314.58c-.11,0-.21-.08-.24-.19-.03-.13.05-.27.18-.3.62-.15,1.29-.32,1.94-.49.14-.04.27.05.31.18v.06c0,.11-.08.22-.18.24-.65.17-1.31.34-1.95.49-.02.01-.04.01-.06.01ZM121.8,314.24h-.06s0-.01-.02-.01c-.65-.16-1.3-.33-1.92-.5-.06,0-.12-.05-.15-.11s-.04-.13-.03-.19c.04-.13.18-.22.31-.18.59.16,1.22.32,1.93.5.11.03.19.13.19.24,0,.02,0,.04,0,.06-.03.12-.13.19-.24.19ZM229.75,313.84c-.12,0-.22-.08-.25-.19-.03-.13.05-.27.18-.3.66-.18,1.31-.35,1.93-.52.13-.04.27.04.31.17,0,.02,0,.04,0,.06,0,.12-.07.22-.18.25-.62.17-1.25.34-1.94.52-.03,0-.05,0-.06,0ZM118.9,313.48h-.06s-.02,0-.02,0c-.53-.14-1.22-.33-1.91-.53-.14-.04-.21-.18-.18-.31.04-.13.18-.21.31-.17.59.17,1.22.34,1.93.53.11.03.18.13.18.25,0,.02,0,.04-.01.06-.03.11-.13.18-.24.18ZM232.65,313.05c-.12,0-.22-.08-.25-.18-.03-.14.04-.27.18-.31.65-.19,1.3-.37,1.92-.56.13-.03.27.05.31.17,0,.03,0,.05,0,.08,0,.11-.07.2-.18.23-.7.21-1.4.41-1.93.56-.02,0-.04,0-.06,0ZM116.02,312.67s-.05,0-.07,0c-.63-.18-1.25-.36-1.92-.57-.07-.02-.12-.06-.15-.12-.03-.06-.04-.13-.02-.19.04-.13.18-.21.31-.17.59.18,1.21.37,1.92.57.1.03.17.13.17.24.01.02,0,.05,0,.07-.03.11-.12.18-.23.18ZM235.53,312.21c-.11,0-.21-.08-.24-.18-.02-.06,0-.13.02-.19.03-.06.08-.1.15-.12.59-.18,1.21-.37,1.9-.59h.01c.13-.04.27.03.31.16,0,.03,0,.05,0,.08,0,.11-.06.2-.16.23,0,0-.01,0-.01,0h-.02c-.52.17-1.21.38-1.9.59-.02,0-.05,0-.07,0ZM113.14,311.81s-.05,0-.07,0c-.65-.2-1.32-.42-1.91-.61-.13-.04-.2-.18-.16-.31s.18-.21.32-.16c.64.21,1.28.41,1.9.6.1.03.17.13.17.24,0,.02,0,.05,0,.07-.03.11-.13.18-.24.18ZM238.4,311.32c-.11,0-.21-.07-.24-.18-.02-.06-.02-.13,0-.19.03-.06.09-.1.15-.12.77-.25,1.35-.44,1.9-.62.13-.05.27.02.32.15,0,.03,0,.05,0,.08,0,.1-.06.2-.16.24h0s-.02,0-.03,0c-.56.19-1.16.38-1.88.61-.02,0-.05.02-.07.02ZM110.29,310.89s-.06,0-.08,0c-.65-.21-1.29-.43-1.9-.64-.06-.02-.11-.07-.14-.13-.03-.06-.03-.12-.01-.19.04-.12.19-.2.32-.15.73.25,1.33.45,1.88.63t0,.01c.1.03.17.13.17.24,0,.02-.01.05-.01.07-.04.1-.13.17-.24.17ZM241.25,310.37c-.11,0-.21-.07-.24-.17-.02-.06-.02-.13,0-.19.03-.06.08-.1.15-.12.64-.23,1.28-.45,1.88-.66.13-.05.28.02.32.15,0,.03.02.06.02.08,0,.11-.07.2-.17.24-.61.22-1.25.44-1.89.66-.03.01-.06.01-.08.01ZM107.45,309.93s-.06,0-.08-.02c-.64-.22-1.27-.45-1.89-.68-.13-.04-.19-.19-.15-.32.05-.12.2-.19.32-.14.69.25,1.3.47,1.88.67.1.03.17.13.17.23,0,.03,0,.06-.02.09-.03.1-.13.17-.23.17ZM244.08,309.37c-.11,0-.2-.06-.24-.16-.02-.06-.02-.13,0-.19.03-.06.08-.11.14-.13.7-.26,1.31-.48,1.88-.7.12-.04.27.02.32.15.01.03.01.06.01.08,0,.1-.06.2-.15.24h0s-.02,0-.03,0c-.63.24-1.26.47-1.85.69-.02.01-.05.01-.08.01ZM104.63,308.9s-.06,0-.09,0c-.57-.21-1.18-.45-1.87-.72-.06-.02-.11-.07-.14-.13-.03-.06-.03-.13,0-.19.05-.12.2-.19.32-.14.56.22,1.17.45,1.87.71.09.04.16.13.16.24,0,.02,0,.05-.02.08-.03.1-.13.16-.23.16ZM246.89,308.32c-.1,0-.2-.06-.23-.16-.03-.06-.03-.13,0-.19.03-.06.08-.11.14-.13.63-.25,1.26-.49,1.86-.74.12-.05.27.02.32.14.01.03.02.07.02.1,0,.1-.06.19-.16.23-.64.26-1.27.5-1.86.73-.03,0-.06.02-.09.02ZM101.83,307.82s-.06,0-.09,0c-.66-.26-1.31-.53-1.86-.75-.06-.03-.11-.08-.14-.14-.02-.06-.02-.13.01-.19.04-.12.2-.19.32-.13.59.24,1.22.49,1.85.74.1.04.16.14.16.24,0,.03,0,.06-.02.09-.04.09-.13.15-.23.15ZM249.68,307.21c-.11,0-.2-.06-.24-.16-.02-.06-.02-.13.01-.19.02-.06.07-.11.13-.13.59-.24,1.19-.5,1.84-.77h0c.12-.06.27,0,.32.13.02.03.02.06.02.1,0,.1-.06.19-.15.23-.61.26-1.23.52-1.85.77-.03.01-.06.02-.09.02ZM99.05,306.69s-.06,0-.09-.02c-.64-.27-1.26-.53-1.85-.79-.06-.03-.1-.08-.13-.14-.02-.06-.02-.13,0-.19.05-.12.2-.18.33-.13.63.28,1.25.55,1.83.79,0,0,0,0,0,0,.09.04.14.12.14.22,0,.03,0,.07-.02.1-.04.09-.13.15-.23.15ZM252.44,306.04c-.1,0-.19-.06-.23-.15-.05-.12,0-.27.13-.33.65-.28,1.25-.54,1.83-.81.12-.05.27,0,.33.13,0,.03.02.07.02.1,0,.09-.05.18-.14.23h0s-.01,0-.02,0c-.63.29-1.23.55-1.81.8-.03.01-.06.02-.1.02ZM96.3,305.5s-.07,0-.1-.02c-.66-.3-1.26-.57-1.82-.83-.06-.03-.11-.08-.13-.14-.03-.07-.02-.13,0-.19.06-.13.21-.18.34-.13.53.25,1.1.51,1.81.83h0c.1.04.15.13.15.23,0,.04,0,.07-.02.1-.04.09-.13.15-.23.15ZM255.18,304.82c-.1,0-.19-.06-.23-.15-.03-.06-.03-.13-.01-.19.03-.06.07-.11.13-.14.64-.29,1.27-.59,1.81-.85.12-.06.27,0,.33.12.02.03.03.07.03.11,0,.09-.06.18-.14.22-.62.3-1.23.58-1.82.85-.03.02-.07.03-.1.03ZM93.57,304.25s-.06,0-.09-.02c-.01,0-.01,0-.01,0,0,0-.02,0-.03,0-.64-.3-1.22-.58-1.78-.86-.12-.06-.17-.21-.11-.33s.21-.18.33-.12c.55.27,1.13.55,1.8.87t.01.01c.08.04.13.12.13.21,0,.04,0,.08-.02.11-.04.09-.13.15-.23.15ZM257.89,303.53c-.1,0-.19-.05-.23-.14-.06-.12,0-.27.12-.33.61-.3,1.21-.6,1.79-.89.12-.06.27,0,.33.11.02.03.03.07.03.11,0,.09-.05.18-.14.23-.61.31-1.21.61-1.79.89-.03,0-.07.02-.11.02ZM90.88,302.93s-.08,0-.11-.02c-.65-.33-1.24-.63-1.79-.91-.06-.03-.1-.09-.12-.15-.02-.06-.02-.13.02-.19.06-.12.21-.17.33-.11.59.31,1.18.61,1.78.91h.01c.08.05.13.14.13.23,0,.04-.01.07-.03.11-.04.08-.13.13-.22.13ZM260.57,302.19c-.09,0-.18-.05-.22-.14-.06-.12-.02-.27.11-.33.64-.34,1.22-.64,1.76-.94.12-.06.28-.01.34.11.02.03.03.07.03.12,0,.09-.05.17-.13.22-.51.27-1.06.56-1.77.93-.04.02-.08.03-.12.03ZM88.21,301.56s-.08,0-.12-.03c-.52-.28-1.08-.58-1.76-.95-.06-.03-.1-.08-.12-.15-.02-.06-.01-.13.02-.19.07-.11.22-.16.34-.1.6.33,1.19.65,1.76.95.08.04.13.13.13.22,0,.04-.01.08-.03.12-.04.08-.13.13-.22.13ZM263.22,300.78c-.09,0-.18-.05-.22-.13-.06-.12-.02-.27.1-.34.65-.36,1.22-.67,1.74-.97h0c.12-.07.27-.02.34.09.02.04.03.08.03.12,0,.09-.05.18-.13.22-.51.29-1.06.6-1.75.98-.04.02-.08.03-.12.03ZM85.58,300.13s-.08,0-.12-.04c-.65-.36-1.22-.68-1.74-.99-.12-.07-.16-.22-.09-.34.06-.11.22-.16.34-.09.64.37,1.2.69,1.73.99.08.04.13.13.13.22,0,.04,0,.08-.03.12-.05.08-.13.13-.22.13ZM265.84,299.31c-.09,0-.17-.05-.22-.12-.03-.06-.04-.13-.03-.19.02-.07.06-.12.12-.16.55-.32,1.12-.65,1.72-1.01.12-.07.28-.03.35.09.02.03.03.08.03.13,0,.08-.05.16-.12.21-.63.38-1.2.71-1.73,1.02-.04.02-.08.03-.12.03ZM82.98,298.63s-.09,0-.13-.03c-.64-.39-1.2-.72-1.71-1.04-.12-.07-.15-.23-.08-.34.07-.12.23-.16.34-.09.54.33,1.09.67,1.71,1.03.07.05.12.13.12.22,0,.04-.01.09-.03.13-.05.07-.13.12-.22.12ZM268.42,297.77c-.09,0-.17-.04-.22-.11-.07-.12-.03-.28.08-.35.54-.32,1.09-.67,1.7-1.05.11-.08.27-.04.35.07.02.04.03.09.03.13.01.09-.04.17-.11.22-.6.38-1.16.72-1.7,1.06-.04.02-.09.03-.13.03ZM80.42,297.07s-.09,0-.13-.04c-.51-.32-1.1-.69-1.69-1.08-.05-.03-.09-.09-.1-.16-.02-.06-.01-.13.03-.18.07-.11.23-.15.35-.07.51.33,1.06.68,1.68,1.07.07.05.11.13.11.21,0,.05-.01.09-.04.13-.04.08-.12.12-.21.12ZM270.96,296.18c-.09,0-.17-.04-.21-.12-.04-.05-.05-.12-.04-.19.02-.06.06-.12.11-.15.54-.35,1.09-.71,1.67-1.1.11-.08.27-.04.35.07.02.04.04.09.04.14,0,.08-.04.16-.11.2-.57.38-1.13.75-1.68,1.11-.04.02-.09.04-.13.04ZM77.9,295.45s-.09-.02-.13-.04c-.59-.39-1.17-.79-1.66-1.12-.11-.08-.14-.24-.07-.35.08-.11.24-.14.35-.07.52.36,1.05.72,1.65,1.12.07.04.11.12.12.2,0,.05-.02.1-.04.14-.05.08-.13.12-.22.12ZM273.46,294.52c-.09,0-.16-.04-.21-.11-.08-.12-.05-.27.06-.35.54-.37,1.09-.75,1.64-1.14.11-.08.27-.05.35.06.03.04.05.08.05.13,0,.08-.04.16-.1.21h0s-.02.01-.02.02c-.61.43-1.14.8-1.63,1.13-.04.03-.09.05-.14.05ZM75.43,293.76s-.1-.02-.14-.04c-.56-.4-1.11-.79-1.63-1.17-.11-.08-.14-.24-.06-.35.08-.1.25-.13.35-.05.58.41,1.11.79,1.63,1.15h0c.07.06.1.14.1.22,0,.04-.02.09-.04.13-.05.07-.13.11-.21.11ZM275.91,292.79c-.08,0-.15-.04-.2-.11-.04-.05-.06-.12-.04-.18,0-.07.04-.13.1-.16.62-.46,1.13-.83,1.6-1.19h0c.1-.08.27-.05.34.05.04.04.05.1.05.15,0,.08-.03.15-.09.2-.64.47-1.15.85-1.62,1.19-.04.03-.09.05-.15.05ZM73,292.01c-.05,0-.1-.02-.15-.05-.47-.35-.98-.74-1.59-1.2-.11-.09-.13-.24-.05-.35.08-.11.25-.14.36-.05.63.49,1.12.86,1.58,1.2.07.05.1.12.1.2,0,.05-.01.11-.04.15-.05.06-.13.1-.21.1ZM278.32,290.99c-.07,0-.15-.03-.2-.1-.04-.05-.06-.11-.05-.18.01-.06.05-.12.1-.16.6-.46,1.1-.85,1.57-1.23h0c.11-.09.28-.07.36.04.03.04.05.1.05.16,0,.07-.03.14-.09.19-.5.39-1.02.8-1.59,1.23-.04.04-.09.05-.15.05ZM70.63,290.2c-.06,0-.11-.02-.16-.06-.48-.37-.99-.78-1.56-1.24-.05-.05-.08-.11-.09-.17,0-.07,0-.14.06-.19.08-.1.24-.12.35-.03.49.4,1,.8,1.55,1.24,0,0,.01,0,.01,0,.05.04.09.12.09.19,0,.06-.02.11-.06.15-.04.06-.12.1-.19.1ZM280.68,289.13c-.07,0-.14-.03-.19-.09-.04-.05-.06-.12-.06-.18,0-.07.04-.13.09-.17.56-.45,1.07-.87,1.55-1.27h0c.1-.09.27-.07.35.03.04.04.06.1.06.16,0,.07-.03.14-.09.19-.54.45-1.05.87-1.55,1.28-.05.04-.1.05-.16.05ZM68.3,288.32c-.06,0-.12-.02-.16-.06h0c-.55-.47-1.05-.89-1.51-1.29-.06-.04-.09-.11-.09-.17,0-.07.02-.13.06-.18.09-.1.25-.12.35-.03.54.46,1.04.88,1.52,1.28t0,0c.05.05.08.12.08.19,0,.06-.02.11-.06.16-.05.06-.12.09-.19.09ZM282.99,287.21c-.07,0-.14-.03-.19-.09-.09-.1-.08-.26.03-.35.48-.41.98-.85,1.5-1.31h0c.1-.1.27-.09.36,0,.04.05.06.11.06.17,0,.07-.03.14-.08.19-.54.47-1.03.91-1.51,1.32-.05.04-.11.06-.17.06ZM66.02,286.37c-.06,0-.11-.02-.16-.06-.5-.44-1-.89-1.49-1.34-.05-.04-.08-.1-.08-.17-.01-.07.02-.13.06-.18.09-.1.26-.1.36-.02.52.48,1,.92,1.48,1.34h0c.05.05.08.12.07.19,0,.06-.02.12-.06.16-.05.05-.11.08-.19.08ZM285.25,285.22c-.07,0-.14-.03-.19-.08-.04-.05-.07-.12-.06-.19,0-.06.03-.12.08-.17.53-.48,1.01-.93,1.47-1.36.09-.09.26-.09.35,0,.05.05.07.12.07.18,0,.07-.03.13-.08.18-.53.49-1.01.94-1.47,1.36-.05.04-.11.07-.17.07ZM63.8,284.36c-.06,0-.12-.02-.17-.06-.47-.44-.94-.89-1.45-1.38-.05-.05-.08-.11-.08-.18s.03-.13.07-.18c.09-.09.26-.1.36,0,.46.45.95.91,1.44,1.37.05.05.08.11.08.17,0,.07-.02.13-.07.18-.04.05-.11.08-.18.08ZM287.44,283.16c-.06,0-.13-.03-.17-.07-.05-.05-.08-.12-.08-.18,0-.07.03-.13.08-.18.48-.46.96-.93,1.42-1.4.1-.09.26-.09.36,0,.05.05.07.11.07.18s-.02.13-.07.18c-.43.42-.89.88-1.43,1.4-.05.05-.11.07-.18.07ZM61.64,282.29c-.07,0-.13-.03-.18-.07-.47-.47-.95-.95-1.41-1.43-.05-.04-.07-.11-.07-.18,0-.06.02-.12.07-.17.1-.09.26-.09.36,0,.44.47.92.94,1.4,1.41h0c.05.06.08.12.08.19,0,.06-.03.13-.08.17-.04.05-.11.08-.17.08ZM289.57,281.05c-.06,0-.12-.03-.17-.07-.05-.05-.08-.11-.08-.18,0-.06.03-.13.08-.17.5-.52.95-.99,1.38-1.44.09-.1.25-.11.35,0,.05.04.08.1.08.17s-.02.13-.07.18c-.44.46-.89.94-1.39,1.44-.04.05-.11.08-.18.08ZM59.53,280.15c-.07,0-.13-.03-.18-.08-.53-.56-.97-1.02-1.37-1.46-.09-.1-.08-.26.02-.35.1-.09.26-.09.35,0,.46.5.92.99,1.36,1.46.05.04.07.11.07.17,0,.07-.03.13-.07.18-.05.04-.11.07-.18.07ZM291.64,278.88c-.06,0-.12-.03-.17-.07s-.08-.11-.08-.17c0-.07.02-.13.07-.18.44-.49.89-.99,1.34-1.48.09-.1.25-.11.35-.02.05.04.08.11.08.18,0,.06-.02.12-.05.16,0,0,0,0,0,0l-.02.02c-.45.51-.9,1-1.32,1.47-.05.05-.12.08-.19.08ZM57.5,277.95c-.07,0-.14-.03-.19-.08-.5-.55-.93-1.04-1.33-1.5-.04-.05-.06-.11-.06-.18,0-.07.04-.13.09-.17.1-.09.26-.08.35.02.45.52.9,1.03,1.32,1.5.04.04.06.1.06.16,0,.07-.03.14-.08.19-.04.04-.1.06-.16.06ZM293.64,276.64c-.06,0-.12-.02-.16-.06-.05-.04-.08-.11-.09-.17,0-.07.02-.13.06-.18.46-.53.89-1.02,1.3-1.52h0c.08-.1.24-.11.34-.03.1.09.12.25.03.35-.44.53-.88,1.05-1.3,1.53-.05.05-.12.08-.19.08ZM55.52,275.7c-.07,0-.14-.04-.19-.09-.13-.16-.27-.32-.4-.48l-.08-.1c-.05-.05-.07-.11-.06-.18,0-.07.04-.13.09-.17.1-.08.26-.07.35.03.16.19.32.39.48.58.04.04.06.1.06.15,0,.08-.03.15-.09.2-.04.04-.1.06-.16.06Z"/>
    <path class="st0" d="M179.94,193.99c-.13,0-.25-.11-.25-.25v-2c0-.14.12-.25.25-.25.14,0,.25.11.25.25v2c0,.14-.11.25-.25.25ZM179.94,190.99c-.13,0-.25-.11-.25-.25v-2c0-.14.12-.25.25-.25.14,0,.25.11.25.25v2c0,.14-.11.25-.25.25ZM179.94,187.99c-.13,0-.25-.11-.25-.25v-2c0-.14.12-.25.25-.25.14,0,.25.11.25.25v2c0,.14-.11.25-.25.25ZM179.94,184.99c-.13,0-.25-.11-.25-.25v-2c0-.14.12-.25.25-.25.14,0,.25.11.25.25v2c0,.14-.11.25-.25.25ZM179.94,181.99c-.13,0-.25-.11-.25-.25v-2c0-.14.12-.25.25-.25.14,0,.25.11.25.25v2c0,.14-.11.25-.25.25ZM179.94,178.99c-.13,0-.25-.11-.25-.25v-2c0-.14.12-.25.25-.25.14,0,.25.11.25.25v2c0,.14-.11.25-.25.25ZM179.94,175.99c-.13,0-.25-.11-.25-.25v-2c0-.14.12-.25.25-.25.14,0,.25.11.25.25v2c0,.14-.11.25-.25.25ZM179.94,172.99c-.13,0-.25-.11-.25-.25v-2c0-.14.12-.25.25-.25.14,0,.25.11.25.25v2c0,.14-.11.25-.25.25ZM179.94,169.99c-.13,0-.25-.11-.25-.25v-2c0-.14.12-.25.25-.25.14,0,.25.11.25.25v2c0,.14-.11.25-.25.25ZM179.94,166.99c-.13,0-.25-.11-.25-.25v-2c0-.14.12-.25.25-.25.14,0,.25.11.25.25v2c0,.14-.11.25-.25.25ZM179.94,163.99c-.13,0-.25-.11-.25-.25v-2c0-.14.12-.25.25-.25.14,0,.25.11.25.25v2c0,.14-.11.25-.25.25ZM179.94,160.99c-.13,0-.25-.11-.25-.25v-2c0-.14.12-.25.25-.25.14,0,.25.11.25.25v2c0,.14-.11.25-.25.25ZM179.94,157.99c-.13,0-.25-.11-.25-.25v-2c0-.14.12-.25.25-.25.14,0,.25.11.25.25v2c0,.14-.11.25-.25.25ZM179.94,154.99c-.13,0-.25-.11-.25-.25v-2c0-.14.12-.25.25-.25.14,0,.25.11.25.25v2c0,.14-.11.25-.25.25ZM179.94,151.99c-.13,0-.25-.11-.25-.25v-2c0-.14.12-.25.25-.25.14,0,.25.11.25.25v2c0,.14-.11.25-.25.25ZM179.94,148.99c-.13,0-.25-.11-.25-.25v-2c0-.14.12-.25.25-.25.14,0,.25.11.25.25v2c0,.14-.11.25-.25.25ZM179.94,145.99c-.13,0-.25-.11-.25-.25v-2c0-.14.12-.25.25-.25.14,0,.25.11.25.25v2c0,.14-.11.25-.25.25ZM179.94,142.99c-.13,0-.25-.11-.25-.25v-2c0-.14.12-.25.25-.25.14,0,.25.11.25.25v2c0,.14-.11.25-.25.25ZM179.94,139.99c-.13,0-.25-.11-.25-.25v-2c0-.14.12-.25.25-.25.14,0,.25.11.25.25v2c0,.14-.11.25-.25.25ZM179.94,136.99c-.13,0-.25-.11-.25-.25v-2c0-.14.12-.25.25-.25.14,0,.25.11.25.25v2c0,.14-.11.25-.25.25ZM179.94,133.99c-.13,0-.25-.11-.25-.25v-2c0-.14.12-.25.25-.25.14,0,.25.11.25.25v2c0,.14-.11.25-.25.25ZM179.94,130.99c-.13,0-.25-.11-.25-.25v-2c0-.14.12-.25.25-.25.14,0,.25.11.25.25v2c0,.14-.11.25-.25.25ZM179.94,127.99c-.13,0-.25-.11-.25-.25v-2c0-.14.12-.25.25-.25.14,0,.25.11.25.25v2c0,.14-.11.25-.25.25ZM179.94,124.99c-.13,0-.25-.11-.25-.25v-2c0-.14.12-.25.25-.25.14,0,.25.11.25.25v2c0,.14-.11.25-.25.25ZM179.94,121.99c-.13,0-.25-.11-.25-.25v-2c0-.14.12-.25.25-.25.14,0,.25.11.25.25v2c0,.14-.11.25-.25.25ZM179.94,118.99c-.13,0-.25-.11-.25-.25v-2c0-.14.12-.25.25-.25.14,0,.25.11.25.25v2c0,.14-.11.25-.25.25ZM179.94,115.99c-.13,0-.25-.11-.25-.25v-2c0-.14.12-.25.25-.25.14,0,.25.11.25.25v2c0,.14-.11.25-.25.25ZM179.94,112.99c-.13,0-.25-.11-.25-.25v-2c0-.14.12-.25.25-.25.14,0,.25.11.25.25v2c0,.14-.11.25-.25.25ZM179.94,109.99c-.13,0-.25-.11-.25-.25v-2c0-.14.12-.25.25-.25.14,0,.25.11.25.25v2c0,.14-.11.25-.25.25ZM179.94,106.99c-.13,0-.25-.11-.25-.25v-2c0-.14.12-.25.25-.25.14,0,.25.11.25.25v2c0,.14-.11.25-.25.25ZM179.94,103.99c-.13,0-.25-.11-.25-.25v-2c0-.14.12-.25.25-.25.14,0,.25.11.25.25v2c0,.14-.11.25-.25.25ZM179.94,100.99c-.13,0-.25-.11-.25-.25v-2c0-.14.12-.25.25-.25.14,0,.25.11.25.25v2c0,.14-.11.25-.25.25ZM179.94,97.99c-.13,0-.25-.11-.25-.25v-2c0-.14.12-.25.25-.25.14,0,.25.11.25.25v2c0,.14-.11.25-.25.25ZM179.94,94.99c-.13,0-.25-.11-.25-.25v-2c0-.14.12-.25.25-.25.14,0,.25.11.25.25v2c0,.14-.11.25-.25.25ZM179.94,91.99c-.13,0-.25-.11-.25-.25v-2c0-.14.12-.25.25-.25.14,0,.25.11.25.25v2c0,.14-.11.25-.25.25ZM179.94,88.99c-.13,0-.25-.11-.25-.25v-2c0-.14.12-.25.25-.25.14,0,.25.11.25.25v2c0,.14-.11.25-.25.25ZM179.94,85.99c-.13,0-.25-.11-.25-.25v-2c0-.14.12-.25.25-.25.14,0,.25.11.25.25v2c0,.14-.11.25-.25.25ZM179.94,82.99c-.13,0-.25-.11-.25-.25v-2c0-.14.12-.25.25-.25.14,0,.25.11.25.25v2c0,.14-.11.25-.25.25ZM179.94,79.99c-.13,0-.25-.11-.25-.25v-2c0-.14.12-.25.25-.25.14,0,.25.11.25.25v2c0,.14-.11.25-.25.25ZM179.94,76.99c-.13,0-.25-.11-.25-.25v-2c0-.14.12-.25.25-.25.14,0,.25.11.25.25v2c0,.14-.11.25-.25.25ZM179.94,73.99c-.13,0-.25-.11-.25-.25v-2c0-.14.12-.25.25-.25.14,0,.25.11.25.25v2c0,.14-.11.25-.25.25ZM179.94,70.99c-.13,0-.25-.11-.25-.25v-2c0-.14.12-.25.25-.25.14,0,.25.11.25.25v2c0,.14-.11.25-.25.25ZM179.94,67.99c-.13,0-.25-.11-.25-.25v-2c0-.14.12-.25.25-.25.14,0,.25.11.25.25v2c0,.14-.11.25-.25.25ZM179.94,64.99c-.13,0-.25-.11-.25-.25v-2c0-.14.12-.25.25-.25.14,0,.25.11.25.25v2c0,.14-.11.25-.25.25ZM179.94,61.99c-.13,0-.25-.11-.25-.25v-2c0-.14.12-.25.25-.25.14,0,.25.11.25.25v2c0,.14-.11.25-.25.25ZM179.94,58.99c-.13,0-.25-.11-.25-.25v-2c0-.14.12-.25.25-.25.14,0,.25.11.25.25v2c0,.14-.11.25-.25.25ZM179.94,55.99c-.13,0-.25-.11-.25-.25v-2c0-.14.12-.25.25-.25.14,0,.25.11.25.25v2c0,.14-.11.25-.25.25ZM179.94,52.99c-.13,0-.25-.11-.25-.25v-2c0-.14.12-.25.25-.25.14,0,.25.11.25.25v2c0,.14-.11.25-.25.25ZM179.94,49.99c-.13,0-.25-.11-.25-.25v-2c0-.14.12-.25.25-.25.14,0,.25.11.25.25v2c0,.14-.11.25-.25.25ZM179.94,46.99c-.13,0-.25-.11-.25-.25v-2c0-.14.12-.25.25-.25.14,0,.25.11.25.25v2c0,.14-.11.25-.25.25ZM179.94,43.99c-.13,0-.25-.11-.25-.25v-2c0-.14.12-.25.25-.25.14,0,.25.11.25.25v2c0,.14-.11.25-.25.25ZM179.94,40.99c-.13,0-.25-.11-.25-.25v-2c0-.14.12-.25.25-.25.14,0,.25.11.25.25v2c0,.14-.11.25-.25.25ZM179.94,37.99c-.13,0-.25-.11-.25-.25v-2c0-.14.12-.25.25-.25.14,0,.25.11.25.25v2c0,.14-.11.25-.25.25ZM179.94,34.99c-.13,0-.25-.11-.25-.25v-2c0-.14.12-.25.25-.25.14,0,.25.11.25.25v2c0,.14-.11.25-.25.25ZM179.94,31.99c-.13,0-.25-.11-.25-.25v-2c0-.14.12-.25.25-.25.14,0,.25.11.25.25v2c0,.14-.11.25-.25.25Z"/>
    <path class="st0" d="M217.2,180.56h-.84c-.14,0-.25-.11-.25-.25s.11-.25.25-.25h2c.14,0,.25.11.25.24,0,.14-.11.25-.24.26h-1.17ZM133.37,180.56h0c-.14,0-.25-.11-.26-.25,0-.14.12-.25.25-.25.71,0,1.38,0,2-.02.14,0,.25.11.25.25s-.11.25-.24.25c-.63,0-1.28.02-2,.02ZM132.36,180.56h0c-.69,0-1.37,0-2-.03-.14-.01-.25-.12-.24-.26,0-.13.12-.26.25-.24.63.02,1.3.03,1.99.03.14,0,.25.12.25.25,0,.14-.11.25-.25.25ZM215.36,180.55h0c-.69,0-1.36-.02-2-.03-.07,0-.13-.03-.17-.08-.05-.05-.07-.11-.07-.18,0-.13.11-.24.25-.24h0c.57.01,1.18.02,2,.03h0c.06,0,.12.03.17.08s.07.11.07.18c0,.13-.11.24-.25.24ZM219.37,180.54h-.01c-.13,0-.25-.11-.25-.25,0-.06.02-.13.07-.18.05-.05.11-.07.18-.07.62-.02,1.27-.04,1.98-.08h.02c.13,0,.24.1.25.24h0c0,.14-.11.25-.24.26-.6.03-1.26.06-2,.08ZM136.37,180.52h0c-.13,0-.24-.1-.25-.24,0-.14.1-.25.24-.26.62,0,1.27-.03,2-.06.11,0,.25.1.26.24h0c0,.15-.11.25-.24.26-.54.02-1.25.05-2,.06ZM129.36,180.5s-.02,0-.04,0c-.68-.03-1.34-.06-1.96-.11-.14,0-.24-.12-.23-.26,0-.14.13-.23.26-.23.72.05,1.37.08,1.99.1h0c.13.02.23.12.23.25h0c0,.15-.1.25-.26.26ZM212.37,180.49h-.01c-.71-.03-1.38-.05-2-.09-.07,0-.13-.03-.17-.08-.05-.05-.07-.11-.07-.18,0-.14.13-.23.27-.24.75.04,1.38.07,1.99.09.06,0,.12.03.17.07.05.05.07.12.07.19-.01.13-.12.24-.25.24ZM139.36,180.42c-.14,0-.25-.11-.25-.24-.01-.07.02-.13.06-.18s.11-.08.17-.08c.69-.04,1.36-.08,1.99-.12h.02c.13,0,.24.1.25.23v.02c0,.13-.1.24-.23.25-.66.04-1.33.08-2,.12h0ZM222.37,180.4h-.02c-.13,0-.24-.1-.25-.23,0-.07.02-.13.06-.18.05-.05.11-.08.18-.09.63-.04,1.27-.09,1.98-.16.13-.01.26.09.27.23v.02c0,.13-.1.24-.22.25-.59.06-1.23.11-2,.16h0ZM209.38,180.35h-.02c-.66-.04-1.33-.09-2-.14-.14-.02-.24-.14-.22-.28,0-.13.13-.24.27-.22.67.05,1.32.1,1.98.14.13,0,.24.12.24.25h0c0,.14-.12.25-.25.25ZM126.38,180.31h-.02c-.65-.06-1.3-.12-2-.2-.13-.02-.23-.14-.22-.28.02-.14.14-.23.28-.22.62.08,1.29.14,1.98.2.14,0,.23.12.23.26h0c-.01.14-.12.24-.25.24ZM142.34,180.23c-.13,0-.23-.1-.25-.23,0-.07.02-.14.06-.19.05-.05.11-.08.17-.08.75-.06,1.4-.12,1.98-.19.14,0,.27.09.28.22v.03c0,.13-.09.23-.22.25h-.01c-.69.07-1.34.13-1.99.18h-.01s0,0,0,0ZM225.34,180.14c-.13,0-.24-.1-.25-.22-.02-.14.08-.26.22-.28.65-.07,1.29-.15,1.97-.25.17,0,.26.07.28.21,0,0,0,.02,0,.04,0,.12-.1.22-.22.24-.59.09-1.24.17-1.99.26h-.02ZM206.39,180.12h-.02s-.01,0-.01-.01c-.66-.06-1.31-.13-1.98-.21-.14-.02-.24-.14-.22-.28.02-.14.13-.23.28-.22.73.09,1.36.16,1.98.22h0c.12,0,.22.11.22.24v.02h0c0,.14-.12.24-.25.24ZM123.4,179.99s-.02,0-.03-.01c-.68-.08-1.35-.18-1.98-.29-.14-.03-.23-.15-.21-.29.03-.14.16-.23.29-.21.59.1,1.24.2,1.97.3.12.02.22.13.21.26v.02c-.02.13-.12.22-.25.22ZM145.32,179.93c-.12,0-.23-.1-.25-.22,0-.07,0-.14.06-.19.04-.05.1-.08.16-.09.69-.08,1.35-.17,1.97-.27.16-.02.27.08.29.21v.04c0,.12-.09.23-.21.25-.62.09-1.27.18-1.99.27h-.03ZM203.42,179.77s-.03,0-.04,0c-.65-.09-1.32-.19-1.98-.31-.06-.01-.12-.05-.16-.1s-.05-.12-.04-.18c.02-.14.15-.23.29-.21.6.11,1.24.21,1.96.31.12.02.22.12.22.24,0,.02,0,.03,0,.04-.01.12-.12.22-.24.22ZM228.3,179.73c-.12,0-.23-.09-.24-.21,0-.07,0-.13.04-.19.04-.05.1-.08.16-.1.62-.1,1.26-.21,1.96-.35h0c.12-.02.25.07.28.19,0,.02,0,.04,0,.06,0,.11-.09.22-.21.24-.66.13-1.33.25-1.97.36h-.04ZM120.45,179.52s-.03,0-.05,0h-.01c-.65-.12-1.31-.26-1.95-.4-.14-.04-.22-.17-.19-.3.03-.13.17-.22.3-.19.64.14,1.3.28,1.94.4.12.02.2.12.21.24,0,.02,0,.03,0,.05-.02.12-.12.21-.24.21ZM148.28,179.5c-.12,0-.22-.09-.24-.21-.01-.06,0-.13.04-.18.04-.06.1-.09.16-.11.64-.1,1.28-.22,1.96-.36.13-.03.26.06.29.19,0,.02.01.04.01.05,0,.12-.08.22-.2.25h0c-.64.13-1.3.26-1.96.37h-.05ZM200.46,179.28s-.03,0-.04-.01c-.73-.13-1.4-.28-1.96-.4-.07-.02-.12-.06-.16-.11-.04-.06-.05-.13-.03-.19.03-.13.16-.23.3-.19.66.15,1.3.28,1.94.4.12.03.2.13.21.25,0,0,0,.03,0,.05-.02.11-.13.2-.25.2ZM231.24,179.17c-.11,0-.22-.08-.24-.2-.02-.06,0-.13.03-.19.04-.05.09-.09.16-.11.63-.14,1.28-.29,1.93-.46.13-.03.27.05.31.18v.07c0,.11-.08.21-.18.24-.62.15-1.25.31-1.95.46-.02,0-.04,0-.06,0ZM47.51,179.01c-.07,0-.13-.02-.18-.07-.05-.05-.07-.12-.07-.18,0-.07.03-.13.08-.18.14-.14.34-.32.55-.5h0c.1-.1.27-.08.36.02.04.04.06.1.06.16,0,.07-.03.14-.09.19-.19.17-.37.33-.53.49-.05.05-.11.07-.18.07ZM302.47,179.01c-.06,0-.13-.02-.17-.07-.46-.44-.97-.87-1.5-1.27-.06-.04-.09-.1-.1-.17-.01-.06,0-.13.05-.18.08-.11.24-.13.35-.05.56.42,1.08.86,1.54,1.31.05.05.08.11.08.18s-.02.13-.07.18c-.05.05-.11.07-.18.07ZM151.22,178.93c-.12,0-.22-.08-.24-.2-.03-.13.05-.27.19-.3.64-.14,1.28-.29,1.94-.45.12-.03.26.05.3.18v.07c0,.1-.07.2-.17.23,0,0,0,0-.02,0h-.03c-.72.18-1.33.32-1.91.45-.02,0-.04,0-.06,0ZM117.52,178.89s-.03,0-.05,0h0s-.02,0-.03,0c-.63-.15-1.25-.31-1.91-.5-.06-.02-.12-.06-.15-.12-.03-.06-.04-.12-.02-.19.03-.12.18-.2.31-.17.62.18,1.27.34,1.92.5.11.03.19.13.19.24,0,.03,0,.05-.01.07-.03.11-.13.19-.24.19ZM197.54,178.65s-.04,0-.06,0c-.66-.16-1.3-.31-1.94-.48-.06-.01-.12-.05-.15-.11-.04-.06-.05-.13-.03-.19.04-.13.17-.21.3-.18.63.16,1.28.32,1.94.48h0c.11.03.19.12.19.23,0,.02,0,.04,0,.06-.02.12-.12.2-.24.2ZM234.15,178.45c-.11,0-.21-.08-.24-.18-.02-.07-.01-.14.02-.2.03-.05.09-.09.15-.11.61-.17,1.23-.35,1.91-.56h0c.09-.03.26.04.3.17,0,.02,0,.05,0,.07,0,.11-.06.2-.16.24h0s0,0-.02,0c-.63.19-1.27.38-1.91.55-.02.01-.04.01-.06.01ZM154.13,178.23c-.11,0-.21-.08-.24-.19-.03-.13.05-.27.18-.3.23-.06.45-.11.68-.17.42-.11.83-.21,1.26-.32.13-.03.27.05.3.18,0,.02,0,.04,0,.07,0,.11-.08.21-.19.24-.35.08-.7.17-1.05.26-.3.08-.59.15-.89.23h-.06ZM114.63,178.11s-.05,0-.07,0c-.61-.18-1.23-.37-1.91-.59-.07-.02-.12-.07-.15-.12-.03-.06-.04-.13-.01-.2.03-.13.17-.2.31-.16.67.22,1.29.41,1.9.59.1.03.18.12.18.23,0,.03,0,.05-.01.08-.03.1-.13.18-.24.18ZM194.64,177.93s-.04,0-.06,0c-.6-.15-1.27-.32-1.94-.48-.06,0-.12-.05-.15-.11-.04-.06-.05-.13-.03-.19.03-.13.17-.22.3-.19.66.16,1.32.33,1.94.48.11.03.19.13.19.25,0,.02,0,.04,0,.06-.03.11-.13.19-.24.19ZM48.83,177.87c-.08,0-.15-.03-.2-.09-.04-.06-.06-.12-.05-.19.01-.06.04-.12.1-.16.51-.4,1.07-.79,1.66-1.15.11-.07.28-.03.35.08.02.04.03.08.03.13,0,.08-.04.16-.11.21-.58.35-1.12.73-1.63,1.12-.04.04-.09.05-.15.05ZM237.02,177.59c-.11,0-.21-.07-.24-.17-.02-.06-.01-.13,0-.19.04-.06.09-.1.15-.12.58-.19,1.2-.39,1.89-.62.13-.05.28.02.32.15.01.03.01.05.01.08,0,.11-.06.2-.17.24-.65.22-1.27.42-1.9.62-.02,0-.05,0-.07,0ZM157.04,177.51c-.12,0-.22-.08-.25-.2-.03-.13.05-.27.19-.3.66-.16,1.29-.3,1.95-.44.13-.04.26.06.3.19v.05c0,.12-.08.22-.2.25-.59.12-1.21.26-1.94.44-.02,0-.04,0-.05,0ZM191.73,177.22h-.06c-.66-.15-1.3-.29-1.94-.41-.07,0-.13-.05-.16-.1-.04-.06-.05-.13-.04-.19.03-.13.16-.23.29-.2.67.13,1.31.26,1.96.41h0c.11.03.19.13.19.25,0,.01,0,.03,0,.05-.03.11-.13.19-.24.19ZM111.77,177.21s-.05,0-.08,0c-.63-.21-1.25-.42-1.89-.64-.13-.05-.2-.19-.15-.32.04-.13.18-.2.31-.16.68.24,1.3.45,1.89.64.11.04.18.13.17.24,0,.03,0,.05-.01.08-.03.1-.13.17-.24.17ZM300.13,177.14s-.09,0-.13-.04h-.02c-.52-.36-1.08-.7-1.68-1.02-.06-.03-.1-.09-.12-.15-.02-.06,0-.13.02-.19.07-.12.23-.16.34-.1.63.34,1.21.7,1.73,1.04.07.05.11.13.11.21,0,.05,0,.1-.04.14-.05.07-.12.11-.21.11ZM159.96,176.86c-.12,0-.23-.08-.25-.2-.01-.06,0-.13.04-.19.04-.05.09-.09.16-.1.63-.13,1.29-.24,1.97-.35.13-.02.27.07.29.21v.04c0,.12-.09.22-.21.24-.63.1-1.27.22-1.96.35h-.04ZM239.86,176.65c-.11,0-.2-.07-.24-.17-.02-.06-.02-.13,0-.19.03-.06.09-.1.15-.12.35-.13.7-.25,1.05-.37.28-.09.56-.19.84-.28.13-.05.27.02.31.15.01.03.02.06.02.09,0,.1-.07.19-.17.23-.63.22-1.26.43-1.89.65-.03,0-.05,0-.08,0ZM188.79,176.64h-.04c-.6-.11-1.25-.21-1.96-.31-.07-.01-.13-.04-.17-.1-.04-.05-.05-.11-.05-.18.02-.13.16-.24.29-.21.67.09,1.34.19,1.98.3.12.02.21.13.2.25v.04c-.02.12-.13.21-.25.21ZM162.91,176.37c-.13,0-.23-.09-.25-.22-.02-.13.08-.26.21-.28.63-.09,1.28-.17,1.99-.24.15-.02.26.08.28.22v.02c0,.13-.1.24-.23.25-.67.07-1.33.16-1.97.25h-.03ZM108.94,176.25s-.06,0-.09-.02l-.49-.17c-.46-.16-.92-.32-1.39-.47-.06-.03-.11-.07-.14-.13-.03-.06-.04-.13-.02-.19.04-.13.19-.2.32-.16.54.19,1.08.37,1.62.56l.27.09c.1.03.17.13.17.23,0,.03-.01.06-.02.09-.03.1-.13.17-.23.17ZM51.34,176.23c-.1,0-.18-.05-.22-.12-.07-.13-.03-.28.09-.35.57-.31,1.17-.62,1.8-.91.13-.05.28.01.34.13.01.03.02.07.02.11,0,.09-.06.18-.15.22-.6.28-1.2.58-1.76.89-.04.02-.08.03-.12.03ZM185.83,176.21h-.02c-.66-.08-1.33-.15-1.98-.21-.07,0-.13-.04-.18-.09-.04-.05-.06-.11-.05-.18,0-.13.11-.24.27-.23.69.07,1.36.14,1.99.21.13.02.22.12.22.25v.03c-.02.12-.12.22-.25.22ZM165.88,176.02c-.13,0-.24-.09-.25-.22,0-.07.02-.13.06-.18.04-.06.1-.09.17-.09.62-.06,1.28-.11,1.99-.16.14,0,.26.1.27.23l-.03.02h.03c0,.13-.1.24-.23.25-.66.04-1.33.09-1.98.15h-.03ZM182.85,175.92h-.02c-.63-.05-1.3-.09-1.98-.12-.07,0-.13-.04-.17-.09-.05-.05-.07-.11-.07-.18.01-.13.12-.23.25-.23h.01c.68.03,1.35.07,2,.12.13,0,.23.12.23.25h0v.02c0,.13-.12.23-.25.23ZM168.87,175.81c-.14,0-.24-.1-.25-.24,0-.06.02-.13.06-.18.04-.05.11-.08.17-.08.41-.02.8-.04,1.17-.06h.1c.24-.01.49-.02.74-.03h0c.14,0,.25.11.25.25h0c0,.14-.1.25-.24.25-.11.01-.23.01-.34.01-.16,0-.33.02-.49.02-.41.02-.79.04-1.16.06h-.01ZM179.86,175.75h0c-.59-.02-1.25-.04-1.99-.06-.14,0-.25-.12-.25-.25,0-.14.12-.25.25-.25.63,0,1.28.03,2.01.06.14,0,.24.11.24.25h0c0,.14-.11.25-.25.25ZM171.87,175.7h0c-.14,0-.25-.11-.26-.25,0-.06.03-.13.07-.18.05-.04.11-.07.18-.07.71-.02,1.36-.03,2-.03.14,0,.25.11.25.25s-.11.25-.24.25c-.75,0-1.46.02-2,.03ZM242.69,175.68c-.11,0-.2-.07-.24-.17-.02-.06-.01-.13.02-.19s.08-.11.14-.13c.73-.25,1.33-.45,1.89-.63h0c.13-.04.27.03.31.16.01.02.01.04.01.07,0,.11-.06.21-.17.24-.62.2-1.23.41-1.83.61l-.06.03s-.05,0-.08,0ZM176.86,175.67h0c-.61,0-1.27-.02-1.93-.01-.16.01-.32-.08-.32-.25,0-.13.11-.25.25-.25h.13c.58,0,1.19.01,1.87.01.14,0,.25.12.25.26,0,.13-.11.24-.25.24ZM297.53,175.65s-.07-.01-.1-.02c-.58-.29-1.19-.56-1.81-.82-.13-.05-.19-.19-.14-.32.05-.12.2-.19.33-.14.64.26,1.25.54,1.84.83.08.04.13.12.13.22,0,.04,0,.08-.02.11-.04.09-.13.14-.23.14ZM106.1,175.28s-.05,0-.07,0c-.63-.21-1.27-.42-1.9-.62-.06-.02-.12-.06-.15-.12-.03-.06-.03-.13-.01-.19.04-.13.18-.2.31-.16.7.22,1.32.42,1.9.61.11.04.17.13.17.24,0,.03,0,.05,0,.08-.03.1-.13.17-.24.17ZM54.04,174.93c-.11,0-.2-.06-.24-.15-.02-.07-.02-.13,0-.2.03-.06.08-.1.14-.13.6-.25,1.23-.49,1.88-.72.12-.04.27.03.32.15.01.03.01.06.01.09,0,.11-.07.2-.17.23-.64.23-1.26.47-1.85.71-.03.01-.06.02-.09.02ZM245.54,174.74c-.11,0-.21-.07-.24-.17-.05-.14.03-.28.16-.32.62-.2,1.27-.39,1.91-.58h0c.09-.04.27.04.31.17v.06c.01.11-.07.22-.18.25-.71.21-1.33.4-1.9.58-.02,0-.05,0-.07,0ZM294.78,174.47s-.06,0-.09-.02c-.62-.23-1.25-.44-1.88-.64-.13-.04-.2-.18-.16-.31.04-.13.19-.2.31-.16.65.2,1.29.42,1.91.65.1.03.16.13.16.23,0,.03,0,.06-.01.09-.04.1-.13.16-.24.16ZM103.25,174.37s-.05,0-.07,0c-.66-.2-1.28-.38-1.91-.55-.14-.04-.21-.17-.18-.31.04-.13.18-.21.31-.17.59.16,1.22.34,1.92.55.11.03.18.13.18.24,0,.02,0,.05-.01.07-.03.11-.13.18-.24.18ZM56.85,173.9c-.11,0-.21-.07-.24-.17-.02-.07-.01-.13.02-.19.03-.06.08-.11.14-.13.64-.2,1.28-.39,1.93-.56h0c.13-.04.28.04.31.17.01.02.01.05.01.07,0,.11-.08.21-.19.24-.67.18-1.31.37-1.9.56-.03.01-.05.01-.08.01ZM248.4,173.88c-.11,0-.21-.07-.24-.18-.03-.13.04-.27.18-.31.69-.19,1.33-.36,1.93-.51h.07c.11,0,.21.08.24.19v.06c0,.11-.07.21-.18.24h-.02c-.64.16-1.28.33-1.91.5-.02.01-.04.01-.07.01ZM100.37,173.56s-.04,0-.06-.01c-.64-.16-1.29-.32-1.94-.47-.06,0-.12-.05-.15-.11-.04-.05-.05-.12-.03-.19.03-.13.16-.22.3-.19.65.15,1.3.31,1.94.48.11.03.19.13.19.24,0,.02,0,.04,0,.06-.03.11-.13.19-.24.19ZM291.93,173.54s-.05,0-.07-.01c-.62-.18-1.27-.35-1.92-.5-.14-.04-.22-.17-.19-.31.03-.13.17-.21.3-.18.69.16,1.34.33,1.95.51.1.03.18.12.18.23,0,.03,0,.05,0,.08-.03.11-.13.18-.24.18ZM251.31,173.14c-.12,0-.22-.08-.25-.19-.03-.14.05-.27.19-.3.66-.15,1.32-.3,1.96-.42.13-.03.27.06.29.19,0,.02,0,.04,0,.05,0,.12-.09.22-.2.25-.67.13-1.33.27-1.95.42h-.05ZM59.74,173.09c-.12,0-.22-.08-.25-.19-.03-.13.05-.27.19-.3.68-.17,1.32-.31,1.96-.44.14-.02.27.06.29.2.01,0,.01.03.01.05,0,.11-.09.22-.2.24-.65.13-1.31.28-1.94.44h-.06ZM97.45,172.87h-.05c-.69-.15-1.32-.27-1.95-.39-.07-.01-.12-.05-.16-.1-.04-.05-.05-.12-.04-.19.02-.13.15-.22.29-.2.64.12,1.3.25,1.97.39.11.02.2.13.2.25,0,0-.01.03-.01.05-.03.11-.13.19-.25.19ZM289.02,172.81s-.03,0-.05-.01c-.68-.14-1.32-.27-1.95-.38-.14-.03-.23-.16-.2-.29.02-.14.15-.23.29-.21.75.14,1.39.27,1.96.4.12.02.2.13.2.24v.05c-.03.12-.13.2-.25.2ZM254.24,172.53c-.12,0-.23-.08-.25-.2-.02-.14.06-.27.2-.29.64-.12,1.31-.24,1.98-.34h0c.15-.03.25.08.27.21,0,.01,0,.03,0,.04,0,.12-.08.22-.19.24h-.02s-.02,0-.03,0c-.63.1-1.28.21-1.93.33h-.04ZM62.67,172.46c-.12,0-.22-.08-.24-.2-.02-.07,0-.13.03-.19.04-.05.1-.09.16-.1.62-.12,1.27-.23,1.98-.34.14-.02.27.08.29.21v.04c0,.12-.09.22-.2.25h-.02c-.67.1-1.33.21-1.95.33h-.05ZM94.51,172.32s-.02,0-.04,0c-.62-.1-1.29-.2-1.97-.3-.13-.02-.23-.15-.21-.28.02-.13.14-.24.28-.21.64.08,1.28.18,1.98.3.12.02.21.13.21.25v.04c-.02.12-.12.21-.25.21ZM286.07,172.25s-.02,0-.03-.01c-.64-.1-1.3-.2-1.97-.29-.14-.02-.24-.15-.22-.28.02-.14.16-.24.28-.22.62.09,1.27.18,1.99.3h0c.12.03.21.13.21.25,0,0,0,.03-.01.04-.02.12-.12.21-.25.21ZM257.19,172.05c-.12,0-.23-.09-.25-.22,0-.13.08-.26.22-.28.73-.1,1.38-.19,1.98-.26.16-.01.26.09.28.22v.02h0c0,.14-.09.25-.22.26-.68.08-1.34.17-1.97.26h-.04ZM65.63,171.99c-.12,0-.23-.1-.25-.22-.02-.14.08-.26.22-.28.66-.09,1.33-.18,1.99-.25.13,0,.26.08.27.22v.03c0,.12-.09.23-.22.25-.63.07-1.28.15-1.97.24-.02,0-.03,0-.04,0ZM91.55,171.88h-.03c-.65-.08-1.31-.16-1.98-.22-.14-.02-.24-.14-.22-.28,0-.13.14-.23.27-.22.69.07,1.36.15,1.99.23.13.01.22.12.22.25v.02c-.02.13-.13.22-.25.22ZM283.11,171.82h-.03c-.62-.07-1.27-.14-1.98-.21-.07-.01-.13-.04-.17-.09-.05-.05-.07-.12-.06-.18,0-.14.12-.24.27-.23.65.06,1.3.13,2,.22.13.01.22.12.22.25,0,.01,0,.02,0,.03,0,.12-.12.21-.24.21ZM260.17,171.68c-.13,0-.24-.09-.25-.22,0-.07,0-.13.05-.19.04-.05.1-.08.17-.09.63-.06,1.29-.12,1.99-.18.16-.01.26.09.27.23h0c.01.14-.09.25-.22.27h-.04c-.7.06-1.34.12-1.95.18h-.02ZM68.61,171.63c-.13,0-.24-.09-.25-.22-.01-.07,0-.13.06-.18.04-.06.1-.09.16-.09.66-.07,1.33-.13,2-.18.14-.02.26.09.27.23v.03c0,.12-.1.23-.23.24-.66.05-1.33.11-1.99.17h-.02ZM88.57,171.56h-.02c-.65-.06-1.32-.11-1.99-.15-.06,0-.12-.04-.17-.09-.04-.05-.06-.11-.06-.18.01-.14.13-.24.27-.23.67.04,1.35.09,1.99.15.13,0,.23.12.23.25v.03c0,.12-.12.22-.25.22ZM280.12,171.52h-.02c-.62-.05-1.27-.1-1.99-.15-.13,0-.24-.12-.23-.26s.13-.24.27-.23c.61.03,1.27.08,2,.14.13,0,.23.12.22.26h0c-.01.14-.12.24-.25.24ZM263.15,171.42c-.13,0-.24-.1-.25-.23,0-.06.02-.13.06-.18.05-.05.11-.08.17-.09.59-.04,1.28-.08,2-.12h0c.14,0,.25.11.25.24h0c0,.14-.1.25-.22.26t0,.01h-.02s0,0-.02-.01c-.66.04-1.32.08-1.95.12h-.02ZM71.6,171.39c-.13,0-.24-.1-.25-.23,0-.07.01-.13.06-.18.04-.05.1-.08.17-.09.72-.05,1.38-.08,2-.11h.02c.13,0,.24.11.24.24h0c0,.14-.1.25-.23.26-.73.03-1.38.07-2,.11h-.01ZM85.57,171.35h0s-.02,0-.03,0c-.63-.03-1.3-.06-1.96-.09-.14-.01-.25-.12-.24-.26,0-.14.11-.24.25-.24h0c.68.03,1.36.06,2,.09.13,0,.23.12.23.26h0c0,.14-.11.23-.25.24h0ZM277.12,171.32s-.02,0-.03,0c-.69-.03-1.34-.06-1.96-.08-.07,0-.13-.03-.18-.08-.04-.05-.07-.11-.06-.18,0-.13.11-.24.24-.24h0c.64.02,1.3.05,2.01.09.13,0,.23.12.23.25h0c0,.14-.12.25-.25.25h0ZM266.15,171.26c-.14,0-.25-.11-.26-.24,0-.14.1-.25.24-.26.65-.03,1.33-.05,2-.06.15,0,.26.1.26.24s-.11.25-.24.26c-.67.01-1.34.03-2,.06h0ZM74.6,171.24h0c-.13,0-.24-.11-.25-.24,0-.07.02-.13.07-.18.04-.05.11-.08.17-.08.68-.02,1.36-.04,2.01-.05.14,0,.25.1.25.24s-.11.25-.24.25c-.82.02-1.44.04-2,.06h0ZM82.59,171.22h-.01c-.68-.02-1.35-.04-1.99-.05-.07,0-.13-.02-.18-.07-.04-.05-.07-.11-.07-.18,0-.14.11-.25.25-.25.61,0,1.31.02,2.01.04.13,0,.24.12.24.25h0c0,.15-.12.26-.25.26ZM274.13,171.2h0c-.6,0-1.25-.03-2-.03-.06,0-.13-.03-.17-.08-.05-.05-.08-.11-.07-.17,0-.14.11-.25.24-.25.74,0,1.4.02,2.01.03.14,0,.25.12.24.26,0,.13-.11.24-.25.24ZM269.14,171.18h0c-.14,0-.25-.11-.25-.25s.11-.25.24-.25c.49,0,1.06-.02,1.66-.02h.35c.13,0,.25.12.25.25,0,.14-.12.25-.25.25h-.11c-.7,0-1.32.01-1.89.02ZM77.59,171.17h0c-.14,0-.25-.11-.25-.25,0-.06.03-.13.07-.17.05-.05.11-.08.18-.08.43,0,.9-.01,1.36-.01h.64c.14.01.25.12.25.26,0,.13-.11.25-.25.25-.68-.01-1.38-.01-2,0Z"/>
    <path class="st0" d="M151.13,255.71c-.07,0-.13-.02-.18-.07-.46-.35-1.01-.77-1.56-1.17-.06-.04-.09-.1-.1-.17-.01-.06,0-.13.04-.18.08-.11.24-.14.35-.06.52.39,1.06.79,1.59,1.19l.04.04s.07.11.07.18-.03.13-.08.17c-.04.05-.11.07-.17.07ZM148.73,253.92c-.05,0-.1,0-.15-.04-.54-.4-1.08-.8-1.61-1.18-.05-.04-.09-.1-.1-.16,0-.07.01-.13.05-.19.07-.11.23-.13.34-.05.5.35,1.03.74,1.62,1.17.06.05.1.12.1.2,0,.06-.01.11-.05.15-.04.07-.12.1-.2.1ZM146.31,252.16c-.06,0-.11-.01-.15-.04-.54-.39-1.09-.78-1.62-1.15-.12-.09-.15-.24-.07-.36.08-.1.24-.13.35-.05.6.42,1.14.8,1.63,1.15.07.05.1.12.11.2,0,.05-.02.11-.05.15-.05.07-.12.1-.2.1ZM143.86,250.44s-.1-.02-.15-.05c-.6-.42-1.19-.83-1.64-1.14-.11-.07-.14-.23-.06-.35.07-.1.24-.14.35-.06.52.36,1.08.75,1.64,1.14h0c.06.05.1.13.1.21,0,.05-.02.1-.05.14-.05.07-.12.11-.2.11ZM141.39,248.73s-.1,0-.14-.04c-.57-.39-1.13-.77-1.66-1.12-.05-.04-.09-.1-.1-.16-.02-.07,0-.13.03-.19.08-.11.24-.14.35-.07.58.39,1.16.78,1.65,1.12h0c.07.05.11.13.11.21,0,.05-.02.1-.04.14-.05.07-.13.11-.21.11ZM138.9,247.05c-.05,0-.1,0-.14-.04-.53-.35-1.08-.71-1.67-1.1-.05-.04-.09-.1-.11-.16-.01-.07,0-.13.04-.19.07-.11.23-.14.35-.07.59.39,1.14.75,1.67,1.11.07.04.11.12.11.2,0,.05-.01.1-.04.14-.05.07-.13.11-.21.11ZM136.39,245.4s-.09,0-.13-.04h0s-.02,0-.03-.02c-.55-.35-1.1-.71-1.66-1.07-.05-.04-.09-.09-.11-.16-.01-.06,0-.13.04-.19.07-.11.23-.14.34-.07.53.34,1.08.7,1.69,1.09.07.05.11.12.11.21,0,.05,0,.09-.04.14-.05.07-.13.11-.21.11ZM133.87,243.77s-.1,0-.14-.04c-.68-.43-1.2-.77-1.69-1.07-.12-.08-.15-.23-.08-.35.07-.11.23-.15.35-.08.58.37,1.15.73,1.69,1.08.07.05.12.13.12.21,0,.05-.02.1-.04.13-.05.08-.13.12-.21.12ZM131.32,242.16s-.09-.01-.13-.04c-.62-.39-1.18-.74-1.7-1.06-.06-.03-.1-.09-.11-.16-.02-.06-.01-.13.03-.18.07-.12.23-.16.34-.08.55.34,1.13.69,1.71,1.06.07.04.11.12.11.21,0,.05,0,.09-.03.13-.05.08-.13.12-.22.12ZM128.77,240.57c-.05,0-.09,0-.13-.03-.57-.35-1.14-.7-1.71-1.05-.11-.07-.15-.22-.08-.34.07-.11.23-.15.34-.08.6.36,1.2.73,1.71,1.04.08.05.12.13.12.22,0,.04-.01.09-.04.12-.04.08-.12.12-.21.12ZM126.21,239.01c-.05,0-.09,0-.13-.03-.57-.35-1.14-.69-1.71-1.04-.06-.03-.1-.09-.12-.15-.01-.06,0-.13.03-.19.07-.11.23-.16.34-.08.57.34,1.15.68,1.72,1.03.07.04.12.12.12.21,0,.05-.01.09-.04.13-.04.08-.13.12-.21.12ZM123.63,237.47s-.09,0-.12-.04l-.04-.02c-.56-.33-1.12-.66-1.68-.99-.12-.07-.16-.23-.09-.35.06-.11.22-.15.34-.09.57.34,1.15.68,1.72,1.02.08.05.12.13.12.22,0,.04-.01.09-.03.13-.05.07-.13.12-.22.12ZM121.05,235.94s-.08,0-.12-.03h0s-.01-.01-.02-.01l-.44-.26c-.42-.24-.84-.49-1.27-.73-.12-.08-.16-.23-.09-.35.07-.11.23-.15.35-.09l.32.19c.47.27.94.54,1.41.82.07.04.12.12.12.21,0,.05,0,.09-.03.13-.05.08-.13.12-.22.12ZM118.45,234.44s-.08,0-.12-.03c-.52-.31-1.09-.63-1.73-1-.06-.03-.11-.09-.12-.15-.02-.07-.01-.13.02-.19.07-.12.23-.16.34-.09.58.32,1.16.66,1.73.99h0c.07.04.12.12.12.21,0,.05,0,.09-.03.13-.04.08-.13.13-.22.13ZM115.85,232.95s-.09-.01-.12-.03c-.59-.34-1.19-.68-1.75-.99-.05-.03-.1-.08-.11-.15-.02-.06,0-.13.02-.19.06-.12.22-.16.34-.09.58.32,1.16.65,1.74.98.08.05.13.13.13.22,0,.04,0,.09-.03.12-.05.08-.13.13-.22.13ZM113.23,231.47s-.08,0-.12-.03c-.44-.25-.89-.5-1.34-.75l-.4-.22c-.12-.07-.17-.22-.1-.34.06-.12.22-.17.34-.1.58.32,1.16.65,1.75.98.08.04.13.13.12.22,0,.04-.01.08-.03.12-.04.08-.13.12-.22.12ZM110.61,230.02s-.08-.02-.12-.04c-.55-.3-1.15-.63-1.75-.96-.06-.03-.1-.09-.12-.15-.02-.07,0-.13.02-.19.06-.12.22-.16.34-.1.62.34,1.19.65,1.75.97h0c.08.04.13.13.13.22,0,.04-.01.08-.03.12-.04.08-.12.13-.22.13ZM107.98,228.57s-.08,0-.12-.03c-.44-.24-.89-.48-1.33-.73l-.42-.23c-.12-.06-.17-.21-.11-.33.07-.12.23-.17.34-.1.63.33,1.2.64,1.75.95h0c.08.04.13.13.13.22,0,.04-.01.08-.03.12-.04.08-.13.13-.22.13ZM105.34,227.14s-.08,0-.11-.03c-.65-.35-1.22-.66-1.76-.95-.13-.06-.17-.22-.11-.34.07-.12.22-.16.34-.1.58.31,1.17.63,1.76.95.08.04.13.13.13.22,0,.04,0,.08-.02.12-.05.08-.13.13-.23.13ZM102.7,225.72s-.08,0-.12-.03c-.35-.19-.7-.38-1.05-.56-.23-.13-.47-.25-.71-.38-.06-.03-.1-.08-.12-.15-.02-.06-.02-.13.01-.19.07-.12.22-.17.34-.1l.09.04c.55.3,1.11.59,1.67.89h0c.08.05.13.13.13.23,0,.04,0,.08-.03.12-.04.08-.13.13-.22.13ZM100.05,224.31s-.08,0-.11-.03c-.54-.28-1.17-.61-1.77-.93-.13-.07-.17-.22-.11-.34.06-.12.22-.17.34-.1.58.3,1.17.61,1.76.93h.01c.08.04.13.13.13.22,0,.04,0,.08-.03.12-.04.08-.12.13-.22.13ZM97.4,222.91s-.08-.01-.12-.03c-.6-.31-1.19-.62-1.77-.93-.06-.03-.1-.08-.12-.14-.02-.07-.02-.13.01-.19.06-.12.22-.17.34-.11.57.3,1.14.6,1.72.9l.05.03h0c.08.04.14.12.14.22,0,.04-.01.08-.03.12-.05.08-.13.13-.22.13ZM94.74,221.52s-.08,0-.12-.03c-.6-.31-1.19-.62-1.77-.92-.06-.03-.11-.08-.13-.15-.02-.06,0-.13.02-.19.06-.12.22-.17.34-.1.58.3,1.17.6,1.76.92h0c.08.04.14.12.14.22,0,.04,0,.08-.03.12-.04.08-.13.13-.22.13ZM92.07,220.14s-.07,0-.11-.03l-.68-.35c-.37-.2-.74-.38-1.1-.57-.06-.03-.1-.08-.12-.15-.02-.06-.02-.13.02-.19.06-.12.21-.17.33-.1l1.78.92c.08.04.13.12.13.21,0,.04,0,.08-.02.12-.05.09-.13.14-.23.14ZM89.41,218.76s-.08,0-.12-.03c-.42-.22-.85-.44-1.27-.66l-.5-.26c-.06-.03-.11-.08-.13-.15-.02-.06,0-.13.02-.19.06-.11.22-.16.34-.1l1.77.92c.08.04.14.12.14.21,0,.05,0,.09-.03.12-.04.09-.13.14-.22.14ZM86.74,217.38s-.08,0-.11-.03c-.47-.24-.94-.48-1.4-.72l-.38-.19c-.06-.03-.1-.09-.12-.15-.02-.06-.02-.13,0-.19.06-.12.22-.17.34-.11.37.19.75.39,1.13.59l.65.33c.08.04.13.12.13.22,0,.04,0,.08-.03.12-.04.08-.13.13-.22.13ZM84.07,216s-.07,0-.11-.02c-.7-.37-1.26-.66-1.77-.93-.12-.07-.17-.22-.11-.34.06-.12.22-.17.34-.11.6.32,1.21.64,1.77.93.08.04.13.13.14.22,0,.04,0,.08-.03.12-.05.08-.13.13-.23.13ZM81.42,214.61s-.08,0-.12-.03c-.64-.35-1.22-.66-1.76-.96-.12-.06-.16-.22-.1-.34.07-.11.23-.16.34-.09.52.28,1.1.59,1.75.94,0,0,.01,0,.01,0,.08.04.13.12.13.21,0,.05-.01.09-.03.12-.04.09-.13.14-.22.14ZM78.78,213.17s-.08,0-.11-.03c-.52-.28-1.06-.58-1.75-.97-.12-.07-.17-.22-.1-.34s.23-.16.34-.1c.52.29,1.13.64,1.75.98.08.04.13.12.13.22,0,.04-.02.08-.04.11-.04.08-.12.13-.22.13ZM76.17,211.7s-.09-.01-.12-.03c-.59-.33-1.17-.67-1.74-1-.12-.07-.16-.22-.08-.34.06-.12.22-.16.34-.09.53.31,1.08.63,1.73,1,.07.04.12.13.12.22,0,.04-.01.08-.03.12-.05.08-.13.12-.22.12ZM73.58,210.19s-.09,0-.13-.03c-.53-.32-1.09-.65-1.72-1.03-.11-.07-.15-.23-.08-.35.07-.11.23-.15.34-.08.65.39,1.2.72,1.72,1.03h0c.07.05.12.13.12.21,0,.05,0,.09-.04.13-.04.08-.12.12-.21.12ZM71.01,208.64s-.08,0-.12-.03h0s-.01-.02-.02-.02c-.54-.34-1.11-.69-1.67-1.05-.06-.04-.1-.09-.11-.16-.02-.06,0-.13.03-.19.07-.11.23-.15.34-.07.51.32,1.06.66,1.7,1.06h0c.07.05.11.13.11.21,0,.05,0,.09-.03.13-.05.08-.13.12-.22.12ZM68.48,207.04c-.05,0-.09-.02-.13-.04h0s-.01,0-.02-.02c-.59-.38-1.13-.74-1.65-1.08-.12-.08-.15-.24-.07-.35.07-.11.23-.14.35-.07.55.37,1.12.74,1.66,1.1.07.04.12.12.12.2,0,.05-.02.1-.04.14-.05.07-.13.12-.21.12ZM65.98,205.38c-.05,0-.1-.02-.14-.04-.56-.38-1.12-.77-1.65-1.15-.11-.07-.14-.23-.06-.34.08-.11.24-.14.35-.06.48.34,1,.7,1.64,1.13.07.05.11.13.11.21,0,.05-.02.1-.04.14-.05.07-.13.11-.21.11ZM63.52,203.66c-.05,0-.1-.02-.15-.05-.57-.41-1.1-.8-1.61-1.18-.11-.09-.14-.24-.05-.35.08-.11.24-.13.35-.05.57.43,1.09.81,1.6,1.17,0,0,0,0,.01,0,.06.04.1.12.1.2,0,.05-.02.1-.05.15-.04.06-.12.1-.2.1ZM61.11,201.87c-.06,0-.11-.01-.15-.05-.49-.37-1.01-.78-1.58-1.23-.11-.09-.12-.25-.04-.36.09-.1.25-.12.35-.03.53.42,1.06.83,1.57,1.23.07.04.1.12.1.2,0,.05-.02.1-.05.15-.05.06-.12.09-.2.09ZM58.76,200.01c-.06,0-.11-.02-.16-.06-.56-.46-1.06-.88-1.53-1.29-.05-.05-.08-.11-.08-.18,0-.06.01-.13.06-.18.08-.1.25-.11.35-.02.49.43,1,.86,1.52,1.29.06.04.09.11.09.19,0,.06-.02.11-.06.16-.04.06-.11.09-.19.09ZM56.48,198.05c-.06,0-.11-.02-.16-.06-.55-.49-1.03-.94-1.47-1.37-.1-.09-.1-.25,0-.35.09-.1.26-.1.36,0,.47.46.96.92,1.45,1.36.06.04.09.11.09.18,0,.06-.03.12-.07.17s-.11.08-.19.08ZM54.31,195.99c-.07,0-.13-.02-.18-.07-.47-.47-.92-.94-1.39-1.45-.04-.05-.07-.12-.06-.18,0-.07.03-.13.08-.18.1-.09.26-.08.35.02.43.47.9.96,1.38,1.43.04.05.07.12.07.18,0,.07-.03.13-.07.18-.05.05-.11.07-.18.07Z"/>
    <path class="st0" d="M199.4,255.3c-.09,0-.16-.04-.2-.1-.04-.05-.06-.12-.05-.18.01-.07.04-.13.09-.17.52-.39,1.05-.78,1.61-1.2.11-.08.27-.05.35.06.03.04.05.09.05.15,0,.08-.04.15-.1.2-.53.39-1.07.79-1.6,1.19-.05.03-.1.05-.15.05ZM201.81,253.52c-.08,0-.15-.04-.2-.11-.04-.05-.06-.12-.05-.18,0-.07.05-.13.1-.17.49-.36,1.02-.74,1.63-1.17t0,0c.1-.07.26-.04.34.06.03.04.04.09.04.14,0,.09-.03.16-.1.21-.52.37-1.05.76-1.62,1.18-.04.03-.1.05-.15.05ZM204.25,251.76c-.08,0-.16-.04-.2-.11-.04-.05-.06-.12-.05-.19,0-.06.05-.12.1-.16.6-.42,1.13-.8,1.64-1.15h0c.11-.08.27-.05.35.06.03.04.05.09.05.14,0,.08-.04.16-.11.21-.6.42-1.13.79-1.64,1.15-.04.03-.09.05-.14.05ZM206.71,250.03c-.08,0-.16-.04-.21-.11-.08-.11-.05-.27.06-.35.55-.37,1.11-.76,1.66-1.13.11-.08.27-.05.34.06.03.05.05.09.05.14,0,.09-.04.16-.11.21-.55.38-1.1.75-1.65,1.13-.04.03-.09.05-.14.05ZM209.18,248.33c-.08,0-.16-.04-.2-.11-.04-.06-.05-.12-.04-.19.01-.06.05-.12.11-.16.54-.37,1.1-.74,1.65-1.11h0c.11-.08.28-.05.35.06.03.05.05.1.05.14,0,.09-.05.16-.12.21-.38.26-.76.51-1.14.77l-.52.35s-.09.04-.14.04ZM211.68,246.66c-.09,0-.16-.04-.21-.11-.08-.12-.05-.28.07-.35.56-.37,1.11-.74,1.67-1.1.11-.07.27-.04.35.07.02.04.04.09.04.14,0,.09-.05.16-.11.21-.51.33-1.04.68-1.67,1.1-.04.03-.09.04-.14.04ZM214.19,245.01c-.09,0-.17-.04-.21-.11-.04-.06-.05-.12-.04-.19.01-.06.05-.12.11-.16.5-.32,1.03-.66,1.68-1.08.11-.07.27-.04.35.08.02.04.04.09.03.14,0,.08-.04.16-.11.2l-.11.07c-.51.33-1.05.67-1.57,1.01-.04.03-.09.04-.13.04ZM216.71,243.39c-.09,0-.17-.04-.21-.11-.04-.06-.05-.13-.04-.19.02-.07.06-.12.11-.16.57-.36,1.13-.71,1.69-1.07h0c.12-.07.27-.03.34.08.02.04.03.09.04.13,0,.09-.05.16-.11.21,0,0,0,0,0,0h-.02c-.51.33-1.06.68-1.67,1.06-.04.03-.09.04-.13.04ZM219.24,241.8c-.08,0-.17-.05-.21-.12-.04-.06-.05-.13-.03-.19,0-.07.05-.12.11-.15.58-.37,1.18-.74,1.69-1.05h0c.12-.08.28-.04.35.07.02.04.04.08.04.13,0,.09-.05.17-.12.22l-.21.12c-.49.31-.99.62-1.49.93-.03.02-.08.04-.13.04ZM221.79,240.22c-.09,0-.17-.04-.22-.12-.03-.06-.04-.12-.03-.19.02-.06.06-.12.12-.15l.2-.13c.49-.3,1-.61,1.5-.91.12-.07.27-.03.34.08.03.04.04.09.04.13,0,.09-.05.17-.12.22l-.36.21c-.45.28-.89.55-1.34.82-.04.03-.09.04-.13.04ZM224.35,238.67c-.09,0-.17-.05-.22-.12-.03-.06-.04-.13-.03-.19.02-.07.06-.12.12-.16.67-.4,1.21-.73,1.71-1.03.12-.07.28-.02.35.09.02.04.03.09.03.13,0,.09-.04.17-.12.21-.57.34-1.14.69-1.71,1.03-.04.02-.09.04-.13.04ZM226.92,237.13c-.09,0-.17-.05-.21-.12-.04-.06-.05-.13-.03-.19.02-.07.06-.12.12-.16l.48-.28c.41-.25.83-.49,1.24-.73.11-.07.27-.03.34.09.02.03.04.08.04.13,0,.08-.05.16-.13.21-.69.4-1.22.72-1.72,1.01-.04.03-.08.04-.13.04ZM229.51,235.61c-.09,0-.17-.05-.22-.12-.07-.13-.03-.28.09-.35.58-.34,1.16-.67,1.73-1,.12-.07.28-.02.35.09.02.04.03.08.03.13,0,.09-.05.17-.13.21-.5.29-1,.58-1.51.88l-.21.12s-.09.04-.13.04ZM232.11,234.11c-.09,0-.18-.05-.22-.13-.04-.06-.04-.13-.02-.19,0-.07.06-.12.11-.15.64-.37,1.27-.72,1.74-.99.12-.07.27-.03.34.09.02.04.03.08.03.12,0,.09-.04.17-.11.22h0s0,0-.02,0c-.44.25-.88.5-1.32.75l-.4.23s-.08.04-.12.04ZM234.71,232.62c-.09,0-.17-.05-.21-.13-.04-.06-.05-.13-.03-.19.02-.06.06-.12.12-.15.5-.28,1.01-.57,1.5-.84l.24-.14h0c.12-.07.28-.02.34.09.02.04.03.08.04.12,0,.09-.05.18-.13.23l-.54.3c-.4.22-.8.45-1.2.68-.04.02-.09.03-.13.03ZM237.33,231.15c-.09,0-.18-.05-.22-.13-.03-.06-.04-.12-.02-.19.02-.06.06-.12.12-.15.51-.29,1.03-.58,1.54-.86l.21-.11c.11-.07.27-.02.34.09.02.04.03.08.03.12,0,.1-.05.18-.13.23-.58.32-1.16.64-1.75.97-.04.02-.08.03-.12.03ZM239.95,229.69c-.09,0-.17-.05-.22-.13-.06-.12-.02-.27.1-.33.59-.33,1.18-.65,1.76-.97.11-.06.27-.02.34.1.02.04.03.08.03.12,0,.09-.05.17-.13.21h0s-.02.02-.03.02c-.28.15-.56.31-.85.47s-.58.32-.88.48c-.04.02-.08.03-.12.03ZM242.59,228.25c-.1,0-.18-.05-.22-.13-.04-.06-.04-.13-.02-.19,0-.06.06-.12.12-.15l.36-.19c.47-.26.93-.51,1.39-.76.13-.07.28-.02.34.1.02.04.03.08.03.12,0,.09-.05.17-.13.22-.51.27-1.06.57-1.76.95-.03.02-.07.03-.11.03ZM245.22,226.82c-.09,0-.17-.05-.22-.13-.03-.06-.03-.13-.02-.19.02-.06.07-.12.12-.15.6-.32,1.19-.63,1.77-.94.11-.07.27-.02.34.1.02.04.03.08.03.12-.01.09-.06.17-.14.22l-.27.14c-.49.27-.99.53-1.49.8-.03.02-.07.03-.12.03ZM247.87,225.4c-.1,0-.18-.05-.22-.13-.03-.06-.04-.12-.02-.19.02-.06.06-.11.12-.14.6-.32,1.18-.63,1.77-.94.12-.07.28-.02.34.1.02.04.03.08.03.12,0,.09-.06.17-.14.22-.34.18-.69.37-1.05.55-.23.13-.47.26-.71.39-.04.02-.08.02-.12.02ZM250.52,224c-.09,0-.18-.05-.22-.13-.03-.06-.04-.13-.02-.19.02-.07.06-.12.12-.15.6-.32,1.19-.63,1.77-.93.12-.07.28-.02.34.1.02.04.03.08.03.12,0,.09-.05.17-.13.22-.26.13-.51.26-.76.4-.34.17-.67.35-1.01.53-.04.02-.08.03-.12.03ZM253.18,222.6c-.1,0-.18-.05-.23-.13-.03-.06-.03-.13-.01-.19.02-.07.06-.12.12-.15l.6-.31c.39-.21.78-.41,1.17-.61h0c.12-.07.28-.02.34.1.02.03.03.07.03.11,0,.09-.05.18-.14.23l-1.77.92s-.07.03-.11.03ZM255.84,221.21c-.1,0-.18-.05-.23-.13-.03-.06-.03-.13,0-.19.02-.07.06-.12.12-.15l.83-.43c.32-.16.63-.33.95-.49.12-.07.27,0,.33.11.02.03.03.07.03.1,0,.1-.05.19-.13.23-.59.31-1.18.61-1.78.92-.03.02-.07.03-.11.03ZM258.5,219.83c-.09,0-.18-.05-.22-.14-.03-.05-.04-.12-.02-.18.02-.07.07-.12.13-.15l.12-.06c.56-.29,1.11-.58,1.65-.86h0c.12-.06.27,0,.33.11.02.03.03.07.03.1,0,.1-.05.18-.13.23h0s-.02,0-.02,0c-.5.26-1.01.52-1.53.79l-.24.12s-.07.03-.11.03ZM261.17,218.45c-.1,0-.18-.05-.23-.13-.06-.13,0-.28.11-.34l.85-.44c.32-.16.62-.32.93-.48.12-.06.27,0,.34.11,0,.04.02.07.02.11.01.1-.05.18-.13.23-.39.2-.78.4-1.18.61l-.6.3s-.07.03-.11.03ZM263.83,217.08c-.09,0-.18-.06-.22-.14-.03-.06-.04-.13-.02-.19.02-.06.07-.12.13-.15.59-.3,1.18-.6,1.75-.9,0-.01.02-.01.02-.01.12-.07.28-.02.34.1.02.04.03.07.03.11,0,.1-.05.19-.13.23h0c-.58.3-1.17.61-1.77.92-.04.02-.07.03-.12.03ZM266.5,215.7c-.1,0-.18-.05-.22-.14-.07-.12-.02-.27.1-.33.63-.33,1.21-.64,1.76-.93h0c.11-.07.28-.02.34.1.02.03.03.07.03.12,0,.09-.05.17-.14.21-.63.34-1.28.68-1.77.94-.03.02-.07.03-.11.03ZM269.15,214.29c-.09,0-.18-.05-.22-.13-.07-.12-.02-.27.1-.34.58-.31,1.13-.61,1.74-.95t.01-.01c.12-.06.28,0,.34.11.02.03.03.07.03.11,0,.1-.04.18-.12.23l-.07.03c-.55.3-1.12.61-1.69.92-.04.02-.08.03-.12.03ZM271.78,212.85c-.09,0-.17-.05-.22-.13-.03-.05-.04-.12-.02-.19.02-.06.06-.12.12-.15.67-.37,1.22-.68,1.73-.97h0c.11-.07.27-.03.34.09.02.03.03.07.03.11,0,.1-.04.18-.12.23-.59.33-1.21.68-1.75.98-.04.02-.08.03-.12.03ZM274.39,211.37c-.09,0-.17-.04-.22-.12-.07-.12-.03-.27.1-.34.59-.35,1.18-.69,1.72-1.01.11-.07.28-.03.34.09.03.04.04.08.04.13,0,.08-.05.17-.13.21-.52.31-1.09.64-1.72,1.01-.04.02-.09.03-.13.03ZM276.98,209.85c-.09,0-.17-.04-.22-.12-.07-.12-.03-.27.09-.34.57-.34,1.14-.69,1.7-1.04h0c.11-.07.27-.03.34.09.02.04.04.08.04.12,0,.09-.05.17-.12.21h0s0,.02-.02.02c-.5.31-1.04.63-1.69,1.03-.04.02-.09.03-.13.03ZM279.54,208.29c-.09,0-.17-.04-.22-.12-.03-.05-.04-.12-.03-.19.02-.06.06-.12.11-.15.63-.39,1.23-.77,1.68-1.07h0c.11-.08.27-.04.34.07.03.04.05.09.05.14,0,.09-.05.16-.12.21-.51.33-1.06.68-1.69,1.07-.04.03-.09.04-.13.04ZM282.06,206.67c-.08,0-.16-.04-.21-.11-.03-.06-.05-.12-.03-.19.01-.06.05-.12.11-.16.49-.32,1.08-.71,1.66-1.1.11-.08.27-.05.35.07.02.04.04.09.04.14,0,.08-.04.16-.11.2-.59.4-1.14.76-1.67,1.11-.04.03-.09.04-.14.04ZM284.55,205c-.08,0-.16-.04-.2-.1-.04-.06-.05-.12-.04-.19s.05-.12.1-.16c.55-.38,1.1-.76,1.63-1.14h0c.11-.09.28-.06.36.05.03.04.04.1.04.15,0,.08-.04.15-.1.2-.55.39-1.1.78-1.64,1.15-.05.03-.1.04-.15.04ZM287,203.27c-.08,0-.15-.04-.2-.1-.04-.06-.05-.12-.04-.19,0-.07.04-.12.1-.16.56-.41,1.1-.81,1.59-1.19h0c.1-.08.27-.06.35.05.03.04.05.09.05.15,0,.07-.04.15-.1.2-.57.43-1.1.82-1.61,1.19-.04.03-.09.05-.15.05ZM289.4,201.47c-.08,0-.15-.04-.2-.1-.04-.05-.06-.12-.05-.19.01-.06.04-.12.1-.16.5-.39,1.01-.8,1.55-1.24h0c.1-.09.27-.07.35.03.03.05.05.11.05.17s-.03.13-.08.18h0s-.01.02-.02.02c-.48.4-1.01.81-1.55,1.24-.04.03-.09.05-.15.05ZM291.73,199.58c-.07,0-.14-.03-.19-.09-.04-.05-.06-.11-.06-.18.01-.06.04-.12.09-.17.48-.4.97-.82,1.51-1.3.1-.09.27-.08.36.02.03.04.05.1.06.16,0,.07-.03.14-.09.19-.47.43-.99.87-1.52,1.31-.04.04-.1.06-.16.06ZM293.99,197.6c-.07,0-.14-.02-.19-.07-.04-.05-.07-.12-.06-.18,0-.07.03-.13.08-.18.48-.43.95-.88,1.44-1.36h0c.09-.11.26-.11.36,0,.04.05.07.11.07.18s-.03.13-.08.18c-.47.47-.96.93-1.45,1.38-.05.04-.11.06-.17.06ZM296.14,195.52c-.07,0-.13-.03-.17-.07-.05-.05-.08-.11-.08-.18,0-.06.02-.13.07-.18.49-.5.95-.99,1.35-1.45.09-.1.26-.11.36-.02.1.09.11.24.02.35-.45.5-.91,1-1.37,1.47-.05.05-.11.08-.18.08Z"/>
  </g>
  <g>
    <g>
      <path class="st2" d="M126.51,199.1c1.39,8.24,12.85,33.25,24.61,56.35,0,.01.01.01.01.01,1.89,3.73,3.79,7.4,5.66,10.95,8.48,12.8,8.61,13.64,16.44,24.7"/>
      <path class="st2" d="M152.2,257.66c8.72,1.02,14.58.93,22.79.93,0,0,0-51.65,0-64.17V29.74"/>
      <path class="st2" d="M307.25,204.98c-.26-7.3-4.43-22.37-10.7-56.28-6.26-33.91-15.13-50.61-32.87-66.26s-61.57-52.7-88.7-52.7c-27.13,0-70.96,37.04-88.7,52.7s-26.61,32.35-32.87,66.26-10.43,48.98-10.7,56.28"/>
      <path class="st2" d="M175.14,293.16c.21-.24.43-.47.64-.71,1.83-1.98,3.79-3.93,5.86-5.84,24.99-23.18,65.41-41.31,87.26-51.31,30.33-13.89,38.35-24.85,38.35-30.33s-5.87-15.06-35.22-15.06c-26.78,0-29.94,7.81-48.56,9.19-1.79.13-3.72.2-5.83.2-24.07,0-20.54-4.89-42.65-4.89-11.06,0-15.7,1.22-20.59,2.44-4.89,1.23-10.03,2.45-22.06,2.45-2.11,0-4.04-.07-5.83-.2-18.63-1.38-21.79-9.19-48.57-9.19-12.03,0-20.11,1.61-25.46,3.89-7.71,3.28-9.75,7.94-9.75,11.17,0,5.48,8.02,16.44,38.34,30.33,23.34,10.69,67.89,30.43,92.16,55.81.66.68,1.29,1.36,1.91,2.05,6.32,7,11.05,14.42,13.35,22.18"/>
      <path class="st2" d="M175.78,292.46c8.79-12.35,8.6-12.74,17.4-26.05,13.47-25.55,28.67-57.74,30.28-67.31"/>
      <path class="st2" d="M61.08,224.72s1.34,9.9,2.21,19.4c.25,2.78-.13,5.59-1.12,8.2-3.87,10.19-4.96,18.01-4.96,18.01,29.74,35.61,77.67,45.39,117.78,45.39,40.11,0,88.04-9.78,117.78-45.39,0,0-1.09-7.82-4.96-18.01-.99-2.61-1.37-5.42-1.12-8.2.87-9.5,2.21-19.4,2.21-19.4"/>
      <path class="st2" d="M197.78,257.66c-8.72,1.02-14.58.93-22.79.93"/>
      <path class="st2" d="M193.27,266.26c-6.35.5-11.69.42-18.28.42h0c-6.59,0-11.93.08-18.28-.42"/>
    </g>
    <g>
      <path class="st1" d="M297.52,193.8c-5.35-2.28-13.43-3.89-25.46-3.89-26.78,0-29.94,7.81-48.57,9.19-1.79.13-3.72.2-5.83.2-12.03,0-17.17-1.22-22.06-2.45-4.89-1.22-9.53-2.44-20.59-2.44v14.48c15.41,0,17.06,3.91,26.84,6.45.03,0,.06,0,.09.02,3.77.98,5.84,5.03,4.35,8.64-5.99,14.52-14.81,35.91-18.59,45.21-5.27,12.94-9.71,20.04-10.71,21.58,7.61-10.76,7.82-11.71,16.22-24.38,1.87-3.55,3.77-7.22,5.66-10.95,0,0,.01,0,.01-.01,4.76-9.35,9.47-19,13.48-27.74h.01c.88-.77,29.18-25.33,52.67-28.61,23.87-3.33,36.4,6.46,27.75,23.07,11.01-7.62,14.48-13.59,14.48-17.2,0-3.23-2.04-7.89-9.75-11.17ZM216.87,217.57c-1.34,3.14-2.84,6.51-4.46,10.03l4.46-10.03c.04-.08.07-.16.1-.24h.01l-.11.24Z"/>
      <path class="st1" d="M154.4,196.85c-4.89,1.23-10.03,2.45-22.06,2.45-2.11,0-4.04-.07-5.83-.2-18.63-1.38-21.79-9.19-48.57-9.19-12.03,0-20.11,1.61-25.46,3.89-7.71,3.28-9.75,7.94-9.75,11.17,0,3.61,3.47,9.58,14.48,17.2-8.65-16.61,3.88-26.4,27.75-23.07,23.49,3.28,51.79,27.84,52.67,28.6h.01c4.01,8.75,8.72,18.4,13.48,27.75,0,.01.01.01.01.01,1.89,3.73,3.79,7.4,5.66,10.95,8.4,12.67,8.61,13.62,16.22,24.38-1-1.54-5.44-8.64-10.71-21.58-3.78-9.3-12.6-30.69-18.59-45.21-1.49-3.61.58-7.66,4.35-8.64.03-.01.06-.01.09-.02,9.78-2.54,11.43-6.45,26.85-6.45v-14.48c-11.07,0-15.71,1.22-20.6,2.44ZM133.13,217.57l-.11-.24h.01c.03.08.06.16.1.24l4.46,10.03c-1.62-3.52-3.12-6.89-4.46-10.03Z"/>
      <path class="st1" d="M62.11,232.96c50.63,25.04,100.8,48.74,118.56,67.02,6.81-11.65,20.89-28.48,40.07-36.5,19.17-8.02,67.14-30.52,67.14-30.52l.63-7.99-42.39,20.97s-20.96,10.63-27.13,14.25c-5.21,3.06-15.91,9.33-23.59,15.18-5.42,4.12-16.55,13.25-20.4,18-2.64-3.16-2.1-4.86-19.56-17.62-17.46-12.76-26.78-17.12-53.22-30.64-23.94-11.11-41.07-19.96-41.07-19.96l.97,7.81Z"/>
    </g>
  </g>
</svg>