<?xml version="1.0" encoding="UTF-8"?>
<svg id="Livello_1" xmlns="http://www.w3.org/2000/svg" version="1.1" viewBox="0 0 226.96 268.93">
  <!-- Generator: Adobe Illustrator 29.8.1, SVG Export Plug-In . SVG Version: 2.1.1 Build 2)  -->
  <defs>
    <style>
      .st0 {
        fill: red;
      }

      .st1 {
        fill: none;
        stroke: #131211;
        stroke-linecap: round;
        stroke-linejoin: round;
        stroke-width: 1.2px;
      }
    </style>
  </defs>
  <path class="st0" d="M18.43,265.85h0c-.14,0-.25-.13-.24-.27.03-.48.06-.95.09-1.42l.04-.57c.01-.14.14-.24.26-.24.14,0,.24.12.24.25v.02c-.02.34-.05.69-.07,1.04-.02.32-.04.63-.06.95,0,.13-.12.24-.25.24ZM18.62,262.85h-.02c-.06,0-.12-.03-.17-.08-.04-.05-.06-.12-.06-.18.02-.32.04-.64.06-.96.02-.35.04-.69.07-1.04,0-.13.12-.23.26-.23.13.01.23.12.23.25h0c-.02.43-.05.85-.07,1.27l-.05.74c0,.13-.12.23-.25.23ZM18.81,259.86h-.02c-.14,0-.24-.13-.24-.26.04-.63.08-1.26.11-1.87v-.13c.02-.13.13-.23.26-.23h.02c.13,0,.23.11.23.25h0c-.01.26-.03.51-.04.77-.03.41-.05.82-.08,1.23,0,.14-.11.24-.24.24ZM18.98,256.87h-.02c-.06-.01-.13-.04-.17-.09-.04-.05-.07-.11-.06-.18v-.25c.05-.58.08-1.16.11-1.74,0-.14.13-.23.26-.24.14,0,.24.12.24.25v.02c-.03.58-.07,1.16-.1,1.75v.24c-.02.14-.13.24-.26.24ZM19.14,253.88s0,0-.02,0c-.06,0-.12-.03-.16-.08-.05-.05-.07-.11-.07-.18l.03-.61c.03-.46.05-.92.08-1.38,0-.14.12-.24.26-.24.13,0,.24.12.24.25v.02c-.02.38-.04.78-.06,1.17l-.05.82c0,.13-.12.24-.25.24ZM19.3,250.88h-.01c-.07,0-.14-.03-.18-.08s-.07-.12-.06-.18c0-.34.03-.67.05-1,.01-.34.03-.67.04-1,.01-.13.12-.23.25-.23h.01c.14,0,.24.11.24.25v.25c-.04.58-.06,1.17-.09,1.76-.01.12-.12.23-.25.23ZM19.44,247.89h-.01c-.07,0-.13-.03-.17-.08-.05-.05-.07-.12-.07-.18.03-.55.05-1.1.08-1.65v-.35c.02-.13.13-.24.26-.24h0c.14,0,.24.12.24.25h0s-.01.26-.01.26c-.03.58-.05,1.16-.08,1.75-.01.13-.11.24-.25.24ZM19.57,244.89h0c-.07,0-.13-.03-.18-.08-.04-.05-.07-.11-.06-.18.01-.31.02-.63.04-.95.01-.35.03-.7.04-1.04,0-.14.11-.24.25-.24h.01c.13,0,.24.11.24.24l-.02.45c-.02.52-.04,1.04-.06,1.56,0,.14-.12.24-.26.24ZM19.7,241.9h0c-.07,0-.13-.03-.18-.08-.04-.05-.06-.11-.06-.18,0-.37.03-.74.04-1.11l.04-.89c0-.13.11-.24.25-.24h0c.14.01.24.12.25.25v.13c-.03.62-.06,1.25-.08,1.88,0,.13-.12.24-.25.24ZM19.81,238.9h0c-.13,0-.24-.12-.24-.25.03-.67.05-1.34.07-2,0-.14.12-.24.25-.24h0c.13,0,.24.11.24.24v.02l-.07,1.99c0,.14-.11.24-.25.24ZM19.92,235.91h-.01c-.07,0-.13-.03-.18-.08-.04-.05-.07-.11-.06-.18.02-.67.04-1.33.06-1.99,0-.14.11-.24.25-.24h.01c.13,0,.24.11.24.24h0v.05c-.02.43-.03.86-.04,1.3l-.02.66c-.01.13-.12.24-.25.24ZM20.01,232.92h-.01c-.14,0-.24-.12-.24-.26l.06-1.99c0-.14.11-.24.25-.24h0c.14,0,.25.11.25.25-.01.35-.02.69-.03,1.03,0,.33-.02.65-.03.97,0,.13-.12.24-.25.24ZM20.1,229.93h0c-.14,0-.25-.12-.25-.26.02-.67.04-1.33.06-2,0-.14.11-.24.25-.24h0c.14,0,.25.1.25.24h0c-.02.68-.04,1.35-.06,2.01,0,.14-.11.25-.24.25ZM20.17,226.93h0c-.07,0-.13-.03-.18-.08s-.07-.12-.07-.18c0-.34.02-.69.03-1.03,0-.32,0-.65.02-.97,0-.13.11-.24.25-.24h0c.13,0,.24.11.24.24h0c-.01.68-.03,1.35-.05,2.01,0,.14-.11.25-.25.25ZM20.25,223.93h0c-.14,0-.25-.12-.25-.26l.05-1.99c0-.14.11-.25.25-.25s.25.12.25.26c-.02.67-.03,1.33-.05,2,0,.13-.11.24-.24.24ZM20.31,220.93h0c-.14,0-.25-.11-.25-.25.01-.39.02-.78.02-1.18l.02-.82c.01-.2.3-.31.43-.17.04.05.07.11.07.17h0v.04c0,.34,0,.68-.02,1.02,0,.32,0,.63-.02.95,0,.13-.11.24-.25.24ZM20.37,217.94h0c-.07,0-.13-.03-.18-.08-.05-.05-.07-.11-.07-.18.01-.66.03-1.32.04-2,0-.13.11-.24.24-.24h0c.14,0,.25.11.25.25v.42c-.02.53-.03,1.06-.04,1.58,0,.14-.11.25-.25.25ZM20.43,214.94h0c-.13,0-.24-.12-.24-.25v-.29c.01-.57.02-1.14.03-1.71.01-.14.12-.25.25-.25.15,0,.26.12.25.26,0,.67-.02,1.33-.03,1.99,0,.14-.12.25-.25.25ZM20.48,211.94h0c-.07,0-.13-.03-.18-.07-.04-.05-.07-.12-.07-.18.01-.36.02-.71.02-1.07.01-.31.01-.62.02-.93,0-.14.11-.25.25-.25.14.01.24.12.25.25h0v.04c0,.66-.03,1.32-.04,1.97,0,.13-.11.24-.25.24ZM20.53,208.95h0c-.14-.01-.25-.12-.25-.26,0-.35.02-.7.02-1.05,0-.31,0-.63.02-.95,0-.13.11-.24.25-.24s.25.11.25.25c-.01.35-.01.7-.02,1.05,0,.31-.01.63-.01.95,0,.14-.12.25-.26.25ZM20.59,205.95h-.01c-.14,0-.25-.12-.24-.26,0-.35,0-.71.02-1.07,0-.3,0-.61,0-.91v-.02c0-.13.11-.24.25-.24s.25.12.25.25c0,.39,0,.78-.02,1.17,0,.28,0,.56,0,.83-.01.14-.12.25-.25.25ZM20.64,202.95h0c-.13,0-.24-.12-.24-.25,0-.28.01-.56.01-.84,0-.39.02-.77.02-1.16,0-.21.3-.31.43-.17.05.05.07.11.07.18,0,.32-.01.64-.01.95,0,.35-.02.7-.02,1.04,0,.14-.12.25-.25.25ZM20.69,199.95h0c-.14,0-.25-.11-.25-.25,0-.66.02-1.33.03-2,0-.13.12-.24.25-.24h0c.14,0,.25.11.25.25v.13c-.02.63-.03,1.25-.04,1.87,0,.13-.11.24-.25.24ZM20.74,196.95h0c-.14,0-.25-.11-.25-.25,0-.66.03-1.32.04-1.99h0c0-.14.11-.25.24-.25h.01c.14,0,.25.11.25.25-.01.32-.01.64-.02.95,0,.35-.01.7-.02,1.05,0,.14-.11.24-.25.24ZM20.8,193.96h-.01c-.14,0-.25-.12-.24-.26l.03-2c.01-.13.11-.24.25-.24s.25.12.25.26v.09c0,.64-.02,1.27-.03,1.9-.01.14-.12.25-.25.25ZM20.85,190.96h0c-.07,0-.14-.03-.18-.08-.05-.05-.07-.11-.07-.18.01-.63.02-1.28.04-1.99,0-.21.29-.31.43-.17.04.05.07.11.07.18,0,.67-.03,1.34-.04,2,0,.13-.11.24-.25.24ZM20.91,187.96h0c-.14,0-.25-.12-.24-.25l.04-2c0-.14.11-.25.25-.25.14,0,.25.12.25.26-.02.67-.03,1.34-.04,2,0,.13-.12.24-.25.24ZM20.96,184.96h0c-.07,0-.13-.02-.18-.07-.04-.05-.07-.12-.06-.18,0-.66.02-1.33.04-2,0-.13.11-.24.25-.24s.24.1.25.24h0c-.02.69-.03,1.35-.04,2.01-.01.14-.12.24-.26.24ZM21.03,181.97h-.01c-.07,0-.13-.03-.18-.08-.04-.05-.06-.11-.06-.18,0-.61.02-1.23.04-1.85v-.15c0-.13.11-.24.25-.24s.25.11.25.25c-.01.31-.02.62-.02.93-.01.36-.02.72-.02,1.07-.01.14-.12.25-.25.25ZM21.09,178.97h-.01c-.06,0-.13-.03-.17-.08-.05-.05-.07-.11-.07-.18,0-.35.02-.71.02-1.07,0-.31.02-.62.02-.93,0-.2.29-.31.43-.16.05.04.07.11.07.18-.01.67-.03,1.33-.04,2,0,.13-.12.24-.25.24ZM21.15,175.97h0c-.07,0-.13-.03-.17-.07-.05-.05-.08-.12-.08-.19,0-.44.02-.88.03-1.33l.02-.66c0-.14.11-.25.25-.25.05,0,.13.03.18.08.05.05.07.11.07.18,0,.24,0,.48-.02.72,0,.43-.02.85-.02,1.28,0,.13-.12.24-.26.24ZM21.22,172.97h0c-.07,0-.13-.03-.18-.07-.04-.05-.07-.12-.07-.18,0-.28,0-.57.02-.85,0-.38.02-.77.03-1.15,0-.14.11-.24.24-.24h0c.07,0,.13.02.18.07.04.05.07.11.07.18-.02.64-.03,1.27-.05,1.9v.1c0,.13-.11.24-.25.24ZM21.29,169.97h0c-.07,0-.13-.02-.18-.07-.05-.05-.07-.11-.07-.18.02-.66.03-1.33.05-2,0-.14.11-.24.25-.24h0c.13,0,.24.11.24.25-.01.28-.01.55-.02.83-.01.39-.02.78-.03,1.17,0,.13-.11.24-.25.24ZM21.36,166.98h0c-.07,0-.13-.03-.18-.08-.04-.05-.07-.11-.07-.18v-.25c.02-.58.04-1.16.05-1.75.01-.13.12-.24.25-.24h.01c.06,0,.13.03.17.08.05.04.07.11.07.17,0,.68-.03,1.34-.05,2,0,.14-.11.25-.25.25ZM21.44,163.98h-.01c-.06,0-.13-.03-.17-.08-.05-.05-.07-.11-.07-.18,0-.31,0-.62.02-.94.01-.35.02-.7.03-1.06,0-.13.11-.24.25-.24.07.02.13.03.18.08.04.05.07.11.07.18-.02.67-.04,1.33-.05,1.99-.01.14-.12.25-.25.25ZM21.52,160.98h0c-.07,0-.13-.03-.18-.08-.05-.05-.07-.11-.07-.18,0-.31.02-.62.03-.94.01-.35.02-.7.03-1.05,0-.14.11-.25.25-.25h0c.14,0,.25.12.25.26-.02.63-.04,1.26-.05,1.88v.12c0,.13-.12.24-.25.24ZM21.59,157.98h0c-.07,0-.13-.03-.18-.08-.05-.04-.07-.11-.07-.17l.02-.78c0-.41.02-.81.04-1.22,0-.14.11-.25.24-.25h.01c.07.01.13.03.18.08.04.05.07.11.07.18-.01.28-.02.55-.03.83,0,.39-.02.78-.03,1.17,0,.13-.11.24-.25.24ZM21.68,154.98h0c-.07,0-.13-.03-.18-.07-.04-.05-.07-.12-.07-.18.02-.52.03-1.03.05-1.55v-.45c0-.13.12-.24.26-.24h.01c.06,0,.12.03.17.07.05.05.07.12.07.18,0,.45-.03.89-.04,1.34l-.02.66c0,.13-.11.24-.24.24ZM21.76,151.99h-.01c-.14-.01-.25-.12-.24-.26l.02-.74c0-.42.02-.84.03-1.26.01-.13.12-.24.25-.24.07.02.14.03.18.07.05.05.07.12.07.18,0,.46-.02.91-.03,1.36l-.02.64c-.01.14-.12.25-.25.25ZM21.84,148.99h0c-.07,0-.13-.03-.18-.08-.05-.05-.07-.11-.07-.18,0-.27.02-.55.03-.82.01-.39.02-.78.03-1.18,0-.13.13-.24.26-.24s.24.12.24.25h0c-.02.53-.03,1.05-.04,1.56l-.02.45c0,.13-.11.24-.25.24ZM21.93,145.99h0c-.06,0-.13-.03-.17-.08-.05-.05-.07-.11-.07-.18.02-.62.04-1.26.06-1.89v-.1c0-.14.11-.25.25-.25h0c.13,0,.24.12.24.25h0c-.02.68-.04,1.35-.06,2.01,0,.14-.12.24-.25.24ZM22.02,142.99h0c-.07,0-.13-.03-.17-.08-.05-.04-.07-.11-.07-.17.01-.27.02-.54.02-.81.01-.25.02-.51.03-.76v-.43c0-.14.12-.25.26-.25h.01c.13,0,.24.12.24.25h0v.45c-.02.22-.03.44-.03.66-.01.3-.02.6-.03.9,0,.13-.12.24-.25.24ZM22.11,139.99h-.01c-.13,0-.24-.12-.24-.25.02-.67.04-1.34.06-2,0-.14.11-.24.25-.24h0c.14,0,.24.1.25.24h0c-.02.6-.04,1.18-.05,1.77v.24c0,.14-.12.24-.26.24ZM22.19,136.99h0c-.14,0-.25-.11-.25-.25,0-.34.02-.68.03-1.02,0-.33.02-.66.03-.98h0c0-.14.11-.25.25-.25.14.01.25.12.25.25l-.02.86c-.02.38-.02.77-.03,1.15,0,.14-.12.24-.26.24ZM22.27,133.99h0c-.14,0-.25-.12-.25-.25.02-.67.04-1.34.05-2h0c0-.14.12-.25.26-.25.14.01.25.12.24.26h0c-.01.34-.01.67-.02,1-.01.33-.02.67-.03,1,0,.13-.11.24-.25.24ZM22.34,130.99h0c-.07,0-.13-.03-.18-.08-.04-.04-.07-.11-.06-.17,0-.33.01-.66.02-.99.01-.34.02-.67.02-1.01.01-.21.3-.31.43-.17.05.05.07.11.07.18,0,.67-.03,1.33-.04,2,0,.14-.12.24-.26.24ZM22.42,127.99h-.01c-.14,0-.25-.11-.25-.25.01-.33.02-.67.02-1,.01-.33.02-.67.03-1,0-.21.29-.31.43-.17.04.05.07.11.07.18l-.05,2c0,.13-.11.24-.24.24ZM22.47,124.99h0c-.07,0-.13-.02-.18-.07-.04-.05-.07-.11-.07-.18.02-.55.03-1.1.04-1.65v-.35c0-.14.12-.25.25-.25.14.01.26.12.25.26-.01.66-.02,1.33-.03,2,0,.13-.12.24-.26.24ZM22.53,121.99h0c-.14,0-.25-.11-.25-.25,0-.34,0-.67.02-1.01,0-.33,0-.66.02-.99,0-.2.29-.31.42-.17.05.05.08.11.08.18-.01.33-.02.67-.02,1.01-.01.33-.01.66-.02.99,0,.13-.11.24-.25.24ZM22.58,119h0c-.14-.01-.25-.12-.25-.26.01-.46.02-.93.02-1.39v-.61c.01-.13.13-.25.26-.25.14.01.25.12.25.26l-.03,2c0,.13-.11.25-.25.25ZM22.63,116h-.01c-.06-.01-.13-.03-.17-.08-.05-.05-.07-.11-.07-.18,0-.54,0-1.08.02-1.62v-.38c0-.14.12-.24.25-.24.15,0,.25.11.25.25,0,.33,0,.66-.01.99,0,.34,0,.67,0,1.01,0,.13-.12.25-.25.25ZM22.66,113h0c-.13-.01-.24-.12-.24-.26,0-.66,0-1.33.02-2,0-.2.29-.31.43-.17.05.05.07.11.07.18-.01.67-.01,1.33-.02,2-.01.14-.12.25-.26.25ZM22.7,110h0c-.07,0-.13-.03-.18-.08-.04-.04-.07-.11-.07-.17,0-.65.02-1.3.02-1.95v-.05c0-.14.11-.25.25-.25s.25.11.25.25h0c0,.58-.01,1.15-.01,1.72v.28c0,.14-.12.25-.26.25ZM22.73,107h0c-.14,0-.25-.11-.25-.25.01-.34.01-.67.01-1.01s0-.66,0-.99c0-.14.11-.25.25-.25s.25.11.25.25h0l-.02,2c0,.14-.11.25-.25.25ZM22.76,104h0c-.07,0-.13-.02-.18-.07s-.07-.11-.07-.18v-.33c0-.55,0-1.11,0-1.67,0-.13.11-.25.25-.25.14,0,.25.12.25.26v.3c0,.57,0,1.13,0,1.7,0,.13-.11.24-.25.24ZM22.78,101.01h0c-.14,0-.25-.12-.25-.26v-1.11c0-.29,0-.59,0-.88,0-.14.11-.25.25-.25s.25.11.25.25v2c0,.13-.13.25-.26.25ZM22.8,98.01h-.01c-.13,0-.25-.11-.25-.25.01-.67.01-1.33.01-2,0-.14.11-.25.25-.25s.25.11.25.25v1c0,.33,0,.67-.01,1,0,.14-.11.25-.24.25ZM22.81,95.01h0c-.06,0-.13-.02-.17-.07-.05-.05-.08-.11-.07-.18v-2c0-.13.11-.24.25-.24s.25.11.25.25v.15c0,.61,0,1.23,0,1.85,0,.13-.11.24-.24.24ZM22.81,92.02c-.14,0-.25-.11-.25-.25v-2c0-.14.12-.25.26-.25.13,0,.25.11.25.25-.01.67-.01,1.33-.01,2,0,.14-.11.25-.25.25ZM22.82,89.02c-.14,0-.26-.11-.26-.25v-2c0-.14.12-.25.25-.25.14,0,.25.11.25.25.01.62.01,1.23.01,1.85v.15c0,.14-.12.25-.25.25ZM22.81,86.03c-.14,0-.25-.12-.25-.26v-2c0-.06.02-.12.07-.17.14-.15.43-.03.43.17v2c0,.14-.11.26-.25.26ZM22.81,83.03c-.14,0-.25-.12-.25-.26,0-.62,0-1.25,0-1.88v-.12c0-.13.11-.25.25-.25s.25.11.25.25c0,.67,0,1.34,0,2,0,.14-.12.26-.25.26ZM22.8,80.03c-.14,0-.25-.12-.25-.26-.01-.33-.01-.67-.01-1v-1c0-.06.02-.12.07-.17.14-.15.43-.03.43.17v.99c0,.34,0,.68.01,1.01,0,.14-.12.25-.25.26h0ZM22.78,77.03c-.14,0-.25-.12-.25-.26v-2c-.01-.06,0-.12.06-.17s.11-.08.18-.08h0c.14,0,.25.12.25.25v2c.01.14-.1.25-.24.26h0ZM22.76,74.02h0c-.14,0-.25-.11-.25-.25,0-.33,0-.66-.01-.99v-1h0c0-.07.02-.13.07-.18.14-.15.42-.03.43.17v1.1c.01.3.01.6.01.9,0,.14-.11.25-.25.25ZM22.74,71.02h0c-.14,0-.25-.11-.25-.25-.01-.32-.01-.65-.01-.98s0-.68,0-1.02c0-.06.02-.13.07-.17.15-.15.43-.03.43.17l.02,2c0,.14-.11.25-.25.25ZM22.71,68.02h0c-.14,0-.25-.11-.25-.25,0-.33,0-.67,0-1s0-.66,0-1c0-.06.02-.12.07-.17.14-.15.43-.03.43.17,0,.66,0,1.33.02,2,0,.07-.03.13-.07.18-.05.05-.11.07-.18.07ZM22.68,65.02c-.14,0-.25-.11-.25-.25,0-.66-.02-1.33-.03-1.99h0c0-.07.03-.14.08-.18.14-.15.42-.03.42.17v.1c0,.63.02,1.26.03,1.9,0,.14-.11.25-.25.25h0ZM22.64,62.02h0c-.14,0-.25-.11-.25-.25,0-.66-.02-1.33-.03-1.99,0-.07.03-.13.07-.18.15-.15.43-.03.43.17,0,.54.02,1.08.03,1.63v.37c0,.14-.11.25-.25.25h0ZM22.6,59.02h0c-.14,0-.25-.11-.25-.24v-.04c0-.66-.02-1.31-.03-1.96,0-.07.02-.13.07-.18.14-.15.43-.03.43.17,0,.63.02,1.26.03,1.9v.1c0,.14-.11.25-.25.25h0ZM22.56,56.02h0c-.13,0-.24-.11-.25-.24-.01-.67-.02-1.34-.03-2,0-.07.02-.13.07-.18.15-.15.43-.03.43.17.01.66.02,1.33.03,2,0,.14-.11.25-.24.25h0ZM22.5,53.02c-.14,0-.24-.11-.25-.24,0-.33,0-.65,0-.97-.01-.35-.02-.69-.02-1.03v-.02c0-.13.11-.24.24-.24.14,0,.25.11.26.25,0,.52.02,1.05.03,1.58v.42c0,.14-.11.25-.24.25h-.01ZM22.45,50.02h0c-.14,0-.25-.11-.25-.24,0-.36,0-.71-.02-1.06,0-.32,0-.63-.02-.94,0-.07.02-.13.07-.18.14-.15.42-.03.43.17.01.66.03,1.33.04,2,0,.14-.11.25-.25.25h0ZM22.39,47.02h0c-.14,0-.25-.11-.25-.24,0-.32,0-.64-.02-.96,0-.35-.02-.7-.02-1.04,0-.07.02-.13.07-.18.14-.15.42-.03.43.17.01.66.03,1.32.04,2,0,.13-.11.25-.25.25h0ZM22.33,44.02h0c-.13,0-.24-.1-.25-.24-.01-.67-.03-1.34-.04-2,0-.07.02-.13.07-.18.04-.05.11-.08.17-.08h.01c.14,0,.24.11.25.25,0,.3,0,.61.02.92,0,.36.02.72.02,1.08,0,.14-.1.25-.24.25h0ZM22.26,41.02h-.01c-.13,0-.24-.11-.24-.24-.02-.47-.03-.93-.04-1.39l-.02-.61c0-.14.11-.25.25-.26h0c.13,0,.24.11.25.25v.2c.02.59.03,1.19.04,1.8.01.06-.02.13-.06.17-.05.05-.11.08-.18.08h0ZM22.18,38.02h0c-.14,0-.25-.11-.25-.24,0-.36-.02-.72-.03-1.07-.01-.31-.01-.62-.02-.93h0c0-.15.11-.25.24-.26h.01c.13,0,.24.11.25.25,0,.58.03,1.18.04,1.78v.22c0,.06-.01.13-.06.17-.05.05-.11.08-.17.08h-.01ZM22.11,35.02h-.01c-.14,0-.25-.11-.25-.24-.02-.67-.04-1.34-.06-2v-.02c0-.12.11-.23.25-.24h0c.14,0,.25.11.25.25l.02.59c.01.47.03.93.04,1.41,0,.13-.11.25-.24.25h0ZM22.02,32.02h0c-.14,0-.25-.1-.26-.24v-.21c-.02-.61-.04-1.2-.06-1.79h0c0-.15.11-.25.24-.26h0c.14,0,.25.11.25.25v.15c.03.61.04,1.22.06,1.85,0,.13-.1.25-.24.25h0ZM21.93,29.02h0c-.14,0-.25-.1-.25-.24-.02-.67-.04-1.34-.07-2h0c.01-.14.11-.25.25-.26h0c.14,0,.25.11.25.25.02.36.03.73.04,1.11.01.29.02.59.03.89,0,.06-.02.13-.07.17-.04.05-.1.08-.17.08h0ZM21.83,26.03h0c-.14,0-.24-.11-.25-.25-.01-.39-.03-.78-.04-1.16-.01-.28-.02-.56-.03-.84h0c0-.14.11-.25.24-.25.14,0,.25.1.26.24.02.65.05,1.32.07,2,0,.06-.02.13-.07.18-.04.04-.1.07-.17.08h0ZM21.72,23.03h-.01c-.13,0-.24-.11-.25-.25-.02-.67-.05-1.34-.07-1.99v-.02c0-.13.1-.24.24-.24h0c.13,0,.24.1.25.23h0v.07c.02.63.05,1.28.07,1.94.01.13-.1.25-.24.26h0ZM21.6,20.03h0c-.13,0-.24-.11-.24-.24-.02-.48-.04-.96-.06-1.42l-.03-.59c0-.14.11-.25.24-.25h.02c.13,0,.24.1.24.24.03.65.06,1.31.09,2,0,.13-.11.25-.24.26h-.01ZM21.48,17.03h0c-.13,0-.24-.11-.25-.24-.02-.49-.04-.98-.07-1.45l-.02-.56c0-.14.1-.24.24-.25h.01c.13,0,.24.1.25.24.02.46.04.94.06,1.42l.03.58c0,.14-.1.25-.24.26h0ZM21.34,14.03h-.01c-.13,0-.24-.1-.25-.24-.03-.69-.06-1.35-.1-2h0c0-.14.11-.25.24-.26h0c.13,0,.24.11.25.24.03.64.07,1.31.1,2,.01.14-.1.25-.24.26h0ZM21.19,11.03h-.01c-.13,0-.25-.1-.25-.23-.04-.7-.08-1.37-.11-2-.01,0-.01-.01-.01-.01,0-.14.11-.25.24-.26h0c.14,0,.25.11.25.24v.19c.05.58.08,1.18.12,1.81.01.14-.1.25-.24.26h0ZM21,8.04c-.13,0-.24-.11-.25-.24-.04-.76-.09-1.46-.13-1.99v-.02c0-.06.02-.12.06-.16.05-.05.11-.08.17-.09.12,0,.26.09.27.23.04.53.09,1.24.13,2,.01.07,0,.13-.06.18-.04.05-.1.08-.17.09h-.02Z"/>
  <path class="st1" d="M212.87,195.44c0,21.39,0,16.69,2.61,33.84-34.93-1.8-57.23-8.46-82.45-5.3-14.03,1.75-28.96,6.53-47.48,16.88-51.81,28.94-79.29,24.96-79.29,24.96,2.61-39.7,1.57-56.3,3.66-124.64,1.71-56,.89-110.19-.45-128.97-.24-3.47,2.51-6.42,5.99-6.42l88.89-2.87c57.39,0,116.35,33.91,116.35,101.21s-7.83,69.92-7.83,91.31Z"/>
</svg>