<?xml version="1.0" encoding="UTF-8"?>
<svg id="Livello_2" xmlns="http://www.w3.org/2000/svg" version="1.1" viewBox="0 0 756.78 679.7">
  <!-- Generator: Adobe Illustrator 29.8.1, SVG Export Plug-In . SVG Version: 2.1.1 Build 2)  -->
  <defs>
    <style>
      .st0 {
        fill: none;
      }

      .st0, .st1 {
        stroke: #131211;
        stroke-linecap: round;
        stroke-linejoin: round;
      }

      .st1 {
        fill: #002bff;
      }

      .st2 {
        fill: #ff7900;
      }

      .st3 {
        fill: red;
      }

      .st4, .st5 {
        fill: #131211;
      }

      .st6 {
        fill: #df00ff;
      }

      .st5 {
        opacity: .11;
      }
    </style>
  </defs>
  <path class="st6" d="M413.32,407.27c-1.59,2.71-3.21,5.47-4.86,8.27-11.73.91-16.97.91-31.97.91s-20.56,0-31.95-.86c-1.66-2.81-3.29-5.59-4.89-8.32,16.02,1.34,19.8,1.34,36.84,1.34,8.7,0,13.95,0,19.14-.18,4.96-.17,9.86-.5,17.69-1.16Z"/>
  <path class="st2" d="M531.4,324.51c-.06-.2-.11-.41-.17-.62-6.26-23.28-15.85-41.28-29.54-64.37-13.7-23.09-38.15-45.59-59.48-58.3-21.32-12.72-55.35-21.71-65.73-21.72h-.01c-10.38.01-44.42,9-65.73,21.72-21.33,12.71-45.78,35.21-59.48,58.3-13.7,23.09-23.28,41.09-29.54,64.37-.06.21-.11.42-.17.62-6.14,22.79-8.95,29.98.17,39.29,4.37,4.47,16.87,14.19,31.86,24.95,0,0-5.71,6.75-11.45,13.01,30.03,58.93,86.27,73.97,121.24,76.75,1.43.11,2.83.2,4.18.28,3.21.18,6.2.25,8.93.25,3.88,0,8.29-.15,13.1-.53,34.95-2.78,91.2-17.82,121.24-76.75-5.74-6.26-11.45-13.01-11.45-13.01,14.99-10.76,27.5-20.48,31.86-24.95,9.12-9.31,6.31-16.5.17-39.29ZM376.14,462.87v-.03s0,.01,0,.02c0,0,.01,0,.01-.02v.03h-.02ZM501.3,367.72c-17.02,12.71-59.67,40.3-80.22,52.23-19.9,11.57-29.52,24.23-30.1,25.01-.02.03-.03.04-.03.04-6.35,6.97-11.04,12.96-14.48,17.87-3.43-4.91-8.12-10.89-14.47-17.87,0,0-.01-.01-.03-.04-.58-.78-10.19-13.44-30.1-25.01-20.54-11.93-63.19-39.52-80.22-52.23-16.77-12.54-22.14-20.89-22.29-29.74,13.86-9.85,57.11-11.09,147.12-11.09,56.48,0,94.54.49,118.49,3.29,14.23,1.66,23.48,4.13,28.64,7.81,0,9-5.29,17.01-22.31,29.73Z"/>
  <path class="st3" d="M494.97,330.18c-23.95-2.8-62.01-3.29-118.49-3.29-90.01,0-133.26,1.24-147.12,11.09.15,8.85,5.52,17.2,22.29,29.74,17.03,12.71,59.68,40.3,80.22,52.23,19.91,11.57,29.52,24.23,30.1,25.01.02.03.03.04.03.04,6.35,6.98,11.04,12.96,14.47,17.87,3.44-4.91,8.13-10.9,14.48-17.87,0,0,.01-.01.03-.04.58-.78,10.2-13.44,30.1-25.01,20.55-11.93,63.2-39.52,80.22-52.23,17.02-12.72,22.31-20.73,22.31-29.73-5.16-3.68-14.41-6.15-28.64-7.81ZM408.45,415.54c-11.73.91-16.97.91-31.97.91s-20.56,0-31.95-.86c-1.66-2.81-3.29-5.59-4.89-8.32,16.02,1.34,19.8,1.34,36.84,1.34,8.7,0,13.95,0,19.14-.18,4.96-.17,9.86-.5,17.69-1.16-1.59,2.71-3.21,5.47-4.86,8.27Z"/>
  <path class="st4" d="M460.24,179.5"/>
  <path class="st5" d="M376.15,326.89h-.02c-124.68,0-159.64,2.38-151.03,26.73,0,0,5.61,16.06,46.51,28.28-11.6-7.94-23.52-16.46-26.78-19.3-8.83-6.82,44.58-24.8,73.93,8.55l40.15,69.24s2.72,4.18,7.33,9.78c2.33,3.7,9.45,12.15,9.89,12.67,0,.01.01.01.01.02,0,0,.01,0,.01-.02.44-.52,7.56-8.97,9.89-12.67,4.61-5.6,7.33-9.78,7.33-9.78l40.15-69.24c29.35-33.35,82.76-15.37,73.93-8.55-3.26,2.84-15.18,11.36-26.78,19.3,40.9-12.22,46.51-28.28,46.51-28.28,8.61-24.35-26.35-26.73-151.03-26.73ZM373.33,443.09c-3.06-4.93-5.77-8.84-9.14-13.41-1.6-2.17-.05-5.24,2.64-5.24h18.58c2.7,0,4.25,3.07,2.64,5.24-3.37,4.56-6.08,8.48-9.13,13.41-1.29,2.08-4.31,2.08-5.59,0ZM412.1,366.21c-.99,2.55-2.62,4.79-4.23,7-2.16,2.95-4.37,5.93-7.19,8.26-1.82,1.51-3.87,2.73-5.93,3.9-5.75,3.26-12,6.29-18.62,6.12-6.62.17-12.87-2.86-18.63-6.12-2.06-1.17-4.1-2.39-5.93-3.9-2.82-2.33-5.02-5.31-7.19-8.26-1.61-2.21-3.23-4.45-4.22-7-.42-1.08-.73-2.19-.94-3.32-1.05-5.7,3.32-10.96,9.12-11.04,9.26-.12,18.86-.35,27.79-.37,8.92.01,18.52.25,27.78.37,5.79.08,10.17,5.33,9.12,11.03-.21,1.13-.51,2.25-.93,3.33Z"/>
  <path class="st0" d="M408.52,415.42c25.11-42.63,43.76-76.47,43.76-86.16"/>
  <path class="st0" d="M367.55,478.78c.4-1.19,2.46-6.67,8.92-15.92"/>
  <path class="st0" d="M390.94,444.99s9.59-13.11,30.13-25.04c20.54-11.93,63.2-39.52,80.22-52.24,17.02-12.72,22.3-20.73,22.3-29.73"/>
  <path class="st0" d="M408.52,446.41c-8.67,5.59-18.94,21.13-18.94,32.09"/>
  <path class="st0" d="M300.67,329.26c0,9.69,18.65,43.53,43.76,86.16"/>
  <path class="st0" d="M373.81,466.82c-7.66-6.18-18.19-13.3-29.37-20.38-.01-.01-.02-.01-.03-.02-13.59-8.61-28.15-17.16-39.75-23.92-14.98-8.72-34.55-21.87-51.09-33.75-14.99-10.76-27.49-20.48-31.86-24.95-9.2-9.39-6.26-16.63,0-39.91,6.26-23.28,15.84-41.28,29.54-64.37,13.7-23.09,38.15-45.59,59.48-58.3,21.31-12.72,55.35-21.71,65.73-21.72h.01-.01c10.37,0,44.41,9,65.74,21.72,21.33,12.71,45.78,35.21,59.48,58.3,13.69,23.09,23.28,41.09,29.54,64.37,6.26,23.28,9.2,30.52,0,39.91-9.19,9.39-54.39,42.07-82.95,58.7-28.38,16.52-74.51,43.86-80.68,56.29l6.22-11.97Z"/>
  <path class="st0" d="M361.99,444.99s-9.59-13.11-30.13-25.04c-20.54-11.93-63.2-39.52-80.22-52.24-17.02-12.72-22.3-21.13-22.3-30.13"/>
  <path class="st0" d="M225.43,353.63c-8.61-24.36,26.35-26.74,151.04-26.74h0c124.7,0,159.65,2.38,151.04,26.74"/>
  <path class="st0" d="M221.54,324.51c13.67-13.15,58.78-15.67,154.93-15.67,96.15,0,141.26,2.53,154.93,15.67"/>
  <path class="st0" d="M339.59,407.18c16.93,1.42,19.47,1.42,36.88,1.42h0c17.41,0,19.96,0,36.88-1.42"/>
  <path class="st0" d="M408.52,415.42c-5.58,9.48-11.48,19.39-17.57,29.57-6.35,6.97-11.04,12.96-14.48,17.87-3.43-4.91-8.12-10.89-14.47-17.87-6.09-10.18-11.99-20.09-17.57-29.57,12.78,1.02,16.43,1.02,32.04,1.02s19.26,0,32.05-1.02Z"/>
  <line class="st0" x1="344.43" y1="415.42" x2="344.42" y2="415.42"/>
  <path class="st0" d="M344.42,446.41c8.67,5.59,18.94,21.13,18.94,32.09"/>
  <path class="st0" d="M253.57,388.75s-5.71,6.74-11.45,13.01c34.17,67.04,102.26,77.28,134.35,77.28,32.09,0,100.17-10.24,134.35-77.28-5.74-6.26-11.45-13.01-11.45-13.01"/>
  <path class="st5" d="M376.14,462.86h-.01s0-.02,0-.02c0,.01.01.01.01.02Z"/>
  <path class="st5" d="M376.15,462.84v.03h-.01s.01-.02.01-.03Z"/>
  <path class="st4" d="M376.47,179.5"/>
  <line class="st0" x1="376.47" y1="408.6" x2="376.47" y2="179.5"/>
  <path class="st5" d="M251.4,391.29c30.03,23.99,47.44,33.63,63.29,42.61,15.85,8.97,48.82,28.2,57.58,35.9,1.09-2.09,1.55-2.98,1.55-2.98,0,0-8.91-7.15-19.47-13.97-10.56-6.82-38.19-22.98-53.68-32.71-15.49-9.73-47.08-31.38-47.08-31.38l-2.17,2.54Z"/>
  <path class="st5" d="M501.53,391.29c-30.03,23.99-47.44,33.63-63.29,42.6-14.87,8.42-44.8,25.86-55.67,34.34-1.3,1.02-2.63,2-4,2.93-2.5,1.71-6.6,4.76-8.69,7.74-1.38-.13-2.33-.11-2.33-.11,0,0,5.07-8.08,11.57-11.97,0,0,8.91-7.15,19.47-13.98,10.56-6.82,38.19-22.98,53.68-32.71,15.49-9.73,47.08-31.38,47.08-31.38l2.18,2.54Z"/>
  <path class="st1" d="M408.52,415.42c-5.58,9.48-11.48,19.39-17.57,29.57-6.35,6.97-11.04,12.96-14.48,17.87-3.43-4.91-8.12-10.89-14.47-17.87-6.09-10.18-11.99-20.09-17.57-29.57,12.78,1.02,16.43,1.02,32.04,1.02s19.26,0,32.05-1.02Z"/>
</svg>