<?xml version="1.0" encoding="UTF-8"?>
<svg id="Livello_1" xmlns="http://www.w3.org/2000/svg" version="1.1" viewBox="0 0 577.91 1024">
  <!-- Generator: Adobe Illustrator 29.8.1, SVG Export Plug-In . SVG Version: 2.1.1 Build 2)  -->
  <defs>
    <style>
      .st0 {
        fill: #131211;
      }

      .st1 {
        fill: #000209;
      }

      .st2 {
        stroke: #131211;
        stroke-width: 1.2px;
      }

      .st2, .st3 {
        fill: none;
        stroke-linecap: round;
        stroke-linejoin: round;
      }

      .st3 {
        stroke: #0043ff;
        stroke-dasharray: 4 3.5 0 0;
      }
    </style>
  </defs>
  <line class="st3" x1="271.09" y1="997.65" x2="271.09" y2="382.99"/>
  <line class="st2" x1="216.96" y1="283.88" x2="216.96" y2="283.87"/>
  <path class="st0" d="M216.06,285.15c5.3,18.47,28.39,47.04,45.71,66.62-3.4-1.9-7.14-3.5-11.28-4.84-12.04-3.88-25.51-6.15-42.56-9.02-16.08-2.71-36.08-6.08-61.75-11.96-46.75-10.71-73.69-23.37-83.05-29.03,4.75-.88,10.99-1.72,19.65-2.65,21.51-2.29,65.94-4.98,98.39-6.94,14.41-.87,26.93-1.63,34.91-2.19M216.96,283.88c-25.4,1.83-103.07,5.87-134.32,9.2-9.85,1.06-17.2,2.06-22.64,3.24,7.59,5.48,36.22,19.42,85.91,30.8,52.88,12.1,80.95,13.46,104.22,20.95,8.64,2.79,14.93,6.56,19.89,11.06-15.83-17.31-47.54-53.88-53.04-75.25h0Z"/>
  <path class="st0" d="M288.77,280.44c17.02,0,36.04,1.63,54.43,3.21,5.05.43,9.81.84,14.5,1.21.41.04.85.07,1.3.1.01,0,.03,0,.04,0-6.23,20.74-35.23,54.59-52.26,73.23-.04.04-.08.07-.1.1-7.38,6.69-11.9,15.03-16.68,23.86-.41.75-.82,1.51-1.23,2.27-.41-.75-.81-1.5-1.22-2.24-4.79-8.84-9.31-17.19-16.71-23.9-17.05-18.64-46.11-52.53-52.34-73.31.01,0,.03,0,.04,0,.45-.03.89-.07,1.29-.1,4.64-.37,9.34-.77,14.32-1.2,6.62-.57,13.46-1.15,20.26-1.66,13.95-1.06,24.87-1.56,34.35-1.56M288.77,279.24c-10.87,0-22.64.66-34.44,1.56-11.81.88-23.63,1.99-34.59,2.86-.84.07-1.77.13-2.79.22,5.5,21.36,37.21,57.94,53.04,75.25,8.39,7.59,12.97,17.28,18.77,27.79,5.81-10.53,10.39-20.21,18.78-27.79.01-.01.03-.04.06-.06,15.83-17.32,47.49-53.84,52.98-75.19-1.02-.09-1.95-.15-2.79-.22-21.92-1.74-47.31-4.42-69.04-4.42h0Z"/>
  <line class="st3" x1="306.47" y1="997.65" x2="306.47" y2="382.99"/>
  <path class="st0" d="M361.5,285.15c7.97.56,20.5,1.32,34.9,2.19,32.44,1.96,76.88,4.64,98.39,6.94,8.65.93,14.88,1.77,19.64,2.65-9.36,5.66-36.3,18.32-83.05,29.03-25.67,5.88-45.68,9.25-61.75,11.96-17.05,2.87-30.52,5.14-42.56,9.02-4.13,1.33-7.87,2.93-11.25,4.82,17.3-19.58,40.39-48.15,45.69-66.6M360.6,283.88c-5.5,21.35-37.15,57.86-52.98,75.19,4.94-4.48,11.22-8.23,19.81-11,23.26-7.49,51.33-8.85,104.22-20.95,49.68-11.38,78.31-25.31,85.9-30.8-5.44-1.18-12.78-2.18-22.63-3.24-31.25-3.33-108.92-7.37-134.32-9.2h0Z"/>
  <line class="st2" x1="360.6" y1="283.88" x2="360.6" y2="283.87"/>
  <line class="st2" x1="386.1" y1="50.24" x2="386.1" y2="50.23"/>
  <path class="st1" d="M190.15,52.72c-.31,5.45-1.11,11.17-2.02,17.65-1,7.09-2.12,15.13-2.85,24.66-1.36,17.88.59,41.09,2.47,63.53,1.31,15.63,2.55,30.39,2.55,42.14,0,18.35-.41,43.27-.67,57.21l-7.31.44c-32.9,1.99-77.96,4.71-99.81,7.03-11.54,1.23-19.07,2.34-24.43,3.63.18-.52.34-1.01.5-1.5,1.76-5.28,4.42-13.74,7.5-23.54,7.18-22.85,16.12-51.28,21.31-64.07,8.2-20.18,27.82-57.38,43.87-73.15,16.29-16,40.4-38.18,57.34-52.73.51-.44,1.02-.87,1.55-1.29M191.46,50.24c-1.31.93-2.52,1.89-3.64,2.86-16.44,14.12-40.66,36.34-57.39,52.78-16.73,16.44-36.64,55.09-44.14,73.55-7.49,18.46-23.07,70.38-28.84,87.69-.4,1.22-.81,2.42-1.24,3.61,5.66-1.61,14.08-2.86,26.43-4.17,23.71-2.52,74.11-5.47,108.17-7.53.29-15.6.69-40.23.69-58.34,0-28.56-7.33-75.28-5.03-105.57,1.49-19.48,4.64-32.63,4.98-44.88h0Z"/>
  <path class="st1" d="M253.89,371.22c9.93,1.66,21.39,7.13,28.53,11.98.28.3,1.49,1.69,1.38,3.09-.05.75-.49,1.41-1.31,2.03-.35.26-.71.38-1.11.38-.26,0-.56-.05-.89-.15-1.84-.57-4.23-2.67-6.76-4.89-2.26-1.98-4.81-4.23-7.55-5.91-4.2-2.59-8.39-4.8-12.29-6.51M243.5,368.96c6.32,1.31,14.57,5.17,22.05,9.79,5.81,3.57,10.75,9.73,14.58,10.92.43.14.84.21,1.24.21.64,0,1.25-.19,1.82-.61,3.91-2.9.32-6.68.01-6.99h-.01c-7.95-5.44-21.51-11.81-32.49-12.68-1.9-.15-4.35-.37-7.21-.65h0Z"/>
  <path class="st1" d="M288.77,27.77c40.04,0,75.92,8.63,96.15,23.1.21,6.17,1.11,12.52,2.13,19.84.99,7.06,2.11,15.06,2.83,24.5,1.34,17.69-.6,40.8-2.47,63.14-1.32,15.68-2.56,30.49-2.56,42.34,0,18.29.41,43.08.67,57.06-13.43-.82-22.48-1.41-27.64-1.81-4.69-.37-9.44-.78-14.47-1.21-18.45-1.58-37.52-3.22-54.65-3.22s-36.2,1.63-54.65,3.22c-5.03.43-9.78.84-14.47,1.21-5.19.4-14.24.99-27.62,1.81.26-13.98.67-38.77.67-57.06,0-11.84-1.24-26.65-2.56-42.34-1.88-22.35-3.81-45.46-2.47-63.14.72-9.45,1.84-17.45,2.83-24.5,1.03-7.31,1.92-13.65,2.13-19.85,20.24-14.47,56.11-23.09,96.14-23.09M192.66,50.23h0,0M288.77,26.57c-45.69,0-79.6,10.76-97.32,23.66h0c-.34,12.27-3.49,25.42-4.98,44.89-2.3,30.3,5.03,77.02,5.03,105.57,0,18.1-.4,42.74-.69,58.34,12.63-.77,23.01-1.43,28.94-1.89,21.91-1.74,47.29-4.42,69.02-4.42s47.12,2.68,69.02,4.42c5.93.46,16.32,1.12,28.95,1.89-.29-15.6-.69-40.23-.69-58.34,0-28.56,7.33-75.28,5.03-105.57-1.49-19.48-4.64-32.63-4.98-44.88-17.72-12.91-51.63-23.68-97.33-23.68h0Z"/>
  <path class="st1" d="M387.41,52.74c.52.42,1.04.84,1.54,1.27,16.93,14.55,41.04,36.72,57.33,52.72,16.05,15.77,35.67,52.97,43.87,73.15,5.19,12.79,14.13,41.22,21.31,64.07,3.08,9.8,5.74,18.27,7.5,23.54.16.49.33.99.5,1.51-5.36-1.29-12.89-2.41-24.43-3.63-21.32-2.27-63.5-4.83-97.39-6.88l-9.71-.59c-.26-13.93-.67-38.85-.67-57.21,0-11.74,1.24-26.51,2.55-42.14,1.88-22.44,3.83-45.65,2.47-63.53-.73-9.52-1.86-17.56-2.85-24.65-.91-6.47-1.71-12.18-2.02-17.63M386.1,50.24c.34,12.25,3.49,25.4,4.98,44.88,2.3,30.3-5.03,77.02-5.03,105.57,0,18.1.4,42.74.69,58.34,34.06,2.08,84.46,5.01,108.15,7.53,12.35,1.31,20.77,2.57,26.43,4.17-.43-1.19-.84-2.39-1.24-3.61-5.76-17.31-21.35-69.23-28.84-87.69-7.5-18.46-27.41-57.11-44.14-73.55-16.73-16.44-40.95-38.66-57.39-52.78-1.12-.96-2.33-1.92-3.63-2.86h0Z"/>
  <path class="st1" d="M288.77,253.92c17.03,0,36.05,1.63,54.45,3.21,5.03.43,9.79.84,14.48,1.21,5.34.41,14.81,1.03,28.97,1.89l10.81.66c33.87,2.05,76.02,4.61,97.28,6.87,12.59,1.34,20.33,2.53,25.63,3.97,1.09,3.14,2.19,6.18,3.25,9.12,2.55,7.05,4.86,13.45,6.28,19.05-2.5-2.04-6.38-3.49-12.14-4.74-5.14-1.12-12.16-2.12-22.76-3.26-21.57-2.3-66.03-4.98-98.5-6.95-15.01-.91-27.97-1.69-35.84-2.26-.53-.05-1.03-.08-1.52-.12-.44-.03-.87-.07-1.28-.1-4.7-.37-9.46-.78-14.5-1.21-18.44-1.58-37.51-3.21-54.63-3.21-9.54,0-20.52.5-34.53,1.57-6.82.51-13.66,1.1-20.29,1.66-4.97.43-9.67.83-14.32,1.2-.4.04-.83.07-1.27.1-.48.04-.99.07-1.5.12-7.89.57-20.85,1.35-35.86,2.26-32.47,1.96-76.93,4.65-98.5,6.95-10.61,1.14-17.64,2.15-22.77,3.26-5.76,1.25-9.65,2.7-12.14,4.74,1.42-5.61,3.73-12,6.28-19.05,1.06-2.94,2.16-5.98,3.25-9.12,5.3-1.43,13.04-2.63,25.63-3.97,21.79-2.32,66.82-5.04,99.7-7.02l8.41-.51c14.12-.86,23.59-1.47,28.96-1.89,4.69-.37,9.45-.78,14.48-1.21,18.4-1.58,37.42-3.21,54.45-3.21M288.77,252.72c-21.73,0-47.12,2.68-69.02,4.42-5.93.46-16.31,1.12-28.94,1.89-34.06,2.06-84.46,5.01-108.17,7.53-12.35,1.31-20.77,2.57-26.43,4.17-5.01,14.51-10.33,27.07-11.15,36.52.63-5.47,3.91-8.54,14.93-10.92,5.44-1.18,12.8-2.18,22.64-3.24,31.25-3.33,108.92-7.37,134.32-9.2,1.02-.09,1.95-.15,2.79-.22,10.95-.87,22.78-1.98,34.59-2.86,11.79-.9,23.57-1.56,34.44-1.56,21.73,0,47.12,2.68,69.04,4.42.84.07,1.77.13,2.79.22,25.4,1.83,103.07,5.87,134.32,9.2,9.85,1.06,17.19,2.06,22.63,3.24,11.03,2.39,14.3,5.45,14.93,10.92-.81-9.45-6.13-22.01-11.15-36.52-5.66-1.61-14.08-2.86-26.43-4.17-23.69-2.52-74.1-5.45-108.15-7.53-12.63-.77-23.03-1.43-28.95-1.89-21.91-1.74-47.29-4.42-69.02-4.42h0Z"/>
  <path class="st1" d="M59.74,297.61c9.65,6.71,39.96,20.16,85.9,30.68,25.74,5.89,45.78,9.27,61.89,11.98,16.96,2.86,30.35,5.12,42.23,8.94,7.88,2.54,14.24,6.07,19.45,10.8,6.7,6.06,11.02,13.68,15.43,21.79-.22-.16-.44-.31-.67-.47-.03-.02-.05-.04-.08-.06-8.18-5.58-22.02-11.99-33.08-12.87-1.86-.14-4.28-.36-7.18-.65-.02,0-.03,0-.05,0-18.4-1.79-54.8-5.98-74.58-9.33-22.91-3.89-67.06-14.61-83.3-19.77-15.92-5.05-39.54-19.47-39.54-29.03,0-.69.02-1.25.05-1.71l.06-.52c.52-4.49,2.84-7.4,13.48-9.78M60,296.33c-11.03,2.39-14.3,5.45-14.93,10.92l-.06.53c-.04.59-.06,1.19-.06,1.84,0,10.38,24.03,24.99,40.38,30.18,16.35,5.2,60.77,15.97,83.46,19.81,19.68,3.33,56.01,7.53,74.7,9.35h.01c2.86.28,5.31.5,7.21.65,10.98.87,24.55,7.24,32.49,12.66h.01c2.48,1.71,4.42,3.32,5.56,4.64-5.79-10.51-10.38-20.2-18.77-27.79-4.95-4.5-11.25-8.27-19.89-11.06-23.26-7.49-51.33-8.85-104.22-20.95-49.68-11.38-78.31-25.31-85.91-30.8h0Z"/>
  <path class="st1" d="M517.81,297.61c10.64,2.38,12.96,5.29,13.48,9.77l.06.49c.04.51.06,1.06.06,1.75,0,9.56-23.62,23.98-39.54,29.03-16.23,5.17-60.38,15.89-83.29,19.77-19.84,3.36-56.25,7.56-74.6,9.34-2.96.29-5.39.51-7.22.65-11.06.88-24.9,7.28-33.07,12.87-.02.02-.05.03-.07.05-.23.16-.46.31-.68.47,4.41-8.11,8.74-15.74,15.44-21.79.02-.01.03-.03.04-.04,0,0,.02-.02.03-.03,5.17-4.69,11.51-8.2,19.37-10.74,11.87-3.82,25.27-6.08,42.23-8.94,16.11-2.71,36.15-6.09,61.89-11.98,45.94-10.52,76.25-23.97,85.9-30.68M308.52,359.84h0,0M517.55,296.33c-7.59,5.48-36.22,19.42-85.9,30.8-52.88,12.1-80.95,13.46-104.22,20.95-8.59,2.77-14.88,6.52-19.81,11-.03.01-.04.04-.06.06-8.39,7.58-12.97,17.26-18.78,27.79,1.14-1.33,3.08-2.93,5.56-4.63h.01c7.95-5.44,21.51-11.81,32.49-12.68,1.92-.15,4.36-.37,7.24-.65,18.71-1.81,55-6.01,74.69-9.35,22.69-3.85,67.11-14.61,83.46-19.81,16.35-5.19,40.38-19.8,40.38-30.18,0-.65-.01-1.25-.06-1.84l-.06-.53c-.63-5.47-3.91-8.54-14.93-10.92h0Z"/>
  <path class="st1" d="M323.69,371.21c-3.91,1.71-8.11,3.93-12.32,6.52-2.74,1.68-5.3,3.93-7.55,5.91-2.53,2.22-4.92,4.32-6.76,4.89-.32.1-.62.15-.88.15-.41,0-.76-.12-1.11-.37-.83-.62-1.27-1.28-1.32-2.03-.1-1.39,1.08-2.76,1.39-3.09,7.14-4.86,18.63-10.33,28.56-11.98M334.08,368.96c-2.87.28-5.32.5-7.24.65-10.98.87-24.55,7.24-32.49,12.66h-.01c-.31.32-3.89,4.1.01,7,.57.42,1.18.61,1.82.61.4,0,.81-.07,1.24-.21,3.83-1.19,8.77-7.36,14.58-10.92,7.5-4.61,15.76-8.48,22.08-9.79h0Z"/>
  <path class="st1" d="M286.21,386.07c.67.58,1.23,1.13,1.65,1.63.23.27.56.42.91.42s.68-.15.91-.42c.42-.5.98-1.04,1.65-1.63,0,.13,0,.26.01.38.11,1.46.88,2.74,2.29,3.79.76.56,1.61.84,2.53.84.01,0,.03,0,.04,0v605.36h-14.88V391.08s.03,0,.04,0c.92,0,1.77-.28,2.54-.84,1.41-1.05,2.18-2.32,2.28-3.78,0-.13.01-.26.01-.38M294.33,382.29c-2.48,1.7-4.42,3.3-5.56,4.63-1.14-1.33-3.08-2.93-5.56-4.63.31.31,3.89,4.08-.01,6.99-.57.42-1.18.61-1.82.61-.4,0-.81-.07-1.24-.21v607.97h17.28V389.68c-.43.14-.84.21-1.24.21-.64,0-1.25-.19-1.82-.61-3.91-2.9-.32-6.68-.01-6.99h0Z"/>
  <path class="st0" d="M288.77,27.77c40.36,0,76.48,8.76,96.62,23.44,1.33.98,2.49,1.9,3.55,2.8,16.96,14.57,41.07,36.75,57.34,52.73,16.04,15.76,35.66,52.96,43.87,73.14,5.19,12.81,14.52,42.5,21.34,64.17,3.07,9.76,5.72,18.18,7.47,23.44.43,1.31.84,2.5,1.25,3.63,1.16,3.37,2.34,6.63,3.48,9.78,3.75,10.38,7,19.35,7.61,26.48l.06.5c.03.48.05,1,.05,1.73,0,9.56-23.62,23.98-39.54,29.04-16.23,5.17-60.38,15.89-83.29,19.77-19.85,3.37-56.25,7.56-74.6,9.34-.04,0-.09.01-.13.02-6.03,1.25-14.22,4.87-22.46,9.94-2.74,1.68-5.3,3.93-7.56,5.92-2.53,2.22-4.91,4.31-6.75,4.89-.5.16-.84.62-.84,1.15v606.76h-14.88V389.68c0-.52-.34-.99-.84-1.15-1.84-.58-4.23-2.67-6.76-4.89-2.26-1.98-4.81-4.23-7.55-5.91-8.24-5.07-16.42-8.7-22.45-9.94-.05-.01-.11-.02-.16-.02-18.39-1.78-54.8-5.98-74.59-9.34-22.92-3.88-67.07-14.6-83.3-19.77-15.92-5.05-39.54-19.47-39.54-29.04,0-.56,0-1.16.05-1.71l.06-.56c.61-7.11,3.86-16.1,7.62-26.5,1.13-3.13,2.3-6.37,3.46-9.71.41-1.14.82-2.34,1.25-3.64,1.75-5.25,4.39-13.65,7.44-23.37,6.82-21.7,16.17-51.42,21.37-64.24,8.2-20.17,27.81-57.37,43.87-73.15,16.23-15.95,40.34-38.12,57.33-52.73,1.14-.99,2.34-1.93,3.55-2.79.04-.03.08-.06.12-.09,20.17-14.63,56.23-23.35,96.51-23.35M192.65,50.23h0,0M288.77,26.57c-45.69,0-79.6,10.76-97.32,23.66h0c-1.31.94-2.52,1.9-3.64,2.87-16.44,14.13-40.66,36.34-57.39,52.78-16.74,16.44-36.64,55.09-44.14,73.55-7.49,18.46-23.08,70.38-28.84,87.69-.4,1.22-.81,2.42-1.24,3.61-5.01,14.51-10.33,27.07-11.14,36.52l-.06.53c-.05.59-.06,1.19-.06,1.84,0,10.38,24.03,24.99,40.38,30.18,16.35,5.21,60.77,15.97,83.46,19.81,19.68,3.34,56,7.54,74.7,9.35h.01c6.33,1.31,14.57,5.18,22.06,9.79,5.81,3.57,10.74,9.73,14.58,10.93v607.96h17.28V389.68c3.83-1.2,8.77-7.36,14.58-10.93,7.5-4.61,15.76-8.48,22.08-9.79,18.71-1.81,55-6.01,74.69-9.35,22.69-3.84,67.1-14.6,83.45-19.81,16.35-5.19,40.38-19.8,40.38-30.18,0-.65-.01-1.25-.05-1.84l-.06-.53c-.81-9.45-6.14-22.01-11.15-36.52-.43-1.19-.84-2.39-1.24-3.61-5.76-17.31-21.35-69.23-28.83-87.69-7.51-18.46-27.41-57.11-44.14-73.55-16.74-16.44-40.96-38.65-57.4-52.78-1.12-.96-2.33-1.91-3.62-2.86-17.72-12.91-51.63-23.67-97.33-23.67h0Z"/>
  <line class="st2" x1="-232.48" y1="50.24" x2="-232.48" y2="50.23"/>
</svg>