<?xml version="1.0" encoding="UTF-8"?>
<svg id="Livello_2" xmlns="http://www.w3.org/2000/svg" version="1.1" viewBox="0 0 350 350">
  <!-- Generator: Adobe Illustrator 29.8.1, SVG Export Plug-In . SVG Version: 2.1.1 Build 2)  -->
  <defs>
    <style>
      .st0 {
        fill: none;
        stroke: #131211;
        stroke-linecap: round;
        stroke-linejoin: round;
        stroke-width: 1.2px;
      }
    </style>
  </defs>
  <path class="st0" d="M334.79,255.28c-1.76,17.02-31.3,20.16-72,23.29-33.06,2.54-68.97,3.11-81.27,9.8-.18.1-.35.2-.52.3-.75.45-1.4.92-1.94,1.41l-3.84.59c-.39-.37-.85-.75-1.37-1.13h0c-6.38-4.63-22.14-9.59-47.35-12.8-33.78-4.3-46.7-3.52-73.7-6.39s-37.82-7.96-37.82-14.74c-.07-14.51,3.26-57.65,10.69-70.57,6.01-10.43,15.72-24.19,25.94-33.93l.05-.05c13.94-14.58,20.21-33.33,37.01-44.28,16.83-10.95,29.16-23.48,43.05-30.91,13.89-7.43,15.06-19.96,38.74-19.96,15.65,0,14.57,5.87,22.2,7.83,7.63,1.96,11.06-2.25,28.67,11.15,17.6,13.4,32.34,21.46,54.78,47.94,22.43,26.47,41.22,37.69,46.43,67.95,5.22,30.26,14.02,47.48,12.26,64.5Z"/>
  <path class="st0" d="M179.06,290.08c-1.28,1.17-1.96,2.49-1.96,4.01,0-1.08-.63-2.23-1.88-3.42l3.84-.59Z"/>
</svg>