<?xml version="1.0" encoding="UTF-8"?>
<svg id="Livello_1" xmlns="http://www.w3.org/2000/svg" version="1.1" viewBox="0 0 577.91 1024">
  <!-- Generator: Adobe Illustrator 29.8.1, SVG Export Plug-In . SVG Version: 2.1.1 Build 2)  -->
  <defs>
    <style>
      .st0 {
        fill: red;
      }

      .st1 {
        fill: #0019ff;
      }

      .st2 {
        fill: #fa0;
      }

      .st3 {
        fill: #00ff85;
      }

      .st4 {
        fill: #f9f8f8;
      }

      .st5 {
        fill: none;
        stroke: #131211;
        stroke-linecap: round;
        stroke-linejoin: round;
        stroke-width: 1.2px;
      }
    </style>
  </defs>
  <path class="st1" d="M270.01,359.13c-4.95-4.5-11.25-8.27-19.89-11.06-23.26-7.49-51.33-8.85-104.22-20.95-49.68-11.38-78.31-25.31-85.91-30.8,5.44-1.18,12.8-2.18,22.64-3.24,31.25-3.33,108.92-7.37,134.32-9.2,5.5,21.36,37.21,57.94,53.04,75.25h.02Z"/>
  <path class="st1" d="M517.55,296.33c-7.59,5.48-36.22,19.42-85.9,30.8-52.88,12.1-80.95,13.46-104.22,20.95-8.59,2.77-14.88,6.52-19.81,11,15.83-17.32,47.49-53.84,52.98-75.19,25.4,1.83,103.07,5.87,134.32,9.2,9.85,1.06,17.19,2.06,22.63,3.24Z"/>
  <path class="st1" d="M360.6,283.88c-5.5,21.35-37.15,57.86-52.98,75.19-.03.01-.04.04-.06.06-8.39,7.58-12.97,17.26-18.78,27.79-5.79-10.51-10.38-20.2-18.77-27.79-15.83-17.31-47.54-53.88-53.04-75.25,1.02-.09,1.95-.15,2.79-.22,10.95-.87,22.78-1.98,34.59-2.86,11.79-.9,23.57-1.56,34.44-1.56,21.73,0,47.12,2.68,69.04,4.42.84.07,1.77.13,2.79.22h-.02Z"/>
  <line class="st5" x1="216.96" y1="283.88" x2="216.96" y2="283.87"/>
  <path class="st3" d="M191.5,200.69c0,18.1-.4,42.74-.69,58.34-34.06,2.06-84.46,5.01-108.17,7.53-12.35,1.31-20.77,2.57-26.43,4.17.43-1.19.84-2.39,1.24-3.61,5.76-17.31,21.35-69.23,28.84-87.69,7.5-18.46,27.41-57.11,44.14-73.55s40.95-38.66,57.39-52.78c1.12-.97,2.33-1.93,3.64-2.86-.34,12.25-3.49,25.4-4.98,44.88-2.3,30.3,5.03,77.02,5.03,105.57h0Z"/>
  <path class="st5" d="M270.01,359.13c-4.95-4.5-11.25-8.27-19.89-11.06-23.26-7.49-51.33-8.85-104.22-20.95-49.68-11.38-78.31-25.31-85.91-30.8,5.44-1.18,12.8-2.18,22.64-3.24,31.25-3.33,108.92-7.37,134.32-9.2,5.5,21.36,37.21,57.94,53.04,75.25h.02Z"/>
  <path class="st0" d="M283.2,389.28c-.93.68-1.95.75-3.07.4-3.83-1.19-8.77-7.36-14.58-10.92-7.49-4.61-15.73-8.48-22.05-9.79,2.86.28,5.31.5,7.21.65,10.98.87,24.55,7.24,32.49,12.66h.01c.31.32,3.89,4.1-.01,7h0Z"/>
  <path class="st3" d="M386.06,200.69c0,18.1.4,42.74.69,58.34-12.63-.77-23.03-1.43-28.95-1.89-21.91-1.74-47.29-4.42-69.02-4.42s-47.12,2.68-69.02,4.42c-5.93.46-16.31,1.12-28.94,1.89.29-15.6.69-40.23.69-58.34,0-28.56-7.33-75.28-5.03-105.57,1.49-19.47,4.64-32.63,4.98-44.88h0c17.72-12.91,51.63-23.68,97.32-23.68s79.61,10.76,97.33,23.68c.34,12.25,3.49,25.4,4.98,44.88,2.3,30.3-5.03,77.02-5.03,105.57Z"/>
  <path class="st3" d="M521.34,270.73c-5.66-1.61-14.08-2.86-26.43-4.17-23.69-2.52-74.1-5.45-108.15-7.53-.29-15.6-.69-40.23-.69-58.34,0-28.56,7.33-75.28,5.03-105.57-1.49-19.47-4.64-32.63-4.98-44.88,1.3.94,2.51,1.9,3.63,2.86,16.44,14.12,40.66,36.34,57.39,52.78,16.73,16.44,36.64,55.09,44.14,73.55,7.49,18.46,23.07,70.38,28.84,87.69.4,1.22.81,2.42,1.24,3.61h-.02Z"/>
  <path class="st0" d="M532.48,307.25c-.63-5.47-3.91-8.54-14.93-10.92-5.44-1.18-12.78-2.18-22.63-3.24-31.25-3.33-108.92-7.37-134.32-9.2-1.02-.09-1.95-.15-2.79-.22-21.92-1.74-47.31-4.42-69.04-4.42-10.87,0-22.64.66-34.44,1.56-11.81.88-23.63,1.99-34.59,2.86-.84.07-1.77.13-2.79.22-25.4,1.83-103.07,5.87-134.32,9.2-9.85,1.06-17.2,2.06-22.64,3.24-11.03,2.39-14.3,5.45-14.93,10.92.81-9.45,6.13-22.01,11.15-36.52,5.66-1.61,14.08-2.86,26.43-4.17,23.71-2.52,74.11-5.47,108.17-7.53,12.63-.77,23.01-1.43,28.94-1.89,21.91-1.74,47.29-4.42,69.02-4.42s47.12,2.68,69.02,4.42c5.93.46,16.32,1.12,28.95,1.89,34.06,2.08,84.46,5.01,108.15,7.53,12.35,1.31,20.77,2.57,26.43,4.17,5.01,14.51,10.33,27.07,11.15,36.52h.01Z"/>
  <path class="st5" d="M360.6,283.88c-5.5,21.35-37.15,57.86-52.98,75.19-.03.01-.04.04-.06.06-8.39,7.58-12.97,17.26-18.78,27.79-5.79-10.51-10.38-20.2-18.77-27.79-15.83-17.31-47.54-53.88-53.04-75.25,1.02-.09,1.95-.15,2.79-.22,10.95-.87,22.78-1.98,34.59-2.86,11.79-.9,23.57-1.56,34.44-1.56,21.73,0,47.12,2.68,69.04,4.42.84.07,1.77.13,2.79.22h-.02Z"/>
  <path class="st4" d="M297.41,389.68v607.97h-17.28V389.68c1.12.35,2.14.28,3.07-.4,3.91-2.9.32-6.68.01-6.99,2.48,1.7,4.42,3.3,5.56,4.63,1.14-1.33,3.08-2.93,5.56-4.63-.31.31-3.89,4.08.01,6.99.93.68,1.95.75,3.07.4h0Z"/>
  <path class="st0" d="M288.77,386.92c-1.14-1.33-3.08-2.93-5.56-4.63h-.01c-7.95-5.44-21.51-11.81-32.49-12.68-1.9-.15-4.35-.37-7.21-.65h0c-18.69-1.81-55.02-6.02-74.7-9.35-22.69-3.85-67.11-14.61-83.46-19.81-16.35-5.19-40.38-19.8-40.38-30.18,0-.65,0-1.25.06-1.84l.06-.53c.63-5.47,3.91-8.54,14.93-10.92,7.59,5.48,36.22,19.42,85.91,30.8,52.88,12.1,80.95,13.46,104.22,20.95,8.64,2.79,14.93,6.56,19.89,11.06,8.39,7.59,12.97,17.28,18.77,27.79h-.02Z"/>
  <path class="st0" d="M532.6,309.62c0,10.38-24.03,24.99-40.38,30.18-16.35,5.2-60.77,15.97-83.46,19.81-19.68,3.33-55.98,7.53-74.69,9.35-2.87.28-5.32.5-7.24.65-10.98.87-24.55,7.24-32.49,12.66h-.01c-2.48,1.71-4.42,3.32-5.56,4.64,5.81-10.53,10.39-20.21,18.78-27.79.01-.01.03-.04.06-.06,4.94-4.48,11.22-8.23,19.81-11,23.26-7.49,51.33-8.85,104.22-20.95,49.68-11.38,78.31-25.31,85.9-30.8,11.03,2.39,14.3,5.45,14.93,10.92l.06.53c.04.59.06,1.19.06,1.84v.02Z"/>
  <path class="st0" d="M334.08,368.96c-6.32,1.31-14.58,5.17-22.08,9.79-5.81,3.57-10.75,9.73-14.58,10.92-1.12.35-2.14.28-3.07-.4-3.91-2.9-.32-6.68-.01-6.99h.01c7.95-5.44,21.51-11.81,32.49-12.68,1.92-.15,4.36-.37,7.24-.65h0Z"/>
  <g>
    <path class="st2" d="M271.09,595.65c-.28,0-.5.22-.5.5v4c0,.28.22.5.5.5s.5-.22.5-.5v-4c0-.28-.22-.5-.5-.5Z"/>
    <path class="st2" d="M271.09,588.15c-.28,0-.5.22-.5.5v4c0,.28.22.5.5.5s.5-.22.5-.5v-4c0-.28-.22-.5-.5-.5Z"/>
    <path class="st2" d="M271.09,603.15c-.28,0-.5.22-.5.5v4c0,.28.22.5.5.5s.5-.22.5-.5v-4c0-.28-.22-.5-.5-.5Z"/>
    <path class="st2" d="M271.09,610.65c-.28,0-.5.22-.5.5v4c0,.28.22.5.5.5s.5-.22.5-.5v-4c0-.28-.22-.5-.5-.5Z"/>
    <path class="st2" d="M271.09,580.65c-.28,0-.5.22-.5.5v4c0,.28.22.5.5.5s.5-.22.5-.5v-4c0-.28-.22-.5-.5-.5Z"/>
    <path class="st2" d="M271.09,558.15c-.28,0-.5.22-.5.5v4c0,.28.22.5.5.5s.5-.22.5-.5v-4c0-.28-.22-.5-.5-.5Z"/>
    <path class="st2" d="M271.09,550.65c-.28,0-.5.22-.5.5v4c0,.28.22.5.5.5s.5-.22.5-.5v-4c0-.28-.22-.5-.5-.5Z"/>
    <path class="st2" d="M271.09,573.15c-.28,0-.5.22-.5.5v4c0,.28.22.5.5.5s.5-.22.5-.5v-4c0-.28-.22-.5-.5-.5Z"/>
    <path class="st2" d="M271.09,618.15c-.28,0-.5.22-.5.5v4c0,.28.22.5.5.5s.5-.22.5-.5v-4c0-.28-.22-.5-.5-.5Z"/>
    <path class="st2" d="M271.09,565.65c-.28,0-.5.22-.5.5v4c0,.28.22.5.5.5s.5-.22.5-.5v-4c0-.28-.22-.5-.5-.5Z"/>
    <path class="st2" d="M271.09,685.65c-.28,0-.5.23-.5.5v4c0,.28.22.5.5.5s.5-.22.5-.5v-4c0-.27-.22-.5-.5-.5Z"/>
    <path class="st2" d="M271.09,678.15c-.28,0-.5.22-.5.5v4c0,.28.22.5.5.5s.5-.22.5-.5v-4c0-.28-.22-.5-.5-.5Z"/>
    <path class="st2" d="M271.09,625.65c-.28,0-.5.22-.5.5v4c0,.28.22.5.5.5s.5-.22.5-.5v-4c0-.28-.22-.5-.5-.5Z"/>
    <path class="st2" d="M271.09,543.15c-.28,0-.5.22-.5.5v4c0,.28.22.5.5.5s.5-.22.5-.5v-4c0-.28-.22-.5-.5-.5Z"/>
    <path class="st2" d="M271.09,663.15c-.28,0-.5.23-.5.5v4c0,.28.22.5.5.5s.5-.22.5-.5v-4c0-.27-.22-.5-.5-.5Z"/>
    <path class="st2" d="M271.09,670.65c-.28,0-.5.22-.5.5v4c0,.28.22.5.5.5s.5-.22.5-.5v-4c0-.28-.22-.5-.5-.5Z"/>
    <path class="st2" d="M271.09,640.65c-.28,0-.5.22-.5.5v4c0,.28.22.5.5.5s.5-.22.5-.5v-4c0-.28-.22-.5-.5-.5Z"/>
    <path class="st2" d="M271.09,655.65c-.28,0-.5.22-.5.5v4c0,.28.22.5.5.5s.5-.22.5-.5v-4c0-.28-.22-.5-.5-.5Z"/>
    <path class="st2" d="M271.09,633.15c-.28,0-.5.22-.5.5v4c0,.28.22.5.5.5s.5-.22.5-.5v-4c0-.28-.22-.5-.5-.5Z"/>
    <path class="st2" d="M271.09,648.15c-.28,0-.5.22-.5.5v4c0,.28.22.5.5.5s.5-.22.5-.5v-4c0-.28-.22-.5-.5-.5Z"/>
    <path class="st2" d="M271.09,513.15c-.28,0-.5.23-.5.5v4c0,.28.22.5.5.5s.5-.22.5-.5v-4c0-.27-.22-.5-.5-.5Z"/>
    <path class="st2" d="M271.09,438.15c-.28,0-.5.22-.5.5v4c0,.28.22.5.5.5s.5-.22.5-.5v-4c0-.28-.22-.5-.5-.5Z"/>
    <path class="st2" d="M271.09,430.65c-.28,0-.5.23-.5.5v4c0,.28.22.5.5.5s.5-.22.5-.5v-4c0-.27-.22-.5-.5-.5Z"/>
    <path class="st2" d="M271.09,460.65c-.28,0-.5.23-.5.5v4c0,.28.22.5.5.5s.5-.22.5-.5v-4c0-.27-.22-.5-.5-.5Z"/>
    <path class="st2" d="M271.09,423.15c-.28,0-.5.23-.5.5v4c0,.28.22.5.5.5s.5-.22.5-.5v-4c0-.27-.22-.5-.5-.5Z"/>
    <path class="st2" d="M271.09,445.65c-.28,0-.5.23-.5.5v4c0,.28.22.5.5.5s.5-.22.5-.5v-4c0-.27-.22-.5-.5-.5Z"/>
    <path class="st2" d="M271.09,453.15c-.28,0-.5.23-.5.5v4c0,.28.22.5.5.5s.5-.22.5-.5v-4c0-.27-.22-.5-.5-.5Z"/>
    <path class="st2" d="M271.09,415.65c-.28,0-.5.22-.5.5v4c0,.28.22.5.5.5s.5-.22.5-.5v-4c0-.28-.22-.5-.5-.5Z"/>
    <path class="st2" d="M271.09,400.65c-.28,0-.5.23-.5.5v4c0,.28.22.5.5.5s.5-.22.5-.5v-4c0-.27-.22-.5-.5-.5Z"/>
    <path class="st2" d="M271.09,393.15c-.28,0-.5.22-.5.5v4c0,.28.22.5.5.5s.5-.22.5-.5v-4c0-.28-.22-.5-.5-.5Z"/>
    <path class="st2" d="M271.09,535.65c-.28,0-.5.23-.5.5v4c0,.28.22.5.5.5s.5-.22.5-.5v-4c0-.27-.22-.5-.5-.5Z"/>
    <path class="st2" d="M271.09,408.15c-.28,0-.5.23-.5.5v4c0,.28.22.5.5.5s.5-.22.5-.5v-4c0-.27-.22-.5-.5-.5Z"/>
    <path class="st2" d="M271.09,693.15c-.28,0-.5.22-.5.5v4c0,.28.22.5.5.5s.5-.22.5-.5v-4c0-.28-.22-.5-.5-.5Z"/>
    <path class="st2" d="M271.09,505.65c-.28,0-.5.23-.5.5v4c0,.28.22.5.5.5s.5-.22.5-.5v-4c0-.27-.22-.5-.5-.5Z"/>
    <path class="st2" d="M271.09,520.65c-.28,0-.5.22-.5.5v4c0,.28.22.5.5.5s.5-.22.5-.5v-4c0-.28-.22-.5-.5-.5Z"/>
    <path class="st2" d="M271.09,528.15c-.28,0-.5.22-.5.5v4c0,.28.22.5.5.5s.5-.22.5-.5v-4c0-.28-.22-.5-.5-.5Z"/>
    <path class="st2" d="M271.09,490.65c-.28,0-.5.23-.5.5v4c0,.28.22.5.5.5s.5-.22.5-.5v-4c0-.27-.22-.5-.5-.5Z"/>
    <path class="st2" d="M271.09,483.15c-.28,0-.5.23-.5.5v4c0,.28.22.5.5.5s.5-.22.5-.5v-4c0-.27-.22-.5-.5-.5Z"/>
    <path class="st2" d="M271.09,498.15c-.28,0-.5.23-.5.5v4c0,.28.22.5.5.5s.5-.22.5-.5v-4c0-.27-.22-.5-.5-.5Z"/>
    <path class="st2" d="M271.09,475.65c-.28,0-.5.23-.5.5v4c0,.28.22.5.5.5s.5-.22.5-.5v-4c0-.27-.22-.5-.5-.5Z"/>
    <path class="st2" d="M271.09,468.15c-.28,0-.5.23-.5.5v4c0,.28.22.5.5.5s.5-.22.5-.5v-4c0-.27-.22-.5-.5-.5Z"/>
    <path class="st2" d="M271.09,963.15c-.28,0-.5.22-.5.5v4c0,.28.22.5.5.5s.5-.22.5-.5v-4c0-.28-.22-.5-.5-.5Z"/>
    <path class="st2" d="M271.09,903.15c-.28,0-.5.22-.5.5v4c0,.28.22.5.5.5s.5-.22.5-.5v-4c0-.28-.22-.5-.5-.5Z"/>
    <path class="st2" d="M271.09,895.65c-.28,0-.5.22-.5.5v4c0,.28.22.5.5.5s.5-.22.5-.5v-4c0-.28-.22-.5-.5-.5Z"/>
    <path class="st2" d="M271.09,910.65c-.28,0-.5.22-.5.5v4c0,.28.22.5.5.5s.5-.22.5-.5v-4c0-.28-.22-.5-.5-.5Z"/>
    <path class="st2" d="M271.09,918.15c-.28,0-.5.22-.5.5v4c0,.28.22.5.5.5s.5-.22.5-.5v-4c0-.28-.22-.5-.5-.5Z"/>
    <path class="st2" d="M271.09,850.65c-.28,0-.5.22-.5.5v4c0,.28.22.5.5.5s.5-.22.5-.5v-4c0-.28-.22-.5-.5-.5Z"/>
    <path class="st2" d="M271.09,925.65c-.28,0-.5.22-.5.5v4c0,.28.22.5.5.5s.5-.22.5-.5v-4c0-.28-.22-.5-.5-.5Z"/>
    <path class="st2" d="M271.09,858.15c-.28,0-.5.22-.5.5v4c0,.28.22.5.5.5s.5-.22.5-.5v-4c0-.28-.22-.5-.5-.5Z"/>
    <path class="st2" d="M271.09,865.65c-.28,0-.5.22-.5.5v4c0,.28.22.5.5.5s.5-.22.5-.5v-4c0-.28-.22-.5-.5-.5Z"/>
    <path class="st2" d="M271.09,873.15c-.28,0-.5.22-.5.5v4c0,.28.22.5.5.5s.5-.22.5-.5v-4c0-.28-.22-.5-.5-.5Z"/>
    <path class="st2" d="M271.09,880.65c-.28,0-.5.22-.5.5v4c0,.28.22.5.5.5s.5-.22.5-.5v-4c0-.28-.22-.5-.5-.5Z"/>
    <path class="st2" d="M271.09,888.15c-.28,0-.5.22-.5.5v4c0,.28.22.5.5.5s.5-.22.5-.5v-4c0-.28-.22-.5-.5-.5Z"/>
    <path class="st2" d="M271.09,933.15c-.28,0-.5.22-.5.5v4c0,.28.22.5.5.5s.5-.22.5-.5v-4c0-.28-.22-.5-.5-.5Z"/>
    <path class="st2" d="M271.09,978.15c-.28,0-.5.22-.5.5v4c0,.28.22.5.5.5s.5-.22.5-.5v-4c0-.28-.22-.5-.5-.5Z"/>
    <path class="st2" d="M271.09,985.65c-.28,0-.5.22-.5.5v4c0,.28.22.5.5.5s.5-.22.5-.5v-4c0-.28-.22-.5-.5-.5Z"/>
    <path class="st2" d="M271.09,993.15c-.28,0-.5.23-.5.5v4c0,.28.22.5.5.5s.5-.22.5-.5v-4c0-.27-.22-.5-.5-.5Z"/>
    <path class="st2" d="M271.09,970.65c-.28,0-.5.23-.5.5v4c0,.28.22.5.5.5s.5-.22.5-.5v-4c0-.27-.22-.5-.5-.5Z"/>
    <path class="st2" d="M271.09,948.15c-.28,0-.5.23-.5.5v4c0,.28.22.5.5.5s.5-.22.5-.5v-4c0-.27-.22-.5-.5-.5Z"/>
    <path class="st2" d="M271.09,385.65c-.28,0-.5.23-.5.5v4c0,.28.22.5.5.5s.5-.22.5-.5v-4c0-.27-.22-.5-.5-.5Z"/>
    <path class="st2" d="M271.09,940.65c-.28,0-.5.22-.5.5v4c0,.28.22.5.5.5s.5-.22.5-.5v-4c0-.28-.22-.5-.5-.5Z"/>
    <path class="st2" d="M271.09,955.65c-.28,0-.5.22-.5.5v4c0,.28.22.5.5.5s.5-.22.5-.5v-4c0-.28-.22-.5-.5-.5Z"/>
    <path class="st2" d="M271.09,805.65c-.28,0-.5.22-.5.5v4c0,.28.22.5.5.5s.5-.22.5-.5v-4c0-.28-.22-.5-.5-.5Z"/>
    <path class="st2" d="M271.09,843.15c-.28,0-.5.22-.5.5v4c0,.28.22.5.5.5s.5-.22.5-.5v-4c0-.28-.22-.5-.5-.5Z"/>
    <path class="st2" d="M271.09,768.15c-.28,0-.5.22-.5.5v4c0,.28.22.5.5.5s.5-.22.5-.5v-4c0-.28-.22-.5-.5-.5Z"/>
    <path class="st2" d="M271.09,738.15c-.28,0-.5.22-.5.5v4c0,.28.22.5.5.5s.5-.22.5-.5v-4c0-.28-.22-.5-.5-.5Z"/>
    <path class="st2" d="M271.09,760.65c-.28,0-.5.23-.5.5v4c0,.28.22.5.5.5s.5-.22.5-.5v-4c0-.27-.22-.5-.5-.5Z"/>
    <path class="st2" d="M271.09,753.15c-.28,0-.5.23-.5.5v4c0,.27.22.5.5.5s.5-.23.5-.5v-4c0-.27-.22-.5-.5-.5Z"/>
    <path class="st2" d="M271.09,708.15c-.28,0-.5.23-.5.5v4c0,.28.22.5.5.5s.5-.22.5-.5v-4c0-.27-.22-.5-.5-.5Z"/>
    <path class="st2" d="M271.09,715.65c-.28,0-.5.22-.5.5v4c0,.28.22.5.5.5s.5-.22.5-.5v-4c0-.28-.22-.5-.5-.5Z"/>
    <path class="st2" d="M271.09,723.15c-.28,0-.5.22-.5.5v4c0,.28.22.5.5.5s.5-.22.5-.5v-4c0-.28-.22-.5-.5-.5Z"/>
    <path class="st2" d="M271.09,730.65c-.28,0-.5.23-.5.5v4c0,.27.22.5.5.5s.5-.23.5-.5v-4c0-.27-.22-.5-.5-.5Z"/>
    <path class="st2" d="M271.09,745.65c-.28,0-.5.22-.5.5v4c0,.28.22.5.5.5s.5-.22.5-.5v-4c0-.28-.22-.5-.5-.5Z"/>
    <path class="st2" d="M271.09,820.65c-.28,0-.5.23-.5.5v4c0,.28.22.5.5.5s.5-.22.5-.5v-4c0-.27-.22-.5-.5-.5Z"/>
    <path class="st2" d="M271.09,828.15c-.28,0-.5.22-.5.5v4c0,.28.22.5.5.5s.5-.22.5-.5v-4c0-.28-.22-.5-.5-.5Z"/>
    <path class="st2" d="M271.09,835.65c-.28,0-.5.22-.5.5v4c0,.28.22.5.5.5s.5-.22.5-.5v-4c0-.28-.22-.5-.5-.5Z"/>
    <path class="st2" d="M271.09,813.15c-.28,0-.5.22-.5.5v4c0,.28.22.5.5.5s.5-.22.5-.5v-4c0-.28-.22-.5-.5-.5Z"/>
    <path class="st2" d="M271.09,783.15c-.28,0-.5.23-.5.5v4c0,.28.22.5.5.5s.5-.22.5-.5v-4c0-.27-.22-.5-.5-.5Z"/>
    <path class="st2" d="M271.09,775.65c-.28,0-.5.23-.5.5v4c0,.28.22.5.5.5s.5-.22.5-.5v-4c0-.27-.22-.5-.5-.5Z"/>
    <path class="st2" d="M271.09,700.65c-.28,0-.5.22-.5.5v4c0,.28.22.5.5.5s.5-.22.5-.5v-4c0-.28-.22-.5-.5-.5Z"/>
    <path class="st2" d="M271.09,790.65c-.28,0-.5.22-.5.5v4c0,.28.22.5.5.5s.5-.22.5-.5v-4c0-.28-.22-.5-.5-.5Z"/>
    <path class="st2" d="M271.09,798.15c-.28,0-.5.23-.5.5v4c0,.28.22.5.5.5s.5-.22.5-.5v-4c0-.27-.22-.5-.5-.5Z"/>
    <path class="st2" d="M306.47,385.65c-.28,0-.5.23-.5.5v4c0,.28.22.5.5.5s.5-.22.5-.5v-4c0-.27-.23-.5-.5-.5Z"/>
    <path class="st2" d="M306.47,580.65c-.28,0-.5.22-.5.5v4c0,.28.22.5.5.5s.5-.22.5-.5v-4c0-.28-.23-.5-.5-.5Z"/>
    <path class="st2" d="M306.47,588.15c-.28,0-.5.22-.5.5v4c0,.28.22.5.5.5s.5-.22.5-.5v-4c0-.28-.23-.5-.5-.5Z"/>
    <path class="st2" d="M306.47,603.15c-.28,0-.5.22-.5.5v4c0,.28.22.5.5.5s.5-.22.5-.5v-4c0-.28-.23-.5-.5-.5Z"/>
    <path class="st2" d="M306.47,573.15c-.28,0-.5.22-.5.5v4c0,.28.22.5.5.5s.5-.22.5-.5v-4c0-.28-.23-.5-.5-.5Z"/>
    <path class="st2" d="M306.47,610.65c-.28,0-.5.22-.5.5v4c0,.28.22.5.5.5s.5-.22.5-.5v-4c0-.28-.23-.5-.5-.5Z"/>
    <path class="st2" d="M306.47,595.65c-.28,0-.5.22-.5.5v4c0,.28.22.5.5.5s.5-.22.5-.5v-4c0-.28-.23-.5-.5-.5Z"/>
    <path class="st2" d="M306.47,543.15c-.28,0-.5.22-.5.5v4c0,.28.22.5.5.5s.5-.22.5-.5v-4c0-.28-.23-.5-.5-.5Z"/>
    <path class="st2" d="M306.47,550.65c-.28,0-.5.22-.5.5v4c0,.28.22.5.5.5s.5-.22.5-.5v-4c0-.28-.23-.5-.5-.5Z"/>
    <path class="st2" d="M306.47,558.15c-.28,0-.5.22-.5.5v4c0,.28.22.5.5.5s.5-.22.5-.5v-4c0-.28-.23-.5-.5-.5Z"/>
    <path class="st2" d="M306.47,565.65c-.28,0-.5.22-.5.5v4c0,.28.22.5.5.5s.5-.22.5-.5v-4c0-.28-.23-.5-.5-.5Z"/>
    <path class="st2" d="M306.47,993.15c-.28,0-.5.23-.5.5v4c0,.28.22.5.5.5s.5-.22.5-.5v-4c0-.27-.23-.5-.5-.5Z"/>
    <path class="st2" d="M306.47,663.15c-.28,0-.5.23-.5.5v4c0,.28.22.5.5.5s.5-.22.5-.5v-4c0-.27-.23-.5-.5-.5Z"/>
    <path class="st2" d="M306.47,655.65c-.28,0-.5.22-.5.5v4c0,.28.22.5.5.5s.5-.22.5-.5v-4c0-.28-.23-.5-.5-.5Z"/>
    <path class="st2" d="M306.47,618.15c-.28,0-.5.22-.5.5v4c0,.28.22.5.5.5s.5-.22.5-.5v-4c0-.28-.23-.5-.5-.5Z"/>
    <path class="st2" d="M306.47,678.15c-.28,0-.5.22-.5.5v4c0,.28.22.5.5.5s.5-.22.5-.5v-4c0-.28-.23-.5-.5-.5Z"/>
    <path class="st2" d="M306.47,670.65c-.28,0-.5.22-.5.5v4c0,.28.22.5.5.5s.5-.22.5-.5v-4c0-.28-.23-.5-.5-.5Z"/>
    <path class="st2" d="M306.47,535.65c-.28,0-.5.23-.5.5v4c0,.28.22.5.5.5s.5-.22.5-.5v-4c0-.27-.23-.5-.5-.5Z"/>
    <path class="st2" d="M306.47,648.15c-.28,0-.5.22-.5.5v4c0,.28.22.5.5.5s.5-.22.5-.5v-4c0-.28-.23-.5-.5-.5Z"/>
    <path class="st2" d="M306.47,633.15c-.28,0-.5.22-.5.5v4c0,.28.22.5.5.5s.5-.22.5-.5v-4c0-.28-.23-.5-.5-.5Z"/>
    <path class="st2" d="M306.47,640.65c-.28,0-.5.22-.5.5v4c0,.28.22.5.5.5s.5-.22.5-.5v-4c0-.28-.23-.5-.5-.5Z"/>
    <path class="st2" d="M306.47,625.65c-.28,0-.5.22-.5.5v4c0,.28.22.5.5.5s.5-.22.5-.5v-4c0-.28-.23-.5-.5-.5Z"/>
    <path class="st2" d="M306.47,423.15c-.28,0-.5.23-.5.5v4c0,.28.22.5.5.5s.5-.22.5-.5v-4c0-.27-.23-.5-.5-.5Z"/>
    <path class="st2" d="M306.47,430.65c-.28,0-.5.23-.5.5v4c0,.28.22.5.5.5s.5-.22.5-.5v-4c0-.27-.23-.5-.5-.5Z"/>
    <path class="st2" d="M306.47,453.15c-.28,0-.5.23-.5.5v4c0,.28.22.5.5.5s.5-.22.5-.5v-4c0-.27-.23-.5-.5-.5Z"/>
    <path class="st2" d="M306.47,445.65c-.28,0-.5.23-.5.5v4c0,.28.22.5.5.5s.5-.22.5-.5v-4c0-.27-.23-.5-.5-.5Z"/>
    <path class="st2" d="M306.47,438.15c-.28,0-.5.22-.5.5v4c0,.28.22.5.5.5s.5-.22.5-.5v-4c0-.28-.23-.5-.5-.5Z"/>
    <path class="st2" d="M306.47,400.65c-.28,0-.5.23-.5.5v4c0,.28.22.5.5.5s.5-.22.5-.5v-4c0-.27-.23-.5-.5-.5Z"/>
    <path class="st2" d="M306.47,393.15c-.28,0-.5.22-.5.5v4c0,.28.22.5.5.5s.5-.22.5-.5v-4c0-.28-.23-.5-.5-.5Z"/>
    <path class="st2" d="M306.47,408.15c-.28,0-.5.23-.5.5v4c0,.28.22.5.5.5s.5-.22.5-.5v-4c0-.27-.23-.5-.5-.5Z"/>
    <path class="st2" d="M306.47,415.65c-.28,0-.5.22-.5.5v4c0,.28.22.5.5.5s.5-.22.5-.5v-4c0-.28-.23-.5-.5-.5Z"/>
    <path class="st2" d="M306.47,505.65c-.28,0-.5.23-.5.5v4c0,.28.22.5.5.5s.5-.22.5-.5v-4c0-.27-.23-.5-.5-.5Z"/>
    <path class="st2" d="M306.47,528.15c-.28,0-.5.22-.5.5v4c0,.28.22.5.5.5s.5-.22.5-.5v-4c0-.28-.23-.5-.5-.5Z"/>
    <path class="st2" d="M306.47,498.15c-.28,0-.5.23-.5.5v4c0,.28.22.5.5.5s.5-.22.5-.5v-4c0-.27-.23-.5-.5-.5Z"/>
    <path class="st2" d="M306.47,513.15c-.28,0-.5.23-.5.5v4c0,.28.22.5.5.5s.5-.22.5-.5v-4c0-.27-.23-.5-.5-.5Z"/>
    <path class="st2" d="M306.47,520.65c-.28,0-.5.22-.5.5v4c0,.28.22.5.5.5s.5-.22.5-.5v-4c0-.28-.23-.5-.5-.5Z"/>
    <path class="st2" d="M306.47,475.65c-.28,0-.5.23-.5.5v4c0,.28.22.5.5.5s.5-.22.5-.5v-4c0-.27-.23-.5-.5-.5Z"/>
    <path class="st2" d="M306.47,490.65c-.28,0-.5.23-.5.5v4c0,.28.22.5.5.5s.5-.22.5-.5v-4c0-.27-.23-.5-.5-.5Z"/>
    <path class="st2" d="M306.47,460.65c-.28,0-.5.23-.5.5v4c0,.28.22.5.5.5s.5-.22.5-.5v-4c0-.27-.23-.5-.5-.5Z"/>
    <path class="st2" d="M306.47,468.15c-.28,0-.5.23-.5.5v4c0,.28.22.5.5.5s.5-.22.5-.5v-4c0-.27-.23-.5-.5-.5Z"/>
    <path class="st2" d="M306.47,483.15c-.28,0-.5.23-.5.5v4c0,.28.22.5.5.5s.5-.22.5-.5v-4c0-.27-.23-.5-.5-.5Z"/>
    <path class="st2" d="M306.47,685.65c-.28,0-.5.23-.5.5v4c0,.28.22.5.5.5s.5-.22.5-.5v-4c0-.27-.23-.5-.5-.5Z"/>
    <path class="st2" d="M306.47,888.15c-.28,0-.5.22-.5.5v4c0,.28.22.5.5.5s.5-.22.5-.5v-4c0-.28-.23-.5-.5-.5Z"/>
    <path class="st2" d="M306.47,895.65c-.28,0-.5.22-.5.5v4c0,.28.22.5.5.5s.5-.22.5-.5v-4c0-.28-.23-.5-.5-.5Z"/>
    <path class="st2" d="M306.47,903.15c-.28,0-.5.22-.5.5v4c0,.28.22.5.5.5s.5-.22.5-.5v-4c0-.28-.23-.5-.5-.5Z"/>
    <path class="st2" d="M306.47,880.65c-.28,0-.5.22-.5.5v4c0,.28.22.5.5.5s.5-.22.5-.5v-4c0-.28-.23-.5-.5-.5Z"/>
    <path class="st2" d="M306.47,910.65c-.28,0-.5.22-.5.5v4c0,.28.22.5.5.5s.5-.22.5-.5v-4c0-.28-.23-.5-.5-.5Z"/>
    <path class="st2" d="M306.47,858.15c-.28,0-.5.22-.5.5v4c0,.28.22.5.5.5s.5-.22.5-.5v-4c0-.28-.23-.5-.5-.5Z"/>
    <path class="st2" d="M306.47,873.15c-.28,0-.5.22-.5.5v4c0,.28.22.5.5.5s.5-.22.5-.5v-4c0-.28-.23-.5-.5-.5Z"/>
    <path class="st2" d="M306.47,850.65c-.28,0-.5.22-.5.5v4c0,.28.22.5.5.5s.5-.22.5-.5v-4c0-.28-.23-.5-.5-.5Z"/>
    <path class="st2" d="M306.47,918.15c-.28,0-.5.22-.5.5v4c0,.28.22.5.5.5s.5-.22.5-.5v-4c0-.28-.23-.5-.5-.5Z"/>
    <path class="st2" d="M306.47,843.15c-.28,0-.5.22-.5.5v4c0,.28.22.5.5.5s.5-.22.5-.5v-4c0-.28-.23-.5-.5-.5Z"/>
    <path class="st2" d="M306.47,865.65c-.28,0-.5.22-.5.5v4c0,.28.22.5.5.5s.5-.22.5-.5v-4c0-.28-.23-.5-.5-.5Z"/>
    <path class="st2" d="M306.47,978.15c-.28,0-.5.22-.5.5v4c0,.28.22.5.5.5s.5-.22.5-.5v-4c0-.28-.23-.5-.5-.5Z"/>
    <path class="st2" d="M306.47,970.65c-.28,0-.5.23-.5.5v4c0,.28.22.5.5.5s.5-.22.5-.5v-4c0-.27-.23-.5-.5-.5Z"/>
    <path class="st2" d="M306.47,985.65c-.28,0-.5.22-.5.5v4c0,.28.22.5.5.5s.5-.22.5-.5v-4c0-.28-.23-.5-.5-.5Z"/>
    <path class="st2" d="M306.47,925.65c-.28,0-.5.22-.5.5v4c0,.28.22.5.5.5s.5-.22.5-.5v-4c0-.28-.23-.5-.5-.5Z"/>
    <path class="st2" d="M306.47,963.15c-.28,0-.5.22-.5.5v4c0,.28.22.5.5.5s.5-.22.5-.5v-4c0-.28-.23-.5-.5-.5Z"/>
    <path class="st2" d="M306.47,933.15c-.28,0-.5.22-.5.5v4c0,.28.22.5.5.5s.5-.22.5-.5v-4c0-.28-.23-.5-.5-.5Z"/>
    <path class="st2" d="M306.47,940.65c-.28,0-.5.22-.5.5v4c0,.28.22.5.5.5s.5-.22.5-.5v-4c0-.28-.23-.5-.5-.5Z"/>
    <path class="st2" d="M306.47,948.15c-.28,0-.5.23-.5.5v4c0,.28.22.5.5.5s.5-.22.5-.5v-4c0-.27-.23-.5-.5-.5Z"/>
    <path class="st2" d="M306.47,693.15c-.28,0-.5.22-.5.5v4c0,.28.22.5.5.5s.5-.22.5-.5v-4c0-.28-.23-.5-.5-.5Z"/>
    <path class="st2" d="M306.47,955.65c-.28,0-.5.22-.5.5v4c0,.28.22.5.5.5s.5-.22.5-.5v-4c0-.28-.23-.5-.5-.5Z"/>
    <path class="st2" d="M306.47,745.65c-.28,0-.5.22-.5.5v4c0,.28.22.5.5.5s.5-.22.5-.5v-4c0-.28-.23-.5-.5-.5Z"/>
    <path class="st2" d="M306.47,738.15c-.28,0-.5.22-.5.5v4c0,.28.22.5.5.5s.5-.22.5-.5v-4c0-.28-.23-.5-.5-.5Z"/>
    <path class="st2" d="M306.47,760.65c-.28,0-.5.23-.5.5v4c0,.28.22.5.5.5s.5-.22.5-.5v-4c0-.27-.23-.5-.5-.5Z"/>
    <path class="st2" d="M306.47,753.15c-.28,0-.5.23-.5.5v4c0,.27.22.5.5.5s.5-.23.5-.5v-4c0-.27-.23-.5-.5-.5Z"/>
    <path class="st2" d="M306.47,730.65c-.28,0-.5.23-.5.5v4c0,.27.22.5.5.5s.5-.23.5-.5v-4c0-.27-.23-.5-.5-.5Z"/>
    <path class="st2" d="M306.47,708.15c-.28,0-.5.23-.5.5v4c0,.28.22.5.5.5s.5-.22.5-.5v-4c0-.27-.23-.5-.5-.5Z"/>
    <path class="st2" d="M306.47,700.65c-.28,0-.5.22-.5.5v4c0,.28.22.5.5.5s.5-.22.5-.5v-4c0-.28-.23-.5-.5-.5Z"/>
    <path class="st2" d="M306.47,723.15c-.28,0-.5.22-.5.5v4c0,.28.22.5.5.5s.5-.22.5-.5v-4c0-.28-.23-.5-.5-.5Z"/>
    <path class="st2" d="M306.47,715.65c-.28,0-.5.22-.5.5v4c0,.28.22.5.5.5s.5-.22.5-.5v-4c0-.28-.23-.5-.5-.5Z"/>
    <path class="st2" d="M306.47,783.15c-.28,0-.5.23-.5.5v4c0,.28.22.5.5.5s.5-.22.5-.5v-4c0-.27-.23-.5-.5-.5Z"/>
    <path class="st2" d="M306.47,813.15c-.28,0-.5.22-.5.5v4c0,.28.22.5.5.5s.5-.22.5-.5v-4c0-.28-.23-.5-.5-.5Z"/>
    <path class="st2" d="M306.47,820.65c-.28,0-.5.23-.5.5v4c0,.28.22.5.5.5s.5-.22.5-.5v-4c0-.27-.23-.5-.5-.5Z"/>
    <path class="st2" d="M306.47,805.65c-.28,0-.5.22-.5.5v4c0,.28.22.5.5.5s.5-.22.5-.5v-4c0-.28-.23-.5-.5-.5Z"/>
    <path class="st2" d="M306.47,828.15c-.28,0-.5.22-.5.5v4c0,.28.22.5.5.5s.5-.22.5-.5v-4c0-.28-.23-.5-.5-.5Z"/>
    <path class="st2" d="M306.47,835.65c-.28,0-.5.22-.5.5v4c0,.28.22.5.5.5s.5-.22.5-.5v-4c0-.28-.23-.5-.5-.5Z"/>
    <path class="st2" d="M306.47,768.15c-.28,0-.5.22-.5.5v4c0,.28.22.5.5.5s.5-.22.5-.5v-4c0-.28-.23-.5-.5-.5Z"/>
    <path class="st2" d="M306.47,775.65c-.28,0-.5.23-.5.5v4c0,.28.22.5.5.5s.5-.22.5-.5v-4c0-.27-.23-.5-.5-.5Z"/>
    <path class="st2" d="M306.47,790.65c-.28,0-.5.22-.5.5v4c0,.28.22.5.5.5s.5-.22.5-.5v-4c0-.28-.23-.5-.5-.5Z"/>
    <path class="st2" d="M306.47,798.15c-.28,0-.5.23-.5.5v4c0,.28.22.5.5.5s.5-.22.5-.5v-4c0-.27-.23-.5-.5-.5Z"/>
  </g>
  <path class="st5" d="M517.55,296.33c-7.59,5.48-36.22,19.42-85.9,30.8-52.88,12.1-80.95,13.46-104.22,20.95-8.59,2.77-14.88,6.52-19.81,11,15.83-17.32,47.49-53.84,52.98-75.19,25.4,1.83,103.07,5.87,134.32,9.2,9.85,1.06,17.19,2.06,22.63,3.24Z"/>
  <line class="st5" x1="360.6" y1="283.88" x2="360.6" y2="283.87"/>
  <line class="st5" x1="386.1" y1="50.24" x2="386.1" y2="50.23"/>
  <path d="M533.19,309.52c0-.63-.02-1.22-.06-1.83l-.05-.47s0-.03,0-.04c-.01-.1-.02-.21-.04-.31-.7-7.29-3.94-16.25-7.69-26.61-1.11-3.09-2.27-6.28-3.41-9.57,0-.06,0-.11-.02-.16-.43-1.18-.84-2.38-1.24-3.6-1.77-5.29-4.44-13.81-7.54-23.67-7.18-22.82-16.11-51.23-21.31-64.06-8.25-20.3-28.03-57.78-44.28-73.75-16.34-16.06-40.49-38.26-57.42-52.81-1.18-1.01-2.41-1.98-3.67-2.89,0,0-.01,0-.02,0-20.44-14.89-56.95-23.79-97.67-23.79s-77.22,8.9-97.67,23.8c0,0,0,0,0,0-1.26.89-2.49,1.86-3.68,2.89-16.93,14.54-41.08,36.75-57.42,52.81-16.25,15.97-36.03,53.45-44.28,73.75-5.23,12.89-14.21,41.45-21.42,64.39-3.05,9.71-5.69,18.1-7.43,23.34-.4,1.21-.81,2.41-1.23,3.59,0,0,0,0,0,0,0,0,0,0,0,0-1.15,3.32-2.31,6.53-3.44,9.64-3.82,10.55-7.11,19.66-7.75,27.02,0,.01,0,.03,0,.04l-.05.49c-.05.64-.06,1.29-.06,1.89,0,10.87,24.16,25.47,40.8,30.75,16.29,5.18,60.57,15.93,83.54,19.83,19.93,3.37,56.29,7.57,74.67,9.35,0,0,.01,0,.02,0,5.82,1.21,13.79,4.75,21.86,9.71,2.61,1.6,5.11,3.8,7.32,5.73,2.61,2.29,4.89,4.28,6.97,5.08v607.56c0,.33.27.6.6.6h17.28c.33,0,.6-.27.6-.6V390.08c2.09-.8,4.38-2.8,7-5.1,2.2-1.93,4.7-4.12,7.31-5.73,8.04-4.95,16.01-8.49,21.87-9.71,18.46-1.8,54.91-6.01,74.67-9.35,22.9-3.88,67.2-14.63,83.54-19.83,16.63-5.28,40.8-19.88,40.8-30.75,0-.03,0-.06,0-.1ZM389.36,53.56c16.91,14.53,41.04,36.71,57.36,52.75,16.13,15.85,35.79,53.14,44.01,73.35,5.19,12.79,14.11,41.16,21.28,63.97,3.1,9.86,5.78,18.38,7.55,23.69.28.86.57,1.71.86,2.55-5.37-1.4-13.11-2.58-25.44-3.89-21.21-2.26-63.21-4.8-96.95-6.85l-10.68-.65c-.31-16.88-.68-40.4-.68-57.77,0-11.77,1.24-26.55,2.55-42.19,1.88-22.42,3.83-45.6,2.47-63.42-.73-9.5-1.85-17.53-2.84-24.61-.98-7.01-1.84-13.13-2.09-19,.89.67,1.76,1.37,2.6,2.09ZM191.08,61.96c.08-.64.16-1.28.23-1.91.03-.29.06-.58.09-.87.06-.53.12-1.07.17-1.59.03-.33.06-.66.09-.99.04-.48.09-.96.13-1.43.03-.35.05-.69.07-1.04.03-.45.07-.9.09-1.35.02-.36.03-.72.05-1.08.02-.38.04-.76.05-1.13,20.3-14.65,56.42-23.39,96.73-23.39s76.46,8.74,96.74,23.39c.2,6.23,1.1,12.65,2.13,20.07.99,7.07,2.11,15.08,2.84,24.54,1.35,17.74-.6,40.87-2.47,63.24-1.32,15.67-2.56,30.47-2.56,42.28,0,17.31.37,40.8.68,57.7-14.48-.88-23.22-1.46-28.29-1.85-4.67-.37-9.51-.79-14.43-1.21-13.35-1.14-27.03-2.31-40.06-2.87-4.97-.21-9.86-.35-14.59-.35-17.12,0-36.19,1.63-54.63,3.21-4.92.42-9.76.84-14.43,1.21-5.14.4-13.88.97-28.27,1.85.31-16.89.68-40.37.68-57.7,0-11.82-1.24-26.62-2.56-42.29-1.41-16.78-2.85-33.98-2.92-49.01-.02-5.01.11-9.78.45-14.22.72-9.46,1.85-17.47,2.84-24.53.39-2.82.77-5.49,1.09-8.06.03-.21.05-.41.07-.61ZM58.02,267.31c1.75-5.24,4.38-13.64,7.44-23.36,6.83-21.71,16.17-51.45,21.39-64.3,8.21-20.21,27.88-57.5,44-73.35,16.32-16.04,40.45-38.22,57.36-52.75.84-.73,1.71-1.43,2.6-2.1,0,.2-.02.4-.03.6-.02.35-.04.7-.06,1.06-.03.42-.05.84-.08,1.26-.03.35-.05.71-.08,1.06-.04.43-.07.86-.11,1.29-.03.36-.07.72-.1,1.08-.04.43-.09.87-.14,1.31-.04.37-.08.74-.12,1.11-.05.44-.11.88-.16,1.33-.05.38-.09.77-.14,1.15-.05.42-.11.85-.17,1.28-.06.43-.11.85-.17,1.28-.04.28-.08.57-.12.86-.19,1.41-.39,2.84-.6,4.32-.99,7.08-2.12,15.11-2.85,24.62-.08,1.11-.16,2.25-.22,3.4-.9,17.32.93,39.01,2.69,60.03.72,8.52,1.41,16.78,1.89,24.43.01.23.03.47.05.7.03.5.06.98.09,1.47.02.38.05.76.07,1.13.02.4.04.8.06,1.2.02.45.05.91.07,1.35.02.37.03.74.05,1.11.02.46.04.92.06,1.38.01.35.03.69.04,1.03.02.47.04.95.05,1.41.01.31.02.62.03.93.01.48.03.97.04,1.44,0,.32.01.63.02.95,0,.45.02.91.02,1.36,0,.32,0,.63,0,.95,0,.41,0,.83,0,1.24,0,.03,0,.07,0,.1,0,17.35-.37,40.88-.68,57.77l-7.3.44c-33.08,1.99-78.38,4.72-100.34,7.06-.8.08-1.57.17-2.33.25-.27.03-.53.06-.8.09-.47.05-.94.1-1.39.16-.37.04-.72.08-1.08.13-.33.04-.67.08-.99.12-.41.05-.81.1-1.21.15-.25.03-.5.06-.75.09-.44.06-.87.11-1.3.17-.18.02-.36.05-.54.07-.46.06-.91.12-1.35.18-.13.02-.27.04-.4.05-.48.07-.94.13-1.39.2-.08.01-.16.02-.24.03-.5.07-.98.14-1.46.22-.02,0-.04,0-.06,0-4.14.63-7.42,1.28-10.1,1.98.29-.84.58-1.69.86-2.54ZM53.34,280.58c1.09-3.02,2.22-6.14,3.34-9.36.18-.05.37-.1.56-.15.08-.02.16-.04.24-.06,4.98-1.29,11.97-2.39,22.75-3.58.03,0,.07,0,.1-.01.78-.09,1.57-.17,2.39-.26,21.93-2.33,67.22-5.06,100.28-7.05l7.86-.47s0,0,0,0c0,0,0,0,0,0,14.8-.9,23.73-1.49,28.95-1.89,4.67-.37,9.49-.78,14.41-1.21,18.43-1.58,37.49-3.21,54.57-3.21,5.59,0,11.4.19,17.32.48,12.17.6,24.84,1.67,37.23,2.73,4.92.42,9.74.83,14.41,1.21,5.2.4,14.13.99,28.96,1.89l11.14.68c33.76,2.05,75.78,4.6,96.98,6.85,12.83,1.36,20.65,2.58,26.03,4.07,1.13,3.25,2.26,6.4,3.36,9.45,2.87,7.93,5.44,15.04,6.78,21.15-.06-.07-.12-.14-.19-.21-.07-.08-.13-.16-.2-.23-.18-.2-.37-.39-.57-.58-.1-.09-.2-.18-.3-.27-.13-.11-.26-.22-.4-.33-.12-.1-.25-.2-.38-.29-.21-.15-.42-.3-.65-.44-.18-.11-.37-.22-.55-.33-.09-.05-.18-.1-.26-.15-2.36-1.3-5.55-2.34-9.82-3.27-.03,0-.06,0-.09,0-5.1-1.1-12.08-2.1-22.6-3.23-21.53-2.29-65.93-4.98-98.36-6.94-15.06-.91-28.07-1.7-35.97-2.27-.59-.05-1.16-.09-1.69-.13l-1.1-.09c-4.68-.37-9.53-.79-14.46-1.21-18.45-1.58-37.52-3.21-54.63-3.21-9.56,0-20.51.5-34.48,1.56-6.85.51-13.73,1.1-20.39,1.67-4.84.42-9.6.82-14.21,1.19l-1.08.08c-.54.04-1.11.08-1.7.14-7.91.57-20.9,1.35-35.95,2.26-32.43,1.96-76.86,4.64-98.39,6.94-10.59,1.14-17.6,2.14-22.7,3.25-.62.13-1.21.27-1.79.41-.08.02-.15.04-.23.06-.57.14-1.13.28-1.66.43,0,0,0,0-.01,0-.5.14-.97.28-1.43.42-.11.03-.22.07-.33.1-.45.15-.89.29-1.3.45-.06.02-.11.04-.16.06-.37.14-.72.28-1.06.43-.09.04-.18.08-.27.12-.37.16-.73.33-1.07.51-.05.02-.09.05-.13.07-.31.16-.61.33-.89.5-.05.03-.11.06-.16.1-.31.19-.61.4-.89.6-.02.02-.04.03-.06.05-.28.21-.54.42-.78.64-.01.01-.03.03-.04.04-.26.24-.5.48-.73.73h0c-.11.13-.22.25-.32.38,1.34-6.14,3.93-13.29,6.81-21.27ZM516.01,296.62c-8.04,5.22-35.34,18.64-84.5,29.9-25.67,5.87-45.69,9.25-61.76,11.96-17.04,2.87-30.5,5.14-42.51,9.01-8.1,2.61-14.65,6.25-19.96,11.07-.05.03-.09.07-.13.12-7.34,6.63-11.84,14.94-16.61,23.75-.58,1.06-1.17,2.14-1.76,3.22-.59-1.08-1.18-2.16-1.76-3.23-4.76-8.79-9.26-17.1-16.59-23.73-5.4-4.9-11.98-8.56-20.11-11.19-12-3.86-25.46-6.13-42.5-9-16.08-2.71-36.09-6.08-61.77-11.96-49.18-11.26-76.51-24.71-84.54-29.92,4.93-.99,11.57-1.91,21.18-2.94,21.5-2.29,65.91-4.97,98.33-6.93,15.05-.91,28.05-1.69,35.98-2.27.6-.05,1.16-.1,1.7-.14l1.09-.08c4.61-.37,9.37-.77,14.21-1.19,6.65-.57,13.53-1.16,20.38-1.67,13.94-1.06,24.87-1.56,34.39-1.56,17.06,0,36.11,1.63,54.53,3.21,4.93.42,9.78.84,14.46,1.21l1.11.09c.53.04,1.09.08,1.69.13,7.92.57,20.93,1.36,35.99,2.27,32.42,1.96,76.81,4.64,98.31,6.93,9.6,1.03,16.22,1.95,21.15,2.94ZM168.89,359.02c-22.93-3.89-67.13-14.62-83.38-19.79-15.91-5.05-39.96-19.43-39.96-29.61,0-.58,0-1.19.06-1.77l.06-.53c.28-2.4,1.02-4.37,3.1-6.05,0,0,0,0,0,0,.2-.16.43-.32.65-.48.07-.05.13-.1.21-.15.18-.12.39-.24.59-.35.14-.08.26-.16.41-.24.17-.09.36-.18.55-.28.2-.1.38-.2.59-.3.17-.08.37-.16.55-.23.24-.1.48-.21.74-.31.19-.07.41-.15.61-.22.28-.1.55-.2.85-.3.24-.08.51-.16.77-.24.28-.09.56-.18.86-.26.34-.1.7-.19,1.06-.29.25-.06.48-.13.73-.19.5-.12,1.02-.25,1.56-.37.12-.03.24-.06.37-.08,9.37,6.64,39.71,20.16,85.91,30.74,25.71,5.88,45.74,9.26,61.84,11.97,16.99,2.86,30.41,5.13,42.33,8.96,7.96,2.57,14.4,6.15,19.67,10.93,7.18,6.49,11.63,14.71,16.34,23.41.17.32.35.65.53.97-.02-.01-.04-.03-.06-.05-.41-.33-.85-.67-1.31-1.01-.01,0-.02-.02-.04-.03-.48-.36-.99-.72-1.53-1.09-.02-.01-.04-.03-.06-.05-2.34-1.6-5.16-3.26-8.23-4.83-7.57-3.9-16.73-7.29-24.5-7.9-1.94-.15-4.43-.38-7.21-.65-18.33-1.77-54.73-5.97-74.66-9.34ZM280.31,389.11s0,0,0,0c-1.96-.61-4.39-2.74-6.96-5-2.24-1.97-4.78-4.2-7.48-5.85-5.7-3.51-11.37-6.32-16.3-8.12.38.03.75.06,1.09.09,7.67.61,16.75,3.98,24.22,7.85,2.97,1.54,5.69,3.15,7.96,4.7.08.08.25.27.46.55.05.06.09.13.14.2.04.05.08.11.11.17.07.1.13.21.2.32.03.04.05.09.07.13.07.13.14.26.2.39.02.05.04.1.06.14.06.14.11.28.16.43.02.06.03.12.04.18.04.14.07.28.09.43,0,.07,0,.15,0,.23,0,.14.02.27,0,.41-.07.91-.6,1.73-1.55,2.44-.06.05-.13.07-.2.11-.65.39-1.36.47-2.23.22-.04-.01-.07-.01-.11-.02ZM280.73,403.38h1.06c.07,0,.14.01.19.03.19.07.35.24.35.45,0,.31-.24.46-.65.46h-.95v-.94ZM281.75,403.01h-1.02v-.95h1.03c.07,0,.13,0,.19.03.19.06.38.24.38.48,0,.29-.24.44-.58.44ZM280.73,397.49h1.06c.07,0,.14.01.19.03.19.07.35.24.35.45,0,.31-.24.46-.65.46h-.95v-.94ZM281.75,397.12h-1.02v-.95h1.03c.07,0,.13,0,.19.03.19.06.38.24.38.48,0,.29-.24.44-.58.44ZM296.81,997.05h-16.08V406.76h.53v.4h.3v-.4h1.77v-.42l-1.81-1.27h-.25v1.32h-.53v-1.69h1c.73,0,.92-.42.92-.7,0-.2-.05-.34-.15-.47-.07-.09-.16-.17-.28-.24h0c.25-.1.42-.32.42-.61,0-.35-.19-.55-.39-.66h0s.34-.03.34-.03v-.34c-.17.01-.35.02-.57.02h-1.3v-1.16h2.59v-.33l-.33-.62-.29.07.27.49h0s-2.24,0-2.24,0v-1.34h1c.73,0,.92-.42.92-.7,0-.2-.05-.34-.15-.47-.07-.09-.16-.17-.28-.24h0c.25-.1.42-.32.42-.61,0-.35-.19-.55-.39-.66h0s.34-.03.34-.03v-.34c-.17.01-.35.02-.57.02h-1.3v-5.36c.07.01.13,0,.19.01.15.02.3.04.44.04.02,0,.05,0,.07,0,.07,0,.14-.01.21-.02.16-.01.32-.03.47-.06.08-.02.15-.03.22-.05.15-.04.3-.09.44-.15.06-.03.13-.05.19-.08.2-.1.4-.21.59-.35,0,0,0,0,0,0,0,0,0,0,0,0,1.26-.94,1.95-2.06,2.04-3.34.02-.27,0-.53-.02-.79,0,0,0,0,0-.01-.04-.36-.12-.7-.23-1.02,0,0,.02.02.03.02.29.23.56.45.83.67.07.06.13.11.19.17.19.16.37.32.55.48.08.07.15.14.23.21.16.15.3.29.44.43.06.06.12.12.18.18.19.19.37.38.52.56.02.03.06.04.09.07,0,0,.01.02.02.02,0,0,0,0,.01,0,.03.02.05.04.08.06.09.04.18.07.27.07.16,0,.31-.06.43-.18.04-.04.07-.08.09-.13.68-.78,1.66-1.67,2.89-2.63-.02.05-.03.1-.04.15,0,0,0,0,0,0-.16.52-.25,1.08-.21,1.67.09,1.28.78,2.41,2.04,3.35.17.12.34.22.52.31,0,0,0,0,0,0,.13.06.26.12.39.16.08.03.17.06.25.09.11.03.21.06.33.08.12.02.24.04.37.05.1,0,.19.02.29.02.01,0,.03,0,.04,0,.08,0,.16-.02.24-.02.14,0,.27,0,.41-.02v606.62ZM281.56,406.4v-.93h0l.97.7c.13.08.25.15.42.24h0c-.15,0-.3,0-.45,0h-.95ZM311.69,378.24c-2.69,1.66-5.23,3.88-7.47,5.85-2.58,2.26-5.01,4.4-6.98,5.01-1.01.32-1.81.22-2.53-.31-.97-.72-1.49-1.55-1.56-2.46-.01-.19,0-.37.02-.55,0-.02,0-.05,0-.07.02-.15.06-.3.1-.44.02-.06.03-.12.04-.18.04-.14.1-.27.15-.4.02-.06.05-.12.07-.18.06-.13.12-.25.19-.37.03-.05.06-.1.08-.15.07-.12.14-.22.21-.33.03-.04.05-.08.08-.12.07-.1.14-.2.21-.28.02-.03.04-.05.06-.08.07-.08.13-.16.18-.22.01-.01.02-.02.03-.03.06-.06.11-.12.14-.15,3.49-2.39,8.03-4.92,12.93-7.1,6.31-2.79,13.21-4.98,19.24-5.46.35-.03.74-.06,1.13-.09-4.95,1.8-10.62,4.61-16.32,8.12ZM492.04,339.23c-16.31,5.19-60.52,15.92-83.38,19.79-19.74,3.34-56.16,7.54-74.6,9.34-.01,0-.03,0-.04,0-2.94.29-5.37.5-7.23.65-6.12.49-13.1,2.69-19.48,5.5-5.02,2.21-9.67,4.8-13.24,7.23-.03.01-.05.03-.07.04-1.08.75-2.06,1.47-2.91,2.16.17-.31.34-.63.51-.94,4.72-8.71,9.18-16.94,16.43-23.49,5.24-4.76,11.65-8.31,19.59-10.87,11.92-3.84,25.34-6.1,42.34-8.97,16.09-2.71,36.12-6.09,61.83-11.97,46.2-10.58,76.5-24.09,85.88-30.73,4.73,1.04,7.91,2.18,10.04,3.52.02,0,.03.02.05.03.26.17.51.34.74.52.05.03.1.07.14.1.2.15.38.31.56.47.06.06.13.12.2.18.15.14.28.29.41.43.07.08.15.16.22.25.11.13.2.26.3.39.08.11.16.21.23.32.07.11.14.23.2.34.08.13.15.27.22.4.05.09.09.19.13.29.07.16.15.33.21.5.03.07.05.14.07.22.07.2.13.41.19.61.01.04.02.08.03.12.13.51.22,1.04.28,1.59,0,.02,0,.03,0,.05,0,0,0,0,0,.01l.06.48c.04.58.06,1.16.06,1.8,0,.04,0,.07,0,.1-.13,10.17-24.1,24.49-39.96,29.52Z"/>
</svg>