<?xml version="1.0" encoding="UTF-8"?>
<svg id="Livello_1" xmlns="http://www.w3.org/2000/svg" version="1.1" viewBox="0 0 374.09 215.71">
  <!-- Generator: Adobe Illustrator 29.8.1, SVG Export Plug-In . SVG Version: 2.1.1 Build 2)  -->
  <defs>
    <style>
      .st0 {
        fill: red;
      }

      .st1 {
        fill: none;
        stroke: #131211;
        stroke-linecap: round;
        stroke-linejoin: round;
        stroke-width: 1.2px;
      }
    </style>
  </defs>
  <path class="st0" d="M52.15,205.24c-.1,0-.19-.06-.23-.15-.02-.06-.02-.13,0-.19.03-.07.08-.11.14-.14.58-.24,1.18-.53,1.78-.85.12-.06.28-.02.34.1s.02.28-.1.34c-.61.33-1.22.62-1.83.87-.03.02-.06.02-.1.02ZM54.83,203.89c-.09,0-.17-.04-.21-.12-.03-.04-.04-.09-.04-.13,0-.09.05-.17.13-.21.54-.32,1.11-.67,1.68-1.06.11-.07.27-.04.34.07.04.06.05.12.04.19,0,.06-.05.12-.1.16-.59.39-1.16.75-1.71,1.07-.04.02-.08.03-.13.03ZM57.35,202.26c-.08,0-.16-.04-.2-.11-.03-.04-.05-.09-.05-.15,0-.07.04-.15.1-.19.51-.36,1.05-.77,1.59-1.2.11-.08.27-.06.35.04.09.11.07.27-.04.36-.54.42-1.08.83-1.61,1.2-.04.03-.09.05-.14.05ZM59.73,200.43c-.08,0-.15-.03-.2-.09-.03-.04-.05-.1-.05-.16,0-.07.03-.14.09-.19.51-.42,1.02-.86,1.51-1.3.1-.09.27-.08.35.02.1.1.09.26-.02.35-.5.45-1.02.89-1.52,1.31h0c-.05.04-.1.06-.16.06ZM61.99,198.46c-.07,0-.14-.03-.19-.08-.04-.05-.06-.11-.06-.17,0-.07.03-.14.08-.19.49-.45.98-.92,1.44-1.37.1-.1.26-.1.36,0,.09.1.09.26-.01.35-.49.49-.98.96-1.45,1.39-.05.04-.11.07-.17.07ZM64.15,196.37c-.07,0-.13-.03-.18-.07-.05-.05-.07-.11-.07-.18,0-.06.02-.12.06-.17t.01,0s0,0,.02,0c.48-.49.93-.96,1.36-1.42.1-.1.26-.1.36-.01.1.09.1.25.01.35-.5.53-.96,1-1.4,1.45h0s-.11.07-.17.07ZM66.22,194.2c-.07,0-.13-.03-.17-.07-.05-.05-.08-.11-.08-.18s.02-.13.06-.17c.44-.47.88-.97,1.34-1.49.08-.1.25-.11.35-.02.05.04.08.1.08.17.01.07,0,.13-.06.18-.41.47-.85.96-1.33,1.49h-.01c-.05.06-.11.09-.18.09ZM68.21,191.95c-.06,0-.12-.02-.17-.06-.05-.05-.08-.12-.08-.19,0-.06.02-.12.06-.16.42-.49.85-1,1.28-1.53.08-.1.25-.12.35-.03.11.08.12.24.04.35-.45.54-.87,1.05-1.29,1.54-.05.05-.12.08-.19.08ZM70.13,189.64c-.06,0-.12-.02-.16-.05-.06-.05-.09-.12-.09-.19,0-.06.02-.12.05-.16.37-.46.77-.96,1.24-1.57.09-.11.25-.13.36-.04.1.08.12.24.04.35-.49.62-.89,1.12-1.25,1.57-.05.06-.12.09-.19.09ZM71.98,187.28c-.06,0-.11-.02-.15-.05-.06-.05-.1-.12-.1-.2,0-.05.02-.11.05-.15.41-.53.81-1.07,1.2-1.6.08-.1.24-.13.35-.05.05.04.09.1.1.16,0,.07-.01.14-.05.19-.37.51-.77,1.04-1.2,1.6-.05.07-.12.1-.2.1ZM73.77,184.88s-.11-.02-.15-.05c-.06-.05-.1-.12-.1-.2,0-.05,0-.11.05-.15.42-.58.8-1.11,1.15-1.62.08-.12.24-.15.35-.07.11.08.14.24.06.35-.34.49-.71,1.01-1.16,1.63-.05.07-.12.11-.2.11ZM75.5,182.43s-.1-.02-.14-.05c-.07-.04-.11-.12-.11-.21,0-.05.01-.09.04-.13.43-.63.79-1.16,1.12-1.66.07-.11.24-.14.35-.07.05.04.09.1.1.16.02.07,0,.13-.03.19-.34.51-.71,1.05-1.13,1.66-.04.07-.12.11-.2.11ZM77.17,179.93s-.1-.01-.14-.04c-.07-.04-.11-.12-.11-.2,0-.05.01-.09.04-.13h0s.01-.02.01-.03c.33-.5.71-1.08,1.07-1.66.07-.12.23-.15.35-.08.12.07.15.23.08.34-.41.65-.76,1.18-1.09,1.69h0c-.05.07-.13.11-.21.11ZM78.79,177.4s-.09,0-.13-.04c-.08-.04-.12-.13-.12-.21,0-.05,0-.09.04-.13.31-.51.68-1.1,1.04-1.71.07-.11.23-.15.34-.08.12.07.16.22.09.34-.41.67-.74,1.21-1.04,1.7t-.01,0c-.04.08-.12.12-.21.12ZM80.35,174.83c-.05,0-.09,0-.13-.03-.08-.05-.12-.13-.12-.21,0-.05,0-.09.03-.13.34-.58.68-1.16,1-1.73.07-.12.23-.16.35-.1.12.07.16.23.09.35-.37.63-.69,1.2-1.01,1.73-.04.08-.12.12-.21.12ZM81.84,172.23s-.08,0-.12-.03c-.08-.05-.13-.13-.12-.22,0-.04,0-.08.02-.11h0s.01-.03.01-.03c.26-.47.61-1.09.95-1.73.06-.12.22-.17.34-.1.12.06.17.22.1.34-.31.57-.63,1.16-.97,1.76h0c-.05.08-.13.12-.22.12ZM83.28,169.6s-.08,0-.12-.03c-.08-.05-.13-.13-.13-.22,0-.04.01-.09.03-.12.31-.58.62-1.18.92-1.78.06-.11.22-.17.34-.1.12.06.17.21.11.33-.29.56-.59,1.15-.93,1.78-.04.08-.13.14-.22.14ZM84.65,166.92s-.08,0-.11-.02c-.09-.05-.14-.13-.14-.23,0-.04.01-.07.03-.1h0s0-.02,0-.02c.28-.57.56-1.15.86-1.78.06-.12.21-.18.33-.12.06.03.11.08.13.14.02.06.02.13-.01.19-.31.66-.6,1.25-.88,1.81-.04.08-.13.13-.22.13ZM85.95,164.22s-.07-.01-.11-.03c-.08-.04-.14-.12-.14-.22,0-.04,0-.07.02-.11.27-.58.55-1.19.82-1.82.05-.12.2-.18.33-.13.12.06.18.21.13.33-.26.59-.53,1.19-.83,1.83-.04.09-.13.15-.22.15ZM87.16,161.47s-.06,0-.09-.02c-.1-.04-.16-.13-.16-.23,0-.03,0-.06.02-.1.25-.59.51-1.21.76-1.84.05-.13.2-.19.32-.14.06.02.11.07.14.13.03.06.03.13,0,.19-.23.59-.48,1.19-.76,1.86-.04.09-.13.15-.23.15Z"/>
  <path class="st0" d="M54.81,199.49h-.02c-.13,0-.24-.11-.25-.24-.04-.7-.07-1.36-.09-2-.01-.07.02-.13.06-.18.05-.05.11-.08.18-.08h0c.14,0,.25.1.26.24.02.64.05,1.31.09,1.99,0,.14-.09.26-.23.27h0ZM54.67,196.49h0c-.14,0-.25-.11-.25-.24h0c-.02-.56-.02-1.15-.02-1.75v-.26c0-.14.11-.25.25-.25.13,0,.25.11.25.25v.26c0,.57,0,1.14.01,1.72h0c0,.08-.03.14-.07.19-.05.05-.11.08-.18.08h0ZM54.66,193.49h-.01c-.14,0-.25-.12-.24-.25,0-.64.03-1.31.06-2,0-.14.11-.24.24-.24h.02c.06,0,.12.03.17.08.04.05.07.11.06.18-.03.71-.04,1.36-.05,1.99-.01.13-.12.24-.25.24ZM54.76,190.5h-.01c-.13,0-.24-.12-.24-.25h0c.04-.69.09-1.36.14-2.01.01-.14.13-.22.27-.23.14,0,.24.13.23.27-.05.67-.1,1.34-.14,1.98,0,.14-.11.24-.25.24ZM54.99,187.52h-.02c-.13-.02-.23-.12-.23-.25v-.02c.07-.74.14-1.39.22-2,.01-.14.14-.23.28-.22.13.02.23.14.22.28-.09.69-.16,1.35-.22,1.98-.01.13-.12.23-.25.23ZM55.33,184.54h-.03c-.12-.02-.22-.13-.22-.25,0,0,0-.02,0-.04.08-.64.18-1.31.29-1.98.02-.13.14-.23.28-.21.07,0,.13.05.17.1.04.06.05.12.04.19-.11.68-.2,1.35-.29,1.97-.02.13-.12.22-.25.22ZM55.79,181.58s-.03,0-.04,0c-.12-.02-.21-.13-.21-.25v-.04c.12-.65.24-1.31.37-1.97.03-.13.17-.23.3-.2s.22.16.19.3c-.13.67-.25,1.33-.36,1.96-.03.12-.13.21-.25.21ZM56.36,178.63s-.04,0-.05-.01c-.12-.02-.2-.12-.2-.24v-.05c.14-.63.29-1.29.45-1.96.03-.13.17-.21.3-.18.06,0,.11.05.15.11.04.05.05.12.03.19-.14.61-.29,1.24-.44,1.94-.02.12-.12.2-.24.2ZM57.04,175.71s-.05,0-.07,0c-.11-.03-.18-.12-.18-.24v-.06c.17-.65.34-1.3.51-1.94.04-.13.18-.21.31-.17.07.01.12.05.15.11.04.06.04.13.03.19-.18.67-.36,1.31-.51,1.92h0c-.03.12-.13.2-.24.2ZM57.82,172.82s-.05,0-.07-.02c-.11-.03-.18-.12-.18-.23,0-.02,0-.05.01-.07.19-.65.38-1.29.58-1.92.04-.13.18-.21.31-.17.14.04.21.18.17.31-.2.61-.38,1.24-.58,1.91h0c-.03.11-.13.19-.24.19ZM58.7,169.95s-.05,0-.07,0c-.11-.04-.18-.13-.18-.24,0-.03,0-.06.02-.08.21-.64.42-1.28.64-1.9.05-.12.19-.2.32-.15.13.05.2.19.15.32-.22.63-.44,1.27-.64,1.89-.03.1-.13.17-.24.17ZM59.68,167.11s-.05,0-.08,0c-.1-.04-.16-.13-.16-.24,0-.03,0-.05.01-.08.24-.65.47-1.27.71-1.88.05-.12.2-.19.32-.14.13.05.19.2.14.33-.21.54-.43,1.11-.7,1.86-.04.1-.13.16-.24.16ZM60.76,164.32s-.06,0-.09-.02c-.1-.04-.16-.14-.16-.24,0-.03,0-.06.02-.09.25-.62.51-1.24.76-1.85.06-.12.21-.19.33-.13.13.05.19.2.13.33-.25.58-.49,1.18-.76,1.83h0c-.04.1-.13.17-.23.17ZM61.92,161.55s-.07-.01-.1-.02c-.09-.04-.15-.13-.15-.23,0-.04.01-.07.02-.1.26-.58.54-1.2.83-1.83.05-.12.21-.17.33-.12.12.06.18.21.12.33-.27.59-.54,1.19-.82,1.82-.04.09-.13.15-.23.15ZM63.17,158.82s-.08,0-.11-.02c-.09-.04-.14-.13-.14-.23,0-.03.01-.07.02-.1.27-.57.57-1.18.88-1.81.06-.12.22-.16.34-.11.12.06.17.21.11.34-.3.59-.59,1.19-.87,1.79,0,0,0,0,0,0-.04.08-.13.13-.22.13ZM64.5,156.13s-.08-.01-.12-.03c-.08-.04-.13-.12-.13-.21,0-.04.01-.08.02-.12.32-.61.63-1.21.93-1.78.06-.12.22-.16.34-.1.06.03.1.09.12.15.02.06,0,.13-.02.19-.3.56-.61,1.15-.92,1.77-.04.08-.13.13-.22.13ZM65.9,153.48s-.08,0-.12-.03c-.08-.04-.13-.13-.13-.22,0-.04.01-.08.03-.12.34-.62.66-1.19.98-1.75.06-.11.22-.16.34-.09s.16.22.09.34c-.35.61-.67,1.18-.97,1.74-.05.08-.13.13-.22.13ZM67.37,150.87s-.09,0-.12-.04c-.08-.04-.13-.12-.13-.21,0-.04,0-.09.04-.12.36-.63.7-1.2,1.02-1.73.07-.11.23-.15.34-.08.12.07.16.22.09.34-.33.55-.68,1.13-1.02,1.71h0c-.05.08-.13.13-.22.13ZM68.91,148.3s-.09-.02-.13-.04c-.07-.05-.12-.13-.12-.22,0-.04.02-.09.04-.13.31-.5.65-1.04,1.06-1.69.08-.11.24-.15.35-.08.06.04.09.09.11.16,0,.06,0,.13-.03.19-.4.62-.74,1.17-1.06,1.69-.05.07-.13.12-.22.12ZM70.52,145.76s-.1-.01-.14-.04c-.07-.04-.11-.12-.11-.2,0-.05,0-.1.04-.14.36-.56.73-1.12,1.1-1.68.08-.11.24-.14.35-.06.12.07.15.23.07.34-.34.51-.7,1.05-1.1,1.67-.05.07-.13.11-.21.11ZM72.18,143.27c-.05,0-.1-.02-.14-.05-.07-.04-.11-.12-.11-.2,0-.05.02-.1.05-.14.37-.55.75-1.1,1.14-1.65.07-.11.24-.14.35-.06.05.04.09.1.1.16.01.07,0,.13-.04.19-.34.48-.71,1-1.14,1.64,0,0-.01,0-.01,0-.04.06-.12.1-.2.1ZM73.9,140.81s-.1-.02-.14-.05c-.07-.04-.11-.12-.11-.19,0-.06.02-.11.05-.16.35-.48.76-1.04,1.18-1.61.08-.11.24-.14.35-.06.05.04.09.1.1.17,0,.06-.01.13-.05.18-.35.48-.72.99-1.17,1.62-.05.06-.13.1-.21.1ZM75.68,138.39c-.06,0-.11-.02-.15-.05-.07-.05-.1-.12-.1-.2,0-.05,0-.1.05-.15.43-.57.83-1.1,1.21-1.59.08-.11.24-.13.35-.05.11.09.13.25.05.35-.41.54-.82,1.07-1.21,1.59h0c-.05.07-.12.1-.2.1ZM77.5,136.01c-.06,0-.11-.02-.15-.05-.07-.05-.1-.13-.1-.21,0-.05.02-.1.05-.14.43-.55.85-1.08,1.25-1.57.08-.1.25-.12.35-.04.11.09.12.24.04.35-.49.61-.89,1.11-1.24,1.57-.05.06-.12.09-.2.09ZM79.37,133.67c-.06,0-.11-.02-.16-.06-.05-.05-.09-.12-.09-.19,0-.06.02-.11.05-.16h.01s0-.02.02-.02c.38-.48.79-.97,1.25-1.53.09-.1.25-.11.35-.03.11.09.12.25.04.35-.41.49-.83,1-1.27,1.54-.05.06-.12.1-.2.1ZM81.28,131.36s-.11-.02-.16-.06c-.05-.05-.08-.12-.08-.19,0-.06.02-.12.06-.16.44-.53.88-1.04,1.3-1.52.08-.1.25-.12.35-.03s.12.25.03.35c-.45.51-.88,1.02-1.3,1.52-.05.06-.12.09-.2.09ZM83.24,129.08c-.06,0-.12-.02-.16-.06-.06-.05-.09-.12-.09-.19,0-.06.03-.12.07-.16l1.32-1.5c.09-.1.26-.11.36-.02.1.1.11.25.02.35-.42.48-.88.98-1.32,1.49,0,0,0,0,0,0-.04.05-.11.08-.19.08ZM85.24,126.84c-.06,0-.12-.02-.17-.06-.05-.04-.08-.11-.08-.17,0-.07.02-.13.07-.18.48-.53.92-1.02,1.35-1.48.09-.09.26-.1.35,0,.1.09.11.25.02.35-.49.53-.93,1.01-1.35,1.47-.05.06-.12.08-.19.08ZM87.27,124.64c-.06,0-.12-.02-.17-.07-.04-.04-.07-.1-.08-.17,0-.07.03-.13.07-.18.42-.45.88-.93,1.38-1.45.09-.1.25-.1.35,0,.1.1.11.25.01.35-.48.5-.94.99-1.37,1.45-.05.05-.12.08-.19.08ZM89.34,122.47c-.06,0-.12-.03-.17-.07-.05-.05-.08-.11-.08-.18,0-.06.03-.13.07-.18.44-.45.9-.92,1.4-1.43.09-.09.26-.09.36,0,.04.05.07.11.07.17,0,.07-.02.13-.07.18-.41.42-.9.92-1.4,1.43-.05.05-.11.08-.18.08ZM91.44,120.33c-.06,0-.12-.03-.17-.07-.05-.05-.08-.11-.08-.18s.03-.13.08-.18c.41-.41.91-.91,1.42-1.41.09-.09.26-.09.35,0,.1.09.1.25,0,.35-.57.56-1.01,1-1.42,1.41-.05.04-.11.07-.18.07ZM93.58,118.22c-.07,0-.13-.03-.18-.08-.05-.05-.07-.11-.07-.18,0-.06.03-.12.07-.17.43-.41.93-.9,1.44-1.39.1-.09.26-.09.36,0,.04.04.07.11.07.17,0,.07-.03.13-.08.18-.56.53-1.01.97-1.44,1.39h0s-.1.07-.16.07ZM95.74,116.14c-.07,0-.13-.03-.18-.08s-.07-.11-.07-.18c0-.06.03-.13.08-.17.42-.4.95-.9,1.46-1.37.09-.09.26-.09.35,0,.09.1.09.26,0,.35-.53.49-1,.94-1.46,1.37t-.01,0s-.1.06-.16.06ZM97.93,114.09c-.07,0-.14-.03-.18-.08-.05-.05-.07-.11-.07-.18s.03-.13.08-.17c.53-.49,1.01-.93,1.48-1.35.1-.09.26-.08.35,0,.05.05.07.12.07.18-.01.07-.04.13-.09.18-.57.52-1.04.95-1.47,1.35-.05.04-.11.06-.17.06ZM100.15,112.07c-.07,0-.14-.03-.19-.08-.04-.05-.07-.12-.06-.18,0-.07.03-.13.08-.18l.05-.04c.48-.43.96-.86,1.44-1.29.1-.09.27-.08.36.02.09.11.08.27-.03.36-.51.45-1.01.9-1.49,1.33-.04.04-.1.06-.16.06ZM102.39,110.08c-.07,0-.14-.03-.19-.09-.04-.04-.06-.1-.06-.15,0-.08.03-.14.08-.19h0s.02-.02.02-.03c.5-.43,1-.87,1.5-1.3.1-.08.26-.07.35.03.04.05.06.12.06.18,0,.07-.04.13-.09.17-.44.38-.9.79-1.51,1.32-.04.04-.1.06-.16.06ZM104.66,108.11c-.08,0-.15-.03-.19-.09-.04-.04-.06-.1-.06-.15-.01-.08.03-.15.08-.2.45-.38.95-.81,1.53-1.29.1-.09.27-.08.35.03.09.1.07.26-.03.35-.5.42-1.01.86-1.52,1.29-.05.04-.1.06-.16.06ZM106.95,106.17c-.08,0-.15-.03-.2-.09-.03-.04-.06-.1-.06-.15,0-.08.04-.15.09-.2.44-.37.92-.76,1.54-1.28.11-.08.27-.07.36.04.04.05.06.11.05.18,0,.07-.04.12-.09.17-.51.42-1.02.85-1.53,1.27h0s-.11.06-.16.06ZM109.25,104.26c-.07,0-.14-.03-.19-.09-.04-.05-.06-.1-.06-.16,0-.08.04-.15.1-.19.51-.42,1.03-.84,1.55-1.27.1-.08.27-.06.35.04.09.11.07.27-.04.35-.46.38-.95.78-1.55,1.26-.04.04-.1.06-.16.06ZM111.59,102.37c-.08,0-.15-.03-.2-.09-.04-.05-.05-.1-.05-.16,0-.08.03-.15.09-.19.57-.46,1.08-.87,1.57-1.25.1-.08.27-.06.35.04.08.11.06.27-.05.35-.52.42-1.04.83-1.56,1.25-.04.03-.1.05-.15.05ZM113.94,100.51c-.08,0-.16-.04-.2-.1-.03-.04-.05-.09-.05-.15,0-.07.03-.15.09-.2.47-.37.97-.76,1.58-1.23.11-.08.27-.06.35.05.09.1.07.26-.04.35-.53.41-1.06.82-1.58,1.22-.04.04-.1.06-.15.06ZM116.3,98.67c-.07,0-.15-.04-.19-.1-.04-.04-.05-.1-.06-.15,0-.08.04-.15.1-.2l.14-.11c.48-.36.97-.74,1.45-1.11.11-.08.27-.05.35.05.04.06.06.12.05.19-.01.06-.04.12-.09.16-.51.39-1.05.8-1.59,1.22-.05.03-.1.05-.16.05ZM118.69,96.85c-.08,0-.15-.04-.2-.1-.03-.04-.05-.09-.05-.15,0-.08.03-.15.09-.19h.01s.02-.02.03-.03c.55-.42,1.07-.8,1.57-1.18.11-.08.27-.05.35.05.08.11.06.27-.05.35-.64.48-1.13.85-1.59,1.19t-.01,0s-.09.05-.15.05ZM121.1,95.05c-.08,0-.16-.03-.21-.1-.03-.04-.04-.09-.04-.15,0-.08.03-.15.1-.2.59-.43,1.11-.82,1.61-1.18.11-.08.27-.05.35.05.08.11.06.27-.06.35-.52.38-1.03.76-1.61,1.19-.04.03-.09.04-.14.04ZM123.52,93.28c-.08,0-.16-.04-.21-.1-.03-.05-.05-.1-.05-.15,0-.08.04-.16.11-.2l.11-.08c.5-.36,1-.73,1.51-1.09.11-.08.27-.05.35.06.08.11.05.27-.06.35-.49.35-1.02.73-1.61,1.16,0,0,0,0,0,0-.04.03-.09.04-.14.04ZM125.95,91.53c-.08,0-.16-.04-.2-.1-.04-.05-.05-.1-.05-.16,0-.08.04-.15.1-.19l.26-.18c.45-.33.91-.66,1.38-.98.11-.08.27-.05.35.06s.05.27-.07.35c-.52.37-1.08.76-1.62,1.15-.05.03-.1.05-.15.05ZM128.4,89.8c-.08,0-.16-.04-.2-.11-.03-.04-.05-.09-.05-.14,0-.08.04-.16.11-.21.54-.38,1.09-.76,1.64-1.14.11-.08.27-.05.35.06.07.12.05.27-.07.35-.45.31-1.05.73-1.64,1.14-.04.03-.09.05-.14.05ZM130.86,88.09c-.08,0-.16-.04-.2-.11-.03-.04-.05-.09-.05-.14,0-.08.04-.16.11-.21.55-.38,1.1-.75,1.65-1.13.11-.08.27-.04.35.07.04.05.05.12.04.18-.01.07-.05.13-.11.16-.55.38-1.1.76-1.64,1.13-.05.03-.1.05-.15.05ZM133.34,86.39c-.08,0-.16-.04-.21-.1-.02-.05-.04-.09-.04-.14,0-.09.04-.17.11-.21.55-.37,1.1-.75,1.66-1.12.11-.07.28-.04.35.07.03.05.05.12.03.19-.01.06-.05.12-.1.16l-.21.13c-.48.33-.97.66-1.45.98-.04.03-.09.04-.14.04ZM135.83,84.72c-.08,0-.16-.04-.21-.11-.03-.04-.04-.09-.04-.14,0-.08.04-.15.1-.2h0l.02-.02c.4-.26.79-.53,1.13-.75.08-.05.15-.1.23-.15.1-.06.19-.12.29-.19.11-.07.27-.04.35.07.07.12.04.27-.08.35l-.18.12c-.11.07-.22.15-.33.22-.39.25-.77.51-1.15.76-.04.03-.09.04-.14.04ZM138.33,83.07c-.08,0-.16-.04-.21-.11-.02-.04-.04-.09-.04-.14,0-.09.05-.16.12-.21.55-.36,1.11-.72,1.68-1.09.11-.07.27-.03.34.08.08.12.04.27-.07.35-.55.35-1.12.71-1.68,1.08-.04.03-.09.04-.14.04ZM140.86,81.45c-.09,0-.17-.05-.21-.12-.03-.04-.04-.08-.04-.13,0-.08.04-.17.11-.21.56-.36,1.13-.72,1.7-1.07.11-.07.27-.04.34.08.07.11.04.27-.08.34l-.18.12c-.5.31-1.01.63-1.51.95-.04.02-.09.04-.13.04ZM143.4,79.85c-.09,0-.17-.04-.22-.12-.02-.04-.03-.08-.03-.13,0-.08.04-.17.12-.21.53-.34,1.09-.68,1.7-1.05.11-.07.27-.03.34.08.08.12.04.27-.08.35-.61.37-1.2.73-1.7,1.04-.04.03-.09.04-.13.04ZM145.96,78.28c-.09,0-.17-.05-.22-.12-.02-.04-.04-.08-.04-.13,0-.08.05-.16.12-.21h0s.02,0,.02,0c.57-.35,1.13-.69,1.7-1.03.11-.07.27-.03.34.09.04.06.05.12.03.19-.02.06-.06.12-.11.15-.68.41-1.22.73-1.71,1.04h0s-.08.03-.12.03ZM148.53,76.74c-.09,0-.17-.05-.22-.13-.02-.04-.03-.08-.03-.13,0-.08.04-.16.12-.21.69-.41,1.23-.72,1.73-1.02.11-.06.27-.02.34.09.03.06.04.13.02.19-.01.07-.06.12-.11.15-.56.33-1.14.67-1.72,1.02-.04.02-.09.04-.13.04ZM151.11,75.21c-.08,0-.17-.04-.21-.12-.02-.04-.04-.08-.04-.13,0-.09.05-.16.12-.21h.01s0-.01.02-.01c.52-.31,1.08-.63,1.71-.99.12-.07.28-.03.34.09.07.12.03.27-.09.34l-.1.06c-.53.31-1.09.62-1.63.94-.04.02-.08.03-.13.03ZM153.71,73.72c-.08,0-.17-.05-.21-.13-.02-.04-.04-.08-.04-.12,0-.09.05-.17.13-.22.55-.32,1.14-.65,1.74-.99.12-.06.28-.02.34.09.07.13.03.28-.09.35-.59.33-1.18.66-1.74.98,0,.01,0,.01,0,.01-.04.02-.08.03-.12.03ZM156.33,72.24c-.09,0-.18-.05-.22-.13-.02-.03-.03-.08-.03-.12-.01-.09.04-.17.12-.22.58-.32,1.17-.65,1.75-.97.12-.07.28-.02.34.09.07.13.03.28-.09.34l-.15.09c-.53.29-1.07.59-1.6.89-.04.02-.08.03-.12.03ZM158.95,70.78c-.09,0-.18-.05-.22-.13-.02-.03-.03-.07-.03-.11,0-.1.05-.18.13-.23.49-.27.99-.54,1.48-.81l.28-.15c.11-.06.27-.02.33.1.04.06.04.13.03.19-.02.07-.07.12-.13.15-.55.3-1.1.6-1.75.96-.04.02-.08.03-.12.03ZM161.58,69.35c-.09,0-.17-.05-.22-.13-.02-.04-.03-.08-.03-.12,0-.1.05-.18.13-.22.59-.32,1.18-.64,1.77-.95.11-.07.27-.02.34.1.06.12.02.27-.11.34-.64.34-1.28.69-1.76.95-.03.02-.08.03-.12.03ZM164.23,67.93c-.09,0-.18-.05-.22-.13-.02-.04-.03-.08-.03-.12,0-.1.05-.18.13-.22l.14-.08c.54-.29,1.09-.57,1.63-.86.12-.06.28-.01.34.11.03.05.04.12.02.19-.02.06-.07.11-.13.14-.62.33-1.24.66-1.76.94-.04.02-.08.03-.12.03ZM166.88,66.53c-.1,0-.18-.05-.22-.14-.02-.03-.03-.07-.03-.12,0-.09.05-.17.13-.21.58-.31,1.17-.61,1.77-.92.12-.07.28-.02.34.1.06.12,0,.28-.11.34-.58.3-1.14.59-1.77.92-.03.02-.07.03-.11.03ZM169.53,65.15c-.09,0-.18-.05-.22-.14-.02-.03-.03-.08-.03-.12,0-.09.06-.17.14-.21.41-.22.82-.43,1.24-.64l.53-.27c.13-.06.28-.01.34.11.06.12,0,.27-.11.33l-.5.26c-.43.22-.85.43-1.27.65-.04.02-.08.03-.12.03ZM172.2,63.79c-.1,0-.18-.06-.23-.14,0-.03-.02-.07-.02-.11,0-.1.05-.19.13-.23l.68-.34c.37-.18.74-.37,1.11-.56.12-.06.27-.01.33.11.06.13,0,.28-.11.34-.59.3-1.19.6-1.78.9-.04.02-.07.03-.11.03ZM174.87,62.44c-.09,0-.18-.06-.22-.14-.02-.03-.03-.07-.03-.11,0-.1.05-.18.14-.23.59-.29,1.19-.59,1.79-.89.12-.06.27,0,.34.11.06.13,0,.28-.12.34-.59.29-1.2.59-1.79.89h0s-.07.03-.11.03ZM177.56,61.1c-.1,0-.19-.05-.23-.14-.02-.03-.02-.07-.02-.11,0-.09.04-.17.13-.22h0s.02,0,.03,0c.58-.29,1.18-.58,1.77-.88.12-.05.28,0,.34.12.03.06.03.13,0,.19-.02.06-.07.11-.13.14-.6.3-1.2.59-1.79.89-.04,0-.08.02-.11.02ZM180.25,59.78c-.09,0-.18-.06-.22-.14-.02-.03-.03-.07-.03-.11,0-.09.06-.18.14-.22.54-.27,1.17-.58,1.81-.88.11-.06.27,0,.33.12.03.06.03.13,0,.19-.02.06-.07.11-.13.14-.52.25-1.08.52-1.8.88h-.01s-.06.02-.1.02ZM182.96,58.47c-.1,0-.19-.06-.23-.14-.01-.03-.02-.07-.02-.11,0-.09.05-.18.14-.22.66-.33,1.31-.64,1.81-.87.11-.06.27,0,.33.12.06.12,0,.27-.12.33-.4.19-.81.39-1.21.58l-.6.29s-.07.02-.1.02ZM185.67,57.17c-.1,0-.18-.05-.23-.14-.01-.03-.02-.07-.02-.11,0-.1.06-.18.14-.22.39-.19.78-.37,1.16-.55l.66-.31c.12-.06.27,0,.33.12.06.13,0,.27-.12.33-.6.29-1.21.57-1.81.86-.04.01-.07.02-.11.02ZM188.39,55.89c-.09,0-.18-.06-.22-.14-.02-.04-.03-.08-.03-.11,0-.1.06-.19.15-.23.54-.25,1.12-.52,1.82-.85.12-.05.27,0,.33.12.03.07.03.13,0,.2-.03.06-.07.11-.13.14-.61.28-1.21.56-1.82.84-.03.02-.07.03-.11.03ZM191.12,54.62c-.1,0-.18-.06-.22-.15-.02-.03-.03-.07-.03-.11,0-.09.06-.18.15-.22.47-.22.94-.44,1.41-.65l.4-.19c.12-.06.28,0,.34.12.05.13,0,.28-.13.34l-.46.21c-.45.21-.9.42-1.35.62-.04.02-.07.03-.11.03ZM193.85,53.36c-.1,0-.19-.06-.23-.14-.02-.04-.02-.08-.02-.11,0-.1.06-.18.14-.22.61-.28,1.22-.56,1.82-.84.13-.05.28.01.34.13.05.13,0,.27-.13.33l-.59.27c-.41.19-.82.37-1.23.56-.03.01-.07.02-.1.02ZM196.58,52.12c-.1,0-.19-.06-.23-.15,0-.03-.02-.07-.02-.11,0-.09.06-.18.15-.22l.47-.22c.45-.2.9-.4,1.35-.6.12-.06.28,0,.33.12.06.13,0,.28-.12.33-.59.27-1.21.55-1.83.83-.03,0-.06.02-.1.02ZM199.31,50.89c-.09,0-.18-.06-.22-.15-.02-.03-.02-.06-.03-.1,0-.1.06-.19.15-.23.43-.19.86-.38,1.29-.58l.54-.24c.12-.05.28.01.33.13.06.13,0,.27-.13.33-.6.27-1.21.54-1.82.81-.03.02-.07.03-.11.03ZM202.06,49.67c-.1,0-.19-.06-.23-.15-.02-.03-.02-.06-.02-.1,0-.1.05-.19.15-.23.34-.15.69-.31,1.03-.46.27-.12.53-.23.8-.35.12-.05.27,0,.33.13.05.12,0,.27-.13.33-.61.26-1.22.53-1.83.8-.03.02-.07.03-.1.03ZM204.8,48.46c-.1,0-.19-.06-.23-.15-.01-.03-.02-.07-.02-.1,0-.1.06-.19.15-.23.68-.3,1.28-.56,1.84-.8.12-.05.27,0,.33.13.02.06.02.13,0,.19-.02.06-.07.11-.13.14l-.36.15c-.49.22-.98.43-1.48.65-.03,0-.06.02-.1.02ZM207.55,47.26c-.1,0-.19-.06-.23-.15-.01-.03-.02-.07-.02-.1,0-.1.06-.19.15-.23.62-.27,1.23-.53,1.84-.79.12-.06.28,0,.33.13.06.12,0,.27-.13.33-.61.26-1.22.52-1.84.79-.03.01-.06.02-.1.02ZM210.31,46.07c-.1,0-.19-.06-.23-.15,0-.03-.02-.06-.02-.1,0-.09.06-.18.14-.23h0s0,0,.02,0c.61-.26,1.22-.52,1.82-.78.13-.05.28.01.33.14.03.06.03.13,0,.19-.02.06-.07.11-.13.13-.61.27-1.23.53-1.84.79h0s-.06.02-.09.02ZM213.07,44.89c-.1,0-.19-.06-.23-.15,0-.03-.02-.06-.02-.1,0-.1.06-.19.15-.23.47-.19.93-.39,1.39-.58l.46-.2c.12-.05.27.01.32.14.03.06.03.12.01.19-.03.06-.08.11-.14.13-.61.26-1.23.52-1.84.78-.03.02-.07.02-.1.02ZM215.84,43.73c-.1,0-.2-.06-.24-.16,0-.03,0-.06,0-.09,0-.1.06-.2.15-.24.36-.15.73-.3,1.09-.45l.75-.32c.12-.05.28.01.33.14.03.06.03.12,0,.19-.02.06-.07.11-.13.13-.27.12-.55.23-.82.34-.34.15-.68.29-1.03.44-.03,0-.06.02-.09.02ZM218.6,42.57c-.1,0-.19-.06-.23-.16,0-.03-.02-.06-.02-.09,0-.1.06-.19.15-.23h0s.02,0,.03-.02c.6-.25,1.21-.5,1.82-.75.12-.05.27.01.32.13.06.13,0,.28-.13.33-.62.25-1.23.51-1.85.77h0s-.06.02-.09.02ZM221.38,41.42c-.11,0-.2-.06-.24-.16,0-.03,0-.06,0-.09,0-.1.06-.19.15-.23.62-.26,1.24-.51,1.85-.76.13-.06.28.01.33.13.05.13,0,.28-.14.33l-.37.15c-.49.2-.98.4-1.48.61-.03.01-.06.02-.09.02ZM224.15,40.28c-.1,0-.19-.06-.23-.15,0-.03-.02-.07-.02-.1,0-.1.06-.19.16-.23l.76-.31c.37-.15.73-.3,1.09-.45.13-.05.28.02.33.14.05.13,0,.27-.14.33-.62.25-1.23.5-1.85.75-.03.01-.06.02-.1.02ZM226.93,39.15c-.1,0-.19-.06-.23-.16,0-.03-.02-.06-.02-.09,0-.1.06-.19.15-.23h0s.02,0,.03,0c.5-.21,1.01-.41,1.51-.61l.31-.13c.13-.05.28,0,.33.14.03.06.03.13,0,.19-.03.06-.08.11-.14.13-.61.25-1.23.5-1.85.75-.01,0-.01.01-.01.01-.03,0-.06,0-.09,0ZM229.72,38.03c-.1,0-.2-.06-.24-.16-.01-.02-.01-.05-.01-.08,0-.11.06-.21.15-.24.3-.12.6-.24.9-.36.32-.13.64-.26.96-.39.13-.05.28.02.33.14.02.07.02.13,0,.2-.03.06-.08.1-.14.13l-.62.25c-.41.16-.83.33-1.24.49-.03.01-.06.02-.09.02ZM232.51,36.92c-.11,0-.2-.06-.24-.16,0-.03,0-.05-.02-.08,0-.11.07-.21.16-.24.56-.22,1.21-.48,1.86-.74.13-.05.28.02.33.14.05.13,0,.27-.14.32l-.2.08c-.55.22-1.1.44-1.65.66h-.01s-.06.02-.09.02ZM235.3,35.82c-.11,0-.2-.07-.24-.16,0-.03,0-.06,0-.09,0-.1.06-.2.16-.24.62-.24,1.24-.49,1.86-.73.12-.05.27.02.32.14.05.13,0,.27-.14.33l-.32.12c-.51.2-1.03.41-1.54.61-.03.01-.06.02-.09.02ZM238.09,34.72c-.1,0-.2-.06-.23-.16-.01-.03-.02-.06-.02-.09,0-.1.06-.19.16-.23.51-.2,1.03-.4,1.53-.6l.33-.13c.13-.05.28.02.33.15.05.12-.02.27-.14.32l-.48.18c-.46.18-.92.36-1.39.54h0s-.06.02-.09.02ZM240.89,33.64c-.11,0-.2-.07-.23-.16,0-.03-.02-.06-.02-.09,0-.1.06-.2.16-.24.65-.25,1.28-.49,1.87-.72.12-.04.27.02.32.15.02.06.02.13,0,.19-.03.06-.08.11-.14.13-.44.17-.87.33-1.31.5l-.55.22h0s-.06.02-.09.02ZM243.69,32.56c-.1,0-.2-.06-.23-.16,0-.03-.02-.06-.02-.09,0-.1.06-.2.16-.24.33-.12.65-.24.97-.37.3-.11.6-.23.9-.34.13-.05.27.02.32.15.05.12,0,.27-.14.32-.62.23-1.24.47-1.87.71h-.01s-.05.02-.08.02ZM246.49,31.49c-.1,0-.19-.06-.23-.16,0-.03-.02-.06-.02-.09,0-.1.06-.19.16-.23h0s.02,0,.03,0c.62-.24,1.24-.47,1.85-.7.12-.05.27.02.32.14.02.07.02.13,0,.19-.03.07-.08.11-.15.14-.35.13-.7.26-1.05.39-.27.11-.54.21-.82.31-.02.01-.05.02-.09.02ZM249.3,30.43c-.1,0-.19-.07-.23-.16-.01-.03-.02-.06-.02-.09,0-.1.07-.2.17-.23l.32-.12c.52-.2,1.04-.4,1.55-.59.12-.04.27.03.32.15.03.06.02.13,0,.19-.02.06-.07.11-.14.13-.61.23-1.24.47-1.87.7-.03,0-.06.02-.09.02ZM252.11,29.38c-.1,0-.19-.07-.23-.16,0-.03-.02-.06-.02-.09,0-.1.07-.2.17-.24l.07-.02c.61-.23,1.21-.45,1.8-.67.12-.05.28.02.32.15.05.12,0,.27-.14.32-.54.2-1.09.4-1.64.6l-.23.09h0s-.06.02-.09.02ZM254.93,28.34c-.11,0-.2-.07-.24-.17-.01-.03-.01-.06-.01-.08,0-.11.06-.2.16-.24.3-.11.6-.22.89-.33.33-.12.66-.24.99-.36.13-.05.27.02.32.15.05.13-.02.27-.15.32-.38.14-.76.28-1.15.42l-.72.27s-.06.02-.09.02ZM257.75,27.3c-.11,0-.2-.07-.24-.16,0-.03,0-.06,0-.09,0-.1.06-.2.16-.23.64-.24,1.27-.47,1.88-.69.13-.05.28.03.32.15.03.06.02.13-.01.19-.02.06-.07.11-.14.13-.31.11-.62.23-.93.34-.31.11-.63.23-.95.34-.03.01-.05.02-.08.02ZM260.57,26.27c-.11,0-.2-.06-.24-.16,0-.03,0-.06,0-.09,0-.1.07-.2.16-.23l1.89-.68c.13-.05.27.02.32.15.04.13-.02.27-.15.32-.56.2-1.11.4-1.68.6l-.2.07s0,0,0,0c-.02.01-.05.01-.08.01ZM263.39,25.26c-.1,0-.2-.07-.23-.17,0-.03-.02-.06-.02-.09,0-.1.06-.19.16-.23h0s.02-.01.02-.01c.64-.22,1.26-.45,1.86-.66.13-.05.28.02.32.15.02.06.02.13,0,.19s-.08.11-.14.13c-.41.14-.82.29-1.24.44l-.63.23h0s-.06.02-.09.02ZM266.22,24.25c-.11,0-.2-.07-.23-.17,0-.03-.02-.06-.02-.08,0-.11.07-.2.17-.24.64-.23,1.27-.45,1.88-.67.13-.04.28.03.32.16.05.13-.02.27-.15.31-.61.22-1.24.44-1.89.67-.02,0-.05.02-.08.02ZM269.05,23.25c-.11,0-.2-.07-.24-.17,0-.03,0-.06,0-.09,0-.1.07-.19.17-.23.3-.1.59-.21.89-.31.34-.12.67-.24,1-.35.12-.05.27.03.31.16.03.06.02.12,0,.18-.03.06-.08.11-.15.13-.59.21-1.22.43-1.88.66h0s-.06.02-.09.02Z"/>
  <path class="st0" d="M61.42,182.42h-.04c-.07,0-.13-.05-.17-.1-.03-.06-.05-.12-.04-.19.11-.65.23-1.31.36-1.97.03-.13.16-.23.3-.2.13.03.22.16.19.29-.13.68-.25,1.34-.36,1.96-.02.13-.12.21-.24.21ZM61.98,179.48s-.03,0-.05,0c-.12-.02-.2-.13-.2-.24v-.05c.14-.66.29-1.32.44-1.96.03-.14.17-.22.3-.19.14.03.22.17.19.3-.15.62-.29,1.27-.44,1.94h0c-.02.12-.12.21-.24.21ZM62.65,176.55h-.06c-.11-.03-.19-.13-.19-.24,0-.02.01-.04.01-.07.17-.68.34-1.32.52-1.93.03-.13.17-.21.3-.18.07.02.12.06.15.12.04.06.04.12.03.19-.19.68-.36,1.31-.51,1.93-.03.11-.13.18-.25.18ZM63.44,173.66s-.04,0-.07,0c-.11-.03-.18-.13-.18-.24,0-.02,0-.04.01-.07.18-.62.38-1.27.59-1.92.04-.13.18-.2.31-.16s.2.19.16.32c-.19.61-.38,1.23-.58,1.9-.03.11-.13.18-.24.18ZM64.33,170.8s-.05-.01-.07-.01c-.1-.04-.17-.13-.18-.23,0-.03,0-.06.02-.09h0v-.02c.2-.59.41-1.2.65-1.88.04-.12.19-.19.32-.15.13.05.2.19.15.32-.23.64-.45,1.27-.65,1.89-.03.1-.13.17-.24.17ZM65.33,167.97s-.06-.01-.09-.02c-.1-.03-.16-.13-.16-.23,0-.03,0-.06.02-.09.22-.6.45-1.21.71-1.87.05-.13.2-.19.33-.14.06.02.11.07.14.13.02.07.02.13,0,.2-.27.67-.5,1.28-.72,1.86-.03.09-.13.16-.23.16ZM66.42,165.18s-.06-.01-.09-.02c-.1-.04-.16-.13-.16-.23,0-.04.01-.07.02-.1.28-.67.53-1.28.78-1.84.06-.13.21-.19.33-.13.13.05.18.2.13.33-.25.57-.51,1.17-.78,1.83-.04.1-.13.16-.23.16ZM67.6,162.42s-.07,0-.1-.02c-.09-.04-.15-.13-.15-.23,0-.04,0-.07.02-.1h0s0-.02.01-.02c.25-.57.53-1.18.83-1.8.05-.12.21-.18.33-.12.12.06.18.21.12.33-.3.62-.58,1.23-.84,1.81h0c-.04.1-.13.15-.23.15ZM68.87,159.7s-.07,0-.1-.02c-.09-.04-.15-.13-.14-.23,0-.03,0-.07.02-.11.31-.63.6-1.21.9-1.79.06-.12.21-.17.33-.11.12.06.17.22.11.34-.33.65-.62,1.24-.89,1.78-.04.09-.13.14-.23.14ZM70.23,157.03s-.08,0-.12-.03c-.08-.04-.13-.13-.13-.22,0-.04.01-.08.03-.12.32-.6.63-1.2.94-1.76.07-.12.23-.17.34-.11.13.07.17.22.1.35-.3.56-.62,1.15-.94,1.74h0c-.04.1-.13.15-.22.15ZM71.66,154.39s-.09,0-.12-.03c-.08-.05-.13-.13-.13-.22,0-.04,0-.08.03-.12.28-.51.6-1.06,1-1.74.06-.11.22-.16.34-.09.12.07.16.22.09.34-.34.59-.68,1.17-.99,1.73h0c-.05.08-.13.13-.22.13ZM73.16,151.8s-.09-.02-.13-.04c-.07-.04-.12-.12-.12-.21,0-.05,0-.09.04-.13.33-.56.69-1.14,1.04-1.71.07-.12.23-.16.35-.08.11.07.15.22.08.34-.34.55-.68,1.11-1.04,1.7-.05.08-.13.13-.22.13ZM74.74,149.24c-.05,0-.1,0-.14-.04-.07-.04-.12-.13-.11-.21,0-.05,0-.09.03-.13.33-.52.68-1.07,1.09-1.69.07-.11.24-.14.35-.07.11.08.14.23.07.35-.37.56-.73,1.12-1.08,1.67-.05.08-.13.12-.21.12ZM76.37,146.73c-.05,0-.1-.02-.14-.04-.07-.05-.11-.13-.11-.21,0-.05,0-.09.04-.14h0s0-.01,0-.02h.01c.31-.47.66-.98,1.11-1.64.08-.11.24-.14.35-.06.05.04.09.09.1.16,0,.07,0,.13-.04.19-.4.58-.77,1.12-1.12,1.65h-.01c-.04.07-.12.11-.2.11ZM78.07,144.25s-.1,0-.15-.04c-.06-.05-.1-.13-.1-.21,0-.05.01-.1.04-.14.42-.6.81-1.13,1.17-1.63.07-.11.24-.14.35-.06.05.04.09.1.1.17.01.06,0,.13-.05.18-.37.52-.76,1.06-1.16,1.63-.05.06-.12.1-.2.1ZM79.82,141.82s-.1-.02-.15-.05c-.06-.04-.1-.12-.1-.2,0-.05.02-.1.05-.15.44-.59.83-1.11,1.2-1.6.08-.11.24-.13.35-.05s.13.24.05.35c-.37.49-.77,1.01-1.2,1.6-.05.06-.12.1-.2.1ZM81.63,139.43c-.06,0-.11-.02-.16-.06-.06-.05-.09-.12-.09-.2,0-.05.02-.1.05-.15.45-.59.86-1.1,1.23-1.57.08-.11.25-.13.35-.05.06.05.09.1.1.17,0,.07,0,.13-.06.19-.43.55-.83,1.06-1.22,1.56h0c-.05.07-.12.11-.2.11ZM83.48,137.07s-.11-.02-.15-.06c-.06-.04-.1-.11-.1-.19,0-.06.02-.11.06-.16.48-.59.88-1.09,1.27-1.55.08-.1.24-.12.35-.03.1.08.12.24.03.35-.38.46-.8.97-1.26,1.54h0c-.05.07-.12.1-.2.1ZM85.39,134.75c-.06,0-.12-.02-.16-.06-.06-.04-.09-.12-.09-.19,0-.06.02-.11.05-.15h0s.01-.02.02-.02c.36-.44.76-.91,1.28-1.52.09-.1.25-.11.35-.02.05.04.08.1.09.16,0,.07-.02.14-.06.19-.44.51-.87,1.02-1.29,1.52-.05.06-.12.09-.19.09ZM87.33,132.47c-.06,0-.12-.02-.16-.06-.06-.05-.09-.12-.09-.2,0-.06.03-.11.06-.15.46-.53.93-1.06,1.33-1.51.08-.1.25-.11.35-.02.05.04.08.11.08.17.01.07,0,.13-.06.18-.42.47-.85.96-1.32,1.5-.05.06-.12.09-.19.09ZM89.32,130.22c-.06,0-.12-.02-.17-.06-.05-.05-.08-.12-.08-.19,0-.06.02-.11.06-.16h.01s0,0,0-.02c.42-.47.86-.95,1.33-1.46.1-.1.26-.11.36-.02.1.09.11.25.01.35-.43.47-.87.96-1.34,1.48t-.01,0s-.11.07-.18.07ZM91.35,128.01c-.07,0-.13-.02-.17-.07-.05-.04-.08-.1-.08-.17s.02-.13.06-.18c.5-.53,1-1.06,1.38-1.46.09-.09.26-.1.35,0,.1.09.1.25,0,.35-.49.51-.97,1.02-1.37,1.45-.05.05-.11.08-.18.08ZM93.41,125.83c-.06,0-.13-.02-.17-.07-.05-.04-.08-.1-.08-.17s.03-.13.07-.18c.47-.48.94-.97,1.4-1.43.09-.1.26-.1.35,0,.05.05.08.11.08.18,0,.06-.03.13-.07.18-.48.48-.95.96-1.39,1.42h-.01c-.05.06-.11.08-.18.08ZM95.51,123.69c-.07,0-.13-.03-.18-.07-.04-.05-.07-.11-.07-.18s.02-.13.07-.18c.48-.47.95-.95,1.42-1.41.1-.09.26-.09.35,0,.05.05.08.11.08.18s-.03.13-.08.18c-.54.54-.99.98-1.41,1.41-.05.04-.11.07-.18.07ZM97.64,121.58c-.07,0-.13-.03-.18-.08-.05-.05-.07-.11-.07-.18,0-.06.03-.12.07-.17.5-.48,1.01-.97,1.44-1.39.1-.1.26-.09.36,0,.04.05.07.12.07.18-.01.07-.03.13-.08.18-.43.41-.89.85-1.44,1.39h0s-.11.07-.17.07ZM99.8,119.5c-.07,0-.13-.03-.18-.08-.05-.05-.07-.11-.07-.18s.03-.13.08-.17c.47-.46.96-.91,1.44-1.36l.02-.02c.1-.09.26-.08.35.02.09.1.09.26,0,.35-.54.5-1.01.94-1.46,1.37-.04.04-.1.07-.17.07ZM101.99,117.45c-.07,0-.14-.03-.18-.08-.05-.05-.07-.12-.07-.18,0-.07.03-.13.08-.17h0s.02-.02.02-.03c.52-.47.99-.91,1.46-1.33.09-.09.26-.08.35.02.09.1.08.26-.02.35-.53.49-1.01.93-1.47,1.35h-.01s-.1.07-.16.07ZM104.21,115.42c-.07,0-.14-.03-.19-.08-.04-.05-.07-.11-.06-.18,0-.06.03-.12.08-.17.49-.44.98-.88,1.49-1.33.1-.09.27-.08.36.02.09.1.08.26-.02.35-.5.44-1,.89-1.49,1.33-.05.04-.11.06-.17.06ZM106.45,113.43h0c-.07,0-.14-.03-.19-.08-.04-.05-.06-.11-.06-.17,0-.07.03-.13.08-.18h.01s0-.02.02-.02c.46-.41.95-.83,1.49-1.3.1-.08.26-.07.35.03.09.1.08.26-.03.35-.46.4-.95.83-1.5,1.31h-.01s-.1.06-.16.06ZM108.72,111.47c-.08,0-.14-.03-.19-.09-.04-.04-.06-.1-.06-.15,0-.08.03-.15.08-.2.49-.41.98-.83,1.47-1.24l.06-.06c.1-.08.27-.07.35.03.09.11.08.27-.03.36-.55.46-1.07.91-1.52,1.29-.05.04-.1.06-.16.06ZM111.01,109.53c-.08,0-.15-.03-.19-.09-.04-.04-.06-.1-.06-.15,0-.08.03-.15.09-.2.42-.35.97-.81,1.54-1.28.1-.08.27-.07.35.04.09.1.07.26-.03.35-.56.46-1.06.87-1.54,1.28-.05.03-.1.05-.16.05ZM113.32,107.62c-.08,0-.15-.03-.19-.09-.04-.04-.06-.1-.06-.16,0-.07.03-.14.09-.19.54-.44,1.06-.86,1.56-1.26.1-.09.27-.07.35.04.04.05.06.11.05.18-.01.06-.04.12-.09.17-.54.44-1.05.85-1.55,1.26-.05.03-.1.05-.16.05ZM115.65,105.74c-.07,0-.14-.04-.19-.1-.04-.04-.06-.1-.06-.16,0-.07.04-.14.1-.19.41-.33.83-.66,1.25-1l.31-.24c.11-.09.28-.07.36.04.04.05.06.12.05.19-.01.06-.04.12-.1.16-.46.37-.96.76-1.56,1.24-.05.04-.1.06-.16.06ZM118.01,103.88c-.08,0-.15-.04-.2-.1-.04-.04-.05-.09-.05-.15-.01-.08.03-.15.09-.2.54-.42,1.08-.84,1.58-1.23.11-.08.27-.06.35.05.04.05.06.11.05.18,0,.07-.04.13-.09.17-.51.39-1.03.79-1.58,1.22-.04.04-.1.06-.15.06ZM120.38,102.04c-.08,0-.15-.04-.2-.1-.03-.04-.05-.09-.05-.15,0-.08.03-.15.1-.2.52-.4,1.05-.81,1.59-1.21.11-.08.27-.06.35.05.08.11.06.26-.05.35-.54.4-1.08.82-1.59,1.21-.04.03-.1.05-.15.05ZM122.77,100.23c-.08,0-.15-.04-.2-.1-.03-.05-.05-.1-.05-.15,0-.08.04-.16.1-.2.48-.36,1.04-.78,1.6-1.2.11-.08.27-.06.35.05.08.11.06.27-.05.35-.44.33-1.03.76-1.6,1.2-.05.03-.1.05-.15.05ZM125.17,98.43c-.08,0-.15-.03-.2-.1-.03-.04-.04-.09-.04-.15,0-.08.03-.15.1-.2.62-.45,1.13-.83,1.61-1.18.11-.08.27-.05.35.06.04.05.06.12.04.18,0,.07-.04.13-.1.17-.52.38-1.07.78-1.61,1.18-.04.03-.09.04-.15.04ZM127.6,96.67c-.08,0-.16-.04-.2-.11-.04-.04-.05-.09-.05-.15,0-.08.04-.15.1-.2.44-.32.88-.63,1.33-.95l.3-.21c.11-.08.27-.05.35.05.08.12.05.27-.06.35-.49.35-1.01.72-1.63,1.17h0s-.09.05-.14.05ZM130.04,94.92c-.08,0-.16-.04-.21-.1-.03-.05-.04-.09-.04-.14-.01-.09.03-.17.1-.21.52-.37,1.05-.74,1.56-1.11l.08-.05c.11-.08.27-.05.35.06.07.12.05.27-.07.35-.45.32-.9.64-1.35.96l-.27.19s0,0,0,0c-.04.03-.09.04-.14.04ZM132.49,93.19c-.08,0-.16-.04-.21-.1-.02-.04-.04-.09-.04-.14,0-.08.04-.16.1-.21h.01s0,0,.02-.02c.63-.44,1.15-.79,1.62-1.12.11-.08.27-.05.35.06.04.06.05.12.04.19,0,.06-.05.12-.11.16-.62.43-1.15.8-1.64,1.14-.04.03-.09.04-.14.04ZM134.96,91.49c-.09,0-.16-.04-.21-.11-.03-.04-.04-.09-.04-.14,0-.08.04-.16.11-.21.54-.37,1.09-.74,1.65-1.12.11-.08.27-.05.35.06.07.12.04.27-.07.35-.55.37-1.1.75-1.65,1.12-.04.03-.09.05-.14.05ZM137.44,89.8c-.09,0-.16-.04-.21-.11-.03-.04-.04-.09-.04-.14,0-.08.04-.16.11-.2.53-.37,1.09-.74,1.66-1.12.11-.07.28-.04.35.07.04.06.05.12.04.19-.02.06-.06.12-.11.15l-1.65,1.11h0s-.09.05-.14.05ZM139.93,88.14c-.08,0-.16-.05-.21-.12-.02-.04-.04-.09-.04-.14,0-.08.04-.16.11-.2l.05-.03c.09-.06.19-.13.28-.19.43-.28.85-.56,1.28-.84l.07-.04c.11-.08.27-.04.34.07.08.11.05.27-.07.35-.45.29-.9.58-1.34.88-.11.07-.22.14-.32.21h-.01s-.09.05-.14.05ZM142.44,86.49c-.08,0-.16-.04-.21-.11-.02-.05-.04-.09-.04-.14,0-.09.05-.16.12-.21.54-.35,1.11-.71,1.68-1.08.11-.07.28-.03.35.08.07.11.04.27-.08.34-.46.3-1.07.69-1.68,1.08-.04.03-.09.04-.14.04ZM144.97,84.88c-.08,0-.16-.05-.21-.12-.02-.04-.04-.08-.04-.13,0-.09.04-.17.12-.21.56-.36,1.13-.71,1.7-1.07.11-.07.27-.03.34.08.07.12.04.27-.08.35-.57.35-1.14.71-1.69,1.06-.04.02-.09.04-.14.04ZM147.52,83.29c-.09,0-.17-.04-.21-.12-.03-.04-.04-.08-.04-.13,0-.09.05-.17.12-.21.62-.38,1.17-.72,1.71-1.04.11-.08.27-.04.34.08.04.06.05.12.03.19-.02.06-.06.12-.11.15-.57.35-1.14.7-1.71,1.04-.04.03-.08.04-.13.04ZM150.08,81.73c-.09,0-.16-.04-.21-.12-.02-.04-.04-.08-.04-.13,0-.09.05-.17.12-.21l.49-.3c.41-.24.82-.49,1.23-.73.12-.07.28-.03.35.09.07.12.03.27-.09.34-.58.34-1.15.68-1.72,1.03-.04.02-.08.03-.13.03ZM152.66,80.2c-.09,0-.17-.05-.21-.13-.03-.04-.04-.08-.04-.13,0-.09.05-.16.13-.21.61-.36,1.18-.69,1.72-1.01.12-.07.28-.02.34.09.04.06.05.12.03.19-.02.06-.06.12-.12.15-.53.31-1.09.64-1.72,1.01h-.01s-.08.04-.12.04ZM155.26,78.69c-.09,0-.18-.05-.22-.13-.03-.04-.04-.08-.04-.13.01-.09.05-.17.13-.21.51-.3,1.06-.61,1.74-1,.11-.06.27-.02.34.1.03.05.04.12.02.18,0,.07-.06.12-.11.16-.55.31-1.14.65-1.74.99-.04.02-.08.04-.12.04ZM157.86,77.2c-.09,0-.17-.05-.22-.13-.02-.04-.03-.08-.03-.12,0-.09.05-.18.13-.22.58-.33,1.16-.66,1.74-.98.12-.07.28-.02.34.09.07.12.03.28-.09.35-.6.33-1.2.66-1.75.97-.03.03-.08.04-.12.04ZM160.48,75.73c-.09,0-.18-.05-.22-.13-.02-.04-.03-.08-.03-.12,0-.09.05-.17.12-.22.59-.32,1.17-.65,1.76-.97.11-.06.27-.02.34.1.03.06.04.13.02.19-.02.07-.06.12-.12.15-.54.3-1.08.6-1.62.89l-.12.07s0,0,0,0c-.04.02-.08.03-.12.03ZM163.11,74.28c-.09,0-.18-.05-.22-.13-.02-.03-.03-.08-.03-.12,0-.09.05-.17.13-.22l.24-.13c.5-.27,1.01-.55,1.52-.82.11-.07.27-.02.34.1.06.12.01.27-.11.34-.65.35-1.22.66-1.75.95,0,0,0,0,0,0-.04.01-.08.02-.11.02ZM165.75,72.85c-.1,0-.18-.05-.22-.13-.02-.03-.03-.07-.03-.12,0-.09.05-.17.13-.22.59-.31,1.17-.62,1.76-.94.12-.06.28-.01.34.11.07.12.02.27-.1.33-.59.32-1.18.63-1.77.94-.03.02-.07.03-.11.03ZM168.4,71.45c-.1,0-.18-.06-.23-.14,0-.03-.03-.08-.03-.12,0-.09.06-.17.14-.22.71-.37,1.26-.66,1.77-.92.12-.07.28-.02.34.1.03.06.04.13.01.19-.01.06-.06.12-.12.15-.66.35-1.24.65-1.77.93-.03.02-.07.03-.11.03ZM171.05,70.06c-.09,0-.18-.05-.22-.14-.02-.04-.03-.08-.03-.12,0-.09.05-.17.13-.22.59-.3,1.19-.61,1.78-.91.12-.06.27,0,.34.11.06.12,0,.27-.11.33-.55.28-1.1.57-1.63.84l-.14.07h0s-.08.04-.12.04ZM173.71,68.69c-.09,0-.18-.06-.22-.14-.02-.03-.03-.07-.03-.11,0-.09.05-.18.14-.23.59-.3,1.18-.6,1.78-.9.12-.06.27-.01.33.11s0,.27-.11.33c-.59.3-1.19.61-1.78.91-.03.02-.07.03-.11.03ZM176.38,67.33c-.09,0-.18-.05-.22-.14-.02-.03-.03-.07-.03-.1,0-.1.05-.19.14-.23.51-.26,1.06-.54,1.78-.9.12-.06.28-.01.34.11.06.13.01.28-.11.34-.72.36-1.27.63-1.79.89-.03.02-.07.03-.11.03ZM179.06,65.99c-.09,0-.18-.05-.22-.14-.02-.03-.03-.07-.03-.11,0-.09.05-.18.14-.22.61-.31,1.22-.61,1.79-.89.12-.06.28,0,.34.11.03.06.03.13,0,.2-.02.06-.07.11-.13.14-.6.29-1.19.59-1.79.88-.03.02-.07.03-.11.03ZM181.75,64.66c-.1,0-.18-.05-.23-.14,0-.03-.02-.07-.02-.11,0-.09.05-.18.14-.22.6-.29,1.19-.58,1.79-.87h.01c.12-.07.28-.02.33.11.06.12.01.27-.11.33-.52.25-1.07.52-1.8.88-.03,0-.07.02-.11.02ZM184.45,63.35c-.09,0-.18-.06-.23-.14,0-.04-.02-.07-.02-.11,0-.1.05-.18.13-.22,0,0,0,0,0,0,0,0,.02-.01.03-.01.34-.17.69-.33,1.03-.5l.75-.36c.12-.06.27,0,.33.12.06.13,0,.27-.12.33-.6.29-1.2.58-1.8.87,0,0,0,.01,0,.01-.03,0-.06.02-.1.02ZM187.16,62.05c-.1,0-.18-.06-.23-.14,0-.04-.02-.07-.02-.11,0-.1.06-.19.14-.23.61-.29,1.21-.57,1.82-.86.12-.06.27,0,.33.12.06.12,0,.27-.12.33-.49.23-.98.46-1.47.7l-.34.16s-.07.03-.11.03ZM189.88,60.76c-.1,0-.19-.06-.23-.15-.01-.03-.02-.07-.02-.11,0-.09.05-.17.14-.22h0s.02,0,.02,0c.6-.28,1.2-.56,1.8-.84.13-.06.28,0,.34.12.05.13,0,.27-.13.33l-.3.14c-.5.24-1.01.48-1.51.71-.04.02-.07.03-.11.03ZM192.61,59.48c-.1,0-.19-.06-.23-.14-.02-.04-.03-.07-.03-.11.01-.1.06-.18.14-.22h0s0,0,0,0h0c.32-.15.64-.3.96-.45.28-.13.56-.26.84-.39.12-.05.27,0,.33.13.03.06.03.12,0,.19-.02.06-.06.11-.12.14-.37.17-.73.33-1.1.5-.24.12-.48.23-.72.34-.03,0-.07.02-.1.02ZM195.33,58.22c-.1,0-.19-.06-.23-.15,0-.03-.02-.06-.02-.1,0-.1.06-.19.15-.23.6-.27,1.21-.55,1.82-.83.12-.05.27,0,.33.12.05.13,0,.28-.13.34-.6.27-1.21.55-1.82.83h0s-.07.02-.1.02ZM198.06,56.97c-.1,0-.19-.05-.23-.14,0-.04-.02-.08-.02-.11,0-.1.06-.18.15-.22.65-.3,1.25-.57,1.82-.83.12-.05.27,0,.33.13.06.12,0,.27-.13.33l-1.82.82h0s-.06.02-.09.02ZM200.79,55.74c-.09,0-.18-.06-.22-.15-.02-.03-.03-.06-.03-.1,0-.1.06-.19.15-.23.61-.27,1.22-.55,1.83-.82.12-.05.27,0,.33.13.05.12,0,.27-.13.33-.61.27-1.22.54-1.82.82-.03.01-.07.02-.11.02ZM203.53,54.51c-.1,0-.18-.05-.22-.14-.02-.03-.03-.07-.03-.1,0-.1.06-.19.14-.23t0-.01s.02,0,.03,0c.61-.27,1.22-.54,1.8-.79.12-.06.28,0,.33.13.06.12,0,.27-.13.32-.61.27-1.21.54-1.83.81t0,.01s-.06,0-.09,0ZM206.28,53.3c-.1,0-.19-.06-.23-.15,0-.03-.02-.06-.02-.09,0-.11.05-.2.15-.24h.03c.6-.27,1.2-.54,1.8-.8.13-.05.28,0,.33.13.03.06.03.13,0,.19-.02.06-.07.11-.13.14l-.51.22c-.44.19-.88.39-1.31.58h0s-.07.02-.1.02ZM209.03,52.1c-.1,0-.19-.06-.23-.15,0-.03-.02-.06-.02-.1,0-.1.06-.19.15-.23l.77-.33c.36-.16.71-.31,1.06-.47.13-.05.28.01.33.13.06.13,0,.28-.13.34-.61.26-1.22.52-1.83.79-.03,0-.07.02-.1.02ZM211.78,50.91c-.1,0-.19-.06-.23-.15,0-.03-.02-.07-.02-.1,0-.1.06-.19.15-.23.32-.14.64-.27.95-.41.3-.12.6-.25.89-.38.13-.05.28,0,.33.13.05.13,0,.28-.13.33-.47.2-.95.41-1.43.61l-.4.17s0,.01,0,.01c-.03,0-.06.02-.1.02ZM214.54,49.73c-.1,0-.19-.06-.23-.15,0-.04-.02-.07-.02-.1,0-.1.06-.19.15-.23.34-.15.68-.29,1.02-.43.28-.12.55-.24.83-.35.12-.06.27.01.32.13.06.13,0,.27-.13.33-.61.26-1.22.52-1.84.78-.03,0-.06.02-.1.02ZM217.3,48.56c-.1,0-.19-.06-.23-.15-.01-.04-.02-.07-.02-.1,0-.1.07-.19.16-.23.61-.26,1.23-.52,1.84-.78.13-.05.28.01.33.14.05.12,0,.27-.13.32-.62.26-1.23.52-1.85.78h-.01s-.06.02-.09.02ZM220.07,47.4c-.1,0-.19-.06-.23-.16,0-.03-.02-.06-.02-.09,0-.11.07-.2.16-.23.57-.24,1.17-.49,1.85-.77.12-.05.27.01.32.14.03.06.03.12,0,.19-.03.06-.07.11-.14.13-.61.25-1.22.51-1.84.77-.03.01-.06.02-.1.02ZM222.84,46.25c-.1,0-.19-.06-.23-.16-.01-.03-.02-.06-.02-.09,0-.11.06-.2.16-.23.62-.26,1.23-.51,1.85-.77.12-.05.27,0,.33.14.02.06.02.13,0,.19-.03.06-.08.11-.14.14-.62.25-1.23.5-1.85.76-.03,0-.06.02-.1.02ZM225.62,45.1c-.1,0-.19-.06-.23-.15,0-.03-.02-.06-.02-.1,0-.1.06-.19.16-.23.62-.25,1.23-.5,1.85-.75.12-.05.27,0,.32.13.06.13,0,.28-.13.33h-.03c-.61.26-1.22.51-1.82.76-.03.01-.07.01-.1.01ZM228.4,43.97c-.1,0-.19-.06-.23-.15,0-.03-.02-.07-.02-.1,0-.1.06-.19.15-.23.5-.2,1-.4,1.5-.6l.36-.15c.12-.05.27.01.33.14.05.13-.02.27-.14.33-.62.24-1.24.49-1.86.75-.03,0-.06,0-.09,0ZM231.19,42.85h-.01c-.1,0-.19-.06-.23-.16,0-.03-.02-.05-.02-.08,0-.11.06-.2.16-.24.62-.25,1.24-.5,1.86-.74.12-.05.27.01.32.13.05.13,0,.28-.14.33-.61.25-1.23.49-1.85.74-.03.02-.06.02-.09.02ZM233.97,41.74c-.1,0-.2-.07-.23-.16-.02-.03-.02-.06-.02-.09,0-.1.06-.2.16-.24l.74-.29c.37-.15.75-.3,1.12-.44.12-.05.27,0,.32.14.03.06.02.13,0,.19-.03.06-.08.11-.14.13-.62.25-1.23.49-1.86.74-.03.01-.06.02-.09.02ZM236.76,40.63c-.1,0-.2-.06-.23-.15-.02-.04-.02-.07-.02-.1,0-.11.06-.19.16-.23.62-.25,1.24-.49,1.86-.73.13-.05.28.02.33.14.02.06.02.13-.01.19-.03.06-.07.11-.14.13-.61.24-1.23.49-1.85.73,0,0,0,.01-.01.01-.03,0-.06,0-.09,0ZM239.55,39.54c-.1,0-.19-.07-.23-.16-.01-.03-.02-.06-.02-.09,0-.1.06-.19.15-.23,0,0,0-.01,0-.01,0,0,.02,0,.03,0,.62-.24,1.23-.48,1.84-.71.13-.05.27,0,.32.14.05.13-.01.27-.14.32-.62.24-1.23.48-1.86.73h0s-.07.02-.1.02ZM242.35,38.45c-.1,0-.2-.07-.23-.16,0-.03-.02-.06-.02-.1,0-.1.07-.19.16-.23l.27-.1c.54-.21,1.07-.41,1.6-.61.12-.05.27,0,.32.14.03.06.02.13,0,.19-.03.06-.08.11-.14.13-.46.18-.91.35-1.37.53l-.5.19s-.06.02-.09.02ZM245.15,37.37c-.1,0-.19-.06-.23-.16,0-.03-.02-.06-.02-.09,0-.1.06-.2.16-.23.3-.12.59-.23.88-.34.33-.13.66-.25.99-.38.12-.05.28.02.32.15.03.06.03.13,0,.19s-.08.11-.14.13c-.33.13-.67.25-1.01.38-.28.11-.57.22-.86.33-.03,0-.06.02-.09.02ZM247.96,36.3c-.11,0-.2-.06-.24-.16,0-.03,0-.06,0-.09,0-.1.06-.2.16-.23.6-.24,1.21-.46,1.81-.69l.06-.02c.12-.05.27.02.32.14.03.06.02.13,0,.19-.03.06-.08.11-.14.13-.33.13-.67.26-1,.38-.29.11-.57.22-.86.33h0s-.06.02-.09.02ZM250.76,35.24c-.1,0-.2-.07-.23-.17-.01-.02-.02-.05-.02-.08,0-.1.07-.2.16-.24.32-.12.64-.23.95-.35.31-.12.62-.24.93-.35.12-.05.28.02.32.15.03.06.02.13,0,.19-.02.06-.07.11-.14.13-.51.19-1.02.38-1.54.58l-.33.12s-.06.02-.09.02ZM253.57,34.19c-.1,0-.19-.07-.23-.17,0-.02-.02-.05-.02-.08,0-.11.07-.2.17-.24l1.87-.7c.13-.04.28.03.32.15.03.06.02.13,0,.19-.03.06-.08.11-.14.13-.62.23-1.25.46-1.88.7-.03,0-.06.02-.09.02ZM256.39,33.14c-.11,0-.2-.07-.24-.16-.01-.03-.01-.06-.01-.09,0-.1.06-.2.16-.24l.87-.31c.34-.13.67-.25,1.01-.38.13-.04.27.02.32.15.02.06.02.13,0,.19-.02.06-.07.11-.14.13h-.03c-.6.24-1.22.46-1.84.7h-.01s-.06.01-.08.01ZM259.21,32.1c-.11,0-.2-.06-.24-.16,0-.03-.02-.06-.02-.09,0-.1.07-.19.17-.23l.64-.23c.42-.16.83-.31,1.24-.46.13-.04.27.03.32.15.05.13-.02.27-.15.32-.62.23-1.24.46-1.88.69-.03.01-.06.01-.08.01ZM262.01,31.08c-.1,0-.19-.07-.23-.17,0-.03,0-.06,0-.09,0-.1.06-.19.16-.23l1.88-.68c.13-.05.28.02.32.15.05.13-.02.27-.15.32-.33.12-.67.24-1.01.37-.29.1-.58.2-.87.31-.03,0-.06.02-.09.02ZM264.85,30.06c-.11,0-.2-.07-.23-.17-.02-.02-.02-.05-.02-.08,0-.11.07-.2.16-.24.65-.23,1.28-.45,1.89-.67.13-.05.28.02.32.15.05.13-.02.27-.15.32-.61.22-1.24.44-1.88.67h0s-.06.02-.09.02ZM267.68,29.05c-.11,0-.21-.07-.24-.17-.01-.03-.01-.06-.01-.09,0-.1.07-.2.16-.23.61-.22,1.21-.43,1.78-.63l.11-.04c.13-.04.28.03.32.15.05.13-.02.28-.15.32-.62.22-1.24.44-1.89.67-.03.01-.05.02-.08.02ZM270.51,28.04c-.11,0-.2-.06-.24-.16,0-.03,0-.06,0-.09,0-.1.07-.2.17-.23.64-.23,1.28-.45,1.89-.66.12-.05.27.02.31.15.05.13-.02.27-.15.32-.28.1-.57.2-.86.3-.34.12-.68.24-1.03.36-.02.01-.05.01-.08.01ZM273.34,27.05c-.11,0-.2-.06-.24-.16,0-.03,0-.06,0-.09,0-.11.07-.2.17-.23.21-.07.41-.15.62-.22.12-.04.27.03.31.16.05.13-.02.27-.15.32-.2.07-.41.14-.62.21-.02,0-.05,0-.08,0Z"/>
  <path class="st1" d="M332.76,170.7c-3.64,24.28-16.73,33.34-28.72,36.96-7.99,2.41-16.59-1-20.9-8.16-18.09-30.05-48.65-38.39-111.93-48.3-29.31-4.59-70.4-1.37-88.74,11.91l-.02.02c-10.39,7.52-17.86,14.52-21.04,19.03-.76,1.06-1.26,1.99-1.52,2.76-3.25,9.71-2.22,12.56-2.22,12.56l-2.89,1.75-4.55,2.75c-17.39-21.23-10.85-32.08,6.93-62.28,17.79-30.22,47.03-59.83,96.93-88.82,49.9-28.99,105.25-43.12,105.25-43.12,0,0,5.08-3.69,9.53,9.25.62,1.79,1.41,3.5,2.37,5.21.78,1.43,1.69,2.86,2.71,4.36,6.58,9.65,17.78,21.78,32.6,50.94,19.86,39.1,31.54,57.5,26.21,93.17Z"/>
  <path class="st1" d="M82.45,163.14c-.56.91-18.6,30.05-24.77,34.35,0,0-1.03-2.85,2.22-12.56.26-.77.76-1.69,1.52-2.76,3.17-4.51,10.65-11.51,21.04-19.03Z"/>
</svg>