<?xml version="1.0" encoding="UTF-8"?>
<svg id="Livello_2" xmlns="http://www.w3.org/2000/svg" version="1.1" viewBox="0 0 756.78 679.7">
  <!-- Generator: Adobe Illustrator 29.8.1, SVG Export Plug-In . SVG Version: 2.1.1 Build 2)  -->
  <defs>
    <style>
      .st0 {
        fill: none;
        stroke: #131211;
        stroke-linecap: round;
        stroke-linejoin: round;
      }

      .st1 {
        fill: #131211;
      }
    </style>
  </defs>
  <path class="st0" d="M368.28,478.79c.62-1.83,5.1-13.7,23.4-33.79,33.46-55.96,61.33-105.56,61.33-117.4"/>
  <path class="st0" d="M391.68,445s9.59-13.11,30.13-25.04c20.54-11.93,63.2-39.52,80.22-52.24,17.02-12.72,22.3-20.73,22.3-29.73"/>
  <path class="st0" d="M409.26,446.41c-8.67,5.59-18.94,21.13-18.94,32.09"/>
  <path class="st0" d="M301.4,327.59c0,11.84,27.87,61.44,61.33,117.4,6.35,6.98,11.04,12.96,14.47,17.87"/>
  <path class="st0" d="M374.55,466.82c-7.66-6.18-18.19-13.3-29.37-20.38-.01-.01-.02-.01-.03-.02-13.59-8.61-28.15-17.16-39.75-23.92-14.98-8.72-34.55-21.87-51.09-33.75-14.99-10.76-27.49-20.48-31.86-24.95-9.2-9.39-6.26-16.63,0-39.91,6.26-23.28,15.84-41.28,29.54-64.37,13.7-23.09,38.15-45.59,59.48-58.3,21.31-12.72,55.35-21.71,65.73-21.72h.01-.01c10.37,0,44.41,9,65.74,21.72,21.33,12.71,45.78,35.21,59.48,58.3,13.69,23.09,23.28,41.09,29.54,64.37,6.26,23.28,9.2,30.52,0,39.91-9.19,9.39-54.39,42.07-82.95,58.7-28.38,16.52-74.51,43.86-80.68,56.29l6.22-11.97Z"/>
  <path class="st0" d="M362.73,445s-9.59-13.11-30.13-25.04c-20.54-11.93-63.2-39.52-80.22-52.24-17.02-12.72-22.3-21.13-22.3-30.13"/>
  <path class="st0" d="M226.17,353.63c-8.61-24.36,26.35-26.74,151.04-26.74h0c124.7,0,159.65,2.38,151.04,26.74"/>
  <path class="st0" d="M222.28,324.51c13.67-13.15,58.78-15.67,154.93-15.67,96.15,0,141.26,2.53,154.93,15.67"/>
  <path class="st0" d="M340.33,407.18c16.93,1.42,19.47,1.42,36.88,1.42h0c17.41,0,19.96,0,36.88-1.42"/>
  <path class="st0" d="M345.16,415.43c12.79,1.02,16.44,1.02,32.05,1.02,15.61,0,19.26,0,32.05-1.02"/>
  <path class="st0" d="M345.16,446.41c8.67,5.59,18.94,21.13,18.94,32.09"/>
  <path class="st0" d="M254.31,388.75s-5.71,6.74-11.45,13.01c34.17,67.04,102.26,77.28,134.35,77.28,32.09,0,100.17-10.24,134.35-77.28-5.74-6.26-11.45-13.01-11.45-13.01"/>
  <path class="st1" d="M377.21,179.5"/>
  <line class="st0" x1="377.21" y1="408.6" x2="377.21" y2="179.5"/>
</svg>