<?xml version="1.0" encoding="UTF-8"?>
<svg id="Livello_1" xmlns="http://www.w3.org/2000/svg" version="1.1" viewBox="0 0 335.74 268.93">
  <!-- Generator: Adobe Illustrator 29.8.1, SVG Export Plug-In . SVG Version: 2.1.1 Build 2)  -->
  <defs>
    <style>
      .st0 {
        fill: #131211;
        opacity: .14;
      }

      .st1 {
        fill: #ff2f35;
      }

      .st2 {
        fill: none;
        stroke: #131211;
        stroke-linecap: round;
        stroke-linejoin: round;
        stroke-width: 1.2px;
      }
    </style>
  </defs>
  <path class="st1" d="M184.76,231.11c-.09,0-.18-.05-.22-.13-.03-.07-.04-.13-.02-.2.02-.06.07-.11.13-.14.51-.26,1.03-.52,1.56-.78l.23-.12c.12-.05.27-.01.33.12.06.12.02.27-.11.33-.61.31-1.21.61-1.78.89,0,0,0,0,0,0-.03.02-.07.02-.11.02ZM187.44,229.77c-.09,0-.18-.05-.22-.14-.02-.03-.02-.07-.03-.1,0-.1.06-.19.14-.23.6-.29,1.19-.59,1.8-.89.12-.06.28,0,.33.12.03.06.04.13.02.19-.02.06-.07.11-.13.14l-.05.03c-.59.29-1.17.57-1.74.86-.04,0-.08.02-.12.02ZM190.14,228.45c-.1,0-.18-.06-.23-.14,0-.04-.02-.07-.02-.11,0-.09.05-.18.14-.22.59-.29,1.19-.58,1.8-.88.12-.05.28,0,.33.12.03.06.04.13,0,.19-.02.06-.06.11-.12.14l-.69.34c-.37.18-.74.36-1.11.53-.04.02-.08.03-.11.03ZM192.84,227.15h0c-.1,0-.18-.06-.23-.15,0-.03-.02-.07-.02-.11,0-.09.06-.18.14-.22.49-.23.98-.47,1.47-.7l.34-.16c.12-.06.27,0,.33.12.03.05.03.12,0,.18-.02.07-.07.12-.13.15l-.24.11c-.53.25-1.05.5-1.56.75-.03.02-.07.03-.11.03ZM195.55,225.85c-.1,0-.18-.05-.23-.14,0-.03-.02-.07-.02-.11,0-.09.05-.18.14-.22l.59-.28c.4-.19.81-.38,1.22-.58.12-.05.28,0,.33.12.06.13,0,.28-.12.34-.37.17-.74.35-1.12.52l-.68.33s-.08.02-.11.02ZM198.26,224.57c-.09,0-.18-.05-.22-.14-.02-.03-.03-.07-.03-.11,0-.09.06-.18.15-.22.53-.25,1.08-.51,1.6-.75l.21-.1c.13-.06.28,0,.33.12.06.13,0,.27-.12.33-.58.27-1.15.54-1.72.81l-.09.04s-.07.02-.11.02ZM200.98,223.31c-.1,0-.19-.06-.23-.15,0-.04-.02-.07-.02-.11,0-.09.06-.18.15-.22.32-.15.64-.3.97-.45.28-.13.56-.26.84-.39.12-.06.28,0,.34.12.02.06.03.13,0,.19-.02.06-.07.11-.13.14-.57.27-1.14.53-1.7.79l-.11.05s-.07.03-.11.03ZM203.71,222.05c-.1,0-.19-.06-.23-.15-.02-.03-.02-.07-.02-.11,0-.09.05-.18.14-.22l.18-.08c.54-.25,1.09-.5,1.64-.75.12-.06.28,0,.33.12.03.06.03.13.01.19-.02.06-.07.11-.13.14-.61.28-1.21.55-1.81.83h0s-.07.03-.1.03ZM206.44,220.8c-.1,0-.19-.06-.23-.15-.02-.03-.03-.07-.03-.11,0-.09.06-.18.15-.22.29-.13.59-.27.88-.4.31-.14.63-.28.94-.43.13-.05.28,0,.33.13.06.12,0,.27-.12.33-.42.19-.83.37-1.24.56l-.57.26s-.01,0-.01,0c-.03.01-.07.02-.1.02ZM209.17,219.56c-.1,0-.19-.06-.23-.15-.02-.04-.02-.07-.02-.11,0-.09.05-.18.14-.22.36-.16.72-.33,1.08-.49l.75-.34c.12-.05.27,0,.33.13.05.13-.01.27-.13.33-.29.13-.57.26-.86.39-.32.14-.64.29-.96.43-.03.02-.07.03-.1.03ZM211.9,218.32c-.1,0-.19-.05-.23-.14,0-.04-.02-.08-.02-.11,0-.1.06-.19.15-.23l.58-.26c.41-.18.83-.37,1.24-.55.12-.06.28,0,.33.12.06.13,0,.28-.12.33-.39.18-.79.35-1.18.53l-.65.29s-.07.02-.1.02ZM214.64,217.09c-.1,0-.19-.05-.23-.14,0-.04-.02-.08-.02-.11,0-.1.06-.18.15-.22.6-.27,1.21-.55,1.82-.82.13-.05.28,0,.33.13.06.12,0,.27-.12.33l-1.82.81h0s-.07.02-.1.02ZM217.38,215.87c-.1,0-.19-.06-.23-.15,0-.03-.02-.06-.02-.09,0-.1.06-.19.15-.24.61-.27,1.21-.54,1.83-.81.12-.06.27,0,.33.13.02.06.02.13,0,.19-.02.06-.07.11-.13.14-.61.27-1.22.54-1.83.81-.03.02-.06.02-.1.02ZM220.12,214.66c-.1,0-.19-.06-.23-.16-.01-.03-.02-.06-.02-.09,0-.1.05-.18.14-.23h0s.02,0,.02,0c.33-.15.66-.29.98-.44.28-.12.56-.24.83-.36.12-.06.27,0,.33.13.06.12,0,.27-.13.33-.34.15-.68.3-1.03.45l-.8.35s-.06.03-.1.03ZM222.87,213.44c-.1,0-.19-.05-.23-.15-.02-.03-.02-.06-.02-.09,0-.1.05-.19.15-.23.6-.27,1.22-.54,1.83-.81.12-.05.27,0,.33.13.02.06.03.13,0,.19-.02.06-.07.11-.13.14-.52.23-1.04.46-1.56.68l-.27.12s-.07.02-.1.02ZM225.62,212.24c-.1,0-.2-.06-.24-.15,0-.03-.02-.07-.02-.1,0-.1.06-.19.15-.23.61-.27,1.22-.54,1.83-.81.13-.05.28,0,.33.13.06.13,0,.28-.12.33l-.55.24c-.43.19-.85.38-1.28.56,0,0,0,0-.01,0-.03,0-.06.02-.09.02ZM228.36,211.03c-.1,0-.19-.06-.23-.15,0-.03-.02-.06-.02-.09,0-.11.06-.2.15-.24.52-.22,1.04-.45,1.56-.68l.27-.11c.12-.06.27,0,.33.12.05.13,0,.28-.13.33-.61.27-1.22.54-1.83.8-.03.02-.06.02-.1.02ZM231.1,209.84c-.1,0-.19-.06-.23-.15,0-.03-.02-.07-.02-.1,0-.1.06-.19.15-.23.61-.27,1.22-.53,1.83-.8.13-.05.28,0,.33.13.06.13,0,.27-.13.33-.6.26-1.21.53-1.82.79,0,0,0,0,0,0-.03.01-.06.02-.1.02ZM233.85,208.64c-.1,0-.19-.06-.23-.15-.02-.03-.02-.06-.02-.1,0-.1.05-.19.15-.23.61-.26,1.22-.53,1.83-.79.12-.06.27,0,.33.13.05.12,0,.27-.13.33l-.21.09c-.54.23-1.08.47-1.62.7h0s-.06.02-.09.02ZM236.59,207.45c-.1,0-.19-.06-.23-.15,0-.03-.02-.06-.02-.1,0-.1.06-.19.16-.23.37-.16.75-.32,1.12-.49.24-.1.47-.2.71-.3.12-.06.27,0,.33.13.02.06.02.12,0,.19-.03.06-.07.11-.14.14-.47.2-.95.41-1.43.62l-.39.17h0s-.06.02-.1.02ZM239.34,206.26c-.1,0-.19-.06-.23-.15,0-.03-.02-.06-.02-.1,0-.1.06-.19.15-.23.26-.11.52-.22.78-.34.35-.15.7-.3,1.06-.45.12-.06.27,0,.33.13.05.12,0,.27-.13.33-.28.12-.57.24-.85.36-.33.14-.66.29-.99.43-.03,0-.06.02-.1.02ZM242.09,205.07c-.1,0-.19-.06-.23-.15,0-.03-.02-.06-.02-.1,0-.1.06-.19.15-.23l1.84-.79c.12-.05.28,0,.33.13.05.13,0,.28-.13.33-.46.2-.92.4-1.38.59l-.46.2s-.06.02-.1.02ZM244.85,203.89c-.1,0-.19-.06-.23-.16-.02-.03-.02-.06-.02-.09,0-.1.06-.2.15-.24.61-.26,1.22-.52,1.84-.79.12-.05.27.01.32.13.06.13,0,.28-.13.33l-.62.27c-.4.17-.8.35-1.21.52h0s-.07.03-.1.03ZM247.6,202.7c-.1,0-.19-.06-.23-.15,0-.04-.02-.07-.02-.1,0-.1.06-.19.15-.23h0s.01,0,.02,0c.61-.26,1.21-.52,1.82-.78.13-.06.28,0,.33.13.03.06.03.13,0,.19-.02.06-.07.11-.13.14-.61.26-1.22.52-1.83.78h0s-.06.03-.1.03ZM250.36,201.51c-.1,0-.19-.06-.23-.15,0-.03-.02-.06-.02-.1,0-.1.06-.18.14-.22h.01s.02-.02.03-.02c.46-.2.92-.4,1.39-.6l.42-.18c.12-.05.28,0,.33.13.05.13-.01.28-.13.33-.61.26-1.23.53-1.84.79h0s-.06.02-.09.02ZM253.12,200.32c-.1,0-.19-.05-.23-.15-.01-.03-.02-.06-.02-.09,0-.1.06-.19.15-.23.61-.27,1.23-.53,1.84-.79.12-.06.28,0,.33.13.05.12,0,.27-.13.33-.43.18-.86.36-1.29.55l-.55.24s-.06,0-.1,0ZM255.88,199.14c-.1,0-.19-.06-.23-.15,0-.03-.02-.06-.02-.1,0-.1.06-.18.14-.22h0l.02-.02c.61-.26,1.21-.52,1.82-.78.12-.05.27,0,.33.13.05.13,0,.28-.13.33-.61.26-1.23.53-1.84.79-.03,0-.06.02-.1.02ZM258.64,197.96c-.1,0-.19-.06-.23-.15-.02-.04-.02-.07-.02-.1,0-.1.06-.19.15-.23.37-.16.73-.32,1.1-.47.24-.11.49-.22.74-.32.12-.05.27,0,.33.13.05.13,0,.28-.14.33l-.7.3c-.37.16-.75.32-1.13.49-.03.01-.07.02-.1.02ZM261.39,196.77c-.1,0-.18-.05-.22-.15-.02-.03-.03-.06-.03-.09,0-.1.06-.19.15-.23.63-.27,1.24-.53,1.84-.8.13-.05.28,0,.33.14.06.12,0,.27-.13.32l-.32.14c-.5.22-1.01.43-1.52.65-.03.02-.06.02-.1.02ZM264.15,195.59c-.1,0-.19-.06-.23-.15,0-.04-.02-.07-.02-.1,0-.1.06-.19.15-.23l.7-.3c.38-.17.76-.33,1.14-.49.12-.06.27.01.32.13.06.12,0,.27-.13.33l-.58.25c-.41.18-.83.36-1.25.54-.03.01-.07.02-.1.02ZM266.91,194.4c-.1,0-.2-.06-.23-.15-.02-.03-.03-.06-.03-.1,0-.1.06-.19.16-.23.29-.12.58-.25.87-.37.32-.14.64-.28.96-.42.12-.05.28,0,.33.13.05.13-.01.27-.13.33-.6.26-1.21.52-1.83.79h-.01s-.06.02-.09.02ZM269.66,193.21c-.1,0-.19-.06-.23-.15-.01-.03-.02-.07-.02-.1,0-.1.06-.19.15-.23.62-.26,1.23-.53,1.83-.79.13-.06.28,0,.33.13.06.12,0,.27-.13.33-.6.26-1.21.52-1.83.79h-.01s-.06.02-.09.02ZM272.41,192.02c-.1,0-.19-.06-.23-.15-.01-.03-.02-.06-.02-.1,0-.1.06-.19.15-.23.35-.15.69-.3,1.02-.44l.82-.36c.12-.05.27,0,.32.13.06.13,0,.27-.13.33l-.2.09c-.53.23-1.07.47-1.62.7,0,0,0,0,0,0-.03,0-.06.02-.1.02ZM275.16,190.82c-.1,0-.19-.06-.23-.15-.01-.03-.02-.06-.02-.09,0-.11.06-.2.15-.24.62-.27,1.23-.53,1.83-.8.12-.05.28,0,.33.13.06.13,0,.28-.13.33l-.84.37c-.33.14-.66.29-.99.43-.03.02-.07.02-.1.02ZM277.91,189.62c-.1,0-.19-.06-.23-.15-.01-.03-.02-.06-.02-.1,0-.1.06-.19.15-.23.39-.17.78-.34,1.16-.51l.67-.29c.13-.05.28,0,.33.13.05.13,0,.27-.13.33l-.1.05c-.57.24-1.14.5-1.73.75-.03,0-.07.02-.1.02ZM280.66,188.42c-.1,0-.19-.06-.23-.15-.02-.04-.02-.07-.02-.1,0-.1.05-.19.15-.23.62-.28,1.23-.54,1.82-.81.12-.05.28,0,.33.13.06.13,0,.27-.12.33-.42.18-.85.37-1.29.56l-.54.25s-.07.02-.1.02ZM283.4,187.2c-.1,0-.19-.05-.23-.14,0-.04-.02-.07-.02-.1,0-.1.06-.19.15-.23.35-.16.7-.31,1.04-.47.27-.11.53-.23.79-.34.12-.06.27,0,.33.12.05.13,0,.27-.13.33l-.27.12c-.51.23-1.02.46-1.55.69h-.01s-.06.02-.1.02ZM286.14,185.98c-.1,0-.19-.05-.23-.14,0-.04-.02-.08-.02-.11,0-.1.06-.18.14-.22h0s.01,0,.02,0c.62-.28,1.22-.55,1.8-.81.13-.06.28,0,.33.12.06.13,0,.28-.12.34l-.65.29c-.39.17-.78.35-1.18.52t0,0s-.06,0-.09,0ZM288.88,184.76c-.1,0-.19-.06-.23-.15,0-.03-.02-.06-.02-.1,0-.1.05-.19.14-.23.3-.13.58-.26.87-.39.32-.15.64-.29.95-.44.12-.05.28,0,.34.13.05.12,0,.27-.13.33l-.37.17c-.47.21-.96.43-1.45.65-.03.02-.07.03-.1.03ZM291.61,183.52c-.1,0-.19-.06-.23-.15,0-.03-.02-.07-.02-.11,0-.09.06-.18.14-.22.63-.29,1.23-.57,1.82-.84.13-.05.28,0,.33.12.06.13,0,.28-.12.34-.22.1-.44.2-.67.3-.37.18-.75.35-1.14.53h-.01s-.07.03-.1.03ZM294.33,182.26c-.1,0-.18-.06-.22-.15-.02-.03-.03-.07-.03-.1,0-.1.06-.18.14-.22t0-.01s0,0,.02,0c.28-.13.56-.26.84-.39.32-.15.64-.3.95-.44.12-.06.27,0,.33.12.03.05.03.12,0,.18-.02.07-.07.12-.13.15-.54.25-1.13.53-1.81.85h0s-.06.02-.1.02Z"/>
  <path class="st1" d="M195.84,251.52c-.14,0-.25-.11-.25-.25,0-.47,0-1.2.03-2.01,0-.14.12-.24.25-.24h0c.13,0,.24.11.24.24v.02c-.03.8-.03,1.52-.03,1.99,0,.14-.11.25-.25.25ZM195.92,248.52h0c-.07,0-.13-.04-.18-.09-.04-.05-.06-.11-.06-.18.04-.67.1-1.35.18-2.01,0-.13.14-.23.27-.22.13.02.23.13.22.26h0v.05c-.07.63-.13,1.29-.17,1.95,0,.13-.12.24-.25.24ZM196.23,245.53h-.04c-.14-.02-.23-.15-.21-.29.11-.69.24-1.36.39-1.98.03-.13.15-.22.3-.19.11.03.18.13.19.24,0,.02,0,.04,0,.06-.15.64-.27,1.29-.37,1.95-.02.12-.13.21-.25.21ZM196.86,242.6s-.05,0-.07,0c-.13-.04-.21-.18-.17-.31.2-.68.42-1.32.67-1.92.05-.12.2-.18.32-.13.1.03.16.13.16.23,0,.03,0,.06-.02.09-.24.59-.46,1.21-.65,1.87-.03.1-.13.18-.24.18ZM197.93,239.8s-.08,0-.11-.03c-.06-.03-.11-.08-.13-.14-.02-.07-.02-.13,0-.19.31-.63.66-1.23,1.03-1.76.08-.11.24-.14.35-.06.07.05.11.12.11.21,0,.05-.02.09-.05.14-.36.51-.69,1.08-.99,1.69-.04.08-.13.14-.22.14ZM199.54,237.28s-.11-.02-.16-.06c-.05-.04-.08-.1-.08-.17-.01-.07,0-.13.05-.18.44-.53.92-1.01,1.44-1.45.1-.08.27-.06.36.04.03.04.05.1.05.15,0,.08-.03.15-.09.2-.49.41-.96.88-1.37,1.38-.05.05-.12.09-.2.09ZM201.75,235.27c-.08,0-.16-.04-.2-.11-.08-.12-.05-.27.06-.35.55-.37,1.15-.71,1.79-.98,0-.01,0-.01,0-.01.12-.04.27.02.32.14s0,.27-.13.33c-.61.26-1.18.58-1.71.93-.04.03-.09.05-.14.05Z"/>
  <path class="st2" d="M330.26,180.59c-3.25,5.41-4.08,6.79-45.66,22.34-3.52,1.32-7.34,2.74-11.47,4.27-24.76,9.17-50.49,18.72-69.63,26.86-16.26,6.9-27.76,12.8-29.87,16.57.41-1.27.88-2.51,1.41-3.73.14-.33.29-.66.45-.98.72-1.55,1.54-3.08,2.46-4.65.73-1.23,1.51-2.49,2.35-3.79h0c3.75-5.79,8.67-12.47,14.56-22.07,6.13-9.99,14.11-22.62,19.73-31.46,15.2-.38,28.52-.9,41.22-1.41,24.16-.97,46.07-1.95,74.44-1.95Z"/>
  <path class="st2" d="M214.6,183.95c-5.62,8.84-13.6,21.47-19.73,31.46-5.89,9.6-10.81,16.28-14.56,22.07h0c-6.97-.41-8.7-.28-12.43-.28s-5.46-.13-12.43.28c.84,1.3,1.62,2.56,2.35,3.79.92,1.57,1.74,3.1,2.46,4.65.16.32.31.65.45.98.53,1.22,1,2.46,1.41,3.73-4.6-8.22-53.72-26.48-99.5-43.43-4.13-1.53-7.95-2.95-11.47-4.27-41.58-15.55-42.41-16.93-45.66-22.34,56.74,0,87.65,3.91,162.39,3.91,17.74,0,33-.22,46.73-.55Z"/>
  <path class="st1" d="M168.67,172.52c-.14,0-.25-.11-.25-.25s.11-.25.25-.25h2c.13,0,.25.11.25.25s-.12.25-.25.25h-2ZM167.67,172.52h-2c-.14,0-.25-.11-.25-.25s.11-.25.25-.25h2c.14,0,.25.12.25.25,0,.14-.11.25-.25.25ZM164.67,172.52h-2c-.07,0-.13-.03-.18-.08-.05-.05-.07-.11-.07-.18,0-.13.11-.24.24-.24h2.01c.14,0,.25.11.25.25s-.12.25-.25.25ZM171.67,172.52c-.14,0-.25-.11-.25-.25s.11-.25.25-.25h2c.13,0,.25.11.25.24,0,.14-.12.25-.25.25h-.49c-.5,0-1.01,0-1.51,0ZM161.67,172.51h-2c-.07,0-.14-.03-.18-.08-.05-.05-.07-.11-.07-.17,0-.14.11-.25.25-.25h2c.14,0,.25.12.25.25,0,.14-.11.25-.25.25ZM174.67,172.51h0c-.14,0-.25-.11-.25-.25,0-.13.11-.24.24-.25h.66c.45,0,.9,0,1.34,0,.14,0,.25.12.26.25,0,.14-.12.25-.25.25h-.64c-.45,0-.91,0-1.36,0ZM158.67,172.5h-.07c-.65,0-1.29,0-1.93,0-.07,0-.14-.03-.18-.07-.05-.05-.07-.11-.07-.18,0-.13.11-.25.25-.25.33,0,.66,0,.99,0h1.01c.14,0,.25.12.25.25,0,.14-.12.25-.25.25ZM177.67,172.5h0c-.14,0-.25-.11-.25-.25s.11-.25.25-.25c.67,0,1.33,0,1.99,0,.14,0,.25.11.25.25,0,.13-.11.25-.24.25-.67,0-1.33,0-2,0ZM155.67,172.49h0c-.67-.01-1.34-.01-2-.02h0c-.14,0-.25-.11-.25-.24,0-.14.11-.25.25-.25.66,0,1.33,0,2,.01.14,0,.25.11.25.25,0,.13-.12.25-.25.25ZM180.67,172.48h0c-.14,0-.25-.11-.25-.25,0-.06.02-.12.07-.17.04-.05.11-.08.17-.08h2c.14,0,.25.1.26.24,0,.14-.12.25-.25.25h-2ZM152.67,172.47h-.64c-.46,0-.91,0-1.36-.02-.07,0-.13-.03-.18-.07-.04-.05-.07-.11-.07-.18,0-.14.11-.25.25-.25.33,0,.66,0,.99,0s.67,0,1.01,0c.14,0,.25.11.25.25s-.11.25-.25.25ZM183.67,172.46h0c-.14,0-.26-.11-.26-.25,0-.13.11-.25.25-.25h0c.4,0,.8,0,1.2,0h.8c.14,0,.25.11.25.24,0,.07-.02.13-.07.18s-.11.08-.17.08c-.67,0-1.34,0-2,0ZM149.67,172.44h0c-.67,0-1.34,0-2-.02-.14,0-.25-.11-.25-.25s.12-.25.25-.25h.97c.34.02.69.02,1.03.02.14,0,.25.12.25.25,0,.14-.12.25-.25.25ZM186.67,172.44h0c-.13,0-.24-.11-.25-.25,0-.07.03-.13.07-.18.05-.05.11-.07.18-.07.67,0,1.34-.02,2-.02.14,0,.25.11.25.24,0,.14-.11.26-.24.26-.35,0-.69,0-1.04,0h-.96ZM146.67,172.41h0c-.67,0-1.34-.01-2-.02-.07,0-.13-.03-.18-.08-.04-.04-.07-.11-.07-.17,0-.14.11-.25.25-.25.36,0,.71,0,1.07,0h.94c.13.01.24.13.24.27,0,.13-.11.24-.25.24ZM189.67,172.41h0c-.14,0-.26-.11-.26-.25s.11-.25.25-.25c.35-.01.7-.01,1.05-.02h.95c.14,0,.25.1.25.24s-.11.25-.24.25c-.35,0-.69,0-1.04.02h-.96ZM143.67,172.38h0c-.67,0-1.34-.02-2-.03-.07,0-.13-.02-.18-.07-.04-.05-.07-.11-.07-.18,0-.14.12-.25.25-.25h.47c.51.02,1.02.02,1.54.03.06,0,.13.03.17.07.05.05.07.11.07.18,0,.14-.11.25-.25.25ZM192.66,172.37h0c-.13,0-.25-.11-.25-.25,0-.06.03-.13.07-.18.05-.04.11-.07.18-.07.67-.01,1.33-.01,2-.03.13,0,.25.12.25.25,0,.14-.11.25-.24.26-.35,0-.69,0-1.04,0h-.97ZM140.67,172.34h0c-.43,0-.86,0-1.29-.02h-.71c-.07,0-.13-.04-.17-.08-.05-.05-.08-.12-.08-.18,0-.14.12-.25.26-.25.66,0,1.33.02,2,.03.13,0,.24.11.24.25s-.11.25-.25.25ZM195.66,172.33h0c-.13,0-.25-.11-.25-.25,0-.06.02-.13.07-.17.05-.05.11-.08.18-.08.32,0,.65-.01.97-.01.35,0,.69,0,1.03-.02.14,0,.25.11.25.25s-.11.25-.25.25c-.66,0-1.33.02-2,.03ZM137.67,172.3h0c-.67,0-1.34-.03-2-.04-.14,0-.25-.11-.24-.25,0-.14.11-.25.25-.25.66,0,1.33.03,2,.04.06,0,.13.02.17.07.05.05.08.11.07.18,0,.14-.11.25-.25.25ZM198.66,172.29h0c-.14,0-.25-.11-.25-.25h0c0-.14.11-.25.24-.25.5-.01.99-.02,1.48-.03h.53c.14,0,.25.11.25.24,0,.07-.03.13-.07.18-.05.05-.11.07-.18.07-.66.02-1.33.03-1.99.04h0ZM134.67,172.25h0c-.32,0-.65,0-.97-.02-.34,0-.69,0-1.03-.02-.06,0-.13-.03-.17-.07-.05-.05-.07-.12-.07-.18,0-.14.11-.25.24-.25h0c.44,0,.87.02,1.31.02l.69.02c.07,0,.13.02.17.07.05.05.08.11.08.18,0,.14-.12.25-.26.25ZM201.66,172.24h0c-.14,0-.25-.11-.25-.25h0c0-.14.11-.25.24-.25h.12c.63-.02,1.26-.03,1.88-.04.14,0,.25.11.26.25,0,.13-.11.25-.25.25-.66,0-1.33.03-2,.04ZM131.68,172.19h0l-2-.04c-.06,0-.13-.02-.17-.07-.05-.05-.07-.11-.07-.18,0-.13.11-.24.24-.24h0l2,.03c.14.01.25.12.25.26,0,.13-.12.24-.25.24ZM204.66,172.18h0c-.14,0-.25-.11-.25-.24,0-.14.1-.25.24-.26h.69c.44-.02.87-.03,1.31-.03.14,0,.25.1.25.24,0,.07-.02.13-.07.18-.04.04-.1.07-.17.07-.66.02-1.33.03-2,.04ZM128.68,172.13h0c-.67,0-1.33-.02-2-.04-.06,0-.12-.03-.17-.07-.05-.05-.07-.12-.07-.18,0-.14.11-.25.25-.25.67.02,1.33.03,2,.04.14,0,.25.12.25.26s-.11.24-.25.24ZM207.66,172.12h0c-.14,0-.25-.11-.25-.24h0c0-.15.11-.26.24-.26.61-.01,1.22-.02,1.82-.04h.18c.14,0,.25.11.25.24,0,.07-.02.13-.07.18-.04.05-.1.08-.17.08l-2,.04ZM125.68,172.07h0l-2-.04c-.14,0-.25-.12-.25-.26,0-.13.11-.24.25-.24h.01l1.99.04c.14,0,.25.12.25.26,0,.13-.11.24-.25.24ZM210.66,172.06h0c-.14,0-.24-.11-.24-.25,0-.06.02-.13.06-.18.05-.04.11-.07.17-.07,0,0,.02,0,.04,0,.66-.02,1.31-.03,1.97-.05.14,0,.25.11.25.25,0,.06-.02.13-.07.18-.04.04-.11.07-.17.07-.32,0-.63.02-.95.02-.35.01-.7.02-1.05.03h0ZM122.68,172h0l-2-.05c-.14,0-.24-.11-.25-.24h0c.01-.15.12-.26.25-.26h.01l.45.02c.51,0,1.03.02,1.55.03.14,0,.25.12.24.26,0,.13-.11.24-.25.24ZM213.66,171.99h0c-.13,0-.25-.11-.25-.25,0-.06.02-.13.07-.18.05-.04.11-.07.18-.07.51-.01,1.03-.03,1.54-.04h.46c.14-.01.25.1.25.24,0,.06-.02.12-.07.17-.04.05-.11.08-.17.08l-2,.05ZM119.68,171.93h0c-.43,0-.86-.02-1.28-.03l-.72-.02c-.14,0-.25-.12-.24-.26,0-.14.11-.24.24-.24h.01l2,.05c.14,0,.25.12.25.26-.01.13-.12.24-.26.24ZM216.66,171.91h0c-.14,0-.25-.1-.25-.24,0-.07.02-.13.07-.18.05-.05.11-.07.17-.08l2.01-.05c.14,0,.24.11.25.25,0,.13-.11.25-.24.25-.67.02-1.33.04-2,.05ZM116.69,171.85h-.01c-.67-.02-1.34-.04-2-.05-.13,0-.24-.12-.24-.25h0c0-.15.11-.25.25-.25h0c.28,0,.55,0,.82.02.39.01.79.02,1.18.03.07,0,.13.03.18.08.04.05.07.11.07.18-.01.13-.12.24-.25.24ZM219.65,171.84h0c-.14,0-.25-.11-.25-.25s.1-.25.24-.26c.67-.01,1.34-.03,2-.05h0c.13,0,.24.11.25.24,0,.14-.11.25-.25.26-.66.02-1.33.04-2,.06ZM113.69,171.77h-.01c-.46,0-.93-.03-1.39-.04l-.61-.02c-.13,0-.24-.12-.24-.26,0-.13.11-.24.25-.24h.16c.62.02,1.23.04,1.85.06.06,0,.13.03.17.08.05.05.07.11.07.17-.01.14-.12.25-.25.25ZM222.65,171.75h0c-.14,0-.25-.11-.25-.24v-.02c0-.13.1-.23.24-.24l.92-.03c.36,0,.72-.02,1.08-.03h0c.14,0,.25.11.25.24,0,.14-.1.26-.24.26-.66.02-1.33.04-2,.06ZM110.69,171.68l-.9-.03c-.37,0-.74-.02-1.1-.03-.14-.01-.24-.11-.25-.24v-.02c0-.13.11-.24.25-.24h0c.66.02,1.33.04,2,.06.06,0,.13.03.17.08.05.05.07.11.07.18,0,.13-.12.24-.25.24ZM225.65,171.66h0c-.13,0-.24-.1-.25-.24h0c0-.15.11-.25.25-.26l.87-.02c.38-.02.75-.03,1.12-.04h.01c.14,0,.25.11.25.24,0,.14-.1.26-.24.26-.66.02-1.33.04-2,.06h0ZM107.69,171.59h-.01c-.37,0-.75-.03-1.12-.04l-.87-.03c-.14,0-.24-.11-.25-.24t0-.02c0-.13.11-.24.24-.24h0c.38.02.76.03,1.15.04l.85.03c.14,0,.25.12.24.26,0,.13-.11.24-.25.24ZM228.65,171.57h0c-.14,0-.25-.11-.25-.24v-.02c0-.13.11-.24.24-.24l.48-.02c.51,0,1.02-.03,1.52-.05h.01c.13,0,.24.11.25.25,0,.13-.11.25-.24.26l-.89.02c-.37.02-.74.03-1.11.04ZM104.7,171.49h-.02c-.51-.01-1.02-.03-1.53-.05l-.46-.02c-.14,0-.24-.11-.24-.24v-.02c0-.13.11-.24.25-.24h.01c.66.03,1.32.05,1.99.07.07,0,.13.03.18.08.04.05.07.11.07.18,0,.14-.12.24-.25.24ZM231.65,171.47h0c-.14,0-.25-.1-.25-.24h0c0-.15.11-.25.24-.26.53-.02,1.06-.03,1.59-.05l.42-.02c.13,0,.24.11.25.25,0,.13-.11.25-.24.25-.67.03-1.33.05-2,.07ZM101.7,171.39h0c-.67-.02-1.34-.05-2-.07-.13,0-.24-.11-.24-.25h0c.01-.14.11-.25.25-.25h.01c.55.02,1.1.04,1.66.06h.34c.06,0,.13.04.17.09.05.05.07.11.07.18,0,.13-.12.24-.25.24ZM234.64,171.37h-.01c-.13,0-.24-.11-.24-.24h0c0-.15.1-.25.23-.26h0c.67-.02,1.33-.05,1.99-.07h.02c.13,0,.24.11.24.24.01.14-.1.25-.24.26-.57.02-1.14.04-1.72.06h-.28ZM98.7,171.29h0c-.66-.03-1.33-.05-1.99-.08-.14,0-.24-.11-.25-.24t.01-.02c0-.13.11-.24.25-.24h0l.91.04c.36,0,.73.02,1.09.04.07,0,.13.03.18.07.04.05.06.12.06.18,0,.14-.11.25-.25.25ZM237.64,171.26h-.01c-.13,0-.24-.1-.25-.24h0c0-.14.11-.25.24-.25.35-.02.7-.03,1.04-.04.32,0,.64-.03.96-.04h0c.14,0,.24.11.25.24,0,.14-.1.26-.24.26l-.91.04c-.36.01-.72.02-1.09.03ZM95.7,171.18l-.64-.03c-.46,0-.91-.03-1.36-.05-.13,0-.24-.11-.24-.24v-.02c0-.13.11-.23.24-.23h.01s.03,0,.04,0c.6.02,1.2.04,1.81.06h.15c.07,0,.13.04.18.09.04.05.07.11.06.18,0,.13-.11.24-.25.24ZM240.64,171.16h-.01c-.13,0-.25-.11-.25-.25h0c0-.14.11-.25.24-.25.67-.03,1.33-.05,2-.08h0c.13,0,.24.11.25.24,0,.14-.11.25-.24.26-.67.03-1.33.05-2,.08ZM92.71,171.07h-.01l-2-.08c-.13-.01-.24-.11-.24-.25h0c0-.14.12-.25.25-.25h0c.26,0,.51.02.76.03.41.02.83.03,1.24.05.06,0,.12.03.17.07.05.05.07.12.07.18-.01.14-.12.25-.25.25ZM243.64,171.04h-.01c-.14,0-.25-.1-.25-.24h0c0-.14.1-.25.24-.26l2.01-.07c.13,0,.24.11.24.24,0,.06-.02.13-.06.18-.05.05-.11.08-.18.08-.35,0-.71.03-1.07.04l-.92.03h0ZM89.71,170.95h-.01c-.67-.02-1.33-.05-2-.08-.13,0-.23-.11-.24-.24,0,0,0-.02,0-.02,0-.13.11-.24.25-.24h0c.67.03,1.33.06,2,.08.14,0,.25.12.24.26,0,.14-.11.24-.25.24ZM246.63,170.93h0c-.14,0-.25-.11-.26-.24h0c0-.15.11-.25.24-.26h0c.42-.02.84-.03,1.25-.05l.76-.03c.14,0,.25.11.25.24,0,.07-.02.13-.07.18-.04.05-.1.08-.17.08-.65.03-1.3.05-1.96.08h-.04ZM86.71,170.84h0c-.32-.02-.64-.03-.96-.04-.35-.02-.69-.03-1.04-.04-.13,0-.24-.12-.24-.25v-.02c0-.13.11-.23.25-.23h.01c.32,0,.64.02.97.03.34.02.68.03,1.03.04.13,0,.24.13.24.27,0,.13-.12.24-.26.24ZM249.63,170.81h0c-.13,0-.25-.1-.25-.24h0c0-.14.11-.25.24-.26.35,0,.71-.03,1.06-.04.31,0,.62-.03.94-.04h0c.14,0,.25.11.26.24,0,.14-.11.26-.24.26-.67.03-1.33.06-2,.08h0ZM83.72,170.72h-.12c-.63-.03-1.26-.06-1.89-.08-.13,0-.24-.12-.24-.25v-.02c.01-.13.12-.23.25-.23h.01c.35,0,.69.02,1.04.04.32,0,.64.02.96.04.14,0,.24.12.24.26,0,.13-.12.24-.25.24ZM252.62,170.69h0c-.14,0-.25-.1-.25-.24h0c0-.15.1-.26.24-.26h.29c.57-.03,1.13-.06,1.7-.08h0c.14,0,.25.11.25.24,0,.14-.1.26-.24.26-.66.03-1.32.06-1.98.08h-.02ZM80.72,170.59h0c-.65-.02-1.31-.05-1.96-.07h-.03c-.14,0-.24-.12-.24-.25h0c0-.15.11-.25.25-.25h0c.34,0,.69.02,1.04.04l.95.04c.14,0,.25.12.24.26,0,.13-.11.23-.25.23ZM255.62,170.57h0c-.13,0-.24-.1-.25-.24h0c0-.14.11-.25.24-.26l2.01-.08c.13,0,.25.11.25.24,0,.14-.1.25-.24.26-.65.03-1.3.05-1.96.08h-.04ZM77.73,170.47h-.01l-2-.08c-.13,0-.24-.11-.24-.24v-.02c0-.13.11-.24.25-.24h0c.66.03,1.33.06,2,.08.06,0,.12.03.17.08.04.05.07.12.07.18-.01.14-.12.24-.25.24ZM258.62,170.45h0c-.15,0-.26-.11-.26-.24h0c0-.15.1-.25.23-.26h.19c.61-.03,1.21-.06,1.82-.08h0c.13,0,.24.1.25.24,0,.14-.11.25-.24.26l-2,.08h0ZM74.73,170.35l-.7-.03-1.31-.05h0c-.12,0-.22-.12-.23-.25h0c0-.14.12-.25.25-.25h.05c.65.03,1.3.05,1.96.08.07,0,.13.03.17.08.05.05.07.11.07.18,0,.14-.12.24-.25.24ZM261.61,170.33h0c-.14,0-.25-.11-.26-.24h0c0-.15.11-.26.24-.26l2.01-.08c.14,0,.25.1.25.24,0,.13-.1.25-.24.26l-1.99.08h0ZM71.73,170.23h-.01l-.95-.04c-.34,0-.69-.03-1.03-.04h0c-.13,0-.24-.12-.24-.25h0c0-.15.11-.25.25-.25h.01c.67.02,1.34.05,1.99.08.07,0,.13.03.18.08.04.05.07.11.06.18,0,.13-.11.24-.25.24ZM264.61,170.21h0c-.13,0-.24-.11-.25-.24v-.02c0-.13.11-.24.24-.24l2.02-.09c.13,0,.24.11.25.24,0,.07-.03.13-.07.18s-.11.08-.17.08c-.67.03-1.33.06-2,.08,0,0,0,0,0,0ZM68.74,170.11h0c-.34-.02-.67-.03-1.01-.04-.33-.02-.66-.03-.99-.04-.13,0-.24-.12-.24-.25h0c.01-.15.12-.25.25-.25h.01c.67.02,1.33.05,2,.08.06,0,.12.03.17.08.05.04.07.11.07.18,0,.13-.12.24-.25.24ZM267.62,170.08h0c-.14,0-.25-.1-.25-.24h0c0-.14.11-.25.24-.26.67-.02,1.33-.05,2-.08h0c.13,0,.24.11.25.24,0,.14-.1.26-.24.26-.67.03-1.34.06-2,.08h0ZM65.74,169.99h0c-.33-.02-.67-.03-1.01-.04-.32-.02-.65-.03-.98-.04-.13-.01-.24-.12-.24-.25h0c0-.15.12-.25.25-.25h0c.34,0,.67.03,1,.04.33,0,.66.02.99.04.14,0,.25.12.24.26,0,.13-.11.24-.25.24ZM270.62,169.96h0c-.14,0-.25-.1-.25-.24,0,0,0,0,0,0,0-.13.11-.24.24-.25h.01c.32,0,.65-.02.98-.04.33,0,.67-.02,1.01-.04h.02c.13,0,.24.11.24.24,0,.14-.1.26-.24.26-.65.03-1.29.06-1.94.08h-.05ZM62.76,169.87h0c-.63-.03-1.25-.05-1.87-.07h-.13c-.13,0-.24-.12-.24-.26h0c.01-.14.12-.25.25-.25h.01c.33,0,.66.03.99.04.33,0,.67.03,1.01.04.06,0,.12.03.17.08.04.05.07.11.07.18,0,.13-.12.24-.25.24ZM273.61,169.84h0c-.14,0-.25-.1-.26-.24h0c0-.14.1-.24.23-.25,0,0,.03,0,.04,0l.94-.04c.34-.02.68-.03,1.02-.04h0c.14,0,.25.1.25.24.01.13-.1.25-.23.26l-2,.07h0ZM59.76,169.75h0c-.35,0-.69-.02-1.04-.04l-.96-.03c-.14,0-.24-.12-.24-.25h0c0-.15.11-.25.25-.25h0l1.99.07c.07,0,.13.03.18.08.04.05.07.12.06.18,0,.14-.11.24-.25.24ZM276.6,169.73h-.01c-.13,0-.24-.1-.25-.24h0c0-.15.11-.25.24-.26h.19c.6-.03,1.2-.05,1.8-.07h0c.14,0,.25.1.25.24,0,.06-.02.13-.07.17-.04.05-.1.08-.17.08l-1.99.08h0ZM56.77,169.64h-.01c-.67-.02-1.33-.05-2-.07-.13,0-.24-.12-.24-.25h0c0-.15.11-.25.25-.25h0c.33.01.65.02.98.03.34.02.68.03,1.02.04.07,0,.13.03.17.08.05.05.07.11.07.18-.01.13-.12.24-.25.24ZM279.59,169.62h0c-.14,0-.26-.11-.26-.24v-.02c0-.13.11-.24.24-.24.45-.02.89-.03,1.34-.05l.67-.03c.13,0,.24.11.25.25,0,.13-.11.25-.24.26-.67.02-1.34.04-2,.07h0ZM53.77,169.53h-.01c-.39,0-.79-.03-1.18-.04-.27-.01-.54-.02-.81-.03h-.01c-.14,0-.24-.11-.24-.24v-.02c0-.13.11-.24.24-.24h.01c.41,0,.82.03,1.22.04.26,0,.53.02.79.03.06,0,.13.03.17.08.05.05.07.11.07.18-.01.14-.12.24-.25.24ZM282.58,169.51h0c-.14,0-.25-.11-.25-.24h0c0-.15.1-.25.24-.26l2-.07h0c.14,0,.25.11.25.24,0,.14-.1.25-.24.26-.28.01-.56.02-.85.03-.38,0-.76.03-1.14.04h0ZM50.76,169.43h0c-.47-.02-.93-.03-1.4-.05l-.6-.02c-.14,0-.24-.11-.24-.25h0c0-.14.11-.25.24-.25h.01c.67.02,1.34.04,2,.07.14,0,.25.12.24.25,0,.14-.11.25-.25.25ZM285.58,169.4h0c-.13,0-.25-.1-.25-.24h0c0-.14.11-.25.24-.25h0c.45-.02.9-.04,1.35-.05l.65-.02c.14,0,.25.1.25.24s-.1.25-.24.26c-.28,0-.56.02-.83.03-.39,0-.78.02-1.17.03ZM47.76,169.32h0l-2-.06c-.13,0-.24-.11-.24-.24v-.02c0-.13.11-.24.25-.24h0c.52.02,1.04.03,1.55.05l.45.02c.07,0,.13.02.18.07.04.05.07.12.07.18-.01.14-.12.24-.26.24ZM288.58,169.31s0,0,0,0c-.14,0-.25-.1-.25-.24h0c0-.14.11-.25.24-.25l2-.07h0c.13,0,.24.11.25.25,0,.06-.03.13-.07.17-.05.05-.11.08-.17.08l-.91.03c-.37,0-.73.02-1.09.04h0ZM44.77,169.23h-.01c-.66-.02-1.33-.04-2-.06-.13,0-.24-.12-.24-.26,0-.13.11-.24.25-.24h0c.49,0,.99.03,1.49.05h.51c.13,0,.24.13.24.27,0,.13-.12.24-.25.24ZM291.57,169.21h0c-.14,0-.25-.11-.25-.24h0c0-.15.11-.26.24-.26.51,0,1.02-.03,1.53-.04l.47-.02h0c.13,0,.24.11.24.24,0,.14-.1.26-.24.26-.66.02-1.33.04-2,.06ZM41.77,169.14l-.91-.03c-.36,0-.73-.02-1.09-.03-.14,0-.25-.12-.25-.25,0-.14.12-.24.25-.24,0,0,0,0,0,0h.03c.66.02,1.32.04,1.97.06.07,0,.13.03.17.08.05.05.07.11.07.18,0,.13-.11.24-.25.24ZM294.57,169.12h0c-.13,0-.24-.11-.25-.24h0c0-.15.11-.25.25-.26.66-.01,1.33-.03,2-.05h0c.14,0,.25.11.25.24,0,.07-.02.13-.07.18-.04.05-.1.08-.17.08-.67.02-1.33.03-2,.05ZM38.77,169.06h0c-.46,0-.92-.03-1.38-.04h-.62c-.14-.02-.24-.13-.24-.26h0c0-.15.11-.26.25-.26.64.02,1.28.04,1.91.05h.09c.14,0,.25.13.24.26,0,.14-.11.25-.25.25ZM297.57,169.04h0c-.14,0-.24-.11-.25-.24v-.02c0-.13.11-.24.25-.24.32-.01.65-.02.98-.02.34,0,.67-.02,1.01-.03.15,0,.26.11.26.24,0,.14-.11.26-.24.26h-.46c-.52.02-1.03.04-1.54.05h0ZM35.77,168.98h0c-.34,0-.68-.02-1.03-.02-.32,0-.64-.02-.97-.03-.06,0-.13-.03-.17-.07-.05-.05-.07-.12-.07-.18,0-.14.11-.25.25-.25h.01c.67.02,1.33.03,1.99.05.07,0,.13.03.18.08.04.05.07.11.07.18,0,.13-.12.24-.26.24ZM300.57,168.97h0c-.13,0-.25-.11-.25-.25s.11-.25.24-.25c.67-.02,1.33-.04,2-.05.14,0,.25.11.26.24,0,.14-.11.25-.25.26-.66,0-1.33.03-1.99.05ZM32.77,168.91h0c-.44-.01-.89-.02-1.34-.03h-.66s0,0-.01-.02c-.12,0-.23-.11-.23-.24h0c0-.14.11-.25.24-.25.02-.01.03,0,.05,0,.65,0,1.31.03,1.96.04.07,0,.13.03.18.08.04.05.07.11.07.18,0,.13-.12.24-.26.24ZM303.56,168.9h0c-.14,0-.25-.11-.25-.25,0-.07.02-.13.07-.18.04-.04.11-.07.17-.07.67-.02,1.33-.03,2-.04.14,0,.25.1.26.24,0,.14-.11.25-.25.25-.32,0-.65.02-.97.02-.34,0-.69.02-1.03.03ZM29.78,168.85h0l-1.99-.04c-.14,0-.25-.12-.25-.26,0-.13.12-.24.25-.24.67,0,1.34.02,2.01.04.13,0,.24.11.24.25s-.11.25-.25.25ZM306.56,168.84h0c-.14,0-.25-.11-.25-.25,0-.07.02-.13.07-.18.04-.05.1-.07.17-.07.54-.02,1.09-.03,1.63-.04h.37c.14,0,.25.1.25.24,0,.14-.1.25-.24.26-.67,0-1.33.02-1.99.03h0ZM26.78,168.79h0c-.33-.01-.65-.01-.98-.02-.34,0-.68,0-1.02,0-.14,0-.25-.12-.25-.26.01-.13.12-.24.25-.24.35,0,.7,0,1.04,0l.97.02c.13,0,.24.12.24.25,0,.14-.11.25-.25.25ZM309.56,168.78h0c-.13,0-.24-.11-.25-.25,0-.13.11-.25.25-.25.63,0,1.27-.02,1.91-.03h.09c.14,0,.25.11.25.24,0,.07-.02.13-.07.18-.04.05-.11.08-.17.08-.67,0-1.34.02-2,.03ZM23.78,168.74h0c-.66-.01-1.33-.02-2-.03-.07,0-.13-.03-.18-.07-.04-.05-.07-.12-.06-.18,0-.14.11-.25.24-.25h.63c.46.02.92.02,1.38.03.06,0,.12.03.17.08.05.04.07.11.07.17,0,.14-.11.25-.25.25ZM312.55,168.73c-.14,0-.25-.11-.25-.24,0-.14.11-.26.25-.26l2-.03c.14,0,.25.11.25.25s-.11.25-.25.25c-.67,0-1.33.02-1.99.03h0ZM20.79,168.7h-.48c-.51-.01-1.02-.02-1.53-.02-.13,0-.25-.12-.25-.26.01-.13.12-.24.26-.24.67,0,1.33,0,2,.02.13,0,.24.11.24.25s-.11.25-.24.25ZM315.55,168.69h0c-.14,0-.25-.11-.25-.25,0-.13.11-.25.25-.25.33,0,.67,0,1.01,0,.32,0,.65,0,.99,0,.13,0,.25.11.25.24,0,.14-.11.26-.25.26-.35,0-.7,0-1.04,0h-.96ZM17.78,168.67h-.48c-.5-.02-1.01-.02-1.51-.02-.07,0-.13-.03-.18-.08-.05-.05-.07-.11-.07-.18,0-.13.11-.24.25-.24.58,0,1.2.01,2,.02.14,0,.25.11.25.25-.01.13-.12.25-.26.25ZM318.55,168.66h0c-.14,0-.25-.11-.25-.25,0-.07.02-.13.07-.18.05-.04.11-.07.18-.07.34,0,.69-.01,1.04-.01h.96c.13,0,.25.1.25.24,0,.07-.03.13-.07.18-.05.04-.11.07-.18.07-.51,0-1.02,0-1.52,0h-.48ZM14.79,168.64h0c-.33,0-.66,0-.99,0s-.68,0-1.01,0c-.07,0-.13-.02-.18-.07s-.07-.11-.07-.18c0-.14.11-.25.25-.25h.64c.46,0,.91,0,1.36.02.07,0,.13.02.18.07.04.05.07.11.07.18,0,.14-.12.25-.25.25ZM321.55,168.63h0c-.14,0-.25-.11-.25-.24,0-.07.02-.13.07-.18s.11-.08.18-.08c.49,0,1,0,1.5,0h.5c.13,0,.25.11.25.25s-.11.25-.25.25c-.67,0-1.34,0-2,0ZM11.79,168.62h0c-.67-.01-1.33-.01-2-.01-.14,0-.25-.11-.25-.25s.11-.25.25-.25c.67,0,1.34.01,2,.01.14,0,.25.11.25.25s-.12.25-.25.25ZM324.55,168.62h0c-.14,0-.25-.11-.25-.25,0-.07.02-.13.07-.18.05-.05.11-.07.18-.07.66-.01,1.33-.01,2-.01.14,0,.25.11.25.25s-.11.25-.25.25c-.67,0-1.34,0-2,.01ZM327.55,168.61h0c-.14,0-.25-.12-.25-.25,0-.14.11-.25.25-.25h.93c.16,0,.31,0,.47,0,.14,0,.25.11.25.24,0,.14-.11.25-.25.25-.47,0-.94,0-1.4,0ZM8.79,168.61c-.49,0-.99,0-1.49,0h-.51c-.14,0-.25-.11-.25-.25s.11-.25.25-.25c.67,0,1.34,0,2,0,.14,0,.25.11.25.25,0,.13-.11.25-.25.25Z"/>
  <path class="st1" d="M150.83,231.04s-.08-.01-.12-.03c-.58-.3-1.18-.59-1.78-.9-.09-.04-.14-.13-.14-.22,0-.04,0-.08.02-.11.06-.12.22-.17.34-.11.52.26,1.08.53,1.79.89.12.06.17.21.11.34-.04.08-.13.14-.22.14ZM148.14,229.7s-.07-.01-.11-.03c-.57-.28-1.13-.55-1.79-.88t0-.01c-.08-.04-.13-.13-.13-.22,0-.04,0-.07.02-.11.06-.12.22-.17.34-.11l.24.12c.52.25,1.04.51,1.55.76.06.03.11.08.13.14.02.07.02.13-.01.2-.05.08-.13.14-.23.14ZM145.45,228.38s-.08,0-.11-.03c-.62-.3-1.23-.6-1.8-.87-.09-.04-.14-.13-.14-.23,0-.03,0-.07.02-.1.06-.13.21-.18.34-.12.55.27,1.19.57,1.8.87.06.03.1.08.12.14.03.07.02.14,0,.19-.04.09-.13.15-.22.15ZM142.74,227.07s-.07,0-.1-.02l-1.81-.86c-.08-.05-.14-.13-.14-.23,0-.04,0-.07.02-.11.06-.12.22-.17.34-.12.61.29,1.21.58,1.8.86.13.06.18.21.12.34-.04.08-.13.14-.23.14ZM140.03,225.78s-.07,0-.1-.02c-.41-.2-.82-.39-1.24-.59l-.56-.27h-.01c-.09-.04-.14-.13-.14-.22,0-.04,0-.08.02-.11.06-.12.2-.17.32-.12h.01s.02,0,.03,0l.24.12c.52.24,1.03.48,1.54.73.06.02.11.07.13.13.02.07.02.14-.01.2-.04.09-.13.14-.23.14ZM137.32,224.5s-.07,0-.1-.02c-.6-.28-1.21-.57-1.82-.85-.09-.04-.14-.13-.14-.22,0-.04.01-.08.02-.11.06-.12.21-.18.33-.12.3.14.6.28.9.41.3.15.61.29.92.43.12.06.18.21.12.34-.04.08-.13.14-.23.14ZM134.6,223.23s-.07,0-.1-.02c-.47-.21-.93-.43-1.4-.65l-.42-.19c-.09-.04-.14-.13-.14-.22,0-.04,0-.08.02-.11.05-.12.21-.18.33-.12.55.25,1.11.51,1.65.76l.17.08c.06.03.1.07.13.14.02.06.02.13,0,.19-.04.09-.13.14-.23.14ZM131.88,221.98s-.07,0-.11-.03c-.6-.27-1.21-.55-1.82-.83h0c-.08-.05-.13-.13-.13-.22,0-.04,0-.08.02-.11.06-.12.2-.18.32-.13h0s.02,0,.03.02l.05.02c.58.27,1.17.53,1.74.8.06.03.11.08.13.14.03.06.02.13-.01.19-.04.09-.13.15-.22.15ZM129.15,220.73s-.07,0-.1-.03l-.14-.06c-.56-.25-1.12-.51-1.69-.76-.08-.04-.14-.13-.14-.23,0-.03,0-.07.02-.1.06-.13.21-.18.33-.13l.62.28c.4.19.8.37,1.2.55.06.03.11.08.13.14.03.06.02.13,0,.19-.04.09-.13.15-.23.15ZM126.42,219.49s-.07-.01-.11-.03l-1.82-.82h0c-.08-.05-.14-.14-.14-.23,0-.04,0-.07.03-.1.05-.12.2-.18.33-.12.61.27,1.22.54,1.82.82.06.02.11.07.13.14.02.06.02.13-.01.19-.04.09-.13.15-.22.15ZM123.68,218.25s-.07,0-.1-.02c-.39-.17-.78-.35-1.18-.53l-.65-.29c-.09-.04-.15-.13-.14-.23,0-.04,0-.07.02-.1.05-.12.21-.18.33-.12l.73.32c.36.17.73.33,1.09.49.07.03.11.08.14.14.02.07.02.13-.01.2-.04.08-.13.14-.23.14ZM120.94,217.02s-.07,0-.1-.02c-.46-.2-.91-.41-1.38-.61l-.44-.2s-.01,0-.01,0c-.09-.04-.14-.13-.14-.23,0-.03.01-.06.02-.09.05-.12.2-.18.32-.13h0s.02.01.03.02c.56.24,1.15.51,1.8.8.06.02.1.07.13.14.02.06.02.12,0,.19-.04.09-.13.14-.23.14ZM118.2,215.8s-.07,0-.1-.02c-.61-.27-1.21-.54-1.83-.81-.09-.04-.15-.13-.14-.23,0-.04,0-.07.02-.1.05-.12.2-.18.33-.13.34.15.68.3,1.01.45.28.13.55.25.82.37.06.02.1.07.13.13.02.06.02.13-.01.2-.04.09-.13.14-.23.14ZM115.46,214.59s-.07,0-.1-.03c-.61-.26-1.22-.53-1.83-.8-.09-.04-.15-.14-.15-.24,0-.03,0-.06.02-.09.06-.13.21-.19.33-.13.25.11.49.22.74.33.36.16.73.32,1.09.48.06.03.11.07.13.14.03.06.03.13,0,.19-.04.09-.13.15-.23.15ZM112.71,213.37s-.06,0-.09-.02c-.41-.17-.81-.35-1.21-.53l-.63-.27c-.09-.04-.15-.13-.15-.23,0-.04,0-.07.03-.1.05-.12.2-.18.33-.13l.38.17c.48.21.97.43,1.45.64.06.02.1.07.13.13.02.07.02.13,0,.2-.04.09-.13.14-.23.14ZM109.97,212.17s-.07,0-.1-.02c-.58-.25-1.15-.51-1.73-.76l-.1-.04c-.1-.05-.15-.14-.15-.24,0-.03,0-.06.02-.09.05-.13.21-.19.33-.13l.59.26c.41.18.83.36,1.24.54.12.05.18.2.13.33-.04.09-.13.15-.23.15ZM107.22,210.96s-.07,0-.1-.02l-.69-.3c-.38-.16-.76-.33-1.14-.5-.1-.04-.15-.13-.15-.23,0-.03.01-.07.02-.1.05-.12.2-.18.33-.12.61.26,1.22.53,1.83.8.06.02.11.07.13.13.03.07.03.13,0,.19-.04.09-.13.15-.23.15ZM104.47,209.76s-.07,0-.1-.02c-.38-.16-.76-.33-1.14-.49l-.69-.3s-.01,0-.01-.01c-.09-.04-.15-.13-.15-.23,0-.03,0-.07.02-.1.05-.12.21-.18.33-.13l.12.06c.57.25,1.15.49,1.72.75.06.02.11.07.13.13.03.06.02.13,0,.19-.04.09-.13.15-.23.15ZM101.71,208.56s-.07,0-.1-.02c-.56-.24-1.13-.49-1.69-.73l-.15-.07c-.09-.04-.15-.13-.15-.23,0-.03,0-.06.02-.1.05-.12.21-.18.33-.12.61.26,1.23.53,1.84.79.06.03.11.08.13.14.03.07.02.13,0,.19-.04.09-.13.15-.23.15ZM98.95,207.37s-.07-.01-.1-.03l-.43-.18c-.47-.21-.94-.41-1.41-.61-.09-.04-.15-.13-.15-.23,0-.04,0-.07.02-.1.05-.12.2-.19.33-.13.38.16.76.33,1.14.49l.7.3c.12.06.18.21.13.33-.04.1-.13.16-.23.16ZM96.19,206.17s-.07,0-.1-.02l-.09-.04c-.58-.25-1.17-.5-1.75-.75-.09-.05-.15-.14-.15-.24,0-.03.01-.06.02-.09.05-.13.2-.19.33-.13l.61.26c.41.18.82.36,1.23.53.13.06.18.2.13.33-.04.09-.13.15-.23.15ZM93.43,204.98s-.07,0-.1-.02c-.61-.27-1.22-.53-1.84-.79h0c-.09-.05-.15-.14-.15-.24,0-.03,0-.06.02-.09.05-.12.2-.19.32-.14,0,0,.01,0,.01,0,0,0,.02,0,.03,0,.26.11.52.22.78.34.35.14.69.29,1.03.44.13.06.18.2.13.33-.04.09-.13.15-.23.15ZM90.67,203.79s-.07-.01-.1-.02c-.61-.27-1.22-.53-1.84-.79-.09-.04-.15-.13-.15-.23,0-.04,0-.07.02-.1.05-.13.2-.18.33-.13h.01c.61.26,1.22.53,1.83.79.13.05.19.2.13.33-.04.09-.13.15-.23.15ZM87.91,202.6s-.07,0-.1-.02l-.58-.25c-.42-.18-.84-.36-1.25-.54-.1-.04-.16-.13-.16-.23,0-.03.01-.07.02-.1.06-.12.21-.18.33-.13.22.1.44.19.66.29.4.16.79.33,1.18.5.13.06.19.2.13.33-.04.09-.13.15-.23.15ZM85.16,201.42s-.07,0-.1-.03c-.39-.16-.78-.33-1.17-.5l-.67-.28c-.09-.04-.15-.13-.15-.23,0-.04.01-.07.02-.1.05-.12.2-.19.33-.13l.62.27c.41.17.81.34,1.21.52.07.02.11.07.14.14.02.06.02.12,0,.18-.04.1-.13.16-.23.16ZM82.4,200.23s-.07,0-.1-.02c-.37-.16-.74-.32-1.11-.48l-.72-.31c-.1-.03-.16-.13-.16-.23,0-.03,0-.06.02-.09.05-.13.21-.19.33-.14.58.25,1.16.5,1.73.75l.11.04c.06.03.11.08.13.14.03.06.03.13,0,.19-.04.09-.13.15-.23.15ZM79.65,199.05s-.07,0-.1-.02c-.31-.13-.62-.26-.92-.4-.31-.13-.61-.26-.92-.39-.09-.04-.15-.13-.15-.23,0-.03,0-.07.02-.1.05-.12.2-.18.33-.13.61.26,1.22.53,1.83.79.07.03.11.07.14.14.02.06.02.13,0,.19-.04.09-.13.15-.23.15ZM76.89,197.87s-.06-.01-.1-.02l-.78-.34c-.36-.15-.71-.3-1.06-.45-.09-.04-.15-.13-.15-.23,0-.04.01-.07.02-.1.06-.12.21-.18.33-.13l.61.26c.41.17.82.35,1.23.53.06.02.11.07.13.13.03.07.03.13,0,.2-.04.09-.13.15-.23.15ZM74.13,196.68s-.06,0-.09-.02c-.62-.26-1.23-.52-1.83-.78,0,0-.01,0-.01,0-.09-.04-.15-.13-.15-.23,0-.03.01-.06.02-.09.05-.13.2-.19.33-.14.35.16.71.31,1.08.47l.75.33c.06.02.11.07.14.13.02.06.02.13,0,.19-.04.09-.13.15-.23.15ZM71.38,195.5s-.07,0-.1-.02l-.4-.17c-.48-.21-.96-.42-1.44-.62,0,0,0,0-.01,0-.08-.04-.14-.13-.14-.23,0-.03,0-.06.02-.09.06-.13.21-.18.33-.13.27.11.54.23.82.35.34.15.68.29,1.02.44.06.02.11.07.13.13.03.07.03.13,0,.2-.04.09-.13.15-.23.15ZM68.62,194.31s-.06,0-.09-.02l-.41-.17c-.48-.21-.95-.42-1.42-.62h0c-.09-.04-.15-.14-.15-.23,0-.04,0-.07.02-.1.05-.12.2-.19.33-.13.48.21.97.42,1.47.63l.36.16c.13.06.19.2.14.33-.05.09-.14.15-.24.15ZM65.87,193.12s-.07-.01-.1-.02c-.44-.19-.88-.38-1.31-.57l-.52-.22c-.1-.05-.15-.14-.15-.24,0-.03,0-.06.02-.09.05-.13.2-.19.33-.13.6.26,1.21.52,1.83.79.13.06.19.2.13.33-.04.09-.13.15-.23.15ZM63.12,191.93s-.07,0-.1-.02c-.62-.27-1.23-.54-1.84-.8-.09-.04-.15-.13-.15-.23,0-.04.01-.07.03-.1.05-.12.2-.19.32-.13l.53.23c.43.19.87.38,1.31.57.12.05.18.2.13.33-.04.09-.13.15-.23.15ZM60.37,190.73s-.07,0-.1-.02c-.62-.27-1.23-.53-1.82-.8h0c-.1-.04-.16-.13-.16-.23.01-.03.01-.07.03-.1.05-.12.2-.18.33-.13l.18.08c.54.24,1.09.48,1.65.72.06.03.11.08.13.14.03.06.02.13,0,.19-.04.09-.13.15-.23.15ZM57.62,189.53s-.07,0-.1-.02c-.62-.27-1.23-.54-1.83-.81-.09-.04-.15-.13-.15-.23,0-.03,0-.06.02-.09.05-.13.21-.19.33-.13.49.21.98.43,1.48.65l.35.15c.06.03.11.07.13.14.03.06.03.13,0,.19-.04.09-.13.15-.23.15ZM54.87,188.32s-.07,0-.1-.02c-.57-.25-1.13-.5-1.68-.74l-.15-.07c-.09-.04-.15-.13-.15-.23,0-.03,0-.07.02-.1.06-.12.21-.18.34-.12.59.26,1.2.53,1.82.81.07.02.11.07.14.13.02.07.02.13-.01.2-.04.09-.13.14-.23.14ZM52.13,187.11s-.07,0-.1-.02l-.07-.03c-.6-.27-1.19-.53-1.76-.78h0c-.09-.05-.14-.14-.14-.24,0-.03.01-.06.02-.09.06-.12.2-.18.32-.13h.02s.01.01.02.01l.41.19c.46.2.92.4,1.39.61.06.03.11.08.13.14.03.06.03.13,0,.19-.04.09-.13.15-.23.15ZM49.39,185.89h0s-.07,0-.1-.02c-.44-.19-.86-.39-1.28-.57l-.55-.25c-.09-.04-.14-.12-.15-.22,0-.04,0-.07.03-.11.05-.12.2-.18.33-.12l.17.07c.54.25,1.09.49,1.65.74.13.06.18.21.13.33-.04.09-.13.15-.23.15ZM46.65,184.66s-.07-.01-.1-.02l-.22-.1c-.55-.25-1.08-.49-1.6-.73-.09-.04-.15-.12-.15-.22,0-.04,0-.07.02-.11.06-.12.22-.18.34-.12l.54.25c.42.19.84.38,1.28.57.12.06.18.21.12.33-.04.09-.13.15-.23.15ZM43.92,183.42s-.07,0-.1-.02c-.63-.29-1.23-.57-1.82-.84-.08-.04-.14-.13-.14-.22,0-.04,0-.08.02-.11.05-.12.21-.18.33-.12l.43.2c.45.2.92.42,1.39.63.06.03.1.08.13.14.02.06.02.13,0,.19-.04.09-.13.15-.23.15ZM41.2,182.16s-.07-.01-.11-.02c-.7-.33-1.27-.6-1.8-.85h-.01c-.06-.03-.1-.08-.13-.14-.02-.06-.01-.13,0-.19.06-.12.21-.18.34-.12.61.29,1.22.57,1.81.85.12.05.17.2.12.33-.05.09-.14.14-.23.14Z"/>
  <path class="st1" d="M139.9,251.52c-.14,0-.25-.11-.25-.25,0-.74-.01-1.37-.03-1.99v-.02c0-.13.1-.24.24-.24h0c.13,0,.24.1.25.24.02.63.03,1.27.03,2.01,0,.14-.11.25-.25.25ZM139.83,248.52h-.01c-.13,0-.24-.11-.25-.24-.04-.65-.1-1.32-.17-1.98v-.02c-.01-.13.09-.24.22-.26.15,0,.26.09.27.22.08.66.14,1.34.18,2.01,0,.07-.02.13-.06.18-.05.05-.11.08-.18.09h0ZM139.51,245.53c-.12,0-.23-.09-.25-.21-.1-.69-.23-1.34-.37-1.94,0-.03,0-.05,0-.07,0-.11.08-.21.19-.24.14-.02.27.06.31.19.14.63.27,1.3.38,1.98.01.07,0,.13-.05.19-.04.05-.1.09-.16.1h-.04ZM138.88,242.6c-.11,0-.21-.07-.24-.18-.19-.65-.4-1.27-.65-1.87,0-.03-.02-.06-.02-.09,0-.11.07-.2.16-.23.12-.05.27.01.32.13h0s.01.01.01.02c.25.59.47,1.23.66,1.9.02.06.01.13-.02.19-.03.06-.09.1-.15.12-.02,0-.05,0-.07,0ZM137.81,239.8c-.09,0-.18-.06-.22-.14-.3-.61-.63-1.18-.99-1.69-.03-.05-.05-.09-.05-.14,0-.09.04-.17.11-.21.11-.08.27-.05.35.06.37.54.72,1.13,1.03,1.76.02.05.03.12,0,.19-.02.06-.07.11-.13.14-.03.02-.07.03-.11.03ZM136.19,237.28c-.07,0-.14-.04-.19-.09-.42-.51-.88-.98-1.37-1.38-.06-.05-.09-.12-.09-.19,0-.06.02-.12.05-.16.09-.1.25-.12.35-.03.53.43,1.01.91,1.45,1.44.09.1.07.26-.03.35-.05.04-.11.06-.17.06ZM133.99,235.27s-.1-.02-.14-.04c-.53-.37-1.1-.68-1.7-.94h-.01c-.13-.06-.19-.21-.13-.33.05-.13.21-.19.33-.13.63.27,1.23.6,1.79.98.05.04.09.09.1.16.02.07,0,.13-.04.19-.04.07-.12.11-.2.11Z"/>
  <path class="st2" d="M177.95,241.27c-.92,1.57-1.74,3.1-2.46,4.65-.16.32-.31.65-.45.98-.53,1.22-1,2.46-1.41,3.73v2.45s-.55.71-1.57,1.4c-.14.1-.28.19-.44.28-.16.1-.33.19-.51.28-.35.17-.73.33-1.15.46-.11.03-.24.07-.36.1-.29.08-.61.14-.94.17-.07.01-.15.02-.23.02-.18.01-.37.02-.56.02-.34,0-.67-.03-.98-.07-.16-.02-.31-.05-.47-.08-.35-.06-.68-.16-.99-.28-.14-.04-.27-.09-.39-.15-.13-.05-.25-.11-.37-.17-.12-.05-.23-.11-.34-.18-.35-.2-.67-.41-.95-.62-.83-.61-1.27-1.18-1.27-1.18v-2.45c-.41-1.27-.88-2.51-1.41-3.73-.14-.33-.29-.66-.45-.98-.72-1.55-1.54-3.08-2.46-4.65,2.82-.14,4.61-.17,6.2-.17,1.28,0,2.43.02,3.88.02,3.27,0,5-.1,10.08.15Z"/>
  <line class="st2" x1="167.87" y1="13.11" x2="167.87" y2="53.8"/>
  <line class="st2" x1="155.44" y1="237.48" x2="155.43" y2="237.48"/>
  <path class="st2" d="M180.3,237.48c-.84,1.3-1.62,2.56-2.35,3.79-5.08-.25-6.81-.15-10.08-.15-1.45,0-2.6-.02-3.88-.02-1.59,0-3.38.03-6.2.17-.73-1.23-1.51-2.49-2.35-3.79,6.97-.41,8.7-.28,12.43-.28s5.46-.13,12.43.28Z"/>
  <path class="st0" d="M330.26,180.59c-2.92,5.32-10.42,8.34-10.42,8.34-34,5.55-73.39,4.18-93.74,10.96-20.35,6.78-31.23,15.52-31.23,15.52l-13.5,20.45s-5.14,8.57-6.5,11.45c-1.04,2.2-1.24,4.64-1.24,4.64,0,0,.14,1.5-1.33,2.36-1.46.86-1.72,1.5-4.43,1.5s-2.96-.64-4.43-1.5c-1.46-.86-1.33-2.36-1.33-2.36,0,0-.2-2.44-1.23-4.64-1.36-2.88-6.51-11.45-6.51-11.45l-13.5-20.45s-10.87-8.74-31.22-15.52c-20.35-6.78-59.74-5.41-93.74-10.96,0,0-7.51-3.02-10.43-8.34,0,0,45.18.5,89.71,2.55,17.43.58,72.68,1.36,72.68,1.36,0,0,55.26-.78,72.69-1.36,44.52-2.05,89.7-2.55,89.7-2.55Z"/>
  <path class="st0" d="M49.97,208.16c35.06,13.52,61.76,20.56,111.27,44.92.88,0,1.72-2.06,0-3.6s-8.22-7.55-38.84-19.5c-30.62-11.95-72.43-27.48-72.43-27.48,0,0,1.24.4,1.18,1.57s-1.18,4.09-1.18,4.09Z"/>
  <path class="st0" d="M285.77,208.16c-35.06,13.52-61.76,20.56-111.27,44.92-.88,0-1.72-2.06,0-3.6s8.22-7.55,38.84-19.5,72.43-27.48,72.43-27.48c0,0-1.24.4-1.18,1.57s1.18,4.09,1.18,4.09Z"/>
  <path class="st2" d="M162.11,250.63v2.45c-23.78,0-75.89-7.8-114.76-41.71,2.17-2.39,3.43-3.15,3.79-8.44,3.52,1.32,7.34,2.74,11.47,4.27,45.78,16.95,94.9,35.21,99.5,43.43Z"/>
  <path class="st2" d="M121.14,183.95c5.62,8.84,13.6,21.47,19.73,31.46,5.89,9.6,10.81,16.28,14.56,22.07h.01"/>
  <path class="st2" d="M330.26,180.59c-28.37,0-50.28.98-74.44,1.95-12.7.51-26.02,1.03-41.22,1.41-13.73.33-28.99.55-46.73.55-74.74,0-105.65-3.91-162.39-3.91C12.91,96.85,45.39,60.46,68.87,41.67c23.48-18.78,49.31-28.56,99-28.56s75.52,9.78,99,28.56c23.48,18.79,55.96,55.18,63.39,138.92Z"/>
  <path class="st2" d="M288.39,211.37c-38.87,33.91-90.98,41.71-114.76,41.71v-2.45c2.11-3.77,13.61-9.67,29.87-16.57,19.14-8.14,44.87-17.69,69.63-26.86,4.13-1.53,7.95-2.95,11.47-4.27.36,5.29,1.62,6.05,3.79,8.44Z"/>
</svg>