<?xml version="1.0" encoding="UTF-8"?>
<svg id="Livello_1" xmlns="http://www.w3.org/2000/svg" version="1.1" viewBox="0 0 313.04 302.09">
  <!-- Generator: Adobe Illustrator 29.8.1, SVG Export Plug-In . SVG Version: 2.1.1 Build 2)  -->
  <defs>
    <style>
      .st0 {
        fill: #19ff00;
      }

      .st1 {
        fill: #ffda00;
      }

      .st2, .st3 {
        fill: none;
      }

      .st4 {
        fill: #131211;
        opacity: .14;
      }

      .st5 {
        fill: #ff00ed;
      }

      .st3 {
        stroke: #131211;
        stroke-linecap: round;
        stroke-linejoin: round;
        stroke-width: 1.2px;
      }

      .st6 {
        fill: #00b7ff;
      }
    </style>
  </defs>
  <path class="st6" d="M291.65,183.19c0,4.61-1.8,10.51-36.8,34.82-35.01,24.32-46.98,21.35-81.13,38.95.19-.3,4.04-6.27,9.02-15.36h-52.43c4.98,9.1,8.83,15.06,9.02,15.36-34.15-17.6-46.12-14.63-81.13-38.95-35-24.31-36.8-30.21-36.8-34.82,0-13.13,16.23-12.02,41.44-11.08,11.75.44,26.97,2.11,41.91,4.09.06.01.13.02.19.02,18.86,2.52,37.96,5.53,51.58,5.53s32.73-3.01,51.58-5.53c.06,0,.13-.01.19-.02,14.95-1.98,30.16-3.65,41.91-4.09,25.21-.94,41.44-2.06,41.44,11.08Z"/>
  <line class="st2" x1="154.33" y1="284.15" x2="154.33" y2="284.14"/>
  <path class="st1" d="M295.42,183.19c0-4.62,0-9.08-6.01-21.8-6-12.72-4.89-23.19-21.09-62.04-12.02-31.3-31.03-43.32-55.89-60.65-24.88-17.33-43.88-24.04-55.9-24.04s-31.03,6.71-55.89,24.04c-24.88,17.32-43.88,29.34-55.9,60.65-16.21,38.85-15.08,49.32-21.09,62.04-6.01,12.72-6.01,17.18-6.01,21.8,0,3.89.9,10.28,22.28,26.83.01.01.02.02.03.03-3.9,4.27-6.66,7.8-6.66,7.8,0,0,9.2,16.57,29.22,33.15,17.09,14.17,42.07,28.34,75.94,32.16,5.1.57,10.4.91,15.91.99.72.01,1.46.01,2.19.01,86.44,0,123.25-66.3,123.25-66.3,0,0-2.87-3.73-6.58-7.86,21.34-16.52,22.23-22.91,22.23-26.79ZM254.85,218c-35.01,24.32-46.98,21.35-81.13,38.95h-.01c-5.84,5.51-17.18,13.07-17.18,13.07,0,0-11.35-7.56-17.18-13.06,0,0-.01,0-.01-.01-34.15-17.6-46.12-14.63-81.13-38.95-35-24.31-36.8-30.21-36.8-34.82,0-13.13,16.23-12.02,41.44-11.08,11.75.44,26.97,2.11,41.91,4.09.06.01.13.02.19.02,18.86,2.52,37.96,5.53,51.58,5.53s32.73-3.01,51.58-5.53c.06,0,.13-.01.19-.02,14.95-1.98,30.16-3.65,41.91-4.09,25.21-.94,41.44-2.06,41.44,11.08,0,4.61-1.8,10.51-36.8,34.82Z"/>
  <path class="st0" d="M182.74,241.6c-4.98,9.1-8.83,15.06-9.02,15.36h-.01c-5.84,5.51-17.18,13.07-17.18,13.07,0,0-11.35-7.56-17.18-13.06,0,0-.01,0-.01-.01-.19-.3-4.04-6.27-9.02-15.36h52.43Z"/>
  <path class="st3" d="M147.93,275.17c-32.89-16.97-60.01-31.29-94.04-54.95-5.43-3.77-10.05-7.16-13.98-10.2-21.38-16.54-22.28-22.94-22.28-26.83,0-4.62,0-9.08,6.01-21.8,6.01-12.72,4.89-23.19,21.09-62.04,12.02-31.3,31.03-43.32,55.9-60.65,24.87-17.33,43.87-24.04,55.89-24.04"/>
  <path class="st3" d="M154.33,284.15c0-2.24,6.99-6.78,7.98-7.55,30.42-23.5,61.84-32.07,96.85-56.38,5.43-3.77,10.05-7.16,13.98-10.2,21.38-16.54,22.27-22.94,22.27-26.83,0-4.62,0-9.08-6.01-21.8-6-12.72-4.89-23.19-21.09-62.04-12.02-31.3-31.03-43.32-55.89-60.65-24.88-17.33-43.88-24.04-55.9-24.04v162.94c-25.15,0-68.5-8.17-95.86-9.5-31.51-1.54-43.04,1.96-43.04,15.09"/>
  <path class="st3" d="M104.94,176.22c2.96,10.85,8.54,29.93,14.7,43.86,8.93,20.22,19.37,36.38,19.69,36.89"/>
  <path class="st3" d="M138.43,283.16c2.19-3.52,5.77-5.87,9.5-7.99,2.99-1.7,6.06-3.25,8.59-5.13,0,0-11.36-7.57-17.19-13.07"/>
  <path class="st3" d="M139.34,256.97s-.01,0-.01-.01c-34.15-17.6-46.12-14.63-81.13-38.95-35-24.31-36.8-30.21-36.8-34.82,0-13.13,16.24-12.02,41.44-11.08,11.75.44,26.96,2.11,41.91,4.09,18.92,2.52,38.11,5.55,51.78,5.55v52.17s-30.28,0-30.28,0"/>
  <line class="st3" x1="156.52" y1="241.6" x2="130.31" y2="241.6"/>
  <path class="st3" d="M295.42,183.19c0-13.14-11.53-16.63-43.04-15.09-27.36,1.33-70.71,9.5-95.86,9.5"/>
  <path class="st3" d="M173.72,256.96c.32-.5,10.76-16.67,19.69-36.89,6.16-13.93,11.74-33.01,14.7-43.86"/>
  <path class="st3" d="M156.52,181.75c13.67,0,32.86-3.04,51.78-5.55,14.95-1.98,30.15-3.65,41.91-4.09,25.21-.94,41.44-2.06,41.44,11.08,0,4.61-1.8,10.51-36.8,34.82-35.01,24.32-46.98,21.35-81.13,38.95,0,.01-.01.01-.01.01"/>
  <path class="st3" d="M173.72,256.96c-5.84,5.49-17.2,13.07-17.2,13.07"/>
  <path class="st3" d="M273.14,210.02c4.25,4.61,6.63,7.82,6.63,7.82,0,0-36.82,66.31-123.25,66.31h0c-86.43,0-123.25-66.31-123.25-66.31,0,0,2.38-3.21,6.63-7.82"/>
  <line class="st3" x1="186.8" y1="233.93" x2="156.52" y2="233.93"/>
  <line class="st3" x1="182.74" y1="241.6" x2="156.52" y2="241.6"/>
  <path class="st4" d="M-344.78,213.11c25.81,20.52,49.42,34.22,67.17,44.98,17.75,10.76,39.64,19.55,39.64,19.55l4.31-2.48-28.48-14.76s-45.41-26.32-54.04-32.14c-8.63-5.83-26.39-18.68-26.39-18.68,0,0,.07.94-.66,1.78s-1.54,1.75-1.54,1.75Z"/>
  <path class="st4" d="M-106,213.11c-25.81,20.52-49.42,34.22-67.17,44.98s-47.21,19.35-47.21,19.35l9.36-7.2,17.38-10.38c1.57-1.02,3.18-1.95,4.85-2.8,9.95-5.04,46.74-23.77,54.19-28.8,8.63-5.83,26.39-18.68,26.39-18.68,0,0-.07.94.66,1.78s1.54,1.75,1.54,1.75Z"/>
  <path class="st4" d="M110.96,177.16c-1.23-.17-2.47-.34-3.74-.54,1.61.19,3.71.41,3.71.41.01.04.02.09.03.13Z"/>
  <path class="st4" d="M205.83,176.62c-1.26.18-2.51.36-3.74.54l.03-.13s2.1-.21,3.71-.41Z"/>
  <path class="st4" d="M-103.13,172.13c-10.84-2.39-43.5.14-71.14,4.23-.06,0-.12.01-.18.02-.04.01-.08.01-.12.02-.23.03-.45.06-.67.1-.27.03-.52.08-.79.11-.02.01-.03.01-.04.01-1.26.18-2.51.36-3.74.54-25.26,3.49-45.57,4.6-45.57,4.6,0,0-20.31-1.1-45.56-4.6-1.23-.17-2.47-.34-3.74-.54-.14-.01-.28-.03-.42-.05-.55-.07-1-.14-1.22-.18-.05-.01-.12-.02-.17-.02-27.65-4.09-60.31-6.62-71.15-4.23-10.86,2.39-12.91,5.47-12.87,11.06s11.88,16.16,11.88,16.16c-1.07-12.25,59.58-10.57,78.01-1.35.14,0,.28.01.42.01,1.7,5.25,3.61,10.93,5.51,16.27,5.98,16.81,16.06,32.62,18.78,37.27,2.72,4.65,5.67,8.28,12.52,12.83,1.66,1.1,3.4,2.27,5.11,3.42-7.44,4.39-15.52,9.32-17.16,15.11,1.96.25,1.54.79,2.83-1,1.29-1.8,3.82-3.82,7.12-5.7,2.04-1.16,5.86-3.65,10.1-6.47.94-.64,1.92-1.29,2.89-1.94,1.71-1.15,3.45-2.31,5.11-3.42,6.86-4.55,9.8-8.19,12.52-12.83,2.72-4.65,12.8-20.46,18.78-37.27,1.9-5.35,3.8-11.02,5.51-16.27.14,0,.28-.01.42-.01,18.44-9.22,79.09-10.9,78.01,1.35,0,0,11.84-10.57,11.88-16.16.04-5.58-2-8.67-12.87-11.06ZM-198.23,232.16c-5.66,11.53-12.38,21.6-18.56,27.89-1.9,1.92-5.05,3.92-8.6,6.04-3.56-2.12-6.71-4.12-8.59-6.04-6.18-6.29-12.9-16.36-18.57-27.89-3.5-7.15-8.46-21.05-12.51-34.04,15.46.39,39.67,1.22,39.67,1.22,0,0,24.22-.84,39.68-1.22-4.06,12.98-9.02,26.89-12.52,34.04Z"/>
  <g>
    <path class="st5" d="M86.18,216.52c-.59-.34-1.17-.67-1.73-1-.12-.07-.28-.02-.34.09-.03.04-.04.09-.04.13,0,.09.05.17.13.21t0,0c.51.3,1.06.61,1.72.99.04.02.08.03.13.03.09,0,.17-.05.21-.12.04-.06.04-.13.03-.19-.02-.07-.06-.12-.12-.15Z"/>
    <path class="st5" d="M87.05,217c-.11-.06-.28-.02-.34.1-.02.04-.03.08-.03.12,0,.09.04.17.12.21t0,.01c.56.32,1.13.63,1.75.97.03.02.08.03.12.03.09,0,.17-.05.22-.14.06-.12.02-.27-.1-.33-.62-.34-1.19-.65-1.75-.97Z"/>
    <path class="st5" d="M92.33,219.82c-.12-.06-.28-.01-.34.11-.02.04-.03.08-.02.12,0,.09.05.17.12.21h0c.73.38,1.28.65,1.79.91.03,0,.07.02.11.02.1,0,.18-.05.22-.14.03-.06.04-.13.02-.19-.02-.06-.07-.11-.13-.14-.64-.32-1.29-.65-1.78-.9Z"/>
    <path class="st5" d="M89.67,218.44c-.11-.06-.27-.02-.33.1-.02.04-.03.08-.03.12,0,.09.05.18.13.22h.01c.62.34,1.2.64,1.76.93.04.02.08.03.11.03.1,0,.18-.05.23-.14.03-.06.03-.12,0-.19-.02-.06-.06-.11-.12-.14-.63-.33-1.19-.62-1.77-.93Z"/>
    <path class="st5" d="M97.71,222.45c-.12-.06-.28,0-.33.12-.02.03-.03.07-.03.1,0,.1.06.19.15.23.53.25,1.11.52,1.82.83.03.02.06.03.1.03.1,0,.18-.06.23-.15.05-.12,0-.27-.13-.33-.66-.3-1.25-.57-1.81-.83Z"/>
    <path class="st5" d="M95.03,221.17s-.01,0-.01,0h0s-.01,0-.02,0c-.11-.05-.26,0-.32.12,0,.04-.02.07-.02.11,0,.09.05.18.13.22h0c.55.28,1.14.56,1.8.87.03.02.07.03.11.03.09,0,.18-.06.22-.15.03-.06.04-.12.02-.19-.03-.06-.07-.11-.13-.14-.66-.31-1.24-.59-1.78-.85Z"/>
    <path class="st5" d="M76.09,210.41c-.02-.07-.06-.12-.11-.16-.58-.38-1.16-.78-1.66-1.11-.11-.07-.27-.04-.35.07-.03.04-.04.09-.04.14,0,.08.04.16.11.2.6.41,1.18.79,1.66,1.12.04.02.09.04.14.04.08,0,.16-.04.21-.12.04-.05.05-.12.04-.18Z"/>
    <path class="st5" d="M100.43,223.69c-.12-.05-.27,0-.33.13,0,.03-.02.06-.02.09,0,.1.05.19.14.23,0,0,0,.01,0,.01.61.27,1.23.55,1.82.81.04,0,.07.02.1.02.1,0,.19-.06.23-.15.03-.06.03-.13,0-.19-.03-.07-.07-.12-.13-.14-.58-.25-1.2-.53-1.83-.81Z"/>
    <path class="st5" d="M73.56,208.93c.08-.12.05-.27-.07-.35-.62-.43-1.14-.78-1.62-1.12,0,0-.02,0-.02-.02h0c-.11-.07-.27-.04-.34.07-.03.04-.04.09-.05.14,0,.08.04.16.11.21.52.36,1.06.73,1.65,1.13.04.03.09.05.14.05.08,0,.16-.04.21-.11Z"/>
    <path class="st5" d="M78.6,212.04c0-.07-.05-.12-.11-.16-.57-.36-1.13-.73-1.68-1.08-.11-.08-.27-.04-.34.07-.03.04-.05.09-.05.14.01.08.05.16.12.21.59.38,1.14.74,1.68,1.08.04.03.09.04.13.04.09,0,.17-.04.22-.12.03-.05.04-.12.03-.18Z"/>
    <path class="st5" d="M83.59,215.02c-.63-.37-1.19-.71-1.71-1.03-.12-.07-.28-.03-.35.08-.02.04-.03.09-.03.13,0,.09.04.17.11.21,0,0,0,0,0,0,.65.39,1.2.72,1.71,1.03.04.02.09.03.13.03.09,0,.17-.05.22-.12.03-.06.04-.13.02-.19-.01-.07-.05-.12-.11-.15Z"/>
    <path class="st5" d="M81.02,213.47c-.54-.34-1.11-.69-1.69-1.06-.11-.07-.27-.03-.34.08-.03.04-.04.09-.04.13,0,.09.04.17.12.22.6.38,1.19.75,1.69,1.06.04.02.09.03.13.03.09,0,.17-.04.22-.12.07-.11.03-.27-.09-.34Z"/>
    <path class="st5" d="M124.87,234.49s-.02.08-.02.11c0,.1.05.19.14.23h0c.59.27,1.19.55,1.8.84.04.02.07.02.11.02.1,0,.18-.05.23-.14.05-.13,0-.27-.13-.33-.69-.33-1.26-.6-1.81-.85-.12-.05-.27,0-.33.12Z"/>
    <path class="st5" d="M118.71,232c.1,0,.19-.06.23-.16.06-.12,0-.27-.13-.32-.62-.27-1.23-.53-1.84-.79-.12-.06-.27,0-.32.13-.02.03-.02.06-.02.1-.01.1.05.19.15.23.61.26,1.23.52,1.83.78.03.02.07.03.1.03Z"/>
    <path class="st5" d="M34.73,177.21c-.09-.1-.26-.1-.35,0-.06.05-.09.12-.08.19,0,.06.02.12.07.16.42.46.89.94,1.39,1.44.05.05.11.08.18.08s.13-.03.18-.08c.09-.09.09-.25,0-.35-.47-.47-.94-.95-1.39-1.43Z"/>
    <path class="st5" d="M71.09,207.22s.05-.12.04-.18c-.01-.07-.05-.13-.1-.16-.61-.43-1.14-.81-1.63-1.16-.11-.08-.28-.05-.35.06-.03.04-.05.1-.05.15.01.08.05.15.11.2h0c.45.33,1.04.75,1.62,1.15.04.03.09.05.14.05.09,0,.16-.04.21-.11Z"/>
    <path class="st5" d="M34.05,176.48c-.5-.54-.93-1.03-1.31-1.49-.09-.1-.25-.12-.36-.03-.05.05-.09.12-.09.19.01.06.02.11.06.16.4.47.85.98,1.33,1.51.05.05.12.08.19.08.06,0,.12-.02.17-.07.1-.09.1-.25.01-.35Z"/>
    <path class="st5" d="M31.91,174.63c.06,0,.11-.02.15-.05.11-.09.13-.25.04-.36-.44-.55-.84-1.08-1.19-1.58-.08-.11-.24-.13-.35-.06-.05.04-.09.1-.1.17,0,.06,0,.13.04.18.38.53.78,1.07,1.21,1.61.05.06.12.09.2.09Z"/>
    <path class="st5" d="M113.1,229.63s.06.02.09.02c.1,0,.19-.06.23-.15.06-.13,0-.28-.13-.33-.62-.26-1.23-.52-1.84-.77-.13-.05-.28,0-.33.13,0,.03-.02.07-.02.1,0,.1.06.19.16.23.41.17.82.35,1.24.52l.6.25Z"/>
    <path class="st5" d="M106.21,226.74c.45.2.9.39,1.36.58.03,0,.06.02.09.02.1,0,.19-.06.23-.16.03-.06.03-.13.01-.19-.03-.06-.08-.11-.14-.13-.39-.17-.79-.34-1.18-.5l-.66-.28c-.12-.05-.27,0-.32.13-.02.03-.02.07-.02.1,0,.1.05.19.15.23l.48.2Z"/>
    <path class="st5" d="M119.53,232.37s0,0,0,0c.6.26,1.2.53,1.81.8.04.01.07.02.11.02.09,0,.18-.06.23-.15.05-.13,0-.27-.13-.33-.46-.2-.92-.4-1.37-.6l-.46-.21c-.13-.05-.28,0-.33.13-.02.03-.02.07-.02.1,0,.1.05.19.15.23Z"/>
    <path class="st5" d="M102.97,225.36c.56.24,1.14.49,1.84.79.03,0,.07.02.1.02.1,0,.19-.06.23-.15.02-.06.03-.13,0-.19-.03-.07-.07-.11-.13-.14-.61-.26-1.23-.52-1.84-.79-.12-.05-.27,0-.33.13-.01.03-.02.06-.02.1,0,.1.06.19.15.23Z"/>
    <path class="st5" d="M122.12,233.35c0,.1.05.19.15.23.6.27,1.2.55,1.81.83.04,0,.07.02.11.02.1,0,.18-.06.23-.15.05-.12,0-.27-.13-.33-.65-.29-1.24-.56-1.8-.81t-.02,0c-.13-.06-.28,0-.33.12,0,.04-.02.07-.02.1Z"/>
    <path class="st5" d="M115.95,230.81c.11,0,.2-.06.24-.15.02-.06.02-.13,0-.19-.03-.06-.07-.11-.14-.14-.62-.26-1.23-.52-1.84-.77-.12-.06-.27.01-.33.13-.01.03-.02.06-.02.1,0,.1.07.19.16.23.61.25,1.22.51,1.84.77.03.02.06.02.09.02Z"/>
    <path class="st5" d="M110.43,228.49c.1,0,.19-.06.23-.15.03-.06.03-.13,0-.19-.03-.06-.07-.11-.14-.14-.26-.11-.53-.22-.8-.33-.35-.15-.69-.29-1.04-.44-.12-.05-.27,0-.32.14-.02.03-.02.06-.02.09,0,.1.06.19.15.23,0,0,0,0,0,0,.61.25,1.22.51,1.83.76.03.02.07.02.1.02Z"/>
    <path class="st5" d="M56.62,196.12c-.53-.42-1.06-.83-1.57-1.23-.11-.09-.27-.07-.35.04-.04.04-.06.09-.06.15,0,.08.04.15.1.2.54.42,1.07.84,1.58,1.23.04.04.09.05.15.05.08,0,.15-.03.2-.09.08-.11.06-.27-.05-.35Z"/>
    <path class="st5" d="M40.12,183.13s.11.06.17.06c.07,0,.14-.03.19-.08.09-.1.08-.26-.02-.35-.45-.41-.92-.84-1.47-1.35-.1-.09-.26-.09-.36,0-.04.05-.06.1-.06.17s.03.14.08.18c.45.43.93.87,1.47,1.36Z"/>
    <path class="st5" d="M43.1,185.42c-.04.05-.06.11-.06.17,0,.07.03.14.08.19.5.42,1,.86,1.52,1.3.05.04.11.06.17.06.07,0,.14-.03.19-.09.09-.11.07-.26-.03-.35-.54-.46-1.04-.89-1.52-1.3-.1-.09-.26-.08-.35.02Z"/>
    <path class="st5" d="M63.81,201.93s.06-.12.05-.18c-.01-.07-.04-.12-.09-.16,0,0,0,0,0,0-.22-.17-.44-.33-.65-.49-.32-.24-.63-.48-.94-.71-.1-.08-.27-.06-.35.04-.03.05-.05.1-.05.15,0,.08.03.15.09.2,0,0,0,0,0,.01l.52.39c.35.27.71.53,1.06.8h.02s.09.06.14.06c.08,0,.16-.04.2-.1Z"/>
    <path class="st5" d="M49.42,190.97c.08,0,.15-.04.2-.09.04-.06.06-.12.05-.19,0-.06-.04-.12-.09-.17-.48-.38-.98-.8-1.55-1.26-.1-.08-.26-.07-.35.03-.03.05-.06.1-.06.16,0,.08.04.15.1.2.44.36.93.76,1.55,1.26.04.04.09.06.15.06Z"/>
    <path class="st5" d="M40.85,183.44s-.07.11-.07.17c0,.07.04.14.09.19h.01c.49.45,1.01.9,1.49,1.32.05.04.1.06.16.06.08,0,.14-.03.19-.08.09-.11.08-.26-.02-.36-.46-.4-.94-.82-1.5-1.32-.1-.09-.26-.08-.35.02Z"/>
    <path class="st5" d="M61.42,200.12c.09-.11.06-.26-.04-.35-.54-.41-1.07-.81-1.59-1.21-.11-.08-.27-.06-.35.05-.04.04-.05.09-.06.14,0,.08.04.15.1.2h0s.59.45.59.45c.33.26.66.51,1,.77.05.03.1.05.15.05.08,0,.16-.04.2-.1Z"/>
    <path class="st5" d="M54.36,194.43c-.01-.06-.05-.12-.1-.16-.58-.46-1.1-.87-1.57-1.24-.1-.09-.27-.07-.34.04-.04.04-.06.1-.06.16,0,.07.04.14.09.19.54.43,1.1.87,1.57,1.24.05.04.1.06.16.06.07,0,.15-.04.19-.1.04-.05.06-.12.06-.19Z"/>
    <path class="st5" d="M36.82,179.34c-.09-.09-.26-.09-.35,0-.05.05-.07.12-.07.18,0,.07.03.13.07.18.42.4.89.86,1.45,1.39.04.04.1.07.17.07s.13-.03.18-.08c.09-.1.09-.26,0-.35-.51-.49-.98-.94-1.44-1.39Z"/>
    <path class="st5" d="M50.65,191.39l-.29-.24c-.11-.08-.27-.06-.35.04-.04.05-.06.1-.06.16,0,.08.03.14.09.19.49.39,1,.8,1.56,1.26.05.03.1.05.16.05.07,0,.14-.03.19-.09.09-.11.07-.27-.04-.35-.42-.35-.84-.68-1.26-1.02Z"/>
    <path class="st5" d="M59.04,198.3c.08-.11.06-.26-.05-.35l-.13-.1c-.5-.39-.97-.75-1.45-1.12-.1-.08-.27-.06-.35.04-.03.05-.05.1-.05.15,0,.08.03.16.1.21.51.4,1.04.8,1.58,1.22.04.03.09.05.15.05.08,0,.15-.04.2-.1Z"/>
    <path class="st5" d="M45.38,187.37s-.06.1-.06.16c0,.08.03.15.09.19.5.43,1.02.86,1.53,1.29.05.04.11.06.16.06.08,0,.15-.04.2-.1.04-.05.06-.11.05-.18,0-.07-.04-.12-.09-.17-.49-.41-1.01-.84-1.53-1.28-.1-.08-.27-.07-.35.03Z"/>
    <path class="st5" d="M68.64,205.49c.04-.06.06-.12.05-.19,0-.06-.05-.12-.1-.16-.48-.34-1-.72-1.6-1.16t-.02,0s0,0-.01,0c-.1-.07-.26-.05-.34.06-.03.04-.05.1-.05.15,0,.08.04.15.11.2.48.35,1.05.77,1.61,1.18.05.03.1.04.15.04.08,0,.16-.03.2-.1Z"/>
    <path class="st5" d="M66.22,203.72c.08-.11.06-.26-.05-.34-.52-.38-1.06-.79-1.61-1.2-.1-.08-.27-.05-.35.05-.03.05-.05.1-.05.15,0,.08.04.16.1.2.62.46,1.13.84,1.61,1.2.04.03.09.05.15.05.08,0,.15-.04.2-.11Z"/>
    <path class="st5" d="M122.9,158.36c.67.08,1.33.16,1.99.24h.03c.12,0,.23-.1.25-.22v-.03c0-.13-.09-.24-.22-.25-.54-.06-1.08-.13-1.62-.19l-.37-.05c-.14,0-.26.08-.28.22-.01.07,0,.13.05.18.04.06.1.09.17.1Z"/>
    <path class="st5" d="M115.95,157.51h.03c.12,0,.23-.09.25-.22v-.02c0-.13-.09-.24-.22-.26-.66-.08-1.32-.16-1.99-.24-.14-.01-.26.08-.28.22,0,.06,0,.13.05.18.05.05.1.09.17.09l1.99.25Z"/>
    <path class="st5" d="M29.51,154.55c-.67.3-1.27.61-1.81.93-.06.03-.1.09-.11.15-.02.07-.01.14.03.2.04.07.12.12.21.12.05,0,.09-.02.13-.04.53-.32,1.12-.62,1.75-.9.09-.04.15-.13.15-.23,0-.04-.01-.07-.02-.1-.06-.12-.21-.18-.33-.13Z"/>
    <path class="st5" d="M42.25,152.26h.03c.66-.06,1.33-.11,1.98-.16.14,0,.24-.12.24-.25h0c0-.15-.13-.27-.27-.25-.72.05-1.38.11-2,.16-.07.01-.13.04-.17.09-.04.05-.06.12-.06.18.02.13.12.23.25.23Z"/>
    <path class="st5" d="M113,157.14c.13,0,.23-.09.25-.22h0v-.02c0-.13-.09-.24-.22-.25l-1.98-.25c-.15-.02-.27.08-.29.22-.01.13.09.26.22.28.67.08,1.33.16,1.99.24h.03Z"/>
    <path class="st5" d="M125.88,158.72c.67.07,1.33.15,1.99.23h.03c.12,0,.23-.1.25-.22v-.03c0-.13-.1-.23-.22-.25-.66-.08-1.32-.15-1.99-.23-.14-.02-.26.08-.28.22,0,.13.08.26.22.28Z"/>
    <path class="st5" d="M26.85,156.04c-.58.41-1.11.86-1.55,1.33-.05.05-.07.11-.07.18.01.07.03.13.08.17.05.05.11.07.17.07.07,0,.14-.03.19-.08.41-.44.91-.87,1.47-1.26.07-.05.11-.13.1-.21,0-.06-.01-.1-.04-.14-.08-.11-.24-.14-.35-.06Z"/>
    <path class="st5" d="M142.8,160.51s.02.01.02.01c.13,0,.24-.1.25-.23v-.03c0-.13-.1-.23-.23-.24-.65-.06-1.31-.12-1.99-.18-.14,0-.26.08-.27.22,0,.07.01.13.06.18.04.06.1.09.17.09.67.07,1.33.13,1.99.18Z"/>
    <path class="st5" d="M145.79,160.76h.02c.13,0,.25-.1.25-.23h0c0-.14-.1-.26-.24-.27-.59-.04-1.22-.09-1.99-.16-.14,0-.26.09-.27.23,0,.07.01.13.06.18.04.05.1.09.17.09.55.05,1.28.11,1.99.16Z"/>
    <path class="st5" d="M36.31,153.07s.03,0,.05,0c.64-.12,1.3-.23,1.96-.33.12-.02.21-.12.21-.25v-.03c-.02-.14-.15-.24-.29-.21-.7.1-1.35.21-1.98.33-.06.01-.12.05-.16.1-.03.06-.05.13-.04.19.03.12.13.21.25.21Z"/>
    <path class="st5" d="M148.8,160.97h0c.13,0,.24-.1.25-.23h0c0-.15-.1-.26-.24-.27-.67-.04-1.35-.08-1.99-.13-.13,0-.26.09-.26.23,0,.06.01.13.05.18.04.05.11.08.17.09.74.05,1.4.09,2.01.13Z"/>
    <path class="st5" d="M30.62,154.63c.58-.22,1.21-.44,1.87-.64.11-.03.18-.13.18-.24,0-.02,0-.05,0-.07-.04-.13-.18-.21-.31-.17-.67.2-1.31.42-1.91.65-.06.03-.11.07-.14.14-.02.06-.03.12,0,.19.03.09.13.16.23.16.03,0,.06,0,.09-.02Z"/>
    <path class="st5" d="M138.09,160.07c.58.06,1.15.11,1.72.17h.02c.13,0,.24-.1.25-.23v-.02c0-.13-.09-.24-.22-.25-.53-.05-1.07-.1-1.61-.16l-.38-.04c-.14-.01-.26.09-.28.23,0,.06.02.13.06.18.04.05.1.09.17.09l.27.03Z"/>
    <path class="st5" d="M133.87,159.62c.12,0,.23-.09.24-.22v-.02c0-.13-.09-.24-.22-.25-.66-.08-1.32-.15-1.99-.22-.14-.02-.26.08-.27.22-.01.06,0,.13.05.18.04.05.1.08.17.09.66.08,1.33.15,1.99.22h.03Z"/>
    <path class="st5" d="M39.27,152.59h.03c.63-.08,1.3-.16,1.98-.23.13,0,.23-.12.23-.25v-.03c-.02-.13-.13-.23-.28-.22-.69.07-1.36.15-1.99.24-.14,0-.23.14-.21.28,0,.12.12.21.24.21Z"/>
    <path class="st5" d="M33.38,153.73s.05,0,.07,0c.64-.17,1.29-.33,1.93-.46.12-.03.2-.13.2-.25,0-.02,0-.03,0-.05-.03-.13-.16-.22-.29-.19-.7.15-1.35.3-1.96.46-.07.02-.12.06-.15.12-.04.06-.05.13-.03.19.03.11.13.19.24.19Z"/>
    <path class="st5" d="M136.82,159.94h.03c.13,0,.23-.1.25-.23v-.02c0-.13-.1-.24-.23-.25-.58-.06-1.16-.12-1.75-.18l-.24-.03c-.14,0-.26.09-.27.22-.02.14.08.26.22.28.67.07,1.34.14,1.99.21Z"/>
    <path class="st5" d="M130.84,159.29h.04c.13,0,.23-.09.25-.22v-.03c0-.12-.1-.23-.22-.25-.66-.07-1.32-.15-1.99-.23-.15,0-.26.09-.28.23,0,.13.09.26.22.27.44.05.88.1,1.32.15l.66.08Z"/>
    <path class="st5" d="M72.21,152.71h.13c.61.06,1.24.11,1.86.16t.02,0c.13,0,.24-.11.25-.24v-.02c0-.13-.1-.23-.22-.24h0s-.18-.02-.18-.02c-.61-.05-1.21-.1-1.81-.14-.15-.02-.26.09-.27.23,0,.06.01.13.06.18.04.05.1.08.17.08Z"/>
    <path class="st5" d="M57.24,151.9c.72.02,1.44.04,2,.06.14,0,.25-.1.25-.24h0c0-.14-.1-.25-.24-.26-.59-.02-1.29-.04-2-.06h0c-.13,0-.24.11-.25.25,0,.13.11.25.25.25Z"/>
    <path class="st5" d="M96.1,155.1l.13.02c.62.07,1.24.14,1.86.22h.03c.12,0,.23-.1.25-.22v-.03c0-.13-.09-.24-.22-.25l-1.99-.23c-.15-.02-.27.08-.28.22-.02.13.08.26.22.27Z"/>
    <path class="st5" d="M81.17,153.5c.66.07,1.33.13,1.99.2h.03c.13,0,.23-.1.25-.23v-.02c0-.13-.1-.24-.23-.25-.65-.07-1.29-.13-1.94-.19h-.05c-.14-.02-.26.08-.27.22-.01.06,0,.13.05.18.05.05.11.08.17.09Z"/>
    <path class="st5" d="M86.42,153.75c0-.12-.09-.23-.22-.24-.66-.07-1.33-.14-1.99-.21-.13,0-.26.09-.28.22-.01.14.09.26.23.28.65.06,1.32.13,1.99.2h.02c.13,0,.24-.09.25-.22v-.03Z"/>
    <path class="st5" d="M60.23,152c.58.02,1.22.05,2,.08h.01c.14,0,.25-.1.25-.24h0c0-.14-.1-.25-.23-.26-.58-.02-1.16-.05-1.73-.07h-.29c-.13,0-.24.1-.25.23,0,.06.02.13.07.18s.11.08.17.08Z"/>
    <path class="st5" d="M90.13,154.43c.43.05.86.09,1.29.14l.69.08h.03c.13,0,.24-.09.25-.22v-.03c0-.12-.09-.23-.22-.25l-.65-.07c-.45-.05-.89-.1-1.34-.15-.15-.01-.26.09-.28.22-.01.14.09.26.23.28Z"/>
    <path class="st5" d="M87.14,154.11c.66.07,1.33.14,1.99.21h.03c.12,0,.23-.09.25-.22v-.03c0-.13-.1-.23-.22-.25-.67-.07-1.34-.14-2-.21-.13,0-.26.09-.27.22,0,.14.08.26.22.28Z"/>
    <path class="st5" d="M66.22,152.3c.68.04,1.35.08,2,.13h.02c.13,0,.24-.11.25-.24h0c0-.14-.11-.26-.24-.26-.62-.05-1.27-.09-1.99-.13-.14,0-.26.1-.27.23-.01.14.09.26.23.27Z"/>
    <path class="st5" d="M69.22,152.49c.64.05,1.31.1,1.99.15h.02c.13,0,.24-.1.25-.23h0c0-.15-.1-.26-.23-.27-.64-.05-1.32-.1-2-.15-.14,0-.26.1-.27.24,0,.13.1.25.24.26Z"/>
    <path class="st5" d="M78.19,153.22l.54.05c.48.04.96.09,1.45.13,0,.01,0,.01.02.01.13,0,.24-.1.25-.23v-.03c0-.12-.1-.23-.23-.24-.57-.06-1.14-.11-1.71-.16l-.28-.03c-.14-.01-.26.09-.27.23,0,.06.01.13.06.18.04.05.1.08.17.09Z"/>
    <path class="st5" d="M75.2,152.96c.54.04,1.09.09,1.64.14l.35.03h.02c.13,0,.24-.1.25-.23v-.02c0-.13-.1-.24-.23-.25l-.28-.02c-.57-.05-1.14-.1-1.71-.15-.15,0-.26.09-.27.23-.01.13.09.25.23.27Z"/>
    <path class="st5" d="M63.23,152.13c.63.03,1.3.07,1.99.11h.02c.13,0,.24-.1.25-.24h0c0-.14-.1-.25-.23-.26-.61-.03-1.27-.07-2.01-.11h0c-.13,0-.24.11-.25.24-.01.14.1.25.24.26Z"/>
    <path class="st5" d="M45.25,152.04h.01c.61-.03,1.26-.06,1.99-.09.14-.01.24-.12.24-.25h0c0-.15-.11-.25-.24-.25h-.02c-.69.02-1.36.06-2,.09-.07,0-.13.04-.17.09-.05.05-.07.11-.06.18,0,.13.11.23.25.23Z"/>
    <path class="st5" d="M116.94,157.63h.08c.64.09,1.27.17,1.91.24,0,0,.02,0,.03,0,.12,0,.23-.1.25-.22v-.03c0-.13-.09-.24-.22-.25-.37-.05-.73-.09-1.1-.14-.29-.03-.59-.07-.89-.1-.13-.03-.26.08-.28.21-.01.14.08.26.22.28Z"/>
    <path class="st5" d="M54.24,151.85c.74,0,1.4.02,2,.03.14,0,.25-.11.25-.24,0-.14-.1-.26-.24-.26-.73,0-1.46-.02-2.01-.03-.14,0-.24.11-.25.25,0,.14.11.25.25.25Z"/>
    <path class="st5" d="M151.31,161.11c.04.08.11.14.2.14s.15-.05.2-.12c.02,0,.04,0,.06,0,0,0,0,.01.03.01h0s0,0,0,0c.13,0,.24-.11.25-.24v-.02c0-.13-.11-.24-.24-.24-.02,0-.03,0-.05,0v-1.64c0-.14-.12-.25-.26-.25-.13,0-.24.11-.24.25v1.61c-.51-.03-1-.05-1.45-.08-.16,0-.25.1-.26.24,0,.06.02.13.06.18.04.05.11.08.17.08.57.04,1.05.06,1.52.08Z"/>
    <path class="st5" d="M108,156.53c.67.08,1.33.16,1.99.25h.03c.13,0,.23-.1.25-.22v-.03c0-.13-.09-.24-.22-.25-.66-.08-1.32-.17-1.98-.24-.15-.03-.27.08-.28.21,0,.07.01.13.05.18.04.06.1.09.16.1Z"/>
    <path class="st5" d="M119.92,158c.39.04.78.09,1.17.14.27.03.55.07.82.1h.03c.12,0,.23-.09.24-.22,0-.01,0-.02,0-.03,0-.12-.09-.23-.21-.25h0l-.6-.07c-.46-.06-.93-.11-1.39-.17-.14-.02-.26.09-.28.22-.01.06,0,.13.05.18.05.06.1.09.17.1Z"/>
    <path class="st5" d="M48.24,151.91h0c.61-.02,1.26-.03,2-.05.14,0,.25-.11.24-.25,0-.14-.11-.25-.25-.25-.72.02-1.38.03-2,.05-.14,0-.25.12-.25.26,0,.13.12.24.25.24Z"/>
    <path class="st5" d="M99.08,155.45c.66.08,1.33.16,1.98.24h.04c.12,0,.23-.09.25-.22v-.02c0-.13-.09-.24-.21-.26h0c-.67-.08-1.33-.15-1.99-.23-.14-.02-.26.08-.28.22-.01.13.08.26.22.27Z"/>
    <path class="st5" d="M105.03,156.17c.32.04.63.07.95.11.34.04.69.09,1.03.13h.03c.13,0,.24-.09.25-.22v-.02c.01-.13-.09-.24-.22-.26-.31-.04-.61-.07-.92-.11-.35-.04-.71-.09-1.06-.13-.14-.02-.26.08-.28.22,0,.13.08.26.22.28Z"/>
    <path class="st5" d="M95.13,154.99c.13,0,.23-.1.25-.22v-.03c0-.12-.09-.23-.22-.25-.52-.06-1.05-.12-1.57-.18l-.42-.05c-.14,0-.26.09-.28.23,0,.13.08.26.22.27.4.05.79.09,1.19.14l.8.09h.03Z"/>
    <path class="st5" d="M51.25,151.85c.59-.01,1.26-.01,1.99,0h0c.13-.01.24-.12.24-.25,0-.07-.02-.13-.07-.18-.04-.05-.11-.07-.18-.07-.68-.01-1.37-.01-2,0-.14,0-.25.12-.25.25,0,.14.12.25.26.25Z"/>
    <path class="st5" d="M102.06,155.81c.66.08,1.32.16,1.98.24h.03c.13,0,.23-.1.25-.22v-.03c0-.13-.09-.23-.22-.25-.66-.08-1.32-.16-1.98-.24-.14-.01-.26.08-.28.22-.01.06,0,.13.05.18.04.06.1.09.17.1Z"/>
    <path class="st5" d="M275.3,152.82c.68.11,1.34.23,1.95.35.02,0,.04.01.05.01.12,0,.22-.09.25-.2v-.05c0-.12-.08-.22-.2-.25-.61-.12-1.26-.24-1.98-.35-.14-.03-.26.07-.28.2-.02.14.07.27.21.29Z"/>
    <path class="st5" d="M248.38,152.21h0c.62-.04,1.24-.07,1.85-.1h.12s.01,0,.02,0h.02c.13-.01.23-.12.23-.25h0c0-.14-.12-.25-.25-.25h-.02c-.54.03-1.27.07-1.99.11-.14,0-.25.12-.24.26,0,.13.12.24.25.24Z"/>
    <path class="st5" d="M230.43,153.64h.02l.56-.06c.48-.04.96-.09,1.44-.13.12-.02.22-.12.22-.25h0v-.03c-.01-.13-.12-.22-.25-.22h-.03c-.66.06-1.32.13-1.98.19-.07,0-.13.04-.17.09-.05.05-.06.12-.06.19,0,.12.12.22.25.22Z"/>
    <path class="st5" d="M233.42,153.35h.02c.53-.05,1.05-.1,1.58-.14l.38-.04h.04c.13-.02.22-.12.22-.25h0v-.02c0-.14-.12-.25-.27-.23-.68.06-1.36.12-1.99.18-.07,0-.13.04-.17.09-.05.05-.07.12-.06.19,0,.13.12.22.25.22Z"/>
    <path class="st5" d="M239.4,152.83h.02c.63-.06,1.31-.11,1.99-.16.13,0,.23-.12.23-.24v-.02h0c0-.14-.12-.24-.25-.24h-.03c-.66.05-1.32.11-1.98.16-.07,0-.13.03-.17.08-.05.06-.07.12-.06.19,0,.13.12.23.25.23Z"/>
    <path class="st5" d="M245.38,152.39h.02c.65-.05,1.31-.08,1.95-.12h.05c.13-.02.23-.13.23-.26h0c0-.14-.12-.25-.25-.25h0c-.67.04-1.33.09-2,.13-.07,0-.13.03-.17.08-.05.05-.07.12-.07.18,0,.14.12.24.25.24Z"/>
    <path class="st5" d="M242.39,152.6s0,0,.02-.01c.61-.04,1.31-.09,1.99-.14.14-.01.24-.12.24-.25h0c-.02-.14-.13-.25-.25-.25h-.03c-.66.05-1.32.1-1.99.15-.07,0-.13.03-.17.08-.04.05-.06.12-.06.18,0,.13.12.24.25.24Z"/>
    <path class="st5" d="M236.41,153.08h.02c.66-.06,1.33-.12,1.99-.17.13-.01.23-.12.23-.24v-.02h0c0-.14-.12-.24-.25-.24h-.03c-.65.06-1.32.11-1.97.17h0c-.07,0-.13.04-.18.09-.04.05-.06.12-.05.18.01.13.12.23.25.23Z"/>
    <path class="st5" d="M182.76,159.23c.66-.08,1.32-.15,1.99-.23.13-.02.23-.13.22-.25v-.03c0-.13-.14-.24-.28-.22l-.36.04c-.55.07-1.09.13-1.62.19-.14,0-.24.14-.22.28.01.12.12.22.25.22h.02Z"/>
    <path class="st5" d="M185.75,158.88c.6-.07,1.21-.14,1.82-.21l.16-.02c.13-.02.23-.13.22-.26v-.02c0-.13-.12-.22-.25-.22,0,0,0,0-.03,0-.49.06-.98.12-1.47.17l-.51.07c-.07,0-.13.04-.17.09s-.06.12-.05.18c0,.13.12.22.25.22h.03Z"/>
    <path class="st5" d="M224.47,154.26h.03c.35-.04.71-.08,1.07-.12.3-.03.6-.06.9-.09h.02c.12-.02.21-.13.21-.25v-.03c0-.13-.12-.22-.25-.22h-.02c-.66.07-1.32.14-1.99.21-.06.01-.12.04-.16.09-.05.05-.07.12-.06.19,0,.12.12.22.25.22Z"/>
    <path class="st5" d="M221.49,154.59s.02,0,.03,0c.44-.05.88-.09,1.33-.14.22-.03.43-.05.65-.07.13-.02.23-.13.23-.25v-.03c-.02-.13-.12-.24-.28-.22l-1.99.22c-.06,0-.12.04-.17.09-.04.05-.05.12-.05.18.02.13.12.23.25.23Z"/>
    <path class="st5" d="M227.44,153.94h.03c.66-.07,1.33-.13,1.99-.2.13,0,.23-.12.23-.25,0,0,0-.02,0-.02,0-.14-.11-.25-.27-.23-.66.07-1.33.14-1.99.2-.07.01-.13.04-.17.1-.04.05-.06.11-.05.18.01.12.12.22.24.22Z"/>
    <path class="st5" d="M251.38,152.06h0c.77-.04,1.41-.06,2-.08.13,0,.24-.12.24-.25h0c0-.15-.12-.25-.25-.25h-.02c-.73.03-1.35.05-1.99.08-.14,0-.25.12-.24.26,0,.13.11.24.25.24Z"/>
    <path class="st5" d="M278.23,153.38c.67.15,1.31.32,1.92.49.02,0,.04,0,.07,0,.11,0,.21-.07.24-.18,0-.03,0-.05,0-.08,0-.11-.08-.2-.18-.23-.62-.18-1.27-.34-1.95-.5-.14-.03-.27.06-.3.19-.02.07-.01.13.03.19.03.06.09.1.16.11Z"/>
    <path class="st5" d="M283.15,154.39h0c-.6-.26-1.23-.49-1.9-.71-.13-.04-.27.04-.31.16-.05.13.03.27.16.32.65.21,1.28.44,1.85.68.03.02.07.02.1.02.1,0,.19-.06.23-.15.01-.03.02-.07.02-.1,0-.1-.06-.18-.15-.22Z"/>
    <path class="st5" d="M274.29,152.67h.06c.12,0,.23-.09.24-.22v-.03c0-.13-.09-.23-.21-.25-.65-.09-1.32-.17-1.99-.25-.14,0-.26.09-.28.22,0,.14.08.26.22.28.73.08,1.37.16,1.96.25Z"/>
    <path class="st5" d="M284.07,154.8c-.12-.06-.28,0-.33.11-.03.06-.04.13,0,.19.02.07.06.12.12.15.61.29,1.18.61,1.69.94,0,.01.02.02.03.02h.01s.08.04.12.04c.09,0,.17-.04.21-.11.03-.04.04-.09.04-.14,0-.09-.04-.16-.11-.21-.53-.35-1.13-.68-1.77-.99Z"/>
    <path class="st5" d="M269.36,152.14c.61.05,1.26.11,1.98.18h.03c.13,0,.23-.1.24-.23.01,0,.01-.02.01-.02,0-.13-.1-.24-.23-.25-.64-.06-1.29-.12-2-.17-.13-.02-.26.09-.27.23-.01.13.1.25.24.26Z"/>
    <path class="st5" d="M288.15,157.82s0,0,0,0c-.41-.5-.91-.98-1.47-1.42-.11-.08-.27-.07-.35.04-.09.11-.07.27.04.35.54.42,1,.88,1.39,1.35.05.06.12.09.19.09.06,0,.12-.02.16-.05.06-.05.09-.11.1-.18,0-.06-.02-.12-.05-.17Z"/>
    <path class="st5" d="M188.7,158.53h.03c.66-.08,1.32-.16,1.99-.24.12-.02.22-.13.22-.25,0-.01,0-.02,0-.03,0-.13-.12-.23-.28-.22-.66.08-1.32.16-1.98.24-.14.02-.24.14-.22.28.02.13.12.22.25.22Z"/>
    <path class="st5" d="M254.38,151.94c.74-.02,1.4-.04,2-.05.14,0,.25-.12.25-.26,0-.13-.12-.24-.26-.24-.72.02-1.45.04-2,.05-.07.01-.13.03-.17.08-.05.05-.07.11-.07.18,0,.14.11.24.25.24Z"/>
    <path class="st5" d="M257.38,151.87c.7-.01,1.37-.02,2-.02.14,0,.25-.12.25-.25,0-.14-.11-.25-.25-.25-.62,0-1.28,0-2.01.02-.06,0-.13.03-.17.08-.05.05-.07.11-.07.17,0,.14.11.25.25.25Z"/>
    <path class="st5" d="M260.38,151.84c.71,0,1.36.01,2,.02.13,0,.25-.11.25-.25,0-.13-.11-.25-.24-.25h0c-.64,0-1.32-.02-2-.02-.14,0-.25.12-.25.25,0,.14.11.25.25.25Z"/>
    <path class="st5" d="M179.78,159.56l.54-.06c.48-.05.96-.11,1.45-.16.13-.02.22-.12.22-.25v-.03c-.02-.13-.13-.24-.28-.22l-.41.05c-.53.06-1.06.12-1.57.17-.07,0-.13.04-.17.1-.05.05-.06.11-.06.18.02.13.13.22.25.22h.03Z"/>
    <path class="st5" d="M266.37,151.97c.71.03,1.36.07,1.99.11h.01c.14,0,.25-.11.25-.23,0-.01,0-.02,0-.02,0-.13-.1-.24-.24-.25-.62-.04-1.28-.08-2-.11h0c-.14,0-.25.1-.25.24,0,.07.02.13.06.18.05.05.11.08.18.08Z"/>
    <path class="st5" d="M263.37,151.87c.66.02,1.33.04,2,.06h0c.13,0,.24-.11.25-.24h0c0-.15-.11-.26-.24-.26-.64-.02-1.32-.04-2.01-.06-.14,0-.25.11-.25.25s.11.25.24.25Z"/>
    <path class="st5" d="M212.54,155.62h.03c.66-.08,1.33-.16,1.99-.24.12,0,.22-.12.22-.25h0v-.02c-.02-.14-.13-.24-.28-.22-.62.07-1.24.14-1.85.22h-.14c-.14.03-.24.15-.22.29,0,.13.12.22.25.22Z"/>
    <path class="st5" d="M170.81,160.46c.6-.05,1.24-.11,2-.18.13,0,.22-.12.22-.25h0v-.02c0-.13-.12-.23-.24-.23h-.03c-.73.07-1.45.14-1.99.18-.07.01-.13.04-.17.09-.04.06-.06.12-.06.19,0,.13.12.23.25.23,0,0,.02,0,.02-.01Z"/>
    <path class="st5" d="M206.57,156.34h.03c.34-.04.68-.08,1.03-.13.32-.03.64-.07.96-.11.13-.02.22-.13.22-.25v-.03c-.02-.14-.15-.23-.28-.22l-.13.02c-.62.07-1.24.15-1.86.22-.13.02-.23.15-.22.28.02.13.13.22.25.22Z"/>
    <path class="st5" d="M218.51,154.92h.03c.66-.08,1.33-.15,1.99-.22.12-.02.22-.13.22-.26v-.02c-.02-.14-.14-.22-.28-.22-.25.03-.51.06-.76.08-.41.05-.82.1-1.23.14-.07.01-.13.04-.17.1-.04.05-.06.11-.05.18.02.13.12.22.25.22Z"/>
    <path class="st5" d="M200.62,157.07h.03c.48-.06.97-.12,1.46-.18l.52-.06c.13-.02.22-.13.22-.26v-.02c-.02-.13-.12-.22-.25-.22,0,0-.03-.01-.03,0-.67.08-1.33.16-1.99.25-.13,0-.23.14-.21.27,0,.13.12.22.25.22Z"/>
    <path class="st5" d="M203.59,156.71s.02,0,.03,0c.37-.04.73-.08,1.09-.13.3-.04.6-.07.9-.11.13,0,.22-.13.22-.25v-.03c-.02-.13-.13-.23-.28-.22-.44.06-.88.11-1.32.17l-.67.08c-.06.01-.12.04-.16.09-.04.05-.06.12-.05.19,0,.12.12.22.24.22Z"/>
    <path class="st5" d="M154.81,161.23c.13,0,.25-.11.25-.24,0-.14-.11-.25-.25-.26-.62,0-1.3-.03-1.99-.05h0c-.14,0-.25.1-.25.24,0,.06.02.13.06.18.05.05.11.07.18.08.66.02,1.34.04,2.01.05Z"/>
    <path class="st5" d="M158.82,161.22c.59-.01,1.24-.03,1.97-.07,0,0,.02.01.02.01,0-.01.02-.01.02-.01.13,0,.23-.11.23-.24v-.02c0-.13-.12-.23-.25-.23,0-.01,0-.01,0-.01-.74.03-1.39.06-2,.07-.06,0-.13.03-.17.08-.05.05-.07.11-.07.18,0,.13.11.24.25.24h0Z"/>
    <path class="st5" d="M156.53,161.25c.48,0,.89,0,1.28-.01.07,0,.13-.03.18-.07.04-.05.07-.12.07-.18,0-.14-.11-.25-.25-.25-.62.01-1.29.01-2,.01-.14,0-.25.11-.25.24,0,.14.11.25.25.26h.72Z"/>
    <path class="st5" d="M209.56,155.98h.02c.66-.08,1.33-.16,1.99-.24.12-.02.22-.13.22-.25v-.03c-.02-.13-.13-.23-.28-.22l-1.99.24c-.13.02-.23.14-.22.28.02.12.13.22.26.22Z"/>
    <path class="st5" d="M164.82,160.94c.68-.05,1.36-.1,2-.14.13-.02.24-.13.23-.26h0c0-.15-.15-.25-.27-.24-.69.05-1.36.1-1.99.14-.07,0-.13.03-.17.08-.05.05-.07.12-.06.18,0,.14.11.24.25.24h0Z"/>
    <path class="st5" d="M167.81,160.72h0c.72-.06,1.38-.11,2-.17.13,0,.22-.11.23-.24v-.02h0c-.02-.14-.12-.25-.27-.24-.64.06-1.32.12-2,.17-.06,0-.12.03-.17.08-.04.06-.06.12-.06.19,0,.13.12.23.25.23h0Z"/>
    <path class="st5" d="M173.81,160.18c.6-.06,1.25-.12,1.99-.2.13,0,.22-.12.22-.25h0v-.02c0-.14-.14-.24-.27-.22-.64.06-1.33.13-1.99.19-.14.02-.24.14-.23.28.02.13.12.22.25.22h.03Z"/>
    <path class="st5" d="M191.68,158.17h.03c.65-.08,1.32-.16,1.98-.24.13-.02.22-.13.22-.26v-.02c-.02-.14-.13-.24-.28-.22-.66.08-1.32.16-1.98.24-.14.02-.24.14-.22.28,0,.13.12.22.25.22Z"/>
    <path class="st5" d="M197.63,157.44h.04l.12-.02c.62-.07,1.24-.15,1.86-.23.13,0,.22-.12.22-.25v-.03c-.02-.13-.14-.24-.28-.21-.66.08-1.32.16-1.98.24-.07.01-.13.04-.17.1-.04.05-.06.11-.05.18,0,.13.12.22.24.22Z"/>
    <path class="st5" d="M194.66,157.81h.03c.65-.08,1.32-.17,1.97-.25h.02c.12-.02.22-.13.21-.25v-.03c-.02-.13-.13-.23-.28-.22-.66.09-1.32.17-1.98.25-.07,0-.13.04-.17.09-.04.05-.06.12-.05.19.01.12.12.22.25.22Z"/>
    <path class="st5" d="M176.79,159.88c.41-.04.81-.08,1.22-.13l.78-.08c.12-.02.22-.12.22-.25v-.03c-.02-.13-.15-.23-.28-.22l-.61.07c-.47.05-.92.1-1.38.14-.07.01-.13.04-.17.1-.04.05-.06.11-.05.18,0,.13.12.22.25.22h.02Z"/>
    <path class="st5" d="M215.53,155.27h.02l1.99-.24c.13,0,.23-.12.23-.24,0-.01,0-.02,0-.03,0-.14-.12-.23-.27-.22l-1.99.23c-.07,0-.13.04-.17.09-.04.06-.06.12-.05.19.01.12.12.22.25.22Z"/>
    <path class="st5" d="M187.68,234.45c-.64.3-1.28.6-1.81.85-.06.02-.1.07-.13.14-.02.06-.02.13.01.19.04.09.13.14.23.14.03,0,.07,0,.1-.02.62-.29,1.23-.58,1.81-.85.12-.05.18-.2.12-.33-.05-.12-.21-.18-.33-.12Z"/>
    <path class="st5" d="M262.15,191.59c-.38.31-.76.62-1.16.93-.05.05-.09.12-.09.19,0,.06.02.12.05.16.05.06.12.09.2.09.06,0,.11-.02.16-.05.53-.42,1.05-.84,1.55-1.25.11-.09.13-.25.04-.35-.08-.11-.25-.13-.35-.04l-.4.32Z"/>
    <path class="st5" d="M257.86,195c-.52.4-1.04.81-1.58,1.23-.06.05-.1.12-.09.2,0,.05.02.11.05.15.05.06.12.1.2.1.05,0,.11-.02.15-.05,0,0,0,0,0,0,.51-.4,1.02-.8,1.57-1.23.11-.08.12-.24.04-.35s-.24-.12-.35-.04Z"/>
    <path class="st5" d="M205.14,226.92s0,0-.02,0h-.01c-.08.04-.14.13-.14.22,0,.04,0,.07.02.1.04.09.13.15.23.15.03,0,.06,0,.1-.01l.87-.37c.32-.14.64-.27.97-.41.12-.06.18-.2.13-.33-.05-.12-.21-.18-.33-.13-.46.2-.93.39-1.39.59l-.43.18Z"/>
    <path class="st5" d="M264.88,189.38c-.51.41-1.02.83-1.55,1.26-.06.05-.1.12-.1.19,0,.06.02.12.06.16.05.06.12.09.2.09.05,0,.11-.02.15-.05.53-.43,1.05-.85,1.55-1.27.05-.04.09-.1.09-.17.01-.06,0-.13-.05-.18-.09-.1-.25-.12-.35-.03Z"/>
    <path class="st5" d="M260.21,193.14c-.5.4-1,.79-1.53,1.21l-.04.03c-.06.05-.09.12-.09.19,0,.06.02.12.05.16.05.06.12.1.2.1.05,0,.11-.02.15-.05.54-.43,1.06-.84,1.57-1.25.11-.08.13-.24.04-.35-.08-.1-.24-.12-.35-.04Z"/>
    <path class="st5" d="M281.03,174.77c.07,0,.14-.03.19-.09.44-.54.85-1.08,1.22-1.6.08-.12.06-.27-.06-.35-.11-.08-.27-.05-.35.06-.35.5-.76,1.03-1.2,1.57-.04.05-.05.11-.05.16,0,.08.03.15.09.19.04.04.1.06.16.06Z"/>
    <path class="st5" d="M267.5,187.84c.1-.09.12-.25.03-.35-.08-.1-.25-.12-.35-.03l-.37.31c-.37.31-.76.64-1.16.96h0c-.06.06-.1.13-.09.2,0,.06.02.12.05.16.05.06.12.09.19.09.06,0,.11-.02.16-.05h0l.42-.36c.38-.31.75-.62,1.11-.93Z"/>
    <path class="st5" d="M271.71,183.54c-.45.41-.93.83-1.49,1.32-.06.05-.09.12-.09.2,0,.06.02.11.06.16.05.05.12.08.19.08.06,0,.12-.02.16-.06.5-.43,1-.88,1.5-1.32.11-.09.12-.25.02-.36-.08-.1-.25-.1-.35-.02Z"/>
    <path class="st5" d="M278.2,177.34c-.45.47-.92.95-1.4,1.43-.04.04-.07.11-.07.17,0,.07.03.13.07.18.05.05.11.07.18.07s.13-.02.18-.07c.47-.47.94-.95,1.4-1.43.09-.1.09-.26,0-.36-.1-.09-.26-.09-.35,0Z"/>
    <path class="st5" d="M274.65,181.2s.11.08.18.08c.06,0,.12-.02.17-.07.49-.45.97-.92,1.45-1.38.09-.1.09-.26,0-.36-.1-.09-.26-.1-.36,0-.46.45-.94.92-1.43,1.38-.05.05-.08.11-.08.17,0,.07.02.13.07.18Z"/>
    <path class="st5" d="M202.2,228.31s.01.07.02.1c.04.09.13.15.23.15.03,0,.07,0,.1,0,0,0,0,0,0,0,.61-.25,1.22-.51,1.83-.77.13-.05.19-.2.14-.32-.06-.13-.21-.19-.33-.14-.42.18-.83.35-1.25.53l-.59.24c-.1.04-.16.13-.16.23Z"/>
    <path class="st5" d="M280.2,175.13c-.42.48-.86.99-1.32,1.48-.05.05-.07.11-.07.17,0,.07.03.14.08.19.05.04.11.06.17.06.07,0,.14-.02.18-.08.49-.52.93-1.03,1.34-1.5.09-.1.07-.26-.03-.35-.1-.09-.27-.07-.35.03Z"/>
    <path class="st5" d="M269.79,185.9c.1-.09.11-.25.02-.36-.08-.1-.25-.11-.35-.02-.5.43-1,.86-1.49,1.28,0,0-.02,0-.03.02-.06.05-.09.12-.09.19,0,.06.02.11.06.16.05.05.12.09.19.09.06,0,.12-.03.17-.06.52-.45,1.03-.88,1.52-1.3Z"/>
    <path class="st5" d="M273.93,181.53c-.43.4-.9.83-1.48,1.35-.05.05-.08.12-.08.19,0,.06.03.12.07.16.04.05.11.08.18.08.06,0,.12-.02.17-.06h0c.51-.46,1.01-.91,1.48-1.35.05-.05.08-.11.08-.18,0-.06-.02-.13-.07-.17-.09-.1-.25-.11-.35-.02Z"/>
    <path class="st5" d="M201.76,228.6c-.05-.12-.2-.19-.32-.13-.62.25-1.23.51-1.85.77-.09.04-.15.13-.15.23,0,.03,0,.07.02.1.03.09.13.15.23.15.03,0,.06,0,.09-.02h.01l1.84-.77c.12-.05.18-.2.13-.33Z"/>
    <path class="st5" d="M196.1,231.26c.07-.03.11-.08.14-.14.02-.06.02-.13,0-.19-.06-.12-.2-.19-.33-.13l-.66.28c-.39.17-.78.34-1.18.51-.09.04-.15.13-.15.23,0,.03,0,.07.02.1.04.09.13.15.23.15.03,0,.07-.01.1-.02h0c.41-.19.82-.36,1.23-.54l.59-.25Z"/>
    <path class="st5" d="M226.58,216.82s.02.09.04.13c.04.08.13.12.22.12.04,0,.08-.01.12-.03h0c.47-.27,1.08-.62,1.72-.99.06-.04.1-.09.12-.16.02-.06,0-.13-.03-.19-.06-.11-.22-.15-.34-.09-.55.32-1.13.66-1.73,1-.08.04-.12.12-.13.21Z"/>
    <path class="st5" d="M199,229.76c-.06-.13-.21-.19-.33-.13-.61.25-1.22.51-1.84.78-.09.03-.15.13-.15.23,0,.03,0,.06.02.09.03.1.12.16.23.16.03,0,.06,0,.09-.03l.07-.02c.59-.25,1.18-.51,1.77-.75.13-.06.19-.2.14-.33Z"/>
    <path class="st5" d="M191.53,233.25c.61-.27,1.22-.54,1.83-.81.12-.05.18-.2.12-.32-.05-.13-.2-.19-.33-.13-.58.25-1.19.52-1.79.79,0,0-.02,0-.03,0h-.01c-.09.05-.15.14-.14.24,0,.03,0,.07.02.1.04.09.13.14.23.14.03,0,.06,0,.09,0h0Z"/>
    <path class="st5" d="M254.06,198.51c.06,0,.11-.02.16-.05.53-.42,1.06-.82,1.58-1.22.11-.09.13-.25.04-.35-.08-.11-.24-.13-.35-.05-.51.4-1.03.8-1.56,1.21,0,0,0,0-.02,0h0c-.06.06-.09.13-.09.2,0,.06.02.11.05.15.05.06.13.1.2.1Z"/>
    <path class="st5" d="M216.08,222.1h-.01c-.08.05-.13.13-.13.22,0,.04,0,.08.02.11.04.09.13.14.23.14.03,0,.06,0,.09-.01.01,0,.01,0,.01,0,.62-.29,1.23-.58,1.81-.86.12-.06.17-.21.11-.34-.06-.12-.21-.17-.33-.11-.57.28-1.15.55-1.77.85,0,0-.02,0-.03,0Z"/>
    <path class="st5" d="M220.56,219.9c-.61.31-1.21.61-1.78.9-.09.04-.15.13-.15.22,0,.04,0,.08.03.11.04.09.13.14.22.14.04,0,.08,0,.11-.02.65-.32,1.3-.65,1.8-.9.12-.06.17-.21.11-.33-.07-.12-.22-.18-.34-.12Z"/>
    <path class="st5" d="M223.21,218.53c-.66.35-1.23.65-1.76.92-.09.04-.14.13-.14.22,0,.04,0,.08.03.12.04.08.13.13.22.13.04,0,.08,0,.12-.03.56-.29,1.14-.59,1.77-.92.06-.04.1-.09.12-.15.02-.06.01-.13-.02-.19-.06-.12-.22-.17-.34-.1Z"/>
    <path class="st5" d="M188.7,234.51s.07,0,.1-.02h0c.58-.27,1.17-.54,1.82-.83.06-.03.1-.08.13-.14.02-.06.02-.13-.01-.19-.05-.12-.21-.18-.33-.13-.66.3-1.32.6-1.82.83-.09.04-.15.13-.15.23,0,.04,0,.07.03.1.04.09.13.15.23.15Z"/>
    <path class="st5" d="M224.21,218.52s.08,0,.11-.02t.01,0c.62-.33,1.19-.65,1.76-.96.05-.03.1-.09.11-.15.02-.07.01-.13-.02-.19-.07-.12-.23-.16-.34-.09-.65.36-1.23.67-1.75.96-.08.04-.13.12-.13.21,0,.04,0,.08.03.12.04.08.13.13.22.13Z"/>
    <path class="st5" d="M213.22,223.58s0,.07.02.11c.04.08.13.14.23.14.03,0,.06,0,.09-.02h0c.55-.25,1.19-.54,1.82-.83.12-.06.17-.21.12-.34-.06-.12-.22-.18-.34-.12-.6.28-1.21.56-1.81.83-.09.04-.14.13-.14.23Z"/>
    <path class="st5" d="M231.02,214.09c-.56.33-1.14.67-1.72,1.02-.07.04-.12.12-.12.21,0,.04,0,.09.04.13.04.08.12.12.21.12.04,0,.09-.01.13-.03.51-.3,1.12-.66,1.72-1.03.11-.07.15-.22.08-.34-.07-.12-.23-.16-.34-.08Z"/>
    <path class="st5" d="M245.93,204.08l-.03.02c-.55.4-1.06.77-1.59,1.15-.06.04-.1.12-.1.19,0,.06,0,.11.05.16.04.06.12.1.2.1.05,0,.09-.02.14-.04,0,0,0,0,0,0,.53-.38,1.07-.77,1.61-1.17.12-.09.14-.24.06-.35s-.25-.13-.35-.05Z"/>
    <path class="st5" d="M207.88,225.76c-.09.04-.15.13-.15.23,0,.03,0,.06.02.1.04.09.13.15.23.15.03,0,.07-.01.1-.02.51-.22,1.02-.44,1.53-.66l.3-.13c.13-.06.19-.2.13-.33-.05-.12-.21-.18-.33-.13-.56.25-1.16.5-1.83.79Z"/>
    <path class="st5" d="M248.34,202.29c-.5.38-1,.75-1.49,1.11l-.11.08c-.07.05-.11.12-.11.2,0,.05.02.11.05.15.05.07.12.1.2.1.05,0,.1,0,.14-.04h0c.48-.36,1.04-.77,1.61-1.2.05-.04.09-.1.1-.17,0-.06,0-.13-.05-.18-.08-.11-.25-.13-.35-.05Z"/>
    <path class="st5" d="M249.16,201.67l-.02.02c-.07.05-.1.12-.1.2,0,.06.02.11.05.15.05.06.12.1.2.1.05,0,.1,0,.14-.04,0,0,0,0,0,0,.05-.04.1-.08.15-.11l.14-.11c.44-.33.88-.66,1.3-.99.06-.04.09-.1.1-.16,0-.07,0-.13-.05-.18-.08-.11-.24-.13-.35-.05-.47.36-.95.72-1.44,1.09-.04.03-.08.06-.13.09Z"/>
    <path class="st5" d="M253.12,198.67c-.52.4-1.04.8-1.57,1.2h-.02s0,.02,0,.02c-.06.04-.09.12-.09.19,0,.06.02.11.05.15.05.07.12.1.2.1.05,0,.1-.02.15-.05h0l.44-.34c.38-.29.76-.58,1.14-.87.11-.09.13-.25.05-.35-.09-.11-.25-.13-.35-.05Z"/>
    <path class="st5" d="M242.01,207.43s.1,0,.15-.04c.59-.42,1.18-.83,1.63-1.15.11-.09.14-.24.06-.35-.08-.11-.24-.14-.35-.06-.66.47-1.16.82-1.63,1.15-.07.05-.11.13-.11.21,0,.05.02.1.05.14.04.06.12.1.2.1Z"/>
    <path class="st5" d="M234.29,212.19s0,.09.04.13c.05.07.12.12.21.12.04,0,.09-.01.13-.04h0c.49-.32,1.03-.66,1.68-1.08.11-.08.15-.24.07-.35-.07-.11-.24-.15-.35-.07-.51.33-1.1.71-1.67,1.08-.08.04-.12.13-.12.21Z"/>
    <path class="st5" d="M236.94,210.34s-.02,0-.02,0h-.01c-.06.05-.1.12-.1.21,0,.05,0,.09.04.13.04.07.12.12.21.12.05,0,.09-.02.13-.04.5-.33,1.05-.69,1.67-1.11.11-.08.14-.24.07-.35-.08-.11-.24-.14-.35-.07-.67.45-1.18.79-1.64,1.1Z"/>
    <path class="st5" d="M241.05,207.55c-.58.41-1.11.77-1.64,1.13-.07.05-.11.13-.11.21,0,.05,0,.1.04.14.05.07.12.11.21.11.05,0,.09-.02.14-.05.56-.38,1.1-.75,1.65-1.13.11-.08.14-.23.06-.35-.08-.11-.24-.14-.35-.06Z"/>
    <path class="st5" d="M210.63,224.57c-.1.04-.15.13-.15.23,0,.04,0,.07.02.1.04.09.13.15.23.15.03,0,.06,0,.09-.02h.01c.6-.26,1.22-.54,1.83-.81.12-.05.18-.2.12-.33-.05-.12-.21-.18-.33-.13-.71.33-1.29.58-1.82.81Z"/>
    <path class="st5" d="M233.56,212.51c-.49.31-1.01.64-1.69,1.06-.08.04-.12.12-.12.21,0,.05,0,.09.04.13.04.07.12.12.21.12.05,0,.09-.02.13-.04.6-.37,1.16-.72,1.7-1.06.12-.07.15-.22.08-.34-.07-.11-.23-.15-.35-.08Z"/>
    <path class="st5" d="M161.53,155.25c.14,0,.25-.11.25-.25v-2c0-.2-.28-.32-.43-.17-.04.04-.07.1-.07.17v2c0,.14.11.25.25.25Z"/>
    <path class="st5" d="M161.53,167.25c.14,0,.25-.11.25-.25v-2c0-.2-.28-.32-.43-.17-.04.04-.07.1-.07.17v2c0,.14.11.25.25.25Z"/>
    <path class="st5" d="M161.53,170.25c.14,0,.25-.11.25-.25v-2c0-.2-.28-.32-.43-.17-.04.04-.07.1-.07.17v2c0,.14.11.25.25.25Z"/>
    <path class="st5" d="M161.53,173.25c.14,0,.25-.11.25-.25v-2c0-.14-.11-.25-.25-.25-.07,0-.13.03-.18.07-.04.05-.07.11-.07.18v2c0,.14.11.25.25.25Z"/>
    <path class="st5" d="M161.53,164.25c.14,0,.25-.11.25-.25v-2c0-.14-.11-.25-.25-.25-.07,0-.13.03-.18.07-.04.05-.07.11-.07.18v2c0,.14.11.25.25.25Z"/>
    <path class="st5" d="M161.53,158.25c.14,0,.25-.11.25-.25v-2c0-.2-.28-.32-.43-.17-.04.04-.07.1-.07.17v2c0,.14.11.25.25.25Z"/>
    <path class="st5" d="M161.53,161.25c.11,0,.18-.07.22-.17.02,0,.04.03.06.03h0c.71-.03,1.41-.07,2-.11.14-.01.24-.12.24-.25h0c0-.15-.12-.25-.25-.25h-.02c-.64.04-1.3.08-1.99.11,0,0-.01,0-.02,0v-1.62c0-.2-.28-.32-.43-.17-.04.04-.07.11-.07.17v2c0,.14.11.25.25.25Z"/>
    <path class="st5" d="M161.53,65.25c.14,0,.25-.11.25-.25v-2c0-.14-.11-.25-.25-.25s-.25.11-.25.25v2c0,.14.11.25.25.25Z"/>
    <path class="st5" d="M161.53,83.25c.14,0,.25-.11.25-.25v-2c0-.14-.11-.25-.25-.25s-.25.11-.25.25v2c0,.14.11.25.25.25Z"/>
    <path class="st5" d="M161.53,62.25c.14,0,.25-.11.25-.25v-2c0-.14-.11-.25-.25-.25s-.25.11-.25.25v2c0,.14.11.25.25.25Z"/>
    <path class="st5" d="M161.53,59.25c.14,0,.25-.11.25-.25v-2c0-.14-.11-.25-.25-.25s-.25.11-.25.25v2c0,.14.11.25.25.25Z"/>
    <path class="st5" d="M161.53,56.25c.14,0,.25-.11.25-.25v-2c0-.14-.11-.25-.25-.25s-.25.11-.25.25v2c0,.14.11.25.25.25Z"/>
    <path class="st5" d="M161.53,53.25c.14,0,.25-.11.25-.25v-2c0-.14-.11-.25-.25-.25s-.25.11-.25.25v2c0,.14.11.25.25.25Z"/>
    <path class="st5" d="M161.53,50.25c.14,0,.25-.11.25-.25v-2c0-.14-.11-.25-.25-.25s-.25.11-.25.25v2c0,.14.11.25.25.25Z"/>
    <path class="st5" d="M161.53,77.25c.14,0,.25-.11.25-.25v-2c0-.14-.11-.25-.25-.25s-.25.11-.25.25v2c0,.14.11.25.25.25Z"/>
    <path class="st5" d="M161.53,80.25c.14,0,.25-.11.25-.25v-2c0-.14-.11-.25-.25-.25s-.25.11-.25.25v2c0,.14.11.25.25.25Z"/>
    <path class="st5" d="M161.53,74.25c.14,0,.25-.11.25-.25v-2c0-.14-.11-.25-.25-.25s-.25.11-.25.25v2c0,.14.11.25.25.25Z"/>
    <path class="st5" d="M161.53,71.25c.14,0,.25-.11.25-.25v-2c0-.14-.11-.25-.25-.25s-.25.11-.25.25v2c0,.14.11.25.25.25Z"/>
    <path class="st5" d="M161.53,68.25c.14,0,.25-.11.25-.25v-2c0-.14-.11-.25-.25-.25s-.25.11-.25.25v2c0,.14.11.25.25.25Z"/>
    <path class="st5" d="M161.53,176.25c.14,0,.25-.11.25-.25v-2c0-.2-.28-.32-.43-.17-.04.04-.07.1-.07.17v2c0,.14.11.25.25.25Z"/>
    <path class="st5" d="M161.53,29.25c.14,0,.25-.11.25-.25v-2c0-.14-.11-.25-.25-.25s-.25.11-.25.25v2c0,.14.11.25.25.25Z"/>
    <path class="st5" d="M161.53,23.25c.14,0,.25-.11.25-.25v-2c0-.14-.11-.25-.25-.25s-.25.11-.25.25v2c0,.14.11.25.25.25Z"/>
    <path class="st5" d="M161.53,32.25c.14,0,.25-.11.25-.25v-2c0-.14-.11-.25-.25-.25s-.25.11-.25.25v2c0,.14.11.25.25.25Z"/>
    <path class="st5" d="M161.53,17.25c.14,0,.25-.11.25-.25v-2c0-.14-.11-.25-.25-.25s-.25.11-.25.25v2c0,.14.11.25.25.25Z"/>
    <path class="st5" d="M161.53,20.25c.14,0,.25-.11.25-.25v-2c0-.14-.11-.25-.25-.25s-.25.11-.25.25v2c0,.14.11.25.25.25Z"/>
    <path class="st5" d="M161.53,35.25c.14,0,.25-.11.25-.25v-2c0-.14-.11-.25-.25-.25s-.25.11-.25.25v2c0,.14.11.25.25.25Z"/>
    <path class="st5" d="M161.53,44.25c.14,0,.25-.11.25-.25v-2c0-.14-.11-.25-.25-.25s-.25.11-.25.25v2c0,.14.11.25.25.25Z"/>
    <path class="st5" d="M161.53,41.25c.14,0,.25-.11.25-.25v-2c0-.14-.11-.25-.25-.25s-.25.11-.25.25v2c0,.14.11.25.25.25Z"/>
    <path class="st5" d="M161.53,38.25c.14,0,.25-.11.25-.25v-2c0-.14-.11-.25-.25-.25s-.25.11-.25.25v2c0,.14.11.25.25.25Z"/>
    <path class="st5" d="M161.53,152.25c.14,0,.25-.11.25-.25v-2c0-.21-.28-.32-.43-.18-.04.05-.07.11-.07.18v2c0,.14.11.25.25.25Z"/>
    <path class="st5" d="M161.53,47.25c.14,0,.25-.11.25-.25v-2c0-.14-.11-.25-.25-.25s-.25.11-.25.25v2c0,.14.11.25.25.25Z"/>
    <path class="st5" d="M161.53,86.25c.14,0,.25-.11.25-.25v-2c0-.14-.11-.25-.25-.25s-.25.11-.25.25v2c0,.14.11.25.25.25Z"/>
    <path class="st5" d="M161.53,128.25c.14,0,.25-.11.25-.25v-2c0-.2-.28-.32-.43-.17-.04.04-.07.1-.07.17v2c0,.14.11.25.25.25Z"/>
    <path class="st5" d="M161.53,134.25c.14,0,.25-.11.25-.25v-2c0-.2-.28-.32-.43-.17-.04.04-.07.1-.07.17v2c0,.14.11.25.25.25Z"/>
    <path class="st5" d="M161.53,122.25c.14,0,.25-.11.25-.25v-2c0-.21-.28-.32-.43-.18-.04.05-.07.11-.07.18v2c0,.14.11.25.25.25Z"/>
    <path class="st5" d="M161.53,125.25c.14,0,.25-.11.25-.25v-2c0-.2-.28-.32-.43-.17-.04.04-.07.1-.07.17v2c0,.14.11.25.25.25Z"/>
    <path class="st5" d="M161.53,140.25c.14,0,.25-.11.25-.25v-2c0-.14-.11-.25-.25-.25-.07,0-.13.03-.18.08-.04.04-.07.1-.07.17v2c0,.14.11.25.25.25Z"/>
    <path class="st5" d="M161.53,146.25c.14,0,.25-.11.25-.25v-2c0-.2-.28-.32-.43-.18-.04.05-.07.11-.07.18v2c0,.14.11.25.25.25Z"/>
    <path class="st5" d="M161.53,149.25c.14,0,.25-.11.25-.25v-2c0-.2-.28-.32-.43-.17-.04.04-.07.1-.07.17v2c0,.14.11.25.25.25Z"/>
    <path class="st5" d="M161.53,143.25c.14,0,.25-.11.25-.25v-2c0-.21-.28-.32-.43-.18-.04.05-.07.11-.07.18v2c0,.14.11.25.25.25Z"/>
    <path class="st5" d="M161.53,119.25c.14,0,.25-.11.25-.25v-2c0-.2-.28-.32-.43-.17-.04.04-.07.1-.07.17v2c0,.14.11.25.25.25Z"/>
    <path class="st5" d="M161.53,137.25c.14,0,.25-.11.25-.25v-2c0-.2-.28-.32-.43-.17-.04.04-.07.1-.07.17v2c0,.14.11.25.25.25Z"/>
    <path class="st5" d="M161.53,131.25c.14,0,.25-.11.25-.25v-2c0-.2-.28-.32-.43-.17-.04.04-.07.11-.07.17v2c0,.14.11.25.25.25Z"/>
    <path class="st5" d="M161.53,95.25c.14,0,.25-.11.25-.25v-2c0-.14-.11-.25-.25-.25s-.25.11-.25.25v2c0,.14.11.25.25.25Z"/>
    <path class="st5" d="M161.53,101.25c.14,0,.25-.11.25-.25v-2c0-.21-.28-.32-.43-.18-.04.05-.07.11-.07.18v2c0,.14.11.25.25.25Z"/>
    <path class="st5" d="M161.53,98.25c.14,0,.25-.11.25-.25v-2c0-.14-.11-.25-.25-.25s-.25.11-.25.25v2c0,.14.11.25.25.25Z"/>
    <path class="st5" d="M161.53,92.25c.14,0,.25-.11.25-.25v-2c0-.14-.11-.25-.25-.25s-.25.11-.25.25v2c0,.14.11.25.25.25Z"/>
    <path class="st5" d="M161.53,89.25c.14,0,.25-.11.25-.25v-2c0-.14-.11-.25-.25-.25s-.25.11-.25.25v2c0,.14.11.25.25.25Z"/>
    <path class="st5" d="M161.53,104.25c.14,0,.25-.11.25-.25v-2c0-.2-.28-.32-.43-.17-.04.04-.07.1-.07.17v2c0,.14.11.25.25.25Z"/>
    <path class="st5" d="M161.53,116.25c.14,0,.25-.11.25-.25v-2c0-.2-.28-.32-.43-.17-.04.04-.07.1-.07.17v2c0,.14.11.25.25.25Z"/>
    <path class="st5" d="M161.53,113.25c.14,0,.25-.11.25-.25v-2c0-.21-.28-.32-.43-.18-.04.05-.07.11-.07.18v2c0,.14.11.25.25.25Z"/>
    <path class="st5" d="M161.53,110.25c.14,0,.25-.11.25-.25v-2c0-.2-.28-.32-.43-.17-.04.04-.07.11-.07.17v2c0,.14.11.25.25.25Z"/>
    <path class="st5" d="M161.53,107.25c.14,0,.25-.11.25-.25v-2c0-.2-.28-.32-.43-.17-.04.04-.07.1-.07.17v2c0,.14.11.25.25.25Z"/>
    <path class="st5" d="M161.53,26.25c.14,0,.25-.11.25-.25v-2c0-.14-.11-.25-.25-.25s-.25.11-.25.25v2c0,.14.11.25.25.25Z"/>
    <path class="st5" d="M161.78,177c0-.2-.28-.32-.43-.17-.04.04-.07.1-.07.17v.37c0,.14.11.25.25.25s.25-.12.25-.25v-.37Z"/>
    <path class="st5" d="M151.52,26.25c.13,0,.25-.11.25-.25v-2c0-.14-.12-.25-.25-.25-.14,0-.25.11-.25.25v2c0,.07.02.13.07.18.05.04.11.07.18.07Z"/>
    <path class="st5" d="M151.52,29.25c.13,0,.25-.11.25-.25v-2c0-.14-.12-.25-.25-.25-.14,0-.25.11-.25.25v2c0,.07.02.13.07.18.04.04.11.07.18.07Z"/>
    <path class="st5" d="M151.52,23.25c.13,0,.25-.11.25-.25v-2c0-.14-.12-.25-.25-.25-.14,0-.25.11-.25.25v2c0,.07.02.13.07.17.04.05.11.08.18.08Z"/>
    <path class="st5" d="M151.52,20.25c.13,0,.25-.11.25-.25v-2c0-.14-.12-.25-.25-.25-.14,0-.25.11-.25.25v2c0,.07.02.13.07.18.05.04.11.07.18.07Z"/>
    <path class="st5" d="M151.51,137.25c.14,0,.25-.11.26-.25v-2c0-.14-.12-.25-.26-.25-.13,0-.24.11-.24.25v2c0,.14.11.25.24.25Z"/>
    <path class="st5" d="M151.52,17.25c.13,0,.25-.11.25-.25v-2c0-.14-.11-.25-.25-.25s-.25.11-.25.25v2c0,.14.11.25.25.25Z"/>
    <path class="st5" d="M151.51,140.25c.14,0,.25-.11.26-.25v-2c0-.14-.12-.25-.25-.25-.14,0-.25.11-.25.25v2c0,.14.11.25.24.25Z"/>
    <path class="st5" d="M151.52,44.25c.13,0,.25-.11.25-.25v-2c0-.14-.12-.25-.26-.25-.13,0-.24.11-.24.25v2c0,.07.02.13.07.18.05.04.11.07.18.07Z"/>
    <path class="st5" d="M151.52,41.25c.13,0,.25-.11.25-.25v-2c0-.14-.12-.25-.25-.25-.14,0-.25.11-.25.25v2c0,.07.02.13.07.18.04.04.11.07.18.07Z"/>
    <path class="st5" d="M151.52,47.25c.13,0,.25-.11.25-.25v-2c0-.14-.12-.25-.25-.25-.14,0-.25.11-.25.25v2c0,.07.02.13.07.18.04.04.11.07.18.07Z"/>
    <path class="st5" d="M151.52,38.25c.13,0,.25-.11.25-.25v-2c0-.14-.12-.25-.26-.25-.13,0-.24.11-.24.25v2c0,.14.11.25.25.25Z"/>
    <path class="st5" d="M151.52,35.25c.13,0,.25-.11.25-.25v-2c0-.14-.12-.25-.25-.25-.14,0-.25.11-.25.25v2c0,.07.02.13.07.18.04.04.11.07.18.07Z"/>
    <path class="st5" d="M151.52,32.25c.13,0,.25-.11.25-.25v-2c0-.14-.12-.25-.26-.25-.13,0-.24.11-.24.25v2c0,.07.02.13.07.18.05.04.11.07.18.07Z"/>
    <path class="st5" d="M151.52,50.25c.13,0,.25-.11.25-.25v-2c0-.14-.12-.25-.26-.25-.13,0-.24.11-.24.25v2c0,.07.02.13.07.18.05.04.11.07.18.07Z"/>
    <path class="st5" d="M151.77,171c0-.14-.12-.25-.25-.25-.14,0-.25.11-.25.25v2c0,.14.11.25.24.25.14,0,.25-.11.26-.25v-2Z"/>
    <path class="st5" d="M151.77,168c0-.14-.12-.25-.25-.25-.14,0-.25.11-.25.25v2c0,.14.11.25.24.25.14,0,.25-.11.26-.25v-2Z"/>
    <path class="st5" d="M151.51,143.25c.14,0,.25-.11.26-.25v-2c0-.14-.12-.25-.26-.25-.13,0-.24.11-.24.25v2c0,.14.11.25.24.25Z"/>
    <path class="st5" d="M151.27,177v.37c0,.13.11.25.24.25.14,0,.25-.11.26-.25v-.37c0-.14-.12-.25-.25-.25-.14,0-.25.11-.25.25Z"/>
    <path class="st5" d="M151.77,174c0-.14-.12-.25-.25-.25-.14,0-.25.11-.25.25v2c0,.14.11.25.24.25.14,0,.25-.11.26-.25v-2Z"/>
    <path class="st5" d="M151.77,162c0-.14-.12-.25-.25-.25-.14,0-.25.11-.25.25v2c0,.14.11.25.24.25.14,0,.25-.11.26-.25v-2Z"/>
    <path class="st5" d="M151.77,165c0-.14-.12-.25-.25-.25-.14,0-.25.11-.25.25v2c0,.14.11.25.24.25.14,0,.25-.11.26-.25v-2Z"/>
    <path class="st5" d="M151.51,149.25c.14,0,.25-.11.26-.25v-2c0-.14-.12-.25-.26-.25-.13,0-.24.11-.24.25v2c0,.14.11.25.24.25Z"/>
    <path class="st5" d="M151.51,146.25c.14,0,.25-.11.26-.25v-2c0-.14-.12-.25-.25-.25-.14,0-.25.11-.25.25v2c0,.14.11.25.24.25Z"/>
    <path class="st5" d="M151.51,152.25c.14,0,.25-.11.26-.25v-2c0-.14-.12-.25-.25-.25-.14,0-.25.11-.25.25v2c0,.14.11.25.24.25Z"/>
    <path class="st5" d="M151.51,158.25c.14,0,.25-.11.26-.25v-2c0-.14-.12-.25-.25-.25-.14,0-.25.11-.25.25v2c0,.14.11.25.24.25Z"/>
    <path class="st5" d="M151.51,155.25c.14,0,.25-.11.26-.25v-2c0-.14-.12-.25-.26-.25-.13,0-.24.11-.24.25v2c0,.14.11.25.24.25Z"/>
    <path class="st5" d="M151.51,134.25c.14,0,.25-.11.26-.25v-2c0-.14-.12-.25-.25-.25-.14,0-.25.11-.25.25v2c0,.14.11.25.24.25Z"/>
    <path class="st5" d="M151.51,104.25c.14,0,.25-.11.26-.25v-2c0-.14-.12-.25-.25-.25-.14,0-.25.11-.25.25v2c0,.14.11.25.24.25Z"/>
    <path class="st5" d="M151.51,107.25c.14,0,.25-.11.26-.25v-2c0-.14-.12-.25-.26-.25-.13,0-.24.11-.24.25v2c0,.14.11.25.24.25Z"/>
    <path class="st5" d="M151.51,110.25c.14,0,.25-.11.26-.25v-2c0-.14-.12-.25-.25-.25-.14,0-.25.11-.25.25v2c0,.14.11.25.24.25Z"/>
    <path class="st5" d="M151.51,101.25c.14,0,.25-.11.26-.25v-2c0-.14-.12-.25-.25-.25-.14,0-.25.11-.25.25v2c0,.14.11.25.24.25Z"/>
    <path class="st5" d="M151.51,113.25c.14,0,.25-.11.26-.25v-2c0-.14-.12-.25-.25-.25-.14,0-.25.11-.25.25v2c0,.14.11.25.24.25Z"/>
    <path class="st5" d="M151.51,98.25c.14,0,.25-.11.26-.25v-2c0-.14-.12-.25-.25-.25-.14,0-.25.11-.25.25v2c0,.14.11.25.24.25Z"/>
    <path class="st5" d="M151.51,119.25c.14,0,.25-.11.26-.25v-2c0-.14-.12-.25-.25-.25-.14,0-.25.11-.25.25v2c0,.14.11.25.24.25Z"/>
    <path class="st5" d="M151.51,116.25c.14,0,.25-.11.26-.25v-2c0-.14-.12-.25-.25-.25-.14,0-.25.11-.25.25v2c0,.14.11.25.24.25Z"/>
    <path class="st5" d="M151.51,131.25c.14,0,.25-.11.26-.25v-2c0-.14-.12-.25-.26-.25-.13,0-.24.11-.24.25v2c0,.14.11.25.24.25Z"/>
    <path class="st5" d="M151.51,125.25c.14,0,.25-.11.26-.25v-2c0-.14-.12-.25-.26-.25-.13,0-.24.11-.24.25v2c0,.14.11.25.24.25Z"/>
    <path class="st5" d="M151.51,128.25c.14,0,.25-.11.26-.25v-2c0-.14-.12-.25-.25-.25-.14,0-.25.11-.25.25v2c0,.14.11.25.24.25Z"/>
    <path class="st5" d="M151.52,95.25c.13,0,.25-.11.25-.25v-2c0-.14-.12-.25-.25-.25-.14,0-.25.11-.25.25v2c0,.07.02.13.07.18.05.04.11.07.18.07Z"/>
    <path class="st5" d="M151.51,122.25c.14,0,.25-.11.26-.25v-2c0-.14-.12-.25-.25-.25-.14,0-.25.11-.25.25v2c0,.14.11.25.24.25Z"/>
    <path class="st5" d="M151.52,92.25c.13,0,.25-.11.25-.25v-2c0-.14-.12-.25-.25-.25-.14,0-.25.11-.25.25v2c0,.14.11.25.25.25Z"/>
    <path class="st5" d="M151.52,53.25c.13,0,.25-.11.25-.25v-2c0-.14-.12-.25-.25-.25-.14,0-.25.11-.25.25v2c0,.07.02.13.07.18.04.04.11.07.18.07Z"/>
    <path class="st5" d="M151.52,62.25c.13,0,.25-.11.25-.25v-2c0-.14-.12-.25-.25-.25-.14,0-.25.11-.25.25v2c0,.14.11.25.25.25Z"/>
    <path class="st5" d="M151.52,68.25c.13,0,.25-.11.25-.25v-2c0-.14-.12-.25-.26-.25-.13,0-.24.11-.24.25v2c0,.14.11.25.25.25Z"/>
    <path class="st5" d="M151.52,71.25c.13,0,.25-.11.25-.25v-2c0-.14-.12-.25-.25-.25-.14,0-.25.11-.25.25v2c0,.07.02.13.07.18.04.04.11.07.18.07Z"/>
    <path class="st5" d="M151.52,56.25c.13,0,.25-.11.25-.25v-2c0-.14-.12-.25-.26-.25-.13,0-.24.11-.24.25v2c0,.07.02.13.07.18.05.04.11.07.18.07Z"/>
    <path class="st5" d="M151.52,59.25c.13,0,.25-.11.25-.25v-2c0-.14-.12-.25-.25-.25-.14,0-.25.11-.25.25v2c0,.07.02.13.07.18.04.04.11.07.18.07Z"/>
    <path class="st5" d="M151.52,65.25c.13,0,.25-.11.25-.25v-2c0-.14-.12-.25-.25-.25-.14,0-.25.11-.25.25v2c0,.07.02.13.07.18.04.04.11.07.18.07Z"/>
    <path class="st5" d="M151.52,83.25c.13,0,.25-.11.25-.25v-2c0-.14-.12-.25-.25-.25-.14,0-.25.11-.25.25v2c0,.07.02.13.07.18.05.04.11.07.18.07Z"/>
    <path class="st5" d="M151.52,89.25c.13,0,.25-.11.25-.25v-2c0-.14-.12-.25-.25-.25-.14,0-.25.11-.25.25v2c0,.07.02.13.07.18.05.04.11.07.18.07Z"/>
    <path class="st5" d="M151.52,80.25c.13,0,.25-.11.25-.25v-2c0-.14-.12-.25-.25-.25-.14,0-.25.11-.25.25v2c0,.14.11.25.25.25Z"/>
    <path class="st5" d="M151.52,86.25c.13,0,.25-.11.25-.25v-2c0-.14-.12-.25-.25-.25-.14,0-.25.11-.25.25v2c0,.14.11.25.25.25Z"/>
    <path class="st5" d="M151.52,77.25c.13,0,.25-.11.25-.25v-2c0-.14-.12-.25-.25-.25-.14,0-.25.11-.25.25v2c0,.07.02.13.07.18.04.04.11.07.18.07Z"/>
    <path class="st5" d="M151.52,74.25c.13,0,.25-.11.25-.25v-2c0-.14-.12-.25-.25-.25-.14,0-.25.11-.25.25v2c0,.14.11.25.25.25Z"/>
    <path class="st5" d="M196.54,282.21h-.02c-.65.17-1.3.33-1.93.49-.07,0-.12.05-.16.11-.03.06-.04.12-.03.19.03.11.13.19.25.19,0,0,.03,0,.06-.01.57-.14,1.18-.29,1.91-.48,0,0,.02,0,.03,0h0c.1-.03.18-.13.18-.24,0-.02,0-.04,0-.06-.03-.13-.16-.21-.29-.18Z"/>
    <path class="st5" d="M202.29,280.59c-.69.21-1.39.41-1.91.56-.07.02-.12.07-.16.12-.03.06-.04.13-.02.19.04.11.13.18.24.18.03,0,.05,0,.07,0,.59-.16,1.22-.35,1.92-.56.11-.03.18-.13.18-.24,0-.02,0-.05,0-.08-.04-.13-.19-.2-.31-.16Z"/>
    <path class="st5" d="M199.42,281.43h-.01c-.58.16-1.21.33-1.92.52-.07.02-.12.06-.15.12-.04.06-.04.13-.03.19.03.11.13.18.24.18.03,0,.05,0,.07-.01.62-.16,1.27-.34,1.93-.52.11-.03.18-.13.18-.25,0-.02,0-.04,0-.06-.03-.13-.18-.21-.3-.17Z"/>
    <path class="st5" d="M164.01,287.02h0c-.66.03-1.33.05-2,.07-.06,0-.13.03-.17.08-.05.05-.07.11-.07.18,0,.13.11.24.25.24h0c.64-.02,1.31-.04,2-.07.13,0,.24-.12.24-.25h0c0-.15-.12-.25-.25-.25Z"/>
    <path class="st5" d="M205.15,279.69c-.58.19-1.2.38-1.91.6-.06.02-.11.07-.15.13-.03.06-.03.12,0,.19.03.1.13.17.24.17.02,0,.05,0,.07-.01.59-.18,1.21-.38,1.91-.6.1-.04.17-.13.17-.24,0-.03,0-.05,0-.08-.04-.13-.19-.2-.31-.16Z"/>
    <path class="st5" d="M190.7,283.6h0c-.74.16-1.36.29-1.95.41-.06,0-.12.05-.16.1-.03.06-.04.13-.03.19.02.12.12.2.25.2h.04c.71-.15,1.35-.28,1.96-.42.12-.02.2-.13.2-.24,0-.02,0-.04-.01-.05-.03-.14-.17-.23-.29-.19Z"/>
    <path class="st5" d="M213.6,276.65h0c-.63.25-1.25.49-1.85.72-.07.02-.12.07-.14.13-.03.06-.03.13,0,.19.04.1.13.16.23.16.04,0,.07,0,.09,0,.52-.2,1.19-.46,1.87-.73.09-.04.16-.12.16-.22,0-.04,0-.07-.02-.1-.05-.13-.2-.19-.32-.14Z"/>
    <path class="st5" d="M216.38,275.52h0c-.66.28-1.26.52-1.85.76-.12.05-.18.2-.13.32.03.1.12.16.23.16.03,0,.06,0,.09-.02.65-.26,1.25-.5,1.83-.75,0,0,.02,0,.03-.01.09-.04.15-.13.15-.23,0-.03,0-.07-.02-.09-.05-.13-.2-.19-.32-.14Z"/>
    <path class="st5" d="M207.98,278.73h0c-.68.24-1.3.45-1.89.65-.13.04-.2.18-.15.31.03.11.12.17.23.17.03,0,.06,0,.08-.01.62-.2,1.24-.41,1.9-.64.1-.04.16-.13.17-.24,0-.03,0-.05-.02-.08-.04-.13-.18-.2-.32-.16Z"/>
    <path class="st5" d="M210.8,277.72c-.72.27-1.31.48-1.87.68-.07.02-.12.07-.15.13-.03.06-.03.13,0,.19.04.1.13.17.24.17.03,0,.05,0,.08-.02.67-.23,1.29-.46,1.88-.68.1-.04.17-.13.17-.24,0-.02,0-.05-.02-.08-.05-.13-.2-.2-.32-.15Z"/>
    <path class="st5" d="M193.62,282.93c-.58.14-1.2.28-1.95.45-.13.03-.22.17-.19.3.03.11.13.2.25.2,0,0,.03,0,.05,0,.72-.16,1.36-.31,1.95-.45.11-.03.19-.13.2-.24,0-.02,0-.04,0-.06-.03-.14-.17-.22-.3-.19Z"/>
    <path class="st5" d="M170.24,286.88c0-.14-.13-.24-.27-.23-.67.05-1.34.1-1.99.14-.06,0-.12.04-.17.09-.04.05-.06.11-.06.18,0,.13.12.23.25.23h.02c.64-.04,1.31-.09,2-.14.12-.01.22-.12.23-.25,0,0,0-.01-.01-.01h0Z"/>
    <path class="st5" d="M167,286.86h-.01c-.65.04-1.3.08-2,.11-.06,0-.12.03-.17.08-.04.05-.07.11-.06.18,0,.14.11.24.25.24h0c.65-.03,1.31-.07,1.97-.11h.04c.13-.02.22-.13.22-.26h0c-.01-.14-.14-.24-.25-.24Z"/>
    <path class="st5" d="M172.96,286.38c-.63.06-1.3.12-1.99.18-.07.01-.13.04-.17.09-.04.05-.06.12-.06.19.02.13.12.22.25.22h.03c.62-.05,1.25-.11,1.99-.18.12-.02.22-.12.22-.25v-.03c0-.13-.15-.23-.27-.22Z"/>
    <path class="st5" d="M219.12,274.34c-.61.26-1.22.53-1.83.79-.06.03-.11.08-.13.14-.03.06-.03.13,0,.19.04.09.13.15.23.15.03,0,.06-.01.1-.02.73-.31,1.29-.56,1.81-.79t.02,0h.01c.09-.04.14-.13.14-.23,0-.03,0-.07-.02-.1-.05-.12-.2-.18-.33-.12Z"/>
    <path class="st5" d="M184.82,284.75c-.65.12-1.32.23-1.97.34-.06,0-.12.04-.16.1-.04.05-.05.12-.04.18.02.12.12.21.25.21h.04c.57-.09,1.18-.2,1.97-.34.12-.02.21-.12.21-.25,0-.01-.01-.02-.01-.03-.02-.14-.15-.23-.29-.21Z"/>
    <path class="st5" d="M181.87,285.24c-.59.1-1.29.2-1.97.3-.07,0-.13.05-.17.1-.04.05-.06.12-.05.18.02.13.12.22.25.22h.03c.73-.11,1.45-.22,1.99-.3.12-.02.21-.13.21-.25,0-.01,0-.03,0-.04-.02-.13-.14-.22-.28-.21Z"/>
    <path class="st5" d="M187.77,284.2c-.66.13-1.33.26-1.97.38-.13.02-.22.15-.2.29.03.11.13.2.25.2h.05c.6-.11,1.25-.23,1.96-.38.12-.02.2-.12.2-.24v-.05c-.03-.13-.15-.23-.29-.2Z"/>
    <path class="st5" d="M175.94,286.06c-.61.07-1.26.14-1.99.22-.07,0-.13.04-.17.09s-.06.12-.05.18c0,.13.12.23.25.23h.02c.59-.07,1.22-.14,1.99-.23.13,0,.23-.12.22-.25v-.02c-.01-.14-.14-.23-.27-.22Z"/>
    <path class="st5" d="M178.94,285.68h-.04c-.62.08-1.27.17-1.97.26-.14,0-.24.14-.22.28,0,.12.12.21.25.21h.03c.64-.08,1.31-.16,1.98-.25.13-.02.22-.13.22-.25v-.04c-.02-.12-.13-.21-.25-.21Z"/>
    <path class="st5" d="M261.24,246.17c-.58.55-1.03.97-1.46,1.36-.04.05-.07.11-.07.18-.01.06.02.13.06.18.05.05.11.08.18.08s.13-.03.17-.07c.53-.49,1.01-.94,1.47-1.37.05-.04.07-.1.08-.17,0-.07-.03-.13-.07-.18-.1-.1-.26-.1-.36,0Z"/>
    <path class="st5" d="M265.51,241.97c-.41.42-.86.88-1.4,1.42-.05.04-.08.1-.08.17s.03.13.08.18c.04.05.11.07.18.07.06,0,.12-.02.17-.07.48-.48.95-.95,1.41-1.42.05-.05.07-.12.07-.18,0-.07-.03-.13-.07-.18-.1-.09-.27-.09-.36,0Z"/>
    <path class="st5" d="M263.4,244.09c-.46.45-.94.92-1.43,1.39-.05.05-.08.11-.08.17,0,.07.02.14.07.19.05.04.11.07.18.07.06,0,.13-.02.17-.07.47-.45.96-.92,1.44-1.4.05-.04.07-.11.07-.17,0-.07-.02-.13-.07-.18-.09-.09-.26-.09-.35,0Z"/>
    <path class="st5" d="M267.59,239.8c-.47.49-.93.98-1.38,1.45-.05.05-.07.11-.07.18,0,.06.03.13.08.17.04.05.1.07.17.07s.13-.03.18-.07c.51-.54.96-1.01,1.38-1.46.05-.04.07-.11.07-.17,0-.07-.03-.14-.08-.18-.1-.09-.26-.09-.35,0Z"/>
    <path class="st5" d="M259.05,248.21c-.47.43-.93.84-1.49,1.33-.05.05-.08.11-.08.17,0,.07.02.14.06.19.05.05.12.08.19.08.06,0,.12-.02.17-.06.6-.54,1.06-.95,1.49-1.34.04-.05.07-.11.08-.17,0-.07-.02-.14-.07-.19-.09-.09-.25-.1-.35,0Z"/>
    <path class="st5" d="M269.61,237.6c-.53.59-.95,1.04-1.34,1.47-.05.05-.07.11-.07.18s.03.13.08.17c.05.05.11.07.17.07.07,0,.14-.03.18-.08.5-.53.96-1.05,1.36-1.48.03-.04.06-.1.06-.15,0-.08-.03-.15-.08-.2-.1-.09-.27-.08-.36.02Z"/>
    <path class="st5" d="M161.01,287.12h0c-.63.02-1.29.03-1.99.04-.07,0-.13.03-.18.08-.04.04-.07.11-.07.17,0,.14.11.25.25.25.73,0,1.38-.02,2.01-.04.13,0,.24-.11.24-.24v-.02c0-.13-.11-.24-.25-.24Z"/>
    <path class="st5" d="M277.28,228.37s0,0,0,0c-.39.52-.81,1.05-1.22,1.58-.04.05-.06.11-.05.18,0,.07.04.13.09.17.05.03.1.05.15.05.08,0,.16-.03.2-.09.43-.55.84-1.08,1.21-1.56,0,0,0-.02.02-.03h0s.04-.1.04-.15c0-.08-.03-.15-.1-.2-.1-.08-.26-.06-.34.04Z"/>
    <path class="st5" d="M280.79,223.52c-.39.56-.76,1.1-1.15,1.64-.04.05-.05.12-.04.18,0,.07.05.13.1.17.04.03.09.04.14.04.08,0,.16-.04.21-.1.41-.58.79-1.13,1.15-1.64.03-.05.04-.09.04-.15,0-.08-.04-.16-.1-.2-.12-.08-.28-.05-.35.06Z"/>
    <path class="st5" d="M282.46,221.02h-.01c-.33.52-.7,1.08-1.1,1.67-.04.06-.05.13-.04.19,0,.07.05.12.11.16.04.03.09.05.14.05.08,0,.16-.05.21-.12.37-.55.73-1.09,1.1-1.67.08-.12.04-.28-.07-.35-.11-.07-.27-.04-.34.07Z"/>
    <path class="st5" d="M256.82,250.2h0c-.44.4-.92.81-1.51,1.31-.1.09-.11.25-.03.35.05.06.12.09.19.09.06,0,.12-.02.17-.06.45-.39.93-.8,1.5-1.29v-.02s.02,0,.02,0c.05-.04.08-.11.08-.17s-.02-.12-.06-.17c-.09-.1-.24-.11-.35-.03Z"/>
    <path class="st5" d="M273.54,233.06h0c-.4.49-.82.99-1.29,1.54-.04.04-.06.11-.06.17,0,.07.04.13.09.18.04.04.1.06.16.06.07,0,.14-.04.19-.09.38-.45.79-.93,1.27-1.51l.02-.02s0,0,0,0c.03-.05.05-.1.05-.15,0-.08-.03-.15-.09-.2-.1-.08-.26-.06-.35.03Z"/>
    <path class="st5" d="M271.6,235.35c-.46.53-.89,1.02-1.32,1.5-.09.11-.08.26.02.36.05.04.1.06.17.06s.14-.03.18-.09c.45-.49.89-1,1.33-1.5.04-.05.06-.1.06-.16,0-.07-.03-.15-.09-.19-.1-.09-.26-.08-.35.02Z"/>
    <path class="st5" d="M275.43,230.74c-.38.48-.82,1.02-1.26,1.56-.04.05-.06.11-.05.18,0,.06.04.13.09.17.04.04.1.06.16.06.07,0,.14-.04.19-.1.43-.52.85-1.04,1.26-1.56.04-.04.06-.1.05-.16,0-.07-.03-.14-.09-.19-.11-.08-.27-.06-.35.04Z"/>
    <path class="st5" d="M249.88,255.92h0c-.55.44-1.07.84-1.58,1.22-.1.08-.13.24-.04.35.04.06.12.09.19.09.06,0,.11,0,.16-.05.55-.41,1.11-.84,1.59-1.21.06-.05.1-.13.09-.21,0-.05-.02-.1-.05-.14-.08-.11-.24-.14-.35-.05Z"/>
    <path class="st5" d="M232.49,267.57s0,0,0,0c-.67.38-1.22.69-1.74.98-.06.03-.1.08-.12.15-.02.06-.01.13.02.19.04.08.13.13.22.13.04,0,.08-.01.12-.03.62-.35,1.19-.67,1.74-.99.08-.04.13-.13.13-.22,0-.04,0-.08-.03-.12-.07-.11-.22-.16-.33-.1Z"/>
    <path class="st5" d="M237.61,264.5c-.53.34-1.09.68-1.69,1.05-.12.07-.16.22-.09.34.05.08.13.12.21.12.05,0,.1,0,.14-.04.59-.36,1.15-.7,1.7-1.05.07-.04.12-.13.12-.21,0-.05-.02-.09-.04-.13-.07-.11-.23-.15-.35-.08Z"/>
    <path class="st5" d="M229.86,269.04c-.69.37-1.25.67-1.76.94-.12.07-.17.22-.1.34.04.08.12.13.22.13.04,0,.08,0,.12-.03.55-.29,1.14-.6,1.73-.93.01,0,.02-.01.03-.01,0,0,0,0,0,0,.07-.04.12-.12.12-.21,0-.04,0-.08-.03-.12-.07-.12-.23-.17-.34-.1Z"/>
    <path class="st5" d="M235.06,266.07c-.61.36-1.17.69-1.72,1.01-.06.03-.1.09-.11.15-.02.06,0,.13.02.19.05.08.13.12.22.12.04,0,.08,0,.12-.03.55-.32,1.09-.63,1.73-1.02.07-.04.12-.12.12-.21,0-.04,0-.09-.04-.13-.06-.11-.22-.16-.34-.08Z"/>
    <path class="st5" d="M227.22,270.45c-.59.3-1.18.6-1.78.9-.06.03-.11.08-.13.15-.02.06,0,.13.02.19.04.08.13.14.22.14.04,0,.08,0,.11-.03.58-.29,1.18-.59,1.79-.91.08-.04.13-.13.13-.22,0-.04-.01-.08-.03-.12-.06-.12-.21-.17-.33-.1Z"/>
    <path class="st5" d="M224.55,271.8c-.6.29-1.21.59-1.8.87-.06.03-.11.08-.13.14-.02.06-.02.13,0,.19.04.09.13.15.23.15.03,0,.07-.01.1-.03.58-.27,1.17-.56,1.81-.87.08-.05.14-.14.14-.23,0-.04,0-.07-.03-.11-.06-.12-.21-.17-.33-.11Z"/>
    <path class="st5" d="M245.08,259.5c-.47.34-.99.7-1.63,1.15-.06.04-.1.09-.11.16,0,.07,0,.13.04.19.05.06.13.1.21.1.05,0,.1,0,.14-.04.63-.44,1.16-.81,1.64-1.15.07-.05.1-.13.1-.21,0-.06-.02-.1-.04-.14-.08-.11-.24-.14-.35-.06Z"/>
    <path class="st5" d="M247.5,257.73c-.46.35-.96.71-1.61,1.19-.11.08-.14.23-.06.34.05.07.12.11.2.11.06,0,.11-.02.15-.05.48-.34.99-.72,1.62-1.18.06-.05.1-.13.1-.21,0-.05-.02-.1-.05-.15-.08-.1-.25-.13-.35-.05Z"/>
    <path class="st5" d="M221.85,273.09c-.59.28-1.2.56-1.82.84-.06.03-.11.08-.13.14-.02.06-.02.13,0,.19.04.09.13.15.23.15.03,0,.06,0,.1-.03.62-.28,1.23-.56,1.82-.83.09-.04.14-.13.14-.23,0-.03,0-.07-.02-.1-.06-.13-.21-.18-.33-.13Z"/>
    <path class="st5" d="M252.23,254.06c-.47.38-.98.79-1.56,1.25-.11.08-.13.24-.05.35.05.06.12.09.2.09.06,0,.11-.02.16-.05.51-.4,1.04-.82,1.57-1.25.05-.05.09-.12.09-.19,0-.06-.02-.12-.06-.16-.08-.11-.24-.12-.35-.04Z"/>
    <path class="st5" d="M242.62,261.22c-.5.34-1.04.71-1.65,1.11-.12.08-.15.23-.07.35.05.07.12.11.21.11.05,0,.09,0,.14-.04.51-.34,1.05-.71,1.66-1.12.06-.05.1-.13.1-.21,0-.05,0-.1-.04-.14-.08-.11-.24-.14-.35-.06Z"/>
    <path class="st5" d="M240.14,262.88h0c-.6.4-1.15.75-1.67,1.09-.06.03-.1.09-.11.15-.02.07,0,.13.03.19.05.07.12.12.21.12.05,0,.1-.02.14-.04.51-.33,1.06-.68,1.68-1.09.07-.04.11-.12.11-.2,0-.06,0-.1-.04-.14-.07-.11-.23-.15-.34-.08Z"/>
    <path class="st5" d="M254.55,252.15h0c-.48.41-.99.83-1.54,1.28-.05.04-.08.1-.09.17,0,.06.02.13.06.18.05.06.12.09.19.09.06,0,.12-.02.16-.05.45-.37.94-.77,1.52-1.27h0s0,0,0,0h.01c.05-.06.08-.12.08-.2,0-.05-.02-.11-.06-.15-.08-.1-.24-.12-.34-.04Z"/>
    <path class="st5" d="M279.06,225.97c-.34.47-.73,1-1.19,1.61-.08.11-.06.27.05.35.05.03.1.05.15.05.08,0,.16-.04.2-.1.42-.56.82-1.1,1.18-1.6h.01s0-.02,0-.02c.03-.04.04-.09.04-.15,0-.08-.04-.15-.1-.19-.11-.08-.28-.06-.35.05Z"/>
    <path class="st5" d="M63.14,255.9c-.51-.39-1.02-.8-1.56-1.23-.11-.09-.27-.07-.36.04-.08.1-.07.26.04.35.6.48,1.1.87,1.58,1.24.04.03.1.05.15.05.08,0,.15-.04.2-.1.03-.04.05-.09.05-.15,0-.08-.03-.15-.09-.2h-.01Z"/>
    <path class="st5" d="M63.94,256.51c-.11-.08-.28-.06-.35.05-.05.05-.06.11-.06.18,0,.07.05.13.1.17.47.36,1.03.78,1.6,1.21.04.03.1.05.15.05.08,0,.15-.04.2-.1.03-.05.05-.1.05-.15,0-.08-.04-.16-.1-.2-.54-.4-1.07-.81-1.59-1.21Z"/>
    <path class="st5" d="M67.94,259.48c-.49-.35-1-.72-1.61-1.17-.11-.08-.27-.05-.35.05-.04.06-.05.12-.04.19,0,.06.04.12.1.16.54.41,1.1.81,1.62,1.18.04.03.09.05.14.05.08,0,.16-.04.21-.11.03-.04.04-.09.04-.14,0-.08-.03-.16-.1-.21h-.01Z"/>
    <path class="st5" d="M56.97,250.84c-.1-.09-.27-.08-.36.02-.09.11-.07.27.03.36.49.42,1,.86,1.5,1.28.01,0,.02,0,.02.02h0s.1.06.15.06c.08,0,.15-.04.2-.09.03-.05.05-.1.05-.16,0-.08-.03-.15-.08-.19-.56-.47-1.06-.9-1.52-1.3Z"/>
    <path class="st5" d="M56.2,250.18c-.45-.4-.97-.86-1.48-1.32-.1-.09-.27-.08-.35.02-.1.1-.09.26.01.35.48.43.99.88,1.5,1.33.05.04.11.06.17.06.07,0,.14-.03.19-.08.04-.05.06-.1.06-.16,0-.08-.03-.15-.09-.2h0Z"/>
    <path class="st5" d="M60.79,254.04c-.45-.37-.93-.76-1.54-1.26-.1-.09-.27-.07-.35.03-.04.05-.06.11-.06.18,0,.07.04.13.09.17.48.39.98.81,1.55,1.27.05.04.1.06.16.06.08,0,.15-.04.19-.1.04-.04.06-.1.06-.16,0-.07-.04-.14-.09-.19h-.01Z"/>
    <path class="st5" d="M68.76,260.06c-.11-.08-.27-.05-.35.06-.03.06-.05.12-.04.19.01.06.05.12.1.16.53.37,1.06.74,1.65,1.14.04.03.09.05.14.05.08,0,.16-.04.21-.11.02-.04.04-.09.04-.14,0-.09-.04-.16-.11-.21-.59-.41-1.16-.81-1.64-1.14Z"/>
    <path class="st5" d="M80.54,267.56c-.68-.39-1.22-.71-1.72-1-.11-.07-.27-.03-.34.09-.07.12-.03.27.09.34.6.36,1.21.71,1.73,1.01.04.02.08.03.12.03.09,0,.18-.05.22-.12.02-.04.03-.08.03-.12.01-.09-.04-.18-.12-.23h-.01Z"/>
    <path class="st5" d="M83.16,269.02c-.57-.31-1.16-.63-1.74-.96-.12-.07-.28-.02-.34.09-.04.06-.04.13-.03.19.02.07.06.12.12.15.63.35,1.2.67,1.75.97.04.02.08.03.12.03.09,0,.18-.05.22-.13.02-.03.03-.07.03-.11,0-.09-.04-.17-.12-.22h0Z"/>
    <path class="st5" d="M73.73,263.41c-.12-.07-.28-.04-.35.08-.07.11-.04.27.07.34.61.39,1.16.75,1.69,1.08.04.02.09.04.14.04.08,0,.16-.05.21-.12.03-.04.04-.08.04-.13,0-.09-.05-.17-.12-.22-.56-.35-1.13-.71-1.68-1.07Z"/>
    <path class="st5" d="M72.88,262.86c-.57-.37-1.12-.74-1.65-1.1-.11-.08-.28-.04-.35.07-.08.11-.05.27.07.35.63.42,1.16.78,1.67,1.11.04.02.08.04.13.04.09,0,.17-.05.21-.12.03-.04.04-.09.04-.14,0-.08-.04-.16-.11-.2t0,0Z"/>
    <path class="st5" d="M77.97,266.06h0c-.5-.31-1.03-.63-1.71-1.05-.12-.07-.28-.03-.35.08-.07.12-.03.28.09.35.53.33,1.09.67,1.71,1.04.04.02.08.03.13.03.08,0,.17-.04.21-.12.02-.04.04-.08.04-.13,0-.08-.05-.16-.12-.2Z"/>
    <path class="st5" d="M44.09,238.31c-.1-.09-.26-.1-.36,0-.1.09-.11.25,0,.35.47.51.91.99,1.36,1.47.05.05.11.08.18.08.06,0,.13-.02.17-.07.05-.04.08-.11.08-.17,0-.07-.02-.13-.07-.18-.42-.46-.87-.93-1.35-1.47Z"/>
    <path class="st5" d="M40.13,233.81c-.08-.1-.25-.12-.35-.03-.11.09-.12.25-.03.35.46.55.89,1.05,1.3,1.53.05.05.12.08.19.08.06,0,.12-.02.17-.06.05-.05.08-.11.08-.18s-.02-.12-.06-.17c-.45-.52-.88-1.03-1.3-1.52Z"/>
    <path class="st5" d="M37.59,230.71c-.39-.5-.79-1.01-1.22-1.57-.09-.1-.25-.12-.35-.04-.06.04-.09.1-.1.16,0,.07.01.14.05.19.46.6.86,1.1,1.24,1.58.05.06.12.09.19.09.06,0,.12-.02.16-.05.06-.05.09-.12.1-.19,0-.06-.02-.12-.06-.16,0,0,0,0,0,0Z"/>
    <path class="st5" d="M38.22,231.5c-.08-.11-.24-.13-.35-.04-.1.09-.12.24-.03.35.45.57.87,1.07,1.27,1.55.04.06.11.09.19.09.06,0,.11-.02.16-.05.06-.05.09-.12.09-.2,0-.06-.02-.11-.06-.16-.46-.55-.87-1.05-1.27-1.54Z"/>
    <path class="st5" d="M34.56,226.75c-.08-.11-.24-.13-.35-.05-.05.04-.09.1-.1.16-.01.07,0,.13.05.19.38.51.78,1.05,1.2,1.61.05.06.12.09.2.09.06,0,.11,0,.15-.05.06-.04.1-.12.1-.2,0-.05-.02-.11-.05-.15-.38-.49-.77-1.02-1.2-1.6Z"/>
    <path class="st5" d="M52.51,246.83c-.1-.09-.26-.08-.35.02-.05.04-.07.11-.07.17,0,.07.03.13.08.18.43.4.94.87,1.47,1.36.05.04.11.06.17.06.07,0,.14-.03.19-.08.04-.05.06-.11.06-.18,0-.06-.03-.13-.08-.17-.49-.45-.99-.91-1.47-1.36Z"/>
    <path class="st5" d="M32.81,224.32c-.07-.11-.24-.14-.35-.06-.11.07-.14.23-.06.34.45.65.81,1.15,1.17,1.64.05.06.12.1.2.1.05,0,.1,0,.15-.05.06-.04.1-.12.1-.2,0-.05-.02-.1-.05-.15-.41-.56-.8-1.1-1.16-1.62Z"/>
    <path class="st5" d="M31.13,221.84c-.07-.11-.24-.15-.35-.07-.05.03-.09.09-.11.15,0,.07,0,.14.04.19.38.58.75,1.13,1.12,1.67.05.07.13.11.21.11.05,0,.1-.02.14-.05.07-.04.11-.12.11-.21,0-.05-.02-.09-.05-.13-.38-.57-.76-1.13-1.11-1.66Z"/>
    <path class="st5" d="M50.34,244.77c-.09-.1-.26-.1-.35,0-.05.05-.07.11-.07.18s.03.13.07.17c.44.43.91.88,1.45,1.39.05.05.11.07.17.07.07,0,.13-.03.18-.08.05-.05.07-.11.07-.18,0-.06-.03-.13-.08-.17-.45-.43-.92-.88-1.44-1.38Z"/>
    <path class="st5" d="M48.22,242.66c-.1-.1-.26-.1-.36,0-.1.1-.1.26,0,.36.45.46.93.93,1.4,1.4,0,0,0,0,.02.02h0s.1.06.16.06c.07,0,.13-.02.18-.07.05-.05.07-.11.07-.18,0-.06-.02-.12-.07-.17-.49-.49-.97-.96-1.41-1.41Z"/>
    <path class="st5" d="M42.09,236.08c-.09-.1-.26-.11-.36-.02-.05.04-.08.1-.08.17-.01.07.02.13.06.18.5.57.93,1.05,1.33,1.5.05.05.12.08.19.08.06,0,.12-.02.17-.06.05-.05.08-.12.08-.19,0-.06-.02-.12-.07-.16-.52-.59-.94-1.06-1.32-1.5Z"/>
    <path class="st5" d="M85.81,270.43c-.54-.27-1.11-.58-1.77-.93-.12-.06-.27-.02-.34.1-.06.13-.02.27.1.34.6.32,1.2.64,1.78.94.03,0,.07.02.11.02.09,0,.18-.05.22-.13.02-.04.03-.08.03-.12,0-.09-.05-.18-.13-.22Z"/>
    <path class="st5" d="M46.13,240.51c-.09-.1-.26-.11-.36,0-.1.09-.1.25,0,.35.55.58.98,1.02,1.39,1.44.04.05.11.08.18.08.06,0,.12-.03.17-.07.05-.05.08-.11.08-.18,0-.06-.03-.13-.08-.18-.54-.55-.98-1.01-1.38-1.43Z"/>
    <path class="st5" d="M140.06,286.38c-.72-.07-1.44-.15-1.98-.21-.14-.02-.26.08-.28.22,0,.07.02.13.06.18.04.06.1.09.17.09.58.07,1.21.14,1.99.21h.01s0,0,0,0c.13,0,.24-.1.25-.23v-.02c0-.13-.1-.24-.23-.25Z"/>
    <path class="st5" d="M158.01,287.17c-.49,0-.99,0-1.49,0h-.51c-.14,0-.25.11-.25.25s.11.25.25.25h.52c.49,0,.99,0,1.48,0,.14,0,.25-.11.25-.25s-.11-.25-.25-.25Z"/>
    <path class="st5" d="M137.09,286.06h0c-.77-.1-1.4-.17-1.98-.25-.14,0-.27.08-.28.21,0,.07.01.13.05.19.04.05.1.08.16.09.63.09,1.25.16,1.99.25h.03c.12,0,.23-.09.25-.22v-.02c0-.13-.09-.24-.22-.25Z"/>
    <path class="st5" d="M131.16,285.24c-.79-.12-1.4-.22-1.98-.32-.14-.03-.26.07-.28.2-.03.14.06.27.2.29.57.1,1.18.2,1.98.32.01.01.02.01.04.01.12,0,.22-.09.24-.22,0,0,0-.02,0-.03,0-.13-.1-.23-.21-.25Z"/>
    <path class="st5" d="M134.12,285.67s0,0,0,0c-.66-.1-1.32-.19-1.97-.29-.14-.02-.26.08-.28.21-.01.07,0,.13.04.19.04.05.1.09.17.1.61.09,1.25.18,1.98.28h.03c.13,0,.23-.09.25-.21v-.04c0-.12-.09-.23-.21-.25Z"/>
    <path class="st5" d="M125.26,284.2c-.77-.15-1.39-.28-1.96-.4-.13-.03-.27.06-.3.19,0,.07,0,.13.04.19.04.06.09.09.16.11.7.15,1.34.28,1.95.4h.06c.12,0,.22-.08.24-.2,0-.02,0-.03,0-.05,0-.12-.09-.22-.2-.24Z"/>
    <path class="st5" d="M128.2,284.75c-.77-.14-1.39-.25-1.96-.36-.14-.03-.27.06-.3.2-.02.13.07.26.2.29.57.11,1.18.22,1.97.36h.05c.12,0,.22-.08.24-.2,0-.02,0-.04,0-.05,0-.12-.09-.22-.21-.24Z"/>
    <path class="st5" d="M149.03,287.02c-.67-.03-1.34-.07-2-.1-.13,0-.25.1-.26.23,0,.07,0,.13.06.18.04.05.1.08.17.09.63.03,1.29.06,2.01.1.14,0,.25-.11.26-.24v-.02c0-.13-.11-.24-.24-.24Z"/>
    <path class="st5" d="M152.02,287.12c-.6-.02-1.3-.04-2-.06-.14,0-.25.1-.26.24,0,.06.02.13.07.18.05.04.11.07.17.08.67.02,1.34.04,2.01.06.14,0,.25-.11.25-.24,0-.14-.1-.26-.24-.26Z"/>
    <path class="st5" d="M155.01,287.17c-.59,0-1.22,0-1.99-.03h0c-.14,0-.25.11-.25.25,0,.06.02.13.07.18s.11.07.18.07c.66.02,1.33.03,2,.03.14,0,.25-.11.25-.25,0-.13-.11-.25-.25-.25Z"/>
    <path class="st5" d="M146.04,286.86s-.01,0-.01,0c-.61-.04-1.26-.09-1.99-.14-.13,0-.25.09-.26.23,0,.07.01.13.05.18.05.05.11.08.18.09.65.05,1.33.09,2,.14h0c.13,0,.24-.11.25-.24h0c0-.14-.1-.26-.23-.26Z"/>
    <path class="st5" d="M122.32,283.59c-.74-.16-1.36-.3-1.94-.44-.14-.03-.27.06-.3.19-.02.06,0,.13.03.19.03.06.09.1.16.11.61.14,1.27.29,1.95.44.02,0,.03,0,.05,0,.12,0,.22-.09.25-.2v-.05c0-.12-.08-.22-.2-.25Z"/>
    <path class="st5" d="M143.05,286.64c-.69-.05-1.36-.11-1.99-.17-.14,0-.26.09-.27.23,0,.14.09.26.22.27.59.06,1.23.11,2,.17h.02c.13,0,.24-.1.25-.23h0c0-.14-.1-.25-.23-.27Z"/>
    <path class="st5" d="M93.9,274.33h0c-.67-.3-1.26-.57-1.82-.83-.12-.05-.27,0-.33.13-.06.12,0,.27.12.33.54.25,1.12.51,1.83.82.03.02.07.02.1.02.1,0,.19-.06.23-.15,0-.03.02-.06.02-.09,0-.1-.05-.19-.15-.23Z"/>
    <path class="st5" d="M119.41,282.93c-.58-.14-1.2-.29-1.94-.48-.13-.04-.27.05-.31.18-.03.13.05.27.18.3.63.16,1.29.32,1.95.48.02,0,.04,0,.06,0,.11,0,.21-.08.24-.19,0-.02,0-.04,0-.07,0-.11-.09-.21-.19-.23Z"/>
    <path class="st5" d="M99.43,276.64h-.01c-.59-.24-1.2-.48-1.85-.75-.12-.05-.27.01-.32.14-.03.06-.03.13,0,.19.02.06.07.11.13.13.71.29,1.29.53,1.84.75h.03s.06.02.08.02c.11,0,.2-.06.24-.16,0-.03,0-.06,0-.09,0-.11-.06-.19-.15-.23Z"/>
    <path class="st5" d="M91.18,273.08c-.6-.28-1.2-.57-1.81-.86-.12-.05-.27,0-.33.12-.06.13,0,.27.12.34.54.26,1.13.54,1.81.86.03,0,.07.02.1.02.1,0,.19-.06.23-.15,0-.03.02-.07.02-.1,0-.1-.06-.19-.14-.23Z"/>
    <path class="st5" d="M102.22,277.71c-.55-.21-1.15-.43-1.86-.71-.13-.05-.28.02-.33.15-.02.06-.02.12,0,.19.02.06.07.11.13.13.63.24,1.25.48,1.88.71.03.01.05.01.09.01.1,0,.19-.06.23-.16.01-.02.01-.05.01-.08,0-.11-.06-.2-.16-.24Z"/>
    <path class="st5" d="M88.49,271.79s-.01,0-.01,0c-.58-.28-1.18-.58-1.79-.89-.11-.06-.27,0-.33.11-.03.06-.04.13-.02.19.02.06.07.12.13.14.6.31,1.19.61,1.75.89,0,0,.02,0,.03,0t.02.01s.06.02.1.02c.09,0,.18-.05.22-.14.02-.03.03-.07.03-.11,0-.09-.05-.17-.13-.22Z"/>
    <path class="st5" d="M96.65,275.51c-.61-.26-1.23-.52-1.83-.78-.13-.06-.28,0-.33.12-.03.07-.03.13-.01.2.03.06.08.11.14.13.74.33,1.31.57,1.84.79.03,0,.06.02.09.02.11,0,.2-.06.23-.15.02-.03.02-.07.02-.1,0-.1-.05-.19-.15-.23Z"/>
    <path class="st5" d="M113.61,281.42c-.77-.22-1.36-.39-1.92-.56-.13-.03-.27.04-.31.17-.04.13.04.27.17.32.57.16,1.24.36,1.92.55.02,0,.04,0,.07,0,.11,0,.21-.07.24-.18,0-.03,0-.05,0-.08,0-.11-.08-.2-.18-.23Z"/>
    <path class="st5" d="M116.5,282.2c-.58-.15-1.21-.32-1.93-.51-.13-.04-.27.04-.31.17-.03.14.04.27.18.31.59.16,1.21.33,1.91.51.01,0,.02,0,.02.01h.07c.11,0,.21-.07.24-.19,0-.02,0-.04,0-.06,0-.11-.08-.21-.19-.24Z"/>
    <path class="st5" d="M110.73,280.58c-.63-.19-1.27-.39-1.9-.59-.13-.05-.28.03-.32.16-.02.06-.01.13.02.19.03.06.08.1.15.13.62.19,1.26.39,1.91.59.02.01.05.01.07.01.11,0,.21-.07.24-.18,0-.02,0-.05,0-.07,0-.11-.07-.21-.18-.24Z"/>
    <path class="st5" d="M105.04,278.72c-.64-.22-1.28-.45-1.88-.66-.13-.05-.28.02-.32.14-.02.07-.02.13,0,.19s.08.11.14.13c.58.21,1.19.43,1.89.68.02,0,.05,0,.08,0,.1,0,.2-.07.23-.17.01-.02.02-.05.02-.08,0-.11-.07-.2-.17-.24Z"/>
    <path class="st5" d="M107.88,279.68c-.59-.19-1.21-.4-1.9-.63-.13-.05-.27.03-.31.16-.05.13.02.27.15.31.64.22,1.28.43,1.9.64.03,0,.05,0,.08,0,.11,0,.2-.07.24-.17.01-.03.01-.05.01-.08,0-.11-.07-.2-.17-.24Z"/>
  </g>
</svg>