<?xml version="1.0" encoding="UTF-8"?>
<svg id="Livello_1" xmlns="http://www.w3.org/2000/svg" version="1.1" viewBox="0 0 284.55 279.39">
  <!-- Generator: Adobe Illustrator 29.8.1, SVG Export Plug-In . SVG Version: 2.1.1 Build 2)  -->
  <defs>
    <style>
      .st0 {
        fill: none;
        stroke: #131211;
        stroke-linecap: round;
        stroke-linejoin: round;
        stroke-width: 1.2px;
      }
    </style>
  </defs>
  <path class="st0" d="M265.53,206.49s-.82,1.47-2.5,3.98l1.4-5.4c.72.91,1.1,1.42,1.1,1.42Z"/>
  <path class="st0" d="M281.17,171.69v.15c0,3.89-.89,10.29-22.27,26.83,2.55,2.77,4.43,5.03,5.53,6.4l-1.4,5.4c-9.58,14.31-47.2,62.33-120.75,62.33-.73,0-1.45-.03-2.18-.03v.03l-.04-.03c-84.83-1.13-121.02-66.28-121.02-66.28,0,0,2.38-3.21,6.63-7.82-21.38-16.54-22.28-22.94-22.28-26.83v-.03c0-4.61.01-9.08,6.01-21.77,6.01-12.72,4.88-23.19,21.09-62.04,12.02-31.31,31.02-43.33,55.9-60.65C111.25,10.02,130.26,3.31,142.28,3.31s31.02,6.71,55.9,24.04c24.86,17.33,43.87,29.35,55.89,60.65,16.2,38.85,15.09,49.32,21.09,62.04,5.94,12.58,6.01,17.09,6.01,21.65Z"/>
</svg>