<?xml version="1.0" encoding="UTF-8"?>
<svg id="Livello_1" xmlns="http://www.w3.org/2000/svg" version="1.1" viewBox="0 0 577.91 1024">
  <!-- Generator: Adobe Illustrator 29.8.1, SVG Export Plug-In . SVG Version: 2.1.1 Build 2)  -->
  <defs>
    <style>
      .st0, .st1, .st2 {
        fill: none;
        stroke-linecap: round;
        stroke-linejoin: round;
      }

      .st0, .st2 {
        stroke: #131211;
      }

      .st3 {
        opacity: .57;
      }

      .st4 {
        fill: #fff;
      }

      .st5 {
        fill: #0dff00;
      }

      .st6 {
        fill: #0043ff;
      }

      .st7 {
        fill: #131211;
      }

      .st1 {
        stroke: #000209;
        stroke-dasharray: 4 3.5 0 0;
        stroke-width: .5px;
      }

      .st2 {
        stroke-width: 1.2px;
      }
    </style>
  </defs>
  <path class="st4" d="M391.72,405.66v25.21c0,10.31-15.11,17.24-37.58,17.24h-54.4c-12.38,0-16.36,11.95-16.36,26.77v216c-3.03.17-6.12.25-9.29.25s-6.26-.08-9.29-.25v-216c0-14.82-3.97-26.77-16.36-26.77h-54.4c-22.48,0-37.58-6.93-37.58-17.24v-25.21c0-18.82,73.39-36.48,117.64-36.48s117.64,17.67,117.64,36.48Z"/>
  <path class="st5" d="M401.91,405.66v25.21c0,16.9-18.31,27.41-47.77,27.41h-45.09c-10.17,0-15.05,7.31-15.05,25.87v205.76c-3.44.44-6.98.76-10.61.97v-216c0-14.82,3.98-26.77,16.36-26.77h54.4c22.48,0,37.58-6.93,37.58-17.24v-25.21c0-18.82-73.39-36.48-117.64-36.48s-117.64,17.67-117.64,36.48v25.21c0,10.31,15.1,17.24,37.58,17.24h54.4c12.39,0,16.36,11.95,16.36,26.77v216c-3.63-.2-7.17-.53-10.61-.97v-205.76c0-9.29-1.22-15.75-3.71-19.9-2.48-4.14-6.24-5.97-11.32-5.97h-45.09c-29.46,0-47.77-10.51-47.77-27.41v-25.21c0-32.31,92.61-46.65,127.81-46.65h.02c35.19,0,127.81,14.34,127.81,46.65Z"/>
  <path class="st6" d="M405.24,490.1v.02c.24.78,7.14,23.87,0,35.84-1.83,3.09-3.98,6.36-6.17,9.54,10.32,7.44,13.58,15.72,10.71,25.82,0,0,5.58,4.42,1.92,18.36-3.41,13.02-28.24,99.04-118.3,110.23v-205.76c0-18.56,4.86-25.87,15.04-25.87h45.09c29.46,0,47.77-10.51,47.77-27.41v-25.21c0-32.31-92.61-46.65-127.81-46.65-17.6,0-49.55,3.59-77.1,11.21-27.55,7.63-50.71,19.29-50.71,35.45v25.21c0,16.9,18.31,27.41,47.77,27.41h45.09c5.09,0,8.85,1.83,11.34,5.97,2.48,4.15,3.7,10.61,3.7,19.9v205.76c-90.05-11.19-114.89-97.21-118.3-110.23-3.64-13.94,1.93-18.36,1.93-18.36-2.88-10.1.37-18.38,10.71-25.82-2.19-3.19-4.34-6.46-6.19-9.54-7.14-11.97-.24-35.06,0-35.84v-.02c-6.12-13.33-12.43-28.36-15.53-39.77-7.07-26.09-3.98-58.83,6.65-138.44,10.61-79.59,79.59-117.64,140.62-117.64s130.03,38.04,140.64,117.64c10.61,79.61,13.71,112.35,6.63,138.44-3.1,11.41-9.41,26.45-15.53,39.77Z"/>
  <path class="st2" d="M141.75,490.1s-7.25,23.68,0,35.84c7.25,12.16,19.41,27.42,19.41,27.42"/>
  <path class="st2" d="M147.93,535.5c-15.3,11.02-15.08,23.84-2.47,41.75,12.6,17.91,25.65,37.37,25.65,37.37"/>
  <g class="st3">
    <path class="st7" d="M163.37,576.81c26.55,10.55,50.42,27.26,71.64,46.21-2.79-2.23-5.57-4.45-8.42-6.59-19.77-15.12-40.6-29.14-63.23-39.62h0Z"/>
  </g>
  <path class="st2" d="M186.67,221.48c0,50.39,8.1,57.69,8.1,86.21v62.8"/>
  <path class="st0" d="M200.28,369.17c16.38-16.7,27.66-19.35,27.66-19.35"/>
  <path class="st0" d="M178.2,457.21c-3.66,40.54,7.01,110.64,16.77,136.29,3.95,2.52,6.44,4.75,6.44,13.38s-11.97,12.27-11.97,32.51v24.6"/>
  <path class="st1" d="M184.66,457.21c-3.66,40.54,8.26,115.64,18.02,141.29,3.95,2.52,5.19,2.29,5.19,8.38,0,8.62-11.97,12.27-11.97,32.51v24.6"/>
  <path class="st1" d="M193.9,221.48c0,50.39,8.1,57.69,8.1,86.21s.07,60.86.07,60.86"/>
  <path class="st2" d="M389.81,521.52s23.88-45.11,30.96-71.2c7.08-26.09,3.98-58.82-6.63-138.42-10.61-79.61-79.61-117.64-140.64-117.64-61.03,0-130.02,38.03-140.64,117.64-10.61,79.61-13.71,112.33-6.63,138.42,7.08,26.09,30.96,71.2,30.96,71.2"/>
  <path class="st2" d="M405.24,490.1s7.25,23.68,0,35.84c-7.25,12.16-19.41,27.42-19.41,27.42"/>
  <path class="st2" d="M399.05,535.5c15.3,11.02,15.08,23.84,2.47,41.75-12.6,17.91-25.65,37.37-25.65,37.37"/>
  <path class="st2" d="M409.77,561.31s5.57,4.44,1.93,18.37c-3.65,13.93-31.84,111.45-138.2,111.45-106.36,0-134.55-97.52-138.2-111.45-3.65-13.93,1.93-18.37,1.93-18.37"/>
  <g class="st3">
    <path class="st7" d="M383.61,576.81c-22.63,10.48-43.45,24.5-63.23,39.62-2.85,2.14-5.63,4.37-8.42,6.6,21.22-18.96,45.09-35.67,71.64-46.22h0Z"/>
  </g>
  <path class="st2" d="M360.32,221.48c0,50.39-8.1,57.69-8.1,86.21,0,28.53,0,62.8,0,62.8"/>
  <path class="st0" d="M282.78,690.87v-149.67s0-51.52,0-66.34c0-14.82,3.98-26.76,16.36-26.76h54.4c22.48,0,37.59-6.93,37.59-17.25v-25.21c0-18.81-73.39-36.49-117.64-36.49-44.25,0-117.64,17.67-117.64,36.49v25.21c0,10.32,15.11,17.25,37.59,17.25h54.4c12.38,0,16.36,11.94,16.36,26.76v216"/>
  <path class="st0" d="M293.4,689.86v-205.71c0-18.57,4.87-25.87,15.04-25.87h0s45.09,0,45.09,0c29.46,0,47.77-10.51,47.77-27.41v-25.21c0-32.31-92.61-46.65-127.81-46.65h-.01c-35.19,0-127.81,14.34-127.81,46.65v25.21c0,16.9,18.31,27.41,47.77,27.41h45.09c10.17,0,15.04,7.3,15.04,25.88v205.71"/>
  <path class="st0" d="M346.7,369.17c-16.38-16.7-27.66-19.35-27.66-19.35"/>
  <path class="st0" d="M368.79,457.21c3.66,40.54-7.01,110.64-16.77,136.29-3.95,2.52-6.44,4.75-6.44,13.38,0,8.62,11.97,12.27,11.97,32.51,0,14.26,0,24.6,0,24.6"/>
  <path class="st1" d="M362.33,457.21c3.66,40.54-8.26,115.64-18.02,141.29-3.95,2.52-5.19,2.29-5.19,8.38,0,8.62,11.97,12.27,11.97,32.51,0,14.26,0,24.6,0,24.6"/>
  <path class="st1" d="M353.09,221.48c0,50.39-8.1,57.69-8.1,86.21,0,28.53-.07,60.86-.07,60.86"/>
</svg>