<?xml version="1.0" encoding="UTF-8"?>
<svg id="Livello_2" xmlns="http://www.w3.org/2000/svg" version="1.1" viewBox="0 0 313.04 302.09">
  <!-- Generator: Adobe Illustrator 29.8.1, SVG Export Plug-In . SVG Version: 2.1.1 Build 2)  -->
  <defs>
    <style>
      .st0 {
        fill: #fff;
        stroke: #000;
        stroke-miterlimit: 10;
      }
    </style>
  </defs>
  <path class="st0" d="M156.52,14.66c-12.02,0-31.03,6.71-55.89,24.04-24.88,17.32-43.88,29.34-55.9,60.65-16.21,38.85-15.08,49.32-21.09,62.04-6,12.69-6.01,17.16-6.01,21.77,0,0,0,.02,0,.03h0c0,3.89.9,10.29,22.28,26.83,0,0,0,0,0,0h0c-4.25,4.61-6.63,7.82-6.63,7.82,0,0,31.66,56.99,105.15,65.29v.02s0-.01.01-.02c5.08.57,10.37.91,15.86.99l.04.03s0-.02,0-.03c.73,0,1.45.03,2.18.03h0c86.43,0,123.25-66.31,123.25-66.31,0,0-2.38-3.21-6.63-7.82,0,0,0,0,0,0,21.38-16.54,22.27-22.94,22.27-26.83h0s0,0,0,0c0-.05,0-.1,0-.15,0-4.56-.07-9.07-6.01-21.65-6-12.72-4.89-23.19-21.09-62.04-12.02-31.3-31.03-43.32-55.89-60.65-24.88-17.33-43.88-24.04-55.9-24.04"/>
</svg>