<?xml version="1.0" encoding="UTF-8"?>
<svg id="Livello_1" xmlns="http://www.w3.org/2000/svg" version="1.1" viewBox="0 0 374.09 215.71">
  <!-- Generator: Adobe Illustrator 29.8.1, SVG Export Plug-In . SVG Version: 2.1.1 Build 2)  -->
  <defs>
    <style>
      .st0 {
        fill: none;
        stroke: #131211;
        stroke-linecap: round;
        stroke-linejoin: round;
        stroke-width: 1.2px;
      }
    </style>
  </defs>
  <path class="st0" d="M332.76,170.7c-3.64,24.28-16.73,33.35-28.72,36.96-8,2.42-16.59-1-20.9-8.15-18.09-30.05-48.65-38.39-111.93-48.3-29.31-4.59-70.4-1.37-88.74,11.91,0,0-.01.01-.02.02-10.38,7.52-17.86,14.52-21.03,19.03-.76,1.07-1.27,1.99-1.52,2.76-3.25,9.71-2.22,12.56-2.22,12.56l-2.89,1.75-4.55,2.74c-17.39-21.23-10.85-32.07,6.93-62.28,17.79-30.21,47.03-59.82,96.93-88.81,49.89-29,105.24-43.12,105.24-43.12,0,0,5.08-3.7,9.53,9.25.62,1.79,1.42,3.5,2.37,5.21.79,1.44,1.7,2.86,2.72,4.36,6.58,9.65,17.78,21.78,32.6,50.94,19.85,39.1,31.54,57.49,26.2,93.17Z"/>
  <path class="st0" d="M82.45,163.14c-.55.91-18.59,30.05-24.77,34.35,0,0-1.03-2.85,2.22-12.56.25-.77.76-1.69,1.52-2.76,3.17-4.51,10.65-11.51,21.03-19.03Z"/>
</svg>