<?xml version="1.0" encoding="UTF-8"?>
<svg id="Livello_2" xmlns="http://www.w3.org/2000/svg" version="1.1" viewBox="0 0 350 350">
  <!-- Generator: Adobe Illustrator 29.8.1, SVG Export Plug-In . SVG Version: 2.1.1 Build 2)  -->
  <defs>
    <style>
      .st0 {
        fill: #ffda00;
      }

      .st1 {
        fill: #ff7900;
      }

      .st2 {
        fill: #0043ff;
      }

      .st3 {
        fill: none;
        stroke: #131211;
        stroke-linecap: round;
        stroke-linejoin: round;
        stroke-width: 1.2px;
      }

      .st4 {
        fill: #00ff1e;
      }
    </style>
  </defs>
  <path class="st0" d="M334.8,255.28c0-15.98-21.39-16.37-49.82-12.84-28.44,3.52-37.96,21.26-65.61,21.26-6.75,0-11.8-.38-15.78-.96-12.3-1.78-14.34-5.44-24.79-5.44-9.52,0-18.99,2.6-28.65,4.18-4.36.71-8.76,1.21-13.22,1.17-18.91,0-51.52-15.78-92.73-17.48-16.57,0-29.22,3.66-29.22,10.44-.07-14.51,3.26-57.65,10.69-70.57,6.01-10.43,15.72-24.19,25.94-33.93l.05-.05c13.94-14.58,20.21-33.33,37.01-44.28,16.83-10.95,29.16-23.48,43.05-30.91,13.89-7.43,15.06-19.96,38.74-19.96,15.65,0,14.57,5.87,22.2,7.83s11.06-2.25,28.67,11.15c17.6,13.4,32.34,21.46,54.78,47.94,22.43,26.47,41.22,37.69,46.43,67.95,5.22,30.26,14.02,47.48,12.26,64.5Z"/>
  <path class="st4" d="M203.59,262.74c-3.05,8.99-13.7,20.73-22.06,25.63-.18.1-.35.2-.52.3-2.51,1.49-3.9,3.26-3.9,5.42,0-1.42-1.08-2.96-3.25-4.54h-.01c-.43-.5-14.28-16.26-23.7-28.07,9.66-1.58,19.13-4.18,28.65-4.18,10.45,0,12.49,3.66,24.79,5.44Z"/>
  <path class="st2" d="M173.85,289.54c-6.38-4.63-22.14-9.59-47.35-12.8-33.78-4.3-46.7-3.52-73.7-6.39-27-2.87-37.82-7.96-37.82-14.74s12.65-10.44,29.22-10.44c41.21,1.7,73.82,17.48,92.73,17.48,4.46.04,8.86-.46,13.22-1.17,9.42,11.81,23.27,27.57,23.7,28.06ZM284.98,242.44c-28.44,3.52-37.96,21.26-65.61,21.26-6.75,0-11.8-.38-15.78-.96-3.05,8.99-13.7,20.73-22.06,25.63,12.3-6.69,48.21-7.26,81.27-9.8,40.7-3.13,70.24-6.27,72-23.29,0-15.98-21.39-16.37-49.82-12.84Z"/>
  <g>
    <path class="st1" d="M219.33,251.32c-.65,0-1.32,0-2,0-.07,0-.13-.03-.18-.07-.05-.05-.07-.11-.07-.18,0-.14.11-.25.25-.25.71,0,1.37,0,2,0,.14,0,.25.12.25.25,0,.14-.11.25-.25.25ZM220.33,251.32c-.14,0-.25-.11-.25-.25,0-.07.02-.13.07-.18.05-.05.11-.07.18-.07.65,0,1.32-.03,1.98-.06.13,0,.26.1.26.23.01.14-.09.26-.23.26-.68.04-1.35.06-2.01.07h0ZM216.33,251.3h0c-.71-.01-1.37-.03-2-.05-.14-.01-.25-.12-.25-.26,0-.13.12-.24.25-.24h0c.67.02,1.34.04,2,.05.13,0,.24.11.24.25s-.11.25-.25.25ZM213.33,251.21h0c-.63-.02-1.29-.05-2.01-.09h0c-.13-.02-.23-.13-.23-.26h0c0-.14.14-.23.26-.24.7.04,1.36.07,2,.09.13,0,.24.12.24.26,0,.14-.12.24-.26.24ZM223.34,251.2h-.02c-.13,0-.24-.1-.25-.24h0c0-.14.1-.25.23-.26h.04c.64-.04,1.3-.1,1.95-.16.14,0,.26.09.27.22.02.14-.08.26-.22.28-.66.06-1.33.12-2,.16h0ZM210.34,251.06h0c-.65-.05-1.3-.09-2-.15-.13,0-.23-.12-.23-.25v-.02c0-.14.12-.25.27-.23.64.05,1.31.1,1.99.15.07,0,.13.03.17.08s.07.12.06.18c0,.13-.12.24-.25.24ZM226.31,250.93c-.13,0-.24-.1-.25-.22v-.03c0-.13.09-.23.22-.25.64-.07,1.3-.16,1.97-.27.15-.02.27.08.28.22.03.13-.07.26-.2.28-.69.1-1.34.19-1.98.27h-.04ZM207.36,250.82h-.02c-.66-.07-1.32-.14-2-.22h0c-.12-.02-.21-.13-.21-.25v-.03c.02-.13.14-.23.27-.21t0,0h.03c.65.08,1.31.15,1.95.21.14,0,.24.13.23.27-.02.13-.13.23-.25.23ZM229.27,250.5c-.12,0-.22-.09-.24-.21,0,0,0-.02,0-.03,0-.13.09-.23.21-.25.67-.12,1.33-.25,1.95-.38.14-.03.27.06.3.19.03.14-.06.27-.19.3-.66.14-1.33.27-1.97.38h-.05ZM204.38,250.48h-.03c-.74-.1-1.39-.2-1.98-.3-.13-.02-.22-.12-.21-.25v-.03c.02-.14.15-.23.29-.21.61.1,1.26.2,1.96.29.07,0,.13.04.17.1.04.05.06.12.05.18-.02.12-.13.22-.25.22ZM137.55,250.28c-.14,0-.25-.11-.25-.25,0-.13.11-.24.25-.24.7,0,1.35-.02,1.99-.04.11,0,.25.1.26.24,0,.06-.02.13-.07.18-.04.05-.1.07-.17.08-.73.02-1.39.03-2.01.03ZM136.55,250.28h0c-.64,0-1.32-.03-2.02-.07-.13-.01-.23-.12-.23-.26h0c0-.14.13-.24.27-.24.65.04,1.32.07,1.98.07.14,0,.25.12.25.25,0,.14-.12.25-.25.25ZM140.56,250.2h0c-.13,0-.24-.1-.25-.23v-.02c0-.13.1-.24.24-.25.61-.03,1.26-.07,1.98-.13.13,0,.26.09.27.23.01.07,0,.13-.05.18-.05.05-.11.08-.17.09-.74.06-1.39.1-2.01.13h0ZM133.55,250.14h-.02c-.68-.06-1.35-.13-1.98-.21h-.02c-.12,0-.22-.12-.21-.25v-.03c0-.13.13-.24.27-.22.72.09,1.36.16,1.99.21.06,0,.12.03.16.08.05.05.07.12.06.19-.01.13-.11.23-.25.23ZM201.42,250.02s-.03,0-.04,0c-.67-.12-1.33-.25-1.97-.38-.12-.03-.2-.13-.2-.25,0-.01,0-.03,0-.05.03-.13.17-.22.3-.19.63.14,1.29.26,1.95.38.13.03.22.16.2.29-.02.12-.13.21-.25.21ZM143.54,249.98c-.13,0-.24-.1-.25-.23v-.02c0-.13.1-.24.23-.25.63-.06,1.28-.13,1.98-.21.14,0,.26.08.28.22,0,.07-.01.13-.05.18-.04.06-.1.09-.17.1-.74.08-1.39.15-2,.21h-.02ZM232.21,249.91c-.12,0-.22-.08-.24-.19,0-.02,0-.03,0-.05,0-.12.08-.22.2-.25.64-.15,1.28-.31,1.93-.48.12-.04.27.05.3.18.02.06,0,.13-.02.19-.04.05-.09.1-.15.11-.68.18-1.32.34-1.94.48h0s-.04,0-.06,0ZM130.57,249.81s-.02,0-.03,0c-.69-.09-1.33-.19-1.98-.3t0,0c-.12-.03-.21-.13-.2-.25v-.04c.02-.14.14-.23.29-.21.64.11,1.3.21,1.97.3.06,0,.12.04.16.09.04.06.06.12.05.19-.02.12-.12.22-.25.22ZM146.52,249.65c-.12,0-.23-.1-.25-.22v-.04c0-.12.1-.23.22-.24.61-.08,1.26-.17,1.98-.28.13-.02.26.08.28.21.02.14-.07.26-.21.29-.76.11-1.39.2-1.98.27-.02,0-.03,0-.04,0ZM198.49,249.41h-.06c-.66-.16-1.32-.32-1.94-.49-.11-.04-.19-.14-.18-.25,0-.02,0-.04,0-.06.03-.13.17-.21.3-.18.61.17,1.26.34,1.93.49.13.03.21.17.18.3-.02.12-.12.19-.24.19ZM127.61,249.34h-.04c-.62-.11-1.26-.23-1.97-.37-.12-.03-.2-.13-.21-.25,0,0,.01-.03.01-.05.02-.13.15-.23.29-.19.79.15,1.4.26,1.96.36.14.03.23.16.21.29-.03.12-.13.21-.25.21ZM149.49,249.22c-.12,0-.23-.09-.24-.22,0-.01,0-.02,0-.03,0-.13.09-.23.21-.25.77-.12,1.4-.23,1.97-.33.15,0,.27.07.29.21,0,.06,0,.13-.04.18-.04.06-.1.09-.16.11-.67.11-1.34.22-1.98.32-.01,0-.02,0-.04,0ZM235.11,249.16c-.11,0-.21-.07-.24-.18-.01-.02-.01-.05-.01-.07,0-.11.08-.21.19-.24.58-.16,1.2-.35,1.9-.57.12-.05.27.03.31.15.04.14-.03.28-.16.32-.66.21-1.29.41-1.92.59h-.07ZM124.66,248.77h-.05c-.69-.14-1.33-.28-1.96-.42-.11-.03-.2-.13-.19-.25v-.05c.03-.13.17-.22.3-.19.63.14,1.27.28,1.95.42.07,0,.13.05.16.11.04.05.05.12.04.18-.02.12-.13.2-.25.2ZM152.45,248.72c-.12,0-.23-.09-.25-.21v-.04c0-.12.09-.23.21-.25.63-.11,1.29-.23,1.96-.36.14-.03.27.07.29.2.03.14-.06.27-.2.29-.75.14-1.37.26-1.97.36,0,0-.03,0-.04,0ZM195.6,248.65s-.05,0-.07,0c-.62-.18-1.25-.37-1.91-.59h-.01c-.1-.03-.17-.13-.17-.24,0-.02,0-.05.01-.07.04-.13.19-.21.32-.16.68.22,1.3.41,1.9.58.06.02.11.06.15.12.03.06.04.13.02.19-.04.11-.13.18-.24.18ZM237.97,248.27c-.11,0-.2-.07-.23-.17,0-.03-.02-.06-.02-.09,0-.1.07-.2.17-.23.64-.22,1.27-.45,1.87-.67.12-.05.28.02.33.14.02.06.02.13,0,.19-.03.06-.08.11-.14.13-.6.23-1.23.46-1.89.68-.02,0-.05.02-.08.02ZM155.4,248.17c-.12,0-.22-.08-.25-.2v-.05c0-.12.09-.22.2-.24.66-.13,1.31-.26,1.97-.38.13-.04.26.06.29.19.03.14-.06.27-.2.3-.59.12-1.24.24-1.96.38h-.05ZM121.73,248.14s-.04,0-.06,0c-.64-.15-1.3-.3-1.95-.46-.11-.02-.18-.12-.19-.23,0-.03,0-.05,0-.07.03-.13.17-.22.3-.18.54.13,1.25.29,1.95.45.06.02.12.06.15.11.04.06.05.13.04.19-.03.12-.13.2-.25.2ZM192.74,247.75s-.05,0-.08-.01c-.5-.17-.99-.34-1.47-.51l-.42-.14c-.09-.03-.16-.12-.17-.23,0-.03,0-.06.02-.08.04-.13.19-.21.32-.16l.4.14c.48.16.98.33,1.48.5.13.04.2.19.16.32-.03.1-.13.17-.24.17ZM158.35,247.6c-.12,0-.22-.08-.25-.2v-.05c0-.12.08-.22.2-.24.65-.13,1.31-.26,1.96-.38.13-.04.27.06.3.19,0,.07,0,.13-.04.19-.04.05-.1.09-.16.1-.62.12-1.23.24-1.85.36l-.11.03h-.05ZM118.81,247.45s-.04,0-.06,0c-.58-.14-1.26-.31-1.94-.48-.11-.03-.19-.13-.19-.24,0-.03,0-.05.01-.07.03-.13.17-.21.3-.18.53.14,1.06.27,1.58.4l.36.08c.06.02.12.06.15.12.04.05.05.12.03.19-.02.11-.13.19-.24.19ZM240.78,247.23c-.1,0-.19-.06-.23-.16,0-.03-.02-.06-.02-.08,0-.11.06-.2.15-.24h0s.02-.01.03-.01c.58-.23,1.17-.47,1.81-.75.13-.05.28.01.33.13.06.13,0,.28-.13.33-.62.27-1.24.52-1.85.76,0,0,0,0-.02,0h0s-.05,0-.08,0ZM161.29,247.03c-.12,0-.22-.08-.24-.2,0-.02,0-.04,0-.05,0-.12.09-.22.21-.25.65-.12,1.31-.24,1.96-.37.14-.02.27.07.3.2,0,.07,0,.14-.04.19-.04.06-.1.1-.16.11-.43.08-.86.16-1.3.24-.22.04-.44.08-.67.13h-.05ZM189.91,246.79s-.05,0-.08,0c-.7-.24-1.32-.43-1.89-.6h0c-.11-.03-.18-.13-.18-.24,0-.02,0-.04,0-.07.03-.13.18-.2.31-.17.61.18,1.24.38,1.91.6.06.02.11.06.14.12.03.06.04.13.02.2-.04.1-.14.17-.24.17ZM115.9,246.72s-.04,0-.06,0c-.64-.16-1.29-.33-1.94-.5-.11-.03-.19-.13-.19-.24,0-.02,0-.05,0-.07.04-.13.18-.21.31-.18l.15.04c.6.16,1.2.31,1.78.47.14.03.22.17.18.3-.03.11-.13.19-.24.19ZM164.24,246.48c-.12,0-.22-.08-.24-.2,0-.02-.01-.04-.01-.05.01-.12.09-.22.21-.25l.12-.02c.61-.1,1.24-.21,1.86-.32.12-.02.26.07.29.21.02.14-.08.27-.21.29-.57.09-1.18.2-1.97.34h-.05ZM243.55,246.07c-.1,0-.19-.05-.22-.15-.02-.03-.03-.06-.03-.09,0-.1.06-.19.15-.23.66-.3,1.26-.57,1.82-.83.13-.06.28,0,.33.12.06.13,0,.28-.12.33-.7.33-1.28.59-1.83.83-.03.02-.06.02-.1.02ZM167.21,245.98c-.13,0-.23-.09-.25-.21v-.04c0-.12.08-.23.21-.25.71-.11,1.36-.21,1.98-.3.12-.02.26.08.28.22.02.13-.07.26-.21.28-.6.08-1.25.18-1.97.3-.01,0-.03,0-.04,0ZM112.99,245.96s-.04,0-.06-.01c-.5-.13-1.01-.26-1.52-.4l-.41-.11h0c-.11-.04-.18-.13-.18-.24,0-.02.01-.04.01-.06.04-.13.17-.21.3-.18.01-.01.01,0,.02,0,.46.12.92.25,1.37.37l.55.14c.07.02.12.06.15.12.04.05.04.12.03.19-.03.11-.13.18-.25.18ZM187.05,245.93s-.05,0-.07,0c-.67-.18-1.3-.32-1.93-.44-.11-.02-.2-.12-.2-.24,0-.02,0-.04,0-.05.02-.14.15-.23.29-.2.66.13,1.3.27,1.96.44.13.04.21.18.18.31-.03.11-.13.19-.24.19ZM170.17,245.55c-.12,0-.23-.1-.24-.22v-.04c0-.12.09-.23.21-.24.63-.08,1.28-.16,2-.24.12,0,.26.09.27.22.02.14-.08.26-.22.28-.68.07-1.34.15-1.98.23-.02.01-.03.01-.04.01ZM184.11,245.32s-.02,0-.03,0c-.67-.1-1.31-.18-1.97-.24-.12,0-.22-.12-.22-.24v-.02h0c0-.15.13-.25.27-.23.67.05,1.34.14,1.99.24.14.02.23.14.21.28,0,.12-.12.22-.25.22ZM173.16,245.21c-.13,0-.24-.1-.25-.22v-.03c0-.13.1-.24.23-.25.66-.06,1.33-.11,2-.15.13,0,.25.09.26.23.01.14-.09.26-.23.26-.59.04-1.22.09-1.99.16h-.02ZM110.1,245.19s-.05,0-.07,0c-.64-.17-1.28-.34-1.93-.52-.11-.03-.19-.13-.18-.24v-.07c.04-.12.18-.2.31-.17.65.18,1.29.35,1.93.52.13.03.21.17.18.3-.03.12-.13.19-.24.19ZM181.14,245h0c-.64-.04-1.3-.06-1.98-.06h0c-.14,0-.25-.12-.25-.25,0-.14.11-.25.25-.25.69,0,1.36.02,2.01.06.14,0,.24.13.23.27,0,.13-.12.23-.25.23ZM176.16,245h-.01c-.13,0-.24-.11-.25-.24h0c0-.15.11-.26.24-.26.68-.03,1.36-.05,2.01-.06.14,0,.25.11.25.25,0,.13-.11.25-.25.25-.69,0-1.34.03-1.99.06h0ZM246.28,244.82c-.09,0-.18-.05-.22-.14-.02-.04-.03-.07-.03-.11,0-.1.06-.18.15-.22.6-.29,1.2-.59,1.79-.88.12-.06.27,0,.34.12.02.06.03.12,0,.19-.03.06-.07.11-.13.14-.72.36-1.27.63-1.8.88-.03,0-.07.02-.11.02ZM107.2,244.41s-.04,0-.07,0c-.63-.17-1.28-.34-1.93-.52-.11-.03-.18-.13-.18-.25,0-.02,0-.04.01-.06.03-.13.17-.21.3-.17l.31.08c.55.15,1.09.29,1.63.44.13.03.21.17.17.31-.03.1-.13.18-.24.18ZM104.3,243.63s-.04-.01-.06-.01c-.44-.12-.88-.24-1.33-.36l-.6-.16h0c-.11-.03-.19-.13-.19-.25,0-.02,0-.04.01-.06.04-.13.18-.21.31-.18.45.13.9.25,1.35.37l.58.15c.06.02.12.06.15.12.03.06.04.13.03.19-.03.11-.13.19-.25.19ZM248.97,243.5c-.09,0-.18-.05-.22-.14-.02-.03-.03-.07-.03-.11,0-.09.05-.18.13-.22h.02c.64-.33,1.21-.62,1.77-.91.12-.06.27,0,.34.11.06.12,0,.27-.11.34-.59.3-1.19.61-1.79.9-.03.02-.07.03-.11.03ZM101.41,242.85s-.05,0-.07,0c-.3-.08-.61-.16-.91-.25-.34-.09-.68-.18-1.02-.27-.11-.03-.19-.13-.19-.24,0-.02.01-.05.01-.07.04-.13.18-.21.31-.17.65.17,1.29.34,1.93.52.07,0,.12.05.15.11.04.06.04.13.03.19-.03.11-.13.19-.24.19ZM251.64,242.14c-.1,0-.18-.06-.22-.14-.02-.03-.03-.07-.03-.11,0-.09.05-.18.13-.23.29-.15.59-.3.88-.45.29-.15.59-.31.89-.46.12-.07.28-.02.34.1.06.12,0,.27-.11.34-.3.15-.6.31-.9.47-.29.15-.58.3-.87.45-.03.02-.07.03-.11.03ZM98.51,242.07h-.07c-.68-.19-1.31-.35-1.93-.51-.11-.03-.19-.13-.19-.25,0-.02,0-.04,0-.06.04-.13.18-.21.31-.18l.8.21c.38.1.76.2,1.13.3.13.04.21.17.18.31-.03.11-.13.18-.24.18ZM95.61,241.31s-.05,0-.07,0c-.54-.14-1.09-.28-1.64-.42l-.29-.07h-.01c-.11-.04-.18-.14-.18-.25,0-.02,0-.04,0-.06.03-.13.16-.21.29-.18h.01s.02,0,.03,0c.65.16,1.3.33,1.91.49.13.04.21.17.18.3-.03.12-.13.19-.24.19ZM15.55,240.84s-.07,0-.11-.02c-.06-.03-.1-.08-.12-.15-.02-.06-.02-.13,0-.19.29-.58.7-1.14,1.2-1.67.09-.1.26-.11.36,0,.09.09.1.25.01.35-.47.49-.85,1.02-1.12,1.56-.05.08-.13.13-.23.13ZM254.3,240.75c-.1,0-.19-.05-.23-.13-.02-.04-.03-.08-.03-.12,0-.09.06-.18.14-.22.59-.31,1.18-.61,1.77-.92.12-.06.28,0,.34.11.06.12,0,.27-.11.34-.59.3-1.18.61-1.76.91,0,0,0,0,0,0-.04,0-.08.02-.11.02ZM92.7,240.57s-.04,0-.06,0l-.53-.13c-.46-.12-.94-.24-1.41-.36h0c-.11-.03-.18-.13-.18-.24,0-.02,0-.04,0-.06.03-.13.16-.22.3-.18.65.16,1.3.32,1.94.48.13.04.21.17.18.31-.03.11-.13.19-.24.19ZM89.79,239.84s-.04,0-.06-.01c-.65-.16-1.29-.31-1.94-.47-.12-.03-.2-.13-.2-.24,0-.02,0-.04,0-.06.03-.13.18-.22.3-.19.6.15,1.23.3,1.95.48.13.03.21.17.18.3-.03.11-.13.19-.24.19ZM256.96,239.37c-.1,0-.18-.05-.23-.13,0-.03-.02-.07-.02-.11,0-.09.04-.18.12-.22,0,0,0,0,0,0,0,0,.02,0,.03,0,.5-.26,1.04-.53,1.76-.89.11-.06.27-.01.33.11.06.12,0,.27-.11.34-.66.33-1.24.62-1.78.9h0s-.07.02-.1.02ZM86.87,239.13h-.06l-.43-.11c-.5-.11-1.01-.23-1.51-.35-.11-.03-.19-.12-.2-.24,0-.02,0-.04,0-.06.03-.13.16-.22.3-.19.65.15,1.3.31,1.95.46.06.02.12.06.15.11.04.06.05.13.03.19-.02.11-.12.19-.24.19ZM17.44,238.54c-.07,0-.14-.03-.19-.08-.04-.05-.06-.1-.06-.16,0-.08.03-.15.09-.2.49-.41,1.05-.81,1.66-1.17.12-.07.28-.03.35.08.07.12.03.27-.09.35-.59.35-1.13.73-1.6,1.13-.04.03-.1.05-.16.05ZM83.95,238.45h-.06c-.59-.14-1.2-.27-1.78-.41l-.17-.03c-.11-.03-.2-.13-.19-.25v-.05c.03-.13.17-.22.3-.19.61.14,1.29.29,1.95.44.07,0,.12.05.16.11.03.06.05.12.03.19-.02.11-.13.19-.24.19ZM259.63,238.03c-.09,0-.18-.06-.22-.14-.02-.04-.03-.07-.03-.11,0-.1.06-.18.14-.23.58-.28,1.17-.56,1.81-.87.11-.06.27,0,.33.12.06.12,0,.27-.12.33-.58.28-1.17.56-1.8.87-.03.02-.07.03-.11.03ZM81.02,237.8s-.03,0-.05-.01c-.62-.13-1.29-.27-1.96-.41,0,0,0-.01-.01-.01-.11-.03-.19-.13-.19-.24,0-.02.01-.03.01-.05.03-.13.16-.22.3-.19.26.05.52.11.78.16.39.09.78.17,1.17.26.14.02.22.16.2.29-.03.12-.13.2-.25.2ZM78.08,237.18s-.03,0-.04,0c-.58-.12-1.2-.24-1.96-.4-.12-.02-.2-.12-.2-.24-.01-.02,0-.03,0-.05.03-.13.16-.23.29-.2.58.12,1.27.26,1.97.4.13.03.22.16.19.3-.02.11-.13.2-.25.2ZM19.94,236.91c-.09,0-.18-.06-.22-.14-.02-.03-.03-.07-.03-.11,0-.09.05-.18.14-.23.58-.3,1.19-.58,1.84-.84.12-.05.27,0,.32.14s0,.27-.14.32c-.64.27-1.25.54-1.79.83-.04.02-.08.03-.12.03ZM262.34,236.73c-.1,0-.19-.05-.23-.14,0-.03-.02-.07-.02-.11,0-.1.05-.18.14-.22.66-.31,1.26-.58,1.83-.83.12-.06.27,0,.33.13.05.13,0,.27-.13.33-.54.24-1.18.52-1.81.82h-.01s-.06.02-.1.02ZM75.14,236.59s-.03-.01-.04-.01c-.62-.12-1.28-.25-1.96-.37h0c-.11-.02-.2-.12-.2-.24v-.05c.03-.14.16-.22.29-.21.66.13,1.32.25,1.97.38.07,0,.12.05.16.11.04.05.05.12.04.18-.02.12-.13.21-.25.21ZM72.19,236.03h-.04c-.63-.12-1.27-.24-1.96-.36t-.01,0c-.12-.03-.21-.13-.2-.26v-.04c.02-.13.15-.23.29-.2.57.1,1.14.2,1.7.3l.27.05c.07,0,.12.05.16.1.04.06.06.13.04.19-.02.12-.12.21-.25.21ZM332.96,235.99c-.09,0-.17-.04-.22-.12-.34-.54-.74-1.06-1.18-1.54h0c-.04-.06-.06-.12-.06-.18,0-.07.03-.13.08-.17.1-.09.26-.09.35,0t0,0s0,.01,0,.02c.46.5.87,1.04,1.23,1.6.03.06.04.12.03.19-.01.06-.05.12-.11.15-.04.03-.09.04-.13.04ZM22.69,235.71c-.1,0-.2-.06-.23-.16-.01-.03-.02-.06-.02-.09,0-.1.07-.2.17-.23.59-.22,1.21-.42,1.91-.63.13-.04.28.04.31.17.04.13-.03.27-.16.31-.65.19-1.28.4-1.88.61h0s-.06.02-.09.02ZM265.08,235.51c-.1,0-.19-.06-.23-.15-.02-.03-.02-.06-.02-.1,0-.1.06-.19.15-.23.66-.28,1.27-.53,1.85-.77.13-.04.27.02.32.14.03.07.03.13,0,.2-.03.06-.07.1-.13.13-.69.27-1.29.52-1.85.76-.03.01-.06.02-.09.02ZM69.24,235.51h-.04c-.73-.13-1.37-.23-1.97-.33-.12-.02-.21-.13-.21-.25v-.04c.02-.13.14-.22.28-.21h0s.02,0,.03,0c.65.11,1.3.21,1.94.32.14.02.23.15.21.29-.02.12-.13.21-.25.21ZM66.28,235.03s-.03,0-.04,0c-.64-.1-1.31-.2-1.97-.3h0c-.12-.02-.21-.12-.21-.24,0-.02,0-.03,0-.04.01-.13.14-.22.27-.21h.01s.02,0,.03,0c.57.08,1.19.17,1.95.29.06,0,.12.04.16.1.04.05.06.12.05.18-.02.12-.13.22-.25.22ZM25.56,234.82c-.11,0-.22-.08-.24-.19-.01-.02-.01-.04-.01-.06,0-.11.07-.21.18-.24.62-.17,1.28-.32,1.96-.47.13-.03.27.05.3.19.02.13-.06.27-.2.3-.67.14-1.31.3-1.92.46h-.01s-.04,0-.06,0ZM63.31,234.58h-.03c-.67-.1-1.35-.19-1.98-.27-.13-.02-.22-.13-.22-.26v-.02c.02-.14.14-.23.28-.22.7.09,1.39.19,1.99.27.06.01.12.05.16.1.04.06.06.12.05.19-.02.12-.12.21-.25.21ZM267.85,234.38c-.1,0-.2-.06-.23-.16-.01-.03-.02-.05-.02-.08,0-.11.06-.2.15-.24h0s.02,0,.02,0c.62-.24,1.24-.47,1.86-.69.12-.05.27.02.32.15s-.02.27-.15.32c-.6.21-1.21.44-1.87.7h0s-.06.01-.09.01ZM60.34,234.18h-.03c-.72-.09-1.44-.18-1.99-.24-.12-.02-.22-.13-.22-.25,0,0,.01-.02.01-.03,0-.14.12-.23.27-.22.8.09,1.41.17,1.99.24.07,0,.13.05.17.1s.06.12.05.18c-.02.13-.13.22-.25.22ZM28.48,234.15c-.12,0-.22-.09-.25-.2v-.05c0-.12.09-.22.2-.25.64-.12,1.3-.24,1.98-.35.14-.02.26.07.29.2.02.14-.07.27-.21.29-.67.11-1.33.23-1.96.35-.02,0-.04,0-.05,0ZM57.36,233.82h-.03c-.63-.07-1.28-.14-1.98-.21h0c-.12-.02-.22-.12-.22-.25v-.02c.02-.14.14-.24.28-.23,0,0,0,0,0,0,.65.06,1.28.13,1.98.2.06,0,.12.04.16.09.05.06.07.12.06.19-.02.13-.12.22-.25.22ZM331.04,233.7c-.07,0-.13-.02-.17-.06-.47-.43-.99-.84-1.54-1.21-.07-.05-.11-.13-.11-.21,0-.05,0-.1.04-.14.07-.11.23-.14.34-.07h0s.02,0,.03.02c.57.38,1.1.8,1.58,1.24.1.09.1.25,0,.35-.05.06-.11.08-.18.08ZM31.44,233.64c-.13,0-.23-.09-.25-.21v-.04c0-.12.09-.23.21-.24,0,0,0,0,0,0,.72-.1,1.37-.18,1.98-.25.14-.02.26.08.28.21.02.14-.08.27-.22.28-.68.08-1.35.17-1.97.26h-.04ZM54.38,233.51h-.03c-.74-.07-1.39-.13-1.99-.18h-.01c-.12-.02-.21-.12-.21-.25v-.02c.01-.14.12-.24.26-.23h.04c.62.06,1.26.12,1.96.18.14.02.24.14.23.27-.02.13-.13.23-.25.23ZM270.67,233.35c-.11,0-.2-.06-.24-.16,0-.03,0-.06,0-.09,0-.11.07-.2.17-.23.59-.2,1.21-.41,1.9-.63.14-.03.28.04.32.17.02.06,0,.13-.02.19-.03.06-.09.1-.15.12-.58.18-1.18.38-1.89.62h-.01s-.05,0-.07,0ZM34.42,233.27c-.13,0-.24-.09-.25-.22v-.02c0-.13.09-.24.22-.25.72-.08,1.38-.14,2-.18.14-.02.26.09.27.22.01.14-.1.26-.23.27-.68.06-1.35.12-1.99.18h-.02ZM51.39,233.25h-.02c-.7-.06-1.35-.11-1.99-.15-.01,0-.01,0-.02,0-.12-.01-.22-.12-.21-.25v-.02c0-.13.13-.22.25-.22,0,0,0,0,0,0,.01,0,.03,0,.04,0,.71.05,1.35.1,1.96.15.07,0,.13.03.17.08.04.05.06.12.06.19,0,.13-.12.23-.25.23ZM48.4,233.03h-.02c-.64-.04-1.25-.08-1.99-.12-.14,0-.24-.12-.24-.25v-.02c0-.13.15-.22.25-.23h.05c.59.03,1.24.07,1.96.12.07,0,.13.03.18.08.04.05.06.12.06.18-.01.13-.12.24-.25.24ZM37.42,233.02h-.01c-.14,0-.24-.1-.25-.23h.03s-.03,0-.03,0c0-.14.1-.25.23-.26.66-.04,1.33-.08,2-.11h.01c.14,0,.25.11.25.24,0,.14-.1.25-.23.26-.68.03-1.35.07-2,.11h0ZM40.41,232.87h0c-.13,0-.24-.11-.25-.24v-.02c0-.13.11-.24.24-.24.66-.02,1.34-.04,2.01-.05.14,0,.25.11.25.24,0,.14-.11.26-.24.26-.63,0-1.28.03-2,.05h0ZM45.4,232.86h-.01c-.4-.02-.81-.04-1.21-.06-.25,0-.5,0-.76,0h-.02c-.13,0-.25-.11-.25-.25s.11-.25.25-.25c.26,0,.52,0,.79,0,.41.02.82.04,1.22.06.07,0,.13.03.17.08.05.05.07.11.07.18,0,.13-.11.24-.25.24ZM273.52,232.44c-.11,0-.21-.07-.24-.18,0-.02,0-.04,0-.07,0-.11.08-.21.18-.24.64-.19,1.29-.37,1.93-.54.13-.03.27.05.31.18.03.13-.05.27-.18.3-.73.2-1.34.37-1.91.54h0s-.05,0-.08,0ZM328.62,231.94c-.05,0-.09,0-.13-.04-.54-.31-1.13-.62-1.75-.89-.09-.04-.15-.13-.15-.23,0-.04,0-.07.02-.1.05-.12.2-.18.33-.13.63.28,1.24.59,1.81.92.11.07.15.23.09.35-.05.07-.13.12-.22.12ZM276.42,231.65c-.12,0-.22-.08-.25-.19,0-.02,0-.04,0-.06,0-.11.08-.21.19-.24h.02c.62-.16,1.27-.31,1.94-.46.13-.03.26.06.29.19.03.14-.05.27-.19.3-.66.15-1.31.3-1.93.46h-.06ZM279.34,230.99c-.12,0-.23-.09-.25-.2v-.05c0-.12.08-.22.18-.24t.02-.01h.03c.69-.14,1.32-.26,1.94-.37.13-.02.26.07.29.2,0,.07,0,.13-.05.19-.04.05-.09.09-.16.1-.68.12-1.33.25-1.95.37-.02,0-.04,0-.05,0ZM325.92,230.65s-.07,0-.09-.02c-.58-.22-1.21-.44-1.88-.64h-.01c-.1-.04-.17-.13-.17-.23,0-.03,0-.06.02-.08.03-.13.18-.2.31-.17.68.21,1.32.43,1.91.66.12.04.19.19.14.32-.04.1-.13.16-.23.16ZM282.28,230.45c-.12,0-.22-.09-.24-.21-.01,0-.01-.03-.01-.04,0-.13.09-.23.22-.25.59-.09,1.24-.19,1.98-.29.12,0,.26.08.28.21.02.14-.08.26-.21.28-.69.1-1.35.19-1.98.3h-.04ZM285.26,230.03c-.13,0-.24-.09-.25-.22,0,0,0-.02,0-.03,0-.12.1-.23.22-.25.75-.09,1.4-.17,1.99-.24.14,0,.26.08.28.22.02.14-.08.26-.22.28-.6.07-1.24.15-1.97.24h-.04ZM323.06,229.73s-.04,0-.06,0c-.64-.16-1.29-.31-1.94-.44-.11-.02-.2-.13-.2-.25,0,0,0-.03.01-.04.03-.14.16-.23.29-.2.67.13,1.33.29,1.96.45.07.02.12.06.16.12.03.05.04.12.02.19-.03.11-.13.18-.24.18ZM288.23,229.67c-.12,0-.23-.09-.24-.22,0,0,0,0,0-.02,0-.13.1-.24.23-.25.57-.07,1.21-.14,1.99-.23.13,0,.25.09.27.23,0,.13-.09.25-.22.27-.68.07-1.38.15-1.99.22h-.03ZM291.22,229.34c-.13,0-.24-.09-.25-.22v-.03c0-.12.09-.23.22-.24,0,0,.01,0,.02,0,.57-.07,1.2-.13,1.97-.21.16-.02.26.09.27.23.02.14-.08.26-.22.27-.63.06-1.28.13-1.99.2h-.02ZM320.13,229.1h-.04c-.61-.11-1.25-.21-1.97-.3h0c-.12-.02-.21-.13-.22-.25,0-.01,0-.02.01-.03,0-.14.15-.23.28-.22.74.1,1.39.2,1.99.3.13.02.22.15.2.29-.02.12-.13.21-.25.21ZM294.2,229.05c-.13,0-.24-.1-.25-.23v-.03c0-.12.1-.23.23-.24.76-.07,1.4-.13,1.99-.18.16-.02.26.09.27.23.01.13-.09.25-.23.27-.79.07-1.41.12-1.99.18h-.02ZM297.19,228.79c-.13,0-.24-.11-.25-.24h0c0-.14.1-.25.23-.26.61-.05,1.27-.1,2-.16.14,0,.25.1.26.24,0,.06,0,.13-.06.18-.04.05-.1.08-.17.08-.67.05-1.34.1-1.99.15t-.02,0ZM317.16,228.68h-.02c-.63-.08-1.3-.14-1.99-.19-.13,0-.23-.12-.23-.25v-.02c0-.14.13-.24.27-.23.67.05,1.34.12,2,.19.14,0,.24.14.22.27-.01.13-.12.23-.25.23ZM300.2,228.57h-.02c-.13,0-.24-.11-.25-.24h0c0-.14.1-.25.22-.26.02,0,.04,0,.05,0,.67-.05,1.33-.09,1.97-.12.14,0,.25.1.26.24,0,.13-.1.25-.24.26-.61.03-1.27.07-1.99.12h0ZM314.17,228.42h0c-.66-.04-1.33-.08-1.99-.1-.14,0-.24-.12-.24-.25h0c0-.14.11-.25.24-.25h.02c.75.03,1.4.06,2,.1.13,0,.24.13.23.26s-.12.24-.25.24ZM303.19,228.4h0c-.14,0-.25-.11-.25-.24h0c0-.14.1-.25.23-.26.6-.03,1.3-.05,2.01-.08h0c.13,0,.24.11.25.24,0,.14-.11.26-.25.26-.7.02-1.35.05-1.99.08h0ZM306.18,228.29h0c-.14,0-.25-.1-.25-.24h0c0-.15.1-.25.24-.26.69,0,1.36-.02,2-.03.14,0,.25.11.26.25,0,.14-.12.25-.25.25-.8,0-1.42.02-2,.03h0ZM311.17,228.29h0c-.64-.02-1.31-.03-1.99-.03-.07,0-.14-.02-.18-.07-.05-.05-.08-.11-.07-.18,0-.14.11-.25.25-.25.61,0,1.24,0,2,.03.14,0,.25.12.25.26,0,.13-.12.24-.26.24Z"/>
    <path class="st1" d="M196.68,274.79c-.12,0-.22-.09-.25-.2-.02-.06,0-.13.03-.19.04-.06.09-.09.16-.11.58-.13,1.21-.26,1.96-.42.13-.03.27.06.3.2.02.13-.06.26-.2.29-.75.16-1.37.29-1.94.42h0s-.03,0-.05,0ZM199.61,274.17c-.12,0-.22-.09-.25-.2v-.05c0-.12.08-.22.2-.25.7-.14,1.39-.27,1.97-.38.13-.03.26.07.29.2.01.07,0,.13-.04.19-.04.06-.09.09-.16.1-.58.11-1.18.23-1.96.38-.02.01-.04.01-.05.01ZM202.56,273.61c-.12,0-.23-.09-.25-.21v-.05c0-.12.09-.22.2-.24.73-.13,1.38-.24,1.98-.35.13-.02.26.07.28.21.03.13-.07.26-.2.29-.67.11-1.34.23-1.97.34,0,0-.03,0-.04,0ZM205.51,273.09c-.12,0-.23-.09-.24-.21,0-.01,0-.02,0-.03,0-.13.09-.23.21-.25.67-.12,1.37-.23,1.98-.33.14-.02.26.08.29.21.02.14-.08.27-.21.29-.69.11-1.38.22-1.97.32h-.05ZM208.48,272.62c-.13,0-.23-.09-.25-.21v-.04c0-.13.08-.23.2-.25h0c.66-.1,1.32-.2,1.98-.3.13-.02.26.08.28.21.02.14-.07.26-.21.29-.69.1-1.38.2-1.97.29-.02,0-.03,0-.04,0ZM211.44,272.17c-.12,0-.23-.09-.24-.21,0-.02-.01-.03-.01-.04,0-.12.1-.23.22-.24.79-.12,1.4-.2,1.98-.28.13,0,.27.08.28.21.02.14-.08.26-.21.28-.72.1-1.36.19-1.98.28h-.04ZM214.42,271.76c-.13,0-.23-.09-.25-.22v-.04c0-.12.09-.22.21-.24.26-.03.52-.07.77-.1.41-.05.81-.11,1.22-.16.13-.01.26.08.28.22.01.13-.08.26-.22.28-.66.08-1.32.17-1.98.26h-.03ZM217.39,271.37c-.12,0-.23-.09-.24-.22,0,0,0-.02,0-.03,0-.13.1-.23.22-.25.6-.07,1.29-.16,1.99-.24.13-.02.26.08.28.22,0,.13-.09.26-.22.27-.67.09-1.33.17-1.99.25h-.03ZM220.37,271.01c-.12,0-.23-.1-.25-.22v-.03c0-.13.09-.23.22-.25h0c.47-.06.94-.11,1.41-.17l.58-.06c.15,0,.26.08.28.22,0,.06,0,.12-.06.18-.04.05-.1.08-.16.09-.73.08-1.38.16-1.99.23,0,0-.02,0-.03,0ZM223.35,270.66c-.12,0-.23-.1-.25-.22v-.03c0-.12.09-.23.21-.25h.05c.64-.08,1.29-.15,1.95-.22.15-.02.26.08.28.22,0,.14-.08.26-.22.28-.58.06-1.14.12-1.71.19l-.3.03h0ZM226.34,270.33c-.13,0-.24-.1-.25-.22v-.02s0-.01,0-.01c0-.13.1-.23.23-.25.55-.06,1.11-.12,1.67-.17l.32-.04c.14,0,.26.09.27.23.01.13-.09.26-.22.27-.67.07-1.33.14-1.99.21h-.02ZM229.32,270.02c-.13,0-.24-.1-.25-.23h0v-.02c0-.13.09-.24.22-.25.66-.07,1.33-.14,1.99-.2.14,0,.26.08.28.22,0,.14-.09.26-.23.27-.72.07-1.37.14-1.99.21h-.02ZM232.3,269.72c-.13,0-.24-.1-.25-.23v-.02c0-.13.1-.24.22-.25.67-.07,1.33-.13,1.99-.2.15,0,.26.09.27.23.02.14-.08.26-.22.27-.66.07-1.33.13-1.99.2h-.02ZM235.3,269.43h-.02c-.13,0-.24-.1-.25-.23v-.02c0-.13.1-.24.22-.25.67-.06,1.33-.13,1.99-.19.14-.02.26.09.28.23,0,.14-.09.26-.23.27-.66.06-1.33.13-1.99.19h0ZM238.26,269.15c-.13,0-.24-.1-.25-.23v-.02c0-.13.1-.24.23-.25l.47-.04c.51-.05,1.01-.09,1.52-.14.13-.02.25.09.27.23,0,.06-.02.13-.06.18-.04.05-.1.08-.17.09l-.75.07c-.41.03-.83.07-1.24.11h-.02ZM241.24,268.88c-.13,0-.23-.1-.24-.23-.01,0-.01,0-.01-.02.01-.13.11-.24.23-.25.67-.06,1.33-.11,2-.17.16-.01.25.09.27.23.01.13-.09.25-.23.27-.52.04-1.03.09-1.55.13l-.45.04h-.02ZM244.23,268.62c-.13,0-.24-.1-.25-.23h0v-.02c0-.13.1-.24.23-.25l1.99-.17c.14-.02.26.09.28.23,0,.14-.1.26-.23.27-.67.06-1.33.11-2,.17h-.02ZM247.23,268.37c-.14,0-.25-.1-.26-.23v-.03c0-.13.1-.23.23-.24.67-.06,1.33-.12,2-.17.14,0,.25.09.27.23,0,.14-.09.26-.23.27-.66.05-1.33.11-1.99.16,0,0-.01,0-.02,0ZM250.23,268.12h-.02c-.13,0-.24-.1-.24-.23,0,0,0-.02,0-.03,0-.13.11-.23.23-.24.67-.06,1.33-.11,2-.17.15-.02.26.09.27.23,0,.14-.09.26-.23.27l-1.99.17h0ZM253.21,267.87c-.13,0-.24-.1-.25-.23h0c0-.15.1-.26.23-.27.33-.03.66-.05,1-.08.33-.03.66-.05,1-.08.14,0,.26.09.27.23s-.1.26-.23.27c-.62.05-1.24.1-1.86.15h-.14s0,0-.02,0ZM256.21,267.63c-.14,0-.25-.1-.25-.23,0,0,0-.02,0-.03,0-.13.11-.23.24-.24l.83-.07c.35-.03.71-.06,1.06-.08.02,0,.03,0,.05,0h.07c.13,0,.24.1.25.23,0,.13-.09.25-.23.27-.03,0-.07,0-.1,0-.32.02-.65.05-.98.07l-.91.08h-.02ZM259.21,267.39h0c-.13,0-.24-.1-.25-.23-.01,0-.01,0-.01-.02,0-.13.1-.24.24-.25l.5-.04c.5-.04.99-.08,1.49-.12.15-.02.26.09.27.22.01.14-.09.26-.23.27-.66.06-1.33.11-1.99.17h0ZM262.2,267.14h-.01c-.13,0-.24-.1-.25-.23h0v-.03c0-.12.1-.23.22-.24.67-.05,1.34-.11,2-.16.15-.02.26.09.27.23,0,.06-.02.13-.06.18s-.1.08-.17.09c-.66.05-1.33.11-1.99.16h0ZM265.18,266.9c-.13,0-.24-.11-.25-.23v-.03c0-.13.1-.23.22-.24l.21-.02c.6-.05,1.19-.1,1.79-.15.11-.02.25.09.27.22,0,.07-.02.14-.06.19s-.1.08-.17.08c-.66.06-1.32.12-1.99.17v-.03s-.01.03-.01.03h0ZM268.17,266.64c-.13,0-.24-.1-.25-.23,0,0,0,0,0-.02,0-.13.11-.24.23-.25.67-.06,1.34-.12,2-.17.15-.03.25.09.27.22,0,.14-.09.26-.23.27-.39.04-.78.07-1.17.11l-.81.07h-.03ZM271.15,266.38c-.12,0-.23-.1-.25-.23v-.03c0-.13.1-.23.23-.24.55-.05,1.1-.1,1.65-.15l.34-.03c.14-.03.26.08.28.22.01.14-.09.26-.23.27-.66.06-1.32.13-1.99.19h-.03ZM274.14,266.1c-.13,0-.24-.1-.25-.23v-.02c0-.13.1-.24.23-.25.67-.06,1.33-.12,1.99-.19.15-.02.26.09.27.23,0,.06,0,.13-.05.18-.05.05-.1.08-.17.09l-.42.04c-.52.05-1.05.1-1.57.15h-.03ZM277.13,265.81c-.13,0-.24-.09-.25-.22v-.03c0-.13.1-.23.22-.25.67-.06,1.34-.13,1.99-.2.14,0,.26.09.28.23,0,.14-.09.26-.22.27-.66.07-1.33.13-2,.2h-.02ZM280.12,265.51c-.14,0-.24-.1-.25-.23,0,0-.01,0-.01-.02,0-.13.1-.24.23-.25.72-.08,1.37-.15,1.99-.22.14,0,.26.09.27.23.02.13-.08.26-.22.27-.65.08-1.32.15-1.98.21,0,0-.02,0-.03,0ZM283.12,265.18h-.02c-.13,0-.24-.09-.25-.22v-.02c0-.13.09-.24.21-.25.02,0,.03,0,.04,0l.48-.05c.5-.06.99-.12,1.47-.18.16,0,.27.09.28.22.02.14-.08.27-.22.28l-.15.02c-.61.07-1.22.14-1.83.21h0ZM286.1,264.83h-.02c-.13,0-.24-.09-.25-.22v-.02c0-.13.08-.23.21-.25,0-.01.03-.01.04-.01.57-.07,1.14-.14,1.7-.21l.25-.03c.12-.02.26.08.28.22,0,.06,0,.13-.05.18s-.1.09-.16.09c-.66.09-1.33.17-1.99.25h0ZM289.06,264.46c-.13,0-.24-.1-.25-.22,0,0,0-.03,0-.04,0-.12.1-.22.21-.24h.04c.59-.08,1.28-.17,1.95-.27.13,0,.27.08.28.22.02.13-.07.26-.21.28-.64.09-1.31.18-1.98.27h-.03ZM292.03,264.05c-.13,0-.23-.09-.25-.22,0,0,0-.02,0-.04,0-.12.09-.22.21-.24.6-.09,1.23-.18,1.98-.29.13-.02.26.07.28.2,0,.07,0,.14-.04.19s-.1.09-.17.1c-.65.1-1.31.2-1.97.29,0,.01-.03.01-.04.01ZM294.99,263.6c-.12,0-.22-.09-.24-.21-.01-.02-.01-.03-.01-.04,0-.12.08-.22.2-.25h.04c.73-.12,1.34-.22,1.95-.32.13-.02.26.07.28.2,0,.07,0,.14-.04.19-.04.05-.1.09-.16.1-.62.11-1.24.21-1.98.33h-.04ZM297.95,263.1c-.12,0-.22-.09-.24-.21,0,0,0-.03,0-.04,0-.12.09-.22.2-.24h.01s.02,0,.03,0c.74-.13,1.36-.24,1.93-.35.14-.04.27.06.29.2.02.06,0,.12-.03.18-.04.06-.1.09-.16.11-.59.11-1.28.24-1.97.36h-.05ZM300.9,262.55c-.12,0-.22-.09-.24-.2-.01-.02-.01-.03-.01-.05,0-.12.09-.22.21-.24.57-.12,1.26-.26,1.95-.41.13-.03.27.06.3.19.02.14-.06.27-.19.3-.69.15-1.33.28-1.97.41h-.05ZM303.84,261.93c-.12,0-.22-.08-.24-.19,0-.03,0-.05,0-.07,0-.11.08-.21.19-.23.67-.15,1.32-.3,1.94-.46.14-.03.28.05.31.19.03.13-.05.27-.18.3-.58.14-1.22.29-1.96.46h-.05ZM306.76,261.23c-.12,0-.22-.07-.25-.18v-.07c0-.11.07-.21.18-.24.68-.17,1.32-.34,1.93-.51.13-.04.27.04.31.17s-.04.27-.17.31c-.68.19-1.31.36-1.94.51h0s-.04,0-.06,0ZM309.65,260.44c-.11,0-.21-.07-.24-.18-.01-.02-.01-.05-.01-.07,0-.11.07-.21.18-.24.66-.2,1.3-.39,1.9-.59.13-.04.27.03.31.16.05.13-.02.27-.15.31-.63.21-1.27.41-1.92.6-.02,0-.05,0-.07,0ZM312.51,259.52c-.11,0-.21-.06-.24-.16,0-.03,0-.06,0-.09,0-.1.06-.19.16-.23h0s0,0,0,0c.66-.23,1.27-.45,1.85-.68.13-.05.28.02.33.15.04.13-.02.27-.15.32-.57.22-1.19.45-1.88.69-.03,0-.06,0-.08,0ZM315.31,258.46c-.1,0-.19-.06-.23-.15-.01-.03-.02-.06-.02-.1,0-.1.06-.19.16-.23.65-.27,1.24-.53,1.81-.8.12-.06.28,0,.33.12.03.06.04.12.01.19-.02.06-.06.11-.12.14-.6.28-1.22.56-1.84.82-.03.01-.07.01-.1.01ZM318.04,257.22c-.1,0-.18-.06-.23-.14,0-.04-.02-.07-.02-.11-.01-.1.05-.18.13-.23.62-.31,1.2-.63,1.74-.95.12-.06.28-.02.34.09.07.12.03.27-.08.34-.55.33-1.15.65-1.77.97-.04.02-.07.03-.11.03ZM320.64,255.74c-.08,0-.16-.05-.21-.12-.03-.04-.04-.09-.04-.14,0-.08.05-.16.12-.2.59-.38,1.12-.75,1.61-1.14.11-.08.27-.06.36.05.08.11.06.27-.05.35-.51.39-1.07.78-1.65,1.16h-.02s-.08.04-.12.04ZM323.06,253.97c-.08,0-.15-.03-.19-.09-.04-.04-.06-.1-.06-.16,0-.07.03-.14.08-.19.52-.44,1-.89,1.43-1.35.1-.1.26-.1.36,0,.1.1.1.25,0,.36-.45.47-.95.93-1.47,1.37h0s-.11.07-.16.07ZM325.17,251.86c-.06,0-.12-.02-.16-.06-.06-.05-.09-.12-.09-.19,0-.06.02-.12.06-.16.43-.51.81-1.05,1.15-1.58.07-.12.23-.15.35-.08.11.07.15.22.07.34-.35.57-.75,1.12-1.18,1.63,0,0,0,0-.01,0-.04.06-.12.09-.19.09ZM326.84,249.39s-.08,0-.12-.03c-.08-.04-.13-.13-.13-.22,0-.04,0-.08.03-.12.3-.57.56-1.17.78-1.79.04-.12.19-.2.32-.15.12.04.19.18.15.32-.23.64-.5,1.27-.81,1.85-.04.08-.13.14-.22.14ZM327.93,246.61s-.05,0-.07,0c-.11-.03-.18-.13-.18-.24,0-.02,0-.04,0-.06.16-.63.28-1.27.36-1.93.02-.13.13-.22.28-.21.07,0,.12.04.17.09.04.05.06.12.05.18-.08.68-.21,1.35-.38,2h0c-.03.11-.12.18-.23.18Z"/>
    <path class="st1" d="M161.28,275.21h-.07c-.7-.21-1.33-.39-1.92-.55-.13-.04-.21-.17-.17-.31.04-.13.18-.2.31-.17.73.2,1.33.37,1.89.54.12,0,.21.12.21.25s-.11.24-.25.24ZM158.39,274.41s-.04,0-.06,0c-.6-.16-1.23-.33-1.93-.51-.07,0-.12-.06-.16-.11-.03-.06-.04-.13-.02-.19.03-.14.17-.22.3-.18.59.15,1.21.31,1.94.51h0c.1.03.18.13.17.24v.06c-.03.11-.13.19-.25.19ZM155.49,273.65h-.06c-.61-.16-1.26-.32-1.94-.48-.06-.02-.12-.06-.15-.12-.04-.05-.05-.12-.03-.18.03-.14.17-.22.3-.19.57.14,1.17.29,1.94.48.11.03.19.13.19.24,0,.02,0,.05,0,.07-.02.11-.12.18-.24.18ZM152.58,272.94h-.06c-.49-.12-.97-.23-1.49-.35l-.46-.11c-.06,0-.12-.05-.15-.11-.04-.06-.05-.12-.03-.19.03-.13.17-.21.29-.19.71.17,1.34.31,1.95.46.12.03.19.12.2.24,0,.02,0,.04,0,.06-.03.11-.13.19-.24.19ZM149.66,272.27s-.04,0-.06,0h0c-.53-.12-1.05-.24-1.59-.36l-.35-.07c-.14-.04-.22-.17-.19-.3.03-.14.16-.22.3-.19.74.16,1.37.3,1.95.43.12.03.2.13.19.25v.05c-.03.11-.13.2-.24.2ZM146.73,271.62h-.06c-.68-.15-1.31-.29-1.95-.42-.07-.02-.13-.06-.16-.11-.04-.06-.05-.13-.03-.19.02-.13.16-.22.29-.19.66.14,1.32.28,1.96.42.11.02.2.12.2.24,0,.02-.01.04-.01.05-.03.12-.13.2-.24.2ZM143.79,271s-.03,0-.04-.01c0,.01,0,.01,0,0h-.03l-1.93-.4c-.06-.01-.12-.05-.16-.11-.03-.05-.05-.12-.03-.19.02-.13.16-.22.29-.19l.2.04c.6.12,1.18.24,1.76.36t0,0c.11.02.19.12.19.24v.05c-.03.11-.13.2-.25.2ZM140.85,270.4s-.03,0-.05,0c-.35-.07-.71-.14-1.07-.21-.3-.06-.59-.12-.89-.18-.14-.03-.22-.16-.2-.29.03-.14.16-.23.3-.2.66.13,1.31.26,1.95.39h.01c.12.03.2.13.2.25v.05c-.03.11-.13.2-.25.2ZM137.91,269.81h-.05c-.64-.13-1.3-.25-1.96-.38-.14-.03-.22-.16-.2-.29.03-.14.15-.23.29-.2.49.09.97.18,1.45.28l.52.1c.12.02.2.12.2.24,0,.02,0,.03,0,.05-.02.12-.12.2-.24.2ZM134.96,269.25s-.03-.01-.04-.01l-.39-.07c-.52-.1-1.05-.2-1.58-.3-.06,0-.12-.05-.16-.1-.04-.06-.05-.12-.04-.19.03-.13.16-.22.3-.2.77.14,1.39.26,1.96.37.12.02.2.12.2.24v.05c-.02.12-.13.21-.25.21ZM132.01,268.69h-.04l-.15-.03c-.6-.11-1.21-.22-1.82-.33-.13-.03-.22-.16-.2-.3.03-.13.16-.23.29-.19.6.1,1.19.21,1.78.32l.19.04c.12.02.2.12.2.24,0,0,0,.03,0,.05-.02.12-.13.2-.25.2ZM129.07,268.15h-.05c-.65-.12-1.3-.24-1.97-.36-.13-.02-.22-.15-.2-.29.02-.13.15-.22.29-.2l1.97.36c.12.02.21.12.21.25,0,.01-.01.02-.01.04-.02.12-.12.2-.24.2ZM126.11,267.62h-.04s-.02,0-.03,0c-.33-.06-.65-.11-.97-.17-.33-.06-.65-.11-.97-.17-.13-.03-.23-.15-.2-.29.02-.13.15-.23.29-.2l.28.05c.56.09,1.12.19,1.69.29,0,0,0,.01.01.01.11.02.2.13.19.25v.03c-.02.12-.13.21-.25.21ZM123.16,267.1h-.04l-.71-.12c-.42-.08-.84-.15-1.26-.22-.14-.02-.23-.15-.21-.29.02-.13.16-.23.29-.2.58.1,1.27.21,1.97.34.13.02.21.12.21.25v.03c-.02.12-.13.21-.25.21ZM120.2,266.6s-.02,0-.04,0c-.66-.11-1.32-.22-1.97-.33-.06,0-.12-.04-.16-.1-.04-.05-.05-.12-.04-.18.02-.14.14-.23.28-.21.56.09,1.11.18,1.69.28l.29.05c.11.02.2.13.2.25v.04c-.02.12-.13.21-.25.21ZM117.24,266.11s-.02,0-.03,0c-.47-.07-.93-.15-1.39-.22l-.59-.1c-.06,0-.12-.04-.16-.1-.04-.05-.05-.12-.04-.19.02-.13.14-.22.28-.2.57.09,1.15.18,1.73.28l.25.04c.12.02.21.12.21.25,0,0,0,.02,0,.04-.02.12-.12.21-.25.21ZM114.29,265.63s-.03,0-.04-.01c-.67-.1-1.33-.2-1.98-.3-.13-.03-.23-.16-.21-.29.02-.14.15-.23.29-.21l.43.07c.51.08,1.02.16,1.54.24.13.02.22.12.22.25,0,0,0,.03,0,.04-.02.12-.12.21-.24.21ZM111.32,265.17s-.02,0-.04-.01c-.66-.1-1.32-.2-1.97-.29-.07-.02-.13-.05-.17-.11-.03-.05-.05-.11-.04-.18.02-.13.14-.23.28-.21.65.1,1.31.2,1.98.3.12.02.21.12.21.25v.03c-.02.13-.13.22-.25.22ZM108.36,264.72h-.04c-.59-.09-1.18-.18-1.76-.26l-.21-.03c-.14-.02-.24-.15-.22-.28.02-.14.15-.23.29-.22.64.1,1.3.19,1.96.29h0c.13.02.22.12.22.25v.04c-.02.12-.13.21-.25.21ZM105.39,264.29h-.03c-.52-.08-1.04-.15-1.54-.22l-.44-.06c-.07,0-.13-.04-.17-.1-.04-.05-.05-.11-.04-.18,0-.14.14-.23.28-.21.62.08,1.24.17,1.88.26h.1c.12.03.21.13.21.26v.03c-.02.13-.12.22-.25.22ZM102.42,263.88s-.02,0-.03-.01c-.67-.09-1.33-.18-1.98-.26-.14-.02-.23-.15-.22-.28.02-.14.15-.23.28-.22.66.09,1.32.18,1.99.27.12,0,.21.12.21.24v.04c-.02.12-.12.22-.25.22ZM99.45,263.48h-.03l-.89-.12c-.37-.05-.73-.09-1.09-.14-.14-.02-.24-.14-.22-.28.02-.13.14-.23.28-.22l.45.06c.51.07,1.02.13,1.53.2.13.02.22.12.22.24v.04c-.02.13-.12.22-.25.22ZM96.48,263.1h-.03c-.68-.09-1.35-.17-1.99-.25-.14-.02-.23-.14-.21-.28.01-.14.13-.23.28-.22.65.08,1.3.16,1.97.25h.01c.13,0,.22.12.22.25v.03c-.02.12-.12.22-.25.22ZM93.5,262.73h-.03l-.14-.02c-.62-.08-1.23-.15-1.84-.22-.14-.02-.24-.14-.22-.28.02-.14.15-.23.28-.22.65.08,1.31.16,1.97.24h.01c.13,0,.22.12.22.25h0v.03c0,.12-.12.22-.25.22ZM90.5,262.37h-.04c-.28-.04-.56-.07-.85-.1-.36-.05-.73-.09-1.1-.13-.13-.02-.23-.14-.22-.28.02-.13.14-.23.28-.22.42.05.83.1,1.25.15l.74.08s.01,0,.01.01c.12.02.21.12.21.25,0,0,0,0-.01.02,0,.13-.14.22-.26.22h-.01ZM87.55,262.03s-.02,0-.03,0c-.31-.03-.61-.07-.91-.1-.36-.04-.72-.08-1.07-.12-.14-.02-.24-.14-.22-.28,0-.13.14-.23.27-.22.31.03.61.07.92.11.35.04.71.08,1.07.12.13,0,.22.12.22.25v.02c-.02.13-.12.23-.25.23ZM84.57,261.69s-.02,0-.03,0c-.66-.07-1.33-.14-1.99-.22-.06-.01-.12-.04-.16-.09-.05-.06-.06-.12-.06-.19.02-.13.14-.23.28-.22l.89.1c.36.05.73.09,1.1.13.12,0,.22.12.22.25v.02c-.02.13-.12.23-.25.23ZM81.59,261.35h-.03c-.42-.05-.84-.1-1.25-.14-.25-.03-.49-.06-.73-.09-.14,0-.24-.13-.22-.27,0-.14.14-.24.27-.22.67.07,1.33.15,1.99.22.12,0,.22.12.22.25v.03c-.02.12-.12.22-.25.22ZM78.61,261.01h-.03l-.44-.05c-.51-.06-1.03-.12-1.54-.18-.14,0-.24-.14-.22-.28.02-.13.14-.22.28-.21.65.07,1.3.15,1.95.22h.03c.13.02.23.13.22.25v.03c-.01.13-.12.22-.25.22ZM75.64,260.67h-.03l-.7-.08c-.43-.05-.86-.1-1.29-.15-.14-.02-.23-.15-.22-.28.02-.14.14-.24.28-.22.45.05.89.1,1.33.16l.65.07c.13.02.23.12.22.25v.03c-.01.12-.12.22-.24.22ZM72.66,260.32h-.03c-.66-.08-1.32-.16-1.99-.24-.13-.02-.23-.15-.21-.28.01-.14.14-.23.28-.22.26.03.53.07.8.1.39.05.79.1,1.18.14.13.02.22.13.22.25h0v.03c-.02.13-.13.22-.25.22ZM69.65,259.96h-.03c-.49-.07-.99-.13-1.49-.19l-.46-.06c-.07-.01-.13-.05-.17-.1-.04-.05-.06-.12-.05-.18.02-.14.14-.23.28-.22.68.09,1.35.17,1.98.25h.02c.12.02.21.13.2.25v.03c-.02.13-.13.23-.27.21t0,.01ZM66.71,259.58h-.03c-.66-.09-1.32-.17-1.98-.26-.14-.02-.24-.15-.22-.28.02-.14.14-.23.28-.22.66.09,1.32.18,1.97.26h0c.12.02.22.12.22.24v.04c-.02.13-.12.22-.25.22ZM63.74,259.19h-.04l-.56-.08c-.47-.06-.94-.13-1.42-.19-.06-.01-.13-.05-.17-.11-.03-.05-.05-.11-.04-.18.02-.13.15-.22.28-.21.67.09,1.33.18,1.98.27.12.02.22.12.22.24v.04c-.02.12-.13.22-.25.22ZM60.77,258.78h-.04c-.37-.06-.75-.11-1.13-.16-.28-.04-.56-.08-.85-.12-.13-.03-.23-.15-.21-.29.02-.13.15-.22.28-.21.44.06.86.12,1.29.18l.69.1c.12.02.21.12.22.25,0,0,0,.02,0,.03-.01.13-.12.22-.24.22ZM57.8,258.35h-.04c-.65-.1-1.31-.19-1.97-.29-.07,0-.13-.05-.17-.1-.04-.06-.05-.12-.04-.19.02-.13.15-.23.28-.21.66.1,1.32.2,1.97.29h.01c.12.02.21.13.21.25v.04c-.02.12-.13.21-.25.21ZM54.83,257.91h-.03c-.58-.09-1.17-.18-1.76-.28-.04,0-.08-.01-.11-.01-.04,0-.07-.02-.11-.02-.07,0-.12-.05-.16-.1-.04-.06-.06-.12-.05-.19.02-.13.15-.22.29-.21l.09.02s.08.01.12.02l.16.02c.55.09,1.07.17,1.6.25h.02c.11.02.2.13.2.25,0,.01-.01.02-.01.03-.02.13-.12.22-.25.22ZM51.87,257.44h-.05c-.78-.13-1.4-.23-1.96-.32-.07-.02-.13-.05-.17-.11-.03-.05-.05-.12-.04-.18.02-.14.15-.22.29-.21l.3.05c.55.09,1.11.19,1.67.28.12.02.21.12.21.25v.03c-.02.12-.13.21-.25.21ZM48.91,256.95h-.04c-.6-.11-1.24-.22-1.97-.36-.14-.02-.23-.15-.2-.29.02-.13.15-.22.29-.19h.11c.6.12,1.22.24,1.86.34,0,0,0,.01,0,.01.11.02.2.13.19.25v.03c-.02.12-.13.21-.25.21ZM45.96,256.42h-.04c-.63-.12-1.3-.25-1.97-.38-.14-.03-.23-.16-.2-.3.03-.13.16-.22.3-.19.66.13,1.32.25,1.95.37h.01c.11.02.2.12.2.24v.05c-.03.12-.13.21-.25.21ZM43.01,255.84h-.04c-.74-.15-1.38-.29-1.96-.41-.07-.02-.12-.05-.16-.11-.04-.06-.05-.12-.04-.19.03-.13.17-.22.3-.19.63.13,1.29.27,1.95.41h.01c.11.02.2.12.2.24,0,.02,0,.04,0,.05-.02.12-.13.2-.25.2ZM40.08,255.22s-.03,0-.05,0h-.02c-.64-.14-1.29-.29-1.93-.44-.14-.04-.22-.17-.19-.31.03-.13.17-.21.3-.18.64.15,1.29.3,1.95.45h0c.11.02.19.13.19.24v.05c-.03.12-.13.2-.25.2ZM37.16,254.54s-.03,0-.05,0h-.01s-.02,0-.03,0c-.69-.17-1.32-.33-1.91-.49-.13-.03-.21-.17-.18-.3.04-.13.18-.21.31-.18.69.19,1.33.35,1.93.49.11.03.19.13.19.24,0,.03,0,.05,0,.07-.03.11-.12.19-.24.19ZM34.26,253.78s-.05,0-.07,0c-.63-.17-1.26-.35-1.93-.54-.13-.04-.2-.18-.17-.32.04-.13.19-.2.32-.17.62.19,1.27.37,1.91.55.11.03.19.13.19.25,0,.02-.01.04-.01.06-.03.11-.13.18-.24.18ZM31.38,252.94s-.05,0-.08,0c-.68-.21-1.31-.41-1.91-.62-.13-.04-.2-.18-.15-.31.04-.13.19-.2.32-.16.6.21,1.23.41,1.88.61h0c.11.04.18.13.18.24,0,.03,0,.05-.01.08-.04.1-.13.17-.24.17ZM28.53,252s-.05-.01-.08-.01c-.7-.25-1.31-.49-1.88-.71-.06-.03-.11-.08-.14-.14-.03-.06-.03-.13,0-.19.05-.12.2-.19.32-.14.6.24,1.23.48,1.87.7.1.04.16.13.16.24,0,.03,0,.06-.01.08-.04.1-.13.17-.24.17ZM25.74,250.91s-.07,0-.1-.02c-.62-.26-1.24-.54-1.83-.82-.13-.07-.18-.21-.12-.34.06-.12.21-.17.33-.11.56.27,1.17.54,1.81.81.1.04.16.13.16.23,0,.04,0,.07-.02.1-.04.09-.13.15-.23.15ZM23.02,249.64s-.08,0-.12-.03c-.52-.27-1.04-.56-1.52-.85-.11-.07-.15-.23-.08-.34.07-.12.23-.16.34-.09.47.28.97.56,1.5.84h.01c.07.05.12.13.12.22,0,.04,0,.08-.03.12-.04.08-.13.13-.22.13Z"/>
  </g>
  <path class="st3" d="M334.8,255.28c0-15.98-21.39-16.37-49.82-12.84-28.44,3.52-37.96,21.26-65.61,21.26-6.75,0-11.8-.38-15.78-.96-12.3-1.78-14.34-5.44-24.79-5.44-9.52,0-18.99,2.6-28.65,4.18-4.36.71-8.76,1.21-13.22,1.17-18.91,0-51.52-15.78-92.73-17.48-16.57,0-29.22,3.66-29.22,10.44-.07-14.51,3.26-57.65,10.69-70.57,6.01-10.43,15.72-24.19,25.94-33.93l.05-.05c13.94-14.58,20.21-33.33,37.01-44.28,16.83-10.95,29.16-23.48,43.05-30.91,13.89-7.43,15.06-19.96,38.74-19.96,15.65,0,14.57,5.87,22.2,7.83s11.06-2.25,28.67,11.15c17.6,13.4,32.34,21.46,54.78,47.94,22.43,26.47,41.22,37.69,46.43,67.95,5.22,30.26,14.02,47.48,12.26,64.5Z"/>
  <path class="st3" d="M173.85,289.54c-6.38-4.63-22.14-9.59-47.35-12.8-33.78-4.3-46.7-3.52-73.7-6.39-27-2.87-37.82-7.96-37.82-14.74s12.65-10.44,29.22-10.44c41.21,1.7,73.82,17.48,92.73,17.48,4.46.04,8.86-.46,13.22-1.17,9.42,11.81,23.27,27.57,23.7,28.06Z"/>
  <path class="st3" d="M203.59,262.74c-3.05,8.99-13.7,20.73-22.06,25.63-.18.1-.35.2-.52.3-2.51,1.49-3.9,3.26-3.9,5.42,0-1.42-1.08-2.96-3.25-4.54h-.01c-.43-.5-14.28-16.26-23.7-28.07,9.66-1.58,19.13-4.18,28.65-4.18,10.45,0,12.49,3.66,24.79,5.44Z"/>
  <path class="st3" d="M334.8,255.28c-1.76,17.02-31.3,20.16-72,23.29-33.06,2.54-68.97,3.11-81.27,9.8,8.36-4.9,19.01-16.64,22.06-25.63,3.98.58,9.03.96,15.78.96,27.65,0,37.17-17.74,65.61-21.26,28.43-3.53,49.82-3.14,49.82,12.84Z"/>
  <path class="st3" d="M170.45,55.91c10.17,21.13,3.72,26.55,3.72,51.59s5.49,52.43,3.13,83.35c-2.35,30.91.23,66.3.23,66.3"/>
  <g>
    <path d="M188.33,61.07c-.67-.46-1.34.57-.66,1,1.5.93,3,1.89,4.42,2.95,4.29,3.15,8.23,6.78,11.69,10.85-4.32-5.69-9.55-10.73-15.44-14.8Z"/>
    <path d="M68.46,136.74l.2-.15-.12-.15-.2.15-.68-.91-.21.16.02.63-.38-.44-.25.19.28.93c.08.24.15.45.22.63,0,0,0,0,0,0-.16-.13-.33-.25-.53-.39l-.81-.54-.25.19.73,1.12-.76-1.01-.17.13-.1.23-.12-.14-.25.19.28.93c.08.24.15.45.22.63h0c-.16-.12-.33-.25-.54-.39l-.81-.54-.25.19.9,1.39c-.86.68-1.71,1.37-2.57,2.05-3.74,2.82-7.67,5.53-11.06,8.82-.58.55.27,1.41.83.87,3.31-3.35,7.09-6.06,10.79-8.98,10.95-8.92,21.17-18.67,31.29-28.5-8.37,7.79-16.81,15.52-25.63,22.79l-.05-.07ZM68.33,136.96c-.09.07-.17.14-.26.21l-.07-.09.27-.21.06.08ZM67.62,136c.05.08.11.16.17.23l.37.49-.28.21-.21-.24v-.38c-.02-.1-.03-.19-.05-.31h0ZM67.68,137.08h0s0,0,0,0h0s0,0,0,0ZM67.31,137.06c-.08-.27-.16-.5-.24-.72h0c.11.15.26.33.4.5v.42s.11.13.11.13l.21-.16.08.09c-.13.11-.26.22-.4.33l-.18-.59ZM66.04,137.12h0c.18.14.39.29.62.45l.51.35c-.13.1-.25.21-.38.31l-.28-.42c-.16-.24-.34-.5-.47-.69ZM65.65,137.47h0s.78,1.04.78,1.04c-.03.02-.05.04-.08.06l-.79-.92.08-.18ZM65.54,138.39c-.08-.27-.16-.5-.24-.72h0c.14.19.34.43.51.63l.36.42c-.14.11-.29.23-.43.34l-.21-.68ZM64.74,139.14c-.16-.24-.34-.5-.47-.69h0c.18.14.39.29.62.45l.57.39c-.14.11-.27.22-.41.32l-.31-.48Z"/>
  </g>
</svg>