<?xml version="1.0" encoding="UTF-8"?>
<svg id="Livello_2" xmlns="http://www.w3.org/2000/svg" version="1.1" viewBox="0 0 313.04 302.09">
  <!-- Generator: Adobe Illustrator 29.8.1, SVG Export Plug-In . SVG Version: 2.1.1 Build 2)  -->
  <defs>
    <style>
      .st0 {
        fill: none;
        stroke: #000;
        stroke-miterlimit: 10;
      }
    </style>
  </defs>
  <path class="st0" d="M295.43,183.18h-.01c0,3.9-.89,10.29-22.27,26.83h0c2.78,3.03,4.77,5.45,5.8,6.76l.05,2.39c-5.74,9.33-43.29,64.99-122.47,64.99h-.02c-86.43,0-123.25-66.31-123.25-66.31,0,0,2.38-3.21,6.63-7.82h0c-21.38-16.55-22.27-22.94-22.27-26.83h0s-.01-.01-.01-.01c0-.05.01-.09.01-.14,0-4.57.06-9.08,6.01-21.65,6-12.72,4.88-23.2,21.09-62.04,12.02-31.31,31.03-43.33,55.89-60.65,24.88-17.34,43.89-24.04,55.91-24.04s31.03,6.7,55.91,24.04c24.86,17.32,43.87,29.34,55.89,60.65,16.21,38.84,15.09,49.32,21.09,62.04,5.95,12.57,6.01,17.08,6.01,21.65,0,.05.01.09.01.14Z"/>
  <path class="st0" d="M279.78,217.84s-.26.47-.78,1.32l-.05-2.39c.55.69.83,1.07.83,1.07Z"/>
</svg>