<?xml version="1.0" encoding="UTF-8"?>
<svg id="Livello_2" xmlns="http://www.w3.org/2000/svg" version="1.1" viewBox="0 0 350 350">
  <!-- Generator: Adobe Illustrator 29.8.1, SVG Export Plug-In . SVG Version: 2.1.1 Build 2)  -->
  <defs>
    <style>
      .st0 {
        fill: none;
        stroke: #131211;
        stroke-linecap: round;
        stroke-linejoin: round;
        stroke-width: 1.2px;
      }
    </style>
  </defs>
  <path class="st0" d="M307.19,204.04c-.65-5.56-7.42-14.13-35.16-14.13s-29.94,7.81-48.56,9.19c-1.79.13-3.72.2-5.83.2-24.07,0-20.54-4.89-42.65-4.89-11.06,0-15.7,1.22-20.59,2.44-4.89,1.23-10.03,2.45-22.06,2.45-2.11,0-4.04-.07-5.83-.2-18.63-1.38-21.79-9.19-48.57-9.19-12.03,0-20.11,1.61-25.46,3.89-6.99,2.97-9.32,7.08-9.69,10.23.55-7.64,4.63-22.82,10.63-55.33,6.26-33.92,15.13-50.61,32.87-66.27,17.74-15.65,61.57-52.69,88.7-52.69s70.96,37.04,88.69,52.69c17.74,15.66,26.61,32.35,32.87,66.27,6.01,32.52,10.09,47.7,10.64,55.34Z"/>
  <path class="st0" d="M307.25,204.97h0c-.01,4.01-4.28,10.92-18.35,19.75-5.22,3.28-11.8,6.82-20,10.58-21.85,10-62.27,28.13-87.26,51.31-2.06,1.9-4.01,3.84-5.83,5.81,8.77-12.31,8.58-12.71,17.37-26.01.03-.05.05-.1.08-.15,1.47-2.8,2.97-5.67,4.46-8.59-8.68,1.01-14.53.92-22.73.92s-14.06.09-22.73-.92c1.48,2.92,2.98,5.79,4.45,8.59.03.05.05.1.08.15,8.48,12.8,8.61,13.64,16.44,24.7-24.27-25.38-68.82-45.12-92.16-55.81-8.2-3.75-14.77-7.3-19.99-10.58-14.07-8.83-18.34-15.74-18.35-19.74h0c.01-.29.03-.58.05-.88,0-.02,0-.05,0-.07.37-3.15,2.7-7.26,9.69-10.23,5.35-2.28,13.43-3.89,25.46-3.89,26.78,0,29.94,7.81,48.57,9.19,1.79.13,3.72.2,5.83.2,12.03,0,17.17-1.22,22.06-2.45,4.89-1.22,9.53-2.44,20.59-2.44,22.11,0,18.58,4.89,42.65,4.89,2.11,0,4.04-.07,5.83-.2,18.62-1.38,21.78-9.19,48.56-9.19s34.51,8.57,35.16,14.13c.03.23.04.45.05.67.01.09.01.17.01.26Z"/>
  <path class="st0" d="M292.77,270.33c-26.47,31.68-67.34,42.92-104.28,45.01-4.57.26-9.09.38-13.5.38-40.11,0-88.04-9.79-117.78-45.39,0,0,1.09-7.82,4.96-18.01.99-2.61,1.37-5.42,1.12-8.2-.87-9.5-2.21-19.4-2.21-19.4,5.22,3.28,11.79,6.83,19.99,10.58,23.34,10.69,67.89,30.43,92.16,55.81.66.68,1.29,1.36,1.91,2.05.21-.24.42-.46.64-.7,0-.01.02-.03.03-.04,1.82-1.97,3.77-3.91,5.83-5.81,24.99-23.18,65.41-41.31,87.26-51.31,8.2-3.76,14.78-7.3,20-10.58,0,0-1.34,9.9-2.21,19.4-.26,2.78.13,5.59,1.12,8.2,3.87,10.19,4.96,18.01,4.96,18.01Z"/>
  <path class="st0" d="M197.72,257.67c-1.49,2.92-2.99,5.79-4.46,8.59-.03.05-.05.1-.08.15-8.79,13.3-8.6,13.7-17.37,26.01-.01.01-.02.03-.03.04-.22.24-.43.46-.64.7-.62-.69-1.25-1.37-1.91-2.05-7.83-11.06-7.96-11.9-16.44-24.7-.03-.05-.05-.1-.08-.15-1.47-2.8-2.97-5.67-4.45-8.59,8.67,1.01,14.53.92,22.73.92s14.05.09,22.73-.92Z"/>
</svg>