<?xml version="1.0" encoding="UTF-8"?>
<svg id="Livello_2" xmlns="http://www.w3.org/2000/svg" version="1.1" viewBox="0 0 756.78 679.7">
  <!-- Generator: Adobe Illustrator 29.8.1, SVG Export Plug-In . SVG Version: 2.1.1 Build 2)  -->
  <defs>
    <style>
      .st0 {
        fill: none;
        stroke: #131211;
        stroke-miterlimit: 10;
        stroke-width: .5px;
      }
    </style>
  </defs>
  <path class="st0" d="M511.58,401.75c-.38.74-.76,1.48-1.15,2.2l-.15-3.63c.43.48.87.96,1.3,1.43Z"/>
  <path class="st0" d="M500.12,388.74s-.03.02-.04.03c1.35,1.57,5.76,6.66,10.2,11.55l.15,3.63c-34.53,65.08-101.46,75.09-133.2,75.09h-.02c-32.09,0-100.17-10.24-134.35-77.29,4.85-5.29,10.02-11.26,11.5-12.98-.01-.01-.03-.02-.04-.03-14.99-10.76-27.49-20.48-31.86-24.95-9.12-9.3-6.31-16.5-.17-39.28.06-.21.11-.42.17-.63,6.26-23.28,15.84-41.28,29.54-64.37,13.7-23.09,38.15-45.59,59.48-58.3,21.31-12.72,55.35-21.71,65.73-21.72h.02c10.38,0,44.42,9,65.73,21.72,21.33,12.71,45.78,35.21,59.48,58.3,13.7,23.09,23.28,41.09,29.54,64.37.06.21.11.42.17.63,6.14,22.78,8.95,29.98-.17,39.28-4.37,4.47-16.87,14.19-31.86,24.95Z"/>
</svg>