<?xml version="1.0" encoding="UTF-8"?>
<svg id="Livello_2" xmlns="http://www.w3.org/2000/svg" version="1.1" viewBox="0 0 756.78 679.7">
  <!-- Generator: Adobe Illustrator 29.8.1, SVG Export Plug-In . SVG Version: 2.1.1 Build 2)  -->
  <defs>
    <style>
      .st0 {
        fill: #131211;
      }
    </style>
  </defs>
  <path class="st0" d="M532.14,324.51c-13.67-13.15-58.78-15.68-154.93-15.68s-141.26,2.53-154.92,15.68c.06-.21.11-.42.17-.63,6.26-23.28,15.84-41.28,29.54-64.37,13.7-23.09,38.15-45.59,59.48-58.3,21.31-12.72,55.35-21.71,65.73-21.72,10.37,0,44.41,9,65.74,21.72,21.33,12.71,45.78,35.21,59.48,58.3,13.69,23.09,23.28,41.09,29.54,64.37.06.21.11.42.17.63Z"/>
  <path class="st0" d="M532.14,324.51c-13.67-13.15-58.78-15.68-154.93-15.68s-141.26,2.53-154.92,15.68c-6.14,22.78-8.95,29.98.17,39.28,4.37,4.47,16.87,14.19,31.86,24.95.01,0,.03.02.04.03,16.53,11.87,36.08,25.01,51.05,33.72,11.6,6.76,26.16,15.31,39.75,23.92.01.01.02.01.03.02,11.18,7.08,21.71,14.2,29.37,20.38l-.03.05-.02.03-.02.04-5.95,11.47c4.05-7.4,21.39-19.74,40.72-31.99,13.59-8.61,28.16-17.17,39.76-23.92,14.95-8.7,34.48-21.82,51-33.68.03-.02.06-.04.09-.06,14.99-10.77,27.5-20.49,31.86-24.96,9.12-9.3,6.31-16.5.17-39.28Z"/>
  <path class="st0" d="M409.17,415.43c-5.55,9.51-11.41,19.41-17.45,29.52-.02.03-.03.04-.03.04-6.35,6.97-11.04,12.96-14.48,17.87-3.43-4.91-8.12-10.89-14.47-17.87,0,0-.01-.01-.03-.04-6.04-10.11-11.9-20.01-17.44-29.52,12.7,1.01,16.38,1.01,31.94,1.01s19.24,0,31.96-1.01Z"/>
  <path class="st0" d="M524.34,337.98c0,9-5.28,17.01-22.3,29.73-17.03,12.72-59.68,40.3-80.22,52.24-19.91,11.56-29.52,24.22-30.1,25,6.04-10.11,11.9-20.01,17.45-29.52-12.72,1.01-16.39,1.01-31.96,1.01s-19.24,0-31.94-1.01c5.54,9.51,11.4,19.41,17.44,29.52-.58-.78-10.2-13.44-30.1-25-20.55-11.94-63.2-39.52-80.22-52.24-16.77-12.54-22.15-20.89-22.3-29.74,9.18-6.53,31.27-9.27,71.32-10.38,20.39-.57,45.43-.71,75.8-.71s55.42.14,75.81.71c17.53.49,31.61,1.29,42.68,2.58,14.23,1.66,23.48,4.13,28.64,7.81Z"/>
  <path class="st0" d="M511.56,401.75c-34.18,67.05-102.26,77.29-134.35,77.29s-100.17-10.24-134.35-77.29c4.85-5.29,10.02-11.26,11.5-12.98,16.53,11.87,36.08,25.01,51.05,33.72,11.6,6.76,26.16,15.31,39.75,23.92.01.01.02.01.03.02,11.18,7.08,21.71,14.2,29.37,20.38l-.03.05-.02.03-.02.04-5.95,11.47c4.05-7.4,21.39-19.74,40.72-31.99,13.59-8.61,28.16-17.17,39.76-23.92,14.95-8.7,34.48-21.82,51-33.68,2.14,2.45,7.16,8.17,11.54,12.94Z"/>
  <path class="st0" d="M377.21,179.5h0Z"/>
</svg>