<?xml version="1.0" encoding="UTF-8"?>
<svg id="Livello_1" xmlns="http://www.w3.org/2000/svg" version="1.1" viewBox="0 0 235.77 294.09">
  <!-- Generator: Adobe Illustrator 29.8.1, SVG Export Plug-In . SVG Version: 2.1.1 Build 2)  -->
  <defs>
    <style>
      .st0 {
        fill: red;
      }

      .st1 {
        fill: none;
        stroke: #131211;
        stroke-linecap: round;
        stroke-linejoin: round;
        stroke-width: 1.2px;
      }
    </style>
  </defs>
  <path class="st1" d="M13.04,286.47s3.1-3.21,7.57-3.21,11.25,2.37,22.98,2.37c33.75,0,49.47-14.67,85.74-28.51,1.83-.7,3.69-1.36,5.55-1.98,34.85-11.71,72.73-10.49,72.73-10.49,0,0-2.41-5.62-2.41-12.89,0-37.45,23.33-82.17,23.33-123.53,0-41.36-15.79-56.32-24.69-64.91-8.91-8.59-10.8-14.26-27.57-21.28-27.88-12.05-38.71-13.31-42.76-13.31-51.98,0-85.52.84-103.27,1.04-4.76,0-2.16-2.16-9.64-2.16-6.7,0-8.29,3.75-7.3,11.3v.02c.12.88.27,1.81.45,2.8,1.75,9.43,6.99,43.45,6.71,114.44-.28,70.99-1.19,90.98-3.29,96.95-2.1,5.98-2.1,9.64-1.99,20.44.11,10.79-4.2,16.87-2.15,32.91Z"/>
  <path class="st1" d="M13.04,286.47c-2.05-16.04,2.26-22.12,2.15-32.91-.11-10.8-.11-14.46,1.99-20.44,2.1-5.97,3.01-25.96,3.29-96.95.28-70.99-4.96-105.01-6.71-114.44-.18-.99-.33-1.92-.45-2.8-.38,11.32-.29,40.21-.12,79.72.21,46.32,0,93.28-4.19,126.81-4.19,33.54-.2,39.73,4.03,61Z"/>
  <path class="st0" d="M27.22,284.34c-.13,0-.23-.1-.25-.23-.06-.66-.11-1.34-.16-2,0-.07.02-.13.06-.18.05-.05.11-.08.18-.09.13,0,.25.1.26.24.05.67.1,1.33.16,1.98.02.14-.09.26-.22.27h-.02s0,.01,0,.01ZM27.02,281.34h0c-.14,0-.25-.1-.25-.23-.04-.67-.06-1.35-.07-2.01,0-.07.03-.13.07-.18.15-.15.43-.03.43.17.01.69.03,1.34.07,1.99h0c0,.14-.11.26-.24.26h0ZM26.94,278.34c-.14,0-.25-.11-.25-.25,0-.7.01-1.36.04-2,0-.14.11-.24.24-.24h0c.07,0,.13.03.18.07.04.05.07.12.07.19-.03.68-.04,1.35-.04,1.98,0,.14-.12.25-.25.25ZM27.03,275.35h-.02c-.13,0-.24-.12-.24-.25h0v-.02c.04-.64.09-1.29.15-2,0-.14.13-.24.27-.23.14.02.24.14.23.28-.06.61-.11,1.26-.15,1.98,0,.13-.11.24-.24.24ZM27.27,272.36h-.03c-.12-.02-.22-.12-.22-.25v-.03c.07-.65.15-1.3.25-1.99.02-.13.14-.22.28-.21.07,0,.13.04.17.1.04.05.05.11.04.18-.09.69-.17,1.34-.24,1.98-.02.12-.12.22-.25.22ZM27.66,269.39s-.02,0-.04,0c-.12-.02-.21-.12-.21-.24,0-.02,0-.03.01-.04.09-.61.19-1.26.32-1.98.02-.13.15-.23.29-.2.13.02.23.15.2.29-.13.74-.23,1.37-.32,1.97-.02.12-.12.21-.25.21ZM28.16,266.43h-.05c-.11-.02-.2-.12-.2-.24v-.05c.07-.39.14-.77.21-1.15l.15-.82c.02-.13.15-.22.29-.21.07.02.12.05.16.11.04.05.05.12.04.19-.06.33-.12.66-.18.99s-.12.65-.17.98c-.03.11-.13.2-.25.2ZM28.69,263.48s-.03,0-.04,0c-.13-.02-.21-.12-.21-.25v-.04c.13-.7.24-1.34.33-1.96.02-.13.15-.23.29-.21.14.02.23.15.21.29-.1.61-.21,1.26-.33,1.97-.02.12-.13.21-.25.21ZM29.17,260.52h-.04c-.12-.02-.21-.12-.21-.25v-.04c.1-.7.18-1.35.24-1.97.02-.14.13-.24.28-.22.07,0,.12.03.17.09.04.05.06.11.05.18-.06.65-.15,1.3-.25,2h0c-.02.12-.12.21-.24.21ZM29.5,257.54h-.02c-.12,0-.22-.12-.22-.25v-.02c.05-.68.09-1.33.11-1.98.01-.14.12-.25.25-.25h.01c.07.01.13.04.17.08.05.05.07.12.07.18-.02.66-.06,1.33-.12,2,.01,0,.01,0,.01,0-.02.13-.13.23-.26.23ZM29.64,254.55h0c-.07,0-.13-.03-.18-.08-.04-.05-.07-.11-.07-.18v-1.24c0-.26,0-.51,0-.75,0-.14.11-.25.25-.25s.25.11.25.24v1.64c0,.13,0,.25,0,.37,0,.14-.11.25-.25.25ZM29.62,251.55h0c-.13,0-.25-.12-.25-.25v-.71c0-.44,0-.87,0-1.29,0-.14.11-.25.25-.25s.25.11.25.25c0,.63,0,1.3,0,1.99,0,.14-.11.25-.24.26h-.01ZM29.61,248.55c-.14,0-.25-.12-.25-.25v-.05c0-.59,0-1.21,0-1.96,0-.13.11-.24.25-.24s.25.11.25.25c0,.67,0,1.31,0,1.95v.05c0,.13-.12.25-.25.25ZM29.63,245.55h0c-.07,0-.13-.03-.18-.08-.04-.05-.07-.11-.07-.18h0c.02-.67.04-1.33.07-2,0-.13.11-.24.25-.24h0c.07,0,.13.03.17.08.05.05.07.12.07.18-.03.61-.05,1.26-.07,1.99,0,.14-.11.25-.25.25ZM29.75,242.55h0c-.14-.01-.24-.12-.23-.25h0c.04-.76.1-1.42.17-2.01.02-.14.14-.24.28-.23.14.02.23.14.22.28-.07.65-.13,1.29-.17,1.98-.01.13-.12.23-.26.23ZM30.06,239.57h-.03c-.13-.02-.22-.12-.22-.25v-.03c.1-.7.22-1.35.36-1.99.03-.13.17-.22.3-.19s.22.16.19.3c-.14.67-.26,1.3-.35,1.95-.02.12-.13.21-.25.21ZM30.64,236.63h-.06c-.11-.03-.19-.13-.19-.25,0-.02,0-.04.01-.06.15-.6.33-1.23.55-1.93.04-.13.18-.21.31-.17s.21.18.17.32c-.21.65-.39,1.27-.55,1.9-.02.12-.12.19-.24.19ZM31.5,233.76s-.05,0-.08-.01c-.1-.04-.17-.13-.17-.23,0-.03.01-.06.02-.09.03-.1.06-.19.1-.29l.03-.1c.15-.43.29-.92.43-1.5.03-.13.17-.21.3-.18.06,0,.12.05.15.11.04.06.05.12.03.19-.14.59-.28,1.09-.44,1.54-.02.08-.05.15-.07.22l-.06.17h0c-.04.11-.13.17-.24.17ZM32.28,230.88s-.03-.01-.05-.01c-.11-.02-.2-.12-.2-.24v-.05c.12-.57.23-1.23.33-1.96.02-.13.15-.22.28-.21.07,0,.13.04.17.1.04.05.06.12.05.19-.11.71-.22,1.38-.33,1.97-.03.12-.13.21-.25.21ZM32.74,227.92h-.03c-.12-.02-.21-.12-.22-.24,0-.02,0-.03,0-.04.07-.61.15-1.28.22-1.98.02-.13.14-.24.28-.22.13,0,.23.14.22.27-.08.74-.15,1.39-.23,1.99-.01.13-.12.22-.25.22ZM33.07,224.94h-.02c-.13,0-.23-.12-.23-.24v-.03c.05-.58.11-1.21.17-1.99,0-.13.14-.22.27-.23.14.02.24.14.23.27-.06.77-.12,1.42-.17,2-.01.13-.12.22-.25.22ZM33.32,221.96h-.02c-.13,0-.24-.12-.23-.26h0c.05-.65.09-1.32.13-2,0-.14.14-.24.27-.23.14,0,.24.12.23.26-.04.73-.09,1.38-.13,2-.01.13-.12.23-.25.23ZM33.52,218.97h-.02c-.13-.01-.24-.12-.23-.25v-.02c.03-.57.06-1.16.1-1.78v-.21c.01-.13.13-.24.26-.24h0c.14,0,.24.13.24.27-.04.68-.08,1.35-.12,1.99h0c0,.14-.11.24-.24.24ZM33.68,215.98h0c-.14,0-.24-.12-.24-.26h0c.03-.65.06-1.32.09-2,.01-.14.12-.24.27-.24.06,0,.13.03.17.08.05.05.07.11.06.18-.03.69-.06,1.35-.09,2,0,.13-.12.24-.25.24ZM33.82,212.98h-.01c-.13,0-.24-.11-.24-.25h0c.03-.66.05-1.32.08-2.01,0-.13.11-.24.25-.24h0c.14,0,.24.13.24.26-.03.72-.05,1.38-.08,2-.01.13-.12.24-.25.24ZM33.94,209.99h0c-.13,0-.24-.12-.24-.25h0c.02-.66.05-1.33.07-2.01,0-.14.11-.24.25-.24h0c.06,0,.13.03.17.08.05.05.07.11.07.18-.02.68-.05,1.35-.07,1.99,0,.14-.12.25-.25.25ZM34.04,206.99h0c-.13,0-.24-.11-.24-.25h0c.02-.66.04-1.33.06-2.01.01-.13.12-.24.25-.24h.01c.14,0,.25.12.24.26-.02.67-.04,1.33-.06,1.97v.03c0,.13-.12.24-.25.24ZM34.14,203.99h0c-.14,0-.24-.11-.25-.24h0v-.11c.02-.62.04-1.26.06-1.9.01-.21.3-.31.43-.17.05.05.07.11.07.18-.02.68-.04,1.35-.06,2h0c0,.13-.11.24-.24.24ZM34.22,200.99h-.01c-.14,0-.24-.11-.24-.24h0c0-.42.02-.84.03-1.27v-.74c.02-.14.13-.24.26-.24h0c.07,0,.13.03.18.07.04.05.07.12.06.18-.01.68-.03,1.35-.05,2,0,.14-.11.24-.24.24ZM34.29,198h0c-.14,0-.25-.12-.24-.26v-.55c.02-.48.03-.96.04-1.45.01-.21.3-.31.43-.17.05.05.07.12.07.18,0,.68-.03,1.34-.04,1.99h0c0,.15-.12.26-.25.26ZM34.35,195h0c-.14,0-.25-.12-.25-.26.01-.36.02-.72.02-1.09.01-.3.02-.6.02-.91.01-.13.11-.24.25-.24h.01c.13,0,.24.12.24.25,0,.38,0,.75-.02,1.11,0,.3,0,.6-.02.89,0,.14-.11.25-.25.25ZM34.41,192h0c-.07,0-.13-.03-.18-.08-.04-.05-.07-.11-.07-.17.01-.37.02-.73.02-1.1,0-.3,0-.6.02-.9,0-.14.11-.25.25-.25s.25.12.25.26c-.01.31-.01.63-.02.94,0,.35,0,.71-.02,1.05,0,.14-.11.25-.25.25ZM34.46,189h0c-.07,0-.13-.03-.18-.08-.04-.04-.07-.11-.07-.17.02-.66.03-1.33.04-2,0-.14.11-.25.25-.25s.25.12.25.26l-.03,2c-.01.13-.12.24-.26.24ZM34.51,186h0c-.07,0-.13-.03-.18-.07-.04-.05-.07-.11-.07-.18,0-.66.02-1.33.03-2,0-.14.12-.25.25-.25.14,0,.26.12.25.26,0,.31,0,.61,0,.92-.01.36-.01.72-.02,1.08,0,.13-.11.24-.25.24ZM34.56,183h0c-.06,0-.13-.03-.17-.07-.05-.05-.07-.11-.07-.18.01-.66.02-1.32.03-2,0-.13.11-.25.25-.25.14.01.25.12.25.26-.01.31-.01.62-.02.94,0,.35-.01.71-.01,1.06,0,.13-.12.24-.25.24ZM34.59,180.01h0c-.06-.01-.13-.03-.17-.08-.05-.05-.07-.11-.07-.18l.02-2c.01-.21.29-.31.43-.17.05.05.07.11.07.18l-.02,2c0,.14-.12.25-.26.25ZM34.63,177.01h0c-.06,0-.13-.03-.17-.08-.05-.05-.08-.11-.07-.18,0-.62.01-1.24.02-1.88v-.12c0-.2.29-.31.43-.17.04.05.07.11.07.18,0,.6,0,1.19-.02,1.77v.23c0,.14-.12.25-.26.25ZM34.67,174.01h0c-.14-.01-.25-.12-.25-.26,0-.32,0-.64,0-.96,0-.34,0-.69,0-1.04,0-.2.29-.31.43-.17.05.05.07.11.07.18,0,.67,0,1.34-.02,2,0,.14-.11.25-.25.25ZM34.7,171.01h0c-.07,0-.13-.03-.18-.08-.05-.05-.07-.11-.07-.17l.02-2c0-.14.11-.25.25-.25s.25.11.25.25c-.01.67-.01,1.33-.02,1.99h0c0,.15-.11.26-.25.26ZM34.73,168.01h0c-.14,0-.25-.12-.25-.25,0-.34.01-.68.01-1.02s0-.66,0-.98c0-.14.11-.25.24-.25.15,0,.26.11.26.25,0,.67,0,1.34-.02,2,0,.14-.12.25-.25.25ZM34.75,165.01h0c-.13,0-.24-.12-.24-.25,0-.66,0-1.33,0-2,0-.14.11-.25.25-.25s.25.11.25.25c0,.38,0,.75,0,1.12v.88c-.01.14-.12.25-.26.25ZM34.78,162.01c-.14,0-.25-.11-.25-.25,0-.34,0-.68,0-1.01s0-.66.01-.99c0-.14.11-.25.24-.25.14,0,.26.11.26.25-.01.33-.01.65-.01.98s0,.68,0,1.02h0c0,.14-.11.25-.25.25ZM34.81,159.01h0c-.07,0-.13-.03-.18-.08-.04-.04-.07-.11-.07-.17,0-.29,0-.58,0-.86,0-.38.01-.76.01-1.14,0-.14.11-.25.25-.25s.25.11.25.25v.33c-.01.56-.01,1.12-.02,1.67,0,.14-.11.25-.24.25ZM34.82,156.01h0c-.14,0-.25-.11-.25-.25l.02-2c0-.14.11-.25.25-.25.13,0,.25.11.25.25-.01.67-.01,1.34-.02,2,0,.14-.11.25-.25.25ZM34.84,153.01c-.14,0-.25-.11-.25-.25,0-.66,0-1.33.02-2,0-.14.11-.25.25-.25.13,0,.24.11.24.25,0,.67,0,1.34,0,2,0,.14-.11.25-.25.25ZM34.86,150.01h0c-.14,0-.25-.11-.25-.25,0-.37,0-.75,0-1.12v-.88c0-.14.11-.25.25-.25.14.01.25.12.25.25v1.11c0,.3,0,.6,0,.89,0,.14-.11.25-.25.25ZM34.88,147.01c-.07,0-.13-.02-.18-.07s-.07-.11-.07-.18c0-.66,0-1.33,0-2,0-.14.11-.25.25-.25s.25.12.25.25c0,.33,0,.66,0,.99v1.01c0,.14-.12.25-.25.25ZM34.89,144.01c-.07,0-.13-.02-.18-.07-.04-.05-.07-.11-.07-.18,0-.33.01-.66.01-.99v-1.01c0-.14.11-.25.25-.25s.25.12.25.25v.99c0,.34-.01.68-.01,1.01,0,.14-.11.25-.25.25ZM34.91,141.01h0c-.14,0-.25-.11-.25-.25v-1.01c0-.33,0-.66.01-.99,0-.14.11-.25.25-.25.13.01.25.12.25.26-.01.33-.01.67-.01,1v.99c0,.14-.12.25-.25.25ZM34.92,138.01c-.14,0-.25-.11-.25-.25v-2c0-.14.12-.25.26-.25s.25.12.25.25v.42c0,.53,0,1.06,0,1.58,0,.14-.11.25-.25.25ZM34.93,135.01c-.14,0-.25-.11-.25-.25v-2c0-.13.12-.25.25-.25.14,0,.25.12.25.25v2.01h0c0,.13-.11.24-.25.24ZM34.94,132.01c-.14,0-.25-.11-.25-.25v-2c0-.13.11-.25.25-.25.13,0,.25.12.25.25v2c0,.14-.12.25-.25.25ZM34.94,129.01c-.14,0-.25-.11-.25-.25,0-.33,0-.66,0-.99v-1.01c0-.13.12-.25.25-.25.14,0,.25.11.25.25v1c0,.33,0,.67,0,1,0,.14-.12.25-.25.25ZM34.93,126.01c-.14,0-.25-.11-.25-.24h0v-.03c0-.66,0-1.32,0-1.98,0-.14.11-.25.25-.25s.25.11.25.25v2c0,.14-.1.25-.24.25ZM34.92,123.01c-.14,0-.25-.11-.25-.25,0-.66-.01-1.33-.01-2,0-.06.02-.13.07-.17.14-.15.43-.03.43.17v2c.01.14-.1.25-.24.25ZM34.9,120.01c-.14,0-.25-.11-.25-.25,0-.33,0-.66-.01-1,0-.33,0-.66,0-.99,0-.14.12-.26.25-.26.14,0,.25.11.26.25v.99c.01.34.01.67.01,1.01,0,.14-.11.25-.25.25h0ZM34.88,117.01h0c-.14,0-.25-.11-.25-.24l-.02-2c-.01-.14.11-.25.25-.26.14,0,.25.11.25.25,0,.66,0,1.33.02,2,0,.07-.03.13-.08.18-.04.05-.1.07-.17.07ZM34.85,114.01c-.14,0-.25-.11-.25-.24v-.05c0-.66-.02-1.31-.03-1.95,0-.14.11-.25.25-.26.14,0,.25.11.25.25,0,.34,0,.67.02,1.01,0,.33,0,.66,0,.99,0,.07-.03.13-.07.18-.05.04-.11.07-.18.07h0ZM34.81,111.01c-.14,0-.25-.11-.25-.24,0-.67-.02-1.34-.03-2,0-.07.03-.13.07-.18.15-.15.43-.03.43.17v.04c0,.65.02,1.3.03,1.96,0,.14-.11.25-.25.25h0ZM34.77,108.01h0c-.14,0-.25-.11-.25-.24,0-.67-.02-1.34-.03-2-.01-.14.1-.25.24-.26.14,0,.25.11.26.25l.03,2c0,.14-.11.25-.25.25h0ZM34.72,105.01h0c-.14,0-.25-.1-.25-.24l-.04-2c0-.14.11-.25.25-.26.14,0,.25.11.25.25,0,.3,0,.59.02.89,0,.37,0,.74.02,1.11,0,.07-.03.13-.07.18-.05.04-.11.07-.18.07h0ZM34.67,102.01h-.01c-.13,0-.24-.11-.25-.24,0-.38,0-.77-.02-1.15,0-.28,0-.57-.02-.85,0-.14.11-.25.25-.26.14,0,.25.11.25.25.01.56.03,1.12.04,1.69v.31c0,.14-.11.25-.24.25h0ZM34.61,99.01h-.01c-.13,0-.25-.11-.25-.24,0-.67-.03-1.34-.04-2,0-.14.1-.25.24-.25s.25.1.26.24c.01.66.03,1.33.04,2,0,.14-.11.25-.24.25h0ZM34.54,96.02h0c-.13,0-.24-.11-.25-.25h0l-.05-2c0-.07.03-.13.07-.18.05-.05.11-.07.18-.07h.01c.13,0,.24.1.24.24v.25c.03.58.04,1.16.05,1.75,0,.14-.1.25-.24.26h0ZM34.46,93.02h0c-.14,0-.25-.11-.25-.25-.02-.58-.03-1.15-.05-1.72v-.28c0-.06.02-.13.06-.18.05-.04.11-.07.18-.07h0c.13,0,.24.1.24.24l.03.81c0,.4.02.79.03,1.19h0c0,.14-.11.25-.25.26h0ZM34.38,90.02h0c-.14,0-.25-.11-.25-.25-.01-.36-.02-.72-.04-1.08,0-.31-.01-.61-.02-.91-.01-.14.1-.26.24-.26h.01c.13,0,.24.1.25.24.02.66.04,1.33.06,2h0c-.01.14-.11.25-.25.26h0ZM34.29,87.02h0c-.13,0-.24-.1-.25-.23h0v-.05l-.06-1.96c0-.07.02-.13.06-.18.05-.05.11-.08.18-.08h0c.13,0,.24.11.25.24.02.66.04,1.33.06,2h0c0,.15-.11.25-.25.26h0ZM34.19,84.02h0c-.13,0-.24-.11-.25-.24l-.02-.63c-.01-.46-.03-.92-.05-1.37,0-.07.03-.13.07-.18.05-.05.11-.08.18-.08h.01c.13,0,.24.11.25.24,0,.36.02.72.03,1.08.01.31.02.61.03.92h0c0,.15-.11.25-.24.26h-.01ZM34.1,81.02h0c-.13,0-.24-.1-.25-.24h0c-.01-.32-.02-.63-.03-.95-.02-.35-.03-.7-.04-1.05,0-.07.02-.13.06-.18.05-.05.11-.08.18-.08h0c.13,0,.24.11.25.24.02.67.05,1.33.07,2h0c0,.15-.11.26-.24.26h0ZM33.99,78.02h-.01c-.14,0-.25-.1-.25-.24v-.19c-.03-.6-.05-1.21-.08-1.81,0-.14.1-.25.24-.26h.01c.14,0,.25.11.25.24l.02.44c.02.52.04,1.04.06,1.56h0c0,.15-.11.26-.24.26h0ZM33.87,75.03h0c-.13,0-.24-.11-.25-.24h0l-.02-.61c-.02-.47-.04-.93-.06-1.39,0-.07.02-.13.07-.18.04-.05.1-.08.17-.08h.01c.14,0,.25.1.25.24.03.61.05,1.26.08,2h0c0,.14-.1.25-.24.26h0ZM33.74,72.03c-.14,0-.25-.11-.25-.24l-.02-.52c-.03-.49-.05-.99-.07-1.48,0-.07.02-.13.06-.18.05-.05.11-.08.18-.08h.01c.13,0,.24.1.25.24.03.66.06,1.32.09,2h0c0,.14-.11.25-.24.26h0ZM33.61,69.03c-.14,0-.25-.11-.25-.24-.02-.39-.04-.78-.06-1.17-.01-.28-.02-.55-.03-.83,0-.13.09-.25.23-.26h.01c.14,0,.25.11.25.24.03.66.07,1.33.1,2h0c-.01.15-.11.25-.24.26h0ZM33.46,66.03c-.13,0-.24-.1-.24-.24-.02-.33-.04-.67-.05-1-.02-.33-.03-.66-.05-.99,0-.07.02-.13.06-.18.05-.05.11-.08.18-.08.1-.01.25.09.26.23.02.37.03.74.05,1.11.02.29.03.59.05.89h0c0,.15-.11.25-.24.26h-.02ZM33.33,63.04h0c-.13,0-.24-.11-.25-.24-.02-.41-.04-.82-.06-1.22-.02-.26-.03-.52-.04-.78-.01-.07.02-.13.06-.18.04-.05.11-.08.17-.08h.02c.13,0,.24.1.25.24,0,.32.03.64.05.96.01.34.03.69.05,1.03v.02c0,.13-.11.24-.24.25h0ZM33.16,60.04c-.13,0-.24-.1-.25-.24-.03-.67-.07-1.33-.11-1.99,0-.14.1-.26.24-.27h.01c.14,0,.25.11.25.24.04.66.08,1.32.11,2h0c0,.14-.1.25-.24.26h-.01ZM33,57.04c-.13,0-.24-.1-.25-.23-.02-.41-.05-.81-.07-1.21l-.05-.79c0-.06.02-.13.07-.18.04-.05.1-.08.17-.08h.01c.13,0,.24.1.25.23l.02.33c.03.55.07,1.11.1,1.67h0c0,.15-.1.26-.24.26h-.01ZM32.82,54.05c-.13,0-.24-.11-.24-.24-.04-.67-.08-1.33-.13-1.99,0-.07.02-.13.07-.18.04-.05.1-.08.17-.09.13,0,.26.1.26.24l.04.59c.03.46.06.93.08,1.4t0,.02c0,.13-.11.24-.24.25h-.02ZM32.66,51.05h0c-.14,0-.25-.1-.26-.23-.05-.81-.09-1.43-.12-2,0-.06.01-.13.06-.18.04-.05.1-.08.17-.08.11-.02.26.09.27.23l.04.67c.03.44.06.88.08,1.33h0c0,.14-.1.25-.23.26h0ZM32.45,48.06c-.13,0-.24-.1-.25-.23-.04-.68-.09-1.34-.13-2-.01-.14.09-.26.23-.27.16,0,.26.1.27.24.04.65.09,1.31.13,1.98h0v.03c0,.13-.1.24-.23.25h-.02ZM32.25,45.07c-.13,0-.24-.11-.25-.24-.03-.42-.06-.83-.09-1.25,0-.25-.03-.49-.05-.74,0-.07.02-.13.06-.18.04-.05.11-.08.17-.09.14,0,.26.1.27.23l.05.66c.03.45.06.89.09,1.34h0c0,.14-.1.25-.23.27h-.02ZM32.04,42.07c-.13,0-.24-.1-.25-.23-.04-.48-.07-.96-.11-1.44l-.04-.55c0-.07.02-.13.06-.18s.11-.08.17-.09c.13,0,.26.09.27.23.05.65.1,1.31.15,1.99h0v.02c0,.13-.1.24-.23.25h-.02ZM31.82,39.08c-.13,0-.24-.1-.25-.23-.06-.72-.11-1.41-.16-1.99,0-.14.09-.26.23-.27.14-.02.26.09.27.23.06.79.11,1.41.16,1.99v.02c0,.13-.1.24-.23.25h-.02ZM31.58,36.09c-.13,0-.24-.1-.25-.23-.05-.68-.1-1.34-.16-1.99,0-.07.02-.13.06-.18.04-.06.1-.09.17-.09.16-.01.26.09.27.23.05.65.11,1.31.16,1.99v.03c0,.12-.1.23-.23.24h-.02ZM31.34,33.1c-.13,0-.24-.1-.25-.23-.03-.32-.06-.63-.08-.95-.03-.35-.06-.7-.09-1.04-.01-.07,0-.13.05-.18.05-.06.11-.09.17-.09.14,0,.26.09.27.22.05.58.11,1.21.17,1.99.01,0,.01.01.01.01h-.03s.03,0,.03,0c0,.13-.1.25-.23.26h-.02ZM31.08,30.11c-.13,0-.24-.1-.25-.23-.06-.68-.12-1.34-.18-1.99-.01-.07,0-.13.05-.18.05-.05.11-.09.17-.09.15,0,.26.09.28.23l.06.7c.04.42.08.85.11,1.28t0,0v.02c0,.13-.1.24-.23.25h-.02ZM30.8,27.12c-.13,0-.23-.1-.25-.22-.05-.54-.1-1.06-.15-1.58l-.04-.41c-.01-.14.09-.26.23-.28.13,0,.26.09.27.23.05.54.11,1.09.16,1.66l.03.33v.02c0,.13-.1.24-.22.25h-.03ZM30.51,24.14c-.13,0-.23-.1-.25-.22h0s.04-.02.04-.02h-.04c-.07-.68-.13-1.34-.2-1.98,0-.06.01-.13.05-.18.04-.05.1-.09.17-.09.14-.02.26.08.28.22.06.64.13,1.31.2,1.99v.02h0c0,.14-.1.24-.22.25,0,.01-.02.01-.03.01ZM30.2,21.15c-.13,0-.23-.09-.25-.22-.07-.69-.14-1.35-.21-1.99-.01-.06,0-.13.05-.18.04-.06.1-.09.17-.1.13-.01.26.09.27.22.07.56.13,1.15.19,1.75l.03.24v.03c0,.13-.09.24-.22.25h-.03ZM29.87,18.17c-.13,0-.23-.1-.25-.22-.09-.78-.17-1.41-.24-1.99-.01-.13.08-.26.22-.27.14-.02.26.08.28.21.08.65.16,1.32.24,1.99v.03c0,.12-.09.23-.22.25h-.03ZM29.51,15.19c-.13,0-.24-.09-.25-.22-.1-.79-.2-1.51-.27-1.98-.02-.14.08-.26.22-.28.13-.02.26.08.28.21.08.57.16,1.2.26,1.99.01,0,.01.02.01.03,0,.12-.1.23-.22.25h-.03ZM29.1,12.22c-.13,0-.23-.09-.25-.22-.1-.7-.21-1.36-.32-1.97-.01-.06,0-.13.05-.18.03-.06.09-.09.16-.1.13-.03.26.06.29.2.1.57.2,1.23.31,1.98,0,.01,0,.03,0,.04,0,.12-.09.23-.22.24-.01,0-.02,0-.03,0Z"/>
</svg>