<?xml version="1.0" encoding="UTF-8"?>
<svg id="Livello_1" xmlns="http://www.w3.org/2000/svg" version="1.1" viewBox="0 0 284.55 279.39">
  <!-- Generator: Adobe Illustrator 29.8.1, SVG Export Plug-In . SVG Version: 2.1.1 Build 2)  -->
  <defs>
    <style>
      .st0 {
        fill: none;
        stroke: #131211;
        stroke-linecap: round;
        stroke-linejoin: round;
        stroke-width: 1.2px;
      }
    </style>
  </defs>
  <path class="st0" d="M142.28,3.31c-12.02,0-31.03,6.71-55.89,24.04-24.88,17.32-43.88,29.34-55.9,60.65-16.21,38.85-15.08,49.32-21.09,62.04-6,12.69-6.01,17.16-6.01,21.77,0,.01,0,.02,0,.03h0c0,3.89.9,10.29,22.28,26.83,0,0,0,0,0,0h0c-4.25,4.61-6.63,7.82-6.63,7.82,0,0,36.19,65.15,121.02,66.28l.04.03s0-.02,0-.03c.73,0,1.45.03,2.18.03h0c86.43,0,123.25-66.31,123.25-66.31,0,0-2.38-3.21-6.63-7.82,0,0,0,0,0,0,21.38-16.54,22.27-22.94,22.27-26.83h0s0,0,0,0c0-.05,0-.1,0-.15,0-4.56-.07-9.07-6.01-21.65-6-12.72-4.89-23.19-21.09-62.04-12.02-31.3-31.03-43.32-55.89-60.65-24.88-17.33-43.88-24.04-55.9-24.04Z"/>
  <path class="st0" d="M142.28,170.41c-12.18,0-28.75-2.41-45.6-4.72,0,0,0,0,0,0,0,0-.07,0-.16-.02-1.94-.27-3.88-.53-5.82-.79h0s0,0,0,0c-.06,0-.13-.02-.19-.03-14.95-1.98-30.15-3.65-41.91-4.09-25.21-.94-41.44-2.06-41.44,11.08,0,4.61,1.8,10.51,36.8,34.82,35.01,24.32,46.98,21.35,81.13,38.95,0,0,0,0,0,0h0s0,0,0,0h0s0,0,0,0c0,0,0,0,0,0h0c5.84,5.49,17.18,13.06,17.18,13.06h0s11.34-7.57,17.19-13.06h0s.01,0,.01-.01c0,0,0,0,0,0h0s0,0,0,0c34.15-17.6,46.12-14.63,81.13-38.95,35-24.31,36.8-30.21,36.8-34.82,0-13.13-16.24-12.02-41.44-11.08-11.75.44-26.96,2.11-41.91,4.09-.06,0-.13.02-.19.03,0,0,0,0,0,0h0c-18.86,2.52-37.96,5.54-51.58,5.54h0Z"/>
</svg>