<?xml version="1.0" encoding="UTF-8"?>
<svg id="Livello_1" xmlns="http://www.w3.org/2000/svg" version="1.1" viewBox="0 0 374.09 215.71">
  <!-- Generator: Adobe Illustrator 29.8.1, SVG Export Plug-In . SVG Version: 2.1.1 Build 2)  -->
  <defs>
    <style>
      .st0 {
        fill: none;
        stroke: #131211;
        stroke-linecap: round;
        stroke-linejoin: round;
        stroke-width: 1.2px;
      }
    </style>
  </defs>
  <path class="st0" d="M283.7,114.65c-2.24,3.52-5.07,7.5-8.23,11.69-17.43-2.03-49.83-5.05-88.43-5.05s-71,3.02-88.43,5.05c-3.16-4.19-5.99-8.17-8.23-11.69,13.62-1.8,50.76-6.08,96.66-6.08s83.04,4.28,96.66,6.08Z"/>
  <path class="st0" d="M309.28,44.05c-.48-.86-.93-1.53-1.32-2"/>
  <path class="st0" d="M317.41,93.93c-7.48-28.9-19.33-39.39-32.02-43.01-12.79-3.65-36.79-7.05-98.35-7.05s-85.57,3.4-98.35,7.05c-12.49,3.57-24.65,13.78-32.17,41.68-2.37-21.08,4.18-41.23,8.25-48.49.02-.02.03-.04.04-.06.44-.69.88-1.35,1.32-2,15.65-23.09,54-34.04,120.91-34.04s105.26,10.95,120.92,34.04c.44.65.88,1.31,1.32,2,.02.02.03.04.04.06,4.15,7.42,10.9,28.26,8.09,49.82Z"/>
  <path class="st0" d="M66.13,42.05c-.39.47-.84,1.14-1.32,2"/>
  <path class="st0" d="M275.47,126.34c-15.16,20.08-37.76,44.75-37.76,44.75-12.82,5.99-23.72,9.6-33.45,12.81-7.59,2.51-13.17,5.32-17.21,7.94-4.04-2.61-9.62-5.43-17.22-7.94-9.74-3.22-20.64-6.83-33.46-12.81,0,0,0-.01-.01-.01-.64-.7-22.81-24.95-37.75-44.74,17.43-2.03,49.83-5.05,88.43-5.05s71,3.02,88.43,5.05Z"/>
  <path class="st0" d="M370.96,147.7c0,12.13-42.66,31.7-132.27,43.44-21.16,2.35-36.84,4.7-43.08,8.04-1.03.55-1.81,1.13-2.31,1.74h-16.04s.34-.65,1.22-1.74c1.34-1.67,3.96-4.37,8.57-7.34,4.04-2.62,9.62-5.43,17.21-7.94,9.73-3.21,20.63-6.82,33.45-12.81,16.03-7.48,35.05-18.68,58.51-37.47,13.43-11.16,19.36-25.58,21.19-39.69,2.81-21.56-3.94-42.4-8.09-49.82,10.9,16.76,24.33,45.2,31.37,60.69,3.06,6.72,7.46,12.74,12.88,17.77,7.45,6.91,17.39,17.55,17.39,25.13Z"/>
  <path class="st0" d="M187.05,191.84c-4.61,2.97-7.23,5.67-8.57,7.34-6.24-3.34-21.93-5.69-43.09-8.04C45.78,179.4,3.13,159.83,3.13,147.7c0-7.58,9.94-18.22,17.39-25.13,5.42-5.03,9.82-11.05,12.88-17.77,7.04-15.49,20.47-43.93,31.37-60.69-4.07,7.26-10.62,27.41-8.25,48.49,1.63,14.53,7.5,29.51,21.35,41.02,23.44,18.78,42.46,29.98,58.49,37.46.01,0,.01.01.01.01,12.82,5.98,23.72,9.59,33.46,12.81,7.6,2.51,13.18,5.33,17.22,7.94Z"/>
  <path class="st0" d="M317.41,93.93c-1.83,14.11-7.76,28.53-21.19,39.69-23.46,18.79-42.48,29.99-58.51,37.47,0,0,22.6-24.67,37.76-44.75,3.16-4.19,5.99-8.17,8.23-11.69-13.62-1.8-50.76-6.08-96.66-6.08s-83.04,4.28-96.66,6.08c2.24,3.52,5.07,7.5,8.23,11.69,14.94,19.79,37.11,44.04,37.75,44.74-16.03-7.48-35.05-18.68-58.49-37.46-13.85-11.51-19.72-26.49-21.35-41.02,7.52-27.9,19.68-38.11,32.17-41.68,12.78-3.65,36.78-7.05,98.35-7.05s85.56,3.4,98.35,7.05c12.69,3.62,24.54,14.11,32.02,43.01Z"/>
</svg>
