<?xml version="1.0" encoding="UTF-8"?>
<svg id="Livello_1" xmlns="http://www.w3.org/2000/svg" version="1.1" viewBox="0 0 1024 1024">
  <!-- Generator: Adobe Illustrator 29.8.1, SVG Export Plug-In . SVG Version: 2.1.1 Build 2)  -->
  <defs>
    <style>
      .st0, .st1 {
        stroke: #000209;
      }

      .st0, .st1, .st2 {
        fill: none;
        stroke-linecap: round;
        stroke-linejoin: round;
      }

      .st0, .st2 {
        stroke-width: 1.2px;
      }

      .st1 {
        stroke-dasharray: 4 3.5 0 0;
      }

      .st3 {
        fill: #131211;
        opacity: .22;
      }

      .st4 {
        fill: red;
      }

      .st5 {
        fill: #00eaa5;
      }

      .st6 {
        fill: #81ff07;
      }

      .st7 {
        fill: #f9f8f8;
      }

      .st2 {
        stroke: #131211;
      }

      .st8 {
        fill: #8b00ff;
      }
    </style>
  </defs>
  <path class="st6" d="M499.09,408.34c-3.36-3.05-7.63-5.61-13.49-7.5-15.78-5.08-34.82-6-70.69-14.21-33.7-7.72-53.12-17.17-58.27-20.89,3.69-.8,8.68-1.48,15.36-2.2,21.2-2.26,73.88-5,91.11-6.24,3.73,14.49,25.24,39.3,35.98,51.04Z"/>
  <path class="st6" d="M667,365.74c-5.15,3.72-24.57,13.17-58.27,20.89-35.87,8.21-54.91,9.13-70.69,14.21-5.83,1.88-10.09,4.42-13.44,7.46,10.74-11.75,32.21-36.52,35.94-51,17.23,1.24,69.91,3.98,91.11,6.24,6.68.72,11.66,1.4,15.35,2.2Z"/>
  <path class="st6" d="M560.54,357.3c-3.73,14.48-25.2,39.25-35.94,51-.02.01-.03.03-.04.04-5.69,5.14-8.8,11.71-12.74,18.85-3.93-7.13-7.04-13.7-12.73-18.85-10.74-11.74-32.25-36.55-35.98-51.04.69-.06,1.32-.1,1.89-.15,7.43-.59,15.45-1.34,23.46-1.94,8-.61,15.99-1.06,23.36-1.06,14.74,0,31.96,1.82,46.83,3,.57.05,1.2.09,1.89.15Z"/>
  <line class="st1" x1="499.82" y1="841.45" x2="499.82" y2="424.52"/>
  <line class="st2" x1="463.11" y1="357.3" x2="463.11" y2="357.29"/>
  <path class="st4" d="M445.84,300.87c0,12.28-.27,28.99-.47,39.57-23.1,1.4-57.29,3.4-73.37,5.11-8.38.89-14.09,1.74-17.93,2.83.29-.81.57-1.62.84-2.45,3.91-11.74,14.48-46.96,19.56-59.48,5.09-12.52,18.59-38.74,29.94-49.89,11.35-11.15,27.78-26.22,38.93-35.8.76-.66,1.58-1.31,2.47-1.94-.23,8.31-2.37,17.23-3.38,30.44-1.56,20.55,3.41,52.24,3.41,71.61Z"/>
  <path class="st2" d="M499.09,408.34c-3.36-3.05-7.63-5.61-13.49-7.5-15.78-5.08-34.82-6-70.69-14.21-33.7-7.72-53.12-17.17-58.27-20.89,3.69-.8,8.68-1.48,15.36-2.2,21.2-2.26,73.88-5,91.11-6.24,3.73,14.49,25.24,39.3,35.98,51.04Z"/>
  <path class="st8" d="M508.04,428.79c-.63.46-1.32.51-2.08.27-2.6-.81-5.95-4.99-9.89-7.41-5.08-3.13-10.67-5.75-14.96-6.64,1.94.19,3.6.34,4.89.44,7.45.59,16.65,4.91,22.04,8.59h.01c.21.22,2.64,2.78-.01,4.75Z"/>
  <path class="st4" d="M577.81,300.87c0,12.28.27,28.99.47,39.57-8.57-.52-15.62-.97-19.64-1.28-14.86-1.18-32.08-3-46.82-3s-31.96,1.82-46.82,3c-4.02.31-11.06.76-19.63,1.28.2-10.58.47-27.29.47-39.57,0-19.37-4.97-51.06-3.41-71.61,1.01-13.21,3.15-22.13,3.38-30.44h0c12.02-8.76,35.02-16.06,66.01-16.06s54,7.3,66.02,16.06c.23,8.31,2.37,17.23,3.38,30.44,1.56,20.55-3.41,52.24-3.41,71.61Z"/>
  <path class="st4" d="M669.57,348.38c-3.84-1.09-9.55-1.94-17.93-2.83-16.07-1.71-50.26-3.7-73.36-5.11-.2-10.58-.47-27.29-.47-39.57,0-19.37,4.97-51.06,3.41-71.61-1.01-13.21-3.15-22.13-3.38-30.44.88.64,1.7,1.29,2.46,1.94,11.15,9.58,27.58,24.65,38.93,35.8,11.35,11.15,24.85,37.37,29.94,49.89,5.08,12.52,15.65,47.74,19.56,59.48.27.83.55,1.64.84,2.45Z"/>
  <path class="st5" d="M677.13,373.15c-.43-3.71-2.65-5.79-10.13-7.41-3.69-.8-8.67-1.48-15.35-2.2-21.2-2.26-73.88-5-91.11-6.24-.69-.06-1.32-.1-1.89-.15-14.87-1.18-32.09-3-46.83-3-7.37,0-15.36.45-23.36,1.06-8.01.6-16.03,1.35-23.46,1.94-.57.05-1.2.09-1.89.15-17.23,1.24-69.91,3.98-91.11,6.24-6.68.72-11.67,1.4-15.36,2.2-7.48,1.62-9.7,3.7-10.13,7.41.55-6.41,4.16-14.93,7.56-24.77,3.84-1.09,9.55-1.94,17.93-2.83,16.08-1.71,50.27-3.71,73.37-5.11,8.57-.52,15.61-.97,19.63-1.28,14.86-1.18,32.08-3,46.82-3s31.96,1.82,46.82,3c4.02.31,11.07.76,19.64,1.28,23.1,1.41,57.29,3.4,73.36,5.11,8.38.89,14.09,1.74,17.93,2.83,3.4,9.84,7.01,18.36,7.56,24.77Z"/>
  <path class="st2" d="M560.54,357.3c-3.73,14.48-25.2,39.25-35.94,51-.02.01-.03.03-.04.04-5.69,5.14-8.8,11.71-12.74,18.85-3.93-7.13-7.04-13.7-12.73-18.85-10.74-11.74-32.25-36.55-35.98-51.04.69-.06,1.32-.1,1.89-.15,7.43-.59,15.45-1.34,23.46-1.94,8-.61,15.99-1.06,23.36-1.06,14.74,0,31.96,1.82,46.83,3,.57.05,1.2.09,1.89.15Z"/>
  <path class="st7" d="M517.68,429.06v412.39h-11.72v-412.39c.76.24,1.45.19,2.08-.27,2.65-1.97.22-4.53.01-4.74,1.68,1.15,3,2.24,3.77,3.14.77-.9,2.09-1.99,3.77-3.14-.21.21-2.64,2.77.01,4.74.63.46,1.32.51,2.08.27Z"/>
  <path class="st8" d="M511.82,427.19c-.77-.9-2.09-1.99-3.77-3.14h-.01c-5.39-3.69-14.59-8.01-22.04-8.6-1.29-.1-2.95-.25-4.89-.44h-.01c-12.68-1.23-37.32-4.08-50.67-6.34-15.39-2.61-45.52-9.91-56.61-13.44-11.09-3.52-27.39-13.43-27.39-20.47,0-.44.01-.85.04-1.25l.04-.36c.43-3.71,2.65-5.79,10.13-7.41,5.15,3.72,24.57,13.17,58.27,20.89,35.87,8.21,54.91,9.13,70.69,14.21,5.86,1.89,10.13,4.45,13.49,7.5,5.69,5.15,8.8,11.72,12.73,18.85Z"/>
  <path class="st8" d="M677.21,374.76c0,7.04-16.3,16.95-27.39,20.47-11.09,3.53-41.22,10.83-56.61,13.44-13.35,2.26-37.97,5.11-50.66,6.34-1.95.19-3.61.34-4.91.44-7.45.59-16.65,4.91-22.04,8.59h-.01c-1.68,1.16-3,2.25-3.77,3.15,3.94-7.14,7.05-13.71,12.74-18.85.01-.01.02-.03.04-.04,3.35-3.04,7.61-5.58,13.44-7.46,15.78-5.08,34.82-6,70.69-14.21,33.7-7.72,53.12-17.17,58.27-20.89,7.48,1.62,9.7,3.7,10.13,7.41l.04.36c.03.4.04.81.04,1.25Z"/>
  <path class="st8" d="M542.55,415.01c-4.29.89-9.89,3.51-14.98,6.64-3.94,2.42-7.29,6.6-9.89,7.41-.76.24-1.45.19-2.08-.27-2.65-1.97-.22-4.53-.01-4.74h.01c5.39-3.69,14.59-8.01,22.04-8.6,1.3-.1,2.96-.25,4.91-.44Z"/>
  <line class="st1" x1="523.82" y1="841.45" x2="523.82" y2="424.52"/>
  <path class="st2" d="M667,365.74c-5.15,3.72-24.57,13.17-58.27,20.89-35.87,8.21-54.91,9.13-70.69,14.21-5.83,1.88-10.09,4.42-13.44,7.46,10.74-11.75,32.21-36.52,35.94-51,17.23,1.24,69.91,3.98,91.11,6.24,6.68.72,11.66,1.4,15.35,2.2Z"/>
  <line class="st2" x1="560.54" y1="357.3" x2="560.54" y2="357.29"/>
  <line class="st2" x1="577.84" y1="198.82" x2="577.84" y2="198.81"/>
  <path class="st3" d="M676.08,370.7c.57,3.59-22.3,15.94-39.71,20.44-17.42,4.5-60.17,10.28-83.25,13.41-23.09,3.13-25.75,2.64-32.93,7.39-2.49-4.85-5.8-4.07-8.93-4.07s-6.44-.78-8.93,4.07c-7.18-4.75-9.84-4.26-32.93-7.39-23.08-3.13-65.83-8.91-83.25-13.41-17.41-4.5-40.28-16.85-39.71-20.44,1.62-4.05,7.43-5.76,25-7.63,22.04-2.35,78.13-5.22,93-6.39,14.86-1.18,32.07-3,46.81-3h.02c14.74,0,31.95,1.82,46.81,3,14.87,1.17,70.96,4.04,93,6.39,17.57,1.87,23.38,3.58,25,7.63Z"/>
  <path class="st0" d="M445.84,300.87c0,12.28-.27,28.99-.47,39.57-23.1,1.4-57.29,3.4-73.37,5.11-8.38.89-14.09,1.74-17.93,2.83.29-.81.57-1.62.84-2.45,3.91-11.74,14.48-46.96,19.56-59.48,5.09-12.52,18.59-38.74,29.94-49.89,11.35-11.15,27.78-26.22,38.93-35.8.76-.66,1.58-1.31,2.47-1.94-.23,8.31-2.37,17.23-3.38,30.44-1.56,20.55,3.41,52.24,3.41,71.61Z"/>
  <path class="st0" d="M508.04,428.79c-.63.46-1.32.51-2.08.27-2.6-.81-5.95-4.99-9.89-7.41-5.08-3.13-10.67-5.75-14.96-6.64,1.94.19,3.6.34,4.89.44,7.45.59,16.65,4.91,22.04,8.59h.01c.21.22,2.64,2.78-.01,4.75Z"/>
  <path class="st0" d="M577.81,300.87c0,12.28.27,28.99.47,39.57-8.57-.52-15.62-.97-19.64-1.28-14.86-1.18-32.08-3-46.82-3s-31.96,1.82-46.82,3c-4.02.31-11.06.76-19.63,1.28.2-10.58.47-27.29.47-39.57,0-19.37-4.97-51.06-3.41-71.61,1.01-13.21,3.15-22.13,3.38-30.44h0c12.02-8.76,35.02-16.06,66.01-16.06s54,7.3,66.02,16.06c.23,8.31,2.37,17.23,3.38,30.44,1.56,20.55-3.41,52.24-3.41,71.61Z"/>
  <path class="st0" d="M669.57,348.38c-3.84-1.09-9.55-1.94-17.93-2.83-16.07-1.71-50.26-3.7-73.36-5.11-.2-10.58-.47-27.29-.47-39.57,0-19.37,4.97-51.06,3.41-71.61-1.01-13.21-3.15-22.13-3.38-30.44.88.64,1.7,1.29,2.46,1.94,11.15,9.58,27.58,24.65,38.93,35.8,11.35,11.15,24.85,37.37,29.94,49.89,5.08,12.52,15.65,47.74,19.56,59.48.27.83.55,1.64.84,2.45Z"/>
  <path class="st0" d="M677.13,373.15c-.43-3.71-2.65-5.79-10.13-7.41-3.69-.8-8.67-1.48-15.35-2.2-21.2-2.26-73.88-5-91.11-6.24-.69-.06-1.32-.1-1.89-.15-14.87-1.18-32.09-3-46.83-3-7.37,0-15.36.45-23.36,1.06-8.01.6-16.03,1.35-23.46,1.94-.57.05-1.2.09-1.89.15-17.23,1.24-69.91,3.98-91.11,6.24-6.68.72-11.67,1.4-15.36,2.2-7.48,1.62-9.7,3.7-10.13,7.41.55-6.41,4.16-14.93,7.56-24.77,3.84-1.09,9.55-1.94,17.93-2.83,16.08-1.71,50.27-3.71,73.37-5.11,8.57-.52,15.61-.97,19.63-1.28,14.86-1.18,32.08-3,46.82-3s31.96,1.82,46.82,3c4.02.31,11.07.76,19.64,1.28,23.1,1.41,57.29,3.4,73.36,5.11,8.38.89,14.09,1.74,17.93,2.83,3.4,9.84,7.01,18.36,7.56,24.77Z"/>
  <path class="st0" d="M511.82,427.19c-.77-.9-2.09-1.99-3.77-3.14h-.01c-5.39-3.69-14.59-8.01-22.04-8.6-1.29-.1-2.95-.25-4.89-.44h-.01c-12.68-1.23-37.32-4.08-50.67-6.34-15.39-2.61-45.52-9.91-56.61-13.44-11.09-3.52-27.39-13.43-27.39-20.47,0-.44.01-.85.04-1.25l.04-.36c.43-3.71,2.65-5.79,10.13-7.41,5.15,3.72,24.57,13.17,58.27,20.89,35.87,8.21,54.91,9.13,70.69,14.21,5.86,1.89,10.13,4.45,13.49,7.5,5.69,5.15,8.8,11.72,12.73,18.85Z"/>
  <path class="st0" d="M677.21,374.76c0,7.04-16.3,16.95-27.39,20.47-11.09,3.53-41.22,10.83-56.61,13.44-13.35,2.26-37.97,5.11-50.66,6.34-1.95.19-3.61.34-4.91.44-7.45.59-16.65,4.91-22.04,8.59h-.01c-1.68,1.16-3,2.25-3.77,3.15,3.94-7.14,7.05-13.71,12.74-18.85.01-.01.02-.03.04-.04,3.35-3.04,7.61-5.58,13.44-7.46,15.78-5.08,34.82-6,70.69-14.21,33.7-7.72,53.12-17.17,58.27-20.89,7.48,1.62,9.7,3.7,10.13,7.41l.04.36c.03.4.04.81.04,1.25Z"/>
  <path class="st0" d="M542.55,415.01c-4.29.89-9.89,3.51-14.98,6.64-3.94,2.42-7.29,6.6-9.89,7.41-.76.24-1.45.19-2.08-.27-2.65-1.97-.22-4.53-.01-4.74h.01c5.39-3.69,14.59-8.01,22.04-8.6,1.3-.1,2.96-.25,4.91-.44Z"/>
  <path class="st0" d="M517.68,429.06v412.39h-11.72v-412.39c.76.24,1.45.19,2.08-.27,2.65-1.97.22-4.53.01-4.74,1.68,1.15,3,2.24,3.77,3.14.77-.9,2.09-1.99,3.77-3.14-.21.21-2.64,2.77.01,4.74.63.46,1.32.51,2.08.27Z"/>
</svg>