<?xml version="1.0" encoding="UTF-8"?>
<svg id="Livello_2" xmlns="http://www.w3.org/2000/svg" version="1.1" viewBox="0 0 350 350">
  <!-- Generator: Adobe Illustrator 29.8.1, SVG Export Plug-In . SVG Version: 2.1.1 Build 2)  -->
  <defs>
    <style>
      .st0, .st1 {
        fill: #131211;
      }

      .st1 {
        opacity: .14;
      }

      .st2 {
        stroke-dasharray: 2 1 0 0;
        stroke-width: .5px;
      }

      .st2, .st3 {
        fill: none;
        stroke: #131211;
        stroke-linecap: round;
        stroke-linejoin: round;
      }

      .st3 {
        stroke-width: 1.2px;
      }
    </style>
  </defs>
  <path class="st0" d="M51.24,150.63c3.39-3.29,7.32-6,11.06-8.82,11.11-8.66,21.53-18.19,31.84-27.79-10.12,9.83-20.34,19.58-31.29,28.5-3.7,2.92-7.48,5.63-10.79,8.98-.56.55-1.41-.32-.83-.87h0Z"/>
  <path class="st3" d="M334.8,255.28c0-15.98-21.39-16.37-49.82-12.84-28.44,3.52-37.96,21.26-65.61,21.26-6.75,0-11.8-.38-15.78-.96-12.3-1.78-14.34-5.44-24.79-5.44-9.52,0-18.99,2.6-28.65,4.18-4.36.71-8.76,1.21-13.22,1.17-18.91,0-51.52-15.78-92.73-17.48-16.57,0-29.22,3.66-29.22,10.44-.07-14.51,3.26-57.65,10.69-70.57,6.01-10.43,15.72-24.19,25.94-33.93l.05-.05c13.94-14.58,20.21-33.33,37.01-44.28,16.83-10.95,29.16-23.48,43.05-30.91,13.89-7.43,15.06-19.96,38.74-19.96,15.65,0,14.57,5.87,22.2,7.83s11.06-2.25,28.67,11.15c17.6,13.4,32.34,21.46,54.78,47.94,22.43,26.47,41.22,37.69,46.43,67.95,5.22,30.26,14.02,47.48,12.26,64.5Z"/>
  <path class="st3" d="M173.85,289.54c-6.38-4.63-22.14-9.59-47.35-12.8-33.78-4.3-46.7-3.52-73.7-6.39-27-2.87-37.82-7.96-37.82-14.74s12.65-10.44,29.22-10.44c41.21,1.7,73.82,17.48,92.73,17.48,4.46.04,8.86-.46,13.22-1.17,9.42,11.81,23.27,27.57,23.7,28.06Z"/>
  <path class="st3" d="M203.59,262.74c-3.05,8.99-13.7,20.73-22.06,25.63-.18.1-.35.2-.52.3-2.51,1.49-3.9,3.26-3.9,5.42,0-1.42-1.08-2.96-3.25-4.54h-.01c-.43-.5-14.28-16.26-23.7-28.07,9.66-1.58,19.13-4.18,28.65-4.18,10.45,0,12.49,3.66,24.79,5.44Z"/>
  <path class="st3" d="M334.8,255.28c-1.76,17.02-31.3,20.16-72,23.29-33.06,2.54-68.97,3.11-81.27,9.8,8.36-4.9,19.01-16.64,22.06-25.63,3.98.58,9.03.96,15.78.96,27.65,0,37.17-17.74,65.61-21.26,28.43-3.53,49.82-3.14,49.82,12.84Z"/>
  <path class="st2" d="M15.56,240.59c2.64-5.25,14.14-8.04,28.63-8.04,41.22,1.7,73.83,17.48,92.74,17.48,14.35.13,28.05-5.35,41.87-5.35s12.92,6.39,40.57,6.39,37.17-17.74,65.61-21.26c23.95-2.97,42.9-3.16,48.27,6.41"/>
  <path class="st2" d="M196.68,274.53c16.17-3.57,39.49-5.55,61.43-7.31,38.92-3.14,68.54-6.09,70.23-23.11"/>
  <path class="st2" d="M161.29,274.96h-.01c-8.21-2.4-19.83-4.86-34.91-7.55-33.53-5.97-46.47-5.83-73.29-10.03-15.79-2.47-25.94-5.43-31.56-8.84"/>
  <path class="st1" d="M16.45,229.45s8.83-26.41,18.02-39.52c-9.39,30.52-18.02,44.02-18.02,44.02v-4.5Z"/>
  <path class="st1" d="M49.82,152.85c5.77-5.31,16.15-13.09,23.85-19.98,7.69-6.89,19.77-18.17,19.77-18.17,0,0-12.8,9.5-19.26,12.73-6.46,3.23-9.29,6.35-9.29,6.35,0,0-3.67,5.95-7.5,10.58-3.83,4.62-7.57,8.5-7.57,8.5Z"/>
  <path class="st1" d="M161.93,104.42c-1.3,21.28,4.32,25.97,5.81,46.32,1.49,20.35,9.17,38.87,9.17,38.87,0,0,2.2-13.3,0-24.78-2.2-11.48-12.38-39.43-14.98-60.41Z"/>
  <path class="st1" d="M226.28,82.16c11.67,17.72,20.97,42.2-1.99,70.84-.56.69-1.66.02-1.28-.79,10.19-22.09,15.38-43.28,3.27-70.05Z"/>
  <path class="st1" d="M328.62,217.9s-12.6-24.83-23.62-36.45c13.76,28.82,24.81,41.21,24.81,41.21l-1.19-4.76Z"/>
  <path class="st1" d="M323.09,241.95c-14.2-3.07-33.75-.38-44.68,1.44-10.93,1.82-23.27,9.29-30.73,12.96-7.46,3.66-14.18,7.16-30.88,7.16-19.3.02-28.56-6.65-39.26-6.35-8.54,0-27.78,5.33-39.91,5.33s-34.31-6.96-39.15-8.22c-4.85-1.26-30.48-7.68-50.14-9.04-15.44-1.07-29.12,1.98-32.5,7.39-1.34,2.14.26,4.91,2.77,4.87,27.91-.43,49.39-1.56,69.78.96,21.13,2.61,50.22,10.3,63.13,11.34,6.51,1.17,7.44,2.27,7.44,2.27,0,0,13.21,15.4,15.38,17.71,1.62,1.54,2.75,2.25,2.75,4.15,0-1.63,1.33-3.36,2.74-4.65,5.1-3.17,9.72-7.21,12.41-9.85,2.69-2.64,7.04-8.62,7.04-8.62,3.41-.41,9.16-1.04,18.83-2.05,22.63-2.35,37.3-12.26,57.65-14.67,20.35-2.42,48.4-1.46,58.34,4.16.56-2.23,3.19-13.21-11.01-16.29ZM189.05,276.51l-8.09,7.77c-2.15,2.06-5.55,2.01-7.64-.11l-7.31-7.42c-2.66-2.69-1.3-7.26,2.4-8.03,2.45-.51,5.71-.88,10-.88,3.31,0,5.93.19,8.01.49,3.95.55,5.5,5.42,2.63,8.18Z"/>
  <path class="st3" d="M170.45,55.91c10.17,21.13,3.72,26.55,3.72,51.59s5.49,52.43,3.13,83.35c-2.35,30.91.23,66.3.23,66.3"/>
  <path class="st1" d="M177.12,293.92c-3.97-5.54-21.87-8.37-40.26-10.33-15.83-1.69-52.63-3.01-81-6.65-23.24-2.98-32.42-10.13-37.53-15.63,5.02,3.89,15.93,6.91,34.48,8.88,27,2.87,39.92,2.09,73.7,6.39,25.21,3.21,40.97,8.17,47.35,12.8h.01c2.17,1.59,3.25,3.13,3.25,4.55Z"/>
  <path class="st1" d="M329.36,264.84c-2.19,2.32-11.95,15.37-29.59,18.36-20.09,3.39-57.63-.17-78.77,1.78-21.13,1.96-37.3,5.35-43.88,8.94,0-2.16,1.39-3.93,3.9-5.42.17-.1.34-.2.52-.3,12.3-6.69,48.21-7.26,81.27-9.8,31.31-2.41,56.02-4.82,66.55-13.56Z"/>
  <g>
    <rect x="193.52" y="65.71" width="0" height="0" transform="translate(18.6 171.41) rotate(-49.9)"/>
    <path d="M193.6,65.78l.11.09.16-.19s.05-.06.08-.09h0s-.08.03-.12.04l-.15.04-.08.11Z"/>
    <path d="M193.89,65.38l-.14.19.25-.07.09.07-.3.36.08.07-.05.06-.08-.07-.13.16-.07-.06.13-.16-.11-.09-.12.17-.08-.06.12-.17-.09-.07.04-.05.17-.05c.05-.07.11-.15.16-.21h0c-.08.05-.17.11-.26.16l-.35.21-.06-.05.14-.37c.04-.11.08-.21.12-.29h0c-.06.07-.15.17-.23.26l-.23.25-.06-.05h-.01s-.06-.06-.06-.06l.42-.51h0s-.08-.02-.08-.02l-.36.5-.08-.06.2-.28c.06-.09.14-.19.2-.27h0c-.08.05-.17.11-.26.16l-.35.21-.06-.05.14-.37c.04-.11.08-.21.12-.29h0c-.06.07-.15.17-.23.26l-.23.25-.07-.06.54-.57.1.08-.14.38c-.04.09-.07.18-.11.25h0c.07-.05.14-.09.23-.15l.35-.2.1.08-.04.06.1.02.07.05-.33.4.38-.4.1.08-.14.38c-.04.09-.07.18-.11.25h0c.07-.05.14-.09.23-.15l.34-.2c-1.75-1.5-3.57-2.92-5.46-4.22-.67-.46-1.34.57-.66,1,1.5.93,3,1.89,4.42,2.95,4.29,3.15,8.23,6.78,11.69,10.85-2.91-3.82-6.23-7.35-9.89-10.49Z"/>
    <path d="M193.89,65.37l-.1-.08h0s.07.06.1.08h0Z"/>
  </g>
</svg>