<?xml version="1.0" encoding="UTF-8"?>
<svg id="Livello_1" xmlns="http://www.w3.org/2000/svg" version="1.1" viewBox="0 0 577.91 1024">
  <!-- Generator: Adobe Illustrator 29.8.1, SVG Export Plug-In . SVG Version: 2.1.1 Build 2)  -->
  <defs>
    <style>
      .st0 {
        fill: red;
      }

      .st1 {
        stroke: #000209;
      }

      .st1, .st2 {
        fill: none;
        stroke-linecap: round;
        stroke-linejoin: round;
        stroke-width: 1.2px;
      }

      .st3 {
        fill: #0019ff;
      }

      .st4 {
        fill: #fa0;
      }

      .st5 {
        fill: #00ff85;
      }

      .st6 {
        fill: #f9f8f8;
      }

      .st2 {
        stroke: #131211;
      }
    </style>
  </defs>
  <g>
    <path class="st3" d="M269.99,359.13h.02s-.06-.05-.09-.08c.02.03.05.05.07.08Z"/>
    <path class="st3" d="M82.63,293.08c-9.84,1.06-17.2,2.06-22.64,3.24,7.6,5.49,36.23,19.42,85.91,30.8,52.89,12.1,80.96,13.46,104.22,20.95,8.59,2.77,14.86,6.52,19.8,10.98-15.85-17.34-47.48-53.84-52.97-75.17-25.4,1.83-103.07,5.87-134.32,9.2Z"/>
    <path class="st3" d="M494.92,293.09c-31.25-3.33-108.92-7.37-134.32-9.2-5.49,21.35-37.15,57.87-52.98,75.19,4.93-4.48,11.22-8.23,19.81-11,23.27-7.49,51.34-8.85,104.22-20.95,49.68-11.38,78.31-25.32,85.9-30.8-5.44-1.18-12.78-2.18-22.63-3.24Z"/>
    <path class="st3" d="M360.6,283.88h.02c-1.02-.09-1.95-.15-2.79-.22-21.92-1.74-47.31-4.42-69.04-4.42-10.87,0-22.65.66-34.44,1.56-11.81.88-23.64,1.99-34.59,2.86-.84.07-1.77.13-2.79.22,5.5,21.37,37.21,57.94,53.04,75.25,8.39,7.59,12.98,17.28,18.77,27.79,5.81-10.53,10.39-20.21,18.78-27.79.02-.02.03-.05.06-.06,15.83-17.33,47.48-53.84,52.98-75.19Z"/>
  </g>
  <path class="st4" d="M271.09,998.15c-.28,0-.5-.22-.5-.5v-4c0-.27.22-.5.5-.5s.5.23.5.5v4c0,.28-.22.5-.5.5ZM271.09,990.65c-.28,0-.5-.22-.5-.5v-4c0-.28.22-.5.5-.5s.5.22.5.5v4c0,.28-.22.5-.5.5ZM271.09,983.15c-.28,0-.5-.22-.5-.5v-4c0-.28.22-.5.5-.5s.5.22.5.5v4c0,.28-.22.5-.5.5ZM271.09,975.65c-.28,0-.5-.22-.5-.5v-4c0-.27.22-.5.5-.5s.5.23.5.5v4c0,.28-.22.5-.5.5ZM271.09,968.15c-.28,0-.5-.22-.5-.5v-4c0-.28.22-.5.5-.5s.5.22.5.5v4c0,.28-.22.5-.5.5ZM271.09,960.65c-.28,0-.5-.22-.5-.5v-4c0-.28.22-.5.5-.5s.5.22.5.5v4c0,.28-.22.5-.5.5ZM271.09,953.15c-.28,0-.5-.22-.5-.5v-4c0-.27.22-.5.5-.5s.5.23.5.5v4c0,.28-.22.5-.5.5ZM271.09,945.65c-.28,0-.5-.22-.5-.5v-4c0-.28.22-.5.5-.5s.5.22.5.5v4c0,.28-.22.5-.5.5ZM271.09,938.15c-.28,0-.5-.22-.5-.5v-4c0-.28.22-.5.5-.5s.5.22.5.5v4c0,.28-.22.5-.5.5ZM271.09,930.65c-.28,0-.5-.22-.5-.5v-4c0-.28.22-.5.5-.5s.5.22.5.5v4c0,.28-.22.5-.5.5ZM271.09,923.15c-.28,0-.5-.22-.5-.5v-4c0-.28.22-.5.5-.5s.5.22.5.5v4c0,.28-.22.5-.5.5ZM271.09,915.65c-.28,0-.5-.22-.5-.5v-4c0-.28.22-.5.5-.5s.5.22.5.5v4c0,.28-.22.5-.5.5ZM271.09,908.15c-.28,0-.5-.22-.5-.5v-4c0-.28.22-.5.5-.5s.5.22.5.5v4c0,.28-.22.5-.5.5ZM271.09,900.65c-.28,0-.5-.22-.5-.5v-4c0-.28.22-.5.5-.5s.5.22.5.5v4c0,.28-.22.5-.5.5ZM271.09,893.15c-.28,0-.5-.22-.5-.5v-4c0-.28.22-.5.5-.5s.5.22.5.5v4c0,.28-.22.5-.5.5ZM271.09,885.65c-.28,0-.5-.22-.5-.5v-4c0-.28.22-.5.5-.5s.5.22.5.5v4c0,.28-.22.5-.5.5ZM271.09,878.15c-.28,0-.5-.22-.5-.5v-4c0-.28.22-.5.5-.5s.5.22.5.5v4c0,.28-.22.5-.5.5ZM271.09,870.65c-.28,0-.5-.22-.5-.5v-4c0-.28.22-.5.5-.5s.5.22.5.5v4c0,.28-.22.5-.5.5ZM271.09,863.15c-.28,0-.5-.22-.5-.5v-4c0-.28.22-.5.5-.5s.5.22.5.5v4c0,.28-.22.5-.5.5ZM271.09,855.65c-.28,0-.5-.22-.5-.5v-4c0-.28.22-.5.5-.5s.5.22.5.5v4c0,.28-.22.5-.5.5ZM271.09,848.15c-.28,0-.5-.22-.5-.5v-4c0-.28.22-.5.5-.5s.5.22.5.5v4c0,.28-.22.5-.5.5ZM271.09,840.65c-.28,0-.5-.22-.5-.5v-4c0-.28.22-.5.5-.5s.5.22.5.5v4c0,.28-.22.5-.5.5ZM271.09,833.15c-.28,0-.5-.22-.5-.5v-4c0-.28.22-.5.5-.5s.5.22.5.5v4c0,.28-.22.5-.5.5ZM271.09,825.65c-.28,0-.5-.22-.5-.5v-4c0-.27.22-.5.5-.5s.5.23.5.5v4c0,.28-.22.5-.5.5ZM271.09,818.15c-.28,0-.5-.22-.5-.5v-4c0-.28.22-.5.5-.5s.5.22.5.5v4c0,.28-.22.5-.5.5ZM271.09,810.65c-.28,0-.5-.22-.5-.5v-4c0-.28.22-.5.5-.5s.5.22.5.5v4c0,.28-.22.5-.5.5ZM271.09,803.15c-.28,0-.5-.22-.5-.5v-4c0-.27.22-.5.5-.5s.5.23.5.5v4c0,.28-.22.5-.5.5ZM271.09,795.65c-.28,0-.5-.22-.5-.5v-4c0-.28.22-.5.5-.5s.5.22.5.5v4c0,.28-.22.5-.5.5ZM271.09,788.15c-.28,0-.5-.22-.5-.5v-4c0-.27.22-.5.5-.5s.5.23.5.5v4c0,.28-.22.5-.5.5ZM271.09,780.65c-.28,0-.5-.22-.5-.5v-4c0-.27.22-.5.5-.5s.5.23.5.5v4c0,.28-.22.5-.5.5ZM271.09,773.15c-.28,0-.5-.22-.5-.5v-4c0-.28.22-.5.5-.5s.5.22.5.5v4c0,.28-.22.5-.5.5ZM271.09,765.65c-.28,0-.5-.22-.5-.5v-4c0-.27.22-.5.5-.5s.5.23.5.5v4c0,.28-.22.5-.5.5ZM271.09,758.15c-.28,0-.5-.23-.5-.5v-4c0-.27.22-.5.5-.5s.5.23.5.5v4c0,.27-.22.5-.5.5ZM271.09,750.65c-.28,0-.5-.22-.5-.5v-4c0-.28.22-.5.5-.5s.5.22.5.5v4c0,.28-.22.5-.5.5ZM271.09,743.15c-.28,0-.5-.22-.5-.5v-4c0-.28.22-.5.5-.5s.5.22.5.5v4c0,.28-.22.5-.5.5ZM271.09,735.65c-.28,0-.5-.23-.5-.5v-4c0-.27.22-.5.5-.5s.5.23.5.5v4c0,.27-.22.5-.5.5ZM271.09,728.15c-.28,0-.5-.22-.5-.5v-4c0-.28.22-.5.5-.5s.5.22.5.5v4c0,.28-.22.5-.5.5ZM271.09,720.65c-.28,0-.5-.22-.5-.5v-4c0-.28.22-.5.5-.5s.5.22.5.5v4c0,.28-.22.5-.5.5ZM271.09,713.15c-.28,0-.5-.22-.5-.5v-4c0-.27.22-.5.5-.5s.5.23.5.5v4c0,.28-.22.5-.5.5ZM271.09,705.65c-.28,0-.5-.22-.5-.5v-4c0-.28.22-.5.5-.5s.5.22.5.5v4c0,.28-.22.5-.5.5ZM271.09,698.15c-.28,0-.5-.22-.5-.5v-4c0-.28.22-.5.5-.5s.5.22.5.5v4c0,.28-.22.5-.5.5ZM271.09,690.65c-.28,0-.5-.22-.5-.5v-4c0-.27.22-.5.5-.5s.5.23.5.5v4c0,.28-.22.5-.5.5ZM271.09,683.15c-.28,0-.5-.22-.5-.5v-4c0-.28.22-.5.5-.5s.5.22.5.5v4c0,.28-.22.5-.5.5ZM271.09,675.65c-.28,0-.5-.22-.5-.5v-4c0-.28.22-.5.5-.5s.5.22.5.5v4c0,.28-.22.5-.5.5ZM271.09,668.15c-.28,0-.5-.22-.5-.5v-4c0-.27.22-.5.5-.5s.5.23.5.5v4c0,.28-.22.5-.5.5ZM271.09,660.65c-.28,0-.5-.22-.5-.5v-4c0-.28.22-.5.5-.5s.5.22.5.5v4c0,.28-.22.5-.5.5ZM271.09,653.15c-.28,0-.5-.22-.5-.5v-4c0-.28.22-.5.5-.5s.5.22.5.5v4c0,.28-.22.5-.5.5ZM271.09,645.65c-.28,0-.5-.22-.5-.5v-4c0-.28.22-.5.5-.5s.5.22.5.5v4c0,.28-.22.5-.5.5ZM271.09,638.15c-.28,0-.5-.22-.5-.5v-4c0-.28.22-.5.5-.5s.5.22.5.5v4c0,.28-.22.5-.5.5ZM271.09,630.65c-.28,0-.5-.22-.5-.5v-4c0-.28.22-.5.5-.5s.5.22.5.5v4c0,.28-.22.5-.5.5ZM271.09,623.15c-.28,0-.5-.22-.5-.5v-4c0-.28.22-.5.5-.5s.5.22.5.5v4c0,.28-.22.5-.5.5ZM271.09,615.65c-.28,0-.5-.22-.5-.5v-4c0-.28.22-.5.5-.5s.5.22.5.5v4c0,.28-.22.5-.5.5ZM271.09,608.15c-.28,0-.5-.22-.5-.5v-4c0-.28.22-.5.5-.5s.5.22.5.5v4c0,.28-.22.5-.5.5ZM271.09,600.65c-.28,0-.5-.22-.5-.5v-4c0-.28.22-.5.5-.5s.5.22.5.5v4c0,.28-.22.5-.5.5ZM271.09,593.15c-.28,0-.5-.22-.5-.5v-4c0-.28.22-.5.5-.5s.5.22.5.5v4c0,.28-.22.5-.5.5ZM271.09,585.65c-.28,0-.5-.22-.5-.5v-4c0-.28.22-.5.5-.5s.5.22.5.5v4c0,.28-.22.5-.5.5ZM271.09,578.15c-.28,0-.5-.22-.5-.5v-4c0-.28.22-.5.5-.5s.5.22.5.5v4c0,.28-.22.5-.5.5ZM271.09,570.65c-.28,0-.5-.22-.5-.5v-4c0-.28.22-.5.5-.5s.5.22.5.5v4c0,.28-.22.5-.5.5ZM271.09,563.15c-.28,0-.5-.22-.5-.5v-4c0-.28.22-.5.5-.5s.5.22.5.5v4c0,.28-.22.5-.5.5ZM271.09,555.65c-.28,0-.5-.22-.5-.5v-4c0-.28.22-.5.5-.5s.5.22.5.5v4c0,.28-.22.5-.5.5ZM271.09,548.15c-.28,0-.5-.22-.5-.5v-4c0-.28.22-.5.5-.5s.5.22.5.5v4c0,.28-.22.5-.5.5ZM271.09,540.65c-.28,0-.5-.22-.5-.5v-4c0-.27.22-.5.5-.5s.5.23.5.5v4c0,.28-.22.5-.5.5ZM271.09,533.15c-.28,0-.5-.22-.5-.5v-4c0-.28.22-.5.5-.5s.5.22.5.5v4c0,.28-.22.5-.5.5ZM271.09,525.65c-.28,0-.5-.22-.5-.5v-4c0-.28.22-.5.5-.5s.5.22.5.5v4c0,.28-.22.5-.5.5ZM271.09,518.15c-.28,0-.5-.22-.5-.5v-4c0-.27.22-.5.5-.5s.5.23.5.5v4c0,.28-.22.5-.5.5ZM271.09,510.65c-.28,0-.5-.22-.5-.5v-4c0-.27.22-.5.5-.5s.5.23.5.5v4c0,.28-.22.5-.5.5ZM271.09,503.15c-.28,0-.5-.22-.5-.5v-4c0-.27.22-.5.5-.5s.5.23.5.5v4c0,.28-.22.5-.5.5ZM271.09,495.65c-.28,0-.5-.22-.5-.5v-4c0-.27.22-.5.5-.5s.5.23.5.5v4c0,.28-.22.5-.5.5ZM271.09,488.15c-.28,0-.5-.22-.5-.5v-4c0-.27.22-.5.5-.5s.5.23.5.5v4c0,.28-.22.5-.5.5ZM271.09,480.65c-.28,0-.5-.22-.5-.5v-4c0-.27.22-.5.5-.5s.5.23.5.5v4c0,.28-.22.5-.5.5ZM271.09,473.15c-.28,0-.5-.22-.5-.5v-4c0-.27.22-.5.5-.5s.5.23.5.5v4c0,.28-.22.5-.5.5ZM271.09,465.65c-.28,0-.5-.22-.5-.5v-4c0-.27.22-.5.5-.5s.5.23.5.5v4c0,.28-.22.5-.5.5ZM271.09,458.15c-.28,0-.5-.22-.5-.5v-4c0-.27.22-.5.5-.5s.5.23.5.5v4c0,.28-.22.5-.5.5ZM271.09,450.65c-.28,0-.5-.22-.5-.5v-4c0-.27.22-.5.5-.5s.5.23.5.5v4c0,.28-.22.5-.5.5ZM271.09,443.15c-.28,0-.5-.22-.5-.5v-4c0-.28.22-.5.5-.5s.5.22.5.5v4c0,.28-.22.5-.5.5ZM271.09,435.65c-.28,0-.5-.22-.5-.5v-4c0-.27.22-.5.5-.5s.5.23.5.5v4c0,.28-.22.5-.5.5ZM271.09,428.15c-.28,0-.5-.22-.5-.5v-4c0-.27.22-.5.5-.5s.5.23.5.5v4c0,.28-.22.5-.5.5ZM271.09,420.65c-.28,0-.5-.22-.5-.5v-4c0-.28.22-.5.5-.5s.5.22.5.5v4c0,.28-.22.5-.5.5ZM271.09,413.15c-.28,0-.5-.22-.5-.5v-4c0-.27.22-.5.5-.5s.5.23.5.5v4c0,.28-.22.5-.5.5ZM271.09,405.65c-.28,0-.5-.22-.5-.5v-4c0-.27.22-.5.5-.5s.5.23.5.5v4c0,.28-.22.5-.5.5ZM271.09,398.15c-.28,0-.5-.22-.5-.5v-4c0-.28.22-.5.5-.5s.5.22.5.5v4c0,.28-.22.5-.5.5ZM271.09,390.65c-.28,0-.5-.22-.5-.5v-4c0-.27.22-.5.5-.5s.5.23.5.5v4c0,.28-.22.5-.5.5Z"/>
  <path class="st2" d="M270.01,359.13c-4.95-4.5-11.25-8.27-19.89-11.06-23.26-7.49-51.33-8.85-104.22-20.95-49.68-11.38-78.31-25.31-85.91-30.8,5.44-1.18,12.8-2.18,22.64-3.24,31.25-3.33,108.92-7.37,134.32-9.2,5.5,21.36,37.21,57.94,53.04,75.25h.02Z"/>
  <path class="st0" d="M283.2,389.28c-.93.68-1.95.75-3.07.4-3.83-1.19-8.77-7.36-14.58-10.92-7.49-4.61-15.73-8.48-22.05-9.79,2.86.28,5.31.5,7.21.65,10.98.87,24.55,7.24,32.49,12.66h.01c.31.32,3.89,4.1-.01,7h0Z"/>
  <g>
    <path class="st5" d="M191.5,200.69c0,18.1-.4,42.74-.69,58.34-34.06,2.06-84.46,5.01-108.17,7.53-12.35,1.31-20.77,2.57-26.43,4.17.43-1.19.84-2.39,1.24-3.61,5.76-17.31,21.35-69.23,28.84-87.69,7.5-18.46,27.41-57.11,44.14-73.55s40.95-38.66,57.39-52.78c1.12-.97,2.33-1.93,3.64-2.86-.34,12.25-3.49,25.4-4.98,44.88-2.3,30.3,5.03,77.02,5.03,105.57h0Z"/>
    <path class="st5" d="M386.06,200.69c0,18.1.4,42.74.69,58.34-12.63-.77-23.03-1.43-28.95-1.89-21.91-1.74-47.29-4.42-69.02-4.42s-47.12,2.68-69.02,4.42c-5.93.46-16.31,1.12-28.94,1.89.29-15.6.69-40.23.69-58.34,0-28.56-7.33-75.28-5.03-105.57,1.49-19.47,4.64-32.63,4.98-44.88h0c17.72-12.91,51.63-23.68,97.32-23.68s79.61,10.76,97.33,23.68c.34,12.25,3.49,25.4,4.98,44.88,2.3,30.3-5.03,77.02-5.03,105.57Z"/>
    <path class="st5" d="M521.34,270.73c-5.66-1.61-14.08-2.86-26.43-4.17-23.69-2.52-74.1-5.45-108.15-7.53-.29-15.6-.69-40.23-.69-58.34,0-28.56,7.33-75.28,5.03-105.57-1.49-19.47-4.64-32.63-4.98-44.88,1.3.94,2.51,1.9,3.63,2.86,16.44,14.12,40.66,36.34,57.39,52.78,16.73,16.44,36.64,55.09,44.14,73.55,7.49,18.46,23.07,70.38,28.84,87.69.4,1.22.81,2.42,1.24,3.61h-.02Z"/>
  </g>
  <path class="st0" d="M532.48,307.25c-.63-5.47-3.91-8.54-14.93-10.92-5.44-1.18-12.78-2.18-22.63-3.24-31.25-3.33-108.92-7.37-134.32-9.2-1.02-.09-1.95-.15-2.79-.22-21.92-1.74-47.31-4.42-69.04-4.42-10.87,0-22.64.66-34.44,1.56-11.81.88-23.63,1.99-34.59,2.86-.84.07-1.77.13-2.79.22-25.4,1.83-103.07,5.87-134.32,9.2-9.85,1.06-17.2,2.06-22.64,3.24-11.03,2.39-14.3,5.45-14.93,10.92.81-9.45,6.13-22.01,11.15-36.52,5.66-1.61,14.08-2.86,26.43-4.17,23.71-2.52,74.11-5.47,108.17-7.53,12.63-.77,23.01-1.43,28.94-1.89,21.91-1.74,47.29-4.42,69.02-4.42s47.12,2.68,69.02,4.42c5.93.46,16.32,1.12,28.95,1.89,34.06,2.08,84.46,5.01,108.15,7.53,12.35,1.31,20.77,2.57,26.43,4.17,5.01,14.51,10.33,27.07,11.15,36.52h.01Z"/>
  <path class="st2" d="M360.6,283.88c-5.5,21.35-37.15,57.86-52.98,75.19-.03.01-.04.04-.06.06-8.39,7.58-12.97,17.26-18.78,27.79-5.79-10.51-10.38-20.2-18.77-27.79-15.83-17.31-47.54-53.88-53.04-75.25,1.02-.09,1.95-.15,2.79-.22,10.95-.87,22.78-1.98,34.59-2.86,11.79-.9,23.57-1.56,34.44-1.56,21.73,0,47.12,2.68,69.04,4.42.84.07,1.77.13,2.79.22h-.02Z"/>
  <path class="st6" d="M297.41,389.68v607.97h-17.28V389.68c1.12.35,2.14.28,3.07-.4,3.91-2.9.32-6.68.01-6.99,2.48,1.7,4.42,3.3,5.56,4.63,1.14-1.33,3.08-2.93,5.56-4.63-.31.31-3.89,4.08.01,6.99.93.68,1.95.75,3.07.4h0Z"/>
  <path class="st0" d="M288.77,386.92c-1.14-1.33-3.08-2.93-5.56-4.63h-.01c-7.95-5.44-21.51-11.81-32.49-12.68-1.9-.15-4.35-.37-7.21-.65h0c-18.69-1.81-55.02-6.02-74.7-9.35-22.69-3.85-67.11-14.61-83.46-19.81-16.35-5.19-40.38-19.8-40.38-30.18,0-.65,0-1.25.06-1.84l.06-.53c.63-5.47,3.91-8.54,14.93-10.92,7.59,5.48,36.22,19.42,85.91,30.8,52.88,12.1,80.95,13.46,104.22,20.95,8.64,2.79,14.93,6.56,19.89,11.06,8.39,7.59,12.97,17.28,18.77,27.79h-.02Z"/>
  <path class="st0" d="M532.6,309.62c0,10.38-24.03,24.99-40.38,30.18-16.35,5.2-60.77,15.97-83.46,19.81-19.68,3.33-55.98,7.53-74.69,9.35-2.87.28-5.32.5-7.24.65-10.98.87-24.55,7.24-32.49,12.66h-.01c-2.48,1.71-4.42,3.32-5.56,4.64,5.81-10.53,10.39-20.21,18.78-27.79.01-.01.03-.04.06-.06,4.94-4.48,11.22-8.23,19.81-11,23.26-7.49,51.33-8.85,104.22-20.95,49.68-11.38,78.31-25.31,85.9-30.8,11.03,2.39,14.3,5.45,14.93,10.92l.06.53c.04.59.06,1.19.06,1.84v.02Z"/>
  <path class="st0" d="M334.08,368.96c-6.32,1.31-14.58,5.17-22.08,9.79-5.81,3.57-10.75,9.73-14.58,10.92-1.12.35-2.14.28-3.07-.4-3.91-2.9-.32-6.68-.01-6.99h.01c7.95-5.44,21.51-11.81,32.49-12.68,1.92-.15,4.36-.37,7.24-.65h0Z"/>
  <path class="st4" d="M306.47,998.15c-.28,0-.5-.22-.5-.5v-4c0-.27.22-.5.5-.5s.5.23.5.5v4c0,.28-.23.5-.5.5ZM306.47,990.65c-.28,0-.5-.22-.5-.5v-4c0-.28.22-.5.5-.5s.5.22.5.5v4c0,.28-.23.5-.5.5ZM306.47,983.15c-.28,0-.5-.22-.5-.5v-4c0-.28.22-.5.5-.5s.5.22.5.5v4c0,.28-.23.5-.5.5ZM306.47,975.65c-.28,0-.5-.22-.5-.5v-4c0-.27.22-.5.5-.5s.5.23.5.5v4c0,.28-.23.5-.5.5ZM306.47,968.15c-.28,0-.5-.22-.5-.5v-4c0-.28.22-.5.5-.5s.5.22.5.5v4c0,.28-.23.5-.5.5ZM306.47,960.65c-.28,0-.5-.22-.5-.5v-4c0-.28.22-.5.5-.5s.5.22.5.5v4c0,.28-.23.5-.5.5ZM306.47,953.15c-.28,0-.5-.22-.5-.5v-4c0-.27.22-.5.5-.5s.5.23.5.5v4c0,.28-.23.5-.5.5ZM306.47,945.65c-.28,0-.5-.22-.5-.5v-4c0-.28.22-.5.5-.5s.5.22.5.5v4c0,.28-.23.5-.5.5ZM306.47,938.15c-.28,0-.5-.22-.5-.5v-4c0-.28.22-.5.5-.5s.5.22.5.5v4c0,.28-.23.5-.5.5ZM306.47,930.65c-.28,0-.5-.22-.5-.5v-4c0-.28.22-.5.5-.5s.5.22.5.5v4c0,.28-.23.5-.5.5ZM306.47,923.15c-.28,0-.5-.22-.5-.5v-4c0-.28.22-.5.5-.5s.5.22.5.5v4c0,.28-.23.5-.5.5ZM306.47,915.65c-.28,0-.5-.22-.5-.5v-4c0-.28.22-.5.5-.5s.5.22.5.5v4c0,.28-.23.5-.5.5ZM306.47,908.15c-.28,0-.5-.22-.5-.5v-4c0-.28.22-.5.5-.5s.5.22.5.5v4c0,.28-.23.5-.5.5ZM306.47,900.65c-.28,0-.5-.22-.5-.5v-4c0-.28.22-.5.5-.5s.5.22.5.5v4c0,.28-.23.5-.5.5ZM306.47,893.15c-.28,0-.5-.22-.5-.5v-4c0-.28.22-.5.5-.5s.5.22.5.5v4c0,.28-.23.5-.5.5ZM306.47,885.65c-.28,0-.5-.22-.5-.5v-4c0-.28.22-.5.5-.5s.5.22.5.5v4c0,.28-.23.5-.5.5ZM306.47,878.15c-.28,0-.5-.22-.5-.5v-4c0-.28.22-.5.5-.5s.5.22.5.5v4c0,.28-.23.5-.5.5ZM306.47,870.65c-.28,0-.5-.22-.5-.5v-4c0-.28.22-.5.5-.5s.5.22.5.5v4c0,.28-.23.5-.5.5ZM306.47,863.15c-.28,0-.5-.22-.5-.5v-4c0-.28.22-.5.5-.5s.5.22.5.5v4c0,.28-.23.5-.5.5ZM306.47,855.65c-.28,0-.5-.22-.5-.5v-4c0-.28.22-.5.5-.5s.5.22.5.5v4c0,.28-.23.5-.5.5ZM306.47,848.15c-.28,0-.5-.22-.5-.5v-4c0-.28.22-.5.5-.5s.5.22.5.5v4c0,.28-.23.5-.5.5ZM306.47,840.65c-.28,0-.5-.22-.5-.5v-4c0-.28.22-.5.5-.5s.5.22.5.5v4c0,.28-.23.5-.5.5ZM306.47,833.15c-.28,0-.5-.22-.5-.5v-4c0-.28.22-.5.5-.5s.5.22.5.5v4c0,.28-.23.5-.5.5ZM306.47,825.65c-.28,0-.5-.22-.5-.5v-4c0-.27.22-.5.5-.5s.5.23.5.5v4c0,.28-.23.5-.5.5ZM306.47,818.15c-.28,0-.5-.22-.5-.5v-4c0-.28.22-.5.5-.5s.5.22.5.5v4c0,.28-.23.5-.5.5ZM306.47,810.65c-.28,0-.5-.22-.5-.5v-4c0-.28.22-.5.5-.5s.5.22.5.5v4c0,.28-.23.5-.5.5ZM306.47,803.15c-.28,0-.5-.22-.5-.5v-4c0-.27.22-.5.5-.5s.5.23.5.5v4c0,.28-.23.5-.5.5ZM306.47,795.65c-.28,0-.5-.22-.5-.5v-4c0-.28.22-.5.5-.5s.5.22.5.5v4c0,.28-.23.5-.5.5ZM306.47,788.15c-.28,0-.5-.22-.5-.5v-4c0-.27.22-.5.5-.5s.5.23.5.5v4c0,.28-.23.5-.5.5ZM306.47,780.65c-.28,0-.5-.22-.5-.5v-4c0-.27.22-.5.5-.5s.5.23.5.5v4c0,.28-.23.5-.5.5ZM306.47,773.15c-.28,0-.5-.22-.5-.5v-4c0-.28.22-.5.5-.5s.5.22.5.5v4c0,.28-.23.5-.5.5ZM306.47,765.65c-.28,0-.5-.22-.5-.5v-4c0-.27.22-.5.5-.5s.5.23.5.5v4c0,.28-.23.5-.5.5ZM306.47,758.15c-.28,0-.5-.23-.5-.5v-4c0-.27.22-.5.5-.5s.5.23.5.5v4c0,.27-.23.5-.5.5ZM306.47,750.65c-.28,0-.5-.22-.5-.5v-4c0-.28.22-.5.5-.5s.5.22.5.5v4c0,.28-.23.5-.5.5ZM306.47,743.15c-.28,0-.5-.22-.5-.5v-4c0-.28.22-.5.5-.5s.5.22.5.5v4c0,.28-.23.5-.5.5ZM306.47,735.65c-.28,0-.5-.23-.5-.5v-4c0-.27.22-.5.5-.5s.5.23.5.5v4c0,.27-.23.5-.5.5ZM306.47,728.15c-.28,0-.5-.22-.5-.5v-4c0-.28.22-.5.5-.5s.5.22.5.5v4c0,.28-.23.5-.5.5ZM306.47,720.65c-.28,0-.5-.22-.5-.5v-4c0-.28.22-.5.5-.5s.5.22.5.5v4c0,.28-.23.5-.5.5ZM306.47,713.15c-.28,0-.5-.22-.5-.5v-4c0-.27.22-.5.5-.5s.5.23.5.5v4c0,.28-.23.5-.5.5ZM306.47,705.65c-.28,0-.5-.22-.5-.5v-4c0-.28.22-.5.5-.5s.5.22.5.5v4c0,.28-.23.5-.5.5ZM306.47,698.15c-.28,0-.5-.22-.5-.5v-4c0-.28.22-.5.5-.5s.5.22.5.5v4c0,.28-.23.5-.5.5ZM306.47,690.65c-.28,0-.5-.22-.5-.5v-4c0-.27.22-.5.5-.5s.5.23.5.5v4c0,.28-.23.5-.5.5ZM306.47,683.15c-.28,0-.5-.22-.5-.5v-4c0-.28.22-.5.5-.5s.5.22.5.5v4c0,.28-.23.5-.5.5ZM306.47,675.65c-.28,0-.5-.22-.5-.5v-4c0-.28.22-.5.5-.5s.5.22.5.5v4c0,.28-.23.5-.5.5ZM306.47,668.15c-.28,0-.5-.22-.5-.5v-4c0-.27.22-.5.5-.5s.5.23.5.5v4c0,.28-.23.5-.5.5ZM306.47,660.65c-.28,0-.5-.22-.5-.5v-4c0-.28.22-.5.5-.5s.5.22.5.5v4c0,.28-.23.5-.5.5ZM306.47,653.15c-.28,0-.5-.22-.5-.5v-4c0-.28.22-.5.5-.5s.5.22.5.5v4c0,.28-.23.5-.5.5ZM306.47,645.65c-.28,0-.5-.22-.5-.5v-4c0-.28.22-.5.5-.5s.5.22.5.5v4c0,.28-.23.5-.5.5ZM306.47,638.15c-.28,0-.5-.22-.5-.5v-4c0-.28.22-.5.5-.5s.5.22.5.5v4c0,.28-.23.5-.5.5ZM306.47,630.65c-.28,0-.5-.22-.5-.5v-4c0-.28.22-.5.5-.5s.5.22.5.5v4c0,.28-.23.5-.5.5ZM306.47,623.15c-.28,0-.5-.22-.5-.5v-4c0-.28.22-.5.5-.5s.5.22.5.5v4c0,.28-.23.5-.5.5ZM306.47,615.65c-.28,0-.5-.22-.5-.5v-4c0-.28.22-.5.5-.5s.5.22.5.5v4c0,.28-.23.5-.5.5ZM306.47,608.15c-.28,0-.5-.22-.5-.5v-4c0-.28.22-.5.5-.5s.5.22.5.5v4c0,.28-.23.5-.5.5ZM306.47,600.65c-.28,0-.5-.22-.5-.5v-4c0-.28.22-.5.5-.5s.5.22.5.5v4c0,.28-.23.5-.5.5ZM306.47,593.15c-.28,0-.5-.22-.5-.5v-4c0-.28.22-.5.5-.5s.5.22.5.5v4c0,.28-.23.5-.5.5ZM306.47,585.65c-.28,0-.5-.22-.5-.5v-4c0-.28.22-.5.5-.5s.5.22.5.5v4c0,.28-.23.5-.5.5ZM306.47,578.15c-.28,0-.5-.22-.5-.5v-4c0-.28.22-.5.5-.5s.5.22.5.5v4c0,.28-.23.5-.5.5ZM306.47,570.65c-.28,0-.5-.22-.5-.5v-4c0-.28.22-.5.5-.5s.5.22.5.5v4c0,.28-.23.5-.5.5ZM306.47,563.15c-.28,0-.5-.22-.5-.5v-4c0-.28.22-.5.5-.5s.5.22.5.5v4c0,.28-.23.5-.5.5ZM306.47,555.65c-.28,0-.5-.22-.5-.5v-4c0-.28.22-.5.5-.5s.5.22.5.5v4c0,.28-.23.5-.5.5ZM306.47,548.15c-.28,0-.5-.22-.5-.5v-4c0-.28.22-.5.5-.5s.5.22.5.5v4c0,.28-.23.5-.5.5ZM306.47,540.65c-.28,0-.5-.22-.5-.5v-4c0-.27.22-.5.5-.5s.5.23.5.5v4c0,.28-.23.5-.5.5ZM306.47,533.15c-.28,0-.5-.22-.5-.5v-4c0-.28.22-.5.5-.5s.5.22.5.5v4c0,.28-.23.5-.5.5ZM306.47,525.65c-.28,0-.5-.22-.5-.5v-4c0-.28.22-.5.5-.5s.5.22.5.5v4c0,.28-.23.5-.5.5ZM306.47,518.15c-.28,0-.5-.22-.5-.5v-4c0-.27.22-.5.5-.5s.5.23.5.5v4c0,.28-.23.5-.5.5ZM306.47,510.65c-.28,0-.5-.22-.5-.5v-4c0-.27.22-.5.5-.5s.5.23.5.5v4c0,.28-.23.5-.5.5ZM306.47,503.15c-.28,0-.5-.22-.5-.5v-4c0-.27.22-.5.5-.5s.5.23.5.5v4c0,.28-.23.5-.5.5ZM306.47,495.65c-.28,0-.5-.22-.5-.5v-4c0-.27.22-.5.5-.5s.5.23.5.5v4c0,.28-.23.5-.5.5ZM306.47,488.15c-.28,0-.5-.22-.5-.5v-4c0-.27.22-.5.5-.5s.5.23.5.5v4c0,.28-.23.5-.5.5ZM306.47,480.65c-.28,0-.5-.22-.5-.5v-4c0-.27.22-.5.5-.5s.5.23.5.5v4c0,.28-.23.5-.5.5ZM306.47,473.15c-.28,0-.5-.22-.5-.5v-4c0-.27.22-.5.5-.5s.5.23.5.5v4c0,.28-.23.5-.5.5ZM306.47,465.65c-.28,0-.5-.22-.5-.5v-4c0-.27.22-.5.5-.5s.5.23.5.5v4c0,.28-.23.5-.5.5ZM306.47,458.15c-.28,0-.5-.22-.5-.5v-4c0-.27.22-.5.5-.5s.5.23.5.5v4c0,.28-.23.5-.5.5ZM306.47,450.65c-.28,0-.5-.22-.5-.5v-4c0-.27.22-.5.5-.5s.5.23.5.5v4c0,.28-.23.5-.5.5ZM306.47,443.15c-.28,0-.5-.22-.5-.5v-4c0-.28.22-.5.5-.5s.5.22.5.5v4c0,.28-.23.5-.5.5ZM306.47,435.65c-.28,0-.5-.22-.5-.5v-4c0-.27.22-.5.5-.5s.5.23.5.5v4c0,.28-.23.5-.5.5ZM306.47,428.15c-.28,0-.5-.22-.5-.5v-4c0-.27.22-.5.5-.5s.5.23.5.5v4c0,.28-.23.5-.5.5ZM306.47,420.65c-.28,0-.5-.22-.5-.5v-4c0-.28.22-.5.5-.5s.5.22.5.5v4c0,.28-.23.5-.5.5ZM306.47,413.15c-.28,0-.5-.22-.5-.5v-4c0-.27.22-.5.5-.5s.5.23.5.5v4c0,.28-.23.5-.5.5ZM306.47,405.65c-.28,0-.5-.22-.5-.5v-4c0-.27.22-.5.5-.5s.5.23.5.5v4c0,.28-.23.5-.5.5ZM306.47,398.15c-.28,0-.5-.22-.5-.5v-4c0-.28.22-.5.5-.5s.5.22.5.5v4c0,.28-.23.5-.5.5ZM306.47,390.65c-.28,0-.5-.22-.5-.5v-4c0-.27.22-.5.5-.5s.5.23.5.5v4c0,.28-.23.5-.5.5Z"/>
  <path class="st2" d="M517.55,296.33c-7.59,5.48-36.22,19.42-85.9,30.8-52.88,12.1-80.95,13.46-104.22,20.95-8.59,2.77-14.88,6.52-19.81,11,15.83-17.32,47.49-53.84,52.98-75.19,25.4,1.83,103.07,5.87,134.32,9.2,9.85,1.06,17.19,2.06,22.63,3.24Z"/>
  <g>
    <path class="st1" d="M191.5,200.69c0,18.1-.4,42.74-.69,58.34-34.06,2.06-84.46,5.01-108.17,7.53-12.35,1.31-20.77,2.57-26.43,4.17.43-1.19.84-2.39,1.24-3.61,5.76-17.31,21.35-69.23,28.84-87.69,7.5-18.46,27.41-57.11,44.14-73.55s40.95-38.66,57.39-52.78c1.12-.97,2.33-1.93,3.64-2.86-.34,12.25-3.49,25.4-4.98,44.88-2.3,30.3,5.03,77.02,5.03,105.57h0Z"/>
    <path class="st1" d="M283.2,389.28c-.93.68-1.95.75-3.07.4-3.83-1.19-8.77-7.36-14.58-10.92-7.49-4.61-15.73-8.48-22.05-9.79,2.86.28,5.31.5,7.21.65,10.98.87,24.55,7.24,32.49,12.66h.01c.31.32,3.89,4.1-.01,7h0Z"/>
    <path class="st1" d="M386.06,200.69c0,18.1.4,42.74.69,58.34-12.63-.77-23.03-1.43-28.95-1.89-21.91-1.74-47.29-4.42-69.02-4.42s-47.12,2.68-69.02,4.42c-5.93.46-16.31,1.12-28.94,1.89.29-15.6.69-40.23.69-58.34,0-28.56-7.33-75.28-5.03-105.57,1.49-19.47,4.64-32.63,4.98-44.88h0c17.72-12.91,51.63-23.68,97.32-23.68s79.61,10.76,97.33,23.68c.34,12.25,3.49,25.4,4.98,44.88,2.3,30.3-5.03,77.02-5.03,105.57Z"/>
    <path class="st1" d="M521.34,270.73c-5.66-1.61-14.08-2.86-26.43-4.17-23.69-2.52-74.1-5.45-108.15-7.53-.29-15.6-.69-40.23-.69-58.34,0-28.56,7.33-75.28,5.03-105.57-1.49-19.47-4.64-32.63-4.98-44.88,1.3.94,2.51,1.9,3.63,2.86,16.44,14.12,40.66,36.34,57.39,52.78,16.73,16.44,36.64,55.09,44.14,73.55,7.49,18.46,23.07,70.38,28.84,87.69.4,1.22.81,2.42,1.24,3.61h-.02Z"/>
    <path class="st1" d="M532.48,307.25c-.63-5.47-3.91-8.54-14.93-10.92-5.44-1.18-12.78-2.18-22.63-3.24-31.25-3.33-108.92-7.37-134.32-9.2-1.02-.09-1.95-.15-2.79-.22-21.92-1.74-47.31-4.42-69.04-4.42-10.87,0-22.64.66-34.44,1.56-11.81.88-23.63,1.99-34.59,2.86-.84.07-1.77.13-2.79.22-25.4,1.83-103.07,5.87-134.32,9.2-9.85,1.06-17.2,2.06-22.64,3.24-11.03,2.39-14.3,5.45-14.93,10.92.81-9.45,6.13-22.01,11.15-36.52,5.66-1.61,14.08-2.86,26.43-4.17,23.71-2.52,74.11-5.47,108.17-7.53,12.63-.77,23.01-1.43,28.94-1.89,21.91-1.74,47.29-4.42,69.02-4.42s47.12,2.68,69.02,4.42c5.93.46,16.32,1.12,28.95,1.89,34.06,2.08,84.46,5.01,108.15,7.53,12.35,1.31,20.77,2.57,26.43,4.17,5.01,14.51,10.33,27.07,11.15,36.52h.01Z"/>
    <path class="st1" d="M288.77,386.92c-1.14-1.33-3.08-2.93-5.56-4.63h-.01c-7.95-5.44-21.51-11.81-32.49-12.68-1.9-.15-4.35-.37-7.21-.65h0c-18.69-1.81-55.02-6.02-74.7-9.35-22.69-3.85-67.11-14.61-83.46-19.81-16.35-5.19-40.38-19.8-40.38-30.18,0-.65,0-1.25.06-1.84l.06-.53c.63-5.47,3.91-8.54,14.93-10.92,7.59,5.48,36.22,19.42,85.91,30.8,52.88,12.1,80.95,13.46,104.22,20.95,8.64,2.79,14.93,6.56,19.89,11.06,8.39,7.59,12.97,17.28,18.77,27.79h-.02Z"/>
    <path class="st1" d="M532.6,309.62c0,10.38-24.03,24.99-40.38,30.18-16.35,5.2-60.77,15.97-83.46,19.81-19.68,3.33-55.98,7.53-74.69,9.35-2.87.28-5.32.5-7.24.65-10.98.87-24.55,7.24-32.49,12.66h-.01c-2.48,1.71-4.42,3.32-5.56,4.64,5.81-10.53,10.39-20.21,18.78-27.79.01-.01.03-.04.06-.06,4.94-4.48,11.22-8.23,19.81-11,23.26-7.49,51.33-8.85,104.22-20.95,49.68-11.38,78.31-25.31,85.9-30.8,11.03,2.39,14.3,5.45,14.93,10.92l.06.53c.04.59.06,1.19.06,1.84v.02Z"/>
    <path class="st1" d="M334.08,368.96c-6.32,1.31-14.58,5.17-22.08,9.79-5.81,3.57-10.75,9.73-14.58,10.92-1.12.35-2.14.28-3.07-.4-3.91-2.9-.32-6.68-.01-6.99h.01c7.95-5.44,21.51-11.81,32.49-12.68,1.92-.15,4.36-.37,7.24-.65h0Z"/>
    <path class="st1" d="M297.41,389.68v607.97h-17.28V389.68c1.12.35,2.14.28,3.07-.4,3.91-2.9.32-6.68.01-6.99,2.48,1.7,4.42,3.3,5.56,4.63,1.14-1.33,3.08-2.93,5.56-4.63-.31.31-3.89,4.08.01,6.99.93.68,1.95.75,3.07.4h0Z"/>
  </g>
</svg>