<?xml version="1.0" encoding="UTF-8"?>
<svg id="Livello_1" xmlns="http://www.w3.org/2000/svg" version="1.1" viewBox="0 0 284.55 279.39">
  <!-- Generator: Adobe Illustrator 29.8.1, SVG Export Plug-In . SVG Version: 2.1.1 Build 2)  -->
  <defs>
    <style>
      .st0 {
        fill: none;
        stroke: #131211;
        stroke-linecap: round;
        stroke-linejoin: round;
        stroke-width: 1.2px;
      }
    </style>
  </defs>
  <path class="st0" d="M275.16,150.04c-6-12.72-4.89-23.19-21.09-62.04-12.02-31.3-31.03-43.32-55.89-60.65-24.88-17.33-43.88-24.04-55.9-24.04s-31.03,6.71-55.89,24.04c-24.88,17.32-43.88,29.34-55.9,60.65-16.21,38.85-15.08,49.32-21.09,62.04-6,12.69-6.01,17.16-6.01,21.77v.03c0,3.89.9,10.29,22.28,26.83-4.25,4.61-6.63,7.82-6.63,7.82,0,0,36.19,65.15,121.02,66.28l.04.03v-.03c.73,0,1.45.03,2.18.03,86.43,0,123.25-66.31,123.25-66.31,0,0-2.38-3.21-6.63-7.82,21.38-16.54,22.27-22.94,22.27-26.83v-.15c0-4.56-.07-9.07-6.01-21.65Z"/>
</svg>