<?xml version="1.0" encoding="UTF-8"?>
<svg id="Livello_2" xmlns="http://www.w3.org/2000/svg" version="1.1" viewBox="0 0 350 350">
  <!-- Generator: Adobe Illustrator 29.8.1, SVG Export Plug-In . SVG Version: 2.1.1 Build 2)  -->
  <defs>
    <style>
      .st0 {
        fill: none;
        stroke: #131211;
        stroke-linecap: round;
        stroke-linejoin: round;
        stroke-width: 1.2px;
      }
    </style>
  </defs>
  <path class="st0" d="M192.65,63.74c-7.63-1.96-6.55-7.83-22.2-7.83-23.68,0-24.85,12.53-38.74,19.96-13.89,7.43-26.22,19.96-43.05,30.91-16.8,10.95-23.07,29.7-37.01,44.28l-.05.05c-10.22,9.74-19.93,23.5-25.94,33.93-7.43,12.92-10.76,56.06-10.69,70.57,0,6.78,10.82,11.87,37.82,14.74s39.92,2.09,73.7,6.39c25.21,3.21,40.97,8.17,47.35,12.8h.01c2.17,1.59,3.25,3.13,3.25,4.55,0-2.16,1.39-3.93,3.9-5.42.17-.1.34-.2.52-.3,12.3-6.69,48.21-7.26,81.27-9.8,40.7-3.13,70.24-6.27,72-23.29s-7.04-34.24-12.26-64.5c-5.21-30.26-24-41.48-46.43-67.95-22.44-26.48-37.18-34.54-54.78-47.94-17.61-13.4-21.04-9.19-28.67-11.15Z"/>
</svg>