<?xml version="1.0" encoding="UTF-8"?>
<svg id="Livello_1" xmlns="http://www.w3.org/2000/svg" version="1.1" viewBox="0 0 335.74 268.93">
  <!-- Generator: Adobe Illustrator 29.8.1, SVG Export Plug-In . SVG Version: 2.1.1 Build 2)  -->
  <defs>
    <style>
      .st0 {
        fill: none;
        stroke: #131211;
        stroke-linecap: round;
        stroke-linejoin: round;
        stroke-width: 1.2px;
      }
    </style>
  </defs>
  <path class="st0" d="M330.26,180.59c-3.25,5.41-4.08,6.79-45.66,22.34-3.52,1.32-7.34,2.74-11.47,4.27-24.76,9.17-50.49,18.72-69.63,26.86-16.26,6.9-27.76,12.8-29.87,16.57.41-1.27.88-2.51,1.41-3.73.14-.33.29-.66.45-.98.72-1.55,1.54-3.08,2.46-4.65-5.08-.25-6.81-.15-10.08-.15-1.45,0-2.6-.02-3.88-.02-1.59,0-3.38.03-6.2.17.92,1.57,1.74,3.1,2.46,4.65.16.32.31.65.45.98.53,1.22,1,2.46,1.41,3.73-4.6-8.22-53.72-26.48-99.5-43.43-4.13-1.53-7.95-2.95-11.47-4.27-41.58-15.55-42.41-16.93-45.66-22.34,56.74,0,87.65,3.91,162.39,3.91,17.74,0,33-.22,46.73-.55,15.2-.38,28.52-.9,41.22-1.41,24.16-.97,46.07-1.95,74.44-1.95Z"/>
  <path class="st0" d="M177.95,241.27c-.92,1.57-1.74,3.1-2.46,4.65-.16.32-.31.65-.45.98-.53,1.22-1,2.46-1.41,3.73v2.45s-.55.71-1.57,1.4c-.14.1-.28.19-.44.28-.16.1-.33.19-.51.28-.35.17-.73.33-1.15.46-.11.03-.24.07-.36.1-.29.08-.61.14-.94.17-.07.01-.15.02-.23.02-.18.01-.37.02-.56.02-.34,0-.67-.03-.98-.07-.16-.02-.31-.05-.47-.08-.35-.06-.68-.16-.99-.28-.14-.04-.27-.09-.39-.15-.13-.05-.25-.11-.37-.17-.12-.05-.23-.11-.34-.18-.35-.2-.67-.41-.95-.62-.83-.61-1.27-1.18-1.27-1.18v-2.45c-.41-1.27-.88-2.51-1.41-3.73-.14-.33-.29-.66-.45-.98-.72-1.55-1.54-3.08-2.46-4.65,2.82-.14,4.61-.17,6.2-.17,1.28,0,2.43.02,3.88.02,3.27,0,5-.1,10.08.15Z"/>
  <path class="st0" d="M162.11,250.63v2.45c-23.78,0-75.89-7.8-114.76-41.71,2.17-2.39,3.43-3.15,3.79-8.44,3.52,1.32,7.34,2.74,11.47,4.27,45.78,16.95,94.9,35.21,99.5,43.43Z"/>
  <path class="st0" d="M330.26,180.59c-28.37,0-50.28.98-74.44,1.95-12.7.51-26.02,1.03-41.22,1.41-13.73.33-28.99.55-46.73.55-74.74,0-105.65-3.91-162.39-3.91C12.91,96.85,45.39,60.46,68.87,41.67c23.48-18.78,49.31-28.56,99-28.56s75.52,9.78,99,28.56c23.48,18.79,55.96,55.18,63.39,138.92Z"/>
  <path class="st0" d="M288.39,211.37c-38.87,33.91-90.98,41.71-114.76,41.71v-2.45c2.11-3.77,13.61-9.67,29.87-16.57,19.14-8.14,44.87-17.69,69.63-26.86,4.13-1.53,7.95-2.95,11.47-4.27.36,5.29,1.62,6.05,3.79,8.44Z"/>
</svg>