<?xml version="1.0" encoding="UTF-8"?>
<svg id="Livello_1" xmlns="http://www.w3.org/2000/svg" version="1.1" viewBox="0 0 284.55 279.39">
  <!-- Generator: Adobe Illustrator 29.8.1, SVG Export Plug-In . SVG Version: 2.1.1 Build 2)  -->
  <defs>
    <style>
      .st0 {
        fill: #ff6700;
      }

      .st1, .st2 {
        fill: none;
      }

      .st3 {
        fill: #131211;
        opacity: .14;
      }

      .st2 {
        stroke: #131211;
        stroke-linecap: round;
        stroke-linejoin: round;
        stroke-width: 1.2px;
      }
    </style>
  </defs>
  <line class="st1" x1="140.09" y1="272.8" x2="140.09" y2="272.79"/>
  <path class="st2" d="M124.18,271.81c2.19-3.52,5.77-5.87,9.5-7.99,2.99-1.7,6.06-3.25,8.59-5.13,0,0-11.36-7.57-17.19-13.07"/>
  <line class="st2" x1="142.28" y1="230.25" x2="116.06" y2="230.25"/>
  <path class="st2" d="M281.18,171.84c0-13.14-11.53-16.63-43.04-15.09-27.36,1.33-70.71,9.5-95.86,9.5"/>
  <path class="st2" d="M159.47,245.62c-5.84,5.49-17.2,13.07-17.2,13.07"/>
  <path class="st2" d="M258.9,198.67c4.25,4.61,6.63,7.82,6.63,7.82,0,0-36.82,66.31-123.25,66.31h0c-86.43,0-123.25-66.31-123.25-66.31,0,0,2.38-3.21,6.63-7.82"/>
  <line class="st2" x1="172.55" y1="222.58" x2="142.28" y2="222.58"/>
  <line class="st2" x1="168.49" y1="230.25" x2="142.28" y2="230.25"/>
  <path class="st3" d="M22.89,201.76c25.81,20.52,49.42,34.22,67.17,44.98,17.75,10.76,39.64,19.55,39.64,19.55l4.31-2.48-28.48-14.76s-45.41-26.32-54.04-32.14-26.39-18.68-26.39-18.68c0,0,.07.94-.66,1.78s-1.54,1.75-1.54,1.75Z"/>
  <path class="st3" d="M261.66,201.76c-25.81,20.52-49.42,34.22-67.17,44.98s-47.21,19.35-47.21,19.35l9.36-7.2,17.38-10.38c1.57-1.02,3.18-1.95,4.85-2.8,9.95-5.04,46.74-23.77,54.19-28.8,8.63-5.83,26.39-18.68,26.39-18.68,0,0-.07.94.66,1.78s1.54,1.75,1.54,1.75Z"/>
  <path class="st3" d="M96.71,165.81c-1.23-.17-2.47-.34-3.74-.54,1.61.19,3.71.41,3.71.41.01.04.02.09.03.13Z"/>
  <path class="st3" d="M191.59,165.28c-1.26.18-2.51.36-3.74.54l.03-.13s2.1-.21,3.71-.41Z"/>
  <path class="st3" d="M264.54,160.79c-10.84-2.39-43.5.14-71.14,4.23-.06,0-.12.01-.18.02-.04.01-.08.01-.12.02-.23.03-.45.06-.67.1-.27.03-.52.08-.79.11-.02.01-.03.01-.04.01-1.26.18-2.51.36-3.74.54-25.26,3.49-45.57,4.6-45.57,4.6,0,0-20.31-1.1-45.56-4.6-1.23-.17-2.47-.34-3.74-.54-.14-.01-.28-.03-.42-.05-.55-.07-1-.14-1.22-.18-.05-.01-.12-.02-.17-.02-27.65-4.09-60.31-6.62-71.15-4.23-10.86,2.39-12.91,5.47-12.87,11.06s11.88,16.16,11.88,16.16c-1.07-12.25,59.58-10.57,78.01-1.35.14,0,.28.01.42.01,1.7,5.25,3.61,10.93,5.51,16.27,5.98,16.81,16.06,32.62,18.78,37.27,2.72,4.65,5.67,8.28,12.52,12.83,1.66,1.1,3.4,2.27,5.11,3.42-7.44,4.39-15.52,9.32-17.16,15.11,1.96.25,1.54.79,2.83-1,1.29-1.8,3.82-3.82,7.12-5.7,2.04-1.16,5.86-3.65,10.1-6.47.94-.64,1.92-1.29,2.89-1.94,1.71-1.15,3.45-2.31,5.11-3.42,6.86-4.55,9.8-8.19,12.52-12.83,2.72-4.65,12.8-20.46,18.78-37.27,1.9-5.35,3.8-11.02,5.51-16.27.14,0,.28-.01.42-.01,18.44-9.22,79.09-10.9,78.01,1.35,0,0,11.84-10.57,11.88-16.16.04-5.58-2-8.67-12.87-11.06ZM169.43,220.81c-5.66,11.53-12.38,21.6-18.56,27.89-1.9,1.92-5.05,3.92-8.6,6.04-3.56-2.12-6.71-4.12-8.59-6.04-6.18-6.29-12.9-16.36-18.57-27.89-3.5-7.15-8.46-21.05-12.51-34.04,15.46.39,39.67,1.22,39.67,1.22,0,0,24.22-.84,39.68-1.22-4.06,12.98-9.02,26.89-12.52,34.04Z"/>
  <g>
    <path class="st0" d="M42.37,184.78c-.47-.37-.93-.73-1.38-1.09l-.19-.14c-.1-.09-.27-.07-.35.04-.04.04-.05.1-.05.16,0,.07.03.14.09.19.52.4,1.04.81,1.58,1.23.04.03.1.05.15.05.08,0,.15-.03.2-.1.08-.1.06-.26-.05-.34Z"/>
    <path class="st0" d="M44.75,186.61c-.55-.42-1.09-.84-1.58-1.22-.11-.08-.27-.06-.35.04-.04.04-.06.1-.06.15,0,.08.04.16.1.2t.01,0c.36.28.74.57,1.11.86l.46.36s.1.05.15.05c.08,0,.16-.04.2-.1.09-.11.07-.27-.04-.35Z"/>
    <path class="st0" d="M36.13,179.83s0,0-.02-.02h0c-.1-.08-.26-.06-.34.04-.04.04-.06.1-.06.16,0,.07.04.14.1.19.5.41,1.02.83,1.55,1.26.05.03.1.05.16.05.08,0,.15-.03.19-.09.05-.06.07-.12.06-.19,0-.06-.04-.12-.09-.17-.53-.42-1.05-.84-1.54-1.23Z"/>
    <path class="st0" d="M40.11,183.09c0-.06-.04-.12-.09-.16l-.04-.03c-.52-.41-1.03-.82-1.53-1.21-.1-.09-.27-.07-.35.04-.04.04-.06.1-.06.16,0,.07.04.14.1.19l.26.21c.43.34.86.68,1.3,1.03.05.03.1.05.16.05.08,0,.15-.03.2-.09.04-.05.06-.12.05-.19Z"/>
    <path class="st0" d="M54.4,194.15c.08-.12.05-.27-.06-.35-.51-.37-1.05-.76-1.62-1.18-.1-.07-.27-.05-.34.06-.04.04-.05.09-.05.15,0,.08.04.15.1.2h0c.53.4,1.07.79,1.59,1.16h.02s.09.06.14.06c.09,0,.16-.04.21-.1Z"/>
    <path class="st0" d="M51.97,192.38c.09-.11.06-.27-.05-.35-.47-.35-1.04-.76-1.6-1.19-.11-.08-.27-.05-.35.05-.04.05-.05.1-.05.15,0,.08.03.15.1.2.44.33,1.02.77,1.6,1.2.05.03.1.04.15.04.08,0,.16-.03.2-.1Z"/>
    <path class="st0" d="M47.18,188.78c.08-.11.06-.27-.05-.35l-.49-.37c-.37-.28-.74-.56-1.1-.84-.11-.09-.27-.06-.35.04-.03.05-.05.1-.05.15,0,.08.03.16.1.2l.41.32c.39.3.78.6,1.18.9.04.03.09.05.15.05.08,0,.15-.04.2-.1Z"/>
    <path class="st0" d="M49.57,190.59c.08-.11.06-.27-.05-.35l-.09-.06c-.51-.39-1.01-.77-1.5-1.15-.11-.07-.28-.05-.36.05-.03.05-.05.1-.05.15,0,.08.04.16.1.2l.22.17c.45.34.91.68,1.37,1.03h0s.09.06.15.06c.08,0,.15-.04.2-.1Z"/>
    <path class="st0" d="M20.5,165.88s-.01,0-.02,0t-.01,0c-.09-.09-.25-.09-.34,0-.05.04-.08.1-.08.17s.02.13.07.18c.44.47.91.96,1.4,1.44.04.05.1.07.17.07s.13-.02.18-.07c.1-.1.1-.26,0-.35-.53-.53-.97-.99-1.37-1.42Z"/>
    <path class="st0" d="M22.58,168c-.1-.09-.26-.09-.36,0-.04.05-.07.11-.07.18s.03.13.08.18c.48.47.96.93,1.44,1.39.05.04.11.06.17.06.07,0,.13-.02.18-.07.05-.05.07-.11.07-.18s-.03-.13-.08-.17c-.54-.52-1.01-.97-1.43-1.39Z"/>
    <path class="st0" d="M26.95,172.08c-.09-.09-.26-.08-.35.02-.04.05-.06.11-.06.17,0,.07.03.14.08.19.55.48,1.04.91,1.5,1.32.05.04.11.06.17.06.07,0,.14-.03.18-.08.09-.11.08-.26-.02-.36l-.06-.05c-.5-.44-.97-.86-1.44-1.27Z"/>
    <path class="st0" d="M35.02,179.57s.1.06.15.06c.08,0,.15-.04.2-.1.09-.1.07-.26-.04-.35-.55-.44-1.05-.86-1.54-1.26-.11-.09-.27-.07-.36.03-.03.05-.05.1-.05.16,0,.08.03.15.09.2.45.37.9.73,1.38,1.12l.17.14Z"/>
    <path class="st0" d="M28.85,174.08s-.06.1-.06.16c0,.08.03.15.09.2.47.41.98.85,1.52,1.3.04.04.1.06.16.06.07,0,.14-.03.19-.09.04-.05.06-.12.06-.18-.01-.07-.04-.13-.09-.17-.49-.42-.99-.85-1.52-1.3-.1-.09-.26-.08-.35.02Z"/>
    <path class="st0" d="M104.46,220.65c.1,0,.19-.05.23-.15.06-.12,0-.27-.13-.33l-.48-.2c-.46-.2-.91-.39-1.35-.58-.13-.06-.28,0-.33.13,0,.03-.02.06-.02.09,0,.11.06.2.15.24.59.25,1.21.51,1.83.78.03.02.07.02.1.02Z"/>
    <path class="st0" d="M18.49,163.65c-.09-.1-.26-.12-.35-.03-.06.05-.09.12-.09.19,0,.06.02.12.06.16.38.46.82.95,1.32,1.51.05.05.12.08.19.08.06,0,.12-.03.17-.07.1-.09.11-.25,0-.35-.47-.51-.91-1.01-1.31-1.49Z"/>
    <path class="st0" d="M56.84,195.88c.08-.11.05-.27-.06-.35-.48-.34-1.05-.74-1.63-1.15-.11-.08-.27-.05-.35.06-.03.04-.04.09-.04.15,0,.08.04.15.1.2.56.39,1.11.78,1.64,1.15.04.03.09.05.14.05.08,0,.16-.04.2-.11Z"/>
    <path class="st0" d="M17.47,163.2s.12.09.19.09c.06,0,.11-.02.16-.06.05-.04.08-.1.09-.17,0-.06-.01-.13-.05-.18-.45-.55-.85-1.08-1.2-1.58-.07-.11-.24-.14-.34-.06-.06.04-.1.09-.11.16-.01.06,0,.12.04.18h0c.37.52.78,1.06,1.22,1.62Z"/>
    <path class="st0" d="M66.78,202.13c-.61-.37-1.21-.75-1.67-1.04h0s-.01,0-.01-.02h0c-.12-.07-.27-.03-.34.08-.02.04-.04.08-.04.13,0,.08.04.16.11.21,0,0,0,0,0,0,.66.41,1.2.75,1.7,1.05.04.03.08.04.13.04.09,0,.16-.04.21-.12.07-.12.03-.27-.08-.34Z"/>
    <path class="st0" d="M88.73,214.02c.5.22,1.16.5,1.84.79.03.01.06.02.09.02.1,0,.19-.06.23-.15.03-.06.03-.13,0-.19-.02-.07-.07-.11-.13-.14-.61-.26-1.21-.52-1.82-.79h-.02c-.12-.05-.27.01-.32.13-.02.03-.02.06-.02.1-.01.1.05.19.15.23Z"/>
    <path class="st0" d="M86.18,212.35c-.12-.06-.27,0-.33.13-.01.03-.02.06-.02.09,0,.1.06.2.15.24h0c.62.28,1.24.55,1.82.81.03,0,.06.02.1.02.1,0,.19-.06.23-.15.05-.13-.01-.28-.13-.33-.55-.24-1.13-.5-1.83-.81Z"/>
    <path class="st0" d="M93.32,215.98s.06.01.1.01c.1,0,.19-.06.23-.15.05-.13,0-.27-.14-.32l-1.83-.78c-.13-.06-.28,0-.33.13-.01.03-.02.07-.02.1,0,.1.06.19.15.23.61.26,1.23.52,1.84.78Z"/>
    <path class="st0" d="M83.46,211.1c-.12-.05-.27,0-.33.13-.02.03-.02.07-.02.1,0,.1.05.19.14.23.58.27,1.17.54,1.82.83.03.02.06.03.1.03.1,0,.19-.06.23-.15.06-.13,0-.27-.13-.33-.56-.26-1.15-.53-1.81-.84Z"/>
    <path class="st0" d="M96.18,217.15c.1,0,.19-.06.23-.15.03-.06.03-.13,0-.19-.02-.06-.07-.11-.13-.14-.35-.14-.69-.28-1.03-.43-.27-.11-.54-.22-.81-.34-.13-.05-.28.01-.33.14-.02.03-.02.06-.02.09,0,.1.06.19.15.23,0,0,.01,0,.01,0,.61.25,1.22.51,1.83.76.03.02.07.02.1.02Z"/>
    <path class="st0" d="M101.71,219.47c.1,0,.19-.06.23-.15.02-.06.02-.13,0-.19-.03-.06-.07-.11-.13-.14l-.36-.15c-.5-.21-.99-.42-1.48-.62-.13-.06-.28,0-.33.13-.02.03-.02.06-.02.1,0,.1.06.19.15.23.61.25,1.22.51,1.84.77.03.02.07.02.1.02Z"/>
    <path class="st0" d="M80.76,209.82c-.12-.06-.28-.01-.33.11-.02.04-.03.07-.03.11,0,.1.05.18.14.23.57.28,1.16.56,1.8.86.04.02.08.03.11.03.1,0,.19-.06.23-.15.03-.06.03-.13,0-.19-.03-.06-.07-.11-.13-.14-.53-.25-1.1-.52-1.8-.86Z"/>
    <path class="st0" d="M98.95,218.31c.1,0,.19-.06.23-.16.05-.12-.01-.27-.14-.32-.38-.16-.76-.32-1.14-.48l-.7-.29c-.12-.06-.28.01-.33.13-.01.03-.02.07-.02.1,0,.1.06.19.16.23.61.25,1.22.51,1.84.77.03,0,.06.02.1.02Z"/>
    <path class="st0" d="M61.84,199.06c-.02-.06-.05-.12-.11-.15-.59-.4-1.13-.75-1.64-1.1,0,0,0,0-.02,0-.12-.08-.27-.04-.35.06-.02.05-.04.09-.04.15,0,.08.04.16.11.2h0c.59.41,1.17.79,1.66,1.11.04.03.09.04.13.04.09,0,.17-.04.21-.11.04-.05.05-.12.04-.19Z"/>
    <path class="st0" d="M64.35,200.69c-.01-.06-.05-.12-.11-.15-.53-.34-1.08-.7-1.67-1.09-.11-.07-.28-.04-.35.08-.03.04-.04.09-.04.14,0,.08.04.15.1.2t.01,0c.54.34,1.09.7,1.68,1.08.04.03.09.04.14.04.08,0,.16-.05.21-.12.03-.05.05-.12.03-.19Z"/>
    <path class="st0" d="M69.34,203.67c-.5-.29-1.03-.61-1.68-1-.01,0-.02-.02-.03-.02,0,0,0,0,0,0-.11-.06-.27-.02-.33.09-.03.04-.04.09-.04.13,0,.09.05.17.12.22.52.31,1.07.64,1.72,1.02.04.03.08.04.12.04.09,0,.18-.05.22-.12.03-.06.04-.13.03-.19-.02-.07-.06-.12-.12-.16Z"/>
    <path class="st0" d="M31.48,176c-.1-.09-.26-.07-.35.03-.04.05-.06.1-.06.16,0,.08.03.15.09.2h0c.46.39.96.81,1.53,1.28.04.03.1.05.16.05.07,0,.14-.03.19-.09.04-.05.06-.11.06-.18,0-.07-.04-.13-.09-.17l-.04-.03c-.52-.43-1.01-.84-1.5-1.25Z"/>
    <path class="st0" d="M78.11,208.5s-.02,0-.03-.02h-.01c-.12-.06-.26,0-.33.11,0,.03-.02.07-.02.11,0,.09.05.18.13.23.57.29,1.15.58,1.79.9.04,0,.07.02.11.02.1,0,.19-.05.23-.14.06-.12,0-.27-.12-.33-.65-.32-1.22-.61-1.75-.88Z"/>
    <path class="st0" d="M59.31,197.58s.05-.12.04-.18c-.01-.07-.05-.13-.11-.16-.54-.37-1.09-.75-1.64-1.13-.11-.08-.27-.05-.35.06-.03.04-.04.09-.04.14,0,.08.04.16.11.21.66.46,1.17.81,1.64,1.13.05.03.09.04.14.04.09,0,.16-.04.21-.11Z"/>
    <path class="st0" d="M75.46,207.11s-.02-.01-.03-.01c-.01,0-.01,0-.01,0-.12-.05-.27,0-.33.11-.02.04-.03.08-.03.12,0,.09.05.17.13.22.67.35,1.24.66,1.77.93.04.02.08.03.12.03.09,0,.18-.05.22-.14.03-.06.04-.12.02-.19-.02-.06-.07-.11-.13-.14-.62-.33-1.19-.63-1.73-.92Z"/>
    <path class="st0" d="M70.23,204.2s-.02-.02-.03-.02h0c-.12-.07-.26-.02-.33.09-.02.04-.03.08-.03.13,0,.08.04.16.11.2,0,.01,0,.01,0,.01.62.36,1.18.69,1.73,1,.04.02.09.03.13.03.09,0,.17-.05.22-.12.03-.06.04-.13.02-.2-.02-.06-.06-.11-.12-.15-.54-.3-1.12-.63-1.7-.97Z"/>
    <path class="st0" d="M72.83,205.68s-.02,0-.03-.02h0c-.11-.06-.27-.01-.33.1-.02.04-.03.08-.03.12,0,.09.04.17.12.21t.01,0c.66.37,1.23.68,1.75.96.04.02.08.04.12.04.09,0,.17-.05.22-.13.03-.06.04-.13.02-.2-.02-.06-.06-.11-.12-.14-.66-.36-1.21-.66-1.72-.95Z"/>
    <path class="st0" d="M25.88,171.79s.1.06.16.06c.08,0,.14-.03.19-.08.09-.11.08-.26-.02-.36-.53-.47-1.03-.94-1.47-1.34-.1-.1-.26-.09-.35,0-.05.05-.07.11-.07.18,0,.06.03.13.08.17.53.49,1.01.93,1.48,1.36Z"/>
    <path class="st0" d="M107.87,222.01c0,.1.06.19.15.23h0c.64.29,1.23.56,1.82.83.03,0,.06.02.1.02.1,0,.19-.06.23-.15.06-.12,0-.27-.12-.33-.71-.32-1.29-.58-1.83-.82-.12-.06-.27,0-.33.12-.01.04-.02.07-.02.1Z"/>
    <path class="st0" d="M110.62,223.15s-.02.08-.02.11c0,.1.06.19.15.23.58.27,1.19.55,1.8.84.04.02.07.02.11.02.1,0,.19-.05.23-.14.06-.12,0-.27-.12-.33-.66-.31-1.26-.59-1.82-.85-.12-.05-.27,0-.33.12Z"/>
    <path class="st0" d="M105.28,221.03c.66.29,1.26.55,1.83.81.03,0,.06.02.1.02.1,0,.19-.06.23-.15.02-.06.03-.13,0-.19-.02-.07-.07-.11-.13-.14-.6-.27-1.2-.53-1.81-.8,0,0-.01,0-.02,0h-.01c-.12-.05-.27,0-.32.13,0,.03-.02.07-.02.1,0,.1.06.19.15.23Z"/>
    <path class="st0" d="M207.25,143.24h.02c.49-.05.97-.1,1.46-.16l.53-.06c.13-.01.22-.12.22-.25v-.02c-.02-.14-.14-.24-.28-.22-.63.07-1.3.14-1.98.22-.07,0-.13.04-.17.09-.04.05-.06.12-.06.18.02.13.13.22.26.22Z"/>
    <path class="st0" d="M204.26,143.58h.03l1.99-.23c.13-.01.22-.12.22-.25v-.02c-.02-.14-.15-.24-.28-.22-.64.07-1.29.14-1.99.22-.06,0-.12.04-.16.09-.04.06-.06.12-.06.19.02.13.12.22.25.22Z"/>
    <path class="st0" d="M219.17,142.01h.02c.56-.05,1.11-.1,1.66-.15l.33-.03c.13-.01.23-.12.23-.25v-.02c0-.14-.11-.24-.26-.23h-.01l-.3.03c-.56.05-1.13.1-1.69.15-.07.01-.13.04-.17.09-.05.06-.06.12-.06.18,0,.13.12.23.25.23Z"/>
    <path class="st0" d="M213.2,142.6h.02l.32-.03c.55-.06,1.11-.12,1.67-.17h0c.12-.02.22-.13.22-.25h0v-.03c-.02-.12-.12-.22-.25-.22h-.03l-.38.04c-.53.05-1.07.11-1.61.16-.07,0-.12.04-.17.1-.04.05-.06.11-.05.18,0,.13.12.22.25.22Z"/>
    <path class="st0" d="M210.22,142.92h.03c.27-.03.55-.06.83-.09.38-.04.77-.08,1.15-.13.13,0,.23-.12.23-.24,0-.01,0-.02,0-.03-.01-.14-.14-.23-.27-.22-.66.07-1.32.14-1.98.21-.07,0-.13.04-.17.09-.04.05-.06.12-.06.18.02.13.12.23.25.23Z"/>
    <path class="st0" d="M216.19,142.3h.02c.72-.07,1.37-.14,1.99-.19.13-.02.22-.12.22-.25v-.03c0-.13-.12-.24-.27-.22l-.64.06c-.45.04-.9.09-1.35.13-.07.01-.13.04-.17.09-.04.05-.06.12-.06.19.02.12.13.22.26.22Z"/>
    <path class="st0" d="M177.43,146.83h.03l.7-.09c.43-.05.86-.1,1.29-.15.12-.02.22-.13.22-.26v-.02c-.02-.14-.13-.23-.28-.22l-1.99.24c-.14.02-.23.14-.22.28.02.12.12.22.25.22Z"/>
    <path class="st0" d="M180.41,146.47h.03c.57-.08,1.14-.15,1.71-.22l.28-.03c.12-.02.22-.12.22-.25,0,0,0-.02-.01-.03,0-.13-.14-.23-.27-.22-.36.05-.72.09-1.08.14-.3.03-.61.07-.91.11-.07,0-.13.04-.17.09-.04.05-.06.12-.05.19.02.12.12.22.25.22Z"/>
    <path class="st0" d="M183.39,146.1h.03c.66-.08,1.32-.17,1.99-.25.12,0,.22-.12.21-.25v-.03c-.02-.13-.14-.22-.28-.21l-1.26.15-.72.09c-.07.01-.13.04-.17.09-.04.05-.06.12-.05.19.01.13.12.22.25.22Z"/>
    <path class="st0" d="M192.33,145h.03c.65-.08,1.3-.16,1.95-.24.01,0,.03,0,.04,0,.12-.02.21-.12.21-.25v-.02c-.02-.14-.13-.24-.28-.22-.36.04-.72.09-1.08.13-.3.04-.6.07-.91.11-.13.02-.23.14-.21.28,0,.13.12.22.25.22Z"/>
    <path class="st0" d="M201.28,143.93s.02,0,.03,0c.66-.07,1.32-.15,1.98-.23h0c.13-.01.22-.12.22-.25h0v-.02c-.02-.14-.14-.24-.28-.22-.66.07-1.33.15-1.99.23-.14.01-.24.14-.22.28,0,.12.12.22.25.22Z"/>
    <path class="st0" d="M186.37,145.73h.03c.44-.05.87-.11,1.31-.16l.67-.08c.13-.02.22-.13.22-.26v-.02c0-.13-.12-.22-.24-.22h-.04c-.66.08-1.32.16-1.98.24-.07.01-.13.05-.17.1s-.06.12-.05.18c0,.13.12.22.25.22Z"/>
    <path class="st0" d="M195.31,144.64h.03l.47-.06c.49-.06.99-.12,1.48-.18h0s.02,0,.03,0c.12-.02.21-.12.21-.25v-.02c-.02-.14-.14-.23-.28-.22-.46.06-.93.11-1.4.17l-.59.07c-.13.02-.23.14-.21.28.01.12.12.22.25.22Z"/>
    <path class="st0" d="M198.29,144.28h.03c.38-.05.76-.09,1.14-.14.28-.03.57-.06.85-.1.13-.01.22-.12.22-.25h0v-.03c-.01-.12-.12-.22-.25-.22h-.03c-.66.08-1.33.16-1.99.24-.07.01-.12.04-.17.09-.04.06-.06.12-.05.19.02.12.12.22.25.22Z"/>
    <path class="st0" d="M263.98,142.04c.7.16,1.33.32,1.92.49.02.01.04.01.07.01.11,0,.21-.07.24-.18,0-.03,0-.05,0-.08,0-.1-.07-.19-.17-.23h0c-.65-.19-1.31-.35-1.95-.5-.13-.03-.27.06-.3.19-.03.14.05.27.19.3Z"/>
    <path class="st0" d="M252.12,140.63c.58.02,1.2.06,2,.11h0c.13,0,.24-.11.25-.23v-.02c0-.13-.1-.24-.23-.25h-.01c-.76-.05-1.4-.08-2-.11h0c-.14,0-.24.1-.25.24,0,.06.02.13.06.17.05.06.11.09.18.09Z"/>
    <path class="st0" d="M98.72,145.8h.03c.13,0,.24-.09.25-.22h0v-.02c0-.13-.08-.23-.2-.25,0,0,0,0-.02,0-.35-.04-.7-.08-1.06-.13-.31-.03-.61-.07-.92-.11-.14,0-.26.08-.28.22-.01.06,0,.13.05.18s.1.09.16.1c.37.04.74.09,1.11.13.29.04.59.08.88.11Z"/>
    <path class="st0" d="M255.11,140.8c.63.05,1.28.11,1.99.18h.02c.13,0,.23-.1.25-.23v-.02c0-.13-.1-.24-.23-.25-.71-.07-1.36-.13-2-.17-.13-.01-.25.09-.26.23,0,.06,0,.13.06.18.04.05.1.08.17.08Z"/>
    <path class="st0" d="M249.13,140.53c.68.02,1.35.04,1.99.06h0c.14,0,.25-.11.25-.24v-.02c0-.13-.11-.24-.24-.24-.65-.02-1.32-.04-2-.06h0c-.13,0-.25.11-.25.25,0,.06.02.13.07.18.05.04.11.07.18.07Z"/>
    <path class="st0" d="M174.45,147.19h.03c.39-.05.77-.1,1.16-.14.27-.04.55-.07.83-.1.13-.02.22-.13.22-.26v-.02c-.02-.13-.13-.22-.25-.22h-.04c-.28.04-.56.07-.83.1-.39.05-.77.09-1.15.14-.07.01-.13.04-.17.09-.04.06-.05.12-.05.19.02.12.13.22.25.22Z"/>
    <path class="st0" d="M246.13,140.5c.7,0,1.37,0,2,.02.14,0,.25-.11.25-.25s-.11-.25-.25-.25c-.61-.01-1.27-.02-2-.02-.14,0-.25.11-.25.25s.11.25.25.25Z"/>
    <path class="st0" d="M261.05,141.48c.64.1,1.3.22,1.95.35.02,0,.04,0,.05,0,.12,0,.23-.09.25-.2v-.05c0-.12-.07-.22-.19-.25h-.01c-.65-.13-1.31-.25-1.97-.36-.14-.02-.27.08-.29.21-.02.14.07.26.21.29Z"/>
    <path class="st0" d="M100.21,145.98c.49.06.98.12,1.46.18t.03,0h.01c.14,0,.25-.09.27-.22v-.03c0-.12-.09-.23-.21-.25h-.01c-.32-.04-.63-.08-.95-.12-.34-.04-.69-.08-1.03-.12-.14-.02-.27.08-.28.21-.01.07,0,.13.05.19.04.05.1.08.17.09l.49.06Z"/>
    <path class="st0" d="M231.14,141.05h.01c.67-.05,1.34-.09,2-.13.13-.01.24-.12.23-.25h0c0-.15-.13-.26-.26-.25h-.1c-.62.05-1.26.09-1.9.13-.14.01-.24.13-.23.26,0,.13.11.24.25.24Z"/>
    <path class="st0" d="M72.18,142.41c0-.12-.1-.23-.22-.25h-.01l-.46-.04c-.51-.06-1.02-.11-1.53-.16-.14-.01-.26.09-.27.22,0,.07,0,.13.05.18.05.06.1.09.17.1.71.07,1.36.13,1.99.2h.02c.13,0,.24-.09.26-.22v-.03Z"/>
    <path class="st0" d="M228.14,141.25h.02c.53-.04,1.06-.07,1.59-.11l.4-.03c.14,0,.24-.12.24-.25h0c0-.15-.13-.25-.27-.25h-.06c-.64.05-1.29.1-1.94.15-.06,0-.12.03-.17.08-.04.05-.06.12-.06.18.01.13.12.23.25.23Z"/>
    <path class="st0" d="M225.15,141.49h.02c.61-.05,1.22-.1,1.83-.15h.16c.14-.02.24-.13.24-.27,0,0,0,0-.01,0,0-.13-.11-.23-.25-.23h-.02c-.67.05-1.34.1-1.99.16-.07,0-.13.03-.17.08-.04.06-.06.12-.06.19,0,.13.12.23.25.23Z"/>
    <path class="st0" d="M243.13,140.53h0c.65,0,1.32-.02,1.99-.02.14,0,.25-.12.25-.26,0-.13-.11-.24-.25-.24-.81,0-1.42.01-2,.02-.07,0-.13.03-.18.08s-.07.11-.07.17c0,.14.12.25.25.25Z"/>
    <path class="st0" d="M222.16,141.74h.02c.64-.06,1.32-.12,1.99-.17.13,0,.23-.12.23-.25h0v-.02c-.01-.14-.12-.24-.27-.23l-.5.04c-.5.04-.99.09-1.49.13-.07.01-.13.04-.17.09-.05.05-.07.12-.06.18,0,.13.12.23.25.23Z"/>
    <path class="st0" d="M240.13,140.6h0c.73-.02,1.45-.04,2-.05.13,0,.24-.12.24-.26,0-.13-.11-.24-.26-.24-.6.01-1.26.03-2,.05-.14,0-.24.12-.24.26,0,.13.12.24.25.24Z"/>
    <path class="st0" d="M234.13,140.87h0c.73-.04,1.38-.08,1.97-.11.02.01.03.01.05,0,.12,0,.22-.12.22-.25h0c0-.14-.11-.25-.25-.25h0c-.62.03-1.27.07-2,.11-.14,0-.24.12-.24.26,0,.13.12.24.25.24Z"/>
    <path class="st0" d="M237.13,140.72h0c.73-.04,1.39-.06,2-.08.13-.01.24-.12.24-.25h0c0-.15-.12-.25-.25-.25h0c-.73.02-1.39.05-2,.08-.14,0-.25.12-.24.26,0,.13.11.24.25.24Z"/>
    <path class="st0" d="M45.99,140.66c.59.02,1.23.05,2,.08h.01c.13,0,.24-.1.25-.24h0c0-.14-.11-.25-.24-.26-.58-.02-1.22-.05-2-.08h-.02c-.13,0-.24.11-.24.24-.01.07.02.13.06.18.05.05.11.08.18.08Z"/>
    <path class="st0" d="M60.95,141.62c.57.05,1.15.1,1.73.15l.26.02h.03c.12,0,.23-.1.24-.23,0-.01,0-.01,0-.02,0-.13-.1-.24-.23-.25-.67-.06-1.34-.12-2-.17-.14-.01-.25.09-.27.23,0,.13.09.25.23.27Z"/>
    <path class="st0" d="M63.94,141.88h.09c.63.07,1.27.12,1.9.19h.02c.13,0,.24-.1.25-.23v-.03c0-.12-.1-.23-.22-.24l-.21-.02c-.6-.06-1.19-.12-1.79-.17-.14,0-.25.09-.27.23,0,.06.02.13.06.18.04.05.1.08.17.09Z"/>
    <path class="st0" d="M66.93,142.16c.66.06,1.32.13,1.99.2h.02c.13,0,.24-.1.25-.23v-.02c0-.13-.09-.24-.22-.25h-.09c-.63-.07-1.27-.14-1.91-.2-.14,0-.26.09-.27.23,0,.14.09.26.23.27Z"/>
    <path class="st0" d="M51.98,140.96c.59.03,1.29.08,1.99.13h.02c.13,0,.24-.11.25-.24h0c0-.15-.1-.26-.23-.26-.73-.05-1.46-.1-2-.13-.14-.01-.26.1-.27.23,0,.14.1.26.24.27Z"/>
    <path class="st0" d="M72.9,142.77c.7.07,1.35.14,1.99.21h.02c.13,0,.23-.09.25-.23v-.02c0-.12-.09-.23-.21-.25h0l-1.99-.21c-.15-.02-.26.09-.28.22,0,.07.02.13.06.19.04.05.1.08.17.09Z"/>
    <path class="st0" d="M57.96,141.37c.66.05,1.32.11,1.99.16h.03c.13,0,.23-.09.24-.22v-.03c0-.12-.09-.23-.21-.24,0,0,0-.01,0-.01-.51-.04-1.02-.08-1.53-.12l-.47-.03c-.14-.02-.26.09-.27.22-.01.14.09.26.23.27Z"/>
    <path class="st0" d="M54.97,141.15c.66.05,1.32.1,1.99.15h.02c.13,0,.24-.1.25-.23v-.02c0-.13-.1-.24-.23-.25-.67-.05-1.33-.1-2-.15-.13,0-.25.1-.26.24,0,.13.09.25.23.26Z"/>
    <path class="st0" d="M84.83,144.11c.37.05.74.09,1.11.13.29.04.59.07.88.11h.03c.13,0,.23-.09.25-.22v-.03c0-.12-.09-.23-.22-.25-.66-.08-1.32-.16-1.99-.23-.13-.02-.26.08-.27.21-.01.07,0,.14.05.19.04.05.1.08.16.09Z"/>
    <path class="st0" d="M87.81,144.47l.31.03c.56.07,1.12.14,1.67.21h.03c.13,0,.24-.1.25-.23.01,0,.01-.01.01-.02,0-.13-.1-.24-.23-.25-.58-.07-1.17-.14-1.76-.21l-.22-.03c-.13,0-.26.08-.28.22,0,.14.08.26.22.28Z"/>
    <path class="st0" d="M90.79,144.83l.7.08c.43.05.85.11,1.28.16h.02c.13,0,.24-.09.25-.22,0,0,0-.02,0-.03,0-.12-.1-.23-.23-.25-.32-.04-.66-.08-.99-.12s-.65-.08-.98-.12c-.15-.01-.27.08-.28.22,0,.06.01.13.05.18.04.05.1.09.17.1Z"/>
    <path class="st0" d="M93.76,145.19c.42.05.83.1,1.25.15l.73.09s.02,0,.03,0c.13,0,.24-.1.25-.22v-.03c0-.13-.09-.24-.21-.25l-1.99-.25c-.14-.01-.26.08-.28.22-.01.07,0,.13.05.19.04.05.1.08.17.09Z"/>
    <path class="st0" d="M78.86,143.42c.67.08,1.33.15,2,.23h.02c.13,0,.24-.09.25-.22,0,0,.01-.02.01-.03,0-.12-.1-.23-.23-.25-.66-.08-1.32-.15-1.99-.23-.14-.01-.26.09-.28.22,0,.07.02.14.06.19.04.05.1.08.16.09Z"/>
    <path class="st0" d="M48.98,140.79c.59.03,1.29.07,2,.11h0c.14,0,.25-.1.25-.24h0c0-.14-.1-.25-.23-.26-.67-.04-1.34-.07-2-.11h-.02c-.13,0-.24.11-.24.24-.01.06,0,.13.06.18.04.05.1.08.17.08Z"/>
    <path class="st0" d="M75.88,143.09c.47.05.93.1,1.4.15l.55.06s.02.01.03.01h.02c.15,0,.25-.09.26-.22v-.03c0-.12-.09-.23-.22-.25-.71-.08-1.36-.15-1.99-.22-.14,0-.26.09-.27.22-.01.07,0,.13.05.19.04.05.1.08.17.09Z"/>
    <path class="st0" d="M81.85,143.76l.44.05c.52.06,1.04.12,1.55.19h.03c.13,0,.23-.1.25-.22v-.03c0-.13-.09-.24-.22-.25l-1.99-.23c-.15-.02-.26.08-.28.22,0,.06.01.13.05.18.05.05.11.09.17.09Z"/>
    <path class="st0" d="M28.01,140.92h.02c.65-.06,1.32-.11,1.99-.16.13,0,.23-.12.23-.25h0c-.01-.15-.13-.26-.27-.24-.66.04-1.34.09-2,.15-.13,0-.23.14-.22.27.01.13.12.23.25.23Z"/>
    <path class="st0" d="M25.03,141.25h.03c.62-.08,1.27-.16,1.98-.23.13-.02.22-.12.22-.25v-.03c0-.13-.14-.23-.27-.22-.65.07-1.32.14-2,.23-.13.02-.23.15-.21.29.01.12.12.21.25.21Z"/>
    <path class="st0" d="M22.06,141.73s.03-.01.05-.01c.58-.11,1.22-.22,1.95-.33h.02c.12-.02.21-.13.21-.25,0-.01-.01-.02-.01-.04-.02-.13-.13-.23-.28-.21-.71.11-1.36.22-1.98.34-.14.03-.23.15-.2.29.02.12.12.21.24.21Z"/>
    <path class="st0" d="M108.65,147.02c.46.05.91.11,1.36.16l.63.08h.03c.13,0,.23-.1.25-.23v-.02c0-.13-.09-.24-.22-.25l-1.99-.24c-.13,0-.26.08-.28.22-.01.14.08.26.22.28Z"/>
    <path class="st0" d="M111.63,147.37c.51.06,1.01.12,1.51.18l.45.05s.01.01.03.01h0c.15,0,.25-.09.27-.22v-.03c0-.12-.09-.23-.21-.25h0c-.57-.07-1.14-.13-1.72-.2l-.27-.03c-.14-.02-.26.08-.27.22,0,.06.01.13.05.18.04.05.1.08.16.09Z"/>
    <path class="st0" d="M15.26,143.21c-.64.29-1.25.6-1.8.93-.12.07-.16.23-.09.34.05.08.13.13.21.13.05,0,.1-.02.13-.04.54-.32,1.13-.62,1.75-.9.09-.04.15-.13.15-.24,0-.03,0-.06-.02-.09-.06-.12-.21-.18-.33-.13Z"/>
    <path class="st0" d="M102.69,146.29c.44.05.87.11,1.31.16l.68.08s.02,0,.03,0c.13,0,.23-.1.25-.23v-.02c0-.13-.09-.24-.22-.25,0,0,0,0,0,0l-.71-.09c-.42-.05-.84-.1-1.26-.16-.15,0-.27.08-.28.22-.01.07,0,.13.05.18.04.06.1.09.16.1Z"/>
    <path class="st0" d="M12.6,144.7c-.58.41-1.1.86-1.55,1.33-.09.1-.09.26.01.35.05.05.11.07.18.07.06,0,.13-.03.18-.08.42-.45.92-.87,1.47-1.27.07-.04.11-.12.11-.2,0-.05-.02-.1-.05-.15-.08-.1-.24-.13-.35-.05Z"/>
    <path class="st0" d="M19.14,142.38h.06c.6-.16,1.24-.32,1.94-.47.11-.02.19-.12.19-.24v-.05c-.03-.13-.17-.22-.3-.19-.66.14-1.32.29-1.96.46-.06.02-.12.06-.15.12s-.04.12-.02.19c.02.11.12.18.24.18Z"/>
    <path class="st0" d="M39.99,140.51c.67.01,1.35.02,2,.03h.01c.13,0,.25-.11.25-.25,0-.06-.03-.13-.07-.17-.05-.05-.11-.08-.18-.08-.73-.01-1.39-.02-2-.03-.14,0-.25.11-.25.25,0,.07.02.13.07.18.05.04.11.07.17.07Z"/>
    <path class="st0" d="M37,140.51c.46,0,.94,0,1.43,0h.57c.13,0,.25-.11.25-.25,0-.13-.11-.25-.26-.25h-.56c-.48,0-.98,0-1.43,0-.14,0-.25.11-.25.25s.11.25.25.25Z"/>
    <path class="st0" d="M16.37,143.29c.58-.22,1.2-.44,1.87-.64,0,0,.01,0,.02,0,.1-.03.16-.12.17-.23,0-.02-.01-.05-.02-.07-.03-.13-.18-.21-.31-.17-.68.2-1.32.42-1.9.65-.07.03-.12.07-.14.13-.03.07-.03.13-.01.2.04.09.13.16.23.16.03,0,.07-.01.09-.02Z"/>
    <path class="st0" d="M42.99,140.56c.58.02,1.22.04,2,.06h.01c.13,0,.24-.1.25-.24h0c-.01-.15-.11-.25-.24-.26-.59-.02-1.22-.04-2.01-.06-.14,0-.25.11-.25.25-.01.13.1.25.24.25Z"/>
    <path class="st0" d="M105.67,146.65c.61.08,1.22.15,1.83.23h.13s.02.02.03.02h0c.15,0,.25-.09.27-.22v-.03c0-.12-.09-.23-.21-.25h-.01c-.33-.04-.66-.08-.99-.12s-.66-.08-1-.12c-.14-.01-.26.08-.28.22,0,.06.01.13.06.18.04.05.1.08.16.09Z"/>
    <path class="st0" d="M31,140.7h0c.72-.04,1.38-.07,2-.09.13,0,.24-.12.24-.25h0c-.01-.15-.12-.26-.25-.26h-.01c-.77.04-1.41.07-2,.1-.07.01-.13.04-.18.09-.04.05-.06.11-.06.18,0,.13.12.23.25.23Z"/>
    <path class="st0" d="M34,140.57h0c.68-.02,1.35-.04,1.99-.05.14,0,.25-.11.25-.25s-.12-.25-.26-.25c-.73,0-1.38.03-2,.05-.14,0-.25.12-.24.26,0,.13.11.24.25.24Z"/>
    <path class="st0" d="M189.35,145.36h.03l.5-.06c.5-.06.99-.12,1.48-.18.13-.02.23-.12.22-.25v-.03c0-.12-.12-.22-.25-.22,0,0-.02,0-.04,0-.38.04-.77.09-1.16.14l-.81.1c-.14,0-.24.14-.22.28.01.12.12.21.25.21Z"/>
    <path class="st0" d="M142.28,149.91c.49,0,.9-.01,1.29-.01.13,0,.24-.12.24-.26,0-.13-.11-.24-.25-.24-.63.01-1.31.01-2,0-.13,0-.25.12-.25.25,0,.14.11.25.25.26h.72Z"/>
    <path class="st0" d="M124.11,148.75c.49.05.98.1,1.46.15h.02c.13,0,.23-.1.25-.23v-.02c0-.13-.1-.24-.23-.25-.65-.06-1.32-.13-1.99-.2-.15-.01-.26.09-.27.23-.01.06,0,.13.05.18.04.05.1.08.17.09l.54.05Z"/>
    <path class="st0" d="M260.05,141.33v-.03s0,.03,0,.03h.04c.12,0,.23-.09.25-.22v-.03c0-.13-.09-.23-.22-.25-.62-.08-1.28-.17-1.99-.25-.14-.02-.26.09-.28.22,0,.07.02.13.06.18.04.06.1.09.16.1.65.07,1.31.15,1.97.25Z"/>
    <path class="st0" d="M168.5,147.88l.63-.07,1.38-.15c.12-.02.22-.13.22-.26v-.02c-.02-.13-.13-.22-.25-.22h-.04c-.53.06-1.05.12-1.57.18l-.41.05c-.07,0-.13.04-.17.09-.04.05-.06.12-.05.18,0,.13.12.23.25.23,0,0,0,0,0,0Z"/>
    <path class="st0" d="M165.53,148.22c.57-.06,1.13-.13,1.71-.19l.25-.03s.03,0,.04,0c.12-.01.21-.12.21-.24v-.03c-.01-.13-.13-.22-.26-.22h0l-.21.02c-.6.07-1.2.14-1.78.2-.07,0-.13.04-.17.09-.04.05-.06.12-.05.19,0,.12.12.22.25.22h.02Z"/>
    <path class="st0" d="M121.69,148.51c.3.03.59.06.88.09h.03c.13,0,.24-.1.25-.23v-.02c0-.13-.09-.24-.22-.25-.63-.06-1.3-.13-1.99-.21-.15-.02-.26.09-.28.22,0,.14.09.26.22.28.37.04.74.08,1.11.12Z"/>
    <path class="st0" d="M128.55,149.17h.03c.13,0,.23-.09.25-.23v-.02c0-.13-.11-.24-.23-.24-.66-.06-1.32-.12-1.99-.19-.14-.01-.26.09-.27.23,0,.07.01.13.05.18.04.05.1.09.17.09.55.05,1.27.12,1.99.18Z"/>
    <path class="st0" d="M162.55,148.54c.3-.03.6-.06.9-.1.36-.04.72-.07,1.09-.11.12-.02.22-.13.22-.25v-.03c-.02-.14-.16-.23-.28-.22-.67.07-1.33.14-1.99.21-.06,0-.12.04-.16.09-.05.05-.06.12-.06.18.01.13.12.23.25.23h.03Z"/>
    <path class="st0" d="M134.55,149.63h.01c.13,0,.25-.1.25-.23h0c0-.15-.1-.26-.23-.27-.69-.04-1.4-.09-2-.13-.13-.02-.25.09-.26.23,0,.13.09.25.23.26.67.05,1.34.1,2,.14Z"/>
    <path class="st0" d="M137.06,149.76c.04.08.11.14.21.14.09,0,.15-.05.2-.12.03,0,.05,0,.08,0,0,0,.01,0,.01,0,.13,0,.24-.11.25-.25h0c0-.14-.11-.25-.24-.26-.02,0-.03,0-.05,0v-1.63c0-.14-.11-.25-.25-.25s-.25.11-.25.25v1.61c-.49-.02-.98-.05-1.44-.08-.13.01-.26.1-.27.24-.01.14.1.25.24.26.5.03,1.01.05,1.51.08Z"/>
    <path class="st0" d="M131.55,149.42h.02c.13,0,.24-.1.25-.23h0c0-.15-.1-.26-.23-.27h0c-.64-.05-1.31-.1-1.99-.16-.14,0-.25.09-.27.23,0,.13.09.26.23.27.61.05,1.27.1,2,.16Z"/>
    <path class="st0" d="M171.5,147.54c.46-.05.93-.11,1.39-.16l.6-.07c.12-.02.22-.13.22-.26v-.02c-.02-.14-.13-.23-.28-.22-.52.06-1.03.12-1.54.18l-.45.05c-.07,0-.13.04-.17.1-.04.05-.06.11-.05.18,0,.13.12.22.25.22h.03Z"/>
    <path class="st0" d="M140.56,149.89c.14,0,.25-.11.25-.24,0-.07-.02-.13-.07-.18-.04-.05-.11-.08-.17-.08-.66,0-1.34-.03-2-.05h0c-.14,0-.24.1-.25.24,0,.06.02.13.07.18.04.04.1.07.17.07.67.03,1.34.05,2.01.06Z"/>
    <path class="st0" d="M153.57,149.38c.6-.05,1.26-.11,2-.17.13,0,.23-.12.23-.26h0c0-.15-.14-.26-.27-.24-.66.06-1.33.11-1.99.17-.07,0-.13.03-.18.08-.04.06-.06.12-.05.19,0,.12.11.23.24.23h.02Z"/>
    <path class="st0" d="M269.82,143.46c-.12-.06-.27-.01-.33.11-.03.06-.03.13-.01.19.02.07.07.12.13.15.62.3,1.19.62,1.71.96.04.03.09.04.13.04.09,0,.17-.04.21-.11.03-.04.05-.09.04-.14,0-.09-.04-.16-.11-.21-.54-.35-1.13-.69-1.77-.99Z"/>
    <path class="st0" d="M156.57,149.12c.65-.06,1.32-.12,1.99-.18.13-.02.23-.12.23-.25v-.03c-.02-.13-.15-.24-.28-.22-.58.06-1.21.12-1.99.18-.06,0-.13.04-.17.09-.04.06-.06.12-.05.19,0,.12.12.23.25.23t.02,0Z"/>
    <path class="st0" d="M144.57,149.88c.63-.02,1.31-.04,2-.07.14,0,.24-.11.24-.25h0c0-.14-.11-.25-.25-.25h0c-.6.03-1.23.05-1.99.07-.07,0-.13.03-.18.08-.04.04-.07.11-.07.18,0,.13.12.24.25.24h.01Z"/>
    <path class="st0" d="M150.58,149.59c.57-.03,1.19-.08,1.97-.14h.04c.12-.01.22-.12.22-.25v-.02c0-.13-.12-.21-.26-.23h0c-.74.06-1.4.11-2,.15-.14.01-.24.13-.23.26.01.13.12.23.25.23h.02Z"/>
    <path class="st0" d="M159.56,148.84c.72-.07,1.37-.13,1.99-.2.13,0,.22-.12.23-.25,0,0,0,0-.01,0h0c0-.14-.12-.24-.24-.24-.02,0-.03,0-.04,0-.67.06-1.33.13-1.98.19-.07,0-.13.04-.17.09-.04.06-.06.12-.05.19,0,.13.12.22.24.22h.03Z"/>
    <path class="st0" d="M273.9,146.48h-.01c-.42-.52-.91-1-1.47-1.43-.1-.09-.27-.07-.35.04-.04.05-.06.12-.05.18,0,.07.04.13.09.17.54.42,1.01.87,1.39,1.35.05.06.12.09.2.09.06,0,.11-.02.16-.06.05-.04.08-.1.09-.17,0-.06-.01-.12-.05-.17Z"/>
    <path class="st0" d="M116.58,147.95h.04c.14-.01.25-.09.26-.22v-.03c0-.12-.09-.23-.21-.24,0,0,0,0,0,0-.55-.06-1.11-.12-1.67-.19l-.32-.04c-.14,0-.26.09-.27.22-.02.14.08.27.22.28.28.03.56.07.84.1.37.04.74.08,1.12.13Z"/>
    <path class="st0" d="M119.61,148.28c.13,0,.24-.09.25-.22.01,0,.01-.02.01-.03,0-.13-.1-.23-.23-.25-.63-.06-1.31-.14-1.99-.22-.13,0-.26.09-.27.22-.02.14.08.26.22.28.67.08,1.33.15,1.99.22h.02Z"/>
    <path class="st0" d="M268.91,143.04h0c-.59-.25-1.23-.48-1.9-.7-.13-.04-.27.03-.31.16-.02.07-.02.13.01.19.03.06.09.11.15.13.67.22,1.29.45,1.86.68.03,0,.06.02.09.02.1,0,.2-.06.23-.15.02-.03.02-.07.02-.1,0-.1-.05-.19-.14-.23Z"/>
    <path class="st0" d="M193.63,214.42c-.09.04-.15.13-.15.23,0,.03.01.07.02.1.04.09.13.15.23.15.04,0,.07,0,.1-.02.61-.26,1.22-.53,1.83-.79.13-.06.19-.2.13-.33-.05-.12-.21-.18-.33-.13-.69.3-1.28.55-1.83.79Z"/>
    <path class="st0" d="M201.83,210.76h0c-.08.05-.13.13-.13.22,0,.04.01.08.02.11.04.09.13.14.23.14.04,0,.07,0,.11-.02.63-.3,1.22-.58,1.8-.86.12-.07.17-.22.11-.34s-.21-.17-.33-.11c-.6.29-1.2.57-1.77.85-.01,0-.02,0-.03,0Z"/>
    <path class="st0" d="M190.91,215.57s-.02,0-.03,0h0c-.09.05-.15.14-.15.23,0,.04,0,.07.02.1.04.1.13.15.23.15.03,0,.06,0,.09,0h.01c.61-.26,1.23-.52,1.84-.78.06-.03.11-.08.14-.14.02-.06.02-.13,0-.19-.05-.12-.2-.18-.32-.13-.61.25-1.21.51-1.81.76Z"/>
    <path class="st0" d="M243.96,183.7c-.08-.11-.24-.13-.35-.04l-.38.3c-.39.3-.79.61-1.2.93-.06.04-.09.12-.09.2,0,.05.02.11.05.15.05.06.12.09.2.09.06,0,.11,0,.15-.05.29-.22.58-.45.86-.67l.72-.56c.11-.09.13-.24.04-.35Z"/>
    <path class="st0" d="M198.97,212.25s0,.06.02.1c.04.08.13.14.23.14.03,0,.07-.01.1-.02.6-.27,1.22-.55,1.82-.83.12-.06.18-.21.12-.34-.06-.12-.21-.18-.33-.12-.63.3-1.25.58-1.82.83-.09.05-.14.14-.14.24Z"/>
    <path class="st0" d="M204.53,209.46c-.09.04-.14.13-.14.22,0,.04.01.08.02.11.04.09.13.14.23.14.04,0,.07,0,.11-.02.62-.31,1.25-.63,1.79-.9.12-.06.17-.21.11-.33-.06-.13-.22-.18-.34-.12-.68.35-1.25.63-1.78.9Z"/>
    <path class="st0" d="M196.42,213.22s-.03,0-.04,0,0,0,0,.01c-.09.04-.14.13-.14.22,0,.03.01.06.02.1.04.09.13.15.23.15.03,0,.07,0,.09-.02h0c.63-.28,1.24-.55,1.83-.81.12-.06.18-.2.13-.33-.06-.12-.21-.18-.34-.13-.57.26-1.18.53-1.78.8Z"/>
    <path class="st0" d="M187.51,217.45c.03-.06.03-.13,0-.19-.05-.12-.2-.19-.32-.13-.32.13-.64.26-.95.39-.3.13-.6.25-.89.38-.1.04-.16.13-.16.23,0,.04.01.07.02.1.04.09.13.15.23.15.03,0,.07,0,.1-.02h0s1.83-.77,1.83-.77c.06-.03.11-.07.13-.14Z"/>
    <path class="st0" d="M188.12,216.74v.03-.03s-.02,0-.02,0c-.09.04-.14.12-.15.22,0,.03,0,.07.02.1.04.09.13.15.24.15.03,0,.06,0,.09,0t0,0c.61-.26,1.22-.51,1.83-.77.13-.05.19-.2.14-.32-.05-.13-.2-.19-.33-.14-.3.13-.61.26-.92.39-.3.12-.6.25-.9.38h0Z"/>
    <path class="st0" d="M184.75,218.42c-.05-.13-.2-.19-.33-.13-.58.24-1.16.49-1.74.73l-.1.04c-.09.04-.15.13-.15.24,0,.03,0,.06.02.09.04.09.13.15.23.15.03,0,.07,0,.1-.02.61-.26,1.23-.52,1.84-.77.12-.06.18-.2.13-.33Z"/>
    <path class="st0" d="M179.11,221.1c.06-.02.11-.07.13-.13.02-.07.02-.13,0-.19-.06-.13-.21-.19-.33-.13-.19.08-.37.16-.56.24-.41.18-.83.37-1.24.55-.01,0-.02.01-.03.01h0c-.09.05-.14.14-.14.24,0,.03,0,.07.02.09.04.09.13.15.23.15.04,0,.07,0,.1-.02.71-.31,1.29-.57,1.83-.81Z"/>
    <path class="st0" d="M173.43,223.11c-.52.24-1.06.5-1.59.74l-.22.11c-.12.06-.18.2-.12.33.05.09.13.14.23.14.04,0,.07,0,.11-.02.56-.27,1.15-.55,1.8-.85.06-.02.11-.07.13-.14.03-.06.02-.13,0-.19-.06-.12-.21-.18-.34-.12Z"/>
    <path class="st0" d="M174.45,223.17s.06,0,.09-.02c0,0,0,0,0,0,.53-.24,1.09-.49,1.82-.82.12-.06.18-.21.13-.33-.06-.12-.21-.18-.33-.13-.59.26-1.2.54-1.83.83-.08.04-.14.13-.14.22,0,.04,0,.08.02.11.04.09.13.15.23.15Z"/>
    <path class="st0" d="M181.86,219.92c.12-.06.18-.21.13-.33-.05-.13-.2-.19-.33-.13l-.31.13c-.5.22-1.01.43-1.53.66-.09.04-.15.13-.15.23,0,.03,0,.06.02.1.04.09.14.15.23.15.04,0,.07,0,.1-.02.47-.21.93-.4,1.39-.6l.45-.19Z"/>
    <path class="st0" d="M220.16,200.64h0c-.07.05-.11.13-.11.21,0,.05.02.09.04.13.05.07.13.12.21.12.05,0,.1-.02.14-.04.56-.36,1.12-.72,1.68-1.09.11-.07.15-.23.07-.34-.07-.11-.24-.15-.34-.07-.56.36-1.12.71-1.66,1.06l-.02.02Z"/>
    <path class="st0" d="M234.98,190.28s-.06.05-.09.07c-.06.05-.1.12-.1.2,0,.05.02.11.05.15.05.06.12.1.2.1.05,0,.11-.02.15-.05.04-.03.08-.06.11-.08l.05-.04c.2-.15.41-.31.61-.46.28-.21.56-.42.83-.62.11-.09.13-.25.05-.36-.09-.11-.25-.13-.36-.05-.47.36-.95.73-1.44,1.09-.02.02-.04.04-.06.05Z"/>
    <path class="st0" d="M257.47,172.2c-.46.41-.95.84-1.5,1.32-.06.05-.09.12-.09.19,0,.06.02.12.06.17.05.05.12.08.19.08.06,0,.12-.02.17-.06h0c.47-.41.96-.84,1.5-1.32.05-.05.08-.11.08-.18,0-.06-.02-.13-.06-.18-.09-.09-.26-.1-.35-.02Z"/>
    <path class="st0" d="M239.82,187.17s.1-.02.15-.05c.54-.42,1.06-.82,1.58-1.23.11-.08.13-.24.05-.35-.09-.1-.25-.13-.36-.04-.57.45-1.09.85-1.58,1.22-.06.05-.1.12-.1.2.01.06.02.11.06.15.04.06.12.1.2.1Z"/>
    <path class="st0" d="M238.87,187.33l-1.59,1.21c-.06.05-.1.12-.1.2,0,.06.02.11.05.15.05.06.12.1.2.1.06,0,.11-.02.15-.05.54-.41,1.07-.81,1.59-1.21.11-.09.14-.25.05-.36-.08-.1-.25-.12-.35-.04Z"/>
    <path class="st0" d="M234.09,190.95c-.62.47-1.13.84-1.6,1.19-.07.05-.1.12-.1.2,0,.05.01.11.04.15.05.06.13.1.21.1.05,0,.09,0,.13-.04h.01c.47-.35.96-.71,1.61-1.2.11-.08.13-.24.05-.35-.08-.11-.24-.13-.35-.05Z"/>
    <path class="st0" d="M231.68,192.73c-.54.4-1.07.78-1.61,1.17-.07.05-.11.12-.11.2,0,.06.02.11.05.16.05.06.12.1.2.1.05,0,.1-.02.15-.05.54-.39,1.08-.78,1.62-1.17.05-.04.09-.1.1-.17,0-.06,0-.13-.05-.18-.08-.11-.24-.14-.35-.06Z"/>
    <path class="st0" d="M259.68,170.19c-.43.4-.94.86-1.47,1.35-.06.05-.09.12-.08.19,0,.06.02.12.06.16.05.05.11.08.18.08s.13-.02.17-.06c.49-.44.99-.9,1.48-1.35.1-.1.11-.26.01-.36-.09-.1-.25-.1-.35-.01Z"/>
    <path class="st0" d="M260.4,169.86s.11.08.18.08.13-.02.17-.07c.53-.5,1.01-.95,1.45-1.39.1-.09.1-.25,0-.35-.09-.09-.26-.1-.35,0-.47.46-.96.92-1.44,1.38-.05.04-.08.11-.08.17,0,.07.02.13.07.18Z"/>
    <path class="st0" d="M250.63,178.03c-.54.45-1.09.9-1.55,1.27-.06.05-.09.12-.09.19,0,.06.02.11.05.16.05.06.12.09.2.09.06,0,.11-.02.15-.05.47-.38.96-.78,1.55-1.27.11-.09.13-.24.04-.35-.09-.1-.25-.12-.35-.04Z"/>
    <path class="st0" d="M265.95,163.79c-.39.45-.83.95-1.31,1.47,0,0,0,0,0,.02h0s-.06.11-.06.17c0,.07.03.13.08.18.05.04.11.06.17.06.07,0,.13-.02.18-.07h0c.45-.5.9-1.01,1.33-1.51.09-.1.08-.26-.03-.35-.1-.09-.27-.07-.35.03Z"/>
    <path class="st0" d="M245.96,181.8c-.56.45-1.13.9-1.56,1.24-.07.05-.1.12-.1.2,0,.06.02.11.05.15.05.06.12.1.2.1.06,0,.11-.02.16-.06.47-.37.97-.76,1.56-1.24.06-.04.09-.1.1-.17,0-.06,0-.13-.06-.18-.08-.1-.24-.12-.35-.04Z"/>
    <path class="st0" d="M246.9,181.06l-.15.12c-.06.05-.1.12-.1.19,0,.06.02.11.06.16.04.06.12.09.19.09.06,0,.12-.02.16-.05l.11-.09c.49-.4.98-.78,1.45-1.16.05-.05.08-.11.09-.17,0-.07,0-.13-.06-.18-.08-.11-.24-.13-.35-.04-.46.37-.93.75-1.4,1.13Z"/>
    <path class="st0" d="M216.77,202.74c-.61.37-1.21.73-1.71,1.03-.08.04-.13.12-.13.21,0,.05.02.09.04.13.05.08.13.12.21.12.04,0,.09,0,.12-.03h0c.57-.34,1.15-.68,1.72-1.03.12-.07.15-.23.08-.34-.07-.12-.23-.16-.34-.09Z"/>
    <path class="st0" d="M254.02,175.85c.56-.47,1.06-.9,1.52-1.3.1-.09.12-.24.03-.35-.09-.1-.26-.11-.36-.02-.55.48-1.05.9-1.52,1.3-.05.04-.09.11-.08.19,0,.06.02.11.06.16s.11.09.19.09c.05,0,.11-.02.16-.06h0Z"/>
    <path class="st0" d="M263.95,166c-.48.5-.93.97-1.39,1.43-.05.04-.08.11-.08.17,0,.07.03.13.08.18.04.05.11.07.17.07.07,0,.13-.02.18-.07.52-.52.98-.99,1.4-1.44.1-.1.09-.25,0-.35-.1-.09-.26-.09-.35,0Z"/>
    <path class="st0" d="M219.31,201.17c-.59.38-1.14.72-1.66,1.04-.01,0-.02,0-.03,0t0,0c-.07.04-.11.12-.11.21,0,.05.02.09.04.13.04.07.13.12.21.12.04,0,.09,0,.12-.04h0c.51-.32,1.11-.68,1.7-1.06.06-.03.1-.09.11-.16.02-.06.01-.13-.03-.18-.07-.12-.24-.15-.35-.08Z"/>
    <path class="st0" d="M253.28,176.15c-.08-.1-.25-.12-.35-.03-.37.31-.76.64-1.15.96l-.36.3-.02.02s-.01,0-.01.01c-.05.04-.08.11-.08.18,0,.06.02.12.06.16.04.06.11.09.19.09.05,0,.1-.02.15-.05h0c.47-.4.97-.81,1.53-1.29.11-.09.12-.25.03-.35Z"/>
    <path class="st0" d="M212.34,205.49s0,.08.03.11c.04.08.13.13.22.13.04,0,.08,0,.12-.03.6-.34,1.18-.67,1.74-1,.11-.07.15-.22.09-.34-.07-.11-.23-.15-.35-.09-.62.37-1.18.69-1.71.98,0,0,0,0-.02.02-.08.04-.12.13-.12.22Z"/>
    <path class="st0" d="M209.96,207.18s.08,0,.12-.03c.52-.28,1.08-.58,1.76-.96.12-.07.16-.22.09-.34-.06-.12-.22-.16-.34-.1-.7.39-1.23.69-1.73.95h-.01s0,.02,0,.02c-.08.04-.13.12-.13.21,0,.04,0,.08.03.12.05.08.13.13.22.13Z"/>
    <path class="st0" d="M227.77,196.09s.09,0,.13-.03c0,0,0,0,0,0,.53-.37,1.08-.76,1.64-1.16.11-.08.13-.23.05-.35-.07-.1-.24-.13-.35-.05-.47.34-.99.7-1.61,1.13,0,0,0,0-.02.02h0c-.06.05-.09.13-.09.21,0,.04.01.09.04.14.05.06.12.1.21.1Z"/>
    <path class="st0" d="M208.97,207.18c-.57.31-1.16.62-1.77.93-.09.04-.14.13-.14.23,0,.04.01.07.03.11.04.08.13.13.22.13.04,0,.08,0,.12-.02.71-.37,1.26-.66,1.77-.94.12-.06.17-.21.1-.33-.06-.12-.22-.17-.33-.11Z"/>
    <path class="st0" d="M226.8,196.21c-.56.39-1.12.78-1.64,1.13-.07.05-.11.13-.11.21,0,.05,0,.1.04.14.05.07.13.11.21.11.05,0,.1-.02.14-.05.6-.4,1.2-.82,1.65-1.13.05-.04.09-.09.1-.16.01-.07,0-.13-.04-.19-.07-.11-.24-.14-.35-.06Z"/>
    <path class="st0" d="M266.78,163.43c.07,0,.15-.03.19-.09.44-.54.85-1.07,1.22-1.6.08-.12.06-.27-.05-.35-.11-.08-.28-.05-.35.06-.37.51-.77,1.04-1.2,1.57-.04.05-.06.11-.06.16,0,.08.03.15.09.2.05.03.1.05.16.05Z"/>
    <path class="st0" d="M222.67,199.01c-.07.04-.11.12-.11.2,0,.05.01.1.04.14.04.07.12.12.21.12.05,0,.09-.02.13-.04.01,0,.01,0,.01,0,.5-.33,1.03-.68,1.66-1.11.06-.03.09-.09.11-.16,0-.06,0-.13-.04-.18-.08-.11-.24-.14-.35-.07-.64.44-1.17.79-1.66,1.11Z"/>
    <path class="st0" d="M147.28,101.91c.14,0,.25-.11.25-.25v-2c0-.21-.28-.32-.43-.18-.04.05-.07.11-.07.18v2c0,.14.12.25.25.25Z"/>
    <path class="st0" d="M147.28,89.91c.14,0,.25-.11.25-.25v-2c0-.21-.28-.32-.43-.17-.04.04-.07.1-.07.17v2c0,.14.11.25.25.25Z"/>
    <path class="st0" d="M147.28,98.91c.14,0,.25-.11.25-.25v-2c0-.21-.28-.32-.43-.18-.04.05-.07.11-.07.18v2c0,.14.11.25.25.25Z"/>
    <path class="st0" d="M147.28,104.91c.14,0,.25-.11.25-.25v-2c0-.21-.28-.32-.43-.17-.04.04-.07.1-.07.17v2c0,.14.11.25.25.25Z"/>
    <path class="st0" d="M147.28,92.91h0c.13,0,.24-.11.24-.25v-2c0-.21-.28-.32-.43-.18-.04.05-.07.11-.07.18v2c0,.14.12.25.25.25Z"/>
    <path class="st0" d="M147.28,95.91c.14,0,.25-.11.25-.25v-2c0-.21-.28-.32-.43-.18-.04.05-.07.11-.07.18v2c0,.14.12.25.25.25Z"/>
    <path class="st0" d="M147.28,128.91c.14,0,.25-.11.25-.25v-2c0-.21-.28-.32-.43-.18-.04.05-.07.11-.07.18v2c0,.14.11.25.25.25Z"/>
    <path class="st0" d="M147.28,146.91c.14,0,.25-.11.25-.25v-2c0-.14-.11-.25-.25-.25-.06,0-.13.03-.18.07-.04.05-.07.11-.07.18v2c0,.14.11.25.25.25Z"/>
    <path class="st0" d="M147.28,107.91h0c.13,0,.24-.11.24-.25v-2c0-.21-.28-.32-.43-.18-.04.05-.07.11-.07.18v2c0,.14.12.25.25.25Z"/>
    <path class="st0" d="M147.28,143.91c.14,0,.25-.11.25-.25v-2c0-.21-.28-.32-.43-.18-.04.05-.07.11-.07.18v2c0,.14.11.25.25.25Z"/>
    <path class="st0" d="M147.28,152.91c.14,0,.25-.11.25-.25v-2c0-.21-.28-.32-.43-.18-.04.05-.07.11-.07.18v2c0,.14.12.25.25.25Z"/>
    <path class="st0" d="M147.28,155.91h0c.13,0,.24-.12.24-.25v-2c0-.21-.28-.32-.43-.18-.04.05-.07.11-.07.18v2c0,.14.12.25.25.25Z"/>
    <path class="st0" d="M147.28,140.91c.14,0,.25-.11.25-.25v-2c0-.21-.28-.32-.42-.18-.05.05-.08.11-.08.18v2c0,.14.12.25.25.25Z"/>
    <path class="st0" d="M147.28,161.91c.14,0,.25-.11.25-.25v-2c0-.21-.28-.32-.43-.18-.04.05-.07.11-.07.18v2c0,.14.12.25.25.25Z"/>
    <path class="st0" d="M147.28,164.91h0c.13,0,.24-.12.24-.25v-2c0-.21-.28-.32-.43-.18-.04.05-.07.11-.07.18v2c0,.14.12.25.25.25Z"/>
    <path class="st0" d="M147.28,158.91c.14,0,.25-.11.25-.25v-2c0-.21-.28-.32-.43-.18-.04.05-.07.11-.07.18v2c0,.14.12.25.25.25Z"/>
    <path class="st0" d="M147.28,149.91h0c.1,0,.17-.08.21-.17.02,0,.04.03.06.03h.01c.67-.03,1.36-.07,2.01-.11.13-.01.23-.12.23-.25v-.02c0-.13-.12-.23-.25-.23h-.02c-.62.04-1.27.07-1.99.11,0,0-.01,0-.02,0v-1.62c0-.21-.28-.32-.43-.18-.04.05-.07.11-.07.18v2c0,.14.12.25.25.25Z"/>
    <path class="st0" d="M147.28,119.91c.14,0,.25-.11.25-.25v-2c0-.2-.28-.32-.43-.17-.04.04-.07.1-.07.17v2c0,.14.11.25.25.25Z"/>
    <path class="st0" d="M147.28,122.91h0c.13,0,.24-.11.24-.25v-2c0-.21-.28-.32-.43-.18-.04.05-.07.11-.07.18v2c0,.14.12.25.25.25Z"/>
    <path class="st0" d="M147.28,137.91h0c.13,0,.24-.11.24-.25v-2c0-.21-.28-.32-.43-.18-.04.05-.07.11-.07.18v2c0,.14.12.25.25.25Z"/>
    <path class="st0" d="M147.28,113.91c.14,0,.25-.11.25-.25v-2c0-.21-.28-.32-.43-.18-.04.05-.07.11-.07.18v2c0,.14.11.25.25.25Z"/>
    <path class="st0" d="M147.28,116.91c.14,0,.25-.11.25-.25v-2c0-.21-.28-.32-.43-.18-.04.05-.07.11-.07.18v2c0,.14.12.25.25.25Z"/>
    <path class="st0" d="M147.28,134.91c.14,0,.25-.11.25-.25v-2c0-.2-.28-.32-.43-.17-.04.04-.07.1-.07.17v2c0,.14.11.25.25.25Z"/>
    <path class="st0" d="M147.28,125.91c.14,0,.25-.11.25-.25v-2c0-.21-.28-.32-.42-.18-.05.05-.08.11-.08.18v2c0,.14.12.25.25.25Z"/>
    <path class="st0" d="M147.28,131.91c.14,0,.25-.11.25-.25v-2c0-.21-.28-.32-.43-.18-.04.05-.07.11-.07.18v2c0,.14.12.25.25.25Z"/>
    <path class="st0" d="M147.28,110.91c.14,0,.25-.11.25-.25v-2c0-.21-.28-.32-.42-.18-.05.05-.08.11-.08.18v2c0,.14.12.25.25.25Z"/>
    <path class="st0" d="M147.28,32.91h0c.13,0,.24-.11.24-.25v-2c0-.21-.28-.32-.43-.18-.04.05-.07.11-.07.18v2c0,.14.12.25.25.25Z"/>
    <path class="st0" d="M147.28,29.91c.14,0,.25-.11.25-.25v-2c0-.21-.28-.32-.43-.18-.04.05-.07.11-.07.18v2c0,.14.11.25.25.25Z"/>
    <path class="st0" d="M147.28,86.91c.14,0,.25-.11.25-.25v-2c0-.21-.28-.32-.43-.18-.04.05-.07.11-.07.18v2c0,.14.12.25.25.25Z"/>
    <path class="st0" d="M147.28,35.91c.14,0,.25-.11.25-.25v-2c0-.2-.28-.32-.43-.17-.04.04-.07.1-.07.17v2c0,.14.12.25.25.25Z"/>
    <path class="st0" d="M147.28,38.91c.14,0,.25-.11.25-.25v-2c0-.21-.28-.32-.43-.18-.04.05-.07.11-.07.18v2c0,.14.11.25.25.25Z"/>
    <path class="st0" d="M147.28,44.91c.14,0,.25-.11.25-.25v-2c0-.21-.28-.32-.43-.18-.04.05-.07.11-.07.18v2c0,.14.11.25.25.25Z"/>
    <path class="st0" d="M147.28,41.91c.14,0,.25-.11.25-.25v-2c0-.21-.28-.32-.43-.18-.04.05-.07.11-.07.18v2c0,.14.12.25.25.25Z"/>
    <path class="st0" d="M147.28,20.91c.14,0,.25-.11.25-.25v-2c0-.21-.28-.32-.43-.17-.04.04-.07.1-.07.17v2c0,.14.11.25.25.25Z"/>
    <path class="st0" d="M147.28,11.91c.14,0,.25-.11.25-.25v-2c0-.21-.28-.32-.42-.18-.05.05-.08.11-.08.18v2c0,.14.12.25.25.25Z"/>
    <path class="st0" d="M147.28,8.91h0c.13,0,.24-.11.24-.25v-2c0-.14-.11-.25-.25-.25-.06,0-.13.03-.18.07-.04.05-.07.11-.07.18v2c0,.14.12.25.25.25Z"/>
    <path class="st0" d="M147.28,5.91c.14,0,.25-.11.25-.25v-2c0-.2-.28-.32-.43-.17-.04.04-.07.1-.07.17v2c0,.14.11.25.25.25Z"/>
    <path class="st0" d="M147.28,17.91h0c.13,0,.24-.12.24-.25v-2c0-.21-.28-.32-.43-.18-.04.05-.07.11-.07.18v2c0,.14.12.25.25.25Z"/>
    <path class="st0" d="M147.28,47.91h0c.13,0,.24-.11.24-.25v-2c0-.21-.28-.32-.43-.18-.04.05-.07.11-.07.18v2c0,.14.12.25.25.25Z"/>
    <path class="st0" d="M147.28,23.91h0c.13,0,.24-.11.24-.25v-2c0-.21-.28-.32-.43-.18-.04.05-.07.11-.07.18v2c0,.14.12.25.25.25Z"/>
    <path class="st0" d="M147.28,14.91c.14,0,.25-.11.25-.25v-2c0-.21-.28-.32-.43-.18-.04.05-.07.11-.07.18v2c0,.14.11.25.25.25Z"/>
    <path class="st0" d="M147.28,26.91c.14,0,.25-.11.25-.25v-2c0-.21-.28-.32-.42-.18-.05.05-.08.11-.08.18v2c0,.14.12.25.25.25Z"/>
    <path class="st0" d="M147.28,74.91c.14,0,.25-.11.25-.25v-2c0-.21-.28-.32-.43-.17-.04.04-.07.1-.07.17v2c0,.14.11.25.25.25Z"/>
    <path class="st0" d="M147.28,77.91h0c.13,0,.24-.11.24-.25v-2c0-.21-.28-.32-.43-.18-.04.05-.07.11-.07.18v2c0,.14.12.25.25.25Z"/>
    <path class="st0" d="M147.28,71.91c.14,0,.25-.11.25-.25v-2c0-.21-.28-.32-.43-.18-.04.05-.07.11-.07.18v2c0,.14.12.25.25.25Z"/>
    <path class="st0" d="M147.28,83.91c.14,0,.25-.11.25-.25v-2c0-.21-.28-.32-.43-.18-.04.05-.07.11-.07.18v2c0,.14.11.25.25.25Z"/>
    <path class="st0" d="M147.28,80.91c.14,0,.25-.11.25-.25v-2c0-.2-.28-.32-.43-.17-.04.04-.07.11-.07.17v2c0,.14.12.25.25.25Z"/>
    <path class="st0" d="M147.28,65.91c.14,0,.25-.11.25-.25v-2c0-.2-.28-.32-.43-.17-.04.04-.07.1-.07.17v2c0,.14.12.25.25.25Z"/>
    <path class="st0" d="M147.28,68.91c.14,0,.25-.11.25-.25v-2c0-.21-.28-.32-.43-.18-.04.05-.07.11-.07.18v2c0,.14.11.25.25.25Z"/>
    <path class="st0" d="M147.28,56.91c.14,0,.25-.11.25-.25v-2c0-.21-.28-.32-.43-.18-.04.05-.07.11-.07.18v2c0,.14.12.25.25.25Z"/>
    <path class="st0" d="M147.28,62.91h0c.13,0,.24-.11.24-.25v-2c0-.21-.28-.32-.43-.18-.04.05-.07.11-.07.18v2c0,.14.12.25.25.25Z"/>
    <path class="st0" d="M147.28,53.91c.14,0,.25-.11.25-.25v-2c0-.21-.28-.32-.43-.18-.04.05-.07.11-.07.18v2c0,.14.11.25.25.25Z"/>
    <path class="st0" d="M147.28,50.91c.14,0,.25-.11.25-.25v-2c0-.21-.28-.32-.43-.18-.04.05-.07.11-.07.18v2c0,.14.12.25.25.25Z"/>
    <path class="st0" d="M147.53,165.66c0-.21-.28-.32-.43-.18-.04.05-.07.11-.07.18v.37c0,.13.12.25.25.25h0c.14-.01.25-.12.25-.26v-.36Z"/>
    <path class="st0" d="M147.28,59.91c.14,0,.25-.11.25-.25v-2c0-.21-.28-.32-.43-.17-.04.04-.07.1-.07.17v2c0,.14.11.25.25.25Z"/>
    <path class="st0" d="M137.27,44.91c.14,0,.25-.11.25-.25v-2c0-.14-.11-.25-.25-.25s-.25.11-.25.25v2c0,.07.02.13.07.17.05.05.11.08.18.08Z"/>
    <path class="st0" d="M137.27,41.91c.14,0,.25-.11.25-.25v-2c0-.14-.11-.25-.25-.25s-.25.11-.25.25v2c0,.07.02.13.07.18.05.04.11.07.18.07Z"/>
    <path class="st0" d="M137.27,38.91c.14,0,.25-.11.25-.25v-2c0-.14-.11-.25-.25-.25s-.25.11-.25.25v2c0,.06.02.13.07.17.05.05.11.08.18.08Z"/>
    <path class="st0" d="M137.27,47.91c.14,0,.25-.11.25-.25v-2c0-.14-.11-.25-.25-.25s-.25.11-.25.25v2c0,.13.11.25.25.25Z"/>
    <path class="st0" d="M137.27,50.91c.14,0,.25-.11.25-.25v-2c0-.14-.11-.25-.25-.25s-.25.11-.25.25v2c0,.07.02.13.07.17.05.05.11.08.18.08Z"/>
    <path class="st0" d="M137.27,56.91c.14,0,.25-.11.25-.25v-2c0-.14-.11-.25-.25-.25s-.25.11-.25.25v2c0,.07.02.13.07.18.05.04.11.07.18.07Z"/>
    <path class="st0" d="M137.27,59.91c.14,0,.25-.11.25-.25v-2c0-.14-.11-.25-.25-.25s-.25.11-.25.25v2c0,.14.11.25.25.25Z"/>
    <path class="st0" d="M137.27,53.91c.14,0,.25-.11.25-.25v-2c0-.14-.11-.25-.25-.25s-.25.11-.25.25v2c0,.07.02.13.07.17.05.05.11.08.18.08Z"/>
    <path class="st0" d="M137.27,35.91c.14,0,.25-.11.25-.25v-2c0-.14-.11-.25-.25-.25s-.25.11-.25.25v2c0,.07.02.13.07.17.05.05.11.08.18.08Z"/>
    <path class="st0" d="M137.27,62.91c.14,0,.25-.11.25-.25v-2c0-.14-.11-.25-.25-.25s-.25.11-.25.25v2c0,.14.11.25.25.25Z"/>
    <path class="st0" d="M137.27,14.91c.14,0,.25-.11.25-.25v-2c0-.14-.11-.25-.25-.25s-.25.11-.25.25v2c0,.07.02.13.07.17.05.05.11.08.18.08Z"/>
    <path class="st0" d="M137.27,11.91c.14,0,.25-.11.25-.25v-2c0-.14-.11-.25-.25-.25s-.25.11-.25.25v2c0,.07.02.13.07.18.05.04.11.07.18.07Z"/>
    <path class="st0" d="M137.27,17.91c.14,0,.25-.11.25-.25v-2c0-.14-.11-.25-.25-.25s-.25.11-.25.25v2c0,.13.11.25.25.25Z"/>
    <path class="st0" d="M137.27,5.91c.14,0,.25-.11.25-.25v-2c0-.14-.11-.25-.25-.25s-.25.11-.25.25v2c0,.07.02.13.07.17.05.05.11.08.18.08Z"/>
    <path class="st0" d="M137.27,23.91c.14,0,.25-.11.25-.25v-2c0-.14-.11-.25-.25-.25s-.25.11-.25.25v2c0,.13.11.25.25.25Z"/>
    <path class="st0" d="M137.27,26.91c.14,0,.25-.11.25-.25v-2c0-.14-.11-.25-.25-.25s-.25.11-.25.25v2c0,.07.02.13.07.18.05.04.11.07.18.07Z"/>
    <path class="st0" d="M137.27,29.91c.14,0,.25-.11.25-.25v-2c0-.14-.11-.25-.25-.25s-.25.11-.25.25v2c0,.07.02.13.07.17.05.05.11.08.18.08Z"/>
    <path class="st0" d="M137.27,20.91c.14,0,.25-.11.25-.25v-2c0-.14-.11-.25-.25-.25s-.25.11-.25.25v2c0,.07.02.13.07.17.05.05.11.08.18.08Z"/>
    <path class="st0" d="M137.27,32.91c.14,0,.25-.11.25-.25v-2c0-.14-.11-.25-.25-.25s-.25.11-.25.25v2c0,.13.11.25.25.25Z"/>
    <path class="st0" d="M137.27,8.91c.14,0,.25-.11.25-.25v-2c0-.14-.11-.25-.25-.25s-.25.11-.25.25v2c0,.07.03.13.07.18.05.04.11.07.18.07Z"/>
    <path class="st0" d="M137.27,131.91c.14,0,.25-.11.25-.25v-2c0-.14-.11-.25-.25-.25s-.25.11-.25.25v2c0,.14.11.25.25.25Z"/>
    <path class="st0" d="M137.27,134.91c.14,0,.25-.11.25-.25v-2c0-.14-.11-.25-.25-.25s-.25.11-.25.25v2c0,.14.11.25.25.25Z"/>
    <path class="st0" d="M137.27,128.91c.14,0,.25-.11.25-.25v-2c0-.14-.11-.25-.25-.25s-.25.11-.25.25v2c0,.14.11.25.25.25Z"/>
    <path class="st0" d="M137.27,137.91c.14,0,.25-.11.25-.25v-2c0-.14-.11-.25-.25-.25s-.25.11-.25.25v2c0,.14.11.25.25.25Z"/>
    <path class="st0" d="M137.27,140.91c.14,0,.25-.11.25-.25v-2c0-.14-.11-.25-.25-.25s-.25.11-.25.25v2c0,.14.11.25.25.25Z"/>
    <path class="st0" d="M137.27,119.91c.14,0,.25-.11.25-.25v-2c0-.14-.11-.25-.25-.25s-.25.11-.25.25v2c0,.14.11.25.25.25Z"/>
    <path class="st0" d="M137.27,125.91c.14,0,.25-.11.25-.25v-2c0-.14-.11-.25-.25-.25s-.25.11-.25.25v2c0,.14.11.25.25.25Z"/>
    <path class="st0" d="M137.27,122.91c.14,0,.25-.11.25-.25v-2c0-.14-.11-.25-.25-.25s-.25.11-.25.25v2c0,.14.11.25.25.25Z"/>
    <path class="st0" d="M137.27,165.41c-.14,0-.25.11-.25.25v.36c0,.14.11.25.25.26.14,0,.25-.12.25-.25v-.37c0-.14-.11-.25-.25-.25Z"/>
    <path class="st0" d="M137.27,116.91c.14,0,.25-.11.25-.25v-2c0-.14-.11-.25-.25-.25s-.25.11-.25.25v2c0,.14.11.25.25.25Z"/>
    <path class="st0" d="M137.52,156.66c0-.14-.11-.25-.25-.25s-.25.11-.25.25v2c0,.14.11.25.25.25s.25-.11.25-.25v-2Z"/>
    <path class="st0" d="M137.27,143.91c.14,0,.25-.11.25-.25v-2c0-.14-.11-.25-.25-.25s-.25.11-.25.25v2c0,.14.11.25.25.25Z"/>
    <path class="st0" d="M137.52,162.66c0-.14-.11-.25-.25-.25s-.25.11-.25.25v2c0,.13.11.25.25.25s.25-.11.25-.25v-2Z"/>
    <path class="st0" d="M137.52,159.66c0-.14-.11-.25-.25-.25s-.25.11-.25.25v2c0,.14.11.25.25.25s.25-.11.25-.25v-2Z"/>
    <path class="st0" d="M137.27,146.91c.14,0,.25-.11.25-.25v-2c0-.14-.11-.25-.25-.25s-.25.11-.25.25v2c0,.14.11.25.25.25Z"/>
    <path class="st0" d="M137.52,150.66c0-.14-.11-.25-.25-.25s-.25.11-.25.25v2c0,.14.11.25.25.25s.25-.11.25-.25v-2Z"/>
    <path class="st0" d="M137.52,153.66c0-.14-.11-.25-.25-.25s-.25.11-.25.25v2c0,.13.11.25.25.25s.25-.11.25-.25v-2Z"/>
    <path class="st0" d="M137.27,92.91c.14,0,.25-.11.25-.25v-2c0-.14-.11-.25-.25-.25s-.25.11-.25.25v2c0,.14.11.25.25.25Z"/>
    <path class="st0" d="M137.27,83.91c.14,0,.25-.11.25-.25v-2c0-.14-.11-.25-.25-.25s-.25.11-.25.25v2c0,.14.11.25.25.25Z"/>
    <path class="st0" d="M137.27,80.91c.14,0,.25-.11.25-.25v-2c0-.14-.11-.25-.25-.25s-.25.11-.25.25v2c0,.14.11.25.25.25Z"/>
    <path class="st0" d="M137.27,86.91c.14,0,.25-.11.25-.25v-2c0-.14-.11-.25-.25-.25s-.25.11-.25.25v2c0,.14.11.25.25.25Z"/>
    <path class="st0" d="M137.27,89.91c.14,0,.25-.11.25-.25v-2c0-.14-.11-.25-.25-.25s-.25.11-.25.25v2c0,.14.11.25.25.25Z"/>
    <path class="st0" d="M137.27,77.91c.14,0,.25-.11.25-.25v-2c0-.14-.11-.25-.25-.25s-.25.11-.25.25v2c0,.14.11.25.25.25Z"/>
    <path class="st0" d="M137.27,68.91c.14,0,.25-.11.25-.25v-2c0-.14-.11-.25-.25-.25s-.25.11-.25.25v2c0,.14.11.25.25.25Z"/>
    <path class="st0" d="M137.27,65.91c.14,0,.25-.11.25-.25v-2c0-.14-.11-.25-.25-.25s-.25.11-.25.25v2c0,.14.11.25.25.25Z"/>
    <path class="st0" d="M137.27,74.91c.14,0,.25-.11.25-.25v-2c0-.14-.11-.25-.25-.25s-.25.11-.25.25v2c0,.14.11.25.25.25Z"/>
    <path class="st0" d="M137.27,71.91c.14,0,.25-.11.25-.25v-2c0-.14-.11-.25-.25-.25s-.25.11-.25.25v2c0,.14.11.25.25.25Z"/>
    <path class="st0" d="M137.27,110.91c.14,0,.25-.11.25-.25v-2c0-.14-.11-.25-.25-.25s-.25.11-.25.25v2c0,.14.11.25.25.25Z"/>
    <path class="st0" d="M137.27,107.91c.14,0,.25-.11.25-.25v-2c0-.14-.11-.25-.25-.25s-.25.11-.25.25v2c0,.14.11.25.25.25Z"/>
    <path class="st0" d="M137.27,95.91c.14,0,.25-.11.25-.25v-2c0-.14-.11-.25-.25-.25s-.25.11-.25.25v2c0,.14.11.25.25.25Z"/>
    <path class="st0" d="M137.27,104.91c.14,0,.25-.11.25-.25v-2c0-.14-.11-.25-.25-.25s-.25.11-.25.25v2c0,.14.11.25.25.25Z"/>
    <path class="st0" d="M137.27,113.91c.14,0,.25-.11.25-.25v-2c0-.14-.11-.25-.25-.25s-.25.11-.25.25v2c0,.14.11.25.25.25Z"/>
    <path class="st0" d="M137.27,98.91c.14,0,.25-.11.25-.25v-2c0-.14-.11-.25-.25-.25s-.25.11-.25.25v2c0,.14.11.25.25.25Z"/>
    <path class="st0" d="M137.27,101.91c.14,0,.25-.11.25-.25v-2c0-.14-.11-.25-.25-.25s-.25.11-.25.25v2c0,.14.11.25.25.25Z"/>
    <path class="st0" d="M71.56,259.09h-.01c-.65-.34-1.22-.64-1.76-.93-.11-.07-.27-.01-.33.1-.03.06-.04.13-.02.19,0,.06.06.12.12.15.69.37,1.25.67,1.77.93.03.02.07.03.11.03.1,0,.18-.05.23-.13.02-.04.03-.08.02-.12,0-.09-.05-.18-.13-.22Z"/>
    <path class="st0" d="M251.27,230.63c-.52.52-.98.99-1.41,1.42-.09.09-.09.25,0,.35.05.05.11.07.18.07.06,0,.13-.02.18-.07.57-.57.99-1.01,1.38-1.41.01,0,.02-.01.02-.01h0c.04-.06.07-.12.06-.18,0-.07-.02-.13-.07-.18-.1-.09-.26-.09-.35,0Z"/>
    <path class="st0" d="M59.48,252.07c-.11-.07-.27-.04-.35.08-.07.11-.04.27.08.34.5.32,1.04.67,1.69,1.08.04.02.09.03.13.03.09,0,.17-.04.21-.11.03-.04.04-.09.04-.13,0-.09-.04-.17-.12-.22-.53-.33-1.08-.68-1.68-1.07Z"/>
    <path class="st0" d="M62.01,253.67c-.11-.07-.27-.03-.34.08-.04.06-.05.12-.03.19,0,.06.05.12.11.16.58.35,1.15.71,1.71,1.04.04.02.08.03.13.03.09,0,.17-.04.21-.12.03-.04.04-.08.04-.13,0-.08-.05-.17-.12-.21-.56-.33-1.13-.68-1.71-1.04Z"/>
    <path class="st0" d="M253.34,228.46s0,0,0,0c-.4.42-.83.88-1.37,1.44-.04.05-.07.11-.07.17,0,.07.03.13.08.18.04.05.11.07.17.07.07,0,.13-.02.18-.07.42-.44.86-.91,1.38-1.46.05-.05.07-.11.07-.18,0-.06-.03-.13-.08-.17-.1-.09-.26-.09-.35,0Z"/>
    <path class="st0" d="M102.25,270.86c-.75-.2-1.36-.36-1.92-.51-.14-.04-.28.04-.31.17-.02.06-.01.13.02.19s.09.1.15.12c.7.19,1.33.36,1.92.51h.02s.04,0,.06,0c.12,0,.21-.08.24-.19,0-.02,0-.04,0-.06,0-.11-.08-.21-.19-.24Z"/>
    <path class="st0" d="M68.92,257.68c-.65-.35-1.22-.67-1.75-.96-.12-.07-.28-.02-.34.09-.07.12-.02.27.1.34.63.36,1.27.71,1.75.97.03.02.07.03.12.03.09,0,.17-.05.22-.13.02-.03.03-.07.03-.12,0-.09-.05-.17-.13-.22Z"/>
    <path class="st0" d="M131.79,275.52c-.63-.04-1.28-.09-1.99-.14-.14,0-.26.09-.27.23,0,.07.02.13.06.18s.1.08.17.09c.64.05,1.31.09,1.99.13,0,0,.02,0,.02,0,.13,0,.25-.11.25-.24h0c0-.15-.11-.26-.24-.26Z"/>
    <path class="st0" d="M134.78,275.68c-.68-.04-1.35-.07-1.99-.11h-.02c-.13,0-.24.11-.25.24,0,.14.1.26.24.27.74.04,1.4.07,2,.09h.01c.13,0,.24-.1.25-.24h0c0-.14-.11-.25-.24-.25Z"/>
    <path class="st0" d="M255.37,226.25h0c-.43.48-.88.97-1.35,1.48-.05.05-.07.11-.07.18,0,.07.03.13.08.17.05.05.11.07.17.07.07,0,.14-.03.18-.08.49-.53.93-1.01,1.36-1.48.04-.04.06-.1.06-.16,0-.07-.02-.14-.08-.19-.1-.09-.26-.08-.35,0Z"/>
    <path class="st0" d="M242.57,238.86s-.01,0-.01,0c-.45.39-.94.81-1.5,1.3-.05.04-.09.1-.09.17,0,.06,0,.13.06.18.04.06.11.09.19.09.06,0,.11-.02.16-.06.55-.47,1.05-.9,1.52-1.31.05-.05.08-.12.08-.2,0-.06-.02-.11-.06-.15-.09-.11-.26-.12-.35-.03Z"/>
    <path class="st0" d="M51.28,246.38c-.58-.44-1.1-.83-1.59-1.21-.11-.08-.27-.06-.35.05-.04.05-.06.12-.05.18,0,.07.04.13.1.17.54.42,1.08.83,1.59,1.21.05.03.1.05.15.05.08,0,.16-.04.2-.1.03-.05.05-.1.05-.15,0-.08-.03-.15-.09-.2h-.01Z"/>
    <path class="st0" d="M240.29,240.81c-.47.41-.96.81-1.53,1.28-.05.04-.09.1-.09.17,0,.06,0,.13.05.18.05.06.12.09.2.09.05,0,.11-.02.15-.05.45-.37.92-.76,1.52-1.26,0,0,.02-.02.03-.02h0c.06-.06.09-.12.08-.2,0-.05-.02-.11-.05-.15-.09-.11-.25-.12-.36-.04Z"/>
    <path class="st0" d="M52.08,246.97c-.1-.08-.27-.05-.34.05-.09.11-.06.27.05.35.5.37,1.03.76,1.62,1.18.04.03.09.05.15.05.08,0,.15-.04.2-.11.03-.04.05-.1.05-.15,0-.08-.04-.15-.11-.2-.56-.4-1.1-.79-1.62-1.17Z"/>
    <path class="st0" d="M47.33,243.33c-.11-.09-.27-.07-.35.03-.09.12-.07.27.04.36.54.43,1.07.85,1.57,1.24.05.03.1.05.15.05.08,0,.16-.04.2-.1.03-.04.05-.09.05-.15.01-.07-.03-.15-.09-.2-.53-.41-1.06-.82-1.57-1.23Z"/>
    <path class="st0" d="M247,234.83c-.53.5-1,.94-1.46,1.36-.1.1-.11.25-.02.36.05.05.12.08.19.08.06,0,.12-.03.17-.07.57-.53,1.03-.96,1.46-1.37.05-.04.08-.11.08-.17,0-.07-.02-.13-.07-.18-.09-.1-.25-.1-.35,0Z"/>
    <path class="st0" d="M54.52,248.72c-.11-.08-.28-.05-.35.06-.08.11-.05.27.06.35l.1.07c.51.35,1.02.72,1.54,1.07.04.03.09.04.14.04.09,0,.16-.04.21-.1.03-.05.04-.09.04-.14,0-.09-.04-.16-.1-.21-.57-.39-1.12-.77-1.64-1.14Z"/>
    <path class="st0" d="M237.98,242.72h0c-.44.37-.92.75-1.55,1.25-.05.04-.08.09-.09.16s0,.13.05.19c.05.06.12.09.2.09.05,0,.11-.02.15-.05.48-.38.97-.77,1.57-1.25.05-.05.09-.12.09-.19,0-.06-.02-.12-.05-.16-.09-.11-.25-.13-.36-.04Z"/>
    <path class="st0" d="M244.8,236.87h0c-.45.42-.93.85-1.47,1.33-.05.05-.08.11-.09.18,0,.06.02.13.07.18.04.05.11.08.18.08.06,0,.12-.02.17-.06.47-.42.96-.86,1.49-1.34.05-.05.08-.11.08-.18,0-.06-.02-.13-.07-.18-.08-.09-.25-.1-.35,0Z"/>
    <path class="st0" d="M58.64,251.53c-.59-.39-1.14-.76-1.66-1.11-.11-.08-.27-.04-.35.07-.07.11-.04.27.07.35.55.37,1.11.74,1.64,1.09.01,0,.01,0,.02,0l.02-.02v.02s0,.01,0,.01h0s.08.03.13.03c.08,0,.16-.04.21-.11.02-.04.04-.09.04-.14,0-.08-.04-.15-.11-.2h0Z"/>
    <path class="st0" d="M249.15,232.75c-.46.45-.94.92-1.43,1.39-.1.1-.1.25,0,.35.05.05.11.08.18.08s.13-.02.18-.07c.47-.45.95-.92,1.43-1.4.05-.04.08-.11.08-.17,0-.07-.03-.13-.07-.18-.1-.1-.26-.1-.36,0Z"/>
    <path class="st0" d="M93.63,268.34c-.61-.2-1.25-.41-1.89-.63-.13-.05-.28.03-.32.16s.03.27.16.31c.62.21,1.25.43,1.9.63.02.01.05,0,.08.02.1,0,.2-.07.23-.17,0-.03,0-.05,0-.08.01-.11-.06-.21-.17-.24Z"/>
    <path class="st0" d="M268.21,209.67s0,0,0,0c-.32.52-.7,1.08-1.1,1.67-.03.06-.05.13-.04.19.02.07.06.12.11.16.04.03.09.04.14.04.08,0,.16-.04.21-.11.39-.58.76-1.14,1.11-1.67.07-.12.04-.28-.08-.35-.11-.07-.26-.04-.34.06Z"/>
    <path class="st0" d="M116.91,273.9c-.74-.12-1.38-.22-1.97-.32-.14-.02-.27.07-.29.2,0,.07,0,.13.04.19.04.05.1.09.16.1.64.11,1.28.21,1.98.32h.04c.12,0,.23-.08.25-.2v-.04c0-.13-.09-.23-.21-.25Z"/>
    <path class="st0" d="M266.54,212.18c-.4.58-.77,1.12-1.14,1.64-.04.05-.06.12-.05.18.01.07.05.13.1.17.05.03.1.04.15.04.08,0,.15-.03.2-.1.4-.56.78-1.11,1.14-1.62,0-.01.01-.02.02-.03h0s.04-.09.04-.14c0-.08-.04-.15-.11-.2-.11-.08-.27-.05-.35.06Z"/>
    <path class="st0" d="M119.88,274.34h0c-.65-.09-1.31-.19-1.97-.29-.15-.03-.27.07-.29.21-.02.13.07.26.21.29.6.09,1.24.18,1.96.28h.06c.12,0,.23-.09.24-.21,0-.02,0-.03,0-.04,0-.12-.09-.22-.21-.24Z"/>
    <path class="st0" d="M264.82,214.62h-.01c-.37.53-.77,1.07-1.18,1.62-.04.05-.06.12-.05.18,0,.07.04.13.09.17.05.03.1.05.15.05.08,0,.16-.04.21-.1.39-.53.79-1.07,1.17-1.59,0-.01,0-.02.02-.02v-.02s.04-.09.04-.14c0-.08-.04-.15-.1-.2-.1-.07-.26-.05-.34.05Z"/>
    <path class="st0" d="M90.79,267.38c-.59-.2-1.21-.42-1.88-.66-.12-.05-.27.02-.32.14-.04.13.02.28.15.32.6.22,1.24.45,1.89.68.02,0,.05,0,.08,0,.11,0,.2-.07.24-.17.01-.03.01-.06.01-.09,0-.1-.07-.19-.17-.23Z"/>
    <path class="st0" d="M99.36,270.08h0c-.61-.18-1.25-.36-1.9-.56-.14-.03-.28.04-.31.17-.02.07-.02.13,0,.19.03.06.09.1.15.12.65.2,1.3.38,1.93.56.02.01.04.01.06.01.12,0,.22-.08.25-.18,0-.02,0-.04,0-.07,0-.11-.08-.21-.19-.24Z"/>
    <path class="st0" d="M108.08,272.25c-.7-.15-1.34-.3-1.95-.44-.13-.03-.27.06-.3.19-.01.06,0,.13.03.19.04.05.09.09.16.11.64.15,1.29.3,1.95.44h.05c.12,0,.22-.08.25-.19,0-.02,0-.03,0-.05,0-.12-.09-.23-.2-.25Z"/>
    <path class="st0" d="M105.16,271.58c-.69-.16-1.33-.32-1.94-.47-.13-.03-.27.05-.3.18-.04.13.04.27.18.3.6.16,1.24.31,1.94.48.02,0,.04,0,.06,0,.12,0,.22-.08.24-.2.01-.02.01-.04.01-.06,0-.11-.08-.21-.19-.24Z"/>
    <path class="st0" d="M113.95,273.41c-.75-.14-1.38-.25-1.96-.36-.13-.04-.27.06-.29.2-.03.13.06.26.2.29.59.11,1.24.23,1.97.36h.04c.12,0,.22-.08.25-.2v-.04c0-.13-.08-.23-.21-.25Z"/>
    <path class="st0" d="M96.49,269.24c-.69-.21-1.31-.4-1.91-.59-.13-.05-.27.03-.31.16-.02.06-.02.13,0,.19.03.06.09.1.15.12.65.21,1.29.41,1.91.6.03,0,.05,0,.07,0,.11,0,.21-.07.25-.18,0-.02,0-.05,0-.07,0-.11-.08-.21-.18-.24Z"/>
    <path class="st0" d="M111.01,272.86c-.61-.12-1.25-.25-1.95-.4-.14-.03-.27.06-.3.19-.03.14.06.27.19.3.67.14,1.34.27,1.96.4h.05c.12,0,.22-.08.25-.2v-.05c0-.12-.08-.22-.2-.24Z"/>
    <path class="st0" d="M76.93,261.74c-.67-.31-1.26-.6-1.8-.86-.12-.06-.28,0-.34.12-.06.13-.01.27.12.33.65.32,1.24.6,1.81.86.03.02.07.03.11.03.09,0,.18-.06.22-.15.02-.03.03-.07.03-.1-.01-.1-.06-.19-.15-.23Z"/>
    <path class="st0" d="M257.36,224s-.01,0-.01,0c-.43.5-.88,1.01-1.32,1.5-.09.1-.08.26.02.36.05.04.11.06.17.06.07,0,.14-.03.19-.09.46-.52.89-1,1.29-1.47,0,0,.02-.02.03-.03h.01s.05-.11.05-.16c0-.08-.03-.15-.09-.19-.09-.09-.25-.08-.34,0Z"/>
    <path class="st0" d="M125.82,275.04c-.73-.07-1.38-.14-1.99-.21-.13-.02-.26.08-.27.22-.01.07,0,.13.05.18.04.06.1.09.17.09.57.07,1.19.13,1.99.22h.02c.13,0,.24-.1.25-.23,0,0,0-.02,0-.03,0-.12-.1-.23-.23-.24Z"/>
    <path class="st0" d="M82.41,264.17c-.62-.26-1.24-.52-1.84-.78-.12-.06-.28,0-.33.13-.05.12,0,.27.13.33.6.26,1.22.52,1.84.78.04,0,.07.02.1.02.1,0,.19-.06.23-.15,0-.03.02-.07.02-.1,0-.1-.06-.19-.15-.23Z"/>
    <path class="st0" d="M79.66,262.98c-.56-.24-1.16-.51-1.82-.82-.13-.05-.28,0-.33.12-.03.07-.04.13,0,.2.02.06.07.11.13.14.57.26,1.14.52,1.82.82.04.02.07.02.1.02.1,0,.19-.06.23-.15.02-.03.03-.06.03-.09,0-.11-.06-.2-.15-.24Z"/>
    <path class="st0" d="M74.23,260.44c-.58-.28-1.18-.58-1.78-.89-.12-.06-.28,0-.34.11s0,.27.11.33c.53.27,1.1.56,1.79.9.04.02.07.03.11.03.1,0,.18-.05.23-.14,0-.03.02-.07.02-.11,0-.1-.05-.18-.14-.23Z"/>
    <path class="st0" d="M263.02,217.04c-.42.55-.82,1.06-1.22,1.58-.04.05-.06.11-.05.18s.04.13.09.17c.05.03.1.05.16.05.08,0,.15-.03.2-.09.37-.48.74-.96,1.22-1.59.03-.05.05-.1.05-.15,0-.08-.03-.16-.1-.2-.1-.08-.27-.06-.35.05Z"/>
    <path class="st0" d="M128.8,275.3c-.69-.05-1.35-.11-1.99-.17-.14-.02-.26.09-.27.23-.01.06,0,.13.06.18.04.05.1.08.17.09.59.06,1.23.11,1.99.17h.02c.13,0,.24-.1.25-.23v-.02c0-.13-.1-.24-.23-.25Z"/>
    <path class="st0" d="M122.84,274.71h0c-.76-.09-1.38-.17-1.97-.24-.14-.02-.26.08-.28.21-.02.14.08.26.22.29.65.08,1.32.16,1.98.24h.03c.13,0,.24-.09.25-.22v-.02c0-.13-.09-.24-.22-.26Z"/>
    <path class="st0" d="M87.98,266.37c-.63-.23-1.26-.47-1.87-.71-.13-.04-.28.02-.32.14-.03.07-.03.13,0,.2.03.06.08.1.14.13.57.22,1.18.45,1.87.71.03,0,.06,0,.09,0,.1,0,.2-.06.23-.16,0-.03.02-.06.02-.08,0-.11-.07-.2-.16-.24Z"/>
    <path class="st0" d="M261.18,219.4h0c-.44.55-.84,1.06-1.25,1.55-.04.06-.06.12-.06.19,0,.06.04.12.09.17.04.03.1.05.16.05.07,0,.14-.03.19-.09.41-.49.82-1,1.26-1.56.04-.04.06-.1.06-.16,0-.07-.04-.14-.1-.19-.1-.08-.27-.06-.35.04Z"/>
    <path class="st0" d="M85.18,265.3c-.66-.26-1.27-.51-1.85-.75-.13-.05-.28,0-.33.14-.02.06-.02.13,0,.19.03.06.08.11.14.14.61.25,1.24.5,1.86.74.03,0,.06.02.09.02.1,0,.19-.06.23-.16.01-.02.02-.05.02-.08,0-.11-.06-.2-.16-.24Z"/>
    <path class="st0" d="M259.29,221.73c-.41.49-.84,1-1.29,1.52-.09.11-.07.27.03.36.05.03.1.06.16.06.08,0,.15-.04.19-.09.53-.62.93-1.09,1.3-1.53.03-.05.05-.11.05-.16,0-.08-.03-.15-.09-.2-.1-.08-.27-.07-.35.04Z"/>
    <path class="st0" d="M66.3,256.22c-.58-.33-1.16-.67-1.72-1-.12-.07-.28-.03-.35.09s-.03.27.09.34c.63.37,1.18.69,1.71.99t.02.02h.01s.08.03.12.03c.09,0,.17-.05.22-.13.02-.03.03-.07.03-.11,0-.09-.05-.17-.12-.22h-.01Z"/>
    <path class="st0" d="M179.37,271.59c-.67.16-1.32.31-1.94.45-.07,0-.12.05-.16.11-.04.06-.05.12-.03.19.03.11.12.19.24.19h.06c.61-.14,1.25-.29,1.95-.45.11-.03.19-.13.19-.24,0-.03,0-.05,0-.07-.03-.13-.18-.21-.3-.18Z"/>
    <path class="st0" d="M176.51,272.25h-.06c-.69.15-1.33.29-1.95.42-.07,0-.12.05-.16.1-.04.06-.05.12-.04.19.03.12.13.2.25.2h.05c.7-.15,1.32-.28,1.96-.42.11-.02.2-.13.2-.24,0-.02,0-.04,0-.05-.03-.12-.13-.2-.24-.2Z"/>
    <path class="st0" d="M190.9,268.35c-.64.21-1.28.41-1.9.6-.07.02-.12.07-.15.13-.03.06-.04.12-.02.19.03.1.13.17.24.17.03,0,.05,0,.08,0,.67-.21,1.3-.41,1.9-.61.11-.03.18-.13.18-.24,0-.02,0-.04-.02-.07-.04-.13-.18-.2-.31-.16Z"/>
    <path class="st0" d="M182.28,270.87h-.01c-.69.18-1.32.34-1.93.49-.06,0-.12.05-.15.11-.04.05-.05.12-.03.19.02.11.12.19.24.19.02,0,.04,0,.06,0,.58-.14,1.2-.3,1.94-.49h0c.1-.03.18-.13.18-.24,0-.02,0-.04,0-.06-.03-.13-.17-.22-.3-.18Z"/>
    <path class="st0" d="M188.04,269.25c-.62.18-1.26.37-1.91.56-.07.02-.12.06-.15.12-.04.06-.04.13-.02.19.03.11.12.18.24.18.02,0,.04,0,.07,0,.6-.17,1.23-.36,1.92-.56.1-.04.17-.13.17-.24,0-.03,0-.06-.01-.08-.03-.12-.18-.2-.31-.16Z"/>
    <path class="st0" d="M185.17,270.08c-.57.16-1.24.35-1.93.53-.06.02-.12.06-.15.12-.03.06-.04.12-.02.19.03.11.12.18.24.18h.06c.68-.18,1.35-.37,1.92-.53h0s0,0,0-.01c.11-.03.18-.13.18-.24,0-.02-.01-.04-.01-.06-.04-.13-.18-.21-.31-.18Z"/>
    <path class="st0" d="M173.52,272.86c-.59.12-1.28.25-1.96.37-.14.03-.23.16-.2.3.02.11.13.2.25.2h.04c.59-.11,1.22-.23,1.97-.38.11-.02.2-.12.2-.24,0-.02,0-.03-.01-.05-.02-.13-.16-.23-.29-.2Z"/>
    <path class="st0" d="M161.69,274.72c-.6.07-1.23.14-1.98.22-.07,0-.13.04-.17.09-.05.05-.07.11-.06.18.02.13.12.23.25.23.01,0,.02,0,.03,0,.58-.06,1.19-.12,1.99-.22.12,0,.22-.12.22-.25v-.02c-.02-.14-.14-.24-.28-.22Z"/>
    <path class="st0" d="M158.71,275.04c-.79.08-1.41.13-1.99.18-.14,0-.24.13-.22.27,0,.13.12.23.25.23h.02c.58-.05,1.19-.11,1.99-.18.13-.02.23-.12.23-.25v-.02h0c-.02-.14-.14-.25-.28-.23Z"/>
    <path class="st0" d="M170.58,273.41c-.7.12-1.35.23-1.97.34-.07,0-.12.04-.16.09-.04.06-.06.12-.05.19.02.12.13.21.25.21h.04c.64-.1,1.3-.22,1.97-.34.12-.02.21-.12.21-.25v-.04c-.03-.13-.16-.22-.29-.2Z"/>
    <path class="st0" d="M164.66,274.34c-.64.09-1.28.17-1.98.26-.06,0-.12.04-.16.09-.05.05-.07.12-.06.18.02.13.13.22.25.22h.03c.69-.08,1.36-.17,1.98-.26h0c.12-.02.21-.12.21-.24v-.04c-.02-.13-.15-.22-.28-.21Z"/>
    <path class="st0" d="M167.63,273.9h0c-.71.11-1.35.21-1.97.3-.07,0-.13.04-.17.1-.04.05-.05.12-.04.18.01.12.12.22.24.22h.04c.72-.11,1.42-.22,1.95-.3,0,0,.03,0,.04,0,.12-.02.2-.12.2-.24v-.04c-.02-.13-.14-.23-.28-.21Z"/>
    <path class="st0" d="M155.75,275.3s0,0-.02,0c-.69.05-1.36.1-1.99.14-.07,0-.13.04-.17.09-.05.05-.07.11-.06.18,0,.13.11.23.25.23h0c.64-.04,1.31-.09,2-.15.13,0,.23-.11.23-.24v-.02c0-.13-.12-.24-.25-.24Z"/>
    <path class="st0" d="M218.23,256.24c-.64.36-1.21.68-1.74.98-.06.03-.1.08-.12.14-.02.07,0,.14.02.2.04.08.13.12.22.12.04,0,.08,0,.12-.03.67-.37,1.22-.68,1.75-.98.08-.04.12-.13.12-.22,0-.04,0-.08-.03-.12-.07-.11-.23-.16-.34-.09Z"/>
    <path class="st0" d="M215.61,257.7c-.59.32-1.18.64-1.75.94-.06.03-.11.08-.13.15-.02.06,0,.13.02.19.04.08.13.13.22.13.04,0,.08-.01.12-.03.61-.32,1.2-.64,1.76-.94.08-.05.13-.13.13-.22,0-.05,0-.09-.03-.12-.06-.12-.22-.17-.34-.1Z"/>
    <path class="st0" d="M212.97,259.1c-.58.3-1.17.61-1.78.91-.12.06-.17.21-.11.34.04.08.13.13.22.13.04,0,.08,0,.12-.02.66-.33,1.24-.63,1.78-.91.08-.04.13-.13.14-.22,0-.04,0-.08-.03-.12-.06-.12-.22-.17-.34-.11Z"/>
    <path class="st0" d="M210.3,260.46c-.64.31-1.23.6-1.8.87-.06.03-.1.08-.13.14-.02.06-.02.13,0,.19.05.09.13.14.23.14.04,0,.07,0,.11-.02.57-.27,1.15-.56,1.8-.87.08-.05.14-.14.14-.23,0-.04,0-.08-.03-.11-.06-.12-.21-.17-.33-.11Z"/>
    <path class="st0" d="M223.37,253.16c-.56.35-1.13.7-1.7,1.05-.06.03-.1.09-.11.15-.02.07,0,.13.03.19.04.08.12.12.21.12.05,0,.09,0,.13-.03.57-.35,1.14-.71,1.7-1.06.08-.04.12-.12.12-.21,0-.05-.02-.09-.04-.13-.07-.12-.23-.15-.34-.08Z"/>
    <path class="st0" d="M220.81,254.72c-.49.3-1.02.61-1.72,1.02-.05.03-.09.08-.11.15-.02.06,0,.13.02.19.05.08.13.12.22.12.04,0,.09-.01.12-.03.58-.33,1.16-.68,1.73-1.02.08-.04.12-.12.12-.21,0-.05,0-.09-.03-.13-.07-.11-.23-.15-.35-.09Z"/>
    <path class="st0" d="M199.35,265.31h0c-.59.24-1.21.48-1.85.72-.06.02-.11.07-.14.13-.03.06-.03.13,0,.19.04.1.14.16.24.16.03,0,.06,0,.09,0,.63-.25,1.26-.49,1.87-.73.09-.03.15-.12.15-.22,0-.04,0-.07-.02-.1-.04-.13-.19-.19-.32-.14Z"/>
    <path class="st0" d="M193.74,267.39c-.63.22-1.25.43-1.89.65-.07.02-.12.06-.15.12-.03.06-.03.13-.01.19.03.1.13.17.24.17.02,0,.05,0,.07,0,.67-.22,1.33-.45,1.89-.64.01,0,.02,0,.02,0,.09-.04.16-.13.16-.23,0-.03-.01-.05-.01-.08-.05-.13-.19-.2-.32-.16Z"/>
    <path class="st0" d="M207.61,261.75h-.01c-.67.32-1.26.59-1.81.84-.07.02-.11.07-.13.14-.03.06-.03.13,0,.19.04.09.13.14.23.14.04,0,.07,0,.1-.02.63-.28,1.24-.56,1.82-.83.09-.04.14-.13.14-.23,0-.03,0-.07-.02-.1-.05-.12-.2-.18-.32-.13Z"/>
    <path class="st0" d="M196.56,266.38c-.67.25-1.33.48-1.88.68-.06.02-.12.07-.14.13-.03.06-.04.13,0,.19.03.1.13.17.23.17.03,0,.06,0,.09-.02.69-.24,1.3-.47,1.88-.68.1-.04.16-.13.16-.24,0-.03,0-.06,0-.08-.05-.13-.2-.2-.32-.15Z"/>
    <path class="st0" d="M202.12,264.18h0c-.59.25-1.21.51-1.83.76-.06.02-.11.07-.14.13-.02.06-.03.13,0,.19.04.1.13.16.23.16.03,0,.06,0,.09-.02.54-.21,1.13-.46,1.86-.76.09-.04.15-.13.15-.23,0-.03,0-.07-.02-.1-.05-.12-.2-.18-.33-.13Z"/>
    <path class="st0" d="M235.63,244.58c-.57.44-1.09.84-1.58,1.21-.05.04-.09.1-.1.17-.01.06,0,.13.05.18.05.07.12.1.2.1.05,0,.11-.01.15-.05.58-.43,1.1-.83,1.59-1.22.06-.04.1-.12.1-.2,0-.05-.02-.1-.05-.15-.09-.1-.25-.12-.36-.04Z"/>
    <path class="st0" d="M204.87,262.99h0c-.54.25-1.12.5-1.83.8-.06.03-.11.08-.13.14-.02.06-.02.13,0,.19.04.09.13.15.23.15.04,0,.07,0,.1-.02.67-.29,1.27-.55,1.84-.8.09-.04.15-.13.15-.23,0-.03,0-.07-.03-.1-.05-.12-.2-.18-.33-.13Z"/>
    <path class="st0" d="M41.97,238.84c-.49-.42-.99-.86-1.5-1.32-.1-.09-.26-.08-.35.02-.04.05-.07.11-.06.18,0,.06.03.12.08.17.53.48,1.02.91,1.5,1.33.04.04.1.06.16.06.07,0,.14-.03.19-.08.04-.05.06-.1.06-.16,0-.07-.02-.14-.08-.19h0Z"/>
    <path class="st0" d="M140.77,275.83c-.75,0-1.4,0-2-.03-.14,0-.25.11-.25.25-.01.13.1.25.24.25.68.02,1.35.03,2,.03h.01c.13,0,.25-.11.25-.24,0-.14-.11-.26-.25-.26Z"/>
    <path class="st0" d="M33.97,231.32c-.1-.1-.26-.1-.36-.01-.09.1-.1.26,0,.36.55.55,1,1,1.42,1.41.05.05.11.07.18.07s.13-.02.17-.07c.05-.05.08-.11.08-.18,0-.06-.03-.13-.08-.17-.41-.41-.85-.84-1.41-1.41Z"/>
    <path class="st0" d="M42.72,239.5c-.1-.09-.26-.07-.35.02-.05.05-.07.12-.06.18,0,.07.03.13.08.18.5.43,1.01.86,1.51,1.28,0,0,.01,0,.02.02h.01s.09.06.15.06c.07,0,.14-.04.19-.09.04-.05.06-.1.06-.16,0-.08-.03-.15-.09-.19-.52-.44-1.03-.88-1.52-1.3Z"/>
    <path class="st0" d="M38.26,235.49c-.09-.09-.26-.08-.35,0-.09.1-.09.26,0,.36.47.44.97.9,1.48,1.36.04.04.1.06.16.06.07,0,.14-.03.19-.08.04-.05.07-.11.06-.18,0-.07-.03-.13-.08-.17-.49-.45-.99-.91-1.47-1.36Z"/>
    <path class="st0" d="M37.53,234.8c-.52-.49-.99-.94-1.43-1.37-.1-.1-.26-.09-.36,0-.09.1-.09.26.01.36.39.37.91.87,1.44,1.38.05.05.11.07.17.07.07,0,.14-.03.19-.08.04-.05.07-.11.07-.18-.01-.06-.03-.13-.08-.17h-.01Z"/>
    <path class="st0" d="M137.77,275.78c-.6-.02-1.3-.04-1.99-.06h0c-.14,0-.25.1-.25.24-.01.14.1.25.24.26.64.02,1.31.04,2,.06h.01c.13,0,.24-.11.25-.24,0-.14-.11-.26-.25-.26Z"/>
    <path class="st0" d="M233.26,246.39h0c-.62.46-1.13.84-1.61,1.18-.05.04-.09.1-.1.17,0,.07,0,.13.04.19.05.06.13.1.21.1.05,0,.1-.02.14-.05.49-.35,1.06-.77,1.62-1.19.06-.04.1-.12.1-.2,0-.05-.02-.1-.05-.15-.08-.1-.24-.13-.34-.05Z"/>
    <path class="st0" d="M230.84,248.15h0c-.51.37-1.06.76-1.63,1.16-.11.08-.14.23-.06.35.04.06.12.1.2.1.05,0,.1,0,.14-.04.5-.35,1.02-.71,1.64-1.15.07-.05.1-.13.1-.2,0-.06,0-.11-.04-.15-.08-.11-.24-.14-.34-.07Z"/>
    <path class="st0" d="M46.54,242.7c-.55-.45-1.05-.86-1.53-1.26-.11-.09-.27-.07-.35.03-.09.1-.08.26.03.35.52.44,1.05.87,1.55,1.27.04.04.1.06.15.06.08,0,.15-.04.2-.1.03-.04.05-.1.05-.16,0-.07-.03-.14-.09-.19h0Z"/>
    <path class="st0" d="M225.89,251.54s0,0,0,0c-.66.43-1.18.76-1.67,1.08-.06.03-.1.09-.11.15,0,.07,0,.13.03.19.05.07.13.12.21.12.05,0,.1-.02.14-.04.6-.39,1.19-.77,1.68-1.09.07-.05.11-.12.12-.2,0-.05-.02-.1-.04-.15-.08-.11-.24-.14-.35-.07Z"/>
    <path class="st0" d="M228.38,249.87h0c-.61.42-1.12.77-1.65,1.12-.05.04-.09.09-.11.16-.01.07,0,.13.04.19.05.07.13.11.21.11.05,0,.1-.02.14-.04.54-.36,1.1-.74,1.66-1.12.07-.05.11-.13.11-.21,0-.05-.02-.1-.05-.14-.07-.11-.23-.14-.34-.07Z"/>
    <path class="st0" d="M152.76,275.52h-.02c-.69.04-1.35.08-1.99.11-.07,0-.13.03-.17.08-.05.05-.07.11-.07.18,0,.13.12.24.25.24h0c.66-.03,1.32-.07,1.97-.11.02,0,.03,0,.05,0,.12,0,.22-.12.22-.24v-.02c0-.13-.13-.26-.25-.23Z"/>
    <path class="st0" d="M19.73,214.6c-.39-.53-.78-1.08-1.16-1.62-.08-.11-.24-.14-.35-.06-.06.03-.09.09-.1.16-.02.06,0,.13.04.18.4.58.78,1.11,1.15,1.62,0,0,0,0,0,.02,0,0,.01,0,.01.01.04.06.12.09.19.09.06,0,.11-.02.15-.05.06-.04.1-.11.1-.19,0-.05-.01-.1-.04-.15h0Z"/>
    <path class="st0" d="M17.99,212.15c-.37-.55-.74-1.09-1.11-1.65-.07-.11-.24-.15-.35-.07-.11.07-.14.23-.07.35.39.57.75,1.12,1.12,1.66.05.07.13.11.21.11.05,0,.1-.02.14-.05.07-.05.11-.12.11-.21,0-.05-.01-.09-.04-.14h-.01Z"/>
    <path class="st0" d="M143.76,275.83c-.46,0-.94,0-1.48,0h-.52c-.13,0-.24.11-.24.25s.11.25.25.25h.51c.5,0,.99,0,1.48,0,.06,0,.14-.02.18-.07.05-.05.08-.11.08-.18,0-.14-.12-.25-.26-.25Z"/>
    <path class="st0" d="M23.35,219.38c-.38-.48-.78-.99-1.23-1.58-.08-.1-.24-.12-.35-.04s-.13.24-.05.35c.38.49.79,1,1.24,1.58.05.06.12.09.2.09.05,0,.11-.02.15-.05.06-.05.1-.12.1-.19,0-.06-.02-.11-.05-.16h0Z"/>
    <path class="st0" d="M149.76,275.68h0c-.68.03-1.35.05-1.99.07-.07,0-.13.03-.18.08-.04.05-.07.11-.07.18,0,.13.12.24.26.24.64-.02,1.29-.04,2-.07.14,0,.24-.12.24-.25v-.02c0-.13-.11-.23-.25-.23Z"/>
    <path class="st0" d="M146.77,275.78h0c-.63.02-1.28.03-2,.04-.07,0-.13.03-.18.08-.04.04-.07.11-.06.17,0,.14.11.25.25.25.76-.01,1.4-.02,2-.04.14,0,.25-.12.25-.26,0-.13-.12-.24-.25-.24Z"/>
    <path class="st0" d="M20.32,215.41c-.08-.1-.25-.13-.35-.05-.06.04-.09.09-.1.16-.01.07,0,.13.04.19.37.5.76,1.02,1.21,1.6.04.07.12.1.19.1.06,0,.11-.02.16-.05.06-.05.1-.12.1-.2,0-.05-.02-.1-.06-.15-.45-.59-.84-1.11-1.19-1.6Z"/>
    <path class="st0" d="M29.84,226.97c-.09-.09-.26-.1-.35,0-.05.04-.08.1-.09.17,0,.07.02.13.07.18.44.48.9.98,1.36,1.47.05.05.11.08.18.08s.13-.02.17-.07c.05-.04.08-.1.08-.17.01-.07-.02-.13-.06-.18-.48-.51-.94-1-1.36-1.47Z"/>
    <path class="st0" d="M31.88,229.16c-.09-.09-.25-.1-.35,0-.1.09-.11.25,0,.35.5.52.95,1,1.39,1.44.05.05.11.08.18.08s.13-.03.17-.07c.05-.05.08-.11.08-.18s-.03-.13-.07-.18c-.44-.45-.9-.92-1.39-1.44Z"/>
    <path class="st0" d="M23.98,220.16c-.08-.1-.25-.12-.35-.04-.05.04-.09.1-.09.17-.01.06,0,.13.05.18.4.5.83,1.02,1.27,1.55.05.06.12.09.19.09.06,0,.12-.02.16-.06.06-.04.09-.12.09-.19,0-.06-.02-.11-.06-.16-.44-.54-.87-1.06-1.26-1.54Z"/>
    <path class="st0" d="M27.18,223.99c-.41-.47-.83-.97-1.29-1.52-.09-.1-.25-.12-.35-.03-.06.04-.09.1-.09.17,0,.06.01.13.05.18.39.46.84.98,1.29,1.5,0,0,0,.02.02.03.05.05.12.08.19.08.06,0,.11-.02.16-.06.05-.05.09-.12.08-.19,0-.06-.02-.11-.05-.15,0,0,0,0,0,0Z"/>
    <path class="st0" d="M27.84,224.74c-.09-.1-.26-.11-.35-.02-.05.04-.08.1-.09.17,0,.06.02.13.06.18.49.55.93,1.04,1.34,1.5.04.05.11.08.18.08s.12-.02.17-.06c.05-.05.09-.12.08-.2,0-.06-.02-.11-.06-.16-.43-.47-.84-.94-1.33-1.49Z"/>
  </g>
  <path class="st2" d="M133.68,263.82c-32.89-16.97-60.01-31.29-94.04-54.95-5.43-3.77-10.05-7.16-13.98-10.2-21.38-16.54-22.28-22.94-22.28-26.83,0-4.62,0-9.08,6.01-21.8,6.01-12.72,4.89-23.19,21.09-62.04,12.02-31.3,31.03-43.32,55.9-60.65C111.25,10.02,130.25,3.31,142.28,3.31"/>
  <path class="st2" d="M125.09,245.63s-.01,0-.01-.01c-34.15-17.6-46.12-14.63-81.13-38.95-35-24.31-36.8-30.21-36.8-34.82,0-13.13,16.24-12.02,41.44-11.08,11.75.44,26.96,2.11,41.91,4.09,18.92,2.52,38.11,5.55,51.78,5.55v52.17s-30.28,0-30.28,0"/>
  <path class="st2" d="M140.09,272.8c0-2.24,6.99-6.78,7.98-7.55,30.42-23.5,61.84-32.07,96.85-56.38,5.43-3.77,10.05-7.16,13.98-10.2,21.38-16.54,22.27-22.94,22.27-26.83,0-4.62,0-9.08-6.01-21.8-6-12.72-4.89-23.19-21.09-62.04-12.02-31.3-31.03-43.32-55.89-60.65-24.88-17.33-43.88-24.04-55.9-24.04v162.94c-25.15,0-68.5-8.17-95.86-9.5-31.51-1.54-43.04,1.96-43.04,15.09"/>
  <path class="st2" d="M142.28,170.41c13.67,0,32.86-3.04,51.78-5.55,14.95-1.98,30.15-3.65,41.91-4.09,25.21-.94,41.44-2.06,41.44,11.08,0,4.61-1.8,10.51-36.8,34.82-35.01,24.32-46.98,21.35-81.13,38.95,0,.01-.01.01-.01.01"/>
  <path class="st2" d="M90.69,164.87c2.96,10.85,8.54,29.93,14.7,43.86,8.93,20.22,19.37,36.38,19.69,36.89"/>
  <path class="st2" d="M159.47,245.62c.32-.5,10.76-16.67,19.69-36.89,6.16-13.93,11.74-33.01,14.7-43.86"/>
</svg>