<?xml version="1.0" encoding="UTF-8"?>
<svg id="Livello_1" xmlns="http://www.w3.org/2000/svg" version="1.1" viewBox="0 0 235.77 294.09">
  <!-- Generator: Adobe Illustrator 29.8.1, SVG Export Plug-In . SVG Version: 2.1.1 Build 2)  -->
  <defs>
    <style>
      .st0 {
        fill: none;
        stroke: #131211;
        stroke-linecap: round;
        stroke-linejoin: round;
        stroke-width: 1.2px;
      }
    </style>
  </defs>
  <path class="st0" d="M205.2,231.76c0,7.26,2.41,12.89,2.41,12.89,0,0-37.88-1.22-72.73,10.49-1.86.62-3.72,1.28-5.55,1.98-36.26,13.84-51.99,28.51-85.74,28.51-11.73,0-18.51-2.37-22.98-2.37s-7.57,3.21-7.57,3.21c-2.05-16.03,2.26-22.12,2.15-32.91-.11-10.8-.11-14.46,1.99-20.44,2.1-5.97,3.01-25.96,3.29-96.94.28-70.99-4.96-105.02-6.7-114.44-.19-.99-.34-1.92-.45-2.8v-.02c-1-7.55.6-11.3,7.29-11.3,7.48,0,4.89,2.16,9.64,2.16,17.75-.2,51.29-1.04,103.27-1.04,4.05,0,14.88,1.25,42.76,13.31,16.76,7.01,18.65,12.68,27.56,21.27,8.91,8.6,24.7,23.55,24.7,64.92s-23.34,86.07-23.34,123.52Z"/>
  <path class="st0" d="M20.47,136.18c-.28,70.98-1.19,90.97-3.29,96.94-2.1,5.98-2.1,9.64-1.99,20.44.11,10.79-4.2,16.88-2.15,32.91-4.23-21.27-8.22-27.45-4.03-61,4.19-33.53,4.4-80.49,4.19-126.81-.17-39.51-.26-68.4.12-79.72.11.88.26,1.81.45,2.8,1.74,9.42,6.98,43.45,6.7,114.44Z"/>
</svg>