<?xml version="1.0" encoding="UTF-8"?>
<svg id="Livello_1" xmlns="http://www.w3.org/2000/svg" version="1.1" viewBox="0 0 374.09 641.45">
  <!-- Generator: Adobe Illustrator 29.8.1, SVG Export Plug-In . SVG Version: 2.1.1 Build 2)  -->
  <defs>
    <style>
      .st0 {
        fill: none;
        stroke: #131211;
        stroke-linecap: round;
        stroke-linejoin: round;
        stroke-width: 1.2px;
      }
    </style>
  </defs>
  <path class="st0" d="M204.66,31.84c-1.78,35.52-4.32,85.4-4.41,108.89-.1,23.47-.93,36.25-.93,36.25-15.1,0-33.33,3.98-52.62,9.02-19.26,5.01-27.41,9.2-27.55,11.92v.02c-3.5,58.82-5.12,144.04-1.37,201.65,2.31,35.5,4.58,61.53,6.85,82.46-15.62-3.18-15.48-.82-26.14-.82-11.21,0-15.19-9.74-32.8-9.74s-19.28-4.3-33.33-4.3-20.78,1.01-20.78,1.01c-2.71-2.74-2.66,2.52-2.66-23.19s-.56-140.27,24.6-236.01c25.15-95.73,48.68-125.81,49.3-145.83,0,0,3.1-3.21,7.57-3.21s11.25,2.37,22.98,2.37c33.75,0,49.48-14.67,85.74-28.51,1.84-.7,3.69-1.36,5.55-1.98Z"/>
  <path class="st0" d="M130.18,525.38c-29.77-5.3-63.85-12.33-96.94-14.42-12.58-.56-18.59,2.24-18.59-7.54s.28-27.82-3.07-35.22c0,0,6.75-1.01,20.78-1.01s15.73,4.3,33.33,4.3,21.59,9.74,32.8,9.74,10.52-2.36,26.14.82c1.85,17.05,3.69,30.71,5.55,43.33Z"/>
  <path class="st0" d="M366.08,463.41c.28,2.82.21,4.98-.13,7.1-.21,1.38-.9,2.16-1.7,3.25-25.96-1.85-35.82-.6-47.55.87-11.74,1.47-11.52,7.54-24.1,6.29-5.86-.59-14.69.29-27.01,1.66,4.5-15.12,8.97-32.27,13.03-51.83,12.3-59.25,16.21-86.64,10.06-151.48-2.24-23.57-4.33-47.2-7.34-71.62h0s0-.02-.01-.02c-7.83-13.87-24.58-14.92-40.29-19.33-15.73-4.4-26.63-11.32-41.72-11.32,0,0,.83-12.78.93-36.25.09-23.49,2.63-73.37,4.41-108.89,34.85-11.71,72.74-10.49,72.74-10.49,10.8,29.87,30.28,60.89,43.7,105.53,13.33,44.37,50.94,151.56,44.78,330.42-.08,2.03,0,4.09.2,6.11Z"/>
  <path class="st0" d="M361.9,478.68c-1.28,4.87-3.54,11.53-3.31,31.5.02,2.28-1.44,4.36-3.64,4.98-2.15.61-5.69.79-11.73.97-28.57.84-61.92,4.76-91.78,8.45,4.44-11.95,9.32-25.8,14.15-42,12.32-1.37,21.15-2.25,27.01-1.66,12.58,1.25,12.36-4.82,24.1-6.29,11.73-1.47,21.59-2.72,47.55-.87-.79,1.07-1.69,2.43-2.35,4.92Z"/>
  <path class="st0" d="M278.62,430.75c-4.06,19.56-8.53,36.71-13.03,51.83-4.83,16.2-9.71,30.05-14.15,42-3.99,10.69-7.64,19.86-10.62,27.82-9.19,24.51-10.88,40.32-18.66,39.29-.21-.02-.41-.05-.62-.1-8.32-1.95-7.55-5.38-18.93-5.38-.64,2.1-3.57,4.34-16.5,4.34s-18.86-5.53-18.86-5.53c0,0-5.39-.84-9.58,1.05-4.18,1.89-8.8,3.15-12.29,2.73-7.69-3.49-7.69-14.6-12.72-47.09-.83-5.38-1.65-10.75-2.48-16.33-1.86-12.62-3.7-26.28-5.55-43.33-2.27-20.93-4.54-46.96-6.85-82.46-3.75-57.61-2.13-142.83,1.37-201.65v-.02c.14-2.72,8.29-6.91,27.55-11.92,19.29-5.04,37.52-9.02,52.62-9.02s25.99,6.92,41.72,11.32c15.71,4.41,32.46,5.46,40.29,19.33.01,0,.01.01.01.01h0c3.01,24.43,5.1,48.06,7.34,71.63,6.15,64.84,2.24,92.23-10.06,151.48Z"/>
  <path class="st0" d="M222.16,591.69c-2.21,9.76-6.95,30.88-7.96,35.68-1.42,6.77-17.46,5.44-31.45,5.02-21.51-1.39-27.59-2.86-33.39-6.28-.14-13.48-3.57-28.09-3.98-37.31,3.49.42,8.11-.84,12.29-2.73,4.19-1.89,9.58-1.05,9.58-1.05,0,0,5.94,5.53,18.86,5.53s15.86-2.24,16.5-4.34c11.38,0,10.61,3.43,18.93,5.38.21.05.41.08.62.1Z"/>
</svg>