<?xml version="1.0" encoding="UTF-8"?>
<svg id="Livello_2" xmlns="http://www.w3.org/2000/svg" version="1.1" viewBox="0 0 756.78 679.7">
  <!-- Generator: Adobe Illustrator 29.8.1, SVG Export Plug-In . SVG Version: 2.1.1 Build 2)  -->
  <defs>
    <style>
      .st0 {
        fill: #131211;
        opacity: .14;
      }
    </style>
  </defs>
  <path class="st0" d="M152.38,426.66c1.6,60.46,4.12,88.7,13.52,116.8h0c-.14.24-4.66,7.83-9.6,17.56-29.34-90.75-16.36-171.67-7.14-266.41,9.22-94.75,25.57-142.54,41.5-175.93-8.1,45-20.68,80.49-26.55,134.43-5.87,53.94-13.69,99.5-11.74,173.56Z"/>
  <path class="st0" d="M604.4,426.66c-1.6,60.46-4.12,88.7-13.52,116.8h0c.14.24,4.66,7.83,9.6,17.56,29.34-90.75,16.36-171.67,7.14-266.41-9.22-94.75-25.57-142.54-41.5-175.93,8.1,45,20.68,80.49,26.55,134.43,5.87,53.94,13.69,99.5,11.74,173.56Z"/>
</svg>