<?xml version="1.0" encoding="UTF-8"?>
<svg id="Livello_1" xmlns="http://www.w3.org/2000/svg" version="1.1" viewBox="0 0 374.09 641.45">
  <!-- Generator: Adobe Illustrator 29.8.1, SVG Export Plug-In . SVG Version: 2.1.1 Build 2)  -->
  <defs>
    <style>
      .st0 {
        fill: red;
      }

      .st1 {
        fill: #131211;
        opacity: .14;
      }

      .st2 {
        fill: none;
        stroke: #131211;
        stroke-linecap: round;
        stroke-linejoin: round;
        stroke-width: 1.2px;
      }
    </style>
  </defs>
  <path class="st2" d="M8.91,445c0,25.71-.05,20.45,2.66,23.19,0,0,6.75-1.01,20.78-1.01s15.73,4.3,33.33,4.3c17.61,0,21.59,9.74,32.8,9.74,10.66,0,10.52-2.36,26.14.82-2.27-20.93-4.54-46.97-6.86-82.46-3.75-57.62-2.13-142.83,1.37-201.66h0c.14-2.73,8.29-6.92,27.55-11.93,19.28-5.04,37.52-9.02,52.61-9.02,0,0,.84-12.78.93-36.25.09-23.48,2.64-73.37,4.41-108.89-1.86.62-3.72,1.29-5.55,1.98-36.26,13.84-51.99,28.51-85.74,28.51-11.73,0-18.51-2.37-22.98-2.37s-7.57,3.21-7.57,3.21c-.62,20.02-24.15,50.1-49.3,145.83-25.15,95.74-24.6,210.29-24.6,236.01Z"/>
  <path class="st2" d="M14.65,503.41c0,9.78,6.01,6.99,18.59,7.54,33.09,2.09,67.17,9.12,96.95,14.42-1.86-12.62-3.71-26.28-5.55-43.32-15.62-3.18-15.48-.82-26.14-.82-11.22,0-15.19-9.74-32.8-9.74-17.6,0-19.28-4.3-33.33-4.3s-20.78,1.01-20.78,1.01c3.35,7.4,3.07,25.43,3.07,35.22Z"/>
  <path class="st2" d="M288.67,279.27c6.15,64.84,2.24,92.23-10.06,151.48-4.06,19.56-8.53,36.71-13.03,51.83,12.32-1.37,21.15-2.25,27.01-1.66,12.58,1.25,12.36-4.82,24.11-6.29,11.73-1.47,21.59-2.72,47.55-.87.8-1.09,1.49-1.87,1.7-3.26.33-2.11.41-4.27.13-7.09-.2-2.02-.28-4.08-.2-6.12,6.16-178.86-31.44-286.05-44.78-330.41-13.41-44.64-32.9-75.67-43.7-105.54,0,0-37.88-1.22-72.73,10.49-1.78,35.53-4.33,85.41-4.41,108.89-.1,23.47-.93,36.25-.93,36.25,15.1,0,25.99,6.92,41.72,11.32,15.72,4.4,32.46,5.45,40.29,19.33.01,0,.01.01.01.01h0c3.01,24.43,5.1,48.06,7.34,71.63Z"/>
  <path class="st2" d="M251.43,524.57c29.86-3.69,63.21-7.61,91.78-8.44,6.04-.18,9.58-.36,11.73-.98,2.2-.62,3.66-2.7,3.64-4.98-.24-19.97,2.02-26.62,3.31-31.5.65-2.49,1.55-3.85,2.35-4.92-25.96-1.85-35.81-.6-47.55.87-11.74,1.47-11.53,7.54-24.11,6.29-5.86-.59-14.69.29-27.01,1.66-4.83,16.2-9.71,30.05-14.15,42Z"/>
  <path class="st2" d="M251.23,68.55c16.72,51.23,24.83,96.35,30.09,139.08"/>
  <path class="st2" d="M117.77,399.59c2.31,35.49,4.59,61.53,6.86,82.46,1.84,17.05,3.69,30.7,5.55,43.32.82,5.58,1.65,10.95,2.47,16.33,5.04,32.49,5.04,43.6,12.72,47.1,3.49.42,8.11-.85,12.3-2.73,4.19-1.89,9.58-1.05,9.58-1.05,0,0,5.94,5.53,18.86,5.53,12.93,0,15.87-2.24,16.5-4.34,11.39,0,10.62,3.43,18.93,5.38.21.05.42.09.62.11,7.78,1.03,9.47-14.78,18.66-39.3,2.98-7.96,6.63-17.13,10.62-27.82,4.45-11.95,9.32-25.8,14.15-42,4.5-15.12,8.97-32.27,13.03-51.83,12.3-59.24,16.21-86.64,10.06-151.48-2.24-23.57-4.33-47.2-7.34-71.62h0s0-.02-.01-.02c-7.83-13.87-24.58-14.92-40.29-19.33-15.73-4.4-26.62-11.32-41.72-11.32-15.1,0-33.33,3.99-52.61,9.02-19.26,5.01-27.42,9.2-27.55,11.92h0c-3.5,58.84-5.12,144.05-1.37,201.67Z"/>
  <path class="st2" d="M145.37,588.8c.42,9.21,3.85,23.83,3.99,37.3,5.8,3.43,11.88,4.9,33.39,6.29,13.98.42,30.03,1.75,31.44-5.02,1.01-4.8,5.75-25.92,7.96-35.68-.2-.02-.41-.05-.62-.11-8.31-1.95-7.54-5.38-18.93-5.38-.63,2.1-3.57,4.34-16.5,4.34-12.92,0-18.86-5.53-18.86-5.53,0,0-5.39-.84-9.58,1.05-4.19,1.89-8.81,3.15-12.3,2.73Z"/>
  <path class="st2" d="M202.6,586.21c2.58-7.26,7.96-21.24,13.9-25.08"/>
  <path class="st2" d="M167.25,585.02c-2.45-2.37-5.45-14.11-9.93-16.07"/>
  <path class="st2" d="M119.14,197.92c1.19-19.94,2.59-36.83,4.08-48.61,5.87-46.54,16.35-68.76,16.35-68.76"/>
  <path class="st0" d="M193.98,177.02h-.01c-.14,0-.25-.13-.24-.27,0-.15.05-.77.12-1.99,0-.13.11-.24.24-.24h.02c.13.01.23.12.24.25h0c-.07,1.28-.11,1.87-.12,2.02-.01.13-.12.23-.25.23ZM194.14,174.02h0c-.06,0-.13-.03-.17-.08-.05-.05-.07-.11-.07-.18.03-.57.06-1.21.1-2,0-.13.11-.24.25-.24h0c.13.01.24.12.24.25v.02c-.03.59-.06,1.14-.08,1.64l-.02.35c0,.14-.11.24-.25.24ZM194.28,171.03h-.01c-.14-.01-.25-.13-.24-.27.03-.62.05-1.28.08-1.99,0-.14.11-.24.25-.24h0c.13,0,.24.11.24.24h0c-.03.73-.05,1.39-.08,2.02-.01.13-.12.24-.25.24ZM194.4,168.03h-.01c-.07-.01-.14-.04-.18-.09-.04-.05-.07-.11-.06-.17v-.35c.03-.53.05-1.08.07-1.65,0-.14.11-.24.25-.24h0c.14,0,.24.11.25.24h0s0,.02,0,.02c-.02.7-.04,1.36-.06,2-.01.13-.12.24-.25.24ZM194.5,165.03h0c-.07,0-.13-.03-.18-.08-.04-.05-.06-.11-.06-.18,0-.35.02-.71.03-1.07,0-.3.02-.61.03-.93,0-.13.11-.24.25-.24h0c.14,0,.25.11.25.24v.02c0,.31-.02.61-.03.91-.01.37-.02.73-.03,1.09,0,.13-.12.24-.25.24ZM194.58,162.03h0c-.14,0-.25-.12-.24-.26v-.72c.03-.41.04-.84.05-1.28,0-.13.11-.24.25-.24h0c.14,0,.25.12.25.26,0,.43-.02.85-.03,1.27l-.02.73c0,.13-.12.24-.26.24ZM194.66,159.03h0c-.07,0-.13-.03-.18-.08-.05-.05-.07-.11-.07-.17.02-.65.03-1.32.05-2,0-.14.11-.25.25-.25s.25.12.25.26c-.02.68-.03,1.35-.05,1.99,0,.14-.11.25-.25.25ZM194.72,156.03h0c-.07,0-.13-.03-.18-.08-.04-.05-.07-.11-.06-.18,0-.4,0-.81.02-1.22v-.77c.02-.14.13-.25.26-.25.15,0,.26.12.25.25v.76c-.02.42-.03.84-.03,1.25-.01.13-.12.24-.26.24ZM194.78,153.03h0c-.07,0-.13-.03-.18-.08-.05-.04-.07-.11-.07-.17,0-.52.02-1.05.02-1.59v-.41c0-.14.12-.25.26-.25s.25.11.25.25v.36c0,.55-.02,1.1-.03,1.65,0,.13-.12.24-.25.24ZM194.83,150.03h0c-.07,0-.13-.03-.18-.07-.04-.05-.07-.11-.07-.18,0-.37,0-.74.02-1.12v-.88c0-.14.12-.25.26-.25s.25.11.25.25v.87c-.02.38-.02.76-.03,1.14,0,.13-.11.24-.24.24ZM194.86,147.03h-.01c-.06,0-.12-.03-.17-.07-.05-.05-.07-.11-.07-.18v-.45c0-.51,0-1.03.02-1.55h0c0-.14.11-.25.25-.25.13,0,.25.11.25.25,0,.52,0,1.04-.02,1.55v.45c0,.14-.12.25-.25.25ZM194.88,144.03h0c-.14,0-.25-.11-.25-.25l.02-2c0-.14.11-.25.25-.25.13,0,.25.12.25.25-.01.68-.01,1.35-.02,2,0,.14-.11.25-.25.25ZM194.9,141.03h0c-.14,0-.25-.11-.25-.25v-.06c0-.63,0-1.28,0-1.94,0-.14.12-.25.25-.25.14,0,.25.12.25.25,0,.67,0,1.31,0,1.94v.06c0,.14-.12.25-.25.25ZM194.92,138.03h0c-.14,0-.25-.11-.25-.25v-.32c0-.55.02-1.11.03-1.69,0-.2.29-.31.42-.17.05.05.08.12.08.18,0,.57-.02,1.12-.02,1.67v.33c0,.14-.12.25-.26.25ZM194.96,135.03h0c-.14,0-.25-.12-.25-.26v-.81c.02-.39.03-.79.04-1.19,0-.13.11-.24.25-.24s.25.11.25.25c0,.4-.02.8-.03,1.19v.81c0,.14-.12.25-.26.25ZM195.01,132.03h0c-.07,0-.13-.03-.18-.08-.04-.05-.07-.11-.07-.18,0-.52.03-1.05.04-1.58v-.42c0-.14.12-.24.26-.24s.25.11.25.25v.44c-.02.53-.04,1.05-.05,1.56,0,.14-.11.25-.25.25ZM195.08,129.03h0c-.06-.01-.13-.03-.17-.08-.05-.05-.07-.11-.07-.18,0-.57.03-1.16.04-1.75v-.25c0-.14.12-.24.26-.24h0c.14,0,.25.11.25.24v.27c-.02.59-.04,1.17-.05,1.74,0,.14-.12.25-.25.25ZM195.16,126.03h0c-.07-.01-.13-.03-.18-.08-.04-.05-.07-.11-.07-.18.02-.58.03-1.16.05-1.75v-.25c0-.14.12-.24.25-.24h0c.14,0,.25.11.25.25v.22c-.03.6-.04,1.2-.06,1.78,0,.14-.11.25-.24.25ZM195.24,123.02h0c-.14,0-.25-.11-.25-.25.02-.36.03-.72.04-1.09.01-.3.01-.61.02-.91,0-.14.12-.25.25-.25h0c.14.01.25.12.24.26v.15c-.02.63-.04,1.24-.06,1.85,0,.14-.11.24-.24.24ZM195.32,120.02h0c-.07,0-.13-.02-.18-.07-.04-.05-.07-.11-.07-.18v-.22c.03-.59.05-1.18.07-1.78,0-.14.11-.25.25-.25h0c.14.01.25.13.25.26-.02.59-.04,1.18-.06,1.76v.24c0,.14-.12.24-.26.24ZM195.42,117.03h0c-.14-.01-.25-.13-.24-.26v-.43c.03-.52.05-1.05.07-1.57,0-.14.11-.24.24-.24h0c.07,0,.13.02.18.07.04.05.07.12.07.18-.02.54-.04,1.07-.06,1.59v.41c-.02.14-.13.25-.26.25ZM195.51,114.03h0c-.14-.01-.25-.13-.24-.26l.03-.82c0-.39.02-.79.04-1.18,0-.14.12-.24.25-.24h0c.13,0,.24.11.24.24h0c-.02.43-.03.84-.04,1.25l-.03.76c0,.14-.12.25-.25.25ZM195.62,111.03h0c-.07-.01-.13-.03-.18-.08-.05-.05-.07-.12-.07-.18.02-.48.04-.95.06-1.43l.02-.57c0-.14.11-.24.25-.24h0c.13,0,.23.11.24.24l-.02.59c-.02.47-.04.95-.06,1.42,0,.14-.11.25-.25.25ZM195.73,108.03h-.01c-.06-.01-.13-.03-.17-.08-.05-.05-.07-.12-.07-.18l.02-.58c.02-.47.04-.95.06-1.42,0-.14.11-.24.25-.24h.01c.13,0,.24.11.24.24h0c-.03.69-.05,1.35-.08,2.02-.01.13-.12.24-.25.24ZM195.85,105.03h0c-.14-.01-.25-.12-.24-.26.02-.67.05-1.33.07-2,0-.14.12-.24.25-.24h0c.14,0,.24.11.24.24h0v.05c0,.35-.03.71-.04,1.07,0,.3-.02.6-.03.9,0,.13-.12.24-.25.24ZM195.96,102.03h0c-.14-.01-.24-.13-.24-.26l.04-.85c0-.38.03-.76.04-1.15,0-.13.12-.24.25-.24h0c.13,0,.24.11.24.25h0v.04c-.03.66-.05,1.31-.08,1.97,0,.13-.11.24-.25.24ZM196.08,99.03h0c-.14-.01-.24-.12-.24-.26.02-.36.03-.73.04-1.09l.04-.91h0c.02-.14.12-.24.25-.24h0c.13,0,.24.11.24.25h0s-.04.93-.04.93c0,.36-.02.72-.04,1.08,0,.13-.11.24-.25.24ZM196.21,96.03h-.02c-.07,0-.13-.03-.17-.08-.05-.05-.07-.11-.07-.18.02-.36.03-.72.05-1.08l.04-.91s0-.01,0-.01c0-.13.12-.24.26-.24h0c.14,0,.24.12.24.25h0c-.01.36-.02.7-.04,1.04,0,.33-.02.65-.04.97,0,.13-.11.24-.24.24ZM196.33,93.03h0c-.07,0-.14-.03-.18-.08-.04-.05-.07-.11-.06-.18.02-.48.04-.97.06-1.46l.02-.54c0-.13.12-.24.25-.24h0c.14,0,.24.12.24.25h0c0,.38-.03.74-.04,1.1l-.04.91c0,.14-.12.24-.25.24ZM196.45,90.03h0c-.13,0-.24-.12-.24-.26l.04-.91c.02-.36.03-.72.05-1.09h0c0-.14.12-.23.25-.23h0c.13,0,.24.11.24.24h0c-.03.68-.06,1.35-.09,2.02,0,.13-.11.23-.25.23ZM196.59,87.04s-.02,0-.02,0c-.06,0-.13-.03-.17-.08-.05-.04-.07-.11-.07-.17l.05-.96c0-.35.03-.69.04-1.04,0-.14.12-.24.25-.24h0c.13,0,.24.11.24.24v.02c-.02.37-.03.73-.05,1.09l-.04.91c0,.13-.11.24-.24.24ZM196.72,84.04h0c-.07,0-.13-.03-.18-.08-.04-.05-.07-.12-.06-.18l.02-.5c.02-.5.04-.99.06-1.49h0c0-.15.12-.25.25-.25h0c.14,0,.24.11.24.25h0s-.04.93-.04.93c0,.36-.03.72-.04,1.08,0,.13-.12.24-.25.24ZM196.85,81.04h0c-.14,0-.25-.12-.24-.26.01-.34.03-.67.04-1,.02-.34.03-.67.05-1.01,0-.13.11-.24.25-.24h0c.13,0,.24.12.24.25h0c-.03.69-.06,1.35-.09,2.02,0,.13-.12.24-.25.24ZM196.99,78.03h0c-.07,0-.14-.03-.18-.08-.05-.05-.07-.11-.07-.18l.03-.65c.02-.45.04-.9.07-1.35,0-.14.11-.24.24-.24h.02c.13,0,.23.11.24.24v.02c-.03.43-.04.86-.06,1.29l-.04.71c0,.14-.11.24-.24.24ZM197.12,75.03h0c-.14-.01-.24-.13-.24-.27.02-.43.04-.86.06-1.29l.03-.71c0-.13.12-.24.25-.24h.02c.13.01.23.12.23.25h0c-.03.68-.06,1.35-.09,2.02,0,.13-.12.24-.25.24ZM197.26,72.02h0c-.07,0-.13-.03-.18-.08-.04-.05-.06-.11-.06-.18l.09-2c.01-.13.12-.24.25-.24h.02c.13.01.23.12.23.25l-.02.52c-.02.5-.05.99-.07,1.49,0,.14-.12.24-.25.24ZM197.4,69.02h-.01c-.07,0-.13-.03-.18-.08-.04-.05-.06-.11-.06-.18.03-.6.06-1.21.09-1.81v-.19c0-.13.12-.23.25-.23h.02c.13,0,.23.11.23.25h0c-.03.73-.06,1.39-.09,2.01-.01.13-.12.23-.25.23ZM197.54,66.03h0c-.07,0-.13-.03-.17-.08-.05-.05-.07-.12-.07-.18.03-.67.06-1.33.1-2,0-.13.11-.24.24-.24h.02c.13,0,.24.12.24.25v.02c-.04.66-.07,1.32-.1,1.99,0,.14-.12.24-.25.24ZM197.68,63.04h0c-.14,0-.24-.13-.24-.26.02-.27.03-.54.04-.8.02-.4.04-.8.06-1.2,0-.13.12-.24.25-.24h0c.13,0,.24.12.24.25h0c-.02.41-.04.81-.06,1.21,0,.27-.02.53-.04.8,0,.13-.11.24-.25.24ZM197.82,60.05h-.01c-.06,0-.13-.03-.17-.08-.04-.05-.07-.12-.06-.18.03-.67.06-1.34.09-2,0-.14.12-.25.27-.24.13.01.23.12.23.25h0c0,.36-.03.72-.05,1.07l-.05.94c0,.13-.11.24-.25.24ZM197.97,57.05h0c-.14,0-.24-.12-.24-.26.03-.67.07-1.33.1-2,0-.13.11-.24.25-.24h0c.13.01.24.12.24.25h0c-.03.68-.07,1.35-.1,2.01,0,.14-.11.24-.25.24ZM198.12,54.05h-.02c-.06,0-.12-.03-.17-.08-.04-.05-.07-.11-.06-.18.02-.38.03-.75.05-1.13.02-.29.03-.58.04-.87,0,0,0,0,0,0,.01-.12.12-.22.24-.22h.02c.13,0,.23.11.23.25h0c-.03.67-.06,1.34-.09,2.01,0,.13-.12.23-.25.23ZM198.26,51.06h0c-.14-.01-.24-.13-.24-.27l.05-.88c.02-.37.03-.74.05-1.1h0c0-.15.12-.25.25-.25h0c.14,0,.24.12.24.25h0c-.01.33-.03.65-.05.97,0,.35-.03.69-.05,1.04,0,.13-.11.24-.25.24ZM198.41,48.06h0c-.14-.01-.25-.12-.24-.26l.04-.9c.02-.37.04-.74.06-1.1,0-.14.12-.24.25-.24h0c.14,0,.24.12.24.25h0c-.02.39-.04.78-.06,1.16l-.04.85c0,.14-.12.24-.25.24ZM198.56,45.06h0c-.14-.01-.25-.12-.24-.26.03-.66.07-1.33.1-1.99h0c0-.14.11-.25.25-.25h0c.13,0,.24.12.24.25v.02c-.02.37-.04.73-.06,1.1l-.04.89c0,.14-.12.24-.25.24ZM198.71,42.07h-.02c-.13,0-.24-.13-.23-.27.03-.66.07-1.34.1-2,0-.13.12-.24.26-.23.13,0,.24.11.24.25h0c-.04.67-.07,1.34-.1,2.01,0,.13-.12.24-.25.24ZM198.86,39.07h-.01c-.14,0-.25-.13-.24-.27.03-.66.06-1.33.1-1.99h0c0-.14.12-.24.25-.24h0c.13.01.24.12.24.25v.25c-.04.58-.07,1.17-.1,1.76-.01.13-.12.24-.25.24ZM199.01,36.07h-.02c-.06,0-.12-.03-.17-.08-.04-.05-.07-.12-.06-.18.02-.52.05-1.03.07-1.54l.03-.46h0c0-.14.12-.24.25-.24h0c.14.01.24.13.24.26v.25c-.04.58-.07,1.16-.1,1.75,0,.14-.12.24-.25.24Z"/>
  <path class="st0" d="M204.72,176.34h0c-.14,0-.25-.13-.24-.27.03-.48.06-1.14.1-2,0-.13.12-.23.25-.23h.02c.13.01.23.11.23.25h0c-.04.88-.07,1.53-.1,2.01,0,.13-.12.24-.25.24ZM204.87,173.34h0c-.14,0-.24-.12-.24-.26.03-.6.06-1.27.09-2,0-.14.12-.24.25-.24h0c.13,0,.24.11.24.25h0c-.02.62-.05,1.18-.07,1.7l-.02.31c0,.13-.11.24-.25.24ZM205,170.34h0c-.06,0-.13-.03-.17-.08-.05-.05-.07-.11-.07-.18l.03-.61c0-.44.03-.91.05-1.39,0-.13.11-.24.25-.24h0c.13.01.24.11.24.25h0c-.02.56-.04,1.08-.06,1.58l-.02.43c0,.13-.11.24-.25.24ZM205.12,167.34h0c-.14,0-.25-.12-.24-.26.02-.67.04-1.34.06-1.99.01-.14.12-.25.25-.25h.01c.13.01.24.12.24.25h0c-.02.71-.04,1.38-.06,2.01,0,.14-.12.24-.25.24ZM205.22,164.34h0c-.07,0-.13-.03-.18-.08-.05-.04-.07-.11-.07-.17.02-.43.03-.87.04-1.31l.02-.69c0-.14.12-.24.25-.24h.01c.13,0,.24.11.24.24h0c0,.63-.03,1.22-.05,1.8v.21c0,.14-.12.24-.25.24ZM205.3,161.35h0c-.14-.01-.24-.12-.24-.26.02-.65.03-1.32.05-2,0-.14.11-.24.25-.24h0c.14,0,.25.11.25.24h0v.05c-.02.63-.03,1.28-.05,1.96,0,.14-.12.25-.25.25ZM205.37,158.35h0c-.07-.01-.13-.03-.18-.08-.05-.05-.07-.11-.07-.18,0-.44.02-.89.03-1.35l.02-.65c0-.13.11-.24.24-.24.15,0,.26.11.25.25,0,.68-.02,1.35-.04,2,0,.14-.11.25-.25.25ZM205.43,155.35h0c-.14-.01-.25-.12-.25-.26.01-.48.02-.98.03-1.48v-.52c0-.13.12-.24.26-.24s.25.11.25.25v.16c0,.63-.03,1.24-.04,1.84,0,.14-.11.25-.25.25ZM205.49,152.35h0c-.07,0-.13-.03-.18-.08-.04-.05-.07-.11-.06-.18,0-.65.02-1.32.02-2,0-.13.12-.24.25-.24.14,0,.25.11.25.25v.43c0,.53-.02,1.05-.03,1.57,0,.14-.11.25-.24.25ZM205.53,149.35h-.01c-.06,0-.13-.03-.17-.08-.05-.05-.07-.11-.07-.18,0-.65,0-1.32.02-2,0-.13.11-.24.25-.24s.25.11.25.25v.57c0,.48-.02.96-.02,1.43,0,.14-.12.25-.25.25ZM205.56,146.35h0c-.07,0-.13-.03-.18-.08s-.07-.11-.07-.18c0-.6.01-1.22.02-1.85v-.14c0-.14.11-.25.24-.25.14,0,.26.11.26.25,0,.52,0,1.03-.02,1.54v.46c0,.14-.11.25-.25.25ZM205.58,143.35h0c-.14,0-.25-.12-.25-.25v-2c0-.14.13-.25.26-.25.14,0,.25.11.25.25,0,.52,0,1.03,0,1.53v.47c0,.13-.11.25-.25.25ZM205.6,140.35h0c-.14,0-.25-.12-.25-.25,0-.61,0-1.26.01-2.01,0-.2.29-.32.43-.17.05.05.07.11.07.18v.41c-.01.54-.01,1.07-.01,1.59,0,.14-.12.25-.25.25ZM205.62,137.35h0c-.07-.01-.13-.03-.17-.08-.05-.05-.08-.11-.08-.18,0-.59.02-1.2.03-1.82v-.18c0-.14.11-.25.25-.25s.25.12.25.26c-.01.66-.02,1.3-.02,1.93v.07c0,.14-.12.25-.26.25ZM205.67,134.34h0c-.07,0-.13-.03-.18-.07-.05-.05-.07-.12-.07-.18,0-.51.02-1.02.03-1.54v-.46c0-.21.3-.31.44-.17.04.05.07.11.07.18v.64c-.02.46-.03.91-.04,1.36,0,.14-.11.24-.25.24ZM205.73,131.34h-.01c-.14,0-.24-.12-.24-.25v-.69c.02-.43.03-.87.04-1.31,0-.14.12-.25.25-.25h.01c.14,0,.25.12.24.26,0,.58-.02,1.15-.04,1.71v.29c0,.13-.12.24-.25.24ZM205.8,128.34h0c-.07,0-.13-.03-.18-.08-.04-.05-.06-.11-.06-.18v-.17c.02-.6.03-1.21.05-1.83,0-.13.12-.24.25-.24.15,0,.25.12.25.26-.02.59-.03,1.17-.05,1.74v.26c0,.13-.12.24-.25.24ZM205.87,125.34h0c-.07,0-.13-.03-.18-.08-.04-.05-.07-.11-.06-.18,0-.66.03-1.32.05-2,.01-.13.12-.24.25-.24h.01c.14,0,.24.12.24.26-.02.59-.03,1.18-.05,1.76v.24c0,.13-.12.24-.26.24ZM205.96,122.34h0c-.14,0-.25-.12-.25-.26.02-.59.04-1.2.06-1.81v-.19c0-.13.12-.24.25-.24h.01c.14,0,.25.12.24.26,0,.36-.02.72-.03,1.08,0,.31-.02.61-.03.92,0,.13-.11.24-.25.24ZM206.06,119.34h0c-.14,0-.25-.12-.25-.26.02-.39.03-.78.04-1.17l.03-.82h0c0-.14.11-.25.25-.25h0c.13,0,.24.11.24.25h0c0,.38-.02.75-.04,1.12,0,.29-.02.59-.03.89,0,.13-.11.24-.24.24ZM206.15,116.34h0c-.07,0-.14-.03-.18-.08-.05-.05-.07-.11-.07-.18.02-.42.03-.85.05-1.27,0-.24,0-.49.02-.73,0-.13.12-.24.25-.24h.01c.13,0,.24.11.24.24l-.02.6c-.02.48-.03.95-.05,1.42,0,.13-.11.24-.25.24ZM206.26,113.34h0c-.07,0-.13-.03-.18-.08-.04-.05-.07-.11-.06-.18l.02-.79c.02-.4.03-.81.05-1.21,0-.13.11-.24.25-.24h0c.13,0,.24.11.24.24l-.03.83c-.02.4-.03.79-.04,1.19,0,.13-.12.24-.25.24ZM206.36,110.34h0c-.07,0-.14-.03-.18-.08-.05-.05-.07-.11-.07-.18.03-.66.05-1.33.08-2,0-.13.11-.24.25-.24h0c.13,0,.23.11.24.25h0c-.02.4-.03.78-.05,1.16l-.03.85c0,.13-.11.24-.25.24ZM206.47,107.34h0c-.06,0-.12-.03-.17-.08-.05-.05-.07-.11-.07-.18.02-.31.03-.63.04-.94,0-.35.03-.71.04-1.06h0c0-.14.12-.24.25-.24h0c.14.01.24.12.24.26-.02.41-.03.81-.05,1.22l-.03.78c0,.13-.11.24-.25.24ZM206.59,104.34h0c-.07,0-.13-.03-.18-.08-.04-.05-.06-.11-.06-.18.02-.66.05-1.33.08-2,0-.13.11-.24.24-.24h.02c.13.01.23.12.24.25h0c-.02.4-.03.78-.05,1.16,0,.28-.02.57-.03.85,0,.14-.12.24-.25.24ZM206.71,101.34h0c-.14,0-.25-.12-.24-.26l.03-.88c.02-.37.03-.74.05-1.12,0-.13.11-.24.25-.24h0c.13.01.24.12.24.25h0c-.03.68-.06,1.35-.08,2.01,0,.14-.12.24-.25.24ZM206.83,98.34h0c-.14,0-.25-.12-.24-.26.03-.66.05-1.33.08-2,0-.13.11-.24.25-.24h0c.13.01.24.12.24.25h0c-.02.51-.04,1-.06,1.5l-.02.51c0,.14-.12.24-.25.24ZM206.95,95.35s0,0,0-.01c-.07,0-.13-.03-.17-.08-.05-.04-.07-.11-.07-.17.02-.48.04-.96.06-1.44l.03-.57c0-.13.11-.23.24-.23h.02c.13,0,.23.11.23.24h0c-.01.3-.02.59-.03.87-.02.38-.03.76-.05,1.14,0,.14-.12.25-.25.25ZM207.07,92.35h0c-.14-.01-.25-.13-.24-.26,0-.28.02-.55.03-.83.02-.39.04-.78.05-1.17,0-.14.12-.24.25-.24h0c.13,0,.24.11.24.24v.02c-.03.67-.06,1.33-.08,2,0,.13-.12.24-.26.24ZM207.2,89.35h0c-.13-.01-.24-.13-.23-.26.02-.67.05-1.33.08-2,0-.14.12-.24.25-.24h0c.13,0,.24.11.24.25h0s-.04.94-.04.94c0,.36-.03.71-.04,1.07,0,.13-.12.24-.26.24ZM207.33,86.35h0c-.14-.01-.25-.13-.24-.26l.04-.95c0-.35.03-.7.04-1.05,0-.13.12-.24.25-.24h0c.14,0,.24.11.25.25h0c-.04.68-.07,1.35-.09,2.01,0,.14-.12.24-.26.24ZM207.47,83.35h-.02c-.06,0-.12-.03-.17-.08-.04-.05-.06-.11-.06-.18.03-.67.06-1.33.09-2,0-.13.11-.24.24-.24h.02c.13,0,.24.12.24.25h0c-.03.68-.06,1.35-.09,2.01,0,.14-.12.24-.25.24ZM207.6,80.35h0c-.14,0-.24-.12-.24-.26l.09-2.01h0c0-.13.11-.23.24-.23h.02c.13,0,.23.11.23.25h0v.04c-.02.43-.04.86-.06,1.29l-.03.69c0,.13-.12.23-.25.23ZM207.74,77.35h0c-.07-.01-.13-.04-.18-.09-.04-.05-.07-.11-.06-.18l.03-.65c.02-.45.04-.9.06-1.35,0-.14.12-.24.25-.24h0c.13.01.24.12.24.25l-.03.68c-.02.45-.04.89-.06,1.33,0,.14-.12.25-.25.25ZM207.88,74.34h-.02c-.13,0-.24-.13-.23-.26l.03-.67c.02-.44.04-.89.06-1.33,0-.14.11-.24.25-.24h.01c.13,0,.24.11.24.25h0s-.05.97-.05.97c0,.34-.03.69-.04,1.04,0,.13-.12.24-.25.24ZM208.01,71.34h0c-.07,0-.13-.03-.17-.08-.05-.05-.07-.12-.07-.18.04-.67.07-1.34.1-2,0-.14.11-.24.25-.24h0c.13.01.24.12.24.25v.18c-.04.61-.07,1.22-.1,1.83,0,.13-.12.24-.25.24ZM208.15,68.34h-.01c-.13,0-.24-.12-.23-.26l.04-.93c.02-.36.03-.71.05-1.07,0-.13.12-.24.25-.24h0c.13.01.24.12.24.25v.13c-.04.63-.07,1.25-.1,1.88,0,.14-.11.24-.25.24ZM208.3,65.35h0c-.07-.01-.13-.03-.18-.08-.04-.05-.07-.12-.06-.18l.09-2c0-.13.12-.24.25-.24h.01c.14,0,.24.12.24.25v.14c-.04.62-.06,1.25-.1,1.87,0,.13-.11.24-.24.24ZM208.44,62.36h-.01c-.14,0-.25-.13-.24-.26l.09-2h0c0-.14.11-.23.24-.23h.02c.13,0,.23.11.23.25h0v.24c-.04.58-.06,1.17-.09,1.76-.01.13-.12.24-.25.24ZM208.58,59.37h0c-.14-.01-.25-.13-.24-.26.02-.33.03-.65.05-.98,0-.34.03-.68.05-1.02h0c.01-.14.12-.24.25-.24h.01c.13,0,.24.12.24.25h0s0,.03,0,.04c0,.42-.03.84-.05,1.26l-.04.71c0,.13-.12.24-.25.24ZM208.73,56.37h-.01c-.15-.01-.25-.12-.24-.26l.09-1.99h0c0-.15.12-.25.25-.25h.02c.13,0,.23.12.23.25h0c-.02.47-.04.93-.06,1.39l-.03.62c-.01.14-.12.24-.25.24ZM208.87,53.37h0c-.14-.01-.25-.13-.24-.26.02-.33.03-.65.05-.98.02-.34.03-.68.05-1.02.01-.13.12-.24.25-.24h.01c.13,0,.24.12.24.25v.02c-.02.38-.04.77-.06,1.16l-.04.83c0,.14-.12.24-.25.24ZM209.01,50.38h0c-.07,0-.13-.04-.18-.09-.04-.05-.07-.11-.06-.18v-.19c.04-.6.07-1.21.1-1.81h0c0-.14.12-.23.25-.23h0c.13,0,.24.11.24.24v.03c-.03.64-.07,1.29-.1,1.94v.05c0,.13-.12.24-.25.24ZM209.17,47.38h0c-.07,0-.14-.04-.18-.09-.05-.05-.07-.11-.06-.18l.04-.82c.02-.39.04-.78.05-1.17,0-.14.12-.24.25-.24h.02c.13.01.23.11.23.25h0c0,.37-.03.73-.05,1.08,0,.31-.03.62-.04.93,0,.13-.12.24-.25.24ZM209.31,44.38h0c-.14,0-.24-.13-.24-.26.04-.67.07-1.34.1-2,0-.13.12-.24.25-.24h.02c.13.01.23.12.23.25h0c-.03.68-.06,1.34-.1,2.01,0,.14-.11.24-.25.24ZM209.46,41.38h0c-.08,0-.14-.03-.19-.08-.04-.05-.06-.12-.06-.18.04-.67.07-1.34.1-2,.01-.13.12-.24.25-.24h.02c.13.01.23.12.23.25h0v.05l-.04.82c-.02.38-.04.76-.06,1.14,0,.14-.11.24-.25.24ZM209.61,38.38h-.01c-.07,0-.13-.03-.17-.08-.05-.05-.07-.11-.07-.18l.04-.81c.02-.4.04-.79.06-1.19,0-.13.12-.24.25-.24h0c.13.01.24.12.24.25v.02c-.03.66-.06,1.33-.1,2-.01.13-.12.23-.25.23ZM209.76,35.39h0c-.14-.01-.25-.13-.24-.27.03-.56.06-1.13.09-1.69v-.3c.02-.14.13-.24.26-.24h.02c.13,0,.23.12.23.25h0v.04c-.03.65-.07,1.31-.1,1.97,0,.13-.12.24-.25.24ZM209.91,32.39h0c-.07,0-.13-.03-.17-.08-.05-.05-.07-.12-.07-.18.03-.46.05-.91.07-1.37l.03-.63h0c0-.14.12-.24.25-.24h.02c.13,0,.24.13.23.26-.03.66-.06,1.33-.1,2,0,.13-.12.24-.25.24Z"/>
  <path class="st0" d="M280.44,200.81c-.09,0-.17-.05-.21-.13-.34-.59-.68-1.16-1.04-1.68-.07-.12-.04-.28.07-.35.11-.08.28-.04.35.07.37.55.72,1.13,1.05,1.72.04.05.04.12.03.18-.02.07-.06.12-.12.16-.04.02-.08.03-.13.03ZM278.83,198.29c-.08,0-.15-.04-.2-.11-.39-.54-.8-1.06-1.22-1.55-.09-.11-.08-.26.02-.35.11-.09.27-.08.36.02.42.5.84,1.03,1.24,1.59.04.04.05.09.05.15,0,.08-.04.15-.1.2-.05.03-.1.05-.15.05ZM276.93,195.97c-.07,0-.13-.03-.18-.08-.46-.5-.94-.97-1.4-1.39-.1-.09-.11-.25-.02-.36.09-.09.26-.1.36-.01.49.46.97.93,1.43,1.42.04.05.06.11.06.18s-.03.13-.08.17c-.04.05-.1.07-.17.07ZM274.76,193.9s-.11-.02-.16-.05c-.48-.41-.99-.81-1.56-1.22-.05-.04-.09-.1-.1-.16-.01-.07,0-.13.05-.19.07-.11.23-.13.34-.06.55.4,1.09.81,1.6,1.24h0c.06.06.08.13.08.2,0,.06-.02.11-.05.15-.05.06-.12.09-.2.09ZM272.37,192.11s-.1,0-.14-.04c-.53-.35-1.1-.7-1.69-1.04-.12-.07-.16-.22-.09-.34.06-.11.22-.16.34-.09.58.33,1.16.68,1.71,1.05.07.05.12.12.12.21,0,.05-.02.1-.04.14-.05.07-.13.11-.21.11ZM119.54,191.93h-.01c-.07,0-.13-.03-.18-.08-.04-.04-.07-.11-.06-.18.02-.42.19-.87.52-1.32.08-.11.25-.13.35-.05.07.04.1.12.11.2,0,.05-.02.09-.05.14h0s-.01.02-.02.03c-.26.36-.4.71-.41,1.03-.01.13-.12.23-.25.23ZM269.79,190.59s-.08,0-.12-.03c-.55-.3-1.14-.58-1.78-.88-.06-.02-.11-.07-.13-.14-.03-.06-.02-.13,0-.19.06-.12.21-.18.34-.12.62.28,1.23.58,1.8.89.08.04.14.12.14.21,0,.04,0,.09-.03.12-.05.08-.13.14-.22.14ZM120.69,190.01c-.07,0-.14-.03-.19-.08-.09-.1-.09-.26.02-.35.43-.4.98-.82,1.62-1.23.12-.08.28-.04.35.07.02.04.04.09.04.14,0,.09-.05.16-.12.21-.63.4-1.15.8-1.55,1.17-.05.05-.11.07-.17.07ZM267.08,189.3s-.06,0-.09,0h0s-.01,0-.02,0c-.61-.26-1.23-.5-1.83-.73-.06-.02-.11-.07-.14-.13-.03-.06-.03-.13,0-.19.05-.12.2-.19.32-.15.65.24,1.27.49,1.87.74h0c.09.04.15.14.15.24,0,.03,0,.06-.02.09-.04.1-.13.15-.23.15ZM123.13,188.29c-.09,0-.17-.05-.21-.13-.07-.11-.03-.27.09-.34.56-.32,1.16-.64,1.78-.94.12-.06.28,0,.33.12.02.03.03.07.03.1,0,.1-.05.19-.14.23-.64.31-1.23.63-1.75.93-.04.02-.08.03-.13.03ZM264.28,188.23s-.06,0-.09,0c-.6-.21-1.23-.42-1.89-.62-.06-.03-.12-.07-.15-.13-.03-.06-.03-.13-.01-.19.04-.13.18-.2.31-.16.65.2,1.29.41,1.91.62.1.04.17.13.17.24,0,.03-.01.05-.02.08-.03.1-.13.17-.23.17ZM261.42,187.32s-.05,0-.07,0c-.63-.19-1.27-.37-1.92-.54-.06-.02-.12-.05-.15-.11-.04-.06-.05-.13-.03-.19.04-.14.18-.22.31-.18.67.18,1.32.36,1.93.54.11.03.18.12.18.23,0,.03,0,.05,0,.08-.03.11-.13.18-.24.18ZM125.8,186.93c-.09,0-.18-.06-.22-.15-.06-.12-.01-.27.12-.33.56-.26,1.18-.53,1.84-.8.12-.05.27.01.33.13,0,.03,0,.06,0,.1,0,.1-.06.19-.15.23-.64.27-1.26.53-1.82.79-.04.02-.07.03-.11.03ZM258.53,186.53s-.05-.01-.07-.01c-.69-.18-1.33-.34-1.93-.48-.07-.02-.12-.05-.16-.11-.03-.06-.05-.13-.03-.19.03-.13.17-.22.3-.19.67.16,1.32.32,1.94.48h0c.11.03.18.13.19.25,0,.02-.01.04-.01.06-.03.11-.13.19-.24.19ZM255.61,185.82s-.04,0-.06,0c-.64-.15-1.28-.29-1.95-.44-.13-.03-.21-.17-.18-.3.02-.13.16-.22.29-.19.76.17,1.38.31,1.96.44.11.03.19.13.19.24,0,.02,0,.04-.01.06-.02.12-.12.2-.24.2ZM128.56,185.75c-.1,0-.19-.06-.23-.16-.05-.13,0-.27.14-.32.6-.24,1.23-.48,1.87-.72.13-.05.27.02.32.15,0,.02.02.05.02.08,0,.11-.07.2-.17.24-.61.22-1.22.46-1.86.71-.03.01-.06.02-.09.02ZM252.68,185.16s-.03-.01-.05-.01c-.51-.11-1.02-.23-1.54-.34l-.41-.09c-.14-.03-.22-.16-.19-.3.03-.13.16-.22.3-.19.65.14,1.3.29,1.95.43.11.03.19.13.19.25v.05c-.03.12-.13.2-.25.2ZM131.36,184.69c-.1,0-.19-.07-.23-.17-.02-.06-.02-.13.01-.19.03-.06.08-.1.14-.13.69-.24,1.31-.46,1.89-.66.13-.04.28.03.32.16,0,.03,0,.06,0,.09,0,.1-.07.19-.17.23-.69.23-1.3.45-1.88.66-.03,0-.06,0-.09,0ZM249.76,184.51s-.04,0-.06-.01c-.69-.15-1.37-.3-1.95-.43-.14-.04-.22-.17-.19-.3.03-.14.16-.22.3-.19.65.15,1.3.29,1.95.44.11.02.2.12.19.24v.05c-.03.12-.13.2-.24.2ZM246.83,183.85s-.03,0-.04-.01h-.02s-.02,0-.03,0c-.57-.13-1.2-.28-1.91-.45-.14-.03-.22-.17-.19-.3.03-.13.17-.22.31-.19.67.17,1.33.32,1.94.46.11.03.19.13.19.24,0,.02,0,.04,0,.06-.02.12-.12.2-.24.2ZM134.2,183.71c-.11,0-.2-.07-.24-.17-.02-.06,0-.13.02-.19.03-.06.08-.1.14-.12.69-.23,1.31-.43,1.91-.62.13-.04.27.03.31.16.01.03.01.05.01.08,0,.11-.07.2-.17.24-.65.2-1.29.41-1.9.61-.03,0-.05,0-.08,0ZM243.92,183.15s-.04,0-.06,0c-.75-.19-1.36-.35-1.94-.5-.13-.04-.21-.18-.18-.31.04-.13.18-.21.31-.18.63.17,1.27.34,1.93.5.11.03.19.13.19.25,0,.01,0,.03,0,.06-.03.11-.13.19-.24.19ZM137.06,182.8c-.11,0-.21-.07-.24-.17-.02-.07,0-.14.02-.2.03-.05.08-.1.15-.12.59-.18,1.21-.37,1.91-.58h.01c.13-.03.27.04.3.17.01.03.01.05.01.08,0,.1-.07.2-.18.23-.67.2-1.34.41-1.91.58-.02,0-.04,0-.07,0ZM241.01,182.38s-.04,0-.07,0c-.63-.18-1.28-.37-1.92-.56-.06-.02-.12-.06-.15-.12s-.04-.13-.02-.19c.04-.13.18-.2.31-.17.65.2,1.29.38,1.91.56h0c.11.03.18.13.18.25,0,.02,0,.04,0,.06-.03.11-.13.18-.24.18ZM139.93,181.94c-.11,0-.21-.07-.24-.18-.02-.06,0-.13.02-.19.04-.06.09-.1.15-.12.53-.15,1.22-.35,1.93-.55.13-.04.27.04.31.17v.06c0,.12-.07.22-.18.25-.6.17-1.23.35-1.92.55-.02,0-.05,0-.07,0ZM238.14,181.53s-.04,0-.07-.01c-.63-.19-1.27-.4-1.91-.6-.06-.03-.11-.07-.14-.13-.03-.06-.04-.13-.02-.19.04-.13.19-.2.32-.16.68.22,1.31.42,1.9.6.1.04.17.13.17.24,0,.03,0,.05,0,.08-.03.1-.12.17-.24.17ZM142.82,181.12c-.11,0-.21-.07-.24-.18-.02-.07-.01-.13.02-.19.03-.06.09-.1.15-.12.57-.16,1.2-.33,1.93-.53.13-.03.27.05.31.18,0,.02,0,.04,0,.06,0,.11-.08.22-.19.25-.66.17-1.31.35-1.92.52-.03.01-.05.01-.07.01ZM235.29,180.61s-.05,0-.08,0c-.71-.24-1.33-.45-1.9-.65-.06-.02-.11-.06-.14-.12s-.03-.13,0-.19c.05-.13.19-.2.32-.16.62.22,1.25.43,1.89.65.1.03.17.13.17.24,0,.03,0,.05,0,.07-.04.1-.13.17-.24.17ZM145.71,180.34c-.11,0-.21-.08-.24-.19-.03-.13.05-.27.18-.3.23-.07.47-.13.71-.19l.28-.08c.2-.05.39-.1.59-.15l.35-.09h.02c.13-.02.26.05.29.18,0,.02,0,.04,0,.06,0,.11-.07.21-.18.24h-.01s-.02.01-.03.01c-.27.07-.54.14-.81.21l-.54.14c-.19.05-.37.1-.55.15-.02,0-.05,0-.07,0ZM232.45,179.64s-.05-.01-.08-.01c-.69-.25-1.3-.47-1.88-.68-.14-.05-.2-.19-.15-.32.04-.13.19-.2.32-.15.63.23,1.26.46,1.88.67.1.04.16.13.16.24,0,.02,0,.06,0,.08-.03.1-.13.17-.24.17ZM148.61,179.58c-.11,0-.21-.08-.24-.19-.01-.06,0-.13.03-.19.03-.05.09-.1.15-.11.45-.12.9-.23,1.34-.35l.6-.15h0c.1-.02.27.05.3.18,0,.02,0,.04,0,.07,0,.11-.08.21-.19.24-.37.09-.73.19-1.1.28-.28.07-.55.14-.83.21-.02.01-.04.01-.07.01ZM151.51,178.84c-.11,0-.21-.08-.24-.19-.03-.13.05-.27.18-.3l.65-.17c.43-.1.86-.21,1.29-.32.13-.03.27.05.3.18.01.02.01.04.01.07,0,.11-.08.21-.19.23l-.7.18c-.41.1-.82.21-1.23.31-.02,0-.05,0-.07,0ZM229.63,178.62s-.06,0-.08-.01c-.63-.24-1.26-.47-1.88-.7-.06-.02-.11-.07-.14-.13-.03-.06-.03-.13-.01-.19.05-.12.2-.19.33-.14l.33.12c.51.19,1.02.38,1.54.57.1.03.16.13.16.23,0,.03,0,.06,0,.09-.04.1-.13.16-.24.16ZM154.42,178.11c-.12,0-.22-.08-.24-.19-.02-.06-.01-.13.02-.19.04-.05.09-.09.16-.11.54-.13,1.07-.27,1.61-.4l.33-.08c.13-.03.27.06.3.19,0,.02,0,.04,0,.06,0,.11-.08.21-.19.24l-.73.18c-.41.1-.81.2-1.21.3h-.06ZM226.82,177.58s-.06-.01-.09-.02c-.4-.15-.8-.3-1.2-.44l-.67-.25c-.06-.03-.11-.07-.14-.13-.03-.07-.03-.13,0-.19.05-.13.2-.2.32-.15.5.18,1.01.37,1.51.56l.37.14c.09.03.16.13.16.23,0,.03-.01.06-.02.09-.03.09-.13.16-.23.16ZM157.33,177.4c-.11,0-.22-.08-.24-.19-.02-.06,0-.13.03-.19.03-.06.09-.1.15-.11.48-.12.96-.23,1.43-.34l.52-.13c.13-.03.27.06.3.19,0,.01,0,.03,0,.05,0,.12-.08.22-.19.25-.68.16-1.31.31-1.95.46-.02,0-.04,0-.06,0ZM160.25,176.71c-.12,0-.22-.08-.24-.2-.02-.06-.01-.13.03-.19.03-.05.09-.09.15-.11.62-.14,1.26-.29,1.95-.45.14-.03.27.06.3.19.01.02.01.03.01.05,0,.12-.08.22-.2.25-.64.15-1.29.3-1.94.45-.02,0-.04,0-.06,0ZM224.01,176.54s-.06,0-.09-.02c-.73-.27-1.32-.49-1.87-.69-.07-.02-.12-.06-.14-.12-.03-.06-.04-.13,0-.19.04-.13.19-.2.31-.16l1.89.69c.09.04.16.13.16.24,0,.03,0,.06-.02.08-.03.1-.13.17-.23.17ZM163.17,176.04c-.11,0-.21-.09-.24-.2-.02-.07,0-.13.03-.19.04-.06.09-.09.16-.11.78-.18,1.38-.31,1.95-.43.13-.03.27.05.3.19,0,.01,0,.03,0,.05,0,.11-.08.22-.2.24-.68.15-1.37.31-1.95.44-.02,0-.04,0-.06,0ZM221.19,175.51s-.06,0-.08-.01c-.62-.22-1.26-.44-1.89-.66-.13-.05-.2-.19-.16-.32.05-.12.19-.2.32-.15.55.18,1.15.39,1.89.66.1.03.17.12.17.23,0,.03-.01.06-.01.09-.04.09-.13.16-.24.16ZM166.1,175.39c-.11,0-.22-.09-.24-.2,0-.07,0-.13.03-.19.04-.05.09-.09.16-.11.66-.14,1.31-.28,1.96-.42.14-.02.27.07.29.2.01.01.01.03.01.05,0,.12-.08.22-.2.25-.6.12-1.24.26-1.95.41-.02.01-.04.01-.06.01ZM169.04,174.77c-.12,0-.22-.09-.25-.2,0-.07,0-.14.04-.19.04-.06.09-.1.16-.11.75-.15,1.38-.28,1.96-.4.13-.02.27.07.29.2,0,.02,0,.03,0,.05,0,.12-.08.22-.2.24h0s0,.01,0,.01c-.54.1-1.24.24-1.95.39-.02,0-.04,0-.05,0ZM218.35,174.53s-.05,0-.08-.01c-.66-.22-1.29-.42-1.9-.61-.13-.04-.2-.18-.16-.31s.18-.21.31-.17c.59.18,1.21.38,1.91.61h0c.1.04.17.14.17.25,0,.02,0,.05,0,.07-.04.1-.13.17-.24.17ZM171.98,174.18c-.12,0-.22-.09-.25-.21-.01-.06,0-.13.04-.18.04-.06.1-.1.16-.11.66-.13,1.32-.25,1.97-.38h0c.13-.02.26.08.28.21v.04c0,.13-.08.23-.2.25-.58.11-1.21.22-1.96.37-.02,0-.03.01-.05.01ZM215.49,173.63s-.05,0-.07,0c-.62-.19-1.24-.37-1.92-.55-.13-.04-.21-.17-.17-.31.03-.13.17-.21.3-.17.65.17,1.3.36,1.93.55.1.03.18.12.18.23,0,.03,0,.05,0,.08-.03.11-.13.18-.24.18ZM174.93,173.62c-.12,0-.23-.09-.25-.21-.02-.13.07-.26.2-.29.69-.12,1.36-.24,1.98-.34.14-.03.26.07.28.2.01.01.01.02.01.04,0,.12-.09.23-.21.25-.79.13-1.39.24-1.97.35h-.04ZM177.88,173.1c-.12,0-.22-.08-.24-.21-.02-.06,0-.13.04-.18.04-.05.09-.09.16-.1.63-.11,1.27-.21,1.98-.32.15-.03.26.07.28.21,0,.01.01.02.01.03,0,.13-.09.23-.21.25-.68.11-1.35.21-1.98.32h-.04ZM212.6,172.83s-.04-.01-.06-.01c-.67-.17-1.32-.33-1.94-.47-.06-.01-.12-.05-.15-.11-.04-.06-.05-.12-.04-.19.03-.13.17-.22.3-.19.67.15,1.32.31,1.95.47.11.03.19.13.19.24,0,.03,0,.05,0,.07-.03.11-.13.19-.24.19ZM180.85,172.63c-.13,0-.23-.09-.25-.21-.02-.14.07-.26.21-.29.54-.08,1.26-.18,1.98-.29.14-.02.26.08.28.22,0,0,0,.02,0,.04,0,.12-.1.22-.22.24-.7.1-1.35.19-1.98.29h-.03ZM183.81,172.21c-.12,0-.23-.1-.24-.22-.01-.07,0-.13.05-.19.04-.05.1-.08.16-.09.62-.08,1.27-.17,1.98-.25,0,0,.03,0,.04,0,.13,0,.23.1.25.22v.03c0,.12-.09.24-.22.25-.69.08-1.34.17-1.98.25,0,0-.02,0-.04,0ZM209.68,172.15s-.03,0-.05,0h0c-.66-.14-1.32-.26-1.94-.36-.14-.03-.23-.16-.21-.29.02-.13.14-.23.29-.21.65.11,1.31.24,1.97.37,0,0,0,.01,0,.01.11.02.19.13.19.24v.05c-.03.11-.13.2-.25.2ZM186.79,171.84c-.13,0-.23-.1-.25-.22,0-.14.09-.27.22-.28.68-.08,1.35-.15,2-.22h0c.13,0,.24.1.26.23h0v.02c0,.13-.1.24-.22.25-.67.07-1.34.14-1.99.22h-.03ZM206.73,171.62h-.04c-.63-.1-1.29-.18-1.97-.26-.06,0-.12-.04-.17-.09-.04-.05-.06-.12-.05-.18.02-.14.14-.25.27-.23.66.08,1.33.17,2,.27.12.01.21.12.21.24v.04c-.02.12-.13.21-.25.21ZM189.78,171.53c-.13,0-.24-.1-.25-.23-.01-.06,0-.13.06-.18.04-.05.1-.08.16-.09.67-.06,1.34-.12,2-.17h.02c.13,0,.24.1.25.24h0c0,.14-.1.25-.23.26-.76.06-1.39.11-1.99.17h-.02ZM192.76,171.29c-.13,0-.24-.1-.25-.23,0-.07.01-.13.06-.18.04-.05.1-.08.17-.09.75-.05,1.4-.09,2-.11h.02c.13,0,.24.1.24.23v.02c0,.13-.1.24-.23.25-.6.02-1.25.06-2,.11h-.01ZM203.75,171.26h-.02c-.71-.06-1.36-.11-1.98-.14-.14,0-.25-.12-.24-.26,0-.13.12-.24.25-.24h0c.65.04,1.3.08,2.01.14.12.02.22.12.22.25v.02h0c0,.14-.12.23-.25.23ZM195.76,171.13h0c-.13,0-.24-.1-.25-.24,0-.06.02-.13.07-.18.04-.05.11-.07.17-.08.66-.02,1.34-.04,2.01-.05.14,0,.25.1.25.24s-.11.25-.24.26c-.68,0-1.35.03-2,.05h0ZM200.76,171.09h0c-.59-.02-1.15-.03-1.71-.03h-.28c-.13,0-.25-.11-.25-.24,0-.14.11-.25.25-.26h.56c.51,0,.99,0,1.45.02h0c.14,0,.24.12.24.26s-.12.25-.25.25Z"/>
  <path class="st0" d="M281.34,213.69c-.09,0-.17-.05-.21-.13-.33-.57-.67-1.13-1.04-1.68-.08-.12-.04-.27.07-.35.11-.07.27-.04.35.07.36.54.71,1.12,1.05,1.72h0c.07.12.02.27-.09.34-.04.02-.08.03-.13.03ZM279.73,211.17c-.08,0-.16-.04-.2-.1-.39-.53-.8-1.06-1.23-1.56-.08-.1-.07-.26.03-.35.1-.09.27-.07.35.03.44.51.86,1.05,1.25,1.58.03.05.05.1.05.15,0,.08-.04.16-.1.2-.05.03-.1.05-.15.05ZM277.83,208.85c-.07,0-.13-.03-.18-.08-.45-.48-.92-.95-1.4-1.39-.05-.05-.08-.11-.08-.18s.02-.13.06-.18c.1-.09.26-.1.36,0,.51.47.98.95,1.42,1.42.05.05.07.12.07.18,0,.07-.03.13-.08.18-.05.04-.11.06-.17.06ZM275.67,206.78c-.06,0-.11-.02-.16-.06h0s-.02-.02-.02-.02c-.48-.41-1-.82-1.53-1.21-.11-.09-.14-.25-.06-.35.08-.11.25-.14.35-.06.55.4,1.08.82,1.58,1.26.06.04.09.11.09.19,0,.06-.02.11-.06.16-.05.05-.12.09-.19.09ZM273.29,204.95s-.09-.01-.13-.04h0s-.01-.01-.02-.01c-.51-.36-1.05-.7-1.65-1.06-.06-.03-.1-.08-.11-.15-.02-.06,0-.13.02-.19.07-.11.23-.15.35-.08.59.35,1.16.71,1.69,1.08.07.05.11.12.11.21,0,.05,0,.1-.04.14-.05.06-.13.1-.21.1ZM118.81,203.99h0c-.07-.01-.13-.04-.18-.09-.04-.04-.07-.11-.06-.18,0-.05,0-.1.01-.15.02-.14.15-.23.28-.21.13.01.22.12.22.25v.02h0s-.01.08-.01.11c0,.14-.12.25-.26.25ZM270.74,203.38s-.08,0-.12-.03c-.56-.31-1.13-.61-1.76-.92-.06-.02-.1-.08-.13-.14-.02-.06-.01-.13,0-.19.06-.12.22-.17.34-.12.65.32,1.23.63,1.79.93.08.05.13.13.12.22,0,.05,0,.09-.03.12-.04.08-.13.13-.22.13ZM119.22,202.95c-.05,0-.1-.02-.15-.05-.11-.07-.14-.23-.06-.34.33-.47.81-.94,1.49-1.44.1-.08.27-.06.35.05.03.04.05.09.05.15,0,.08-.04.15-.1.2-.63.46-1.09.91-1.38,1.32-.04.07-.12.11-.2.11ZM268.07,202.03s-.07,0-.1-.02h0s-.02-.01-.03-.01c-.57-.26-1.16-.52-1.79-.78-.06-.02-.11-.07-.14-.13-.03-.06-.03-.13,0-.19.05-.13.2-.19.32-.14.62.25,1.24.52,1.85.8.09.04.14.12.14.22.01.03,0,.07-.02.11-.04.09-.13.14-.22.14ZM121.47,201c-.08,0-.16-.04-.21-.11-.03-.06-.05-.12-.03-.19.01-.07.05-.12.11-.16.52-.33,1.11-.67,1.75-1,.12-.06.27-.02.34.1.02.04.02.08.02.12,0,.09-.05.18-.13.22-.64.33-1.21.66-1.71.98-.04.03-.09.04-.14.04ZM265.3,200.88s-.06,0-.09-.02c-.62-.24-1.25-.46-1.87-.68-.06-.02-.12-.06-.15-.12-.03-.06-.03-.13-.01-.19.04-.13.19-.2.32-.16.6.2,1.21.43,1.89.68h.01c.09.05.15.14.15.24,0,.03,0,.06-.02.09-.04.1-.13.16-.23.16ZM262.47,199.88s-.05,0-.08,0c-.64-.21-1.28-.41-1.9-.6-.06-.02-.12-.06-.15-.12-.03-.05-.04-.12-.02-.19.04-.13.18-.2.31-.17.71.22,1.34.41,1.92.6.1.04.17.13.17.24,0,.03,0,.05,0,.08-.04.1-.13.17-.24.17ZM124.1,199.56c-.1,0-.19-.06-.23-.14-.03-.06-.03-.13-.01-.2.02-.06.07-.11.13-.14.55-.27,1.14-.54,1.82-.84.13-.05.28,0,.33.13.02.03.02.06.02.1,0,.1-.05.19-.15.23-.64.28-1.25.56-1.8.83-.04.02-.07.03-.11.03ZM259.6,199s-.04,0-.06,0h-.02c-.63-.18-1.28-.36-1.91-.53-.07,0-.12-.06-.15-.11-.04-.06-.05-.13-.03-.19.04-.13.17-.21.31-.18.62.16,1.25.34,1.92.53h0c.1.03.18.13.18.24,0,.03,0,.05,0,.07-.03.11-.13.18-.24.18ZM126.83,198.33c-.1,0-.19-.06-.23-.15-.05-.13,0-.28.14-.33.6-.25,1.23-.5,1.86-.74.12-.05.27.01.32.14.01.03.02.06.02.09,0,.1-.06.2-.16.23-.65.25-1.27.5-1.85.74-.03,0-.06.02-.1.02ZM256.7,198.22s-.04,0-.06-.01c-.59-.16-1.23-.32-1.94-.49-.13-.04-.21-.17-.18-.3.03-.13.17-.22.31-.19.72.18,1.36.34,1.94.49h0c.11.04.18.13.19.25,0,0,0,.03,0,.06-.03.11-.13.19-.25.19ZM253.79,197.49s-.04,0-.05-.01c-.68-.16-1.36-.32-1.95-.46-.06-.02-.12-.06-.15-.11-.04-.06-.05-.13-.03-.19.03-.13.16-.22.3-.19.65.16,1.3.31,1.94.47.11.02.19.12.19.23v.07c-.03.11-.13.19-.25.19ZM129.62,197.24c-.1,0-.19-.07-.23-.17-.02-.06-.02-.13,0-.19.03-.06.08-.1.14-.13.53-.2,1.13-.41,1.88-.67h0c.13-.06.28.02.32.14,0,.03.02.06.02.09,0,.1-.07.2-.17.23-.71.25-1.38.49-1.88.68-.03,0-.06.02-.09.02ZM250.88,196.8s-.04,0-.06,0c-.64-.15-1.29-.31-1.94-.46-.14-.03-.22-.17-.19-.3.03-.13.16-.22.3-.19.65.16,1.3.31,1.95.46.11.03.19.13.19.24,0,.02,0,.04,0,.06-.02.12-.12.2-.24.2ZM132.45,196.23c-.1,0-.2-.07-.23-.17-.03-.06-.02-.13,0-.19.03-.06.08-.1.14-.13.75-.25,1.34-.45,1.9-.63h0c.13-.03.27.04.31.16,0,.03.01.05.01.08,0,.11-.07.2-.17.24-.61.2-1.23.4-1.9.63-.02,0-.05,0-.08,0ZM247.97,196.11s-.04,0-.06,0c-.59-.14-1.22-.29-1.95-.47-.14-.03-.22-.17-.18-.3.03-.13.17-.22.3-.19.6.15,1.23.3,1.94.47.11.03.19.13.19.24v.06c-.03.12-.13.2-.24.2ZM245.05,195.4s-.04,0-.06,0c-.59-.15-1.23-.31-1.94-.49-.07-.02-.12-.06-.15-.12-.04-.06-.05-.13-.03-.19.03-.13.18-.21.31-.18.61.16,1.26.33,1.93.49.11.03.19.13.19.24,0,.03,0,.05,0,.07-.03.11-.12.19-.24.19ZM135.3,195.29c-.11,0-.2-.07-.24-.17-.02-.06-.01-.13.02-.19.03-.06.08-.1.14-.13.67-.21,1.3-.4,1.92-.59.13-.04.27.04.31.17,0,.02,0,.05,0,.07,0,.11-.07.21-.18.24-.67.2-1.31.4-1.9.59-.03,0-.05,0-.08,0ZM242.14,194.65s-.04,0-.06,0c-.37-.1-.74-.21-1.12-.31-.25-.07-.5-.14-.75-.21l-.06-.02c-.06-.02-.12-.06-.15-.12s-.04-.13-.02-.19c.03-.13.18-.21.31-.17.24.07.52.15.81.23.35.1.73.2,1.11.3.11.03.19.13.18.25v.06c-.03.11-.13.19-.25.19ZM138.17,194.41c-.11,0-.21-.07-.24-.18-.02-.06-.01-.13.02-.19.03-.06.08-.1.15-.12.61-.18,1.25-.37,1.92-.56.12-.04.27.04.31.17,0,.02,0,.05,0,.07,0,.11-.08.21-.18.24-.65.19-1.3.37-1.92.56-.02.01-.05.01-.07.01ZM239.26,193.83s-.04-.01-.06-.01h0s-.02,0-.03,0c-.61-.18-1.25-.38-1.89-.58-.06-.02-.12-.07-.15-.13s-.03-.12,0-.19c.04-.13.19-.2.31-.16.7.22,1.33.41,1.91.59.11.03.18.13.18.23,0,.03,0,.05,0,.08-.03.1-.13.18-.24.18ZM141.05,193.57c-.12,0-.21-.07-.24-.18-.02-.06-.01-.13.02-.19.03-.06.09-.1.15-.12.74-.21,1.36-.38,1.93-.54.13-.03.27.05.31.18v.06c0,.11-.07.21-.18.24-.65.19-1.3.37-1.92.54-.02,0-.05,0-.07,0ZM236.4,192.94s-.06,0-.08-.02c-.65-.21-1.29-.42-1.9-.63-.13-.04-.2-.19-.16-.32.04-.12.19-.19.32-.15.7.24,1.32.44,1.89.63.11.03.18.13.18.24,0,.02-.01.05-.02.07-.03.11-.13.18-.23.18ZM143.94,192.77c-.11,0-.21-.08-.24-.18-.04-.14.04-.28.17-.31.72-.19,1.35-.36,1.94-.52.12-.03.27.05.3.18.01.02.01.04.01.06,0,.12-.08.22-.19.24-.57.15-1.18.32-1.93.52-.02,0-.04,0-.06,0ZM146.84,192c-.12,0-.22-.08-.24-.19-.02-.06-.01-.13.02-.19.04-.05.09-.1.16-.11.63-.17,1.27-.33,1.91-.5h.02c.13-.04.27.04.31.18v.06c0,.11-.07.21-.18.24l-.4.1c-.51.13-1.03.27-1.54.4-.02,0-.04,0-.06,0ZM233.55,191.98s-.05,0-.08,0c-.67-.24-1.29-.45-1.89-.67-.06-.02-.11-.07-.14-.13-.03-.06-.03-.13-.01-.19.05-.12.2-.2.32-.15.56.2,1.16.41,1.89.67.09.03.16.12.16.23,0,.03,0,.06,0,.08-.04.1-.13.17-.24.17ZM149.74,191.25c-.12,0-.21-.08-.24-.19-.02-.06,0-.13.02-.19.04-.06.09-.1.16-.11.64-.17,1.29-.33,1.93-.5.13-.03.27.05.31.19v.06c0,.11-.07.21-.19.24-.64.16-1.28.33-1.93.49-.02,0-.04,0-.06,0ZM230.72,190.98s-.05,0-.08-.02c-.62-.22-1.25-.46-1.88-.69-.13-.04-.19-.19-.15-.32.05-.12.2-.19.33-.15.62.23,1.24.46,1.87.69.1.04.17.13.16.24,0,.03,0,.05,0,.08-.03.1-.13.17-.24.17ZM152.64,190.51c-.12,0-.22-.08-.24-.19-.02-.06,0-.13.03-.19.03-.05.08-.09.15-.11l.24-.06c.57-.14,1.13-.28,1.7-.42.13-.04.27.05.3.18.01.02.01.04.01.06,0,.11-.08.21-.18.24h-.03l-.52.14c-.46.11-.93.23-1.4.34-.02.01-.04.01-.06.01ZM227.91,189.94s-.06,0-.09,0c-.62-.24-1.25-.47-1.87-.7-.13-.05-.19-.19-.15-.32.05-.13.2-.2.32-.15l.32.12c.52.19,1.04.38,1.56.58.1.03.16.13.16.23,0,.03,0,.06,0,.09-.04.1-.14.16-.24.16ZM155.55,189.79c-.11,0-.21-.08-.24-.19-.02-.07-.01-.13.03-.19.03-.06.09-.1.15-.11.57-.14,1.14-.28,1.71-.42l.24-.06c.13-.03.27.06.3.19,0,.02,0,.03,0,.05,0,.12-.08.22-.2.25h0c-.64.16-1.28.31-1.93.47-.02,0-.04,0-.06,0ZM158.47,189.08c-.12,0-.22-.08-.25-.19-.01-.06,0-.13.03-.19.04-.05.1-.09.16-.11.65-.15,1.3-.31,1.95-.46.12-.03.27.06.3.19v.05c0,.12-.07.22-.19.25-.64.15-1.29.3-1.95.46h-.05ZM225.1,188.9s-.06,0-.09-.02c-.53-.2-1.07-.4-1.6-.59l-.27-.1c-.06-.03-.12-.07-.14-.13-.03-.06-.03-.13,0-.19.05-.13.19-.2.32-.15.62.23,1.25.46,1.88.69.09.04.16.13.16.24,0,.03,0,.06-.02.08-.03.1-.13.17-.23.17ZM161.39,188.4c-.12,0-.22-.08-.25-.19-.01-.07,0-.14.04-.19.03-.06.09-.1.15-.11.66-.15,1.31-.3,1.95-.45.13-.03.27.06.3.19,0,.01,0,.03,0,.05,0,.12-.08.22-.2.25-.57.13-1.26.28-1.94.44-.03,0-.04,0-.06,0ZM222.28,187.86s-.05,0-.08,0c-.58-.21-1.2-.43-1.88-.67-.13-.05-.2-.19-.15-.32.04-.13.19-.2.31-.16.58.21,1.2.43,1.89.68.1.03.16.12.17.23,0,.03,0,.06-.02.09-.04.1-.13.16-.24.16ZM164.32,187.74c-.12,0-.22-.09-.25-.2,0-.07,0-.13.03-.19.04-.06.1-.09.16-.11.67-.15,1.33-.29,1.95-.43h0c.13-.02.27.06.3.2,0,0,0,.03,0,.05,0,.11-.08.22-.2.24l-.35.08c-.53.11-1.07.23-1.6.35-.02,0-.04.01-.05.01ZM167.25,187.1c-.12,0-.22-.09-.25-.2,0-.07,0-.13.04-.19.03-.05.09-.09.15-.11.73-.15,1.37-.28,1.96-.4h0c.13-.03.27.06.3.19v.04c0,.13-.08.23-.2.25-.72.15-1.33.28-1.95.41-.02.01-.04.01-.05.01ZM219.46,186.86h0s-.06,0-.09,0c-.76-.26-1.35-.46-1.89-.63-.06-.02-.12-.07-.15-.13-.03-.06-.03-.12,0-.19.04-.13.19-.2.31-.16.57.19,1.2.39,1.91.64.09.03.16.12.16.23,0,.03,0,.05,0,.08-.03.1-.13.17-.23.17ZM170.18,186.49c-.12,0-.22-.09-.24-.2-.01-.07,0-.14.04-.19.03-.06.09-.09.16-.11.72-.14,1.33-.26,1.96-.38.12-.03.26.06.29.19,0,.02.01.04.01.05-.01.12-.09.22-.21.25-.65.12-1.31.25-1.96.38-.01.01-.03.01-.05.01ZM216.6,185.93s-.05-.01-.07-.02c-.62-.19-1.26-.38-1.91-.57-.13-.04-.21-.18-.17-.31.03-.13.18-.21.31-.17.62.18,1.26.37,1.91.57h0c.1.04.17.14.17.25,0,.02,0,.04,0,.07-.03.11-.13.18-.24.18ZM173.13,185.91c-.12,0-.22-.08-.25-.2,0-.07,0-.13.04-.19.04-.05.09-.09.16-.1.6-.12,1.24-.24,1.97-.37.14-.02.26.07.29.2v.04c0,.12-.08.22-.19.25h-.01s-.02,0-.03,0c-.69.12-1.32.24-1.93.36h-.05ZM176.08,185.37h0c-.12,0-.23-.09-.25-.21,0-.06,0-.13.04-.18.04-.06.1-.09.16-.11.65-.11,1.31-.22,1.98-.33.13-.03.26.07.29.2v.03h0c0,.13-.09.24-.21.26-.63.1-1.29.22-1.97.34h-.04ZM213.73,185.08s-.05,0-.07-.01c-.66-.18-1.31-.35-1.93-.5-.06,0-.12-.05-.15-.11-.04-.06-.05-.13-.03-.19.03-.13.17-.22.3-.18.58.14,1.2.3,1.94.5h0c.11.04.18.13.18.24,0,.03-.01.05-.01.06-.03.11-.13.19-.24.19ZM179.04,184.87c-.13,0-.23-.09-.25-.21-.02-.14.07-.26.21-.29.77-.12,1.4-.22,1.97-.3.14-.03.27.07.29.21v.03c0,.13-.09.23-.21.25-.66.1-1.32.2-1.97.31h-.04ZM182,184.42c-.12,0-.23-.1-.24-.22,0-.06,0-.13.04-.18.04-.06.1-.09.17-.1.65-.1,1.32-.19,1.98-.28h.03c.13,0,.23.09.25.22v.04c0,.12-.09.22-.21.24-.71.09-1.36.18-1.98.27,0,0-.03,0-.04,0ZM210.82,184.35h-.05c-.7-.16-1.33-.29-1.95-.41-.07-.02-.12-.05-.16-.11-.04-.05-.05-.12-.04-.18.03-.14.16-.23.29-.2.71.13,1.35.27,1.97.41.11.02.19.13.19.25,0,.01,0,.03-.01.05-.02.11-.12.19-.24.19ZM184.97,184.01c-.12,0-.23-.09-.24-.22-.01-.06,0-.13.05-.18.04-.06.1-.09.16-.1.65-.08,1.32-.16,1.99-.23.15-.01.26.08.28.22v.02c0,.13-.09.24-.22.25-.63.07-1.27.15-1.98.24h-.04ZM207.89,183.76h-.05c-.65-.11-1.31-.21-1.96-.3-.07,0-.13-.04-.17-.1-.04-.05-.06-.12-.05-.18.02-.14.14-.24.28-.21.63.08,1.28.18,1.99.3.12.02.2.12.2.25v.04c-.02.12-.12.2-.24.2ZM187.96,183.67c-.13,0-.24-.1-.25-.23,0-.06,0-.13.05-.18.04-.05.1-.09.17-.09.6-.07,1.25-.13,1.99-.2.14-.01.26.09.27.23v.02c0,.13-.09.24-.22.25-.72.06-1.37.13-1.99.19t-.02,0ZM190.94,183.38c-.13,0-.24-.1-.25-.23,0-.06.02-.13.06-.18.05-.05.1-.08.17-.08.62-.06,1.27-.1,2-.15.14-.01.26.09.26.23h0c.01.15-.09.26-.22.27h0c-.63.04-1.29.09-1.99.14h-.02ZM204.92,183.34h-.03c-.67-.08-1.33-.14-1.98-.19-.14,0-.24-.13-.23-.27.01-.13.12-.24.26-.23.68.05,1.35.11,2,.19.13.02.23.13.22.25v.03c0,.12-.12.22-.24.22ZM193.93,183.18c-.13,0-.24-.11-.25-.24,0-.07.02-.13.07-.18.04-.05.1-.08.17-.08.67-.04,1.34-.07,2-.1h0c.13,0,.25.11.25.24v.02c0,.13-.11.24-.24.24-.62.03-1.27.06-1.99.1h-.02ZM201.93,183.09h-.02c-.67-.04-1.34-.06-1.98-.07-.07,0-.13-.02-.18-.07-.04-.05-.07-.11-.07-.18,0-.14.11-.25.25-.25.74.01,1.39.04,2.01.07.14.01.24.12.24.25v.02c0,.13-.12.23-.25.23ZM196.94,183.05h-.01c-.14,0-.25-.1-.25-.24,0-.07.02-.13.07-.18.05-.05.11-.08.18-.08.68-.02,1.35-.03,2-.03.14,0,.25.11.25.25s-.11.25-.25.25c-.66,0-1.33.01-1.99.03h0Z"/>
  <path class="st0" d="M227.76,588.73s-.04,0-.05,0l-.19-.04h0c-.11-.03-.2-.14-.19-.25v-.05c.03-.14.17-.22.3-.19l.2.04c.13.03.22.17.18.3-.02.11-.12.2-.24.2ZM226.59,588.45s-.04,0-.06,0c-.63-.16-1.26-.33-1.93-.53-.11-.04-.18-.13-.18-.24,0-.03,0-.05,0-.08.04-.13.18-.2.31-.16.66.2,1.28.37,1.91.53.14.03.22.17.19.3-.03.11-.13.19-.25.19ZM223.72,587.62s-.06,0-.08-.02c-.59-.19-1.21-.4-1.9-.65-.09-.04-.16-.13-.16-.24,0-.03,0-.06,0-.09.05-.12.2-.19.33-.14.7.25,1.3.46,1.88.65.06.02.11.06.14.12.03.06.03.13.02.19-.04.11-.14.18-.24.18ZM186.73,587.42h-.45c-.53,0-1.05-.01-1.56-.02-.13,0-.24-.12-.24-.25h0c0-.15.11-.25.25-.25h0c.54,0,1.04.02,1.54.02h.45c.14,0,.25.11.25.25s-.11.25-.25.25ZM187.73,587.41h0c-.14,0-.25-.11-.25-.24,0-.07.02-.13.07-.18s.11-.08.18-.08c.65,0,1.32-.02,1.99-.04h.01c.13,0,.24.11.25.24,0,.14-.11.26-.24.26-.66.02-1.33.03-2.01.04h0ZM183.73,587.36h-.01c-.66-.04-1.32-.09-2.01-.15-.13-.02-.22-.12-.22-.25v-.03c0-.13.13-.24.27-.22.61.06,1.28.11,1.98.15.07,0,.13.03.18.08.04.05.06.11.06.18-.01.13-.12.24-.25.24ZM190.74,587.33h0c-.14,0-.25-.1-.25-.24h0c0-.14.1-.25.24-.26.69-.03,1.36-.07,1.98-.11.11,0,.26.09.27.23.01.14-.09.26-.23.27-.63.04-1.31.08-2,.11h0ZM193.72,587.14c-.13,0-.24-.1-.25-.23v-.02c0-.13.1-.24.23-.25.69-.06,1.36-.14,1.97-.22.14-.01.26.08.28.22.02.13-.08.26-.21.28-.63.08-1.3.15-2,.22h-.02ZM180.74,587.1h-.03c-.72-.09-1.37-.18-1.99-.28-.12-.02-.21-.13-.21-.25,0,0,0-.03,0-.04.02-.13.14-.23.28-.21.65.11,1.31.21,1.97.28.14.02.24.14.22.28,0,.13-.12.22-.25.22ZM196.69,586.78c-.12,0-.23-.09-.24-.21,0-.02,0-.03,0-.04,0-.12.09-.22.21-.25h.02c.68-.11,1.34-.24,1.93-.38.13-.03.27.06.3.19,0,.06,0,.13-.03.19-.04.05-.09.09-.16.11-.6.14-1.26.27-1.98.39h-.04ZM177.78,586.65s-.03,0-.05,0c-.65-.12-1.31-.26-1.97-.42-.11-.02-.19-.12-.19-.24,0-.02,0-.04,0-.06.03-.13.16-.22.3-.18.67.16,1.31.29,1.95.41.06,0,.12.05.15.11.04.05.06.12.04.18-.02.12-.12.21-.24.21ZM220.89,586.61s-.06,0-.09,0c-.32-.12-.63-.24-.95-.36-.31-.12-.61-.24-.91-.35-.1-.04-.17-.13-.17-.24,0-.03.01-.06.02-.08.05-.13.2-.2.32-.15l.68.26c.39.15.79.3,1.19.45.13.05.19.19.15.32-.04.1-.14.16-.24.16ZM199.62,586.14c-.11,0-.21-.07-.24-.18,0-.02,0-.05,0-.07,0-.11.08-.21.18-.24.72-.21,1.32-.44,1.83-.69.12-.06.27-.01.33.11.06.13,0,.28-.11.34-.55.27-1.19.51-1.91.72-.02,0-.05,0-.07,0ZM174.85,585.98h-.06c-.62-.17-1.25-.35-1.93-.57-.11-.03-.18-.13-.18-.24,0-.03.01-.05.02-.08.04-.12.18-.19.31-.16.6.19,1.24.38,1.91.56.13.04.21.17.17.31-.03.11-.12.18-.24.18ZM143.03,585.63c-.64,0-1.22-.03-1.73-.09h0c-.06,0-.12-.04-.16-.09-.05-.05-.07-.12-.06-.18.02-.14.14-.24.28-.22.5.05,1.07.08,1.68.08h.29c.14,0,.25.11.25.24,0,.14-.11.26-.25.26h-.29ZM144.32,585.59c-.13,0-.25-.1-.25-.23v-.02c0-.13.1-.24.23-.25.62-.03,1.29-.09,1.98-.17.14-.02.26.08.28.22,0,.13-.08.26-.22.27-.72.09-1.39.15-2,.18h-.02ZM218.09,585.56s-.06,0-.09-.02c-.65-.24-1.26-.45-1.88-.65-.1-.04-.17-.14-.17-.24,0-.03,0-.06,0-.08.04-.13.19-.2.32-.16.6.2,1.22.41,1.9.66.06.02.11.07.14.13.02.06.03.13,0,.19-.03.1-.13.17-.23.17ZM147.3,585.28c-.12,0-.23-.09-.24-.21-.01,0-.01-.03-.01-.04,0-.12.09-.22.21-.24h0s.02,0,.03,0h0c.63-.09,1.28-.21,1.93-.33.13-.04.26.06.29.19.03.14-.06.27-.2.3-.7.14-1.36.25-1.98.34h-.04ZM171.98,585.1s-.05,0-.08,0c-.61-.22-1.23-.45-1.88-.72-.09-.04-.15-.13-.15-.23,0-.04,0-.07.02-.1.05-.12.2-.19.32-.14.57.24,1.19.48,1.86.72.06.02.11.06.14.12.03.06.03.13,0,.19-.03.1-.13.17-.24.17ZM202.35,584.93c-.08,0-.16-.04-.21-.11-.03-.04-.04-.08-.04-.13,0-.09.04-.16.11-.21.58-.41.99-.86,1.23-1.37.06-.12.21-.18.33-.12.06.03.11.08.13.14.02.07.02.13-.01.19-.28.59-.75,1.12-1.4,1.57-.04.03-.09.04-.14.04ZM150.25,584.74c-.11,0-.22-.09-.24-.2-.01-.02-.01-.04-.01-.06.01-.11.08-.21.19-.24h.02c.67-.15,1.31-.31,1.92-.48.12-.03.27.05.3.18.04.13-.04.27-.17.31-.62.17-1.27.33-1.95.48-.02,0-.04,0-.06,0ZM215.25,584.6s-.05,0-.07,0c-.67-.2-1.3-.37-1.92-.51-.11-.03-.19-.13-.19-.24v-.06c.03-.14.17-.23.31-.19.64.15,1.28.32,1.94.52.06.02.12.06.15.12.03.06.04.13.02.19-.04.11-.13.18-.24.18ZM169.2,583.99s-.07,0-.1-.02c-.64-.3-1.25-.6-1.81-.9-.08-.04-.13-.12-.13-.22,0-.04,0-.08.03-.12.06-.11.21-.16.33-.1h0s0,0,.01,0c.55.29,1.14.59,1.76.87.13.06.18.2.13.33-.04.09-.13.15-.23.15ZM153.15,583.98c-.11,0-.2-.07-.23-.18,0-.02-.02-.05-.02-.07,0-.11.08-.21.18-.24.67-.21,1.3-.42,1.88-.64.13-.04.28.03.33.15.04.13-.02.27-.15.32-.59.22-1.23.44-1.91.65-.03,0-.05,0-.08,0ZM212.34,583.87s-.03,0-.05,0c-.63-.13-1.29-.24-1.95-.34h0c-.12-.02-.21-.13-.21-.25v-.04c.02-.13.14-.22.28-.21h0s0,0,.02,0c.66.09,1.32.21,1.96.34.14.03.22.16.2.3-.03.11-.13.2-.25.2ZM209.39,583.39h-.03c-.62-.08-1.29-.14-1.98-.19-.13,0-.24-.12-.23-.25h0c0-.15.13-.24.27-.25.67.05,1.32.11,2,.19.06,0,.12.04.16.09.04.06.06.12.06.19-.02.12-.13.22-.25.22ZM206.4,583.14h-.01c-.7-.03-1.35-.05-1.99-.05h-.01c-.06-.01-.12-.04-.17-.08-.04-.05-.07-.11-.07-.18,0-.13.11-.24.25-.24.65,0,1.3.02,2.01.05.14,0,.25.13.24.27-.01.13-.12.23-.25.23ZM155.98,582.97c-.1,0-.19-.06-.23-.15,0-.04-.02-.07-.02-.1,0-.1.06-.19.15-.23h.01s.02,0,.03-.02c.01,0,.02,0,.02,0,.59-.24,1.21-.46,1.86-.65.13-.03.27.05.31.18.03.13-.04.27-.18.31-.61.17-1.22.38-1.79.62-.01,0-.02,0-.02.02-.02,0-.03,0-.04,0h-.01s-.06.02-.09.02ZM166.53,582.61s-.08,0-.12-.03c-.81-.47-1.26-.81-1.36-.88h-.03c-.06,0-.14-.02-.24-.03-.13-.01-.23-.12-.23-.25v-.02c.02-.14.14-.24.28-.23.11,0,.34.04.36.05l.1.04s0,0,.02,0c.16.12.6.44,1.35.88.06.03.1.08.11.15.02.06,0,.13-.02.19-.05.08-.13.12-.22.12ZM158.84,582.06c-.12,0-.22-.08-.25-.2v-.05c0-.11.08-.22.19-.24.64-.15,1.32-.26,2-.34.14,0,.26.09.27.22.02.14-.08.26-.22.28-.66.08-1.31.18-1.94.32-.02,0-.04,0-.05,0ZM161.8,581.64c-.13,0-.24-.1-.25-.23v-.02c0-.13.1-.24.24-.25.44-.03.88-.04,1.36-.04h.08c.2,0,.38,0,.55,0h.03c.07,0,.13.03.17.08.05.05.07.11.07.18,0,.13-.11.24-.25.24h-.05c-.54-.02-1.25,0-1.93.03h-.02Z"/>
  <path class="st0" d="M124.11,477.41s-.03,0-.05,0c-.11-.02-.21-.04-.31-.06-.08-.02-.16-.03-.24-.05-.11-.02-.2-.12-.2-.24,0-.02,0-.03,0-.05.02-.13.15-.23.29-.2.11.02.22.05.33.07.07.01.15.03.22.04.06.02.12.05.16.11.03.05.05.12.03.19-.02.11-.12.2-.24.2ZM122.58,477.11h-.05c-.68-.13-1.34-.25-1.96-.36h0c-.12-.03-.2-.13-.2-.25,0-.01,0-.03.01-.04.02-.13.15-.22.28-.2h.02c.69.12,1.33.23,1.96.35.13.03.22.16.2.3-.03.11-.13.2-.25.2ZM98.72,476.7h-.23c-.62,0-1.22-.03-1.79-.08-.13-.02-.23-.12-.23-.25v-.03c.02-.13.13-.24.27-.22.58.05,1.16.08,1.75.08h.23c.13,0,.25.11.25.25s-.12.25-.25.25ZM99.72,476.69h0c-.14,0-.25-.11-.25-.25h0c0-.14.11-.25.24-.25.69,0,1.36-.04,1.99-.07h0c.14,0,.24.1.25.24.01.07-.02.13-.06.18-.05.05-.11.08-.18.08-.66.03-1.31.06-1.99.07h0ZM119.62,476.59h-.04c-.67-.11-1.33-.21-1.97-.3-.12,0-.21-.12-.21-.24v-.04c.02-.13.14-.23.28-.21.64.08,1.3.18,1.98.29.07,0,.13.05.17.1.04.06.05.12.04.19-.02.12-.12.21-.25.21ZM102.72,476.56h-.01c-.13,0-.24-.1-.25-.23h.03s-.03,0-.03,0c0-.13.1-.24.22-.25,0,0,.02,0,.03,0h.02c.59-.04,1.2-.09,1.95-.16.13-.02.26.08.27.22,0,.07-.01.13-.06.19-.04.05-.1.08-.16.09-.68.06-1.33.12-2,.16h0ZM95.73,476.49h-.04c-.65-.1-1.31-.24-1.97-.41h-.01c-.11-.03-.18-.13-.18-.25,0-.02,0-.04.01-.06.03-.13.17-.21.3-.18.63.17,1.28.31,1.93.4.06.01.12.05.16.1.04.06.06.12.05.19-.02.12-.13.21-.25.21ZM105.7,476.3c-.13,0-.24-.1-.25-.23v-.02c0-.13.09-.24.22-.25.26-.03.52-.06.78-.09.41-.04.81-.09,1.21-.13.14,0,.26.09.27.23,0,.13-.09.26-.22.27-.63.07-1.28.14-1.99.21h-.02ZM116.65,476.17h-.02c-.69-.08-1.36-.15-1.98-.2-.13,0-.23-.11-.23-.24v-.02c.01-.14.1-.22.25-.23t.02,0s.02,0,.03,0c.63.05,1.29.11,1.97.19.06,0,.12.04.16.1.04.05.06.11.05.18,0,.13-.12.22-.25.22ZM108.7,475.99h-.02c-.13,0-.24-.1-.25-.23v-.03c0-.12.1-.23.23-.24.75-.06,1.39-.1,2-.12h0c.14,0,.25.11.25.24.01.14-.1.25-.24.26-.65.02-1.3.06-1.98.12h0ZM113.67,475.91h0c-.68-.04-1.31-.06-1.95-.06h-.04c-.14,0-.25-.11-.25-.25s.11-.25.25-.25h.04c.66,0,1.3.02,1.97.06.07,0,.13.03.17.08.05.05.07.11.07.18,0,.13-.12.24-.25.24ZM92.82,475.8s-.05,0-.08-.01c-.6-.19-1.22-.42-1.89-.7h-.01c-.09-.05-.14-.13-.14-.23,0-.03,0-.07.02-.1.05-.12.2-.18.32-.13.62.26,1.24.49,1.86.69.06.02.11.06.14.12.03.06.04.13.02.19-.04.1-.13.17-.24.17ZM90.03,474.71s-.07-.01-.1-.02c-.57-.26-1.16-.55-1.81-.89-.08-.04-.13-.13-.13-.22,0-.04,0-.08.03-.12.06-.11.21-.16.33-.1.66.33,1.24.62,1.79.87.06.03.1.08.13.14.02.06.02.13,0,.19-.04.09-.13.15-.23.15ZM87.35,473.37s-.08,0-.11-.03c-.4-.21-.79-.43-1.19-.64-.19-.1-.38-.21-.58-.31-.08-.05-.13-.13-.13-.22,0-.04.01-.09.03-.12.07-.12.22-.17.34-.1l.18.1c.55.29,1.06.57,1.58.84.12.07.17.22.11.34-.05.08-.14.14-.23.14ZM84.71,471.94s-.08,0-.11-.03c-.69-.36-1.25-.65-1.77-.91-.09-.05-.14-.14-.14-.23,0-.04.01-.08.03-.11.06-.12.21-.17.33-.11.53.27,1.1.56,1.78.93.12.06.17.21.1.33-.04.08-.13.13-.22.13ZM82.04,470.58s-.07,0-.11-.02c-.59-.28-1.2-.56-1.81-.82-.09-.04-.15-.13-.15-.23,0-.03,0-.06.02-.09.05-.13.2-.19.33-.14.59.25,1.19.52,1.83.83.12.06.18.21.12.33-.04.09-.13.14-.23.14ZM79.29,469.39s-.06,0-.09-.02c-.59-.24-1.22-.46-1.86-.67,0,0,0,0,0,0-.1-.03-.17-.13-.16-.24,0-.02,0-.04.01-.07.04-.12.17-.19.3-.16h.01s.02,0,.04.02c.65.21,1.28.43,1.86.66.12.05.19.2.14.33-.04.09-.13.16-.24.16ZM76.46,468.41s-.05,0-.07,0c-.64-.19-1.28-.36-1.92-.5-.11-.03-.19-.13-.19-.24v-.06c.04-.14.18-.22.31-.19.64.15,1.29.32,1.94.51.07.02.12.07.15.12.03.06.04.13.02.19-.03.11-.13.18-.24.18ZM73.55,467.69h-.04c-.65-.13-1.31-.24-1.96-.34-.12-.02-.21-.12-.21-.24v-.04c.02-.14.14-.23.28-.21.68.09,1.35.21,1.98.34.07.01.13.05.16.11.04.05.05.12.04.18-.03.12-.13.2-.25.2ZM70.59,467.23s0,0-.02,0c-.65-.07-1.32-.13-1.98-.18h0c-.13,0-.22-.12-.22-.25h0c.01-.15.13-.24.26-.25.69.05,1.36.11,2,.19.14,0,.24.14.23.27-.02.13-.13.23-.26.23ZM67.61,466.99h0c-.65-.03-1.29-.04-1.91-.04h-.08c-.14,0-.25-.11-.25-.25,0-.16.17-.26.33-.25h.12c.58,0,1.18.01,1.81.04.14.01.24.12.24.26,0,.14-.12.24-.25.24ZM64.61,466.95h0c-.65,0-1.33-.03-2-.05-.14,0-.25-.12-.25-.25.01-.14.12-.25.25-.25h.01c.67.03,1.34.04,2,.05.13,0,.24.11.24.25s-.11.25-.25.25ZM61.62,466.87h-.01c-.67-.03-1.32-.07-2-.11-.13,0-.23-.12-.24-.25v-.02c0-.14.13-.23.27-.23.62.04,1.27.07,1.99.11.06,0,.13.03.17.08.05.05.07.11.07.18-.01.13-.12.24-.25.24ZM58.63,466.68h-.02c-.68-.06-1.35-.12-2-.2-.13,0-.22-.12-.22-.25v-.02c.02-.14.13-.22.27-.22,0,0,0,0,0,0h.03c.68.08,1.31.14,1.95.19.14,0,.24.13.23.27,0,.13-.12.23-.25.23ZM55.65,466.36h-.03c-.66-.08-1.32-.18-1.99-.29-.12-.02-.21-.13-.21-.25,0,0,.01-.03.01-.04.02-.13.15-.23.28-.2.63.1,1.29.2,1.97.29.14.01.23.14.22.28-.02.12-.13.21-.25.21ZM52.69,465.9h-.04c-.63-.12-1.28-.25-1.97-.4-.11-.02-.2-.12-.2-.24,0-.02,0-.04.01-.05.03-.13.16-.22.29-.19.68.14,1.32.27,1.95.38.14.03.23.16.21.3-.02.12-.13.2-.25.2ZM49.76,465.3s-.04-.01-.06-.01c-.61-.14-1.25-.29-1.94-.46-.12-.03-.19-.13-.19-.25v-.06c.04-.13.17-.21.3-.18.58.14,1.26.3,1.94.46.07.02.12.06.16.11.04.06.05.13.03.19-.02.11-.13.2-.24.2ZM46.84,464.59h-.05l-.22-.06c-.56-.13-1.15-.28-1.72-.41-.11-.03-.19-.13-.19-.24v-.06c.04-.14.17-.22.3-.19.6.14,1.21.29,1.95.47.06.02.12.06.15.12.03.05.04.12.03.18-.03.11-.13.19-.25.19ZM43.93,463.9s-.03,0-.05,0c-.65-.14-1.28-.27-1.94-.4t0,0c-.11-.02-.2-.12-.2-.24v-.05c.03-.13.16-.23.29-.2,0,0,.02,0,.03,0,.62.11,1.25.24,1.94.4.06.01.12.05.15.11.04.05.05.12.04.18-.03.12-.13.2-.25.2ZM9.06,463.49c-.13,0-.24-.1-.25-.23-.01-.06,0-.13.06-.18.04-.05.1-.08.16-.09h.02c.23-.02.9-.08,1.99-.15.12,0,.25.09.26.23.01.07,0,.13-.06.18-.04.05-.1.08-.17.09-1.24.08-1.91.14-1.98.15h-.03ZM41,463.32h-.04c-.69-.11-1.33-.21-1.97-.29-.13,0-.22-.12-.22-.25v-.03c.02-.13.14-.23.28-.21.62.07,1.27.17,1.99.28.13.03.22.16.2.29-.02.12-.12.21-.24.21ZM12.07,463.27h-.02c-.13,0-.24-.1-.25-.24h0c0-.14.1-.25.24-.26.62-.04,1.29-.08,2-.12h0c.13,0,.24.1.25.23,0,.07-.02.14-.06.19-.05.05-.11.07-.18.08-.79.04-1.48.09-1.99.12h0ZM15.06,463.09h-.01c-.13,0-.24-.1-.25-.23h0c0-.15.1-.26.24-.27.61-.03,1.28-.06,2-.1h0c.13,0,.24.11.25.24,0,.07-.02.13-.07.18-.04.05-.1.08-.17.08-.71.04-1.38.07-2,.1h0ZM18.06,462.95h-.01c-.14,0-.25-.1-.25-.24h0c0-.14.1-.25.24-.26.7-.03,1.43-.06,2-.08h0c.13,0,.24.11.25.25,0,.06-.03.12-.07.17-.05.05-.11.08-.18.08-.56.02-1.29.05-1.99.08h0ZM38.03,462.92h-.03c-.71-.07-1.36-.12-1.98-.16-.13,0-.23-.12-.23-.25v-.02c0-.12.12-.23.25-.23h.04c.63.04,1.27.1,1.97.17.14,0,.24.13.23.27-.02.13-.12.22-.25.22ZM21.05,462.84h0c-.14,0-.25-.11-.25-.24v-.02c0-.13.1-.23.23-.24h.04c.63-.02,1.29-.04,1.97-.06h0c.13,0,.24.11.25.24,0,.14-.11.25-.25.26-.64.02-1.33.04-2,.06h0ZM24.05,462.75h0c-.14,0-.25-.1-.25-.24,0-.14.1-.25.24-.26.65-.01,1.32-.03,2-.04.14,0,.25.11.26.25,0,.14-.11.25-.25.25-.69,0-1.36.03-2,.04h0ZM35.04,462.71h-.01c-.64-.03-1.31-.04-1.99-.05-.06,0-.13-.03-.17-.08-.05-.04-.08-.11-.07-.17,0-.14.11-.25.25-.25.66.01,1.34.02,2,.05.07,0,.13.03.18.08.04.05.06.12.06.18-.01.13-.12.24-.25.24ZM27.05,462.7h0c-.14,0-.25-.12-.25-.25,0-.07.02-.13.07-.18.04-.05.1-.07.17-.07.58,0,1.2-.02,2-.03.14,0,.25.11.26.25,0,.13-.12.25-.25.25-.82,0-1.43.02-2,.03h0ZM30.05,462.66c-.14,0-.25-.11-.25-.25,0-.06.02-.13.07-.17.04-.05.11-.08.17-.08h2.01c.13,0,.25.11.25.25,0,.13-.12.25-.25.25h-2Z"/>
  <path class="st0" d="M267.04,477.89c-.13,0-.24-.1-.25-.22,0-.07,0-.14.05-.19s.1-.08.17-.09c.39-.04.78-.09,1.16-.13.28-.03.55-.06.83-.09.15-.01.26.09.27.22.02.14-.08.26-.22.28-.6.06-1.21.13-1.83.2l-.14.02h-.04ZM270.01,477.56c-.13,0-.24-.1-.25-.22v-.03c0-.12.09-.23.21-.24,0,0,.03,0,.04,0,.67-.07,1.32-.14,1.96-.21.14-.02.26.09.28.22,0,.07-.02.13-.06.19-.04.05-.1.08-.17.09l-.67.07c-.43.05-.87.09-1.32.14h-.02ZM273,477.25c-.13,0-.24-.1-.25-.23v-.02c0-.13.1-.24.23-.25.67-.07,1.34-.14,1.99-.2.13-.02.26.08.27.22s-.09.26-.22.27c-.65.07-1.32.14-1.99.2-.01.01-.02.01-.03.01ZM275.99,476.95c-.13,0-.24-.1-.25-.23h0v-.02c0-.13.09-.24.22-.25.63-.06,1.29-.12,2-.19.15-.02.25.1.27.23,0,.14-.09.26-.23.27-.66.06-1.34.13-1.99.19h-.02ZM278.98,476.68c-.13,0-.24-.1-.26-.23v-.03c0-.12.1-.23.23-.24.68-.06,1.35-.11,2-.16.12,0,.26.1.27.23.01.14-.1.26-.23.27-.64.04-1.28.1-1.98.16h-.03ZM295.95,476.55h-.23c-.55,0-1.14-.02-1.79-.06-.13,0-.23-.12-.23-.25v-.02c0-.13.12-.23.25-.23h0c.63.04,1.25.06,1.84.06h.15c.13,0,.25.11.25.24,0,.14-.11.26-.25.26ZM296.95,476.52c-.14,0-.25-.1-.25-.24t0,0c0-.13.11-.24.24-.25.68-.03,1.33-.09,1.96-.19.14,0,.27.08.29.21.02.14-.08.27-.21.29-.64.09-1.3.16-2.01.19h0ZM281.98,476.45h-.02c-.13,0-.24-.11-.24-.24v-.02c0-.13.1-.23.23-.24.64-.05,1.29-.09,2-.12.13,0,.25.09.26.23s-.1.26-.24.26c-.69.04-1.34.08-1.99.13h0ZM292.95,476.41h-.12c-.08-.02-.17-.02-.26-.03-.5-.05-1.05-.09-1.63-.12h-.01c-.13-.02-.22-.13-.22-.26h0c0-.14.11-.24.25-.24,0,0,0,0,0,0,.01,0,.02,0,.03,0,.6.03,1.14.07,1.62.12.11,0,.22.02.33.03h.02c.14.02.24.13.23.28,0,.12-.12.22-.25.22ZM284.97,476.28h0c-.13,0-.24-.11-.25-.24h0c0-.15.1-.25.23-.26,0,0,0,0,.02,0h.02c.61-.03,1.26-.05,1.97-.07.14,0,.26.11.26.25,0,.13-.11.25-.25.25-.65.02-1.32.04-1.99.07h0ZM289.96,476.22h0c-.55-.02-1.14-.02-1.77-.02h-.22c-.14,0-.25-.12-.25-.25,0-.07.02-.13.07-.18s.11-.07.18-.07h.61c.45,0,.92,0,1.39.02.07,0,.13.03.18.07.05.05.07.12.07.18,0,.14-.12.25-.25.25ZM299.91,476.16c-.12,0-.22-.09-.24-.2,0-.02,0-.04,0-.05,0-.12.09-.22.2-.25.65-.13,1.27-.3,1.9-.52.13-.04.27.03.31.16.05.13-.02.27-.15.32-.65.22-1.29.39-1.95.53-.02,0-.04,0-.06,0ZM302.76,475.28c-.1,0-.19-.06-.23-.15,0-.03-.02-.07-.02-.1,0-.1.07-.19.16-.23.56-.23,1.15-.5,1.8-.83.11-.06.27,0,.33.11.06.13.01.28-.11.34-.68.34-1.26.61-1.82.84t0,0s-.06,0-.1,0ZM305.47,473.99c-.09,0-.17-.05-.22-.13-.02-.04-.03-.08-.03-.12,0-.09.06-.18.14-.22l.66-.36c.36-.19.73-.38,1.1-.58.12-.06.28,0,.34.11s0,.27-.11.34c-.39.2-.78.41-1.15.61-.2.1-.4.21-.6.31,0,.01,0,.01,0,.01-.04.02-.08.03-.12.03ZM308.13,472.6c-.1,0-.18-.05-.22-.14-.02-.03-.03-.07-.03-.11,0-.09.05-.18.14-.22.62-.31,1.22-.58,1.84-.83.12-.05.27.02.32.14.03.06.03.13,0,.19-.02.07-.07.11-.13.14-.58.23-1.17.49-1.8.8,0,0,0,0,0,0-.03.01-.07.02-.11.02ZM310.89,471.43c-.11,0-.21-.07-.24-.16-.01-.03-.02-.06-.02-.09,0-.11.07-.2.17-.23.63-.23,1.28-.43,1.93-.6.12-.04.27.04.3.17.04.14-.04.27-.17.31-.64.17-1.26.36-1.89.59-.03,0-.06,0-.08,0ZM313.76,470.6c-.12,0-.22-.08-.24-.19,0-.03,0-.05,0-.07,0-.11.08-.21.2-.23.63-.15,1.3-.28,1.97-.38.15-.02.27.08.29.21.02.13-.07.26-.21.29-.66.1-1.31.22-1.93.36h0s-.04,0-.06,0ZM316.72,470.09c-.13,0-.24-.09-.26-.22v-.03c0-.12.09-.23.21-.25h.04c.65-.08,1.3-.17,1.95-.25.14-.01.27.09.28.22.02.14-.08.26-.21.28-.67.08-1.33.17-1.99.25h-.02ZM319.69,469.72c-.13,0-.24-.09-.25-.22v-.02c-.01-.13.09-.24.21-.25h0c.66-.08,1.32-.16,1.98-.24.15-.02.27.09.28.22,0,.07,0,.13-.05.19-.04.05-.1.08-.17.09-.76.08-1.39.16-1.98.23h-.03ZM322.67,469.38c-.13,0-.24-.1-.25-.23v-.02c0-.13.09-.24.22-.25h.01c.64-.07,1.31-.14,1.98-.21.13-.02.26.09.27.22.02.14-.08.26-.22.28-.64.06-1.31.13-1.99.21h-.02ZM366.09,469.15h0c-.51-.04-1.01-.07-1.5-.11-.13,0-.23-.12-.23-.25v-.02c.01-.12.12-.23.25-.23h.01s.03,0,.04.01l.29.02c.38.02.78.05,1.17.08.14,0,.24.13.23.27,0,.13-.12.23-.25.23ZM325.65,469.07c-.13,0-.24-.1-.25-.22v-.03c0-.13.1-.24.22-.25.66-.06,1.33-.12,2-.18.17,0,.26.09.27.23.01.14-.09.26-.23.27-.64.05-1.29.11-1.98.18h-.03ZM363.6,468.98s0,0,0,0c-.68-.04-1.35-.08-2-.12-.13,0-.24-.12-.24-.25h0c.01-.15.13-.24.27-.25.71.04,1.36.08,2,.13.06,0,.12.03.17.08.04.05.06.12.06.18,0,.13-.12.24-.25.24ZM328.65,468.81h-.01c-.13,0-.24-.11-.25-.24v-.02c0-.13.1-.23.23-.24.7-.06,1.36-.11,1.99-.15.12,0,.26.09.27.23,0,.07-.02.13-.06.18-.05.05-.11.08-.17.09-.68.04-1.34.09-1.99.15h0ZM360.6,468.79h0c-.68-.04-1.35-.08-2-.11-.14,0-.24-.12-.24-.25v-.02c0-.13.13-.23.26-.23.68.03,1.33.07,2,.11.07,0,.13.03.17.08.05.05.07.12.07.18-.01.14-.12.24-.26.24ZM357.61,468.62h-.01c-.59-.03-1.21-.06-2-.09-.13,0-.24-.12-.24-.25h0c0-.15.12-.25.25-.25h.05c.64.03,1.3.06,1.96.09.07.01.13.04.18.09.04.05.06.11.06.18-.01.13-.12.23-.25.23ZM331.64,468.59h0c-.14,0-.24-.1-.25-.23v-.02c0-.12.09-.23.22-.24.02,0,.03,0,.05,0,.58-.03,1.2-.07,1.96-.11.13,0,.26.1.26.24,0,.06-.02.13-.06.18-.05.05-.11.08-.17.08-.68.03-1.35.07-2,.11h0ZM354.61,468.49h-.01c-.61-.03-1.24-.05-1.99-.08-.14,0-.24-.11-.24-.25,0,0,0,0,0-.02,0-.13.11-.23.24-.23h0c.66.02,1.33.05,2.01.08.13,0,.24.12.23.26,0,.13-.11.24-.25.24ZM334.63,468.43h0c-.13,0-.24-.11-.25-.24h0c0-.14.11-.25.24-.26.74-.03,1.4-.06,2-.08h0c.14,0,.25.11.25.25,0,.13-.1.25-.24.25-.59.02-1.23.05-2,.08h0ZM351.62,468.37h0c-.68-.02-1.35-.04-2-.05h0c-.07,0-.13-.03-.17-.08-.05-.05-.07-.11-.07-.18,0-.14.11-.24.25-.24h0c.65,0,1.32.03,1.99.06.07,0,.13.02.18.07.04.05.07.12.07.18,0,.14-.12.24-.25.24ZM337.63,468.32h0c-.13,0-.24-.1-.25-.24h0c0-.15.11-.25.24-.26.74-.02,1.39-.04,2-.05.15,0,.26.11.26.25s-.11.25-.25.25c-.66.02-1.32.03-1.98.05h0ZM348.62,468.29h0c-.6,0-1.25-.02-2-.03-.06,0-.12-.03-.17-.08-.05-.04-.07-.11-.07-.17,0-.14.11-.25.25-.25.57,0,1.19.02,2,.04.14,0,.25.11.25.25,0,.14-.12.24-.25.24ZM340.62,468.26h0c-.14,0-.25-.11-.25-.25s.11-.25.25-.25c.59,0,1.29-.02,2-.02.14,0,.25.11.25.25s-.11.25-.25.25c-.73,0-1.38.01-2,.02ZM345.62,468.25h0c-.59-.01-1.21-.01-2-.01-.14,0-.25-.11-.25-.25s.11-.25.25-.25c.62,0,1.28,0,2,.01.14,0,.25.11.25.25s-.12.25-.25.25Z"/>
  <path class="st1" d="M252.4,72.16c21.75,45.29,38.94,119.49,46.06,210.46,7.13,90.97-4.23,141.28-15.53,174.81-11.3,33.54-19.6,65.68-19.6,65.68l-11.9,1.45s21.89-54.34,33.2-124.25c11.31-69.91,7.17-101.35.64-156.68-6.52-55.34-9.81-83.26-16.55-111.01-6.74-27.75-16.33-60.47-16.33-60.47Z"/>
  <path class="st1" d="M137.97,84.45c-25.36,52.29-28.33,142.28-31.18,204.89-2.84,62.6,1.63,133.03,3.3,174.67,1.68,41.64,4.6,58.55,4.6,58.55l15.49,2.81s-14.12-99.8-14.52-194.54,3.93-198.49,22.31-246.39Z"/>
  <path class="st1" d="M216.06,561.44c-4.17,6.57-8.54,25.05-8.54,25.05h-5.02s3.98-11.04,7.05-16.77c3.07-5.73,6.51-8.28,6.51-8.28Z"/>
  <path class="st1" d="M166.83,584.53c-3.12-6.24-5.21-11.89-8.9-15.24-.89.71-.33,3.43,1.76,7.56,2.1,4.12,2.05,8.14,2.05,8.14l5.66.17-.58-.62Z"/>
</svg>