<?xml version="1.0" encoding="UTF-8"?>
<svg id="Livello_2" xmlns="http://www.w3.org/2000/svg" version="1.1" viewBox="0 0 756.78 679.7">
  <!-- Generator: Adobe Illustrator 29.8.1, SVG Export Plug-In . SVG Version: 2.1.1 Build 2)  -->
  <defs>
    <style>
      .st0 {
        fill: #004fff;
      }

      .st1 {
        stroke: #000;
        stroke-miterlimit: 10;
      }

      .st1, .st2 {
        fill: none;
      }

      .st3 {
        fill: #ffda00;
      }

      .st4 {
        fill: #ff00f9;
      }

      .st5 {
        fill: red;
      }

      .st6 {
        fill: #131211;
        opacity: .14;
      }

      .st2 {
        stroke: #131211;
        stroke-linecap: round;
        stroke-linejoin: round;
        stroke-width: 1.2px;
      }
    </style>
  </defs>
  <path class="st1" d="M56.73,397.26s-.26.47-.78,1.32l-.05-2.39c.55.69.83,1.07.83,1.07Z"/>
  <path class="st0" d="M152.58,434.67c1.59,60.05,4.08,88.31,13.32,116.22-.03.06-.08.13-.12.2-1.31,2.42-2.95,5.5-4.69,8.87-.04.08-.09.15-.13.24-3.39,6.52-7.17,14.13-9.78,20.36-5.87,13.97-12.02,26.83-18.87,30.53,0,0-7.26-.06-18.45-3.42-11.17-3.35-27.38-14.54-48.63-16.36-11.03-.98-22.22-.42-22.22-.42-8.38-22.08-10.62-69.03-5.02-143.92,5.59-74.91,32.56-160.28,61.48-222.75,11.9-25.7,23.88-46.85,36.62-65.07,17.06,6.11,36.09,18.27,42.5,23.51-5.56,23.63-10.98,48.14-14.28,78.46-5.87,53.94-13.69,99.5-11.73,173.56Z"/>
  <path class="st4" d="M132.31,611.09s-2.38,1.33-6.01,13.07c-2.41,7.81-5.45,17.11-7.21,22.46-.87,2.62-3.46,4.26-6.2,3.94-5.2-.62-14.89-2.11-30.18-5.72-17.62-4.16-32.86-8.87-40.25-11.27-2.72-.89-4.39-3.62-3.93-6.46,1.39-8.45,4.08-25.9,4.49-36.21,0,0,11.18-.56,22.22.42,21.24,1.82,37.45,13.01,48.63,16.36,11.18,3.35,18.45,3.42,18.45,3.42Z"/>
  <path class="st3" d="M592.47,261.12c5.87,53.94,13.7,99.5,11.74,173.56-1.59,60.05-4.09,88.31-13.32,116.22-2.16,6.51-4.68,13.01-7.65,19.88-22.78-6.98-70.85-17.04-204.85-17.04s-182.08,10.06-204.86,17.04c-2.96-6.88-5.49-13.37-7.64-19.88-9.24-27.91-11.73-56.17-13.32-116.22-1.96-74.06,5.86-119.61,11.73-173.56,3.3-30.33,8.72-54.83,14.28-78.46-6.41-5.24-25.44-17.4-42.5-23.51,18.23-26.07,38.04-46.13,61.48-64.88,39.82-31.86,68.75-47.79,112.83-65.17,0,0,16.41,30.4,67.99,30.44,51.57-.03,67.98-30.44,67.98-30.44,44.1,17.38,73.02,33.31,112.84,65.17,23.44,18.75,43.25,38.81,61.48,64.88-17.05,6.11-36.09,18.27-42.5,23.51,5.56,23.63,10.97,48.14,14.27,78.46Z"/>
  <path class="st0" d="M713.77,590.9s-11.17-.56-22.22.42c-21.23,1.82-37.44,13.01-48.63,16.36-10.87,3.27-18.05,3.41-18.44,3.42h-.01c-6.85-3.72-12.98-16.57-18.86-30.53-2.61-6.22-6.4-13.83-9.78-20.36-.04-.09-.09-.16-.13-.24-1.75-3.37-3.39-6.45-4.69-8.87-.04-.08-.09-.14-.12-.2,9.22-27.91,11.73-56.17,13.32-116.22,1.96-74.06-5.87-119.61-11.74-173.56-3.3-30.33-8.71-54.83-14.27-78.46,6.41-5.24,25.45-17.4,42.5-23.51,12.74,18.22,24.72,39.37,36.62,65.07,28.93,62.47,55.89,147.84,61.48,222.75,5.58,74.9,3.35,121.84-5.04,143.92Z"/>
  <path class="st4" d="M714.32,633.57c-7.39,2.4-22.63,7.11-40.24,11.27-15.29,3.61-24.98,5.1-30.18,5.72-2.75.32-5.34-1.32-6.2-3.94-1.77-5.35-4.8-14.65-7.22-22.46-3.63-11.74-6.01-13.07-6.01-13.07h.01c.39-.01,7.56-.15,18.44-3.42,11.18-3.35,27.39-14.54,48.63-16.36,11.05-.98,22.22-.42,22.22-.42.42,10.31,3.11,27.76,4.49,36.21.47,2.84-1.2,5.57-3.93,6.46Z"/>
  <path class="st4" d="M583.24,570.78c-4.75,9.78-14.39,39.26-24.87,37.87-10.49-1.4-79.51-11.32-179.98-11.32s-169.51,9.92-179.98,11.32c-10.48,1.39-20.12-28.09-24.88-37.87,22.78-6.98,70.85-17.04,204.86-17.04s182.07,10.06,204.85,17.04Z"/>
  <line class="st2" x1="136.09" y1="159.15" x2="136.08" y2="159.15"/>
  <path class="st6" d="M152.38,434.67c1.6,60.46,4.12,88.7,13.52,116.8h0c-.14.24-4.66,7.83-9.6,17.56-29.34-90.75-16.36-171.67-7.14-266.41,9.22-94.75,25.57-142.54,41.5-175.93-8.1,45-20.68,80.49-26.55,134.43-5.87,53.94-13.69,99.5-11.74,173.56Z"/>
  <path class="st2" d="M152.58,434.67c1.59,60.05,4.08,88.31,13.32,116.22-.03.06-.08.13-.12.2-1.31,2.42-2.95,5.5-4.69,8.87-.04.08-.09.15-.13.24-3.39,6.52-7.17,14.13-9.78,20.36-5.87,13.97-12.02,26.83-18.87,30.53,0,0-7.26-.06-18.45-3.42-11.17-3.35-27.38-14.54-48.63-16.36-11.03-.98-22.22-.42-22.22-.42-8.38-22.08-10.62-69.03-5.02-143.92,5.59-74.91,32.56-160.28,61.48-222.75,11.9-25.7,23.88-46.85,36.62-65.07,17.06,6.11,36.09,18.27,42.5,23.51-5.56,23.63-10.98,48.14-14.28,78.46-5.87,53.94-13.69,99.5-11.73,173.56Z"/>
  <path class="st2" d="M132.31,611.09s-2.38,1.33-6.01,13.07c-2.41,7.81-5.45,17.11-7.21,22.46-.87,2.62-3.46,4.26-6.2,3.94-5.2-.62-14.89-2.11-30.18-5.72-17.62-4.16-32.86-8.87-40.25-11.27-2.72-.89-4.39-3.62-3.93-6.46,1.39-8.45,4.08-25.9,4.49-36.21,0,0,11.18-.56,22.22.42,21.24,1.82,37.45,13.01,48.63,16.36,11.18,3.35,18.45,3.42,18.45,3.42Z"/>
  <path class="st2" d="M592.47,261.12c5.87,53.94,13.7,99.5,11.74,173.56-1.59,60.05-4.09,88.31-13.32,116.22-2.16,6.51-4.68,13.01-7.65,19.88-22.78-6.98-70.85-17.04-204.85-17.04s-182.08,10.06-204.86,17.04c-2.96-6.88-5.49-13.37-7.64-19.88-9.24-27.91-11.73-56.17-13.32-116.22-1.96-74.06,5.86-119.61,11.73-173.56,3.3-30.33,8.72-54.83,14.28-78.46-6.41-5.24-25.44-17.4-42.5-23.51,18.23-26.07,38.04-46.13,61.48-64.88,39.82-31.86,68.75-47.79,112.83-65.17,0,0,16.41,30.4,67.99,30.44,51.57-.03,67.98-30.44,67.98-30.44,44.1,17.38,73.02,33.31,112.84,65.17,23.44,18.75,43.25,38.81,61.48,64.88-17.05,6.11-36.09,18.27-42.5,23.51,5.56,23.63,10.97,48.14,14.27,78.46Z"/>
  <path class="st2" d="M713.77,590.9s-11.17-.56-22.22.42c-21.23,1.82-37.44,13.01-48.63,16.36-10.87,3.27-18.05,3.41-18.44,3.42h-.01c-6.85-3.72-12.98-16.57-18.86-30.53-2.61-6.22-6.4-13.83-9.78-20.36-.04-.09-.09-.16-.13-.24-1.75-3.37-3.39-6.45-4.69-8.87-.04-.08-.09-.14-.12-.2,9.22-27.91,11.73-56.17,13.32-116.22,1.96-74.06-5.87-119.61-11.74-173.56-3.3-30.33-8.71-54.83-14.27-78.46,6.41-5.24,25.45-17.4,42.5-23.51,12.74,18.22,24.72,39.37,36.62,65.07,28.93,62.47,55.89,147.84,61.48,222.75,5.58,74.9,3.35,121.84-5.04,143.92Z"/>
  <path class="st2" d="M714.32,633.57c-7.39,2.4-22.63,7.11-40.24,11.27-15.29,3.61-24.98,5.1-30.18,5.72-2.75.32-5.34-1.32-6.2-3.94-1.77-5.35-4.8-14.65-7.22-22.46-3.63-11.74-6.01-13.07-6.01-13.07h.01c.39-.01,7.56-.15,18.44-3.42,11.18-3.35,27.39-14.54,48.63-16.36,11.05-.98,22.22-.42,22.22-.42.42,10.31,3.11,27.76,4.49,36.21.47,2.84-1.2,5.57-3.93,6.46Z"/>
  <path class="st2" d="M190.86,126.69c-3.55,19.69-7.95,37.56-12.27,55.97"/>
  <path class="st2" d="M565.92,126.69c3.55,19.69,7.95,37.56,12.28,55.97"/>
  <path class="st2" d="M583.24,570.78c-4.75,9.78-14.39,39.26-24.87,37.87-10.49-1.4-79.51-11.32-179.98-11.32s-169.51,9.92-179.98,11.32c-10.48,1.39-20.12-28.09-24.88-37.87,22.78-6.98,70.85-17.04,204.86-17.04s182.07,10.06,204.85,17.04Z"/>
  <g>
    <path class="st5" d="M137.35,606.94s-.74,0-2.02-.07c-.14,0-.24-.13-.24-.27,0-.13.12-.23.27-.23,1.04.05,1.7.06,1.92.07h.07c.13,0,.25.11.25.25,0,.14-.12.25-.25.25ZM134.33,606.81h0v-.02.02h-.04c-.6-.04-1.27-.09-1.96-.14-.07,0-.13-.04-.17-.09-.05-.05-.07-.12-.06-.19.01-.13.12-.25.27-.22.66.05,1.31.1,1.99.14.13,0,.23.12.23.26h0c-.01.14-.12.24-.25.24h-.01ZM131.35,606.58s-.02,0-.03,0c-.53-.05-1.25-.12-1.99-.21-.14,0-.23-.14-.22-.27.02-.14.14-.23.28-.22.69.08,1.36.15,1.98.21.13,0,.23.11.23.24v.03c-.02.13-.12.23-.25.23ZM128.36,606.25s-.02,0-.03,0c-.67-.08-1.34-.18-1.98-.27-.14-.02-.23-.15-.21-.29.01-.13.14-.23.28-.21.66.1,1.32.19,1.96.27h.02c.12.02.22.13.22.26v.02c-.02.13-.13.23-.26.23ZM125.39,605.82h-.03s-.02,0-.02,0c-.61-.09-1.25-.2-1.96-.33-.07-.01-.13-.05-.17-.11-.03-.05-.05-.12-.03-.18.02-.14.15-.24.29-.2.64.11,1.3.23,1.96.33.12.02.21.13.21.25v.04c-.02.12-.12.21-.25.21ZM122.44,605.3s-.04,0-.05,0c-.63-.12-1.29-.25-1.97-.4-.13-.03-.22-.16-.19-.3.03-.13.17-.22.3-.19.61.13,1.25.27,1.96.4.11.03.2.13.2.25,0,.01,0,.03-.01.05-.02.11-.12.2-.24.2ZM119.5,604.67h-.05c-.6-.14-1.24-.3-1.95-.48-.07-.02-.12-.06-.16-.12-.03-.06-.04-.12-.02-.19.03-.13.17-.21.3-.18.62.16,1.26.32,1.94.48.11.02.19.12.19.24v.06c-.03.11-.13.19-.25.19ZM116.59,603.93h-.06c-.55-.15-1.03-.29-1.48-.43l-.45-.14c-.13-.04-.21-.18-.17-.31.05-.13.19-.21.32-.16.15.04.3.09.45.13.45.14.93.28,1.46.43.11.02.18.12.18.24,0,.02,0,.04-.01.06-.03.11-.12.18-.24.18ZM113.72,603.06s-.05,0-.08-.01c-.6-.21-1.21-.43-1.89-.69-.13-.05-.19-.2-.14-.32.05-.13.2-.19.32-.15.63.25,1.26.48,1.87.69.1.03.17.12.17.23,0,.03,0,.06,0,.08-.04.1-.13.17-.24.17ZM110.91,602.01s-.06,0-.09-.02c-.55-.22-1.16-.47-1.85-.77-.06-.02-.11-.07-.14-.14-.02-.06-.02-.13.01-.19.05-.12.2-.18.33-.13.62.27,1.24.53,1.84.77.09.03.15.13.15.23,0,.03,0,.06,0,.09-.04.1-.14.16-.24.16ZM108.15,600.85s-.07-.01-.1-.02h-.01s0,0,0,0c-.53-.23-1.1-.49-1.81-.81-.13-.05-.18-.2-.13-.33.06-.12.21-.18.33-.12.72.32,1.3.58,1.83.81h0c.08.04.14.13.14.23,0,.03-.01.06-.02.09-.04.1-.13.16-.23.16ZM105.41,599.62s-.07,0-.11-.02c-.41-.19-.83-.38-1.25-.57l-.57-.26c-.06-.03-.1-.08-.13-.14-.02-.06-.02-.13.01-.19.05-.12.21-.18.33-.12h.02c.62.29,1.21.56,1.8.82.09.05.15.13.15.23,0,.03,0,.07-.03.11-.04.08-.13.14-.22.14ZM102.68,598.38s-.07,0-.11-.03l-.35-.16c-.48-.22-.97-.44-1.46-.67-.13-.06-.18-.21-.13-.33.06-.12.21-.18.33-.12.3.13.6.27.89.4.31.14.62.29.93.43.09.04.15.12.15.22,0,.04,0,.08-.03.11-.03.09-.12.15-.22.15ZM99.95,597.13s-.07,0-.11-.02l-.25-.12c-.52-.23-1.04-.47-1.57-.7-.12-.06-.18-.21-.12-.33.05-.13.2-.19.33-.13.61.27,1.22.55,1.82.82.09.04.15.13.15.23,0,.04,0,.07-.02.1-.04.09-.13.15-.23.15ZM97.21,595.9s-.07,0-.1-.02c-.57-.25-1.17-.51-1.83-.8-.06-.03-.11-.08-.14-.14-.02-.06-.02-.13.01-.19.05-.12.2-.18.33-.13.58.25,1.15.5,1.83.8.09.04.15.13.15.23,0,.04-.01.07-.02.1-.04.09-.13.15-.23.15ZM94.46,594.71s-.07,0-.1-.02c-.62-.26-1.24-.52-1.84-.77-.13-.05-.19-.2-.14-.33.05-.12.2-.18.33-.13.71.29,1.29.53,1.83.76.01,0,.01.01.01.01.1.04.16.13.16.23,0,.03-.01.07-.02.1-.04.09-.13.15-.23.15ZM91.68,593.56s-.06,0-.09-.01c-.69-.28-1.3-.52-1.86-.73-.13-.05-.19-.2-.14-.32.04-.13.2-.2.32-.15.59.23,1.22.47,1.86.73,0,0,0,0,0,0,.09.04.15.13.15.23,0,.03,0,.07,0,.1-.04.09-.13.15-.24.15ZM88.89,592.48s-.06-.01-.09-.02c-.63-.23-1.26-.46-1.88-.68-.13-.05-.2-.19-.15-.32.04-.12.19-.2.32-.15.69.24,1.31.47,1.88.69.1.03.17.13.17.23,0,.03,0,.06-.02.09-.04.09-.13.16-.23.16ZM86.06,591.47s-.05,0-.08-.02c-.7-.24-1.32-.45-1.89-.63-.13-.04-.21-.18-.16-.31.04-.13.18-.21.31-.16.57.18,1.17.38,1.9.63t.01,0c.1.03.16.12.16.22,0,.03,0,.06,0,.09-.04.1-.13.17-.24.17ZM83.21,590.53s-.04,0-.06,0h-.01s-.02-.01-.03-.01c-.75-.23-1.33-.4-1.88-.56-.14-.04-.21-.18-.18-.31.04-.13.18-.21.31-.17.72.21,1.32.38,1.93.57.1.04.17.13.17.24,0,.03,0,.05-.01.08-.03.1-.13.17-.24.17ZM80.33,589.69s-.04,0-.06,0c-.74-.2-1.36-.36-1.93-.51-.14-.03-.22-.17-.18-.3.03-.13.17-.21.3-.18.62.15,1.27.32,1.94.51.11.03.18.13.18.24,0,.02,0,.04,0,.06-.03.11-.13.19-.24.19ZM77.43,588.94h-.07c-.62-.15-1.27-.3-1.94-.44-.06-.02-.12-.05-.15-.11-.04-.06-.05-.12-.04-.19.03-.13.17-.22.3-.19.65.14,1.31.29,1.95.44.11.03.19.12.2.24,0,.02,0,.04,0,.06-.03.11-.13.19-.24.19ZM74.5,588.3h-.05c-.63-.13-1.27-.24-1.96-.36-.07-.02-.13-.05-.16-.11-.04-.05-.06-.12-.05-.18.03-.14.16-.23.29-.21.74.13,1.38.25,1.97.37.12.02.21.12.21.24,0,.02-.01.04-.01.05-.02.12-.13.2-.24.2ZM71.54,587.78h-.04c-.66-.11-1.32-.2-1.97-.29-.13,0-.23-.14-.22-.28.02-.13.14-.23.29-.21.67.08,1.33.18,1.97.28h0c.12.02.21.13.21.25v.04c-.02.12-.12.21-.25.21ZM68.57,587.37h-.03c-.67-.08-1.34-.14-1.98-.2-.14,0-.24-.13-.23-.27.01-.14.13-.22.27-.23.66.06,1.33.13,2,.2.13.02.22.13.22.26v.02c-.02.13-.12.22-.25.22ZM65.57,587.09s-.03,0-.04,0c-.63-.05-1.29-.1-1.96-.14-.13,0-.24-.13-.23-.27,0-.13.12-.22.27-.23.65.04,1.32.09,2,.15h0c.12.01.22.12.22.25v.02c-.02.13-.13.22-.26.23h0ZM62.58,586.88h-.02c-.68-.04-1.35-.08-1.98-.11-.14-.01-.24-.12-.24-.26,0-.14.12-.24.26-.24h.01c.69.03,1.36.07,2,.11h0c.12.01.22.12.22.25h0c-.01.14-.11.25-.25.25h-.01ZM59.59,586.73h0c-.67-.03-1.35-.06-2-.08-.07,0-.13-.03-.18-.08-.04-.05-.07-.11-.06-.18,0-.13.11-.24.24-.24h.02c.66.02,1.34.05,2,.08.13,0,.24.11.24.24v.02c0,.13-.12.24-.26.24ZM56.59,586.62h0c-.56-.02-1.11-.03-1.65-.05h-.35c-.07,0-.13-.03-.17-.08-.05-.05-.07-.11-.07-.18,0-.13.11-.24.24-.24h0c.68,0,1.39.03,2,.05.14,0,.24.11.25.24h0c0,.15-.12.26-.26.26ZM41.49,586.59h0c-.13,0-.24-.11-.25-.25,0-.06.02-.13.07-.18.05-.04.11-.07.18-.07h0s.03,0,.11,0h0c.14,0,.25.11.25.25h0c0,.14-.11.25-.24.25-.15,0-.11,0-.11,0ZM42.6,586.56h0c-.13,0-.25-.11-.25-.25s.11-.25.25-.25c.49-.01,1.1-.02,2-.03.14,0,.25.11.25.24,0,.14-.11.25-.24.26-.67,0-1.33.02-2,.03ZM53.6,586.55h0c-.7,0-1.37-.02-2-.03-.14,0-.25-.11-.25-.25,0-.14.12-.25.25-.25.66,0,1.33.02,2.01.03.06,0,.13.02.17.07.05.05.08.11.08.18,0,.14-.12.25-.25.25ZM45.6,586.52h0c-.14,0-.26-.11-.26-.25,0-.07.03-.13.08-.18.04-.05.1-.07.17-.07.72-.01,1.37-.01,2-.02.14,0,.25.12.25.25,0,.14-.11.25-.25.25-.76,0-1.41,0-1.99.02ZM50.59,586.51h0c-.69,0-1.36,0-2,0-.13,0-.25-.11-.25-.25,0-.13.12-.25.25-.25.69,0,1.36,0,2.01,0,.13,0,.25.11.25.25,0,.14-.12.25-.26.25Z"/>
    <path class="st5" d="M179.35,178.86s-.1-.01-.15-.05c-.45-.34-.97-.73-1.59-1.18h-.01c-.06-.05-.1-.13-.1-.21,0-.05,0-.1.04-.15.08-.11.25-.13.35-.05.55.39,1.09.79,1.62,1.19.1.09.12.25.04.36-.05.06-.12.09-.2.09ZM176.93,177.08s-.1,0-.14-.04c-.55-.39-1.1-.78-1.64-1.15h-.01c-.06-.05-.1-.12-.1-.2,0-.05.02-.1.05-.14.07-.11.22-.14.34-.07h0s.02.01.03.02c.52.36,1.06.73,1.62,1.13.11.08.14.24.06.35-.05.07-.13.1-.21.1ZM174.46,175.37c-.05,0-.09,0-.13-.04-.58-.38-1.12-.75-1.67-1.11-.07-.04-.11-.12-.11-.2,0-.05,0-.1.04-.14.08-.12.24-.15.35-.07.68.44,1.19.79,1.67,1.11.11.07.14.23.06.34-.04.07-.12.11-.21.11ZM171.96,173.72c-.05,0-.09-.02-.13-.04-.5-.33-1.06-.68-1.68-1.08-.08-.05-.12-.13-.12-.22,0-.05,0-.09.04-.13.07-.11.23-.15.34-.07.65.41,1.19.75,1.69,1.08.12.07.15.22.07.34-.04.07-.12.12-.21.12ZM169.43,172.1s-.09,0-.13-.04c-.59-.37-1.15-.71-1.7-1.05-.07-.04-.12-.13-.12-.21,0-.05,0-.09.04-.13.07-.12.23-.16.34-.08.53.32,1.09.66,1.71,1.05.05.03.09.09.11.15.01.07,0,.14-.04.19-.04.08-.12.12-.21.12ZM166.88,170.53c-.05,0-.09-.02-.13-.04-.57-.35-1.15-.69-1.72-1.03-.07-.04-.12-.12-.12-.21,0-.05.01-.09.03-.13.07-.11.23-.16.35-.09.57.34,1.14.68,1.72,1.03.11.07.15.23.08.35-.05.07-.13.12-.21.12ZM164.3,168.99s-.09-.01-.13-.03c-.66-.39-1.21-.71-1.73-1.01-.07-.04-.12-.12-.12-.21,0-.04,0-.09.03-.13.06-.11.22-.16.34-.09h0s.02.01.02.01c.61.35,1.21.7,1.71.99.06.04.1.09.12.16.02.06.01.13-.03.19-.04.07-.12.12-.21.12ZM161.7,167.49s-.09-.01-.13-.03c-.54-.31-1.11-.63-1.74-.98-.08-.04-.13-.13-.13-.22,0-.04.01-.08.03-.12.07-.11.22-.16.34-.1.64.36,1.27.71,1.75.98.12.07.16.22.1.34-.05.08-.13.13-.22.13ZM159.07,166.03s-.08-.01-.11-.03c-.57-.31-1.17-.63-1.76-.95-.08-.04-.14-.13-.14-.22,0-.04.01-.08.03-.12.07-.12.22-.17.34-.1.58.31,1.17.63,1.76.95.06.03.11.09.12.15.02.07.02.13-.02.19-.04.08-.12.13-.22.13ZM156.43,164.61s-.08-.01-.12-.03c-.56-.29-1.15-.6-1.77-.92-.08-.04-.13-.13-.13-.22,0-.04,0-.08.02-.12.06-.11.22-.17.33-.11h.01s0,0,.02,0c.51.27,1.07.56,1.76.92.06.03.1.08.12.15.02.06,0,.13-.02.19-.04.08-.13.13-.22.13ZM153.76,163.23h0s-.07,0-.11-.02c-.63-.32-1.22-.62-1.79-.9,0,0-.01,0-.01,0-.08-.04-.13-.12-.13-.22,0-.03.01-.07.03-.1.06-.12.21-.18.33-.12.59.29,1.2.6,1.8.9.06.03.1.08.12.15.02.06.02.13-.01.19-.05.08-.13.13-.23.13ZM151.07,161.9s-.07-.01-.11-.03c-.6-.29-1.21-.58-1.8-.86-.09-.04-.14-.13-.15-.22,0-.04.01-.08.03-.11.06-.12.21-.18.33-.12.62.29,1.23.58,1.81.86.06.03.11.08.13.14.02.07.02.14,0,.2-.05.08-.13.14-.23.14ZM148.36,160.61s-.07-.01-.11-.02c-.61-.29-1.23-.57-1.81-.83-.09-.04-.15-.13-.15-.23,0-.03.01-.07.02-.1.05-.12.2-.18.33-.12.62.27,1.23.55,1.82.82.06.03.11.08.13.14.03.07.02.14,0,.2-.05.08-.13.14-.23.14ZM145.62,159.38s-.06,0-.09-.02c-.69-.3-1.29-.55-1.84-.79-.09-.03-.15-.12-.15-.23,0-.03,0-.06.02-.09.05-.13.2-.19.32-.14.55.23,1.13.48,1.85.79.12.06.18.21.12.33-.04.09-.13.15-.23.15ZM142.86,158.21s-.06,0-.09-.02c-.6-.24-1.23-.49-1.86-.74-.1-.04-.16-.13-.16-.24,0-.03,0-.06.02-.08.05-.13.2-.2.32-.15.57.22,1.18.47,1.87.75.13.05.19.2.13.33-.04.09-.13.15-.23.15ZM140.07,157.11s-.06-.01-.09-.02c-.63-.24-1.26-.47-1.86-.69h0c-.13-.05-.2-.19-.15-.32.04-.12.19-.2.32-.15.63.23,1.26.46,1.88.7.06.02.11.07.14.13s.03.13,0,.19c-.03.09-.13.16-.23.16Z"/>
    <path class="st5" d="M176.83,186.79c-.06,0-.11-.02-.16-.05-.14-.12-.28-.24-.43-.36l-.11-.08c-.06-.05-.1-.12-.1-.19,0-.06.02-.12.06-.16.08-.11.24-.13.35-.04.2.16.38.3.55.44.1.09.12.24.03.35-.05.06-.12.09-.19.09ZM175.49,185.74s-.11-.02-.15-.05c-.48-.37-1.02-.77-1.6-1.19-.07-.05-.1-.12-.11-.2,0-.06.02-.11.05-.15.08-.11.24-.14.35-.06.59.43,1.14.83,1.61,1.2.06.04.09.1.1.17.01.06,0,.13-.05.18-.05.06-.12.1-.2.1ZM173.07,183.96s-.1-.02-.14-.05c-.54-.38-1.09-.76-1.64-1.14-.07-.05-.11-.12-.11-.21,0-.05.02-.09.04-.14.08-.1.24-.14.35-.07h0s.02.02.02.02c.54.37,1.08.75,1.63,1.14.11.08.14.23.06.35-.05.06-.13.1-.21.1ZM170.6,182.25s-.1,0-.14-.04c-.55-.37-1.11-.75-1.66-1.11-.07-.05-.11-.12-.11-.21,0-.05,0-.09.04-.14.07-.11.23-.14.34-.07.58.38,1.14.76,1.67,1.12.06.03.1.09.11.15.01.07,0,.14-.04.19-.05.07-.13.11-.21.11ZM168.1,180.59s-.1-.01-.14-.04c-.51-.33-1.06-.68-1.68-1.08h0c-.07-.05-.11-.13-.11-.21,0-.05.02-.09.04-.13.07-.11.23-.15.34-.08h.01s0,0,0,0c.63.4,1.18.75,1.67,1.07.12.08.15.23.08.35-.05.07-.12.11-.21.11ZM165.57,178.98s-.1,0-.13-.04c-.61-.38-1.17-.72-1.7-1.05-.08-.05-.12-.13-.12-.22,0-.04.01-.09.03-.13.07-.11.23-.15.35-.08.66.41,1.2.75,1.7,1.06.06.03.1.09.11.15.02.07,0,.14-.03.19-.05.08-.13.12-.21.12ZM163.01,177.41s-.09-.02-.13-.04c-.56-.34-1.14-.69-1.71-1.03-.08-.04-.12-.12-.13-.21,0-.05.02-.09.04-.13.07-.12.23-.16.34-.09.55.32,1.11.66,1.72,1.03.06.04.1.09.11.15.02.07,0,.14-.02.19-.05.08-.13.13-.22.13ZM160.43,175.87s-.09,0-.12-.03c-.7-.41-1.23-.72-1.73-1.01h0c-.07-.05-.12-.12-.12-.21,0-.04.01-.09.04-.13.06-.11.22-.16.34-.09.47.27,1.1.63,1.73,1,.12.07.16.23.09.35-.05.07-.13.12-.22.12ZM157.83,174.37s-.08,0-.12-.03c-.59-.34-1.18-.67-1.75-.98-.08-.04-.13-.13-.12-.22,0-.04,0-.08.03-.12.06-.12.22-.16.34-.1.62.35,1.19.67,1.75.98.11.07.16.22.09.34-.05.08-.13.13-.22.13ZM155.21,172.91h0s-.08,0-.12-.03c-.54-.3-1.12-.61-1.75-.95h-.01c-.08-.04-.13-.13-.13-.22,0-.04.01-.08.03-.12.06-.12.22-.17.33-.1.68.36,1.24.66,1.77.95.12.07.16.22.1.34-.05.08-.13.13-.22.13ZM152.56,171.49s-.08-.01-.11-.03c-.59-.31-1.18-.62-1.77-.92-.09-.04-.14-.13-.14-.22,0-.04.01-.08.03-.12.06-.12.21-.17.33-.11.65.33,1.29.67,1.78.93.12.06.17.21.11.34-.05.08-.13.13-.23.13ZM149.9,170.11s-.08-.01-.11-.03c-.67-.33-1.26-.63-1.8-.89-.08-.04-.14-.13-.14-.23.01-.04.01-.07.03-.1.06-.13.21-.18.34-.12.61.3,1.22.61,1.79.9.12.06.17.21.11.33-.04.09-.13.14-.22.14ZM147.21,168.77s-.08,0-.11-.02c-.54-.26-1.18-.57-1.81-.86-.09-.04-.14-.13-.14-.23,0-.03,0-.07.02-.1.06-.13.21-.18.33-.12.7.33,1.28.6,1.81.86.07.03.11.08.13.15.02.06.02.12-.01.18-.04.09-.13.14-.22.14ZM144.49,167.49s-.07-.01-.1-.02c-.53-.25-1.11-.51-1.82-.83-.09-.04-.15-.13-.15-.23,0-.04,0-.07.02-.1.06-.12.21-.18.33-.13.71.32,1.29.58,1.83.83.12.06.18.21.12.33-.04.09-.13.15-.23.15ZM141.76,166.26s-.07-.01-.1-.02c-.54-.24-1.12-.49-1.84-.79-.09-.04-.15-.13-.15-.23,0-.03,0-.06.02-.1.05-.12.2-.18.33-.13.59.25,1.19.51,1.84.79.12.06.18.2.13.33-.04.09-.13.15-.23.15ZM138.99,165.09s-.06-.01-.09-.02c-.6-.25-1.22-.5-1.85-.74-.1-.04-.17-.14-.16-.24,0-.03,0-.06.01-.09.05-.12.21-.19.33-.14.59.23,1.22.48,1.86.75.13.05.19.19.14.32-.04.1-.13.16-.24.16ZM136.2,163.98s-.06,0-.08,0c-.64-.24-1.27-.47-1.88-.69-.06-.03-.11-.07-.14-.13-.03-.06-.03-.13,0-.19.05-.13.19-.2.32-.15.63.22,1.26.45,1.88.69.13.05.19.19.15.32-.04.1-.13.16-.24.16Z"/>
    <path class="st5" d="M619.44,606.94c-.13,0-.25-.11-.25-.25,0-.07.03-.13.07-.18.05-.05.11-.07.18-.07h.06c.58,0,1.23-.04,1.93-.07h.02c.13,0,.24.1.25.23,0,.14-.1.26-.24.27-1.2.06-1.91.07-2.01.07h-.01ZM622.45,606.81c-.14,0-.25-.1-.26-.23h0c0-.15.11-.26.24-.27.52-.03,1.21-.08,1.99-.14.13-.02.26.09.27.22.01.14-.09.26-.23.27-.74.07-1.41.12-1.99.15h-.02ZM625.44,606.58c-.13,0-.24-.1-.25-.23v-.03c0-.12.1-.23.22-.24.59-.06,1.24-.13,1.99-.21.14-.02.26.08.28.22,0,.13-.08.26-.22.27-.61.07-1.25.14-2,.21h-.02ZM628.42,606.25c-.12,0-.23-.1-.25-.22v-.03c0-.13.09-.24.22-.25.6-.08,1.24-.17,1.98-.28.13-.02.26.08.28.21.02.14-.07.27-.21.29-.68.1-1.35.19-1.99.27,0,0-.02,0-.03,0ZM631.39,605.82c-.12,0-.22-.09-.24-.21,0-.02,0-.03,0-.04,0-.12.09-.23.22-.25.7-.11,1.34-.22,1.96-.33.14-.04.27.06.29.2.02.06,0,.13-.03.18-.04.06-.1.1-.17.11-.63.11-1.3.23-1.98.34h-.04ZM634.35,605.3c-.12,0-.22-.09-.24-.2,0-.02,0-.04,0-.06,0-.11.09-.22.2-.24.63-.12,1.29-.25,1.96-.4.13-.03.26.06.29.19s-.05.27-.19.3c-.63.14-1.3.27-1.96.4-.02,0-.03,0-.05,0ZM637.29,604.67c-.12,0-.22-.08-.25-.19,0-.02-.01-.04,0-.06,0-.12.08-.21.19-.24.65-.15,1.31-.31,1.94-.48.13-.03.27.05.3.18.04.14-.05.27-.18.31-.6.15-1.24.31-1.95.48h-.05ZM640.19,603.94c-.11,0-.21-.08-.24-.19,0-.02,0-.04-.01-.06,0-.11.08-.21.18-.24h0s0,0,.02,0c.43-.12.9-.25,1.44-.42l.09-.02c.12-.04.24-.08.36-.11.13-.05.27.03.31.16.04.13-.03.27-.16.31-.16.05-.31.1-.45.14-.49.15-.99.29-1.48.43h0s-.03,0-.06,0ZM643.06,603.06c-.1,0-.2-.07-.23-.17-.01-.03-.02-.05-.02-.08,0-.11.08-.2.17-.23.59-.2,1.2-.43,1.87-.69.13-.05.28.02.33.15s-.02.27-.15.32c-.69.27-1.31.49-1.88.69-.03.01-.06.01-.09.01ZM645.88,602.01c-.11,0-.2-.06-.24-.16,0-.03,0-.06,0-.1,0-.1.06-.19.15-.22.6-.24,1.22-.5,1.84-.77.13-.05.28.01.33.14.03.06.03.12,0,.19-.02.06-.07.11-.13.13-.66.29-1.27.54-1.85.77h0s-.05.02-.08.02ZM648.64,600.85c-.1,0-.19-.06-.23-.16-.01-.03-.02-.06-.02-.09,0-.1.06-.19.14-.23h.02c.68-.3,1.27-.57,1.82-.81.12-.06.27,0,.33.12.05.13,0,.28-.13.33-.62.28-1.22.55-1.83.81-.03.02-.06.03-.1.03ZM651.38,599.62c-.1,0-.19-.06-.23-.14,0-.03-.02-.07-.02-.1,0-.1.06-.19.15-.23.46-.21.93-.43,1.4-.64l.42-.19c.11-.06.27,0,.33.12.05.12,0,.27-.13.33l-.38.17c-.48.23-.96.45-1.44.66-.03.02-.06.02-.1.02ZM654.11,598.38c-.1,0-.19-.06-.23-.15,0-.03-.02-.07-.02-.11,0-.1.06-.18.15-.22.25-.12.5-.23.76-.35.35-.16.7-.32,1.06-.49.12-.05.27,0,.33.13.03.06.03.13,0,.19-.02.06-.07.11-.13.14-.39.18-.77.36-1.16.53l-.66.3s-.07.03-.1.03ZM656.84,597.13c-.1,0-.19-.06-.23-.15,0-.03-.02-.06-.02-.09,0-.11.06-.2.15-.24.6-.27,1.21-.55,1.82-.82.13-.06.28,0,.33.13.06.12,0,.27-.12.33-.68.3-1.33.59-1.83.82-.03,0-.07.02-.1.02ZM659.58,595.9h0c-.1,0-.19-.06-.23-.15,0-.03-.02-.06-.02-.09,0-.11.06-.2.15-.24.71-.31,1.29-.57,1.83-.8.13-.05.28,0,.33.13.05.13,0,.28-.13.33-.64.28-1.28.56-1.83.8h0s-.06.02-.09.02ZM662.33,594.71c-.1,0-.19-.06-.23-.15,0-.03-.02-.07-.02-.1,0-.1.06-.19.16-.23.65-.28,1.25-.53,1.85-.77.12-.05.27,0,.32.13.05.13-.01.28-.14.33-.67.28-1.26.53-1.83.76,0,0,0,0,0,0-.03,0-.07.02-.1.02ZM665.11,593.56c-.11,0-.2-.06-.24-.15-.01-.03-.02-.07-.01-.1,0-.1.06-.19.15-.23.71-.28,1.31-.51,1.87-.73.12-.05.27.02.32.15.03.06.02.12,0,.18-.03.07-.08.11-.14.14-.59.22-1.2.46-1.86.73-.03.01-.06.01-.09.01ZM667.9,592.48c-.1,0-.19-.06-.23-.16,0-.03-.02-.06-.02-.09,0-.1.07-.2.17-.23.62-.24,1.25-.47,1.88-.69.13-.05.27.03.32.15.04.13-.03.27-.15.32-.57.2-1.16.42-1.87.68h0s-.06.02-.09.02ZM670.73,591.47c-.11,0-.21-.07-.24-.17-.01-.03-.01-.06-.01-.09,0-.1.07-.2.17-.23.54-.19,1.13-.38,1.9-.63.13-.05.27.03.31.16.02.06.02.13,0,.19s-.09.1-.15.12c-.63.21-1.27.42-1.89.63-.03,0-.06.02-.08.02ZM673.58,590.53c-.11,0-.21-.07-.24-.17,0-.03,0-.05,0-.08,0-.11.07-.2.17-.24.61-.19,1.24-.37,1.93-.57.13-.03.27.04.3.17.02.07.01.13-.02.19-.03.06-.08.1-.15.12-.58.17-1.18.35-1.91.57h0s-.04,0-.06,0ZM676.46,589.69c-.12,0-.22-.08-.25-.19,0-.02,0-.04,0-.06,0-.11.08-.21.18-.24h.03c.61-.18,1.26-.35,1.92-.51.14-.03.27.05.3.18s-.05.27-.18.3c-.66.17-1.31.34-1.93.51-.02,0-.04,0-.06,0ZM679.36,588.94c-.11,0-.21-.08-.24-.19-.01-.02-.01-.04-.01-.06,0-.12.08-.21.2-.24.63-.15,1.29-.3,1.95-.44.13-.03.27.06.3.19.03.14-.06.27-.2.3-.59.13-1.23.27-1.93.43h0s-.04,0-.06,0ZM682.3,588.3c-.12,0-.23-.08-.25-.2,0-.01,0-.03,0-.05,0-.12.09-.22.2-.24.7-.14,1.35-.26,1.98-.36.14-.02.26.06.28.2.02.07,0,.13-.04.19-.04.05-.1.09-.16.1-.69.12-1.33.23-1.95.36h-.05ZM685.25,587.78c-.13,0-.23-.09-.25-.21v-.04c0-.12.08-.23.21-.25.65-.1,1.32-.2,1.98-.28.13,0,.26.08.28.21,0,.07,0,.13-.04.18-.04.06-.11.09-.17.1-.67.09-1.34.18-1.98.29h-.03ZM688.22,587.37c-.13,0-.24-.09-.25-.22h0v-.02c0-.13.09-.24.21-.25.02,0,.03,0,.04,0,.61-.07,1.25-.13,1.97-.2.13,0,.25.09.27.23,0,.14-.1.26-.23.27-.62.05-1.26.12-1.98.2h-.03ZM691.22,587.09h0c-.14,0-.25-.1-.26-.23v-.02c0-.13.1-.24.24-.25.61-.05,1.26-.1,1.99-.15h.02c.13,0,.24.1.25.23,0,.14-.1.26-.24.27-.73.05-1.44.1-1.98.15h0ZM694.21,586.88h-.02c-.13,0-.24-.11-.25-.24h0c0-.14.11-.25.24-.26.7-.04,1.36-.08,2-.11h0c.14,0,.25.11.25.24.01.06-.02.13-.06.18-.05.05-.11.08-.17.08-.65.03-1.32.07-2,.11h0ZM697.2,586.73h-.01c-.13,0-.24-.11-.25-.24v-.02c0-.13.11-.24.24-.24h0c.63-.03,1.29-.06,2.01-.08h.01c.13,0,.24.11.24.24.01.07-.02.13-.07.18-.04.05-.1.08-.17.08h-.09c-.63.02-1.27.05-1.91.08h0ZM700.2,586.62h-.01c-.13,0-.25-.11-.25-.25h0c0-.14.11-.25.25-.25.62-.02,1.28-.04,2-.05.14,0,.25.11.25.24,0,.07-.02.13-.07.18-.04.05-.11.08-.17.08-.64,0-1.29.03-2,.05h0ZM715.3,586.59h0s-.04,0-.11,0c-.13,0-.24-.11-.24-.24h0c0-.15.11-.26.25-.26.07,0,.11,0,.12,0,.07,0,.12.03.17.08.05.04.07.11.07.17,0,.14-.12.25-.26.25ZM714.2,586.56h-.01c-.66-.01-1.33-.02-2-.03-.06,0-.13-.03-.17-.08-.05-.05-.08-.11-.08-.18,0-.13.12-.24.25-.24.68,0,1.35.02,2.01.03.07,0,.13.03.18.08.04.05.07.11.07.18-.01.13-.12.24-.25.24ZM703.2,586.55h-.01c-.13,0-.24-.11-.25-.25h0c.01-.14.11-.25.25-.25.71-.02,1.4-.02,2-.03.14,0,.25.11.25.25,0,.06-.02.12-.07.17-.04.05-.11.08-.17.08-.62,0-1.25.02-1.89.03h-.11ZM711.2,586.52h-.01c-.61-.01-1.28-.01-2-.02-.13,0-.25-.11-.25-.25,0-.13.11-.25.25-.25.66,0,1.33,0,2.01.02.13,0,.25.11.25.25-.01.13-.12.25-.25.25ZM706.2,586.51h-.01c-.13,0-.25-.11-.25-.25,0-.06.03-.13.08-.17.04-.05.1-.08.17-.08.69,0,1.37,0,2,0,.14,0,.25.11.25.25s-.11.25-.25.25c-.63,0-1.3,0-1.99,0Z"/>
    <path class="st5" d="M171.23,565.53c-.11,0-.21-.07-.24-.18-.04-.13.04-.27.17-.31.02,0,.03,0,.05-.02h.02c.13-.04.27.03.32.16,0,.03,0,.05,0,.08,0,.11-.08.2-.18.24-.02,0-.03,0-.04,0h-.03s-.05.02-.08.02ZM585.56,565.53s-.05,0-.08,0c-.62-.19-1.26-.39-1.91-.58-.06-.02-.11-.06-.14-.12-.04-.06-.04-.12-.03-.19.04-.13.19-.21.31-.17.69.21,1.31.39,1.92.58h0c.06.02.11.07.14.12.03.06.04.13.02.19-.04.11-.13.18-.24.18ZM172.26,565.21c-.11,0-.2-.07-.24-.17-.02-.07-.01-.13.02-.19s.09-.1.15-.12c.75-.23,1.35-.4,1.92-.57.13-.03.27.04.31.17,0,.03,0,.05,0,.08,0,.1-.08.2-.18.23h-.02c-.66.2-1.28.38-1.9.57h-.07ZM582.69,564.67s-.06,0-.08,0c-.67-.19-1.3-.37-1.91-.54-.07-.02-.12-.06-.16-.12-.03-.06-.04-.13-.02-.19.04-.13.18-.21.31-.17.69.19,1.36.38,1.91.54h.02c.1.03.18.13.18.24,0,.02,0,.05,0,.07-.03.11-.13.18-.24.18ZM175.14,564.38c-.11,0-.21-.08-.24-.19-.02-.06-.01-.13.02-.19.04-.05.09-.1.15-.11.6-.17,1.23-.35,1.93-.54h0c.09-.03.26.05.3.18v.06c.01.11-.07.21-.18.24-.62.17-1.28.36-1.92.54-.02,0-.05,0-.07,0ZM579.8,563.86h-.07c-.65-.18-1.3-.36-1.92-.52-.07-.02-.12-.06-.16-.12-.03-.05-.04-.12-.02-.19.03-.13.17-.21.3-.17.65.17,1.3.34,1.94.51h0c.1.04.17.14.17.25,0,0,0,.04,0,.06-.03.11-.13.18-.24.18ZM178.03,563.58c-.11,0-.21-.07-.24-.18-.02-.07,0-.13.02-.19.04-.06.09-.1.16-.12.64-.17,1.29-.34,1.93-.51.14-.03.27.05.31.18v.07c0,.11-.07.21-.18.24-.66.17-1.31.34-1.93.51h-.07ZM576.9,563.09h-.06s-.02,0-.02,0c-.56-.14-1.22-.31-1.92-.48-.06-.02-.12-.06-.15-.12-.03-.05-.04-.12-.03-.18.03-.13.17-.22.31-.19.62.16,1.25.32,1.93.49.11.03.19.13.19.25,0,.02,0,.04,0,.06-.02.11-.12.18-.24.18ZM180.93,562.83c-.11,0-.21-.08-.24-.19-.02-.07-.01-.13.03-.19.03-.06.09-.1.15-.11.63-.16,1.28-.32,1.94-.48.13-.04.27.05.31.18v.06c0,.11-.08.21-.19.24-.68.17-1.35.33-1.94.48-.02,0-.04,0-.06,0ZM573.99,562.37s-.04,0-.06,0c-.54-.13-1.14-.27-1.94-.46-.06-.02-.12-.06-.15-.12-.04-.05-.05-.12-.03-.18.03-.14.17-.22.3-.19.68.16,1.34.32,1.95.47.1.02.18.12.18.24v.06c-.03.11-.13.19-.25.19ZM183.84,562.12c-.11,0-.21-.08-.24-.2,0-.06,0-.13.03-.19.04-.05.09-.09.16-.11.65-.15,1.31-.31,1.94-.45,0,0,0,0,.02,0,.12-.02.25.06.28.18,0,.02,0,.04,0,.05,0,.12-.07.22-.18.25t-.01,0h-.03c-.62.14-1.25.29-1.92.45-.02,0-.04,0-.06,0ZM571.07,561.68s-.03,0-.05-.01c-.66-.15-1.32-.3-1.95-.44-.13-.03-.22-.16-.19-.3.03-.13.17-.22.3-.19.63.14,1.3.29,1.95.44,0,0,0,0,.02,0,.1.03.18.13.18.24,0,.02-.01.04-.01.05-.03.12-.13.2-.25.2ZM186.77,561.44c-.12,0-.22-.08-.25-.2-.01-.06,0-.13.03-.19.04-.05.09-.09.16-.11.71-.16,1.32-.29,1.95-.43h0c.14-.03.27.06.3.19,0,.02,0,.04,0,.05,0,.12-.09.22-.2.25-.54.12-1.25.27-1.95.43-.02,0-.04,0-.05,0ZM568.15,561.02h-.05s-.02-.01-.03-.01l-.31-.07c-.53-.11-1.07-.23-1.62-.34-.13-.03-.22-.16-.19-.3.03-.13.16-.22.3-.19.63.13,1.27.27,1.95.42h.02c.1.03.18.13.18.25v.05c-.03.11-.13.19-.25.19ZM189.69,560.79c-.11,0-.22-.08-.24-.19-.02-.07,0-.14.03-.19.04-.06.1-.1.16-.11.57-.12,1.19-.25,1.95-.41h0c.13-.03.27.06.29.19.01.02.01.04.01.05,0,.12-.09.22-.2.25-.66.14-1.32.27-1.95.41h-.06ZM565.22,560.4s-.03,0-.05,0c-.64-.13-1.29-.26-1.96-.4-.06,0-.12-.05-.16-.1-.03-.06-.05-.12-.03-.19.02-.13.15-.22.29-.19.64.12,1.3.26,1.95.39h0c.11.03.2.13.2.25,0,.02,0,.04,0,.05-.02.12-.12.2-.24.2ZM192.63,560.18c-.12,0-.22-.08-.25-.2-.01-.06,0-.13.04-.19.04-.05.1-.09.16-.1.61-.13,1.27-.26,1.95-.39h0c.13-.03.27.06.29.19.01.02.01.03.01.05,0,.12-.09.22-.2.24-.45.09-.88.18-1.31.27l-.65.12s-.03.01-.05.01ZM562.28,559.81s-.04-.01-.05-.01c-.75-.14-1.37-.27-1.96-.38-.14-.02-.23-.16-.2-.29.03-.13.16-.24.29-.2l1.97.38c.11.02.2.12.2.24,0,.02,0,.04,0,.05-.02.12-.12.21-.24.21ZM195.57,559.6c-.12,0-.22-.09-.25-.2-.01-.07,0-.14.04-.19.04-.06.1-.09.16-.11.57-.1,1.18-.22,1.97-.37.14-.03.27.07.29.2v.05c0,.12-.08.22-.19.24h-.02c-.67.13-1.34.26-1.95.37-.02.01-.03.01-.05.01ZM559.33,559.24h-.04c-.58-.11-1.23-.23-1.97-.36-.13-.03-.22-.16-.2-.29.03-.14.15-.23.29-.21.67.12,1.32.25,1.97.37.11.02.2.12.2.24v.05c-.02.12-.13.2-.25.2ZM198.52,559.04c-.12,0-.23-.08-.25-.2-.02-.14.06-.27.2-.29.56-.1,1.19-.22,1.97-.36.14,0,.27.07.29.21v.05c0,.11-.09.21-.2.23-.65.12-1.31.24-1.97.36h-.04ZM556.38,558.7h-.04s-.02,0-.03,0c-.41-.07-.82-.14-1.24-.21l-.7-.13c-.06-.01-.12-.04-.16-.1-.04-.05-.05-.12-.04-.19.02-.13.14-.22.29-.2.58.1,1.15.2,1.72.3l.25.05h0c.12.03.2.13.19.25v.04c-.02.12-.13.2-.25.2ZM201.47,558.52c-.13,0-.23-.09-.25-.21,0-.07,0-.13.04-.19.04-.05.1-.09.17-.1.76-.13,1.38-.24,1.97-.34.13-.02.26.07.29.2v.04c0,.13-.09.23-.21.25-.61.1-1.25.22-1.97.34,0,0-.03.01-.04.01ZM553.43,558.19s-.03,0-.04,0c-.65-.1-1.31-.21-1.97-.32-.14-.03-.23-.15-.21-.29.02-.14.14-.23.29-.21.67.11,1.32.22,1.97.33h0c.12.03.2.13.2.25v.04c-.02.12-.13.21-.25.21ZM204.42,558.01c-.12,0-.22-.09-.24-.21,0-.07,0-.13.04-.19.04-.05.1-.09.16-.1.6-.1,1.29-.21,1.98-.32.13-.02.26.07.28.21.01,0,.01.02.01.03,0,.13-.09.23-.21.25-.74.12-1.38.23-1.97.33h-.05ZM550.47,557.7h-.04c-.58-.1-1.27-.21-1.97-.32-.07,0-.13-.05-.17-.1-.04-.06-.05-.12-.04-.19.02-.13.15-.23.29-.21l.28.05c.57.09,1.13.18,1.69.27.12.02.21.12.21.25v.04c-.02.12-.13.21-.25.21ZM207.38,557.52c-.12,0-.22-.08-.24-.21s.07-.26.2-.28c.66-.11,1.31-.21,1.98-.31.13-.02.26.07.29.21v.03c0,.13-.09.23-.21.25-.62.1-1.26.2-1.98.31h-.04ZM547.51,557.23s-.02-.01-.03,0h-.04c-.58-.1-1.26-.2-1.94-.31-.07,0-.13-.04-.17-.1-.04-.05-.05-.12-.04-.18.02-.14.15-.24.28-.21.59.09,1.22.18,1.98.3.12.02.21.12.21.25v.04c-.02.12-.13.21-.25.21ZM210.35,557.06c-.13,0-.23-.09-.25-.21,0-.06.01-.13.05-.19.04-.05.09-.08.16-.09.65-.1,1.31-.2,1.98-.3h.01c.14-.01.25.08.27.21v.04c0,.12-.08.22-.2.24h0s-.01.01-.02.01h-.01c-.66.1-1.3.19-1.95.29h-.03ZM544.54,556.78h-.03c-.65-.1-1.31-.2-1.98-.29-.14-.02-.23-.15-.21-.29.02-.13.13-.23.28-.21l.39.06c.54.08,1.07.15,1.59.23.12.02.21.12.21.25v.03c-.02.13-.12.22-.25.22ZM213.31,556.62c-.12,0-.23-.09-.24-.21-.01-.07,0-.14.04-.19.04-.05.1-.09.17-.09.55-.09,1.13-.17,1.69-.25l.29-.04c.13-.02.26.08.28.21v.04c0,.13-.09.23-.21.25l-.29.04c-.57.08-1.13.16-1.69.24h-.04ZM541.57,556.35h-.03c-.54-.08-1.26-.18-1.98-.28-.14-.02-.23-.15-.21-.28.02-.14.13-.23.28-.22l.47.07c.51.07,1.01.14,1.51.21.12.02.21.12.22.25,0,0-.01.02-.01.03,0,.13-.12.22-.25.22ZM216.28,556.2c-.12,0-.23-.09-.24-.22-.02-.06,0-.13.04-.18.04-.05.1-.09.17-.1.65-.09,1.31-.18,1.98-.27.14-.01.26.08.28.21v.04c0,.12-.09.23-.21.24-.67.09-1.33.19-1.98.28h-.04ZM538.61,555.94s-.03,0-.04,0c-.42-.05-.84-.11-1.27-.17l-.71-.09c-.07,0-.12-.04-.17-.1-.04-.05-.05-.12-.04-.18,0-.14.14-.23.28-.22.36.05.72.1,1.07.15.31.04.61.08.91.12.12.02.21.12.22.24,0,.02,0,.03,0,.04,0,.12-.12.22-.24.22ZM219.25,555.79c-.12,0-.23-.09-.24-.21,0-.07,0-.13.04-.19.04-.05.1-.09.17-.09l.3-.04c.56-.08,1.12-.15,1.68-.22.14,0,.26.07.28.21t0,.02c0,.13-.09.24-.22.26-.54.07-1.08.14-1.61.21l-.37.05h-.04ZM535.6,555.54s-.02,0-.03,0c-.64-.09-1.29-.17-1.95-.25-.14-.02-.24-.15-.22-.28.02-.14.13-.23.28-.22.62.08,1.27.16,1.98.25t.02,0c.12.02.21.12.2.25v.03c-.02.13-.11.22-.27.21h0ZM222.23,555.4c-.13,0-.23-.09-.25-.21-.02-.14.08-.27.22-.28.23-.03.46-.06.69-.09.42-.05.86-.11,1.29-.16.14-.02.26.08.28.22v.02c0,.12-.08.23-.21.25-.01,0-.03,0-.04,0l-.78.09c-.39.05-.78.1-1.17.15h-.03ZM532.63,555.17s-.02,0-.04,0l-.61-.07c-.44-.06-.89-.12-1.34-.17-.06,0-.12-.04-.16-.09-.05-.06-.06-.12-.06-.19.02-.13.15-.22.28-.22l1.99.25h.01c.12.02.21.13.21.25h0v.02c-.02.14-.12.23-.27.22,0,0,0,0,0,0ZM225.2,555.03c-.12,0-.23-.09-.24-.22-.01-.06,0-.13.05-.18.04-.05.1-.09.16-.09.61-.08,1.3-.16,1.99-.24.13,0,.26.08.28.21v.03c0,.13-.09.23-.22.25l-.91.11c-.36.04-.72.09-1.08.13h-.03ZM529.68,554.8h-.05l-1.96-.23c-.07,0-.13-.04-.17-.09s-.06-.12-.06-.19c.02-.13.14-.23.28-.22.67.08,1.33.16,1.99.23.13.02.22.13.22.26h0v.02c-.02.13-.13.22-.25.22ZM228.18,554.68c-.13,0-.23-.1-.25-.22,0-.07.01-.14.06-.19.04-.05.1-.09.16-.09l.42-.05c.52-.06,1.04-.12,1.57-.18.14,0,.26.08.28.22v.03c0,.12-.1.23-.22.25-.67.07-1.33.15-1.99.23h-.03ZM526.7,554.46s-.02,0-.03,0l-1.98-.22c-.07-.01-.13-.04-.17-.09-.04-.05-.06-.12-.05-.19,0-.13.15-.23.27-.22.36.04.72.08,1.08.12.31.04.61.07.91.11h0c.13,0,.22.12.22.25v.02c-.02.13-.12.23-.25.23ZM231.16,554.34c-.13,0-.23-.1-.25-.23,0-.06.01-.13.06-.18.04-.05.1-.09.16-.09.56-.07,1.12-.13,1.68-.19l.31-.04c.14,0,.26.09.28.23v.02c0,.13-.1.24-.22.25l-1.99.22s-.02,0-.03,0ZM523.69,554.12s-.02,0-.03,0c-.42-.05-.85-.1-1.28-.14l-.67-.07c-.14-.02-.24-.14-.23-.28.02-.13.14-.24.28-.22.67.07,1.33.14,1.99.21h0c.12.03.21.13.21.25v.02h0c-.02.14-.15.23-.27.23h-.01ZM234.14,554c-.12,0-.23-.09-.25-.22,0-.07.02-.13.06-.18.04-.05.1-.09.17-.09l.22-.03c.58-.06,1.17-.12,1.76-.18.15-.02.26.08.28.22v.02c0,.13-.09.24-.22.25-.41.05-.81.09-1.21.13-.26.03-.52.06-.78.08h-.03ZM520.74,553.8l-.21-.02c-.59-.06-1.2-.12-1.81-.18-.06-.01-.12-.04-.17-.1-.04-.05-.06-.11-.05-.18,0-.13.14-.23.27-.22l.29.03c.58.06,1.14.11,1.7.17.13.02.23.12.23.25v.03c-.02.13-.12.22-.25.22ZM237.13,553.69c-.13,0-.24-.1-.25-.22-.02-.14.08-.26.22-.28.66-.07,1.32-.13,1.99-.2.13-.02.26.09.28.22v.03c0,.13-.1.23-.23.25l-1.99.2h-.02ZM517.75,553.5h-.02c-.66-.07-1.32-.14-1.99-.2-.07,0-.13-.04-.17-.09s-.06-.12-.05-.19c0-.13.11-.22.27-.22.67.07,1.33.13,1.98.2h0c.13,0,.22.12.22.25v.02c0,.13-.12.23-.25.23ZM240.11,553.39c-.13,0-.23-.1-.25-.23-.01-.14.09-.26.22-.27.66-.07,1.33-.13,2-.19.12-.02.26.09.27.22v.03c0,.12-.1.23-.23.24-.44.05-.87.09-1.31.13l-.69.07h0ZM514.77,553.2h-.03c-.58-.06-1.21-.12-1.98-.19-.07,0-.13-.04-.17-.09-.05-.05-.07-.11-.06-.18.01-.14.13-.24.27-.23.67.07,1.34.13,1.99.19.13.02.23.12.23.25v.03c0,.12-.12.22-.25.22ZM243.12,553.1h-.02c-.13,0-.24-.1-.25-.23-.02-.14.08-.26.22-.27l.74-.07c.42-.04.83-.08,1.25-.12.13,0,.26.09.27.23t.01.02c-.01.13-.1.24-.23.25l-.73.07c-.42.04-.84.08-1.26.12h0ZM511.78,552.92h-.02c-.66-.06-1.32-.12-1.99-.18-.14-.02-.24-.14-.23-.28.02-.13.13-.24.27-.22.23.02.46.04.68.06.44.04.88.08,1.32.12.13.01.22.12.22.25v.02c0,.13-.12.23-.25.23ZM246.08,552.82c-.13,0-.24-.1-.25-.23,0-.13.09-.25.23-.27.66-.06,1.32-.12,1.99-.18.15-.02.26.09.27.23v.02c0,.13-.1.24-.22.25-.56.05-1.12.1-1.67.15l-.33.03h-.02ZM508.79,552.65h-.01l-.35-.03c-.55-.05-1.09-.1-1.65-.15-.14,0-.24-.13-.23-.27.02-.14.11-.25.27-.23l.54.05c.49.04.97.09,1.46.13.13,0,.22.12.23.24v.02h0c-.02.14-.13.24-.26.24ZM249.09,552.55h-.02c-.13,0-.24-.1-.25-.23-.01-.06,0-.12.06-.18.04-.05.1-.08.17-.09l.56-.05c.48-.04.95-.08,1.43-.12.14,0,.26.09.27.23v.02c0,.13-.1.24-.23.25l-.5.04c-.5.05-.99.09-1.49.13h0ZM505.81,552.39h-.02c-.29-.03-.59-.05-.88-.08l-1.11-.09c-.07,0-.13-.04-.18-.09-.04-.05-.06-.11-.05-.18.01-.14.13-.23.26-.23l1.02.09c.33.02.65.05.98.08.13,0,.23.12.23.26h0c0,.14-.12.24-.25.24ZM252.06,552.3c-.13,0-.24-.1-.25-.23,0-.07.01-.13.06-.19.04-.05.1-.08.17-.08.27-.02.55-.05.83-.07.38-.03.77-.07,1.16-.1h0c.16.01.25.1.26.23v.02c0,.12-.09.23-.22.25h-.04l-.25.02c-.58.05-1.15.1-1.71.15v-.03s0,.03,0,.03h-.01ZM502.82,552.14h-.02c-.68-.06-1.38-.11-1.99-.16-.07-.01-.13-.04-.18-.09-.04-.05-.06-.12-.05-.18,0-.14.13-.24.27-.23.66.05,1.32.11,1.98.16h0c.13,0,.23.12.23.26h0c0,.14-.12.24-.25.24ZM255.05,552.05c-.13,0-.24-.1-.25-.23-.01-.14.09-.26.23-.27.66-.05,1.32-.1,1.99-.16.13,0,.26.1.27.23l-.03.02h.03c0,.13-.1.24-.23.25-.67.06-1.33.11-1.99.16h-.02ZM499.83,551.9h-.02l-.69-.05c-.43-.04-.87-.07-1.3-.1-.14,0-.25-.13-.24-.27,0-.14.16-.24.27-.23.39.02.77.05,1.15.08.28.03.56.05.85.07.13,0,.23.11.23.24v.02h0c-.01.14-.12.24-.25.24ZM258.04,551.82c-.13,0-.24-.11-.25-.23,0-.07.01-.14.06-.19.04-.05.1-.08.17-.08.25-.02.5-.04.75-.06.41-.03.83-.06,1.24-.09.14-.02.26.09.27.22v.02c0,.13-.1.24-.23.25-.67.05-1.33.1-1.99.16h-.02ZM496.84,551.67h-.02c-.29-.02-.58-.04-.87-.07-.37-.02-.75-.05-1.12-.08-.07,0-.13-.03-.18-.08-.04-.06-.06-.12-.06-.19.02-.13.14-.22.27-.23l.26.02c.58.05,1.15.09,1.73.13h0c.13.01.23.12.23.26h0c0,.14-.12.24-.25.24ZM261.05,551.59h-.02c-.13,0-.24-.1-.25-.23,0-.07.02-.13.06-.18.04-.05.1-.08.17-.09.61-.05,1.26-.09,1.99-.15t.02,0h0c.13,0,.24.1.25.23h0c0,.14-.09.25-.22.26-.01,0-.02,0-.02,0,0,0-.02,0-.02,0-.66.05-1.31.1-1.96.15h0ZM493.85,551.45h-.02l-.7-.05c-.43-.03-.86-.06-1.3-.09-.06-.01-.12-.04-.17-.09-.04-.05-.06-.11-.06-.18,0-.14.14-.23.27-.23.31.02.62.04.93.06.35.03.71.05,1.06.08h.02c.12.02.22.12.22.26h0c0,.14-.12.24-.25.24ZM264.04,551.37h-.02c-.13,0-.24-.1-.25-.23-.01-.14.1-.26.23-.27.55-.04,1.11-.07,1.66-.11l.33-.02s.02,0,.03,0c.13,0,.24.11.24.24t.01.01c0,.13-.1.24-.24.25-.67.05-1.33.09-1.99.14h0ZM490.86,551.24h-.02l-.7-.05c-.43-.03-.86-.06-1.3-.09-.06,0-.12-.03-.17-.08-.04-.05-.06-.12-.06-.18.01-.14.13-.24.27-.24.37.03.74.05,1.1.08.3.02.6.04.89.06h0c.13,0,.23.12.22.25h0c0,.15-.12.25-.24.25ZM267.03,551.16h-.02c-.13,0-.24-.1-.25-.23,0-.07.02-.13.07-.18.04-.05.1-.08.17-.08.66-.05,1.32-.09,1.99-.14.14,0,.26.1.27.23v.02c0,.13-.1.24-.23.25-.67.05-1.34.09-2,.13h0ZM487.85,551.04s-.03,0-.04,0c-.52-.03-1.05-.07-1.58-.1l-.38-.02c-.14,0-.24-.13-.23-.27,0-.14.12-.23.26-.23.67.04,1.34.08,2,.13.13,0,.23.12.23.25h0c0,.14-.12.25-.25.25h0ZM270,550.96c-.13,0-.23-.1-.24-.23,0-.14.09-.25.23-.26l.49-.04,1.5-.09h.02c.13,0,.24.1.25.23h0c0,.15-.1.26-.23.27-.25.01-.51.03-.76.04-.41.03-.83.06-1.24.08h-.02ZM484.87,550.84h-.01c-.67-.04-1.33-.08-2-.12-.14,0-.25-.13-.24-.27,0-.13.13-.22.27-.23.61.04,1.26.08,1.98.12h0c.14.01.24.12.24.26h0c-.01.14-.12.24-.25.24ZM273.01,550.78h0c-.13,0-.24-.11-.25-.24,0-.07.02-.13.06-.18.05-.05.11-.08.17-.08.66-.05,1.32-.09,1.99-.13h.02c.14,0,.25.1.26.24h0c0,.14-.11.25-.24.26-.36.02-.73.05-1.09.07-.3.02-.6.04-.9.06h-.01ZM481.87,550.66h-.01c-.66-.04-1.33-.08-2-.12-.07,0-.13-.04-.17-.09s-.07-.11-.06-.18c0-.14.14-.22.26-.23.67.04,1.34.08,2,.12h0c.13,0,.23.12.23.25h0c0,.14-.11.25-.25.25ZM276.01,550.59h-.02c-.13,0-.24-.1-.25-.23,0-.07.02-.13.07-.18.04-.05.1-.08.17-.09.28,0,.57-.03.86-.05.38-.02.76-.04,1.14-.06.13-.01.25.09.26.23h0c0,.15-.1.26-.23.27-.67.03-1.34.07-2,.11h0ZM478.88,550.48h-.02c-.66-.04-1.32-.08-1.99-.11-.07,0-.13-.04-.17-.09-.05-.05-.07-.11-.07-.18,0-.14.14-.23.27-.23.67.03,1.33.07,1.99.11.14,0,.24.12.24.25h0c0,.15-.12.25-.25.25ZM278.99,550.42c-.13,0-.24-.11-.25-.24,0-.14.1-.25.23-.26.66-.04,1.32-.08,1.99-.11h0s.01-.01.01-.01c.14,0,.25.11.25.24h0c0,.15-.1.26-.23.26-.41.03-.83.05-1.24.07l-.76.05h-.01ZM475.88,550.31h-.02c-.35-.02-.71-.04-1.07-.06-.3-.02-.61-.03-.91-.05-.07,0-.13-.03-.18-.08-.04-.05-.06-.12-.06-.18,0-.14.12-.24.25-.24h0c.67.04,1.34.07,2,.11.13,0,.24.12.24.25h0c0,.15-.12.25-.26.25ZM281.99,550.25h0c-.13,0-.24-.1-.25-.24,0-.06.02-.13.07-.18.04-.05.1-.08.17-.08l.41-.02c.53-.03,1.05-.06,1.58-.08t.02,0c.13,0,.24.11.25.24h0c0,.15-.1.25-.24.26-.67.04-1.33.07-1.99.11h-.01ZM472.88,550.15h0v-.03.03s-.03,0-.04,0h-.22c-.58-.04-1.16-.07-1.74-.1-.14,0-.24-.12-.23-.26,0-.14.13-.23.26-.23l.4.02c.53.02,1.06.05,1.59.08h.01c.13,0,.23.12.23.25v.02c0,.12-.12.23-.25.23h0ZM284.98,550.09c-.13,0-.24-.1-.25-.23,0-.07.02-.14.06-.19.05-.05.11-.08.18-.08l.87-.04c.37-.02.75-.04,1.12-.06.14,0,.26.1.27.24h0c0,.14-.11.25-.24.26-.67.03-1.34.07-2,.1h0ZM469.9,549.99h-.02c-.66-.03-1.33-.06-2-.1-.13-.01-.24-.12-.23-.26.01-.14.13-.23.26-.24l.83.04c.39.02.78.04,1.17.06.13,0,.23.12.24.25,0,0,0,0,0,.02,0,.13-.11.23-.24.23ZM287.98,549.94h-.01c-.13,0-.24-.11-.25-.24,0-.07.02-.13.07-.18.04-.05.11-.08.17-.08.38-.02.77-.04,1.15-.06l.85-.04h0c.15,0,.24.11.25.24h0c0,.14-.1.25-.23.26h-.03c-.66.03-1.32.07-1.97.1h0ZM466.9,549.84h-.02c-.66-.03-1.32-.06-1.99-.09-.07,0-.13-.03-.17-.08-.05-.05-.07-.11-.07-.18.01-.13.12-.24.25-.24h.01c.67.03,1.34.06,2,.09h0c.13.02.23.13.23.25v.02c0,.13-.12.23-.25.23ZM290.98,549.79h-.01c-.13,0-.24-.1-.25-.23,0-.07.02-.14.07-.19.04-.05.1-.07.17-.08l.42-.02c.52-.02,1.04-.05,1.57-.07h.02c.13,0,.24.11.25.24h0c0,.14-.11.25-.24.26-.67.03-1.33.06-2,.09h0ZM463.9,549.7h0c-.66-.03-1.33-.06-2-.09-.14,0-.24-.12-.24-.26.01-.13.12-.24.25-.24h.02c.66.03,1.32.06,1.98.1h.01c.14,0,.24.11.24.24h0c0,.15-.11.25-.25.25ZM293.98,549.65h-.01c-.14,0-.25-.1-.25-.23,0-.14.1-.26.24-.27h.25c.58-.03,1.16-.06,1.74-.08h.02c.13,0,.24.1.25.23v.02c0,.13-.11.24-.24.25-.42,0-.83.03-1.24.05l-.76.03h0ZM460.9,549.57h0c-.35-.02-.7-.03-1.04-.05-.32-.01-.64-.02-.96-.04-.07,0-.13-.03-.18-.08-.04-.05-.06-.11-.06-.18,0-.13.11-.24.25-.24h0l.88.04c.38.02.75.03,1.12.05h0c.14,0,.24.12.24.26-.01.13-.12.24-.26.24ZM296.97,549.52h0c-.14,0-.25-.1-.26-.24,0-.06.02-.13.07-.18.04-.05.11-.07.17-.08.66-.03,1.33-.05,1.99-.08h.02c.13,0,.25.11.25.24h0c0,.14-.1.25-.24.26-.67.03-1.33.05-1.99.08h-.01ZM457.91,549.44h-.02c-.35,0-.7-.03-1.06-.04-.31,0-.62-.03-.93-.04-.14,0-.25-.12-.24-.26,0-.14.11-.24.25-.24h0l2,.08c.13,0,.24.11.24.25h0c-.01.14-.12.25-.25.25ZM299.97,549.4h0c-.13,0-.24-.11-.25-.24,0-.14.1-.26.24-.26.51-.02,1.02-.04,1.54-.06l.46-.02h.01c.13,0,.24.1.25.24h0c0,.14-.11.25-.24.26-.31,0-.63.02-.94.03-.35.02-.71.03-1.06.05h0ZM454.91,549.32h-.01c-.66-.03-1.33-.05-2-.08-.06,0-.13-.03-.17-.08-.05-.05-.07-.11-.07-.18,0-.13.12-.24.25-.24h0c.67.03,1.33.05,1.99.08h0c.13,0,.24.11.24.25h0c0,.14-.11.25-.25.25ZM302.97,549.28h0c-.13,0-.25-.11-.25-.24,0-.07.02-.13.07-.18.04-.05.1-.08.17-.08.36-.02.72-.03,1.09-.04l.91-.04c.12,0,.25.1.26.24h0c-.01.15-.11.26-.24.26l-2,.08h0ZM451.91,549.2h0c-.63-.02-1.25-.04-1.87-.06h-.13c-.14-.01-.25-.13-.24-.27,0-.13.11-.24.25-.24h0c.33.01.65.03.97.04.34.01.69.02,1.03.04.14,0,.24.11.24.24v.02c0,.13-.11.23-.25.23ZM305.97,549.16h0c-.14,0-.25-.1-.25-.24-.01-.06.02-.13.06-.18.05-.04.11-.07.18-.07.66-.03,1.33-.05,2-.08h.01c.13,0,.24.11.25.24,0,0,0,.02-.01.02,0,.13-.1.24-.24.24-.42.02-.83.03-1.25.05l-.74.02h0ZM448.92,549.09h0c-.67-.02-1.33-.04-2-.06-.14,0-.25-.13-.24-.26,0-.14.11-.24.25-.24h0l.92.03c.36,0,.72.02,1.08.03.13.01.23.12.24.25h0c0,.15-.12.25-.25.25ZM308.96,549.06h-.01c-.13,0-.24-.11-.25-.24,0-.14.11-.26.25-.26l.57-.02c.47-.02.95-.04,1.43-.05h.01c.13,0,.24.1.24.24.01.14-.1.25-.24.26-.67.02-1.33.05-2,.07h0ZM445.92,548.99l-.91-.03c-.37,0-.73-.02-1.1-.03-.14-.01-.24-.12-.24-.26s.11-.24.25-.24h0c.29,0,.57,0,.86.02.38.02.76.03,1.14.04.13,0,.24.11.24.25h0c0,.14-.12.25-.25.25ZM311.96,548.96h-.01c-.13,0-.24-.11-.25-.25,0-.13.11-.25.24-.25h.17c.61-.03,1.22-.05,1.83-.07.15,0,.26.11.26.24v.02c0,.13-.11.24-.24.24h-.26c-.58.03-1.16.05-1.74.07h0ZM442.92,548.89l-.9-.02c-.37-.02-.74-.03-1.11-.04-.06,0-.12-.03-.17-.08-.05-.04-.07-.11-.07-.18,0-.13.11-.24.25-.24h0l.94.03c.35,0,.71.02,1.06.03.13,0,.24.12.24.26,0,.14-.12.24-.25.24ZM314.96,548.86h-.01c-.13,0-.25-.11-.25-.24,0-.07.02-.13.07-.18.05-.05.11-.08.17-.08.37,0,.73-.02,1.09-.03l.91-.03h0c.14,0,.24.11.25.24h0c0,.15-.11.25-.24.26-.67.02-1.34.04-2,.06h0ZM439.92,548.8l-.98-.03c-.34-.01-.68-.02-1.02-.03-.14,0-.25-.12-.25-.25,0-.14.12-.25.25-.25h0c.51.02,1.02.03,1.53.05h.47c.13.02.24.12.24.25v.02c0,.13-.11.24-.25.24ZM317.96,548.77h-.01c-.14,0-.25-.11-.25-.24,0-.07.02-.14.07-.18.04-.05.11-.08.17-.08l.87-.02c.37-.02.75-.03,1.13-.04h0c.13,0,.24.11.25.24v.02c0,.13-.11.24-.24.24l-.91.03c-.37,0-.73.02-1.09.03h0ZM436.92,548.71h0c-.34,0-.69,0-1.03-.02-.32,0-.65-.02-.97-.03-.07,0-.13-.03-.18-.08-.04-.05-.07-.11-.06-.18,0-.13.11-.24.24-.24h0l.9.02c.37,0,.73.02,1.1.03,0,0,0,0,0,0,.06,0,.12.03.16.07.05.05.07.11.07.18,0,.14-.11.24-.25.24ZM320.95,548.68h0c-.14,0-.25-.1-.25-.24,0-.06.02-.13.07-.18.04-.05.1-.07.17-.07.4-.02.81-.03,1.22-.04.26,0,.52,0,.78-.02.14,0,.25.11.26.24,0,.14-.11.25-.24.26h-.01l-.64.02c-.45,0-.91.02-1.36.03ZM433.92,548.63h0c-.47,0-.93-.02-1.39-.03l-.61-.02c-.07,0-.13-.03-.18-.08-.04-.05-.07-.11-.06-.17,0-.14.11-.25.25-.25h0c.67.02,1.34.04,2,.05.13.01.24.12.24.25h0c0,.15-.11.25-.25.25ZM323.95,548.6h0c-.13,0-.24-.1-.24-.24,0-.06.02-.13.06-.18.05-.05.11-.07.18-.07.66-.02,1.33-.04,2-.06.14,0,.25.11.26.25,0,.14-.11.25-.25.26-.67,0-1.33.03-2,.04ZM430.93,548.56h0c-.63-.02-1.27-.03-1.9-.05h-.1c-.14,0-.25-.12-.24-.26,0-.13.11-.24.25-.24h0c.67.01,1.34.03,2,.05.14,0,.24.11.25.24h0c0,.15-.12.26-.25.26ZM326.95,548.53h0c-.14,0-.25-.11-.25-.24,0-.07.02-.13.06-.18.05-.05.11-.08.18-.08.45,0,.91-.02,1.37-.03l.63-.02c.14,0,.25.11.25.25,0,.14-.1.25-.24.25h0c-.67.02-1.33.03-1.99.05ZM427.93,548.49h0c-.66-.02-1.33-.03-2-.05-.07,0-.13-.03-.17-.08-.05-.05-.07-.11-.07-.17,0-.14.11-.25.25-.25.67.02,1.34.03,2,.05.07,0,.13.02.18.07.04.05.07.11.07.18,0,.14-.12.25-.25.25ZM329.95,548.46h0c-.13,0-.24-.11-.25-.24,0-.07.03-.13.07-.18.05-.05.11-.08.18-.08.66,0,1.33-.03,2-.04.14,0,.25.11.25.24,0,.07-.02.13-.07.18-.04.05-.1.08-.17.08l-2,.04ZM424.93,548.42h0c-.33,0-.66-.02-1-.02-.33,0-.66-.02-1-.02-.06,0-.13-.03-.17-.08-.05-.05-.07-.11-.07-.18,0-.13.11-.24.25-.24.33,0,.65.01.97.02.35,0,.69,0,1.04.02.13,0,.24.12.24.26,0,.13-.12.24-.25.24ZM332.95,548.4h0c-.13,0-.25-.11-.25-.25s.11-.25.25-.25c.66-.02,1.33-.03,2-.04.14,0,.25.1.25.24,0,.07-.02.13-.07.18-.04.05-.11.07-.17.08-.34,0-.69,0-1.03.02-.32,0-.65.01-.97.02ZM421.93,548.36h0l-2.01-.04c-.13,0-.24-.12-.24-.26,0-.13.11-.24.25-.24.68,0,1.34.02,2.01.04.13,0,.24.12.24.25,0,.14-.11.25-.25.25ZM335.95,548.34h0c-.13,0-.24-.11-.25-.25,0-.07.03-.13.07-.18.05-.04.11-.07.18-.07l2-.04c.14,0,.25.11.25.25,0,.06-.02.12-.07.17-.05.05-.11.08-.17.08l-2,.04ZM418.93,548.3h0c-.35,0-.69,0-1.03-.02-.32,0-.65,0-.97-.02-.07,0-.13-.02-.18-.07s-.07-.11-.07-.18c0-.14.11-.24.25-.24h.62c.46,0,.92.02,1.39.03.13,0,.24.12.24.26,0,.13-.12.24-.25.24ZM338.95,548.28h0c-.14,0-.25-.11-.25-.24,0-.14.11-.26.25-.26h.08c.63,0,1.27-.02,1.92-.03.14,0,.25.11.25.24,0,.14-.11.25-.24.26h0c-.34,0-.67,0-1,0-.33.01-.67.01-1,.02ZM415.93,548.25h0l-2-.03c-.07,0-.13-.03-.18-.08-.04-.05-.07-.11-.07-.18,0-.13.11-.24.25-.24.48,0,.96.01,1.44.02h.57c.13,0,.24.13.24.26,0,.14-.11.25-.25.25ZM341.94,548.23c-.13,0-.25-.11-.25-.24,0-.07.03-.13.07-.18.05-.05.11-.08.18-.08l2-.03c.14,0,.25.11.25.25,0,.06-.02.12-.07.17-.05.05-.11.08-.18.08h-.08c-.64,0-1.28.02-1.91.03h0ZM412.93,548.2h0c-.66,0-1.33-.02-2-.03-.14,0-.25-.12-.25-.25,0-.14.11-.25.25-.25h0c.27.01.54.01.82.01.39,0,.78,0,1.17.02.14,0,.25.12.25.25,0,.14-.11.25-.25.25ZM344.94,548.18h0c-.14,0-.25-.1-.25-.24,0-.07.02-.13.07-.18.05-.05.11-.08.18-.08h.69c.43-.01.87-.02,1.31-.02.14,0,.25.11.25.24,0,.14-.11.25-.25.26h-.62c-.46,0-.92.02-1.38.02ZM409.93,548.16h-.5c-.5-.02-1-.02-1.5-.03-.07,0-.13-.03-.18-.08-.04-.04-.07-.11-.07-.17,0-.14.12-.25.25-.25.28,0,.55.01.82.01.39,0,.79,0,1.19.02h.01c.13,0,.23.12.23.25,0,.14-.11.25-.25.25ZM347.94,548.14h0c-.14,0-.25-.11-.25-.24,0-.07.02-.13.07-.18.05-.05.11-.08.18-.08.34,0,.69-.01,1.04-.01h.96c.14,0,.25.1.25.23,0,.14-.11.26-.25.26-.67,0-1.33,0-2,.02ZM406.93,548.12h0c-.35,0-.7,0-1.05,0l-.95-.02c-.14,0-.25-.11-.25-.25,0-.14.12-.25.25-.25.25.01.5.01.74.01.43,0,.85,0,1.27.02.06,0,.12.03.17.07.05.05.07.11.07.18,0,.14-.11.25-.25.25ZM350.94,548.1h0c-.14,0-.25-.11-.25-.24,0-.14.11-.25.25-.26.66,0,1.33-.01,2-.02.14,0,.25.11.25.25s-.11.25-.25.25c-.35,0-.71,0-1.06,0h-.94ZM403.93,548.08h0c-.32,0-.65,0-.98,0-.34,0-.68,0-1.02,0-.07,0-.13-.02-.17-.07-.05-.05-.08-.11-.08-.18,0-.14.12-.25.25-.25.41,0,.82,0,1.22.02h.79c.06,0,.12.03.17.08.05.05.07.11.07.18,0,.13-.11.24-.25.24ZM353.94,548.07h0c-.14,0-.25-.11-.25-.25,0-.06.02-.12.07-.17s.11-.08.18-.08c.34,0,.68,0,1.02,0h.98c.14-.01.25.1.25.24,0,.07-.02.13-.07.17-.05.05-.11.08-.18.08-.67.01-1.33.01-2,.02ZM400.93,548.05h0c-.34,0-.68,0-1.02,0h-.98c-.07,0-.13-.03-.18-.08-.04-.05-.07-.11-.07-.18,0-.14.12-.24.25-.24h.5c.5,0,1,0,1.51,0,.06,0,.12.03.17.08s.07.11.07.18c0,.13-.11.24-.25.24ZM356.94,548.04h0c-.14,0-.25-.11-.25-.24,0-.14.11-.26.25-.26h.5c.5,0,1,0,1.5,0,.14,0,.25.11.25.24,0,.14-.11.25-.25.26-.51,0-1.03,0-1.54,0h-.46ZM397.93,548.03h-.68c-.44,0-.88-.02-1.32-.02-.14,0-.25-.11-.24-.25,0-.14.11-.25.24-.25.68.01,1.34.01,2.01.02.13,0,.24.11.24.25s-.11.25-.25.25ZM359.94,548.02h0c-.14,0-.25-.11-.25-.25,0-.07.02-.13.07-.18.05-.04.11-.07.18-.07h.97c.34-.01.68-.01,1.03-.02.14,0,.25.11.25.25,0,.07-.03.13-.07.18-.05.05-.11.07-.18.07-.33,0-.67,0-1,0s-.67,0-1,.01ZM394.94,548h-.99c-.34,0-.68,0-1.02,0-.13,0-.25-.11-.25-.25s.12-.25.26-.25c.62,0,1.24,0,1.85,0h.15c.14,0,.25.12.24.26,0,.13-.11.24-.24.24ZM362.94,548h0c-.14,0-.25-.12-.25-.25,0-.07.02-.13.07-.18s.11-.07.18-.07l2-.02c.13,0,.25.12.25.25,0,.14-.11.25-.25.25l-2,.02ZM391.93,547.98h-2c-.13-.01-.25-.12-.25-.26,0-.13.12-.24.25-.24h2.01c.13,0,.25.12.25.26,0,.13-.12.24-.26.24ZM365.94,547.98h0c-.14,0-.25-.11-.25-.25,0-.06.02-.13.07-.18.05-.04.11-.07.18-.07.4,0,.8,0,1.2-.01h.8c.13,0,.25.11.25.25,0,.13-.11.25-.25.25-.67,0-1.34.01-2,.01ZM388.93,547.97h0c-.66,0-1.33,0-2,0-.06,0-.13-.02-.17-.07-.05-.05-.08-.11-.07-.18,0-.14.11-.25.24-.25h2.01c.13,0,.25.12.25.26,0,.14-.12.25-.26.25ZM368.94,547.97h0c-.14,0-.25-.11-.25-.25,0-.07.02-.13.07-.18s.11-.08.18-.08h2c.14,0,.25.11.25.25s-.11.25-.25.25c-.67,0-1.34,0-2,0ZM385.94,547.96h-2.01c-.06,0-.13-.03-.17-.08-.05-.05-.08-.11-.07-.18,0-.13.11-.24.24-.24h2.01c.13,0,.24.11.24.25s-.11.25-.24.25ZM371.94,547.96h0c-.14,0-.25-.12-.25-.25,0-.14.11-.25.25-.25h.48c.51,0,1.01,0,1.52,0,.14,0,.25.11.25.25s-.12.25-.25.25c-.67,0-1.34,0-2,0ZM382.94,547.95h-2c-.14,0-.25-.11-.25-.25s.11-.25.25-.25h2c.13,0,.25.11.25.25s-.12.25-.25.25ZM374.94,547.95c-.14,0-.25-.11-.25-.25s.11-.25.25-.25h2c.14,0,.25.11.25.25s-.11.25-.25.25h-2ZM379.94,547.95h-2c-.14,0-.25-.11-.25-.25s.11-.25.25-.25h2c.14,0,.25.11.25.25s-.11.25-.25.25Z"/>
    <path class="st5" d="M577.29,178.98c-.08,0-.15-.04-.2-.1-.04-.05-.06-.12-.05-.18,0-.07.04-.13.09-.17.45-.34.96-.73,1.61-1.2.11-.08.27-.05.35.05.08.11.06.27-.05.35-.56.41-1.1.81-1.6,1.2-.05.03-.1.05-.15.05ZM579.7,177.19c-.08,0-.16-.04-.2-.1-.03-.04-.05-.09-.05-.14,0-.08.04-.16.11-.21.55-.39,1.1-.78,1.64-1.15.11-.08.27-.05.35.06.03.06.05.12.04.19-.02.07-.05.12-.11.16-.65.45-1.17.82-1.63,1.15-.05.03-.1.04-.15.04ZM582.17,175.48c-.09,0-.16-.04-.21-.11-.03-.04-.04-.09-.04-.14,0-.08.03-.15.1-.2h0s.03-.02.04-.03c.48-.32,1.01-.68,1.63-1.09.12-.08.28-.04.35.07.03.05.05.12.04.19-.02.06-.06.12-.11.16-.58.38-1.14.75-1.66,1.11-.05.03-.09.04-.14.04ZM584.67,173.82c-.09,0-.17-.04-.21-.11-.03-.05-.04-.09-.04-.15,0-.08.04-.16.11-.2.52-.34,1.09-.7,1.69-1.08.11-.08.27-.04.34.07.04.06.05.13.03.19,0,.07-.05.12-.11.16-.61.39-1.16.74-1.68,1.08-.04.03-.08.04-.13.04ZM587.2,172.2c-.09,0-.17-.04-.22-.11-.02-.04-.03-.09-.03-.13-.01-.09.04-.17.11-.22.49-.31,1.03-.64,1.71-1.06.11-.07.27-.03.34.09.07.11.03.27-.08.34-.59.36-1.16.72-1.7,1.05,0,.01-.01.01-.01.01-.04.02-.08.03-.12.03ZM589.75,170.63c-.09,0-.17-.05-.21-.12-.03-.04-.04-.09-.04-.13,0-.09.05-.17.12-.22.51-.31,1.11-.67,1.72-1.03.11-.07.27-.03.34.09s.03.27-.09.34c-.66.39-1.2.72-1.71,1.03-.04.02-.08.04-.13.04ZM592.33,169.09c-.09,0-.17-.05-.22-.13-.02-.04-.03-.08-.03-.13,0-.09.04-.16.12-.21.64-.37,1.2-.7,1.73-1.01.12-.06.28-.02.35.09.06.13.02.28-.1.35-.55.31-1.11.64-1.72,1h0s-.09.04-.13.04ZM594.93,167.59c-.09,0-.17-.05-.22-.13-.02-.04-.03-.08-.03-.12,0-.09.04-.18.12-.22.6-.34,1.18-.67,1.75-.98.12-.07.28-.02.34.09.07.13.02.28-.1.34-.56.32-1.13.64-1.74.98-.04.02-.08.04-.12.04ZM597.55,166.12c-.09,0-.18-.05-.22-.13-.02-.03-.03-.07-.03-.12,0-.09.05-.17.13-.22.61-.33,1.23-.67,1.76-.95.12-.07.27-.02.34.1.03.06.04.13.02.19-.02.07-.07.12-.12.15-.56.29-1.13.6-1.75.94,0,.01,0,.01,0,.01-.04.02-.08.03-.12.03ZM600.19,164.7c-.09,0-.18-.05-.22-.13-.02-.04-.03-.08-.03-.12,0-.1.05-.18.13-.22.53-.28,1.15-.6,1.78-.93.12-.06.28-.01.34.11.03.06.03.13.01.19-.02.06-.06.12-.12.15-.63.32-1.25.64-1.77.92-.04.02-.08.03-.12.03ZM602.85,163.32c-.09,0-.18-.05-.22-.14,0-.03-.02-.07-.02-.11,0-.09.04-.18.12-.22t.01,0s.02,0,.03-.01c.58-.29,1.17-.59,1.76-.88.12-.06.28,0,.34.11.06.13,0,.28-.12.34-.62.3-1.22.61-1.78.89,0,0,0,.01,0,.01-.03,0-.07.02-.11.02ZM605.54,161.98c-.1,0-.18-.05-.23-.14,0-.03-.02-.07-.02-.11,0-.09.05-.18.14-.22.57-.28,1.16-.56,1.81-.87.12-.06.27,0,.33.12.06.13.01.27-.12.33-.64.31-1.23.59-1.8.87-.04,0-.07.02-.11.02ZM608.25,160.69c-.09,0-.18-.05-.22-.14-.02-.03-.03-.07-.03-.11,0-.09.06-.18.14-.22h0s.02,0,.03-.02c.55-.25,1.14-.52,1.8-.82.12-.05.27,0,.33.13.05.12,0,.27-.13.33-.65.29-1.25.56-1.82.83-.03.02-.07.02-.11.02ZM610.99,159.46c-.1,0-.19-.06-.23-.15,0-.03-.02-.06-.02-.1,0-.1.06-.19.15-.23.65-.29,1.25-.55,1.84-.79.13-.06.28,0,.33.13.05.13,0,.27-.13.33-.62.26-1.24.52-1.84.79-.03,0-.07.02-.1.02ZM613.75,158.28c-.1,0-.19-.06-.23-.15,0-.03-.02-.07-.02-.1,0-.1.06-.19.15-.22t.01,0h.02c.65-.27,1.25-.52,1.84-.75.12-.04.27.02.32.14.05.13,0,.28-.14.33-.66.26-1.26.5-1.85.74-.03.02-.07.02-.1.02ZM616.54,157.18c-.1,0-.19-.07-.23-.17,0-.03-.02-.05-.02-.08,0-.11.07-.2.16-.24.69-.26,1.3-.49,1.88-.7.13-.04.28.03.32.15.05.13-.02.28-.15.33-.62.22-1.25.45-1.87.69-.03.01-.06.02-.09.02Z"/>
    <path class="st5" d="M579.96,186.79c-.07,0-.15-.03-.19-.09-.04-.05-.07-.12-.06-.19,0-.06.04-.12.09-.16.16-.13.33-.27.55-.44.1-.09.27-.07.35.04.04.04.05.09.06.15,0,.08-.04.15-.1.2-.19.15-.37.3-.54.44-.05.03-.1.05-.16.05ZM581.3,185.74c-.08,0-.15-.04-.2-.1-.08-.11-.07-.27.04-.35.52-.4,1.07-.8,1.62-1.2.1-.08.27-.05.35.06.03.04.04.09.04.15,0,.08-.04.15-.1.2-.57.41-1.11.81-1.6,1.19-.04.03-.1.05-.15.05ZM583.72,183.96c-.08,0-.16-.04-.21-.1-.03-.06-.05-.13-.04-.19,0-.07.05-.12.1-.16.61-.44,1.14-.8,1.65-1.15.11-.08.27-.05.34.06.03.04.05.09.05.14,0,.09-.04.16-.11.21-.61.42-1.15.8-1.64,1.15-.04.03-.09.04-.14.04ZM586.19,182.25c-.09,0-.17-.04-.21-.11-.08-.11-.05-.27.07-.35.46-.31.97-.65,1.66-1.11h.02c.1-.07.26-.03.33.07.03.05.04.09.04.14,0,.09-.04.17-.11.21-.66.44-1.19.79-1.66,1.11-.05.03-.09.04-.14.04ZM588.69,180.59c-.09,0-.16-.04-.21-.11-.07-.12-.04-.27.08-.35.6-.39,1.15-.74,1.68-1.08.11-.07.27-.04.35.08.02.04.03.08.03.13,0,.08-.04.17-.11.21-.58.37-1.15.74-1.68,1.08-.04.03-.09.04-.14.04ZM591.22,178.98c-.08,0-.16-.05-.21-.12-.04-.05-.05-.12-.03-.19.01-.06.05-.12.11-.15.56-.35,1.13-.71,1.7-1.06.12-.07.27-.03.35.09.02.03.03.08.03.12,0,.09-.04.17-.12.22-.52.32-1.08.66-1.7,1.05-.03.03-.08.04-.13.04ZM593.78,177.4c-.09,0-.17-.04-.22-.11-.03-.06-.04-.13-.03-.2.02-.06.06-.12.12-.15.63-.38,1.19-.72,1.72-1.03h0c.11-.07.26-.02.33.09.02.04.04.08.04.13,0,.09-.05.17-.13.21-.51.3-1.06.63-1.71,1.03-.04.02-.09.03-.13.03ZM596.36,175.87c-.09,0-.17-.05-.22-.12-.03-.06-.04-.13-.03-.2.02-.06.06-.11.12-.15.55-.32,1.13-.66,1.73-1,.12-.07.28-.02.35.09.02.04.03.08.03.12,0,.09-.05.18-.13.22-.55.32-1.12.65-1.73,1-.04.03-.08.04-.12.04ZM598.96,174.37c-.09,0-.18-.05-.22-.13-.07-.12-.03-.27.09-.34.58-.33,1.17-.65,1.75-.97h0c.12-.07.28-.03.34.09.02.04.03.08.03.12,0,.09-.05.18-.13.22-.51.29-1.12.63-1.74.98-.04.02-.08.03-.12.03ZM601.58,172.91c-.09,0-.17-.05-.22-.13-.06-.12-.02-.27.1-.34.67-.37,1.23-.67,1.76-.95t0-.01c.12-.05.27,0,.33.11.02.04.03.08.03.12,0,.09-.05.17-.12.21h0s0,.02-.02.02c-.53.28-1.14.61-1.74.94-.04.02-.08.03-.12.03ZM604.23,171.49c-.1,0-.18-.05-.22-.13-.04-.06-.04-.13-.02-.2.02-.06.06-.11.12-.14.56-.3,1.14-.6,1.78-.93h0c.11-.06.26-.01.32.11.02.04.03.08.03.12,0,.09-.05.18-.13.22-.61.31-1.21.62-1.78.92-.03.02-.07.03-.11.03ZM606.89,170.11c-.09,0-.18-.05-.22-.14-.03-.06-.04-.13-.02-.19.03-.06.07-.11.13-.14.53-.27,1.15-.58,1.79-.9.12-.06.28-.01.34.11,0,.04.02.08.02.11,0,.1-.05.18-.13.23-.52.25-1.08.53-1.8.89-.03.02-.07.03-.11.03ZM609.59,168.77c-.1,0-.19-.05-.23-.14-.03-.06-.03-.13,0-.19.02-.06.07-.11.13-.14.58-.29,1.19-.58,1.81-.86.11-.06.27-.01.33.11,0,.04.02.08.02.11,0,.1-.06.19-.14.23-.61.28-1.2.57-1.81.86-.03.02-.07.02-.1.02ZM612.3,167.49c-.1,0-.19-.06-.23-.15-.06-.12,0-.27.12-.33.61-.28,1.22-.55,1.83-.83.12-.05.27.01.33.13,0,.03.02.06.02.1,0,.1-.06.18-.14.23h0s-.02.01-.03.01c-.54.24-1.11.5-1.79.82-.03,0-.07.02-.1.02ZM615.03,166.26c-.1,0-.19-.06-.23-.15-.05-.13,0-.27.13-.33.6-.26,1.22-.53,1.84-.79h0c.12-.05.27,0,.32.14,0,.03.02.06.02.09,0,.1-.06.19-.15.23-.66.28-1.26.53-1.84.79-.03,0-.07.02-.1.02ZM617.79,165.09c-.1,0-.19-.06-.23-.16-.05-.12,0-.27.14-.32.6-.25,1.23-.5,1.86-.75.13-.05.28.02.33.14,0,.03,0,.06,0,.09,0,.1-.06.2-.16.24-.67.26-1.28.51-1.85.74-.03,0-.06.02-.1.02ZM620.59,163.98c-.11,0-.2-.06-.24-.16-.05-.13.02-.27.15-.32.68-.26,1.29-.48,1.88-.69h0c.12-.05.26.02.31.15.04.13-.02.27-.15.32-.59.21-1.2.43-1.88.69-.02,0-.05,0-.08,0Z"/>
  </g>
  <path class="st6" d="M604.4,434.67c-1.6,60.46-4.12,88.7-13.52,116.8h0c.14.24,4.66,7.83,9.6,17.56,29.34-90.75,16.36-171.67,7.14-266.41-9.22-94.75-25.57-142.54-41.5-175.93,8.1,45,20.68,80.49,26.55,134.43,5.87,53.94,13.69,99.5,11.74,173.56Z"/>
</svg>