<?xml version="1.0" encoding="UTF-8"?>
<svg id="Livello_1" xmlns="http://www.w3.org/2000/svg" version="1.1" viewBox="0 0 671.05 548.68">
  <!-- Generator: Adobe Illustrator 29.8.1, SVG Export Plug-In . SVG Version: 2.1.1 Build 2)  -->
  <defs>
    <style>
      .st0 {
        fill: #131211;
        opacity: .14;
      }

      .st1 {
        fill: none;
        stroke: #131211;
        stroke-linecap: round;
        stroke-linejoin: round;
        stroke-width: 1.2px;
      }
    </style>
  </defs>
  <path class="st1" d="M529.09,28.72s2.54,1.17,3.22,3.91c1.3,5.17-5.25,33.1-15.68,92.05-.9,5.3-1.78,10.65-2.64,16.04"/>
  <path class="st1" d="M495.39,518.88c-49.31-7.26-88.13-7.35-118.34-5.25-27.65,1.91-55.4,1.91-83.06,0-30.21-2.1-69.03-2.01-118.34,5.25.64-2.53,1.23-5.4,1.72-8.37,1.96-11.93,4.5-21.33,4.5-21.33,2.5-4.74,4.24-8.56,5.22-15.2,3.4-.22,6.58-.31,9.52-.28,18,.2,24.94,1.32,40.69.4,23.87-1.4,38.94-2.16,98.22-2.16s74.35.76,98.22,2.16c15.76.92,22.7-.2,40.7-.4,2.94-.03,6.11.06,9.51.28.99,6.65,2.73,10.47,5.22,15.2,0,0,2.55,9.4,4.5,21.33.49,2.97,1.08,5.84,1.72,8.37Z"/>
  <path class="st1" d="M157.06,140.72c18.14,113.37,28.04,243.3,30.09,286.44,1.21,25.32,1.19,38.36-.06,46.82-.98,6.64-2.72,10.46-5.22,15.2,0,0-20.93-.97-32.09-.97s-24.84,3.52-34.82,3.52-29.54,4.69-29.54,4.69c0,0-9-14.47-22.31-66.52-13.3-52.04-37.96-131.09-47.35-165.91-9.39-34.83-13.69-32.87-5.48-46.57,8.22-13.69,34.44-54,61.44-90.78,27-36.78,51.06-74.15,57.13-87.26,6.07-13.11,8.61-14.87,25.83-16.63,17.21-1.76,70.69-9.72,117.38-6.97,0,0,1.96,3.63,6.69,8.31-64.99,47.38-96.62,79.45-121.69,116.63Z"/>
  <path class="st1" d="M483.95,473.98c-3.4-.22-6.57-.31-9.51-.28-18,.2-24.94,1.32-40.7.4-23.87-1.4-38.94-2.16-98.22-2.16s-74.35.76-98.22,2.16c-15.75.92-22.69-.2-40.69-.4-2.94-.03-6.12.06-9.52.28,1.25-8.46,1.27-21.5.06-46.82-2.05-43.14-11.95-173.07-30.09-286.44,25.07-37.18,56.7-69.25,121.69-116.63,8.48,8.37,25.86,20.08,56.77,20.1,30.91-.02,48.29-11.73,56.77-20.1,64.99,47.38,96.62,79.45,121.7,116.63-18.15,113.37-28.05,243.3-30.1,286.44-1.2,25.32-1.18,38.36.06,46.82Z"/>
  <path class="st1" d="M655.28,263.99c-9.39,34.82-34.04,113.87-47.35,165.91-13.3,52.05-22.3,66.52-22.3,66.52,0,0-19.57-4.69-29.54-4.69s-23.68-3.52-34.83-3.52-32.09.97-32.09.97c-2.49-4.73-4.23-8.55-5.22-15.2-1.24-8.46-1.26-21.5-.06-46.82,2.05-43.14,11.95-173.07,30.1-286.44-25.08-37.18-56.71-69.25-121.7-116.63,4.73-4.68,6.69-8.31,6.69-8.31,46.69-2.75,100.17,5.21,117.39,6.97,17.22,1.76,19.76,3.52,25.82,16.63,6.07,13.11,30.14,50.48,57.14,87.26,27,36.78,53.21,77.09,61.43,90.78,8.22,13.7,3.91,11.74-5.48,46.57Z"/>
  <path class="st1" d="M585.63,496.42c-4.43,13.11-6.61,16.11-10.76,32.09-.81,3.14-3.78,5.24-7.02,4.94-27.24-2.55-54.77-2.79-64.37-3.29-2.41-.12-4.55-1.55-5.6-3.72-.81-1.68-1.69-4.36-2.49-7.56-.64-2.53-1.23-5.4-1.72-8.37-1.95-11.93-4.5-21.33-4.5-21.33,0,0,20.94-.97,32.09-.97s24.85,3.52,34.83,3.52,29.54,4.69,29.54,4.69Z"/>
  <path class="st1" d="M181.87,489.18s-2.54,9.4-4.5,21.33c-.49,2.97-1.08,5.84-1.72,8.37-.8,3.2-1.67,5.88-2.48,7.56-1.05,2.17-3.2,3.6-5.61,3.72-9.6.5-37.13.74-64.37,3.29-3.23.3-6.2-1.8-7.02-4.94-4.14-15.98-6.33-18.98-10.75-32.09,0,0,19.56-4.69,29.54-4.69s23.67-3.52,34.82-3.52,32.09.97,32.09.97Z"/>
  <path class="st1" d="M141.96,28.72s-2.54,1.17-3.23,3.91c-1.29,5.17,5.25,33.1,15.69,92.05.9,5.3,1.78,10.65,2.64,16.04"/>
  <path class="st0" d="M199.13,473.73c-.33,5.78-.86,10.13-1.61,12.78-3.91,13.83-6,30.25-6,30.25-5.12.62-10.36,1.33-15.73,2.12.64-2.53,1.23-5.4,1.72-8.37,1.96-11.93,4.5-21.33,4.5-21.33,2.5-4.74,4.24-8.56,5.22-15.2,1.25-8.46,1.27-21.5.06-46.82-2.05-43.14-11.95-173.07-30.09-286.44-.86-5.39-1.74-10.74-2.64-16.04-10.44-58.95-16.98-86.88-15.69-92.05.41-1.63,1.48-2.7,2.27-3.3,2.9-1.82,5.51.79,3.82,8.35-1.7,7.57,6.91,42.13,19.17,88.83.27,1.04.54,2.1.81,3.19,12,47.98,24.09,146,29.19,213.85,4.22,56.08,6.39,105.84,5,130.18Z"/>
  <path class="st0" d="M471.91,473.73c.33,5.78.86,10.13,1.61,12.78,3.91,13.83,6,30.25,6,30.25,5.12.62,10.36,1.33,15.73,2.12-.64-2.53-1.23-5.4-1.72-8.37-1.96-11.93-4.5-21.33-4.5-21.33-2.5-4.74-4.24-8.56-5.22-15.2-1.25-8.46-1.27-21.5-.06-46.82,2.05-43.14,11.95-173.07,30.09-286.44.86-5.39,1.74-10.74,2.64-16.04,10.44-58.95,16.98-86.88,15.69-92.05-.41-1.63-1.48-2.7-2.27-3.3-2.9-1.82-5.51.79-3.82,8.35,1.7,7.57-6.91,42.13-19.17,88.83-.27,1.04-.54,2.1-.81,3.19-12,47.98-24.09,146-29.19,213.85-4.22,56.08-6.39,105.84-5,130.18Z"/>
  <path class="st0" d="M131.4,34.23c-4.97,14.54,3.12,37.23,3.12,37.23,0,0-8.65-14.15-8.3-26.9,3.7-7.42,5.18-10.33,5.18-10.33Z"/>
  <path class="st0" d="M539.65,34.23c4.97,14.54-3.12,37.23-3.12,37.23,0,0,8.65-14.15,8.3-26.9-3.7-7.42-5.18-10.33-5.18-10.33Z"/>
  <path class="st0" d="M42.17,269.6c14.09,72.78,44.3,176.87,44.3,176.87,0,0-36.87-105.26-44.3-176.87Z"/>
  <path class="st0" d="M587.44,164.84c24.37,81.48,16.59,193.19,16.59,193.19,0,0,15.2-108.83-16.59-193.19Z"/>
</svg>