<?xml version="1.0" encoding="UTF-8"?>
<svg id="Livello_3" xmlns="http://www.w3.org/2000/svg" version="1.1" viewBox="0 0 756.78 679.7">
  <!-- Generator: Adobe Illustrator 29.8.1, SVG Export Plug-In . SVG Version: 2.1.1 Build 2)  -->
  <defs>
    <style>
      .st0 {
        fill: none;
        stroke: #131211;
        stroke-linecap: round;
        stroke-linejoin: round;
        stroke-width: 1.2px;
      }
    </style>
  </defs>
  <path class="st0" d="M718.26,627.1c.47,2.84-1.2,5.58-3.93,6.47-7.4,2.39-22.63,7.11-40.24,11.27-15.29,3.61-24.99,5.1-30.18,5.72-2.76.32-5.34-1.32-6.21-3.95-1.76-5.34-4.8-14.64-7.22-22.45-3.63-11.74-6.01-13.07-6.01-13.07-6.84-3.72-12.98-16.58-18.85-30.53-2.62-6.23-6.4-13.84-9.78-20.36-.05-.09-.09-.16-.13-.24-1.75-3.37-3.39-6.45-4.69-8.87-.05-.07-.09-.14-.12-.2-2.17,6.51-4.68,13.01-7.65,19.88-4.75,9.79-14.39,39.27-24.87,37.88-10.49-1.41-79.51-11.33-179.98-11.33s-169.51,9.92-179.99,11.33c-10.48,1.39-20.12-28.09-24.87-37.88-2.96-6.87-5.49-13.37-7.64-19.88-.03.06-.08.13-.12.2-1.31,2.42-2.95,5.5-4.69,8.87-.05.08-.09.15-.13.24-3.39,6.52-7.17,14.13-9.78,20.36-5.87,13.97-12.02,26.82-18.87,30.53,0,0-2.38,1.33-6.01,13.07-2.41,7.81-5.45,17.11-7.21,22.45-.87,2.63-3.46,4.27-6.2,3.95-5.2-.62-14.89-2.11-30.18-5.72-17.63-4.16-32.86-8.88-40.25-11.27-2.72-.89-4.39-3.63-3.93-6.47,1.39-8.45,4.08-25.9,4.49-36.21-8.38-22.08-10.62-69.02-5.03-143.92,5.59-74.91,32.56-160.28,61.48-222.75,11.91-25.7,23.88-46.85,36.62-65.08,18.24-26.06,38.05-46.13,61.49-64.88,39.82-31.86,68.74-47.79,112.83-65.17,0,0,16.41,30.41,67.99,30.44,51.57-.03,67.97-30.44,67.97-30.44,44.1,17.38,73.03,33.31,112.85,65.17,23.44,18.75,43.25,38.82,61.48,64.88,12.74,18.23,24.72,39.38,36.62,65.08,28.93,62.47,55.89,147.84,61.48,222.75,5.59,74.9,3.36,121.84-5.03,143.92.42,10.31,3.11,27.76,4.49,36.21Z"/>
</svg>