<?xml version="1.0" encoding="UTF-8"?>
<svg id="Livello_1" xmlns="http://www.w3.org/2000/svg" version="1.1" viewBox="0 0 703.88 640.96">
  <!-- Generator: Adobe Illustrator 29.8.1, SVG Export Plug-In . SVG Version: 2.1.1 Build 2)  -->
  <defs>
    <style>
      .st0 {
        fill: #ffda00;
      }

      .st1 {
        fill: #ff7900;
      }

      .st2 {
        fill: red;
      }

      .st3 {
        fill: #00fff2;
      }

      .st4 {
        fill: #131211;
        opacity: .14;
      }

      .st5 {
        fill: none;
        stroke: #131211;
        stroke-linecap: round;
        stroke-linejoin: round;
        stroke-width: 1.2px;
      }
    </style>
  </defs>
  <path class="st2" d="M126.13,415.3c1.59,60.05,4.08,88.31,13.32,116.22-.03.06-.08.13-.12.2-1.31,2.42-2.95,5.5-4.69,8.87-.04.08-.09.15-.13.24-3.39,6.52-7.17,14.13-9.78,20.36-5.87,13.97-12.02,26.83-18.87,30.53,0,0-7.26-.06-18.45-3.42-11.17-3.35-27.38-14.54-48.63-16.36-11.03-.98-22.22-.42-22.22-.42-8.38-22.08-10.62-69.03-5.02-143.92,5.59-74.91,32.56-160.28,61.48-222.75,11.9-25.7,23.88-46.85,36.62-65.07,17.06,6.11,36.09,18.27,42.5,23.51-5.56,23.63-10.98,48.14-14.28,78.46-5.87,53.94-13.69,99.5-11.73,173.56Z"/>
  <path class="st3" d="M105.86,591.72s-2.38,1.33-6.01,13.07c-2.41,7.81-5.45,17.11-7.21,22.46-.87,2.62-3.46,4.26-6.2,3.94-5.2-.62-14.89-2.11-30.18-5.72-17.62-4.16-32.86-8.87-40.25-11.27-2.72-.89-4.39-3.62-3.93-6.46,1.39-8.45,4.08-25.9,4.49-36.21,0,0,11.18-.56,22.22.42,21.24,1.82,37.45,13.01,48.63,16.36,11.18,3.35,18.45,3.42,18.45,3.42Z"/>
  <path class="st0" d="M566.02,241.75c5.87,53.94,13.7,99.5,11.74,173.56-1.59,60.05-4.09,88.31-13.32,116.22-2.16,6.51-4.68,13.01-7.65,19.88-22.78-6.98-70.85-17.04-204.85-17.04s-182.08,10.06-204.86,17.04c-2.96-6.88-5.49-13.37-7.64-19.88-9.24-27.91-11.73-56.17-13.32-116.22-1.96-74.06,5.86-119.61,11.73-173.56,3.3-30.33,8.72-54.83,14.28-78.46-6.41-5.24-25.44-17.4-42.5-23.51,18.23-26.07,38.04-46.13,61.48-64.88,39.82-31.86,68.75-47.79,112.83-65.17,0,0,16.41,30.4,67.99,30.44,51.57-.03,67.98-30.44,67.98-30.44,44.1,17.38,73.02,33.31,112.84,65.17,23.44,18.75,43.25,38.81,61.48,64.88-17.05,6.11-36.09,18.27-42.5,23.51,5.56,23.63,10.97,48.14,14.27,78.46Z"/>
  <path class="st2" d="M687.31,571.53s-11.17-.56-22.22.42c-21.23,1.82-37.44,13.01-48.63,16.36-10.87,3.27-18.05,3.41-18.44,3.42h-.01c-6.85-3.72-12.98-16.57-18.86-30.53-2.61-6.22-6.4-13.83-9.78-20.36-.04-.09-.09-.16-.13-.24-1.75-3.37-3.39-6.45-4.69-8.87-.04-.08-.09-.14-.12-.2,9.22-27.91,11.73-56.17,13.32-116.22,1.96-74.06-5.87-119.61-11.74-173.56-3.3-30.33-8.71-54.83-14.27-78.46,6.41-5.24,25.45-17.4,42.5-23.51,12.74,18.22,24.72,39.37,36.62,65.07,28.93,62.47,55.89,147.84,61.48,222.75,5.58,74.9,3.35,121.84-5.04,143.92Z"/>
  <path class="st3" d="M687.87,614.2c-7.39,2.4-22.63,7.11-40.24,11.27-15.29,3.61-24.98,5.1-30.18,5.72-2.75.32-5.34-1.32-6.2-3.94-1.77-5.35-4.8-14.65-7.22-22.46-3.63-11.74-6.01-13.07-6.01-13.07h.01c.39-.01,7.56-.15,18.44-3.42,11.18-3.35,27.39-14.54,48.63-16.36,11.05-.98,22.22-.42,22.22-.42.42,10.31,3.11,27.76,4.49,36.21.47,2.84-1.2,5.57-3.93,6.46Z"/>
  <path class="st3" d="M556.79,551.41c-4.75,9.78-14.39,39.26-24.87,37.87-10.49-1.4-79.51-11.32-179.98-11.32s-169.51,9.92-179.98,11.32c-10.48,1.39-20.12-28.09-24.88-37.87,22.78-6.98,70.85-17.04,204.86-17.04s182.07,10.06,204.85,17.04Z"/>
  <line class="st5" x1="109.64" y1="139.78" x2="109.63" y2="139.78"/>
  <path class="st4" d="M125.93,415.3c1.6,60.46,4.12,88.7,13.52,116.8h0c-.14.24-4.66,7.83-9.6,17.56-29.34-90.75-16.36-171.67-7.14-266.41,9.22-94.75,25.57-142.54,41.5-175.93-8.1,45-20.68,80.49-26.55,134.43-5.87,53.94-13.69,99.5-11.74,173.56Z"/>
  <path class="st1" d="M110.89,587.57s-.74,0-2.02-.07c-.13,0-.24-.12-.23-.26,0-.14.12-.23.26-.23,1.04.05,1.7.06,1.92.06h.07c.14,0,.25.11.25.25s-.11.25-.25.25ZM107.88,587.45h0c-.56-.04-1.24-.09-2-.15-.14,0-.24-.13-.23-.27,0-.14.12-.24.27-.23.63.05,1.28.1,1.99.15.13,0,.24.11.24.25h0c-.01.14-.12.25-.26.25ZM104.89,587.21h-.02c-.66-.06-1.35-.14-2-.21-.13-.02-.23-.14-.22-.28.02-.14.14-.23.28-.22.62.07,1.27.14,1.99.21.12,0,.22.12.22.25v.02c-.01.13-.12.23-.25.23ZM101.91,586.88h-.03c-.63-.08-1.3-.18-1.99-.28-.07-.01-.12-.04-.16-.09-.04-.06-.06-.12-.05-.19.02-.13.14-.23.28-.21.67.1,1.33.19,1.98.27.13.02.22.13.22.25v.03c-.02.12-.13.22-.25.22ZM98.93,586.45h-.03c-.67-.11-1.34-.22-1.98-.34-.07,0-.12-.04-.16-.1-.04-.05-.05-.12-.04-.19.02-.13.15-.23.29-.2.68.12,1.34.24,1.97.34.12.02.21.12.21.24,0,.02,0,.03,0,.04-.02.12-.12.21-.25.21ZM95.98,585.93h-.05c-.71-.14-1.35-.27-1.96-.41-.07-.01-.12-.05-.16-.11-.04-.05-.05-.12-.03-.19.03-.13.16-.21.29-.19.64.14,1.3.28,1.96.41h0c.12.02.2.12.2.24v.05c-.03.12-.13.2-.25.2ZM93.05,585.31s-.04,0-.06-.01c-.69-.16-1.33-.32-1.95-.48-.13-.03-.21-.17-.18-.3.03-.13.17-.22.3-.18.66.17,1.31.33,1.94.47h0c.11.03.18.13.19.24,0,.02-.01.04-.01.06-.03.12-.13.2-.24.2ZM90.14,584.57s-.05,0-.07,0c-.45-.12-.93-.26-1.47-.42-.16-.05-.31-.09-.46-.14-.06-.02-.11-.07-.15-.13-.03-.06-.03-.12-.01-.19.04-.13.18-.2.31-.16.15.05.3.09.45.14.5.15.99.29,1.46.42.11.03.19.13.19.24-.01.02-.01.05-.01.07-.03.1-.13.18-.24.18ZM87.26,583.7s-.05,0-.07-.02c-.61-.2-1.25-.44-1.89-.69-.13-.05-.2-.19-.15-.32.05-.13.2-.19.33-.14.6.23,1.23.46,1.86.68h0c.1.03.16.12.17.23,0,.03,0,.06-.02.09-.03.1-.13.17-.24.17ZM84.46,582.64s-.07,0-.1-.01c-.6-.25-1.23-.51-1.85-.77-.06-.03-.11-.08-.13-.14-.03-.06-.03-.13,0-.19.05-.12.2-.19.33-.13.59.25,1.19.5,1.84.76.09.04.16.13.16.23,0,.03,0,.07-.02.1-.04.09-.13.15-.23.15ZM81.69,581.48s-.07-.01-.1-.02c-.66-.29-1.33-.59-1.83-.81-.06-.03-.11-.08-.13-.14-.03-.07-.02-.13.01-.19.05-.12.2-.18.33-.13.74.33,1.3.58,1.82.81.09.04.15.13.15.23,0,.04,0,.07-.02.1-.04.09-.13.15-.23.15ZM78.95,580.26s-.07,0-.1-.03l-.29-.13c-.5-.23-1.02-.46-1.53-.7-.06-.03-.11-.08-.13-.14-.03-.06-.02-.13.01-.19.05-.12.2-.18.33-.12.61.28,1.22.56,1.81.83.09.04.15.13.15.23,0,.04-.01.07-.02.1-.04.09-.13.15-.23.15ZM76.22,579.01s-.07,0-.1-.02h-.01s0,0,0,0l-.28-.13c-.5-.23-1.01-.46-1.52-.69-.13-.06-.18-.21-.13-.34.06-.12.21-.18.34-.12.59.27,1.2.55,1.8.83h.01c.09.04.15.13.15.22,0,.04-.01.08-.02.11-.04.09-.13.15-.23.15ZM73.49,577.76s-.07,0-.1-.02c-.62-.28-1.26-.57-1.82-.82-.13-.06-.19-.21-.13-.33.05-.12.21-.18.33-.13.6.27,1.22.55,1.83.83.09.04.14.13.14.23,0,.03-.01.06-.02.1-.04.09-.13.14-.23.14ZM70.75,576.54s-.06,0-.1-.02c-.5-.22-1.16-.52-1.83-.81-.13-.05-.18-.2-.13-.32.05-.13.2-.18.33-.13.56.24,1.16.5,1.83.8.1.04.15.13.15.23,0,.03,0,.07-.02.1-.04.09-.13.15-.23.15ZM68,575.34s-.07,0-.1-.02c-.62-.26-1.25-.52-1.84-.76-.13-.06-.19-.2-.14-.33.05-.13.21-.19.33-.14.63.26,1.25.52,1.85.77.09.04.15.13.15.23,0,.04,0,.07-.02.1-.04.09-.13.15-.23.15ZM65.23,574.2s-.06,0-.1-.02c-.53-.22-1.12-.45-1.85-.73-.13-.05-.2-.19-.15-.32.05-.13.2-.19.32-.15.61.24,1.24.49,1.87.74.09.03.15.12.16.22,0,.04,0,.07-.02.1-.04.1-.13.16-.23.16ZM62.43,573.11s-.06,0-.09,0c-.59-.22-1.21-.45-1.87-.68-.14-.05-.2-.19-.16-.33.05-.12.2-.19.32-.15.55.2,1.13.41,1.89.69.09.04.16.13.16.23,0,.03-.01.06-.02.09-.03.1-.13.16-.23.16ZM59.61,572.1s-.06,0-.09-.01c-.75-.26-1.33-.46-1.89-.63-.13-.05-.2-.19-.16-.32.04-.13.19-.2.31-.16.7.22,1.32.43,1.9.63h0c.1.04.17.14.17.25,0,.02,0,.05-.02.07-.03.1-.13.17-.23.17ZM56.75,571.17s-.04,0-.07-.02c-.69-.21-1.32-.39-1.91-.57-.14-.04-.21-.18-.17-.31s.18-.21.31-.17c.69.2,1.32.39,1.92.58.1.03.17.13.17.24,0,.02,0,.05,0,.07-.03.1-.13.18-.24.18ZM53.88,570.32s-.05,0-.07,0c-.61-.16-1.24-.33-1.93-.5-.13-.04-.21-.17-.18-.31.03-.13.17-.21.3-.18.66.17,1.31.34,1.94.51.11.03.19.13.19.25,0,.02,0,.04,0,.06-.03.11-.13.18-.24.18ZM50.97,569.58s-.04,0-.06,0c-.63-.15-1.28-.3-1.94-.44-.07,0-.13-.05-.16-.11-.04-.05-.05-.12-.04-.18.03-.14.17-.23.3-.2.66.14,1.32.29,1.96.44h0c.11.03.19.13.19.24,0,.02,0,.04-.01.06-.02.12-.13.2-.24.2ZM48.04,568.94s-.03,0-.05-.01c-.67-.13-1.32-.25-1.96-.36-.14-.02-.23-.15-.2-.29.02-.13.15-.22.28-.2.69.12,1.36.24,1.98.36.11.03.2.13.2.25v.05c-.03.11-.13.2-.25.2ZM45.09,568.41h-.04s-.03,0-.04,0c-.69-.1-1.32-.19-1.93-.27-.14-.02-.24-.15-.22-.28.02-.14.14-.23.28-.22.66.09,1.33.18,1.99.28t.01,0c.11.02.2.12.2.24,0,0-.01.03-.01.04-.02.12-.12.21-.24.21ZM42.11,568.01h-.02c-.71-.09-1.36-.15-1.99-.21-.14,0-.24-.13-.23-.27.02-.13.13-.23.28-.22.63.05,1.28.12,1.98.2h.01c.13.01.23.12.22.25v.03c0,.12-.12.22-.25.22ZM39.11,567.72h-.03c-.65-.06-1.32-.1-1.96-.14-.14,0-.25-.13-.24-.27.01-.14.14-.25.27-.23.65.04,1.32.09,2,.14.13.01.23.12.23.26h0c0,.14-.12.24-.25.24h-.02ZM36.13,567.51h0c-.71-.04-1.36-.08-1.99-.1-.14,0-.25-.13-.24-.27,0-.14.12-.23.26-.24.64.04,1.31.07,2,.11t.01.01c.13,0,.23.12.23.24v.02c-.01.13-.12.23-.26.23ZM33.14,567.36h-.01c-.63-.03-1.28-.05-2-.08-.14,0-.25-.12-.24-.26,0-.13.11-.24.25-.24h0c.59.02,1.25.05,2,.08.13,0,.24.11.24.25h0c-.01.14-.12.25-.25.25ZM30.14,567.25h-.01c-.62-.02-1.27-.03-2-.05-.13,0-.24-.12-.24-.26,0-.13.11-.24.25-.24.66,0,1.33.03,2.01.05.14,0,.24.12.24.26-.01.13-.12.24-.25.24ZM15.03,567.22h0c-.14,0-.25-.11-.25-.24-.01-.07.02-.13.06-.18.05-.05.11-.08.18-.08h.12c.13,0,.24.1.25.24,0,.14-.11.25-.25.26h-.11ZM16.14,567.19h-.01c-.13,0-.24-.1-.25-.24,0-.14.11-.25.25-.26.43,0,1.16-.02,2-.03.14,0,.25.11.26.25,0,.14-.11.25-.25.25-.83,0-1.51.02-2,.03ZM27.14,567.18h-.12c-.65,0-1.27-.02-1.89-.03-.13,0-.24-.11-.24-.25s.11-.25.25-.25c.64,0,1.32.02,2,.03.14,0,.25.12.25.26-.01.13-.12.24-.25.24ZM19.14,567.15h0c-.14,0-.25-.11-.25-.25,0-.06.02-.13.07-.17.04-.05.11-.08.17-.08h.31c.53,0,1.1,0,1.7,0,.14,0,.25.11.25.25s-.11.25-.25.25c-.72,0-1.39,0-2,0ZM24.14,567.14h-2c-.14,0-.25-.11-.25-.25s.11-.25.25-.25c.75,0,1.39,0,2,0,.07,0,.13.02.18.07.04.05.07.11.07.18,0,.13-.12.24-.25.24Z"/>
  <path class="st1" d="M152.9,159.5c-.06,0-.11-.02-.15-.06-.5-.37-1.04-.78-1.61-1.18-.06-.05-.1-.13-.1-.2,0-.06.02-.11.05-.15.07-.11.24-.14.35-.06.56.41,1.1.81,1.61,1.2.05.04.08.1.09.16,0,.07,0,.14-.04.19-.05.06-.13.1-.2.1ZM150.48,157.72s-.11-.02-.15-.05c-.43-.3-1.01-.71-1.64-1.14h0c-.07-.06-.1-.13-.1-.21,0-.05,0-.1.04-.14.08-.11.24-.14.35-.06.61.42,1.2.83,1.64,1.14.11.09.14.24.06.35-.05.07-.12.11-.2.11ZM148.01,156.01c-.05,0-.1-.02-.14-.04-.56-.38-1.12-.75-1.66-1.11-.07-.05-.11-.13-.12-.21,0-.05.02-.1.05-.14.07-.11.23-.15.34-.07.59.38,1.15.76,1.67,1.11.05.04.09.1.11.16,0,.07-.01.13-.04.19-.05.07-.13.11-.21.11ZM145.51,154.35c-.05,0-.1,0-.14-.04-.57-.37-1.14-.74-1.68-1.08t0,0c-.07-.04-.11-.12-.11-.21,0-.04.02-.09.04-.12.07-.12.23-.15.35-.08.6.38,1.15.74,1.68,1.08.12.07.15.23.08.35-.05.07-.13.11-.21.11ZM142.97,152.74s-.09-.02-.13-.04c-.54-.34-1.11-.7-1.7-1.06-.07-.04-.12-.12-.12-.21,0-.05.02-.09.04-.13.07-.11.23-.15.34-.08.55.33,1.11.68,1.71,1.05.06.04.09.09.11.16,0,.06,0,.13-.03.19-.05.07-.13.12-.22.12ZM140.42,151.16s-.09,0-.13-.04c-.56-.34-1.14-.68-1.71-1.02-.08-.05-.13-.13-.13-.22,0-.04,0-.09.04-.13.07-.11.23-.15.34-.08.56.33,1.13.67,1.72,1.03.06.03.1.08.11.15.02.06,0,.13-.03.19-.04.08-.12.12-.21.12ZM137.84,149.62s-.09,0-.13-.03c-.53-.32-1.1-.64-1.73-1h0c-.08-.06-.12-.14-.12-.23,0-.04.01-.08.03-.11.07-.12.22-.16.34-.1h0s.01,0,.02,0c.55.32,1.08.63,1.72,1,.12.07.16.22.09.34-.05.08-.13.12-.22.12ZM135.24,148.13s-.09-.02-.12-.04c-.58-.32-1.16-.65-1.75-.97-.08-.05-.13-.13-.13-.22,0-.05.02-.09.04-.12.06-.12.22-.17.34-.1.55.31,1.13.63,1.74.98.06.03.1.08.12.15.02.06.01.13-.02.19-.05.08-.13.13-.22.13ZM132.62,146.66s-.08,0-.12-.03c-.6-.32-1.18-.64-1.76-.94,0,0-.01,0-.01,0-.07-.05-.12-.13-.12-.22,0-.04.01-.08.03-.11.06-.12.21-.17.33-.11.57.3,1.16.62,1.77.96.06.03.1.08.12.14.02.07.01.14-.02.19-.05.08-.13.13-.22.13ZM129.97,145.24s-.08-.01-.11-.02c-.6-.32-1.2-.63-1.78-.93-.08-.04-.13-.13-.13-.23,0-.03,0-.07.03-.1.05-.12.21-.17.33-.11h0s.02.01.03.01c.64.33,1.21.63,1.75.91.06.03.1.09.12.15.02.06.02.13-.02.19-.04.08-.12.13-.22.13ZM127.31,143.87s-.08,0-.12-.03c-.58-.3-1.18-.6-1.78-.89h-.01c-.08-.05-.14-.14-.14-.23,0-.04,0-.08.03-.11.06-.12.21-.17.33-.11.67.32,1.26.62,1.8.89.12.07.17.22.11.34-.04.08-.13.14-.22.14ZM124.61,142.53s-.07-.01-.1-.03c-.54-.25-1.17-.56-1.81-.85t-.01-.01c-.08-.04-.13-.13-.13-.22,0-.04.01-.08.02-.11.06-.12.21-.17.33-.12.6.28,1.2.57,1.81.87.06.02.11.07.13.14.02.06.02.13,0,.19-.04.08-.13.14-.23.14ZM121.9,141.24s-.07,0-.1-.02c-.57-.26-1.16-.53-1.82-.82-.09-.04-.15-.14-.15-.24,0-.03.01-.06.02-.09.06-.12.21-.18.33-.13.65.29,1.25.56,1.83.83.06.03.1.08.13.14.02.06.02.13-.01.19-.04.09-.13.14-.23.14ZM119.17,140.02s-.07,0-.1-.02c-.58-.26-1.18-.51-1.84-.79-.09-.04-.15-.13-.15-.23,0-.04,0-.07.02-.1.05-.12.2-.18.33-.13.67.28,1.27.54,1.84.79.06.02.11.07.13.13.03.07.02.13,0,.2-.04.09-.13.15-.23.15ZM116.41,138.84s-.07,0-.1-.01c-.56-.23-1.15-.47-1.85-.75-.1-.03-.17-.13-.16-.23,0-.03,0-.06,0-.09.05-.13.2-.19.33-.14.6.24,1.23.49,1.86.74.13.06.19.2.14.33-.04.09-.13.15-.23.15ZM113.61,137.74s-.06,0-.09-.01c-.68-.26-1.29-.49-1.87-.69h0c-.06-.03-.11-.08-.14-.13-.03-.06-.03-.13-.01-.19.04-.13.19-.2.32-.16.6.22,1.21.44,1.88.7.06.02.11.07.14.13.03.06.03.13,0,.19-.04.1-.13.16-.24.16Z"/>
  <path class="st1" d="M150.37,167.43c-.06,0-.11-.02-.16-.06-.16-.14-.34-.28-.53-.43h-.01c-.06-.05-.09-.12-.09-.2,0-.06.01-.11.05-.16.08-.1.24-.12.35-.04.2.16.39.31.55.44.11.09.12.25.04.35-.05.06-.12.1-.2.1ZM149.03,166.37c-.05,0-.1-.02-.15-.05-.47-.36-.99-.75-1.6-1.19-.06-.04-.1-.12-.1-.2,0-.05,0-.11.05-.15.07-.11.24-.13.35-.05.61.44,1.14.83,1.61,1.19.11.09.13.25.04.35-.05.07-.12.1-.2.1ZM146.61,164.59s-.1-.01-.14-.04c-.53-.38-1.08-.76-1.64-1.14-.07-.05-.11-.13-.11-.21,0-.05.02-.1.05-.14.07-.11.23-.14.34-.07h.01s0,0,0,.02c.54.36,1.07.73,1.63,1.13.11.08.14.23.06.35-.05.06-.13.1-.21.1ZM144.15,162.88s-.1-.01-.14-.04c-.52-.35-1.06-.71-1.67-1.11-.07-.04-.11-.12-.11-.2,0-.05.01-.1.04-.14.07-.11.23-.15.34-.08h.01s0,.02.02.02c.53.35,1.06.7,1.65,1.1.11.07.14.23.06.35-.04.06-.12.1-.2.1ZM141.64,161.23s-.09-.02-.13-.04c-.6-.39-1.15-.74-1.68-1.08h0c-.07-.05-.11-.13-.11-.22,0-.05.01-.09.04-.13.07-.11.23-.15.34-.07.6.37,1.16.74,1.69,1.08.05.03.09.09.11.15,0,.07,0,.14-.04.19-.04.08-.12.12-.21.12ZM139.11,159.61s-.09-.01-.13-.04c-.53-.33-1.11-.68-1.7-1.05-.08-.04-.12-.12-.12-.21,0-.05,0-.09.04-.13.07-.12.22-.16.34-.08.47.29,1.09.67,1.7,1.05.12.08.16.23.08.35-.04.07-.12.11-.21.11ZM136.56,158.04s-.09,0-.13-.04c-.53-.32-1.09-.65-1.72-1.03-.07-.04-.12-.12-.12-.21,0-.04,0-.09.03-.13.07-.11.22-.15.34-.09h.01s0,.01.02.02c.51.3,1.1.66,1.69,1.01.12.08.16.23.09.35-.05.07-.13.12-.21.12ZM133.97,156.5s-.08,0-.12-.03c-.49-.29-1.03-.6-1.73-1,0-.01-.01-.01-.01-.01-.07-.04-.11-.12-.12-.2,0-.05,0-.1.04-.13.06-.12.22-.16.34-.1.63.37,1.2.7,1.73,1.01.06.03.1.08.12.15,0,.06,0,.13-.03.19-.04.07-.13.12-.22.12ZM131.37,155s-.08,0-.12-.03c-.62-.35-1.19-.67-1.74-.97-.08-.05-.13-.13-.13-.23,0-.04.01-.08.03-.12.06-.11.22-.16.34-.09.51.28,1.07.59,1.75.98.12.06.16.22.09.34-.04.07-.13.12-.22.12ZM128.75,153.54s-.08,0-.12-.03c-.53-.29-1.1-.6-1.76-.95-.08-.04-.13-.12-.13-.22,0-.04,0-.08.03-.11.06-.12.22-.17.34-.11.6.32,1.19.64,1.76.96.06.03.1.08.12.14.02.07,0,.14-.02.19-.04.08-.13.13-.22.13ZM126.11,152.12s-.08,0-.12-.03c-.49-.25-1.13-.59-1.77-.92-.09-.04-.14-.13-.14-.23,0-.03.01-.07.03-.11.06-.12.22-.17.34-.1.58.3,1.18.61,1.77.92.13.07.17.22.11.34-.05.08-.13.13-.22.13ZM123.44,150.74s-.08,0-.11-.02c-.61-.31-1.22-.61-1.79-.9-.09-.04-.14-.13-.14-.22,0-.04.01-.08.02-.11.06-.12.22-.17.34-.11.54.26,1.11.55,1.79.89.06.03.11.08.13.15.02.06,0,.13-.02.19-.04.08-.12.13-.22.13ZM120.75,149.41s-.08,0-.11-.03c-.71-.34-1.28-.61-1.8-.86-.09-.04-.15-.13-.15-.22,0-.04.01-.07.02-.11.06-.12.22-.18.34-.12.62.29,1.23.58,1.81.86.06.03.1.08.12.15.03.06.02.13,0,.19-.04.08-.13.14-.22.14ZM118.03,148.12s-.07,0-.1-.02c-.53-.24-1.09-.5-1.82-.83-.09-.04-.15-.13-.15-.23,0-.03.01-.06.03-.1.05-.12.2-.17.33-.12.65.29,1.24.56,1.82.83.06.02.1.07.13.13.02.07.02.14,0,.2-.04.09-.13.14-.23.14ZM115.3,146.89s-.07,0-.1-.02c-.58-.25-1.18-.51-1.84-.78-.09-.04-.15-.13-.15-.24,0-.03.01-.06.02-.09.05-.13.21-.19.33-.14.59.25,1.21.52,1.84.79.06.03.11.08.13.14.03.06.03.13,0,.19-.04.1-.13.15-.23.15ZM112.54,145.72s-.07,0-.1-.02c-.6-.25-1.23-.5-1.85-.74-.1-.04-.16-.13-.16-.23,0-.03,0-.06.02-.09.05-.13.2-.19.32-.15.66.26,1.27.51,1.86.75.13.05.19.2.14.33-.04.09-.13.15-.23.15ZM109.75,144.62s-.06,0-.09-.02c-.56-.21-1.17-.44-1.87-.69.01,0,0,0,0,0-.12-.05-.19-.19-.15-.32.05-.13.2-.2.32-.15.62.22,1.25.45,1.89.7.06.02.11.07.13.13.03.06.03.12,0,.19-.04.09-.13.16-.23.16Z"/>
  <path class="st5" d="M126.13,415.3c1.59,60.05,4.08,88.31,13.32,116.22-.03.06-.08.13-.12.2-1.31,2.42-2.95,5.5-4.69,8.87-.04.08-.09.15-.13.24-3.39,6.52-7.17,14.13-9.78,20.36-5.87,13.97-12.02,26.83-18.87,30.53,0,0-7.26-.06-18.45-3.42-11.17-3.35-27.38-14.54-48.63-16.36-11.03-.98-22.22-.42-22.22-.42-8.38-22.08-10.62-69.03-5.02-143.92,5.59-74.91,32.56-160.28,61.48-222.75,11.9-25.7,23.88-46.85,36.62-65.07,17.06,6.11,36.09,18.27,42.5,23.51-5.56,23.63-10.98,48.14-14.28,78.46-5.87,53.94-13.69,99.5-11.73,173.56Z"/>
  <path class="st5" d="M105.86,591.72s-2.38,1.33-6.01,13.07c-2.41,7.81-5.45,17.11-7.21,22.46-.87,2.62-3.46,4.26-6.2,3.94-5.2-.62-14.89-2.11-30.18-5.72-17.62-4.16-32.86-8.87-40.25-11.27-2.72-.89-4.39-3.62-3.93-6.46,1.39-8.45,4.08-25.9,4.49-36.21,0,0,11.18-.56,22.22.42,21.24,1.82,37.45,13.01,48.63,16.36,11.18,3.35,18.45,3.42,18.45,3.42Z"/>
  <path class="st5" d="M566.02,241.75c5.87,53.94,13.7,99.5,11.74,173.56-1.59,60.05-4.09,88.31-13.32,116.22-2.16,6.51-4.68,13.01-7.65,19.88-22.78-6.98-70.85-17.04-204.85-17.04s-182.08,10.06-204.86,17.04c-2.96-6.88-5.49-13.37-7.64-19.88-9.24-27.91-11.73-56.17-13.32-116.22-1.96-74.06,5.86-119.61,11.73-173.56,3.3-30.33,8.72-54.83,14.28-78.46-6.41-5.24-25.44-17.4-42.5-23.51,18.23-26.07,38.04-46.13,61.48-64.88,39.82-31.86,68.75-47.79,112.83-65.17,0,0,16.41,30.4,67.99,30.44,51.57-.03,67.98-30.44,67.98-30.44,44.1,17.38,73.02,33.31,112.84,65.17,23.44,18.75,43.25,38.81,61.48,64.88-17.05,6.11-36.09,18.27-42.5,23.51,5.56,23.63,10.97,48.14,14.27,78.46Z"/>
  <path class="st5" d="M687.31,571.53s-11.17-.56-22.22.42c-21.23,1.82-37.44,13.01-48.63,16.36-10.87,3.27-18.05,3.41-18.44,3.42h-.01c-6.85-3.72-12.98-16.57-18.86-30.53-2.61-6.22-6.4-13.83-9.78-20.36-.04-.09-.09-.16-.13-.24-1.75-3.37-3.39-6.45-4.69-8.87-.04-.08-.09-.14-.12-.2,9.22-27.91,11.73-56.17,13.32-116.22,1.96-74.06-5.87-119.61-11.74-173.56-3.3-30.33-8.71-54.83-14.27-78.46,6.41-5.24,25.45-17.4,42.5-23.51,12.74,18.22,24.72,39.37,36.62,65.07,28.93,62.47,55.89,147.84,61.48,222.75,5.58,74.9,3.35,121.84-5.04,143.92Z"/>
  <path class="st5" d="M687.87,614.2c-7.39,2.4-22.63,7.11-40.24,11.27-15.29,3.61-24.98,5.1-30.18,5.72-2.75.32-5.34-1.32-6.2-3.94-1.77-5.35-4.8-14.65-7.22-22.46-3.63-11.74-6.01-13.07-6.01-13.07h.01c.39-.01,7.56-.15,18.44-3.42,11.18-3.35,27.39-14.54,48.63-16.36,11.05-.98,22.22-.42,22.22-.42.42,10.31,3.11,27.76,4.49,36.21.47,2.84-1.2,5.57-3.93,6.46Z"/>
  <path class="st5" d="M164.41,107.32c-3.55,19.69-7.95,37.56-12.27,55.97"/>
  <path class="st5" d="M539.47,107.32c3.55,19.69,7.95,37.56,12.28,55.97"/>
  <path class="st5" d="M556.79,551.41c-4.75,9.78-14.39,39.26-24.87,37.87-10.49-1.4-79.51-11.32-179.98-11.32s-169.51,9.92-179.98,11.32c-10.48,1.39-20.12-28.09-24.88-37.87,22.78-6.98,70.85-17.04,204.86-17.04s182.07,10.06,204.85,17.04Z"/>
  <path class="st1" d="M592.99,587.57h0c-.13,0-.24-.11-.25-.25,0-.14.12-.25.25-.25h.07c.58,0,1.23-.03,1.93-.07.12,0,.25.1.26.24s-.1.26-.24.26c-1.23.06-1.96.07-2.01.07h0ZM596,587.45h0c-.13,0-.24-.11-.25-.24h0c0-.14.1-.25.23-.26.67-.05,1.34-.09,1.99-.15.16-.02.26.09.28.23,0,.14-.1.26-.23.27-.65.05-1.32.1-1.99.14t-.02,0ZM598.98,587.21c-.13,0-.24-.1-.25-.23v-.02c0-.13.1-.24.23-.25.75-.07,1.38-.14,1.98-.21.15-.02.27.08.28.22.02.14-.08.26-.22.28-.67.08-1.34.15-1.99.21h-.03ZM601.97,586.88c-.13,0-.24-.1-.25-.22v-.04c0-.12.09-.22.21-.24.68-.08,1.35-.18,1.98-.27.14-.02.27.07.29.21.02.14-.08.26-.21.28-.73.11-1.38.2-1.99.28h-.03ZM604.94,586.45c-.13,0-.23-.09-.25-.21v-.03c0-.13.09-.23.21-.25.7-.12,1.35-.23,1.97-.34.14-.03.26.07.29.2.02.14-.07.27-.2.29-.72.13-1.37.24-1.98.34h-.04ZM607.89,585.93c-.12,0-.22-.08-.24-.2,0-.02-.01-.03-.01-.05.01-.12.09-.22.21-.24.65-.13,1.3-.26,1.95-.41.14-.02.27.06.3.19.03.14-.06.27-.19.3-.65.14-1.31.28-1.97.41h-.05ZM610.83,585.31c-.12,0-.22-.08-.24-.2,0-.02,0-.04,0-.06,0-.11.08-.21.19-.24.68-.15,1.32-.31,1.94-.47.13-.04.27.04.31.18.03.13-.05.27-.18.3-.65.17-1.3.33-1.95.48-.02,0-.04.01-.06.01ZM613.74,584.57c-.11,0-.21-.08-.24-.19,0-.02,0-.04,0-.06,0-.11.07-.21.18-.24.57-.16,1.03-.29,1.47-.42l.08-.03c.12-.04.24-.07.36-.11.13-.05.27.03.32.16.04.13-.03.27-.17.32l-.11.03c-.11.04-.23.07-.34.11-.5.15-.99.29-1.48.42-.02,0-.04,0-.06,0ZM616.61,583.7c-.11,0-.2-.07-.24-.17,0-.03,0-.06,0-.09,0-.11.07-.2.17-.23.59-.2,1.2-.43,1.87-.68.12-.05.27.02.32.14.02.06.02.13,0,.19-.03.06-.08.11-.14.13-.66.26-1.29.49-1.89.69-.03.01-.05.02-.08.02ZM619.42,582.64c-.1,0-.2-.06-.23-.15-.02-.03-.02-.07-.02-.1,0-.1.06-.19.16-.23.61-.24,1.23-.5,1.84-.76.12-.06.27,0,.33.13.05.12,0,.27-.13.33-.76.32-1.33.56-1.86.77-.03.01-.06.01-.09.01ZM622.18,581.48c-.1,0-.19-.06-.22-.15-.02-.03-.03-.06-.03-.1,0-.1.06-.19.15-.23.63-.27,1.28-.56,1.83-.81.13-.06.28,0,.33.13.06.13,0,.27-.12.33-.51.23-1.18.52-1.84.81-.03,0-.06.02-.1.02ZM624.93,580.26c-.1,0-.19-.06-.23-.15-.02-.03-.03-.07-.03-.11,0-.09.06-.18.14-.22h0s.02,0,.02,0l.19-.09c.53-.24,1.07-.48,1.61-.73.12-.06.28,0,.33.12.06.13,0,.28-.12.33-.44.21-.88.41-1.31.6l-.51.23s-.07.03-.1.03ZM627.65,579.01c-.09,0-.18-.06-.22-.15-.02-.03-.03-.07-.03-.1,0-.1.06-.19.15-.23l.17-.07c.54-.25,1.09-.51,1.65-.76.12-.06.28,0,.33.12.03.06.03.13,0,.19-.03.07-.07.12-.13.14-.43.2-.85.39-1.27.58l-.55.26s-.07.02-.11.02ZM630.38,577.76c-.1,0-.18-.06-.22-.14-.02-.04-.03-.08-.03-.11,0-.09.06-.18.14-.22,0,0,0,0,0,0,0,0,.02,0,.03,0,.61-.27,1.24-.56,1.79-.81.13-.06.28,0,.34.13.05.13-.01.27-.13.33-.49.22-.98.44-1.46.66l-.36.16s-.07.02-.11.02ZM633.12,576.54c-.1,0-.19-.06-.23-.16,0-.03-.02-.06-.02-.09,0-.1.06-.19.15-.23.6-.27,1.22-.54,1.84-.8.12-.06.27,0,.32.13.03.06.03.13.01.19-.03.06-.07.11-.14.13-.54.24-1.19.52-1.83.8h0s-.07.03-.1.03ZM635.88,575.34c-.1,0-.2-.06-.24-.15,0-.03-.02-.06-.02-.1,0-.1.06-.19.16-.23.71-.3,1.3-.54,1.85-.77.12-.05.27.01.32.14s0,.27-.13.32c-.64.26-1.25.52-1.84.77h-.01s-.06.02-.09.02ZM638.65,574.2c-.1,0-.19-.06-.23-.16-.02-.03-.02-.06-.02-.1,0-.1.06-.19.16-.22.64-.26,1.27-.51,1.86-.73.13-.05.28,0,.32.14.03.06.03.13,0,.19-.03.06-.08.11-.14.13-.59.23-1.23.48-1.86.73-.03.01-.06.02-.09.02ZM641.45,573.11c-.11,0-.2-.06-.24-.16,0-.03,0-.06,0-.08,0-.11.06-.2.16-.24.65-.24,1.28-.47,1.88-.69.12-.05.28.03.32.15.05.14-.02.28-.15.33-.64.22-1.27.45-1.88.68-.02,0-.05,0-.08,0ZM644.27,572.1c-.11,0-.2-.07-.24-.17,0-.03,0-.05,0-.08,0-.11.07-.2.17-.24.61-.21,1.26-.42,1.9-.63.13-.04.28.03.32.16.04.13-.03.27-.16.32-.56.17-1.16.38-1.9.63-.03.01-.05.01-.08.01ZM647.12,571.17c-.11,0-.21-.08-.24-.18,0-.03,0-.05,0-.07,0-.12.07-.21.18-.24.71-.22,1.34-.41,1.92-.58.14-.03.27.05.31.18.03.13-.04.27-.17.3-.65.19-1.29.38-1.92.58-.02,0-.04,0-.07,0ZM650,570.32c-.11,0-.21-.07-.24-.18,0-.02,0-.04,0-.06,0-.12.07-.21.18-.24h0s.02,0,.02,0c.6-.17,1.23-.33,1.92-.51.13-.03.27.05.31.18.01.07,0,.14-.03.19-.04.06-.09.1-.16.12-.62.15-1.27.32-1.92.5-.02,0-.05,0-.07,0ZM652.91,569.58c-.12,0-.22-.08-.25-.2,0-.02,0-.04,0-.06,0-.11.08-.21.19-.24.58-.13,1.22-.28,1.96-.44.13-.03.26.06.29.2.03.13-.06.26-.19.29-.59.13-1.22.27-1.95.44-.02,0-.04,0-.05,0ZM655.84,568.94c-.12,0-.23-.09-.25-.2v-.05c0-.12.08-.22.2-.25.69-.14,1.34-.25,1.97-.36.14-.02.27.07.29.2.02.14-.07.27-.21.29-.67.12-1.33.24-1.96.36,0,.01-.03.01-.04.01ZM658.79,568.41c-.12,0-.23-.09-.25-.21v-.04c0-.12.09-.23.21-.25.66-.1,1.32-.19,1.99-.28.13,0,.26.08.28.21,0,.14-.08.27-.22.29-.64.08-1.3.17-1.96.28h-.05ZM661.76,568.01c-.12,0-.23-.1-.25-.22v-.03c0-.13.1-.24.22-.25.72-.08,1.37-.15,2-.2.16-.02.26.09.27.22,0,.14-.09.26-.23.27-.62.06-1.27.12-1.98.2h0s0,0,0,0h-.02ZM664.75,567.72c-.13,0-.24-.1-.25-.23v-.02c0-.13.1-.24.23-.25.67-.05,1.34-.1,2-.14.13,0,.25.09.26.23,0,.14-.1.25-.23.26-.55.04-1.26.09-1.98.15h-.03ZM667.74,567.51c-.13,0-.24-.1-.25-.23v-.02c0-.13.1-.24.23-.25h0c.75-.04,1.4-.08,2-.11h.02c.13,0,.24.11.25.24,0,.14-.1.26-.24.27-.63.02-1.28.06-2,.1h0ZM670.75,567.36h0c-.14,0-.25-.11-.25-.24h0c0-.15.1-.26.24-.26.61-.03,1.27-.05,2-.08.14,0,.25.11.26.24,0,.14-.11.26-.24.26-.63.02-1.31.05-2,.08h0ZM673.74,567.25h0c-.13,0-.24-.11-.24-.24v-.02c0-.13.11-.24.24-.24.62-.02,1.27-.04,2-.05.14,0,.25.11.26.25,0,.13-.11.25-.25.25-.72.02-1.37.03-2,.05h0ZM688.85,567.22h-.12c-.13,0-.24-.12-.24-.25h0c0-.14.11-.25.25-.25h.12c.07,0,.13.03.17.08.05.05.07.11.07.18,0,.13-.12.24-.25.24ZM687.74,567.19h0c-.5-.01-1.17-.02-2-.03-.14,0-.25-.11-.25-.25s.11-.25.25-.25c.68,0,1.33.02,2.01.03.06,0,.12.03.17.08.05.05.07.11.07.18,0,.13-.11.24-.25.24ZM676.74,567.18h0c-.14,0-.25-.11-.25-.24,0-.14.1-.26.24-.26.61,0,1.26-.02,2-.03.14,0,.25.11.26.25,0,.14-.11.25-.25.25-.62,0-1.25.02-1.89.03h-.11ZM684.74,567.15h0c-.72,0-1.37,0-2,0-.14,0-.25-.11-.25-.25s.11-.25.25-.25c.6,0,1.17,0,1.7,0h.3c.14,0,.25.11.25.25s-.11.25-.25.25ZM679.74,567.14h0c-.14,0-.25-.11-.25-.25,0-.13.1-.24.24-.24,0,0,0,0,0,0h2c.14,0,.25.11.25.25s-.11.25-.25.25h-2Z"/>
  <path class="st1" d="M144.78,546.17c-.11,0-.21-.08-.25-.18-.02-.07-.01-.13.02-.19s.09-.11.15-.13c.02,0,.03,0,.05,0h.01s0,0,0,0c.16-.04.28.04.32.17,0,.02,0,.05,0,.07,0,.11-.07.21-.18.24-.02.01-.05.02-.07.02-.03,0-.05.02-.07.02ZM559.1,546.16s-.05,0-.07,0c-.6-.18-1.22-.37-1.91-.57-.14-.04-.21-.18-.17-.31.03-.13.17-.21.31-.17l.39.11c.53.16,1.03.31,1.52.46h0c.07.02.12.07.15.13.03.06.04.12.02.19-.03.1-.13.17-.24.17ZM145.81,545.85c-.11,0-.21-.07-.24-.18-.02-.06-.02-.13.02-.19.03-.06.08-.1.14-.12.74-.22,1.35-.4,1.92-.56.14-.04.28.04.31.17.01.02.01.04.01.07,0,.11-.07.21-.18.24-.71.2-1.34.39-1.91.56-.03.01-.05.01-.07.01ZM556.23,545.31s-.05-.01-.07-.01c-.7-.2-1.32-.38-1.92-.54-.07-.02-.12-.07-.15-.13-.03-.05-.04-.12-.02-.18.03-.13.17-.21.3-.18.63.18,1.25.35,1.92.55h0c.1.03.18.13.18.23,0,.03-.01.06-.01.08-.03.1-.13.18-.24.18ZM148.68,545.01c-.11,0-.21-.07-.24-.18,0-.07,0-.13.03-.19.03-.06.08-.1.15-.12.67-.19,1.3-.37,1.92-.53.14-.04.27.04.31.17,0,.02,0,.04,0,.06,0,.12-.08.22-.19.25-.7.19-1.33.37-1.92.53-.02,0-.04,0-.07,0ZM553.34,544.5s-.04,0-.06,0c-.61-.17-1.25-.34-1.93-.52-.14-.03-.22-.17-.18-.3.03-.13.18-.22.31-.18.74.2,1.36.36,1.93.52.11.03.18.13.18.24,0,.02,0,.04,0,.06-.03.11-.12.19-.24.19ZM151.57,544.22c-.11,0-.21-.08-.24-.19-.02-.07,0-.13.03-.19.03-.06.09-.1.15-.11.63-.18,1.29-.35,1.93-.51h.01c.13-.04.26.05.3.18,0,.02.01.04.01.06,0,.11-.08.21-.19.24-.6.16-1.23.32-1.93.51-.02,0-.05,0-.07,0ZM550.44,543.73s-.04,0-.06-.01c-.68-.17-1.31-.33-1.93-.49-.14-.03-.22-.17-.19-.3.04-.13.17-.21.31-.18.66.16,1.3.32,1.94.49.11.03.18.13.19.24,0,.02,0,.04,0,.06-.03.11-.13.19-.25.19ZM154.47,543.46c-.11,0-.21-.07-.24-.19,0-.06,0-.13.03-.19.04-.05.09-.09.16-.11.56-.14,1.18-.3,1.94-.48.12-.03.27.05.3.18,0,.02,0,.04,0,.07,0,.11-.09.21-.2.24-.73.18-1.37.33-1.93.48h-.07ZM547.54,543s-.04,0-.06,0c-.65-.15-1.3-.31-1.94-.46-.07,0-.13-.06-.16-.11-.04-.06-.04-.12-.03-.19.03-.13.17-.22.3-.18.75.17,1.37.32,1.95.46.11.03.19.12.19.24,0,.02,0,.04,0,.06-.03.11-.13.19-.24.19ZM157.39,542.75c-.12,0-.22-.08-.25-.19-.03-.14.06-.27.19-.3.63-.15,1.28-.31,1.95-.46.13-.04.27.05.3.19v.05c.01.12-.08.22-.19.25-.72.16-1.42.33-1.95.45,0,0-.03,0-.05,0ZM544.62,542.31h-.06c-.64-.15-1.3-.3-1.95-.44-.13-.04-.22-.17-.18-.3.03-.14.16-.22.29-.19.66.14,1.3.29,1.95.44h0c.11.02.19.12.19.24,0,0,0,.04,0,.06-.02.11-.13.19-.24.19ZM160.31,542.07c-.12,0-.22-.08-.25-.19-.03-.14.06-.27.19-.3.58-.13,1.2-.27,1.96-.43.13-.04.26.06.29.19.01.01.01.03.01.05,0,.11-.08.22-.2.24-.72.16-1.36.3-1.95.44h-.05ZM541.69,541.66s-.03,0-.05,0c-.61-.13-1.25-.27-1.95-.42-.07-.01-.12-.05-.16-.11-.04-.05-.05-.12-.03-.18.02-.14.16-.22.29-.19.63.13,1.29.27,1.96.41.11.03.2.13.19.25v.05c-.03.12-.13.2-.25.2ZM163.24,541.43c-.12,0-.22-.08-.25-.2-.01-.06,0-.13.04-.19.03-.05.09-.09.15-.11.73-.15,1.37-.29,1.96-.41.14-.03.27.07.3.2v.05c0,.11-.08.21-.19.24,0,0,0,0,0,.01h-.03c-.78.16-1.37.29-1.92.4-.02,0-.04,0-.05,0ZM538.76,541.03h-.05c-.69-.15-1.33-.27-1.96-.4-.06,0-.12-.05-.16-.11-.03-.05-.05-.12-.03-.18.02-.14.16-.23.29-.2.63.13,1.29.26,1.96.4.12.02.2.13.2.24v.05c-.03.12-.13.2-.25.2ZM166.17,540.82c-.12,0-.22-.09-.24-.2-.03-.14.06-.27.19-.3.62-.12,1.26-.25,1.96-.39.14-.04.27.06.3.2v.05c0,.12-.08.22-.2.24-.63.12-1.27.25-1.96.39-.01,0-.03,0-.05,0ZM535.82,540.44h-.05c-.55-.11-1.16-.23-1.96-.38-.13-.03-.22-.16-.2-.3.03-.13.16-.23.3-.19.73.13,1.37.26,1.96.38.12.02.2.12.2.24v.05c-.03.12-.13.2-.25.2ZM169.11,540.23c-.12,0-.22-.08-.24-.2-.02-.07,0-.13.04-.19.03-.05.09-.09.16-.1.61-.12,1.27-.25,1.96-.37.14-.04.27.06.29.2,0,0,0,.03,0,.05,0,.11-.09.22-.21.24l-.43.08c-.52.1-1.03.19-1.53.29h-.05ZM532.88,539.88s-.04,0-.05,0c-.79-.15-1.39-.26-1.96-.36-.14-.03-.23-.16-.2-.29.02-.14.15-.23.29-.2.71.13,1.35.24,1.96.36.12.02.2.12.21.24,0,.02,0,.04,0,.05-.02.12-.12.21-.24.21ZM172.06,539.68c-.12,0-.23-.09-.25-.21-.02-.13.07-.26.2-.29.65-.12,1.31-.23,1.97-.35.14-.03.27.06.29.2.01,0,.01.02.01.04,0,.12-.09.22-.2.25h0c-.74.13-1.38.25-1.97.36h-.04ZM529.93,539.34s-.03,0-.05,0l-.5-.09c-.49-.08-.97-.17-1.46-.25-.14-.03-.23-.15-.21-.29.02-.14.15-.23.29-.2.52.08,1.03.17,1.53.26l.44.08c.12.02.21.13.21.25v.04c-.03.12-.13.21-.25.21ZM175.01,539.15c-.12,0-.23-.09-.25-.21-.01-.06,0-.13.04-.18.04-.06.1-.1.17-.11.65-.11,1.3-.22,1.97-.34.15-.02.26.07.29.21v.04c0,.12-.09.23-.21.25-.66.11-1.32.22-1.97.34h-.04ZM526.97,538.82h-.05c-.65-.11-1.3-.22-1.96-.33-.14-.03-.23-.15-.21-.29.03-.13.16-.22.29-.2.69.11,1.36.22,1.97.33.13.02.21.12.21.25v.03c-.02.12-.13.21-.25.21ZM177.97,538.64c-.13,0-.23-.09-.25-.21-.01-.06,0-.13.04-.18.04-.06.1-.09.17-.1.66-.11,1.35-.23,1.97-.33.14-.02.26.07.29.21v.04c0,.12-.09.23-.21.24-.56.1-1.12.19-1.67.28l-.3.05h-.04ZM524.01,538.33h-.03c-.62-.1-1.27-.21-1.98-.32-.07,0-.12-.04-.16-.1-.04-.05-.06-.12-.05-.18.02-.14.15-.23.29-.21.7.11,1.39.22,1.97.31.13.02.21.13.21.25v.04c-.02.12-.13.21-.25.21ZM180.93,538.16c-.13,0-.23-.09-.25-.21-.01-.07,0-.13.04-.19.04-.05.1-.09.17-.1.65-.1,1.31-.2,1.97-.31.14-.02.27.08.29.21v.04c0,.12-.08.22-.2.24-.01.01-.03.01-.04.01-.66.1-1.3.2-1.94.31h-.04ZM521.05,537.86h-.04c-.49-.08-.98-.15-1.48-.23l-.49-.07c-.14-.02-.23-.15-.21-.29.02-.13.15-.23.28-.21.62.1,1.31.2,1.98.31.12,0,.21.12.21.24v.04c-.02.12-.13.21-.25.21ZM183.89,537.7c-.12,0-.23-.09-.25-.21-.01-.07,0-.14.05-.19.04-.05.1-.09.16-.1.65-.1,1.31-.2,1.98-.3.16-.02.26.08.28.21.01.02.01.03.01.04,0,.13-.09.23-.22.25-.66.1-1.32.2-1.97.29-.02,0-.03,0-.04,0ZM518.09,537.41h-.04c-.63-.09-1.3-.19-1.98-.29-.06,0-.12-.04-.16-.1-.04-.05-.06-.12-.05-.18.02-.14.14-.23.28-.21.66.09,1.32.19,1.97.29t.02,0c.12.02.21.13.21.25v.04c-.03.12-.13.21-.25.21ZM186.86,537.26c-.13,0-.23-.1-.25-.22,0-.07.01-.13.05-.19.04-.05.09-.08.16-.09.67-.1,1.33-.2,1.98-.29.14,0,.26.08.28.22v.04c0,.12-.09.22-.21.24l-.76.11c-.41.06-.81.11-1.22.17-.01,0-.02,0-.03,0ZM515.12,536.98h-.04c-.45-.06-.92-.13-1.38-.19l-.59-.09c-.07,0-.13-.04-.17-.09-.04-.06-.06-.12-.05-.19.02-.13.14-.22.28-.21.6.08,1.23.17,1.98.28.13,0,.22.12.22.24v.04c-.02.12-.13.21-.25.21ZM189.82,536.83c-.12,0-.23-.09-.24-.21,0-.07,0-.13.04-.19.04-.05.1-.09.17-.09.65-.1,1.31-.19,1.98-.28.13-.01.26.08.28.22,0,0,0,.02,0,.04,0,.12-.1.22-.22.24-.67.09-1.33.18-1.98.27h-.04ZM512.15,536.57h-.04c-.42-.06-.85-.12-1.29-.17l-.69-.1c-.06,0-.12-.04-.16-.09s-.06-.12-.05-.19c0-.13.14-.22.28-.21h0c.67.09,1.32.18,1.97.26h.01c.12.03.21.13.21.25,0,0,0,.02-.01.04,0,.12-.12.21-.24.21ZM192.8,536.43c-.13,0-.23-.1-.25-.22-.01-.07,0-.13.05-.18.04-.06.1-.09.16-.1.63-.08,1.26-.17,1.89-.25h.1c.14-.03.26.07.28.2v.04c0,.13-.09.23-.22.25-.63.08-1.25.16-1.86.24h-.12s-.02.02-.03.02ZM509.17,536.18s-.02,0-.03,0c-.64-.08-1.3-.16-1.98-.25-.07,0-.12-.04-.16-.09-.05-.06-.06-.12-.06-.19.02-.13.15-.23.28-.21.56.07,1.12.14,1.67.21l.32.04c.13.02.22.13.22.25,0,.01,0,.02,0,.03,0,.12-.12.22-.25.22ZM195.77,536.04c-.12,0-.23-.09-.25-.22,0-.07.01-.14.05-.19.05-.05.1-.08.17-.09.54-.07,1.26-.16,1.98-.25.14,0,.27.08.28.22v.02c.01.13-.09.24-.21.26-.6.07-1.23.15-1.99.25h-.03ZM506.2,535.8h-.03c-.66-.08-1.32-.16-1.98-.24-.07-.01-.13-.05-.17-.1s-.06-.12-.05-.18c.01-.14.14-.23.27-.22.67.08,1.33.16,1.99.24.13.02.22.13.22.26v.02c-.02.13-.13.22-.25.22ZM198.75,535.67c-.13,0-.24-.1-.25-.22,0-.07.01-.13.05-.19.04-.05.1-.08.17-.09.65-.08,1.31-.16,1.98-.24.13-.02.26.08.28.22v.02c0,.13-.09.24-.22.26-.67.08-1.33.16-1.98.24h-.03ZM503.22,535.44h-.02s-.02-.01-.02-.01c-.65-.07-1.31-.15-1.97-.23-.14-.02-.24-.14-.22-.28,0-.13.13-.22.28-.21l.57.06c.47.06.94.11,1.41.17h0c.12.02.21.13.21.25h0v.03c-.02.12-.12.22-.25.22ZM201.73,535.31c-.13,0-.24-.1-.25-.22-.02-.14.08-.26.22-.28.27-.03.55-.06.84-.1.38-.04.76-.08,1.14-.13h0c.13,0,.26.09.27.22v.03c0,.12-.09.23-.21.25h-.05c-.46.05-.93.11-1.4.16l-.55.07h-.02ZM500.24,535.09h-.02c-.59-.07-1.24-.14-1.99-.22-.14-.02-.24-.15-.22-.28.01-.14.13-.23.27-.22.67.07,1.33.14,1.98.22h.01c.13.02.23.12.22.25v.02h0c0,.14-.12.23-.25.23ZM204.7,534.97c-.12,0-.23-.1-.24-.22,0-.07.01-.14.05-.19.04-.05.1-.08.17-.09l.16-.02c.61-.07,1.21-.13,1.82-.2.14-.02.27.08.28.22v.03c0,.12-.09.23-.22.25l-.35.04c-.55.06-1.1.12-1.64.18h-.03ZM497.26,534.76h-.02s-.02,0-.02,0c-.65-.07-1.31-.14-1.97-.21-.07,0-.13-.04-.17-.09s-.06-.12-.05-.18c0-.14.13-.24.27-.23.6.07,1.19.13,1.78.2l.21.02c.13.01.22.12.22.25v.02c0,.13-.12.23-.25.23ZM207.69,534.64c-.13,0-.24-.09-.25-.22-.02-.14.08-.26.22-.28.58-.06,1.16-.12,1.74-.18l.25-.03c.14-.02.26.08.27.22v.03c0,.13-.09.23-.22.25l-.19.02c-.61.06-1.21.12-1.8.19h-.02ZM494.26,534.44s-.02-.01-.04-.01c-.25-.02-.5-.05-.76-.08-.4-.04-.79-.08-1.19-.12-.07-.01-.13-.04-.17-.09-.05-.05-.06-.12-.06-.18.02-.14.14-.25.28-.23.63.07,1.28.13,1.99.21.13,0,.22.12.22.25v.02c-.02.13-.12.23-.25.23h-.02ZM210.67,534.33c-.13,0-.24-.1-.25-.23,0-.14.09-.26.22-.27l.55-.06c.48-.05.96-.1,1.44-.15.13,0,.26.09.28.23v.02c0,.13-.1.24-.23.25-.67.07-1.33.14-1.98.2-.01,0-.02,0-.03,0ZM491.3,534.13h-.04l-1.98-.2c-.06,0-.12-.04-.17-.09-.04-.05-.06-.12-.05-.18,0-.14.14-.24.27-.23.43.04.86.09,1.29.13l.7.07h0c.12.02.22.12.22.25v.02c-.02.13-.12.23-.25.23ZM213.66,534.02c-.13,0-.24-.09-.26-.22,0-.07.02-.13.06-.19.04-.05.1-.08.17-.09.66-.06,1.32-.13,1.99-.19.13,0,.26.09.27.22v.03c0,.13-.1.24-.22.25-.67.06-1.34.13-1.99.19h-.02ZM488.31,533.84h-.02c-.66-.07-1.32-.13-1.99-.2-.07,0-.13-.03-.17-.08-.04-.05-.06-.12-.06-.19,0-.13.13-.24.27-.22.44.04.88.08,1.31.12.23.02.46.05.69.07.13.01.22.12.22.25v.02c-.01.13-.12.23-.25.23ZM216.64,533.73c-.13,0-.24-.09-.25-.22-.01-.14.09-.26.22-.28.33-.03.67-.06,1-.09.33-.03.66-.06,1-.09.15-.03.25.08.27.22v.03c0,.13-.1.23-.23.24l-.74.07c-.42.04-.83.08-1.25.12h-.02ZM485.32,533.55h-.02c-.78-.07-1.41-.13-1.99-.18-.14,0-.24-.13-.23-.27.02-.14.14-.25.28-.23.67.06,1.33.12,1.99.18.13.02.22.12.23.25,0,.01,0,.02,0,.03,0,.13-.11.22-.25.22ZM219.62,533.45c-.12,0-.23-.1-.24-.22,0-.07.01-.13.05-.18.04-.06.1-.09.17-.09.35-.04.69-.07,1.04-.1.32-.03.64-.06.95-.08.14,0,.26.09.27.22,0,0,.01.02,0,.03,0,.13-.09.23-.22.24-.67.06-1.33.12-1.99.18h-.03ZM482.34,533.28h-.02c-.66-.06-1.33-.11-2-.17-.06,0-.12-.04-.17-.09-.04-.05-.06-.12-.05-.18.01-.14.12-.25.27-.23.53.04,1.05.09,1.57.14l.42.03c.13,0,.23.12.23.25v.03c0,.12-.12.22-.25.22ZM222.62,533.19c-.13,0-.24-.1-.26-.23,0-.07.02-.13.06-.19.04-.05.1-.08.17-.08.47-.04.94-.08,1.42-.12l.57-.05c.13-.01.26.09.27.22v.02c0,.13-.09.24-.22.25-.3.03-.59.05-.88.08-.37.03-.74.06-1.12.1h0ZM479.35,533.02h-.02c-.66-.06-1.32-.11-1.99-.16-.14-.02-.24-.14-.23-.27,0-.14.13-.25.27-.23.67.05,1.33.11,1.99.16.13,0,.23.13.23.26h0c0,.14-.12.24-.25.24ZM225.6,532.93c-.13,0-.24-.1-.25-.23s.09-.26.23-.27l1.99-.16c.14,0,.26.09.27.23h0c0,.14-.09.26-.23.26-.66.06-1.33.11-1.99.17h-.02ZM476.36,532.77h-.02c-.41-.03-.82-.06-1.24-.1l-.75-.06c-.07,0-.13-.03-.17-.08-.05-.06-.07-.12-.06-.19,0-.14.12-.22.27-.23l.41.04c.53.04,1.06.08,1.58.12h0c.13.02.22.13.22.26h0c-.01.14-.12.24-.25.24ZM228.61,532.68h-.02c-.13,0-.24-.09-.25-.22-.01-.14.09-.26.23-.27.65-.06,1.32-.11,1.99-.16.12-.02.26.09.27.23h0c.01.14-.09.25-.23.27-.67.05-1.33.1-1.99.15h0ZM473.37,532.53h-.02l-.55-.04c-.48-.04-.96-.07-1.44-.11-.07,0-.13-.04-.18-.09-.04-.05-.06-.12-.05-.18,0-.14.13-.23.27-.23.24.02.48.04.72.05.42.04.84.07,1.26.1h0c.13,0,.24.13.23.26h0c0,.14-.12.24-.25.24ZM231.6,532.45h-.02c-.13,0-.24-.1-.25-.23,0-.14.09-.26.23-.27.66-.05,1.32-.1,1.99-.15,0,0,.02,0,.02,0,.13,0,.24.1.25.23h0c0,.14-.1.26-.24.27-.59.04-1.28.09-1.99.15h0ZM470.38,532.3h-.02c-.66-.05-1.32-.1-1.99-.15-.14,0-.24-.12-.23-.26.01-.14.14-.24.26-.23.73.05,1.38.1,1.99.14h.01c.13.01.23.13.23.26h0c0,.14-.12.24-.25.24ZM234.57,532.22c-.13,0-.24-.1-.25-.23,0-.07.02-.13.06-.18.05-.05.11-.08.17-.09.66-.04,1.33-.09,2-.14.14,0,.25.09.26.23h0c.01.15-.09.26-.23.27l-.71.05c-.43.03-.86.06-1.28.09h-.02ZM467.37,532.09s-.02,0-.03,0l-.66-.05c-.43-.03-.87-.06-1.3-.09-.07,0-.13-.03-.17-.08-.05-.06-.07-.12-.07-.19.01-.13.15-.23.27-.23.42.03.84.06,1.26.09l.74.05s0,0,0,0c.12.01.22.12.22.25h0c0,.15-.13.24-.26.24,0,0,0,0,0,0ZM237.58,532.01h0c-.14,0-.25-.1-.26-.24,0-.13.1-.25.23-.26.44-.03.89-.06,1.33-.1l.67-.04c.12,0,.26.09.27.23h0c0,.15-.1.26-.23.27h-.17c-.61.05-1.22.09-1.83.14h0ZM464.38,531.87h-.03c-.35-.02-.71-.05-1.06-.07-.3-.02-.6-.04-.91-.06-.06,0-.13-.04-.17-.09s-.06-.11-.06-.18c0-.14.13-.23.27-.23.46.03.91.06,1.37.09l.62.04s0,0,.02,0c.12.01.22.12.22.25h0c-.01.14-.12.24-.25.24h-.02ZM240.57,531.8h-.02c-.13,0-.24-.1-.24-.23,0-.07.01-.14.06-.19.04-.05.1-.08.17-.08.66-.05,1.32-.09,1.99-.13.14,0,.26.09.27.23h0c0,.14-.1.26-.23.26l-.76.05c-.41.03-.82.06-1.24.09h0ZM461.39,531.67h0v-.03s0,.03,0,.03h-.03l-.67-.05c-.43-.03-.86-.05-1.29-.08-.06,0-.13-.03-.17-.08s-.07-.12-.06-.19c0-.13.13-.22.27-.23.54.03,1.09.07,1.64.11l.35.02c.13,0,.23.12.23.25v.02c-.01.13-.11.25-.25.23h-.01ZM243.55,531.6c-.13,0-.24-.1-.25-.23-.01-.14.1-.26.23-.27l.7-.05c.43-.02.86-.05,1.29-.08h.02c.14,0,.25.1.25.24h0c.01.14-.1.25-.23.26-.48.03-.95.06-1.42.09l-.58.04h0ZM458.41,531.48h0c-.29-.02-.58-.04-.86-.06-.38-.02-.76-.04-1.14-.07-.07,0-.13-.03-.17-.08-.05-.05-.07-.12-.06-.18,0-.14.13-.23.26-.24.67.04,1.33.08,2,.13.13,0,.23.12.23.25h0c0,.14-.12.25-.25.25ZM246.56,531.41h-.02c-.13,0-.24-.1-.25-.24,0-.06.02-.13.06-.18.05-.05.11-.08.18-.08.66-.04,1.32-.08,1.99-.12.15,0,.26.1.27.23h0c0,.15-.11.26-.24.27-.67.04-1.33.08-1.99.12h0ZM455.42,531.29h0l-.88-.05c-.37-.03-.75-.05-1.12-.07-.14,0-.25-.12-.24-.26s.13-.24.27-.24c.66.04,1.33.08,1.99.12.13,0,.24.12.24.25v.02c0,.13-.12.23-.25.23ZM249.55,531.23h-.01c-.14,0-.24-.1-.25-.24,0-.14.09-.25.23-.26.66-.04,1.33-.08,2-.12.14,0,.25.1.26.23v.02c0,.13-.1.24-.23.25-.67.04-1.34.08-2,.12h0ZM452.42,531.11h0c-.66-.03-1.33-.07-2-.11-.14,0-.24-.13-.23-.27.01-.13.13-.23.26-.23.67.04,1.34.08,2,.11.13,0,.23.12.23.26h0c0,.14-.12.24-.25.24ZM252.54,531.05h0c-.13,0-.24-.1-.25-.23,0-.07.02-.13.06-.18.05-.05.11-.08.18-.09.65-.04,1.32-.07,1.98-.11h.03c.13,0,.24.1.25.23v.02c0,.13-.11.24-.24.25-.67.04-1.33.07-1.99.11h-.01ZM449.43,530.94h0c-.37-.02-.73-.04-1.1-.06-.3,0-.6-.03-.9-.05-.07,0-.13-.03-.17-.08-.05-.05-.07-.11-.07-.18.01-.13.12-.23.25-.23h.02c.66.03,1.33.07,1.99.11.14,0,.24.11.24.25h0c0,.14-.12.24-.25.24ZM255.53,530.88c-.14,0-.25-.1-.25-.23-.01-.14.1-.26.23-.26.39-.03.78-.05,1.17-.07l.82-.04h.02c.14,0,.25.1.25.23v.02c0,.13-.1.24-.23.25-.48.02-.96.05-1.44.07l-.56.03h0ZM446.43,530.78h0c-.48-.02-.96-.05-1.44-.07l-.56-.03c-.06,0-.13-.04-.17-.09-.04-.05-.07-.11-.06-.17,0-.14.12-.24.26-.24l.39.02c.54.03,1.07.05,1.61.08.13,0,.23.12.23.25h0c0,.15-.11.25-.25.25ZM258.52,530.73c-.13,0-.24-.11-.25-.24,0-.07.02-.13.07-.18.04-.05.1-.08.17-.08l.56-.03c.48-.03.96-.05,1.44-.08.12,0,.25.1.26.24h0c0,.14-.1.25-.23.26h0c-.6.03-1.23.06-2,.1t-.01.01ZM443.44,530.63h-.01c-.67-.04-1.33-.07-2-.1-.07,0-.13-.04-.18-.09-.04-.05-.06-.11-.06-.17,0-.14.12-.24.25-.24h0c.41.02.82.04,1.23.06l.77.04c.13,0,.24.12.24.25v.02c-.01.12-.12.23-.25.23ZM261.53,530.57h-.01c-.14,0-.25-.1-.25-.24,0-.13.1-.25.23-.26.35,0,.7-.03,1.05-.05.32-.01.63-.03.95-.05.01.01.01,0,.02.01.11,0,.24.1.24.23v.02c0,.12-.1.23-.22.24-.02.01-.03.01-.05,0l-.72.04c-.41.02-.83.04-1.24.06h0ZM440.43,530.48h-.03c-.65-.03-1.31-.07-1.97-.1-.06,0-.13-.03-.17-.08-.05-.05-.07-.11-.07-.18,0-.13.12-.24.26-.24h0l.8.04c.4.02.8.04,1.2.06h0c.13,0,.23.12.23.25h0c-.01.15-.1.23-.25.25h-.01ZM264.52,530.43c-.14,0-.25-.11-.26-.24,0-.07.02-.13.07-.18.04-.05.1-.08.17-.08.66-.03,1.33-.07,2-.09h.01c.13,0,.24.1.25.23v.02c0,.13-.11.24-.24.24-.67.03-1.33.07-2,.1h0ZM437.45,530.34h-.02c-.66-.03-1.32-.06-1.99-.09-.14,0-.25-.13-.24-.26,0-.14.11-.24.25-.24h0c.67.03,1.33.06,1.99.09h0c.13,0,.23.11.24.25h0c0,.14-.12.25-.25.25ZM267.52,530.29h0c-.13,0-.24-.11-.25-.24,0-.07.02-.13.06-.18.05-.05.11-.08.18-.08h.28c.57-.04,1.14-.06,1.72-.09h.01c.13,0,.24.1.25.24h0c0,.14-.11.25-.24.26h-.05c-.65.03-1.3.06-1.95.09h0ZM434.45,530.2h0c-.34,0-.68-.03-1.01-.04s-.66-.03-.99-.04c-.14,0-.24-.12-.24-.26s.12-.24.25-.24h0c.25,0,.5.02.75.03.42.02.84.04,1.25.05.13,0,.24.12.24.25h0c0,.15-.12.25-.25.25ZM270.52,530.16h0c-.14,0-.25-.11-.25-.24-.01-.07.02-.13.06-.18.05-.05.11-.08.18-.08.66-.03,1.32-.06,1.98-.09h.02c.14,0,.25.11.25.24h0c0,.15-.1.26-.23.26-.67.03-1.34.06-2,.09h0ZM431.45,530.08h0c-.49-.03-.98-.04-1.47-.06l-.53-.03c-.06,0-.13-.03-.17-.08-.05-.05-.07-.11-.07-.18,0-.13.12-.24.25-.24h0l2,.09c.14,0,.24.11.24.25h0c0,.14-.12.25-.25.25ZM273.51,530.03h0c-.14,0-.25-.11-.26-.24,0-.14.1-.25.24-.26.65-.02,1.3-.05,1.95-.08h.06c.13,0,.25.11.25.24h0c0,.15-.11.26-.24.26-.31,0-.62.02-.93.04-.35,0-.71.03-1.07.04h0ZM428.45,529.95h0c-.67-.02-1.33-.05-2-.07-.07,0-.13-.03-.18-.08-.04-.05-.07-.12-.06-.18,0-.14.11-.24.25-.24h0c.66.02,1.32.05,1.98.08h0c.14,0,.24.11.25.24h0c0,.15-.12.25-.26.25ZM276.51,529.91h-.01c-.13,0-.24-.1-.25-.24,0-.07.02-.13.07-.18.04-.05.11-.08.17-.08.66-.02,1.33-.05,2-.07.12,0,.25.1.26.24h0c0,.14-.11.25-.24.26-.67.02-1.34.05-2,.07h0ZM425.46,529.84h0c-.42-.02-.83-.03-1.25-.05l-.75-.03c-.14,0-.25-.12-.24-.25,0-.14.11-.25.25-.25h0c.31.02.62.03.93.04.36.01.71.03,1.07.04.13,0,.24.11.24.24v.02c0,.13-.12.24-.25.24ZM279.51,529.8h-.01c-.14,0-.25-.11-.25-.24,0-.07.02-.13.06-.18.05-.05.11-.08.18-.08.66-.03,1.33-.05,2-.07h0c.13,0,.24.1.25.24,0,.14-.1.25-.24.26h0c-.42,0-.82.03-1.23.04-.26,0-.52.02-.77.03h0ZM422.46,529.73h0l-2-.07c-.14,0-.24-.12-.24-.26,0-.14.12-.24.25-.24h0l.9.03c.37,0,.73.03,1.1.04.13,0,.24.11.24.24v.02c0,.13-.12.24-.25.24ZM282.5,529.69h0c-.14,0-.25-.11-.25-.24,0-.07.02-.13.06-.18.05-.05.11-.08.18-.08l.7-.02c.43-.02.86-.03,1.3-.05h0c.13,0,.24.11.24.24v.02c0,.13-.1.24-.24.24l-.77.03c-.41,0-.82.03-1.22.04h-.01ZM419.46,529.63h0l-.75-.03c-.42-.01-.83-.03-1.25-.04-.13-.01-.24-.12-.24-.26,0-.13.12-.24.25-.24h0l.84.03c.39.01.77.02,1.16.04.13,0,.24.11.24.24h0c0,.15-.12.26-.25.26ZM285.5,529.59h0c-.14,0-.25-.11-.25-.24,0-.07.02-.13.06-.18.05-.05.11-.08.18-.08h.24c.58-.03,1.17-.05,1.76-.07.14,0,.25.11.25.25,0,.14-.1.25-.24.26l-.92.02c-.36.02-.72.03-1.08.04h0ZM416.46,529.53l-.91-.03c-.37,0-.73-.02-1.09-.04-.07,0-.13-.02-.18-.07-.04-.05-.07-.12-.07-.18,0-.14.12-.25.26-.25h0l.97.04c.34,0,.69.02,1.03.03.07,0,.13.03.17.07.05.05.08.12.07.19,0,.13-.11.24-.25.24ZM288.5,529.49h0c-.14,0-.25-.11-.26-.24,0-.07.03-.13.07-.18.05-.05.11-.07.18-.08.37,0,.74-.02,1.12-.03l.88-.03c.14,0,.25.11.25.24,0,.14-.1.26-.24.26-.67.02-1.34.04-2,.06h0ZM413.46,529.43l-.94-.02c-.35,0-.71-.02-1.06-.03-.07,0-.13-.03-.18-.08-.04-.05-.07-.11-.06-.18,0-.14.11-.24.25-.24h0c.52.01,1.04.03,1.55.04l.45.02c.07,0,.13.02.17.07.05.05.08.11.08.18,0,.14-.12.24-.26.24ZM291.5,529.4h0c-.13,0-.24-.1-.25-.24,0-.07.02-.13.07-.18.05-.05.11-.07.17-.08l.97-.02c.35,0,.69-.02,1.03-.03h.01c.14,0,.25.1.25.24s-.1.25-.24.26l-.91.02c-.37,0-.73.02-1.09.03h0ZM410.46,529.35h0c-.34-.01-.68-.02-1.03-.03-.32,0-.64-.02-.97-.03-.07,0-.13-.03-.18-.08-.04-.04-.06-.11-.06-.17,0-.14.11-.25.25-.25h0l.95.03c.35,0,.7.02,1.05.03h.01c.14,0,.24.12.24.26,0,.13-.12.24-.26.24ZM294.5,529.32h0c-.13,0-.25-.11-.25-.24,0-.07.02-.13.07-.18.04-.05.11-.08.17-.08.42,0,.83-.02,1.24-.03.26,0,.51-.02.76-.03.14,0,.26.11.26.25h0c0,.14-.11.25-.25.26h-.61c-.46.02-.92.04-1.38.05ZM407.46,529.27h0c-.46-.01-.91-.03-1.37-.04l-.63-.02c-.06,0-.13-.02-.17-.07-.05-.05-.07-.11-.07-.18,0-.14.11-.24.25-.24h0c.37,0,.74.01,1.11.02l.89.03c.07,0,.13.03.18.07.04.05.07.12.07.18,0,.14-.12.25-.26.25ZM297.5,529.24h0c-.14,0-.25-.11-.25-.24,0-.07.02-.14.07-.18.04-.05.11-.08.17-.08.64-.02,1.29-.03,1.93-.05h.08c.14,0,.24.11.25.24,0,.14-.11.25-.24.26-.67.02-1.34.03-2,.05ZM404.47,529.19h0c-.63-.01-1.26-.03-1.9-.05h-.1c-.14,0-.24-.12-.24-.25,0-.14.11-.25.25-.25h.01l.63.02c.46,0,.91.02,1.37.03.13,0,.24.12.24.26,0,.13-.11.24-.25.24ZM300.49,529.17h0c-.14,0-.25-.11-.25-.25,0-.07.02-.13.07-.18.04-.05.1-.07.17-.07h.34c.55-.03,1.1-.04,1.66-.05.14,0,.25.1.26.24,0,.14-.11.25-.25.26-.67,0-1.33.03-2,.05ZM401.47,529.12h0c-.67-.02-1.34-.03-2-.05-.07,0-.14-.03-.18-.07-.05-.05-.07-.12-.07-.18,0-.14.11-.25.25-.25l2.01.05c.13,0,.24.12.24.26,0,.13-.11.24-.25.24ZM303.49,529.09h0c-.14,0-.25-.1-.25-.24-.01-.14.1-.25.24-.25l.9-.02c.36,0,.73-.02,1.1-.03.14,0,.25.11.26.25,0,.06-.03.13-.07.17-.05.05-.11.08-.18.08l-2,.04ZM398.47,529.05h0c-.35,0-.69,0-1.03-.02-.33,0-.65,0-.97-.02-.07,0-.13-.03-.18-.08-.04-.04-.07-.11-.07-.17,0-.14.12-.25.25-.25.34.01.68.02,1.01.02.33,0,.67.02,1,.02.13.01.24.12.24.26,0,.13-.11.24-.25.24ZM306.49,529.03h0c-.14,0-.25-.11-.25-.25-.01-.06.02-.13.07-.17.04-.05.1-.08.17-.08.66,0,1.33-.03,2-.04.14,0,.25.11.25.24.01.07-.02.14-.07.18-.04.05-.1.08-.17.08-.35,0-.69,0-1.04.02-.32.01-.64.01-.96.02ZM395.47,528.99h0l-2-.04c-.14,0-.25-.12-.25-.25,0-.14.12-.25.25-.25.68,0,1.34.03,2.01.04.13,0,.24.12.24.26,0,.13-.11.24-.25.24ZM309.49,528.97h0c-.14,0-.25-.11-.26-.25,0-.06.03-.12.07-.17.05-.05.11-.08.18-.08l2-.04c.14,0,.25.11.26.25,0,.14-.11.25-.25.25l-2,.04ZM392.47,528.93h0c-.34,0-.69,0-1.03,0-.32,0-.65-.02-.97-.02-.07,0-.13-.03-.18-.08-.04-.05-.07-.11-.07-.18.01-.13.12-.24.25-.24.68,0,1.34.02,2.01.03.14.01.24.12.24.26,0,.13-.11.24-.25.24ZM312.49,528.92h0c-.14,0-.25-.11-.26-.25,0-.07.03-.13.07-.18.05-.05.11-.07.18-.08h.06c.65,0,1.29-.02,1.94-.03.14,0,.25.11.25.25.01.13-.11.25-.24.25-.33.01-.66.01-.98.02-.34,0-.68,0-1.02.02ZM389.47,528.88h0l-2-.03c-.14,0-.25-.12-.25-.25.01-.14.12-.25.25-.25.39,0,.78,0,1.16.02.29,0,.57,0,.85,0,.14,0,.24.12.24.26,0,.13-.11.24-.25.24ZM315.49,528.87h0c-.14,0-.25-.11-.26-.25,0-.07.03-.13.08-.18.04-.05.1-.07.17-.07.66-.02,1.33-.03,2-.04.14,0,.25.11.25.25,0,.07-.02.13-.07.18-.04.04-.11.07-.17.07l-2,.04ZM386.47,528.84h0c-.66-.02-1.33-.03-2-.03-.14-.01-.25-.12-.25-.26.01-.13.12-.24.25-.24h.01c.41,0,.81,0,1.22,0,.26,0,.52,0,.78,0,.13,0,.24.12.24.26,0,.13-.11.25-.25.25ZM318.49,528.82h0c-.14,0-.26-.11-.26-.25,0-.07.03-.13.08-.18.04-.05.1-.07.17-.07h.67c.44-.02.89-.02,1.33-.03.14,0,.25.11.25.25,0,.06-.02.13-.07.17-.04.05-.11.08-.17.08-.33,0-.66,0-.99,0-.34.01-.68.01-1.01.02ZM383.47,528.79h0c-.26,0-.51,0-.77,0-.41,0-.82,0-1.23-.02-.14,0-.25-.11-.24-.25,0-.14.11-.25.24-.25.68.01,1.34.02,2.01.03h0c.13,0,.23.12.23.25,0,.14-.11.25-.25.25ZM321.49,528.78h-.01c-.13,0-.25-.11-.25-.25,0-.07.03-.13.07-.18.05-.05.11-.07.18-.07.65,0,1.3-.02,1.96-.03h.04c.14,0,.25.11.25.25s-.11.25-.24.25c-.67,0-1.34.02-2,.03ZM380.47,528.75h0c-.34,0-.69,0-1.03,0h-.97c-.06,0-.13-.04-.17-.09-.05-.05-.08-.11-.07-.18,0-.13.11-.24.24-.24h.52c.5,0,.99.02,1.49.02.06,0,.13.03.17.08.05.04.08.11.07.18,0,.13-.11.24-.25.24ZM324.49,528.74h-.01c-.14,0-.25-.11-.25-.25,0-.07.03-.13.07-.18.05-.04.11-.07.18-.07.35,0,.7,0,1.05,0h.95c.14-.01.25.1.25.23,0,.07-.02.13-.07.18-.05.05-.11.08-.17.08-.35,0-.7,0-1.04.01h-.96ZM377.48,528.72h-.01c-.33,0-.66,0-1,0-.33,0-.66,0-1,0-.13,0-.25-.12-.24-.26,0-.13.11-.24.24-.24l2.01.02c.14,0,.25.11.25.25-.01.14-.12.25-.25.25ZM327.48,528.71h0c-.14,0-.25-.12-.25-.25,0-.07.03-.13.07-.18.05-.05.11-.07.18-.07.34,0,.68,0,1.02,0h.98c.14,0,.25.1.25.23,0,.07-.02.13-.07.18-.04.05-.11.07-.17.08-.67,0-1.34,0-2.01.02ZM374.47,528.69h0c-.66-.01-1.33-.02-2-.02-.14,0-.25-.12-.24-.25,0-.14.11-.25.24-.25h.52c.5,0,.99,0,1.49.02.14,0,.25.11.25.25-.01.14-.12.25-.26.25ZM330.48,528.68h0c-.13,0-.25-.11-.25-.25s.11-.25.25-.26h2c.14,0,.25.1.25.24s-.11.25-.25.25c-.5,0-1,0-1.5,0h-.5ZM371.48,528.66h-.01c-.33,0-.67,0-1,0h-.99c-.14,0-.25-.12-.25-.26,0-.13.11-.24.24-.24h.68c.44,0,.89,0,1.33,0,.14,0,.25.11.25.25-.01.14-.12.25-.25.25ZM333.48,528.65h0c-.14,0-.25-.11-.25-.25s.11-.25.25-.25h.64c.45,0,.91,0,1.36,0,.14,0,.25.11.25.25,0,.13-.11.25-.25.25-.67,0-1.33,0-2,0ZM368.48,528.64l-2-.02c-.07,0-.13-.02-.18-.07-.05-.05-.07-.11-.07-.18,0-.13.11-.24.24-.24h.09c.64,0,1.28,0,1.92.01.07,0,.13.02.18.07.04.05.07.11.07.18,0,.13-.12.25-.25.25ZM336.48,528.63h0c-.14,0-.25-.11-.25-.25s.11-.25.25-.25h2c.14,0,.25.1.25.24s-.11.25-.25.25c-.67,0-1.33,0-2,0ZM365.48,528.62h-.65c-.45,0-.9,0-1.35,0-.14,0-.25-.12-.25-.25,0-.14.11-.25.24-.25h.68c.44,0,.89,0,1.33,0,.13,0,.25.11.25.25s-.12.25-.25.25ZM339.48,528.61h0c-.14,0-.25-.1-.25-.24s.11-.26.25-.26h1.2c.27,0,.53,0,.8,0,.14,0,.25.11.25.25s-.11.25-.25.25c-.4,0-.8,0-1.2,0h-.8ZM362.47,528.6h-1.99c-.14-.01-.25-.12-.25-.25,0-.14.11-.25.24-.25h2.01c.14,0,.25.12.25.25,0,.14-.12.25-.26.25ZM342.48,528.6h0c-.14,0-.25-.11-.25-.25s.11-.25.25-.25c.66,0,1.33-.01,2-.01.14,0,.25.11.25.25s-.11.25-.25.25c-.67,0-1.33.01-2,.01ZM359.48,528.59h-2c-.14,0-.25-.11-.25-.25s.11-.25.24-.25h2c.15,0,.26.12.26.25,0,.14-.11.25-.25.25ZM345.48,528.59h0c-.14,0-.25-.11-.25-.25s.11-.25.25-.25h2c.14,0,.25.11.25.25,0,.13-.11.25-.25.25h-2ZM356.48,528.59h0c-.67,0-1.33,0-2,0-.14,0-.25-.11-.25-.25,0-.13.11-.24.25-.24h2c.14,0,.25.11.25.25,0,.13-.11.25-.25.25ZM348.48,528.58c-.14,0-.25-.11-.25-.24,0-.14.11-.25.25-.25.67,0,1.33,0,2,0,.14,0,.25.11.25.25s-.11.25-.25.25h-2ZM353.48,528.58h-2c-.14,0-.25-.11-.25-.25s.11-.25.25-.25h2c.14,0,.25.11.25.25s-.11.25-.25.25Z"/>
  <path class="st1" d="M550.83,159.61c-.08,0-.15-.03-.2-.09-.08-.11-.06-.27.05-.36.44-.34.95-.72,1.6-1.2.11-.08.28-.05.35.06.08.11.06.26-.05.35-.54.39-1.07.79-1.59,1.19h0s-.1.05-.15.05ZM553.24,157.83c-.08,0-.15-.04-.2-.11-.03-.04-.05-.09-.05-.15,0-.08.04-.15.11-.2.5-.35,1.04-.73,1.64-1.15.11-.07.27-.04.35.07.08.11.05.27-.06.35-.56.37-1.11.76-1.64,1.14-.04.03-.09.05-.15.05ZM555.71,156.11c-.08,0-.16-.04-.21-.11-.03-.04-.04-.08-.04-.14,0-.08.04-.16.11-.2.55-.38,1.14-.77,1.66-1.12.12-.07.28-.04.35.07.08.12.05.27-.07.35-.51.34-1.04.69-1.66,1.11-.04.03-.09.04-.14.04ZM558.21,154.45c-.09,0-.16-.04-.21-.11-.03-.04-.04-.09-.04-.14,0-.08.04-.16.11-.21.51-.33,1.06-.68,1.69-1.08.11-.07.27-.03.34.08.08.11.04.27-.07.34-.69.44-1.2.77-1.69,1.08-.04.03-.08.04-.13.04ZM560.74,152.84c-.09,0-.17-.05-.21-.12-.03-.04-.04-.09-.04-.13,0-.09.04-.17.12-.22.5-.31,1.09-.68,1.7-1.05.11-.07.27-.04.34.08.04.06.05.12.03.19,0,.06-.05.12-.11.15-.64.4-1.19.74-1.7,1.06h0s-.08.04-.12.04ZM563.29,151.26c-.08,0-.17-.05-.21-.12-.03-.04-.04-.08-.04-.13,0-.09.05-.17.12-.21.59-.36,1.18-.71,1.72-1.04.12-.06.28-.02.34.09.07.12.04.27-.08.34-.56.34-1.11.67-1.72,1.03-.04.03-.08.04-.13.04ZM565.87,149.72c-.09,0-.17-.05-.22-.12-.02-.04-.03-.09-.03-.13,0-.09.05-.17.13-.22.55-.32,1.14-.66,1.73-1,.11-.07.27-.02.34.09.07.12.02.27-.09.34-.58.33-1.16.67-1.72,1t0,0s-.08.03-.13.03ZM568.47,148.22c-.09,0-.17-.05-.22-.13-.02-.03-.03-.07-.03-.12,0-.09.05-.17.13-.22.57-.32,1.15-.65,1.74-.98.12-.06.28-.02.34.1.07.12.03.27-.09.34-.64.35-1.21.67-1.75.98h0s-.07.03-.11.03ZM571.09,146.76c-.09,0-.17-.05-.22-.13-.02-.04-.03-.08-.03-.12,0-.1.05-.18.13-.22.67-.37,1.23-.67,1.76-.96.12-.06.28,0,.34.11.07.12.02.27-.1.33-.57.31-1.16.63-1.75.95h0s-.08.04-.12.04ZM573.73,145.33c-.09,0-.17-.05-.22-.13-.02-.04-.03-.08-.03-.12,0-.09.06-.18.14-.22.69-.36,1.26-.66,1.77-.93.12-.06.28,0,.34.11.06.13,0,.28-.11.34-.48.25-1.12.58-1.77.92-.03.02-.07.03-.12.03ZM576.4,143.95c-.1,0-.18-.05-.23-.13,0-.04-.02-.07-.02-.11-.01-.1.05-.19.13-.23.64-.32,1.21-.61,1.79-.9.12-.06.28,0,.34.12.06.12,0,.27-.11.33-.59.29-1.19.59-1.79.9-.04,0-.07.02-.11.02ZM579.08,142.62c-.09,0-.18-.06-.22-.14-.02-.04-.03-.07-.03-.11,0-.1.06-.19.14-.23.67-.32,1.26-.61,1.81-.86.12-.06.27-.01.33.11.06.13,0,.28-.11.34-.61.28-1.21.57-1.81.86-.03.02-.07.03-.11.03ZM581.8,141.33c-.1,0-.19-.06-.23-.15-.02-.03-.02-.07-.02-.11,0-.09.05-.18.14-.22.62-.28,1.23-.56,1.83-.83.12-.06.27,0,.33.13.05.12,0,.27-.13.33-.63.28-1.26.57-1.81.82,0,0,0,0,0,0-.03.01-.07.02-.1.02ZM584.54,140.09c-.1,0-.2-.06-.24-.15,0-.03-.02-.06-.02-.09,0-.11.06-.2.15-.24.69-.3,1.29-.56,1.85-.79.12-.05.27,0,.32.13.03.07.03.13,0,.2-.02.06-.07.11-.13.13-.65.28-1.25.53-1.83.79h0s-.06.02-.09.02ZM587.3,138.92c-.11,0-.2-.07-.24-.16-.01-.03-.01-.06-.01-.1,0-.09.05-.18.14-.22h0s.02,0,.03-.02c.62-.25,1.24-.5,1.83-.73.13-.05.28.02.32.14.05.13,0,.27-.14.32-.66.26-1.26.5-1.85.75-.03,0-.06.02-.09.02ZM590.09,137.81c-.11,0-.2-.06-.24-.16,0-.03,0-.06,0-.09,0-.1.06-.2.16-.23.65-.25,1.29-.49,1.88-.7.13-.05.27.02.32.15.04.13-.03.27-.15.32-.69.25-1.3.47-1.88.69-.02.01-.05.02-.08.02Z"/>
  <path class="st1" d="M553.5,167.43c-.07,0-.14-.04-.19-.1-.09-.1-.07-.26.03-.35.17-.13.34-.27.55-.44.11-.08.27-.06.35.04.04.05.06.1.06.16,0,.08-.04.15-.09.19-.2.16-.38.3-.55.44-.04.04-.1.06-.16.06ZM554.84,166.37c-.08,0-.15-.03-.2-.09-.04-.06-.06-.13-.05-.19,0-.07.04-.13.1-.17.48-.36,1-.75,1.6-1.19h0c.11-.08.27-.06.35.05.03.04.05.1.05.15,0,.08-.04.15-.11.2-.57.42-1.11.82-1.6,1.19-.04.03-.1.05-.15.05ZM557.26,164.59c-.08,0-.16-.04-.2-.1-.04-.05-.06-.12-.05-.19.01-.06.05-.12.1-.16.52-.37,1.08-.75,1.64-1.14h0c.11-.08.27-.05.35.06.03.04.04.09.04.14,0,.08-.04.16-.11.2-.62.44-1.16.81-1.63,1.15-.05.03-.1.04-.15.04ZM559.73,162.89c-.08,0-.16-.05-.21-.12-.04-.05-.05-.12-.04-.18.02-.07.05-.13.11-.16.5-.34,1.04-.7,1.66-1.11,0,0,0,0,0-.01.11-.07.27-.03.34.08.03.04.05.09.04.14,0,.08-.04.16-.11.21-.5.33-1.09.72-1.66,1.1-.04.03-.09.05-.14.05ZM562.23,161.23c-.08,0-.16-.04-.21-.12-.03-.05-.05-.12-.03-.18,0-.07.05-.13.11-.16.49-.32,1.08-.7,1.68-1.08.11-.08.28-.04.35.07.02.04.04.09.04.13,0,.09-.04.17-.12.22-.62.39-1.22.78-1.68,1.08-.04.02-.09.04-.14.04ZM564.76,159.61c-.08,0-.16-.04-.21-.11-.03-.06-.04-.13-.03-.19.02-.07.05-.12.11-.16.6-.37,1.14-.71,1.7-1.05.12-.07.28-.04.35.08.02.04.04.08.04.13,0,.08-.05.17-.12.21-.57.35-1.14.7-1.7,1.05-.04.03-.09.04-.14.04ZM567.32,158.04c-.09,0-.17-.05-.21-.12-.04-.06-.05-.12-.03-.19,0-.07.05-.12.11-.15.66-.4,1.21-.73,1.72-1.04.12-.06.27-.02.34.09.03.04.04.09.04.13,0,.09-.05.17-.12.22-.52.3-1.13.66-1.72,1.02-.04.03-.08.04-.13.04ZM569.9,156.5c-.09,0-.17-.04-.21-.12-.04-.06-.05-.13-.03-.19,0-.06.06-.12.11-.15.5-.3,1.04-.61,1.74-1.01.12-.06.27-.02.34.1.02.03.03.07.03.11,0,.1-.05.18-.12.23-.51.29-1.04.59-1.73,1-.04.02-.08.03-.13.03ZM572.5,155c-.09,0-.17-.05-.22-.12-.03-.06-.04-.13-.02-.19.02-.07.06-.12.12-.15.52-.3,1.09-.62,1.75-.98.11-.07.27-.02.34.09.02.04.03.08.03.12,0,.09-.05.18-.13.23-.56.3-1.14.63-1.75.97-.03.02-.08.03-.12.03ZM575.12,153.54c-.09,0-.17-.05-.22-.13-.03-.06-.04-.12-.02-.19.02-.06.06-.11.12-.15.57-.31,1.17-.63,1.77-.95h0c.12-.06.27,0,.33.11.02.03.03.07.03.11,0,.1-.05.18-.13.22-.51.28-1.05.57-1.76.95-.03.02-.07.03-.12.03ZM577.77,152.12c-.09,0-.18-.05-.22-.13-.07-.12-.02-.28.1-.34.61-.32,1.22-.63,1.78-.92.12-.07.28,0,.34.11,0,.03.02.07.02.1,0,.1-.04.18-.12.23h0s0,0-.02,0c-.65.33-1.28.66-1.76.91-.03.02-.07.03-.11.03ZM580.43,150.74c-.09,0-.18-.05-.22-.13-.03-.06-.03-.13,0-.2.02-.06.06-.11.12-.14l1.8-.9c.12-.06.27,0,.33.12.02.03.03.07.03.1,0,.1-.06.19-.14.23-.59.29-1.19.59-1.79.9-.04,0-.08.02-.12.02ZM583.13,149.41c-.1,0-.19-.06-.23-.14-.03-.06-.03-.13-.01-.2.02-.06.07-.11.13-.14.54-.26,1.13-.54,1.81-.86.12-.06.27,0,.33.12.02.04.02.07.02.11,0,.09-.05.18-.14.22-.67.32-1.26.6-1.8.86-.04.02-.08.03-.11.03ZM585.84,148.12c-.1,0-.19-.05-.23-.14-.05-.13,0-.28.13-.33.73-.34,1.29-.59,1.82-.83.12-.06.27,0,.33.12.01.04.02.07.02.1,0,.1-.06.19-.15.24-.64.28-1.28.57-1.82.82-.03.01-.06.02-.1.02ZM588.57,146.89c-.1,0-.19-.06-.23-.15-.02-.06-.02-.13,0-.19.03-.06.07-.11.13-.14.59-.25,1.19-.51,1.85-.79h0c.13-.05.27.02.32.14.02.03.02.06.02.1,0,.09-.05.18-.14.22h-.01s0,.01-.02.01c-.57.24-1.16.5-1.81.78-.04.02-.07.02-.11.02ZM591.34,145.72c-.1,0-.19-.06-.23-.15-.03-.06-.03-.13,0-.2.02-.06.07-.1.13-.13.56-.23,1.16-.47,1.86-.74h0c.13-.05.28.01.33.14.01.02.02.05.02.08,0,.11-.07.2-.16.24-.6.23-1.22.48-1.86.74-.03.02-.06.02-.09.02ZM594.13,144.62c-.11,0-.2-.06-.24-.16-.05-.13.02-.27.15-.33.61-.23,1.24-.46,1.88-.69h0c.13-.04.27.03.31.15.05.14-.02.28-.15.32-.62.22-1.25.46-1.87.69-.03.01-.06.02-.09.02Z"/>
  <path class="st4" d="M577.95,415.3c-1.6,60.46-4.12,88.7-13.52,116.8h0c.14.24,4.66,7.83,9.6,17.56,29.34-90.75,16.36-171.67,7.14-266.41-9.22-94.75-25.57-142.54-41.5-175.93,8.1,45,20.68,80.49,26.55,134.43,5.87,53.94,13.69,99.5,11.74,173.56Z"/>
</svg>